<svg width="20" height="20" viewBox="0 0 20 20" fill="none" xmlns="http://www.w3.org/2000/svg">
<path d="M14.8974 5.0769C14.5666 4.77281 13.2275 3.79911 10.2424 3.78577C10.2424 3.78577 6.72376 3.57236 5.00847 5.14627C4.05345 6.10127 3.71733 7.49648 3.68265 9.23044C3.64797 10.9617 3.60262 14.2083 6.73176 15.0886H6.73443L6.73176 16.4304C6.73176 16.4304 6.7131 16.9746 7.07055 17.084C7.50272 17.2174 7.7588 16.8039 8.1723 16.3584C8.39905 16.1129 8.71114 15.7555 8.94855 15.4807C11.088 15.6594 12.734 15.2486 12.9207 15.1873C13.3528 15.0459 15.7991 14.7338 16.1966 11.4873C16.6074 8.14735 15.9965 6.03194 14.8974 5.0769ZM15.2602 11.2525C14.9241 13.9628 12.942 14.1336 12.5766 14.2509C12.4218 14.3016 10.976 14.6618 9.15664 14.5417C9.15664 14.5417 7.80147 16.177 7.38001 16.6011C7.3133 16.6678 7.23593 16.6945 7.18526 16.6811C7.11322 16.6625 7.09189 16.5771 7.09455 16.4517C7.09455 16.2704 7.10522 14.2189 7.10522 14.2189C7.10255 14.2189 7.10255 14.2189 7.10522 14.2189C4.45626 13.4853 4.61097 10.7216 4.64035 9.27577C4.66968 7.82994 4.94176 6.64281 5.75005 5.84519C7.1986 4.53273 10.189 4.72744 10.189 4.72744C12.7126 4.7381 13.9211 5.4984 14.2012 5.75181C15.1322 6.5521 15.607 8.45948 15.2602 11.2525Z" fill="white"/>
<path d="M11.4721 9.32645C11.3841 9.32645 11.3094 9.25707 11.3041 9.16636C11.2747 8.59282 11.0053 8.31274 10.4558 8.28341C10.3624 8.27807 10.2904 8.19803 10.2957 8.10466C10.301 8.01128 10.3811 7.93928 10.4744 7.94461C11.2 7.98461 11.6055 8.40078 11.6429 9.1477C11.6482 9.24107 11.5762 9.32111 11.4828 9.32378C11.4775 9.32645 11.4748 9.32645 11.4721 9.32645Z" fill="white"/>
<path d="M12.3363 9.61461H12.3336C12.2402 9.61195 12.1656 9.53461 12.1682 9.44124C12.1816 8.86503 12.0162 8.3982 11.664 8.01403C11.3146 7.6299 10.8317 7.42182 10.1942 7.37649C10.1008 7.36849 10.0314 7.28845 10.0394 7.19507C10.0474 7.1017 10.1275 7.03236 10.2209 7.04036C10.9411 7.0937 11.5093 7.34445 11.9148 7.78728C12.3229 8.23278 12.5204 8.79032 12.507 9.44924C12.5044 9.54261 12.427 9.61461 12.3363 9.61461Z" fill="white"/>
<path d="M13.222 9.96139C13.1286 9.96139 13.0539 9.88668 13.0539 9.79331C13.0459 8.76093 12.7498 7.97397 12.1469 7.38443C11.552 6.80289 10.7971 6.50676 9.90876 6.49876C9.81539 6.49876 9.74068 6.42143 9.74068 6.32806C9.74068 6.23468 9.81806 6.15997 9.90876 6.15997C10.8878 6.16797 11.7201 6.4961 12.379 7.14168C13.0406 7.78726 13.3793 8.67822 13.39 9.78797C13.3927 9.88401 13.318 9.96139 13.222 9.96139C13.2246 9.96139 13.2246 9.96139 13.222 9.96139ZM10.4956 11.4152C10.4956 11.4152 10.7331 11.4366 10.8611 11.2791L11.1092 10.9671C11.2292 10.8123 11.52 10.7136 11.8028 10.871C11.9602 10.959 12.2456 11.1351 12.4217 11.2658C12.6111 11.4045 12.9952 11.7246 12.9979 11.7273C13.1819 11.8821 13.2246 12.1088 13.0993 12.3516C13.0993 12.3516 13.0993 12.3542 13.0993 12.3569C12.9712 12.5836 12.7978 12.7971 12.5817 12.9944C12.5791 12.9944 12.5791 12.9971 12.5764 12.9971C12.3976 13.1465 12.2216 13.2318 12.0508 13.2506C12.0295 13.2559 12.0055 13.2559 11.9735 13.2559C11.8988 13.2559 11.8241 13.2452 11.7494 13.2212L11.7441 13.2132C11.4773 13.1385 11.0345 12.9518 10.2982 12.5436C9.81806 12.2795 9.42056 12.0101 9.08176 11.7406C8.90306 11.5993 8.72164 11.4419 8.53493 11.2551C8.52956 11.2498 8.52156 11.2418 8.51622 11.2365C8.51089 11.2311 8.50289 11.2231 8.49756 11.2178C8.49222 11.2125 8.48422 11.2045 8.47889 11.1991C8.47356 11.1938 8.46556 11.1858 8.46022 11.1804C8.27614 10.9937 8.1161 10.8123 7.97472 10.6336C7.70526 10.2975 7.43585 9.89731 7.17176 9.41714C6.7636 8.67818 6.57685 8.23539 6.50218 7.97126L6.49418 7.96593C6.47014 7.89126 6.45947 7.81656 6.45947 7.74185C6.45947 7.70985 6.45947 7.68585 6.46481 7.66451C6.48618 7.4911 6.57151 7.31768 6.71826 7.13897C6.71826 7.13631 6.72093 7.13631 6.72093 7.13364C6.91831 6.91489 7.13172 6.74414 7.35847 6.6161C7.35847 6.6161 7.36114 6.6161 7.36381 6.6161C7.60389 6.49072 7.83064 6.53343 7.98806 6.71747C7.98806 6.71747 8.31085 7.10431 8.44956 7.29368C8.58026 7.47243 8.75631 7.75518 8.84435 7.9126C9.00176 8.19535 8.90306 8.48614 8.74831 8.60618L8.43622 8.85426C8.27881 8.98231 8.30014 9.21972 8.30014 9.21972C8.30014 9.21972 8.76168 10.9751 10.4956 11.4152Z" fill="white"/>
</svg>
