<svg width="64" height="60" viewBox="0 0 64 60" fill="none" xmlns="http://www.w3.org/2000/svg">
<path fill-rule="evenodd" clip-rule="evenodd" d="M6.85386 0.0848704C6.67956 0.114152 6.64108 0.136066 6.75311 0.142111C7.04952 0.158357 6.95885 0.303255 6.65236 0.303255C6.4972 0.303255 6.37026 0.267172 6.37026 0.223155C6.37026 0.179138 6.3356 0.163269 6.29308 0.187828C6.25077 0.212387 6.23827 0.286819 6.26548 0.353128C6.30638 0.453063 6.26447 0.468176 6.02004 0.44135C5.81451 0.41887 5.72545 0.438895 5.72545 0.507282C5.72545 0.562256 5.63457 0.605517 5.51911 0.605517C5.40566 0.605517 5.33211 0.576424 5.35549 0.540908C5.37906 0.505392 5.29947 0.495758 5.17897 0.51975C4.97747 0.559611 4.97444 0.565279 5.14109 0.589649C5.48505 0.639711 5.33211 0.771194 4.97988 0.728122C4.76327 0.701674 4.71148 0.707719 4.83883 0.74418C5.02724 0.798209 5.01031 0.815779 4.57688 1.01489C4.32198 1.13202 4.11342 1.25784 4.11342 1.29449C4.11342 1.33114 4.04894 1.36117 3.96995 1.36117C3.89116 1.36117 3.77429 1.42918 3.71041 1.5123C3.64654 1.59543 3.5476 1.66344 3.49057 1.66344C3.36866 1.66344 1.77598 3.15434 1.77598 3.26845C1.77598 3.31133 1.69175 3.41939 1.58899 3.50894C1.48602 3.59829 1.4165 3.71277 1.43444 3.76321C1.45237 3.81365 1.42779 3.85484 1.37963 3.85484C1.33167 3.85484 1.29237 3.90943 1.29237 3.97631C1.29237 4.0549 1.24845 4.08191 1.16724 4.05263C1.09248 4.0258 1.06286 4.03922 1.09389 4.08607C1.12231 4.12914 1.1221 4.22133 1.09369 4.29085C1.04916 4.39985 1.03143 4.40193 0.965738 4.30615C0.914355 4.23096 0.906899 4.27876 0.942565 4.45313C0.985888 4.66414 0.973396 4.70344 0.874458 4.66792C0.782169 4.63467 0.76222 4.66754 0.790431 4.8064C0.81179 4.91068 0.789221 4.98832 0.737637 4.98832C0.688067 4.98832 0.647565 5.09033 0.647565 5.21502C0.647565 5.3397 0.611294 5.44171 0.566963 5.44171C0.522633 5.44171 0.486362 5.54524 0.486362 5.67181C0.486362 5.84391 0.452913 5.89624 0.353572 5.87962C0.280628 5.86734 0.205064 5.89983 0.18572 5.95178C0.166375 6.00373 0.189749 6.04624 0.237909 6.04624C0.285866 6.04624 0.325159 6.14825 0.325159 6.27294C0.325159 6.53666 0.189145 6.57954 0.145419 6.32961C0.12688 6.22344 0.101693 6.27766 0.0779153 6.47432C0.0571605 6.64755 0.0680415 6.77299 0.102096 6.75334C0.13615 6.73351 0.163957 17.1948 0.163957 30.0005C0.163957 42.8062 0.13615 53.2675 0.102096 53.2477C0.0680415 53.2281 0.0571605 53.3535 0.0779153 53.5267C0.101693 53.7234 0.12688 53.7776 0.145419 53.6714C0.192571 53.4013 0.325159 53.4744 0.325159 53.7704C0.325159 53.951 0.295337 54.0221 0.23408 53.9865C0.178667 53.9544 0.158315 53.9748 0.182092 54.0387C0.203452 54.0965 0.28506 54.1328 0.363243 54.1195C0.48213 54.0991 0.499863 54.1394 0.471652 54.3651C0.44848 54.5522 0.470242 54.6349 0.542783 54.6349C0.601421 54.6349 0.647565 54.7201 0.647565 54.8284C0.647565 54.9347 0.616533 55.0037 0.57865 54.9817C0.540768 54.9596 0.530491 55.0343 0.556082 55.1472C0.598599 55.3362 0.604645 55.339 0.630639 55.1828C0.646155 55.0892 0.697134 55.0127 0.743883 55.0127C0.796072 55.0127 0.809573 55.1036 0.778542 55.2487C0.733002 55.462 0.741062 55.4746 0.862166 55.3809C0.982262 55.2878 0.991732 55.2984 0.954253 55.4827C0.931483 55.5957 0.941558 55.6715 0.977023 55.6511C1.01229 55.6305 1.10195 55.7336 1.17591 55.88C1.25006 56.0264 1.34295 56.1462 1.38225 56.1462C1.42154 56.1462 1.45358 56.1987 1.45358 56.263C1.45358 56.3272 1.54425 56.4647 1.65508 56.5686C1.76591 56.6725 1.85658 56.7931 1.85658 56.8363C1.85658 56.9332 3.28363 58.2621 3.38781 58.2621C3.42932 58.2621 3.57077 58.3607 3.70215 58.4812C3.83373 58.6017 3.9639 58.6794 3.99151 58.6535C4.01912 58.6276 4.06687 58.641 4.0977 58.6831C4.18052 58.7967 4.74916 59.0933 4.88377 59.0933C4.94764 59.0933 5.00003 59.1273 5.00003 59.1688C5.00003 59.2104 5.06996 59.2444 5.1556 59.2444C5.25373 59.2444 5.32083 59.305 5.33695 59.4086C5.35105 59.4987 5.41715 59.5863 5.48364 59.6032C5.58943 59.63 5.58963 59.6241 5.48586 59.5565C5.38329 59.4896 5.38551 59.4726 5.50218 59.4307C5.68273 59.3657 5.86368 59.4666 5.71799 59.551C5.66016 59.5844 5.77119 59.592 5.96463 59.5676C6.25379 59.5314 6.30819 59.5433 6.27071 59.6349C6.24512 59.6978 6.29066 59.7849 6.37529 59.8344C6.49882 59.9065 6.51736 59.9022 6.47947 59.81C6.44481 59.7252 6.4966 59.6978 6.69266 59.6978C6.90444 59.6978 6.94212 59.7214 6.8986 59.8278C6.86918 59.8992 6.87019 59.9343 6.90041 59.906C6.93084 59.8775 7.02353 59.8882 7.10635 59.9298C7.20831 59.981 7.25687 59.98 7.25687 59.9271C7.25687 59.8028 56.7195 59.8191 56.7745 59.9434C56.8035 60.0087 56.8652 59.9857 56.9754 59.8678C57.1362 59.6961 57.6327 59.623 57.6327 59.7709C57.6327 59.8113 57.6944 59.8221 57.7697 59.7949C57.8554 59.7641 57.8705 59.7343 57.81 59.7154C57.545 59.6326 57.7457 59.5297 58.0961 59.5688C58.3067 59.5922 58.4337 59.5939 58.3783 59.5727C58.2052 59.5062 58.268 59.3955 58.479 59.3955C58.5898 59.3955 58.6805 59.3615 58.6805 59.32C58.6805 59.2784 58.7569 59.2444 58.8504 59.2444C58.9707 59.2444 59.0061 59.2786 58.9721 59.3617C58.9447 59.429 58.9582 59.4592 59.0039 59.4327C59.0476 59.4074 59.0835 59.3205 59.0835 59.2399C59.0835 59.1556 59.1385 59.0933 59.2131 59.0933C59.2969 59.0933 59.3257 59.1345 59.2945 59.2106C59.2671 59.2778 59.2806 59.3081 59.3263 59.2816C59.3701 59.2563 59.4059 59.1694 59.4059 59.0887C59.4059 59.0045 59.4609 58.9421 59.5355 58.9421C59.6193 58.9421 59.6481 58.9833 59.6169 59.0595C59.5895 59.1267 59.603 59.1569 59.6487 59.1305C59.6925 59.1052 59.7283 59.0217 59.7283 58.9452C59.7283 58.8583 59.8194 58.7761 59.9701 58.7268C60.1031 58.6833 60.2119 58.6142 60.2119 58.5734C60.2119 58.4462 60.5472 58.3873 60.6327 58.4995C60.6927 58.5785 60.7006 58.5724 60.6667 58.4733C60.6357 58.3824 60.8364 58.1491 61.3492 57.6798C61.7486 57.3143 62.128 56.9226 62.1923 56.8097C62.2566 56.6965 62.3884 56.535 62.4849 56.4507C62.5814 56.3663 62.631 56.2973 62.5949 56.2973C62.559 56.2973 62.5679 56.2541 62.6149 56.2012C62.7636 56.0331 63.1942 55.2283 63.1942 55.1183C63.1942 55.0603 63.2305 55.0086 63.2748 55.0033C63.3191 54.998 63.3886 54.9897 63.4293 54.9844C63.4698 54.9793 63.5333 54.9466 63.5704 54.912C63.6073 54.8773 63.5831 54.8603 63.5166 54.8743C63.4404 54.8901 63.3957 54.8435 63.3957 54.7483C63.3957 54.6651 63.4334 54.6032 63.4795 54.6107C63.5293 54.6188 63.5504 54.5187 63.5313 54.3651C63.5115 54.2076 63.5339 54.1059 63.5883 54.1059C63.6375 54.1059 63.6788 54.1485 63.6802 54.2004C63.6816 54.2524 63.7237 54.2287 63.7737 54.1477C63.8418 54.0376 63.8412 53.9934 63.7713 53.9714C63.6127 53.9219 63.6679 53.5715 63.8591 53.4141C63.9849 53.3108 64.0095 53.253 63.9397 53.2258C63.7914 53.168 63.7914 6.82948 63.9397 6.78262C64.0199 6.75731 64.0201 6.72784 63.9403 6.63716C63.8853 6.57463 63.8662 6.49925 63.8976 6.46978C63.9293 6.44031 63.8926 6.43842 63.8164 6.466C63.7036 6.50643 63.6778 6.47205 63.6778 6.28106C63.6778 6.15184 63.7171 6.04624 63.765 6.04624C63.8132 6.04624 63.8366 6.00373 63.8172 5.95178C63.7979 5.89983 63.7179 5.86828 63.6397 5.88151C63.5214 5.90172 63.5031 5.86167 63.5305 5.64121C63.5502 5.48365 63.5295 5.38221 63.4795 5.39033C63.4334 5.39789 63.3842 5.31042 63.3701 5.19613C63.3562 5.08183 63.3109 4.98832 63.2693 4.98832C63.228 4.98832 63.1942 4.94071 63.1942 4.88272C63.1942 4.74198 62.7245 3.90962 62.6066 3.84123C62.5554 3.81176 62.5363 3.76642 62.5639 3.74054C62.5915 3.71466 62.5087 3.59262 62.3801 3.46926C62.2515 3.34609 62.1464 3.21102 62.1464 3.16946C62.1464 3.07727 60.7268 1.739 60.629 1.739C60.5908 1.739 60.4539 1.65399 60.3252 1.55009C60.1964 1.44637 60.0457 1.36136 59.9903 1.36117C59.9349 1.36117 59.8895 1.33114 59.8895 1.2943C59.8895 1.25746 59.7618 1.17037 59.6056 1.10085C59.4494 1.03152 59.3388 0.948585 59.3598 0.916658C59.3807 0.884921 59.3181 0.861307 59.2205 0.864329C59.123 0.867541 59.0505 0.832592 59.0593 0.786686C59.0692 0.735868 58.9934 0.71811 58.8649 0.741157C58.6974 0.771195 58.6642 0.75457 58.7029 0.659924C58.7305 0.592671 58.6924 0.497647 58.6152 0.440973C58.4929 0.351239 58.4903 0.354451 58.5896 0.473277C58.689 0.591915 58.6785 0.605517 58.4889 0.605517C58.3692 0.605517 58.2775 0.562823 58.2775 0.507282C58.2775 0.438895 58.1884 0.41887 57.9829 0.44135C57.7328 0.468743 57.696 0.454386 57.7401 0.346705C57.7687 0.276995 57.7592 0.238835 57.7193 0.262072C57.6792 0.285308 57.6281 0.261504 57.6057 0.209175C57.5732 0.133799 57.5636 0.133799 57.5585 0.208798C57.5509 0.320446 57.0685 0.339149 57.0685 0.227689C57.0685 0.186128 57.1289 0.152124 57.2029 0.152124C57.4002 0.152124 57.3079 0.105084 57.004 0.050677C56.8378 0.0210175 56.7566 0.0312184 56.7872 0.0776913C56.8192 0.126431 48.2882 0.152124 32.013 0.152124C18.3601 0.152124 7.17768 0.126242 7.16277 0.0946936C7.14806 0.0631449 7.00902 0.0588003 6.85386 0.0848704ZM13.605 7.13703C13.6214 10.2265 13.6042 11.0744 13.5244 11.122C13.3858 11.2043 3.61772 11.1991 3.47869 11.1165C3.32977 11.0283 3.39506 7.13438 3.55223 6.72633C3.88492 5.86148 3.99917 5.64971 4.40782 5.14002C5.74862 3.46794 6.67372 3.19137 10.8839 3.20422L13.5841 3.21253L13.605 7.13703ZM47.1142 30.0005V56.7885H32.0015H16.8887L16.8682 30.0761C16.8567 15.3843 16.8647 3.32115 16.8857 3.26901C16.9163 3.19364 19.9854 3.17815 32.0192 3.19345L47.1142 3.21253V30.0005ZM56.7582 3.30699C56.8136 3.35894 56.9246 3.40144 57.005 3.40144C57.0854 3.40144 57.2142 3.43167 57.2911 3.4687C57.3681 3.50572 57.6105 3.61624 57.8298 3.71428C58.7152 4.11044 59.627 4.97151 60.0552 5.81595C60.1511 6.00487 60.2619 6.21872 60.3014 6.29088C60.3409 6.36305 60.3731 6.48376 60.3731 6.55914C60.3731 6.63452 60.4161 6.73634 60.4682 6.78527C60.6198 6.92733 60.6734 11.0281 60.5249 11.1161C60.4013 11.1896 50.8485 11.2096 50.5599 11.1371L50.3786 11.0916V7.22374C50.3786 4.23191 50.4013 3.334 50.4793 3.25881C50.6226 3.12072 56.6084 3.16662 56.7582 3.30699ZM13.5841 18.2123V22.1795L8.55153 22.1989C4.57909 22.2142 3.50569 22.1984 3.45491 22.1234C3.37713 22.0087 3.36504 14.3297 3.44241 14.2572C3.47224 14.229 5.76635 14.2149 8.54045 14.2256L13.5841 14.2451V18.2123ZM60.5746 18.2123V22.1795L55.5421 22.1989C51.5697 22.2142 50.4962 22.1984 50.4455 22.1234C50.3677 22.0087 50.3556 14.3297 50.433 14.2572C50.4628 14.229 52.7569 14.2149 55.531 14.2256L60.5746 14.2451V18.2123ZM24.5501 19.2181C23.6201 19.7514 23.6995 18.7439 23.6995 30.0005V39.8195L23.869 40.1052C24.2325 40.7182 24.5376 40.882 25.3162 40.882C25.9249 40.882 25.6307 41.0357 28.7704 39.0758C29.4093 38.677 29.9985 38.3135 30.0795 38.2682C30.1607 38.223 30.2937 38.1295 30.3751 38.0604C30.4565 37.9914 30.5656 37.9349 30.6173 37.9349C30.6693 37.9349 30.7119 37.9064 30.7119 37.8714C30.7119 37.8367 30.8039 37.7687 30.9164 37.7207C31.0288 37.6727 31.1648 37.5983 31.2186 37.5556C31.4532 37.3687 33.8559 35.8946 33.9258 35.8946C33.9683 35.8946 34.0151 35.865 34.03 35.8287C34.0526 35.7728 38.8274 32.7581 39.6102 32.3053C39.7541 32.2222 39.9868 32.0873 40.1279 32.0057C40.2687 31.9239 40.384 31.8303 40.384 31.7979C40.384 31.7652 40.4384 31.7385 40.5049 31.7385C40.5714 31.7385 40.6258 31.7087 40.6258 31.6722C40.6258 31.6356 40.7338 31.5638 40.8658 31.5126C41.1979 31.3836 41.9154 30.7052 41.9154 30.5204C41.9154 30.4367 41.9537 30.3015 42.0003 30.2199C42.0851 30.0714 42.0174 29.7625 41.8064 29.3329C41.6658 29.0469 41.2694 28.701 40.8463 28.4953C40.7249 28.4363 40.6258 28.3598 40.6258 28.3252C40.6258 28.2909 40.5783 28.2625 40.52 28.2625C40.462 28.2625 40.3441 28.203 40.2581 28.1303C40.1722 28.0575 40.0022 27.9499 39.8803 27.8907C39.7583 27.8318 39.6586 27.7553 39.6586 27.7207C39.6586 27.6863 39.6086 27.658 39.5476 27.658C39.4865 27.658 39.388 27.6032 39.3287 27.5361C39.2695 27.4693 39.1653 27.3928 39.0972 27.3661C38.904 27.2909 31.7226 22.7927 31.6926 22.7281C31.6777 22.6965 31.621 22.6707 31.5666 22.6707C31.5122 22.6707 31.3974 22.6112 31.3113 22.5384C31.2255 22.4657 31.0554 22.358 30.9335 22.2989C30.8116 22.2399 30.7119 22.1634 30.7119 22.1289C30.7119 22.0945 30.6643 22.0661 30.6061 22.0661C30.548 22.0661 30.4301 22.0066 30.3441 21.9339C30.2583 21.8612 30.0882 21.7535 29.9663 21.6944C29.8444 21.6354 29.7446 21.5589 29.7446 21.5243C29.7446 21.49 29.7106 21.4616 29.6689 21.4616C29.6274 21.4616 28.8707 21.0046 27.9877 20.4462C25.7655 19.0409 25.207 18.8412 24.5501 19.2181ZM30.4565 25.6294C30.4715 25.6646 30.5146 25.6933 30.5527 25.6933C30.6474 25.6933 33.2441 27.2892 33.2776 27.368C33.2925 27.4028 33.3491 27.4313 33.4035 27.4313C33.4579 27.4313 33.5728 27.4908 33.6588 27.5635C33.7447 27.6363 33.9147 27.7439 34.0367 27.8031C34.1586 27.862 34.2583 27.9385 34.2583 27.9731C34.2583 28.0075 34.3059 28.0358 34.3641 28.0358C34.4221 28.0358 34.54 28.0953 34.6261 28.1681C34.7119 28.2408 34.882 28.3485 35.0039 28.4076C35.1258 28.4665 35.2255 28.5431 35.2255 28.5776C35.2255 28.612 35.2799 28.6403 35.3464 28.6403C35.4129 28.6403 35.4673 28.6744 35.4673 28.7159C35.4673 28.7575 35.5149 28.7915 35.5731 28.7915C35.6312 28.7915 35.7567 28.8595 35.8518 28.9426C35.9469 29.0257 36.0626 29.0937 36.1087 29.0937C36.1549 29.0937 36.1927 29.1253 36.1927 29.1638C36.1927 29.2024 36.2381 29.2449 36.2935 29.2583C36.5345 29.3167 37.3963 29.8976 37.3947 30.0005C37.3935 30.0944 35.1701 31.557 34.8791 31.6556C34.83 31.6722 34.7175 31.7487 34.6297 31.8256C34.5416 31.9023 34.4221 31.9652 34.3641 31.9652C34.3059 31.9652 34.2583 31.9936 34.2583 32.028C34.2583 32.0625 34.1586 32.139 34.0367 32.198C33.9147 32.2569 33.7969 32.3264 33.7747 32.3525C33.7525 32.3788 32.9727 32.869 32.0418 33.442C31.1108 34.0149 30.331 34.5039 30.3088 34.5282C30.2867 34.5526 30.1688 34.6206 30.0469 34.6795C29.925 34.7385 29.8252 34.815 29.8252 34.8496C29.8252 34.884 29.7863 34.9123 29.739 34.9123C29.6368 34.9123 28.9102 35.3674 28.8715 35.4558C28.8566 35.4894 28.8109 35.5168 28.7698 35.5168C28.7287 35.5168 28.3246 35.7522 27.8719 36.0397C27.4191 36.3273 27.0205 36.5464 26.9861 36.5264C26.9131 36.4842 26.8998 23.5495 26.9726 23.4813C27.0243 23.4326 30.4108 25.5206 30.4565 25.6294ZM13.5841 30.0005V34.7234H8.50619H3.42831L3.40735 30.0761C3.39587 27.5201 3.40393 25.3861 3.42529 25.3338C3.45592 25.2586 4.51884 25.2427 8.52413 25.2582L13.5841 25.2777V30.0005ZM60.5746 30.0005V34.7234H55.4968H50.4189L50.3979 30.0761C50.3864 27.5201 50.3945 25.3861 50.4158 25.3338C50.4465 25.2586 51.5094 25.2427 55.5147 25.2582L60.5746 25.2777V30.0005ZM13.5244 37.8465C13.6042 37.8941 13.6214 38.742 13.605 41.8315L13.5841 45.7559H8.50619H3.42831L3.40735 41.8728C3.39224 39.0682 3.41179 37.9612 3.47768 37.8867C3.58085 37.7704 13.3306 37.7313 13.5244 37.8465ZM60.515 37.8465C60.5948 37.8941 60.6119 38.742 60.5956 41.8315L60.5746 45.7559H55.4968H50.4189L50.3979 41.8728C50.3828 39.0682 50.4023 37.9612 50.4682 37.8867C50.5714 37.7704 60.3211 37.7313 60.515 37.8465ZM13.605 52.8402L13.5841 56.7885H10.4648C8.07679 56.7885 7.32196 56.7664 7.24478 56.6941C7.18937 56.6421 7.07834 56.5996 6.99814 56.5996C6.3632 56.5996 4.89767 55.5814 4.2849 54.7146C3.94879 54.2391 3.84562 54.0366 3.55203 53.2747C3.48352 53.0975 3.43657 52.3311 3.40917 50.9511L3.36806 48.8919H8.49692H13.6258L13.605 52.8402ZM60.5936 50.9889C60.5507 53.1098 60.539 53.1978 60.1986 53.9352C60.1172 54.1112 60.0507 54.2898 60.0507 54.3319C60.0507 54.3738 60.0233 54.4082 59.9899 54.4082C59.9562 54.4082 59.8788 54.5144 59.8176 54.6442C59.5006 55.3152 58.2455 56.2014 56.9879 56.6421C56.4875 56.8172 50.5627 56.9062 50.4503 56.74C50.4122 56.6835 50.3804 54.8947 50.3798 52.7647L50.3786 48.8919H55.5072H60.6359L60.5936 50.9889Z" fill="#0C45A4"/>
<path fill-rule="evenodd" clip-rule="evenodd" d="M27.0044 30.0066C27.0044 35.1262 27.0249 36.4214 27.1051 36.3779C27.1606 36.3477 28.6309 35.4277 30.3727 34.3331C32.1147 33.2385 33.5746 32.3431 33.6169 32.3431C33.6594 32.3431 33.6947 32.3176 33.6951 32.2864C33.6955 32.2552 34.4749 31.7537 35.427 31.1718C36.4478 30.548 37.1505 30.0714 37.139 30.0102C37.1231 29.9242 29.7537 25.2327 27.6291 23.9561L27.0044 23.5807V30.0066Z" fill="#A3E3FB"/>
<path fill-rule="evenodd" clip-rule="evenodd" d="M10.6216 3.30637L13.4628 3.32771V7.18061V11.0335H8.50725H3.55168L3.52871 9.16326L3.50554 7.29302L3.487 9.20105L3.46826 11.1091H8.50665H13.5448L13.5241 7.19856L13.5031 3.28804L10.6418 3.28653L7.78043 3.28502L10.6216 3.30637ZM24.4448 3.30693C28.6008 3.3177 35.4015 3.3177 39.5575 3.30693C43.7135 3.29616 40.3131 3.28729 32.0011 3.28729C23.6891 3.28729 20.2888 3.29616 24.4448 3.30693ZM50.5126 3.3007C50.483 3.32828 50.4588 5.09651 50.4588 7.23011V11.1091H55.4964H60.534V9.19953C60.534 6.50732 60.3138 5.83309 59.0459 4.64652C58.4607 4.09886 57.6072 3.55101 57.4982 3.65321C57.4748 3.67513 57.6205 3.76373 57.8222 3.84968C58.8122 4.27266 59.8918 5.47529 60.2005 6.49958C60.2569 6.6866 60.3369 6.94409 60.3782 7.07161C60.4195 7.19931 60.4534 8.14294 60.4534 9.16855V11.0335H55.5367H50.62V7.18061V3.32771L53.4209 3.30693L56.2218 3.28596L53.3941 3.2682C51.8387 3.25838 50.5421 3.27293 50.5126 3.3007ZM7.25652 3.40139L7.05502 3.46184L7.25652 3.46826C7.36735 3.47185 7.51243 3.44163 7.57893 3.40139C7.73288 3.30807 7.56724 3.30807 7.25652 3.40139ZM56.4233 3.40139C56.4898 3.44163 56.653 3.47185 56.786 3.46826C57.023 3.46203 57.0238 3.46071 56.8263 3.40139C56.518 3.30882 56.2706 3.30882 56.4233 3.40139ZM6.73261 3.55252C6.57726 3.61505 6.57766 3.6177 6.74793 3.6228C6.84505 3.62563 6.94702 3.59408 6.97442 3.55252C7.03326 3.46316 6.95447 3.46316 6.73261 3.55252ZM5.66283 4.08809C5.00452 4.49142 3.79711 5.81949 4.08889 5.81949C4.12476 5.81949 4.20556 5.70897 4.26803 5.5739C4.3307 5.43883 4.67506 5.05344 5.03334 4.71755C5.39161 4.38166 5.80268 4.05881 5.94675 4.00006C6.09083 3.94149 6.20871 3.86782 6.20871 3.83627C6.20871 3.75315 6.21213 3.75164 5.66283 4.08809ZM3.79994 6.24775C3.7949 6.29631 3.76729 6.39832 3.73848 6.47445C3.69798 6.58194 3.70886 6.59347 3.78644 6.5264C3.84145 6.47898 3.86905 6.37697 3.84789 6.29971C3.82674 6.22263 3.80518 6.1992 3.79994 6.24775ZM3.5936 6.86399C3.56055 7.0019 3.5533 7.13357 3.57748 7.15624C3.63813 7.2131 3.73425 6.83131 3.68971 6.71059C3.66997 6.65694 3.62664 6.7259 3.5936 6.86399ZM3.50514 14.3773C3.48398 14.4292 3.47612 16.189 3.48761 18.2878L3.50856 22.1039H8.50584H13.5031L13.5241 18.1933L13.5448 14.2828H8.54433C4.61824 14.2828 3.53556 14.303 3.50514 14.3773ZM50.4957 14.3773C50.4746 14.4292 50.4667 16.189 50.4782 18.2878L50.4991 22.1039H55.4964H60.4937L60.5147 18.1933L60.5354 14.2828H55.5349C51.6088 14.2828 50.5261 14.303 50.4957 14.3773ZM13.4225 18.2122V22.0283L8.48569 22.0478L3.54886 22.0672V18.2122V14.3573L8.48569 14.3767L13.4225 14.3962V18.2122ZM60.4534 18.2122V22.0661H55.5367H50.62V18.2122V14.3584H55.5367H60.4534V18.2122ZM24.9346 18.9509C24.8826 18.9819 25.0569 19.01 25.3219 19.0134C25.604 19.017 25.76 18.9938 25.6983 18.9571C25.5675 18.8793 25.0618 18.8753 24.9346 18.9509ZM24.2519 19.289C24.098 19.4241 24.0466 19.4793 24.1379 19.4117C24.2291 19.3438 24.4125 19.2348 24.5455 19.1691C24.6813 19.1018 24.7313 19.0482 24.6598 19.0465C24.5894 19.0448 24.4061 19.154 24.2519 19.289ZM26.5996 19.4935C26.7099 19.5728 26.816 19.6227 26.8356 19.6043C26.8811 19.5615 26.5865 19.3508 26.4799 19.3499C26.4356 19.3495 26.4894 19.4139 26.5996 19.4935ZM23.6982 19.8771C23.5575 20.1951 23.6299 20.216 23.7897 19.9038C23.8618 19.763 23.8932 19.648 23.86 19.648C23.8265 19.648 23.7538 19.7511 23.6982 19.8771ZM26.9676 19.7143C27.0359 19.7734 31.7325 22.711 31.981 22.8499C32.2774 23.0158 32.0211 22.801 31.6713 22.5905C31.4456 22.4549 31.2189 22.3068 31.1675 22.2616C31.1163 22.2165 30.9745 22.1313 30.8526 22.0721C30.7307 22.0132 30.6309 21.9367 30.6309 21.9021C30.6309 21.8677 30.5963 21.8394 30.5539 21.8394C30.5116 21.8394 29.6984 21.3463 28.7465 20.7437C27.2446 19.7931 26.6833 19.4681 26.9676 19.7143ZM23.5771 30.0382C23.5771 35.3581 23.5868 37.5232 23.5984 34.8497C23.6101 32.1762 23.6101 27.8236 23.5984 25.1773C23.5868 22.531 23.5771 24.7184 23.5771 30.0382ZM32.1623 22.9279C32.1623 22.9487 33.0872 23.5438 34.2177 24.2501C35.3481 24.9565 36.2724 25.5107 36.2718 25.4816C36.2698 25.4059 32.1623 22.8533 32.1623 22.9279ZM26.943 30.0148C26.9245 36.0094 26.9448 36.6965 27.1316 36.4131C27.1679 36.358 27.155 36.3449 27.0973 36.3782C27.028 36.4184 26.9994 34.8257 26.9837 30.0235L26.9625 23.6152L26.943 30.0148ZM3.50614 30.0005C3.50614 32.598 3.51622 33.6607 3.52871 32.3619C3.541 31.0631 3.541 28.9378 3.52871 27.639C3.51622 26.3403 3.50614 27.4029 3.50614 30.0005ZM13.5007 30.0005C13.5007 32.598 13.5108 33.6607 13.5233 32.3619C13.5356 31.0631 13.5356 28.9378 13.5233 27.639C13.5108 26.3403 13.5007 27.4029 13.5007 30.0005ZM50.4588 30.0005C50.4588 33.0735 50.4866 34.6855 50.5394 34.6855C50.5922 34.6855 50.62 33.0735 50.62 30.0005C50.62 26.9274 50.5922 25.3154 50.5394 25.3154C50.4866 25.3154 50.4588 26.9274 50.4588 30.0005ZM60.4913 30.0005C60.4913 32.598 60.5014 33.6607 60.5139 32.3619C60.5261 31.0631 60.5261 28.9378 60.5139 27.639C60.5014 26.3403 60.4913 27.4029 60.4913 30.0005ZM36.3979 25.6084C36.4401 25.6449 37.6219 26.3905 39.0239 27.2654C40.4266 28.1406 41.6431 28.952 41.7281 29.0693C42.277 29.8265 42.1839 30.5538 41.4575 31.1882C41.2536 31.3661 41.1208 31.5118 41.1625 31.5118C41.3372 31.5118 41.9695 30.834 42.0606 30.5489C42.3324 29.6982 42.0481 29.0827 41.1091 28.4882C40.8209 28.3057 40.5489 28.1287 40.5046 28.0947C40.0079 27.714 36.0912 25.3428 36.3979 25.6084ZM30.3891 25.6411C30.3891 25.6587 30.5433 25.7684 30.7317 25.885C30.9201 26.0015 31.0317 26.0484 30.9797 25.9894C30.8796 25.8759 30.3891 25.5867 30.3891 25.6411ZM31.1145 26.0937C31.1145 26.1234 31.7732 26.5537 32.2631 26.8443C32.7233 27.1171 32.4608 26.9004 31.9004 26.5448C31.2092 26.1062 31.1145 26.052 31.1145 26.0937ZM33.2505 27.4668C33.3834 27.569 33.5265 27.6538 33.5684 27.6553C33.6101 27.6568 33.5215 27.5729 33.3714 27.469C33.0201 27.2261 32.9351 27.2244 33.2505 27.4668ZM40.7754 31.661L40.5852 31.8104L40.8062 31.7177C40.9277 31.6669 41.0275 31.5996 41.0279 31.5684C41.0289 31.4817 40.9823 31.4987 40.7754 31.661ZM36.328 34.4348C34.0359 35.874 32.1718 37.0621 32.1855 37.0749C32.2107 37.0987 39.2542 32.7295 39.5235 32.523C39.6045 32.4609 39.7586 32.3725 39.866 32.3266C39.9734 32.2807 40.0613 32.2145 40.0613 32.1798C40.0613 32.1448 40.1066 32.1152 40.162 32.1138C40.2892 32.1108 40.5868 31.9036 40.5344 31.8547C40.513 31.8344 38.6201 32.9955 36.328 34.4348ZM30.9725 33.9697C30.7403 34.1161 30.5503 34.2525 30.5503 34.2728C30.5503 34.2928 30.7498 34.1851 30.9936 34.0332C31.3809 33.7922 31.4948 33.7032 31.4158 33.7032C31.4041 33.7032 31.2046 33.8231 30.9725 33.9697ZM29.8644 34.6576C29.2929 35.0125 28.9385 35.2833 29.3816 35.0265C30.1165 34.6005 30.5511 34.3077 30.4487 34.3077C30.4371 34.3077 30.1741 34.4651 29.8644 34.6576ZM28.7934 35.3225C28.419 35.5706 28.3664 35.6416 28.6826 35.4718C28.8301 35.3926 28.9887 35.2853 29.035 35.2334C29.1541 35.0998 29.0981 35.1204 28.7934 35.3225ZM31.8399 37.2548C31.7291 37.336 31.6781 37.4032 31.7267 37.4042C31.7752 37.4051 31.8806 37.3379 31.9608 37.2548C32.1446 37.0643 32.0995 37.0643 31.8399 37.2548ZM31.345 37.5582L31.1548 37.7106L31.3765 37.6216C31.4984 37.5727 31.5981 37.5041 31.5981 37.4694C31.5981 37.3751 31.555 37.3902 31.345 37.5582ZM3.52267 37.9092C3.49264 37.9371 3.46826 39.7055 3.46826 41.8391V45.7181H8.50665H13.5448L13.5241 41.8076L13.5031 37.8971L8.5401 37.8776C5.81033 37.8668 3.55249 37.881 3.52267 37.9092ZM29.9049 38.4413C29.3955 38.7613 28.2772 39.4584 27.4198 39.9904C26.5626 40.5222 25.9 40.9575 25.9476 40.9575C26.0211 40.9575 28.7473 39.3035 29.1007 39.0445C29.1678 38.9952 29.3219 38.9068 29.4433 38.8477C29.5646 38.7887 29.6637 38.7122 29.6637 38.6777C29.6637 38.6433 29.709 38.6149 29.7644 38.6147C29.8199 38.6147 29.9921 38.5127 30.1473 38.3882C30.3025 38.2637 30.4582 38.1617 30.4933 38.1617C30.5283 38.1615 30.6349 38.0935 30.73 38.0104C31.0212 37.7561 30.8687 37.8357 29.9049 38.4413ZM50.5132 37.9092C50.4832 37.9371 50.4588 39.7055 50.4588 41.8391V45.7181H55.4972H60.5354L60.5147 41.8076L60.4937 37.8971L55.5307 37.8776C52.8009 37.8668 50.5431 37.881 50.5132 37.9092ZM13.4435 41.8076L13.4225 45.6048L8.48569 45.6242L3.54886 45.6437V41.827V38.0104H8.50665H13.4642L13.4435 41.8076ZM60.4534 41.8265V45.6425H55.5367H50.62V41.8265V38.0104H55.5367H60.4534V41.8265ZM23.6218 39.9224C23.615 40.213 24.4859 41.0765 24.6398 40.932C24.6628 40.9106 24.5784 40.8428 24.4522 40.7814C24.1471 40.6325 23.8959 40.372 23.747 40.0501C23.6762 39.8973 23.6236 39.8434 23.6218 39.9224ZM24.9346 41.05C25.0618 41.1256 25.5675 41.1216 25.6983 41.0438C25.76 41.0072 25.604 40.9839 25.3219 40.9875C25.0569 40.9909 24.8826 41.0191 24.9346 41.05ZM3.50453 48.9878C3.48297 49.0405 3.47572 49.8991 3.48841 50.8959L3.51158 52.7079L3.53032 50.8377L3.54886 48.9674H8.50584H13.4628V52.8231V56.6787L10.541 56.6498C8.93404 56.6339 7.47415 56.5997 7.29682 56.574C7.03306 56.5357 7.05099 56.5476 7.39596 56.6398C7.74094 56.7322 8.33437 56.749 10.6603 56.7327L13.5031 56.7129L13.5241 52.8024L13.5448 48.8919H8.54433C4.57673 48.8919 3.53577 48.9117 3.50453 48.9878ZM50.4957 48.9863C50.4746 49.0383 50.4667 50.798 50.4782 52.8968L50.4991 56.7129L53.3419 56.7327C55.6679 56.749 56.2613 56.7322 56.6063 56.6398C56.9513 56.5476 56.9694 56.5355 56.7054 56.574C56.5281 56.5997 55.0864 56.6339 53.5015 56.6498L50.62 56.6789V52.8231V48.9674H55.5353H60.4506L60.4736 50.9132L60.4965 52.859L60.5153 50.8754L60.534 48.8919H55.5341C51.6086 48.8919 50.5261 48.9121 50.4957 48.9863ZM3.55571 52.9346C3.56337 53.1927 3.69757 53.4337 3.70321 53.1991C3.70563 53.0952 3.67238 52.9592 3.62946 52.8968C3.56498 52.8033 3.55209 52.8099 3.55571 52.9346ZM60.3412 53.0164C60.3142 53.0822 60.2922 53.2015 60.2922 53.2818C60.2922 53.3621 60.262 53.4868 60.2249 53.559C60.1878 53.6311 60.0355 53.9283 59.8866 54.2192C59.4165 55.1375 58.2562 56.0808 57.1977 56.4051C57.1137 56.4308 57.0665 56.4722 57.0929 56.4968C57.263 56.6564 58.9566 55.6242 59.3719 55.1079C59.4977 54.9516 59.6291 54.8124 59.6641 54.7986C59.6994 54.7846 59.728 54.7389 59.728 54.6968C59.728 54.6549 59.7943 54.5302 59.8755 54.4198C60.0486 54.1841 60.3404 53.4925 60.4143 53.1424C60.4685 52.8855 60.4252 52.8109 60.3412 53.0164ZM3.71571 53.4779C3.73384 53.6742 3.85998 53.8406 3.86563 53.6759C3.86865 53.5849 3.835 53.4893 3.79067 53.4636C3.74634 53.4379 3.71268 53.4443 3.71571 53.4779ZM3.87127 53.9222C3.87127 54.5583 6.55005 56.8336 6.90611 56.4998C6.93412 56.4735 6.88858 56.4314 6.80455 56.4063C5.78394 56.101 4.03247 54.6048 4.03247 54.0382C4.03247 53.9973 3.9962 53.9427 3.95187 53.917C3.90754 53.8913 3.87127 53.8935 3.87127 53.9222ZM24.4448 56.7318C28.6008 56.7425 35.4015 56.7425 39.5575 56.7318C43.7135 56.721 40.3131 56.7121 32.0011 56.7121C23.6891 56.7121 20.2888 56.721 24.4448 56.7318Z" fill="#298ED4"/>
<path fill-rule="evenodd" clip-rule="evenodd" d="M7.57876 3.40137C7.51227 3.4416 7.36033 3.47523 7.24104 3.4758C7.12175 3.47636 7.00166 3.51094 6.97425 3.5525C6.94685 3.59406 6.83582 3.62806 6.72761 3.62806C6.6194 3.62806 6.53094 3.66207 6.53094 3.70363C6.53094 3.74519 6.4584 3.77919 6.36974 3.77919C6.28108 3.77919 6.20854 3.80489 6.20854 3.83625C6.20854 3.86779 6.09066 3.94147 5.94658 4.00003C5.63284 4.12774 4.44136 5.23459 4.2727 5.55498C4.20721 5.67967 4.13527 5.79868 4.11311 5.81946C4.00571 5.91978 3.8711 6.21089 3.8711 6.34294C3.8711 6.42418 3.83886 6.50938 3.79937 6.53224C3.6565 6.61498 3.60733 7.17738 3.5757 9.08767L3.54346 11.0335H8.50306H13.4627V7.17964V3.3258L10.5812 3.32693C8.85992 3.32769 7.6509 3.35754 7.57876 3.40137ZM16.9285 30.0004V56.6751H32.001H47.0734V30.0004V3.3258H32.001H16.9285V30.0004ZM50.6199 7.17775V11.0335H55.5365H60.4532V9.16853C60.4532 8.14291 60.4194 7.19929 60.3781 7.07158C60.3368 6.94407 60.2568 6.68658 60.2003 6.49955C59.8791 5.43427 58.8353 4.29663 57.74 3.81792C56.7121 3.36868 56.8282 3.38153 53.5014 3.3496L50.6199 3.32202V7.17775ZM3.5487 18.2122V22.0672L8.48553 22.0477L13.4224 22.0283V18.2122V14.3962L8.48553 14.3767L3.5487 14.3572V18.2122ZM50.6199 18.2122V22.0661H55.5365H60.4532V18.2122V14.3584H55.5365H50.6199V18.2122ZM25.7959 18.9862C25.9726 19.038 26.1171 19.106 26.1171 19.1373C26.1171 19.1689 26.1715 19.1946 26.238 19.1946C26.3045 19.1946 26.3589 19.2286 26.3589 19.2701C26.3589 19.3117 26.4064 19.3457 26.4647 19.3457C26.5227 19.3457 26.6482 19.4137 26.7433 19.4968C26.8384 19.5799 26.9386 19.648 26.966 19.648C26.9932 19.648 27.7944 20.141 28.7463 20.7437C29.6982 21.3463 30.5114 21.8394 30.5538 21.8394C30.5961 21.8394 30.6307 21.8677 30.6307 21.9021C30.6307 21.9367 30.7305 22.0132 30.8524 22.0721C30.9743 22.131 31.0922 22.1991 31.1143 22.2236C31.1365 22.248 32.2972 22.9744 33.6936 23.8379C35.09 24.7014 36.2446 25.438 36.2593 25.475C36.2742 25.5118 36.321 25.5421 36.3637 25.5421C36.4274 25.5421 40.2422 27.8937 40.5044 28.0947C40.5487 28.1287 40.8208 28.3057 41.1089 28.4882C42.0479 29.0827 42.3322 29.6982 42.0604 30.5489C41.9619 30.8572 41.3316 31.5117 41.1333 31.5117C41.0755 31.5117 41.0283 31.5458 41.0283 31.5873C41.0283 31.6289 40.983 31.6629 40.9276 31.6631C40.8721 31.6631 40.6999 31.7651 40.5447 31.8896C40.3895 32.0141 40.2173 32.1161 40.1618 32.1161C40.1064 32.1163 40.0611 32.1448 40.0611 32.1797C40.0611 32.2145 39.9732 32.2806 39.8658 32.3265C39.7584 32.3724 39.6043 32.4609 39.5233 32.5234C39.3004 32.6949 32.3014 37.0575 32.1593 37.1134C32.0912 37.1402 31.9871 37.2171 31.9278 37.284C31.8686 37.3511 31.77 37.4059 31.709 37.4059C31.6479 37.4059 31.5979 37.4357 31.5979 37.4722C31.5979 37.5088 31.4891 37.581 31.3561 37.6326C31.2232 37.6841 31.1143 37.7563 31.1143 37.7929C31.1143 37.8294 31.0668 37.8593 31.0086 37.8593C30.9505 37.8593 30.825 37.9273 30.7299 38.0104C30.6348 38.0935 30.5282 38.1615 30.4931 38.1617C30.458 38.1617 30.3023 38.2637 30.1471 38.3882C29.992 38.5127 29.8197 38.6147 29.7643 38.6147C29.7089 38.6149 29.6635 38.6432 29.6635 38.6776C29.6635 38.7122 29.5644 38.7887 29.4431 38.8477C29.3218 38.9068 29.1676 38.9952 29.1005 39.0445C28.6455 39.3779 26.0228 40.9385 25.789 41.0149C25.1091 41.2363 24.2451 40.9333 23.7986 40.317L23.5781 40.0129V30.1138C23.5781 19.2996 23.5483 19.927 24.0859 19.4309C24.6199 18.938 25.1553 18.7988 25.7959 18.9862ZM3.5487 30.0004V34.6855H8.50568H13.4627V30.0004V25.3154H8.50568H3.5487V30.0004ZM50.6199 30.0004V34.6855H55.5365H60.4532V30.0004V25.3154H55.5365H50.6199V30.0004ZM3.5487 41.827V45.6436L8.48553 45.6242L13.4224 45.6047L13.4433 41.8076L13.4641 38.0104H8.50648H3.5487V41.827ZM50.6199 41.8264V45.6425H55.5365H60.4532V41.8264V38.0104H55.5365H50.6199V41.8264ZM3.5757 50.9132C3.60733 52.8235 3.6565 53.3859 3.79937 53.4686C3.83886 53.4915 3.8711 53.5752 3.8711 53.6545C3.8711 54.2562 5.17503 55.6597 6.16824 56.1268C7.24709 56.6343 7.12054 56.619 10.5409 56.6513L13.4627 56.6787V52.8231V48.9674H8.50306H3.54346L3.5757 50.9132ZM50.6199 52.8231V56.6789L53.5014 56.6513C56.2273 56.6252 56.7256 56.5976 57.1083 56.4525C58.677 55.8573 59.6665 54.9308 60.2199 53.5391C60.3748 53.1492 60.403 52.802 60.4296 50.951L60.4585 48.9674H55.5392H50.6199V52.8231Z" fill="#2CACF4"/>
<path fill-rule="evenodd" clip-rule="evenodd" d="M7.21679 0.0771014C7.24923 0.126408 15.7249 0.151722 32.0666 0.150967C48.1397 0.150211 56.8243 0.123952 56.7459 0.0763455C56.5772 -0.0258569 7.14928 -0.0252899 7.21679 0.0771014ZM6.37007 0.227666C6.37007 0.269227 6.49702 0.303231 6.65217 0.303231C6.80733 0.303231 6.93428 0.269227 6.93428 0.227666C6.93428 0.186105 6.80733 0.1521 6.65217 0.1521C6.49702 0.1521 6.37007 0.186105 6.37007 0.227666ZM57.0683 0.227666C57.0683 0.269227 57.1771 0.303231 57.3101 0.303231C57.4431 0.303231 57.5519 0.269227 57.5519 0.227666C57.5519 0.186105 57.4431 0.1521 57.3101 0.1521C57.1771 0.1521 57.0683 0.186105 57.0683 0.227666ZM5.98721 0.285662C5.72062 0.326846 5.76637 0.454362 6.04766 0.454362C6.18066 0.454362 6.28947 0.422436 6.28947 0.38333C6.28947 0.283017 6.19738 0.253169 5.98721 0.285662ZM57.6883 0.351593C57.7363 0.469097 58.1967 0.493656 58.1967 0.378797C58.1967 0.337236 58.1514 0.298886 58.096 0.293597C58.0405 0.288307 57.9166 0.276027 57.8207 0.266393C57.7022 0.254491 57.6597 0.281884 57.6883 0.351593ZM5.40285 0.492145C5.34764 0.554486 5.2344 0.605494 5.15118 0.605494C5.06796 0.605494 4.99985 0.639498 4.99985 0.681059C4.99985 0.72262 4.94343 0.756625 4.87451 0.756625C4.69135 0.756625 4.07575 1.03244 3.95525 1.16846C3.89843 1.23288 3.80977 1.28558 3.75839 1.28558C3.7072 1.28558 3.6129 1.35359 3.54902 1.43671C3.48515 1.51984 3.38782 1.58784 3.33281 1.58784C3.20969 1.58784 1.69519 2.99733 1.69519 3.112C1.69519 3.15753 1.63172 3.24991 1.55414 3.31716C1.30992 3.52912 1.04091 3.93057 1.09169 4.00764C1.16625 4.12042 1.29219 4.09568 1.29219 3.96816C1.29219 3.90582 1.33148 3.85481 1.37944 3.85481C1.4276 3.85481 1.45218 3.81363 1.43425 3.76319C1.41631 3.71275 1.48583 3.59827 1.5888 3.50891C1.69157 3.41937 1.7758 3.31131 1.7758 3.26842C1.7758 3.15432 3.36848 1.66341 3.49039 1.66341C3.54741 1.66341 3.64635 1.5954 3.71023 1.51228C3.7741 1.42916 3.89097 1.36115 3.96976 1.36115C4.04875 1.36115 4.11323 1.33281 4.11323 1.29824C4.11323 1.22211 5.05808 0.756625 5.21263 0.756625C5.27288 0.756625 5.32225 0.72262 5.32225 0.681059C5.32225 0.639498 5.41293 0.605494 5.52376 0.605494C5.64909 0.605494 5.72526 0.56261 5.72526 0.492145C5.72526 0.429803 5.67529 0.378797 5.61423 0.378797C5.55318 0.378797 5.45807 0.429803 5.40285 0.492145ZM58.2773 0.492145C58.2773 0.56261 58.3535 0.605494 58.4788 0.605494C58.5896 0.605494 58.6803 0.639498 58.6803 0.681059C58.6803 0.72262 58.7297 0.756625 58.7899 0.756625C58.9445 0.756625 59.8893 1.22211 59.8893 1.29824C59.8893 1.33281 59.9347 1.36115 59.9901 1.36115C60.0455 1.36134 60.1962 1.44635 60.325 1.55006C60.4538 1.65397 60.5906 1.73898 60.6289 1.73898C60.7266 1.73898 62.1462 3.07724 62.1462 3.16943C62.1462 3.21099 62.2514 3.34607 62.3799 3.46924C62.5085 3.5926 62.5913 3.71464 62.5637 3.74052C62.5361 3.7664 62.5552 3.81174 62.6064 3.84121C62.7243 3.9096 63.194 4.74195 63.194 4.88269C63.194 4.94069 63.2303 4.98829 63.2746 4.98829C63.3189 4.98829 63.3552 5.07123 63.3552 5.17267C63.3552 5.27412 63.3915 5.37821 63.4358 5.40391C63.4801 5.4296 63.5164 5.55353 63.5164 5.67915C63.5164 5.82953 63.5509 5.89621 63.6171 5.87411C63.7209 5.83973 63.7193 5.5182 63.6151 5.4449C63.5831 5.42242 63.544 5.31984 63.5285 5.21726C63.4688 4.82243 62.7735 3.59921 62.4484 3.31716C62.3709 3.24991 62.3074 3.15753 62.3074 3.112C62.3074 3.00829 60.7989 1.58784 60.6885 1.58784C60.644 1.58784 60.5168 1.50283 60.406 1.39893C60.2952 1.29503 60.1724 1.21002 60.1332 1.21002C60.0941 1.21002 60.0127 1.16751 59.9524 1.11556C59.766 0.954984 59.4831 0.825011 59.411 0.86695C59.3731 0.888864 59.3197 0.852592 59.2927 0.786095C59.2655 0.719786 59.1921 0.683703 59.1297 0.706184C59.0672 0.728665 58.9947 0.694661 58.9685 0.630619C58.9423 0.566577 58.8742 0.531061 58.8173 0.551464C58.7605 0.571866 58.6451 0.541452 58.5608 0.483833C58.3634 0.348382 58.2773 0.350837 58.2773 0.492145ZM10.8031 3.24821L13.5033 3.28807L13.545 7.21748L13.5867 11.1469L13.5853 7.17969L13.5839 3.2125L10.8434 3.21043L8.103 3.20835L10.8031 3.24821ZM16.8855 3.26899C16.8646 3.32113 16.8565 15.3842 16.868 30.0761L16.8885 56.7885H32.0013H47.114V30.0005V3.2125L32.019 3.19342C19.9852 3.17812 16.9161 3.19361 16.8855 3.26899ZM50.4751 3.2654C50.402 3.33398 50.383 4.30216 50.3975 7.25148L50.4165 11.1469L50.458 7.21748L50.4993 3.28807L53.1994 3.24878L55.8996 3.20948L53.2357 3.1921C51.2501 3.17907 50.5472 3.19777 50.4751 3.2654ZM7.25668 3.32982C7.17004 3.38517 7.22726 3.39273 7.45819 3.35646C7.85797 3.29374 7.92245 3.24991 7.61274 3.25142C7.48338 3.25199 7.32318 3.28731 7.25668 3.32982ZM47.0737 30.0005V56.7507H32.0013H16.9288V30.0005V3.25029H32.0013H47.0737V30.0005ZM56.1883 3.2773C56.2724 3.34512 56.8259 3.38612 56.7832 3.32132C56.7574 3.28221 56.6054 3.25029 56.4456 3.25029C56.2857 3.25029 56.17 3.26257 56.1883 3.2773ZM6.73278 3.47698C6.67394 3.56634 6.75272 3.56634 6.97458 3.47698C7.12994 3.41445 7.12954 3.41181 6.95926 3.40671C6.86214 3.40387 6.76018 3.43542 6.73278 3.47698ZM6.04766 3.78378C5.80384 3.90941 5.53182 4.08604 5.44315 4.17615L5.28195 4.34032L5.44315 4.21885C5.53182 4.15197 5.84012 3.97515 6.12827 3.82591C6.41641 3.67648 6.6159 3.55444 6.57157 3.55482C6.52724 3.55501 6.29148 3.65815 6.04766 3.78378ZM0.960311 4.13818C0.955072 4.16935 0.956281 4.22414 0.963334 4.26003C0.970185 4.29593 0.91457 4.36715 0.839611 4.41853C0.764652 4.46991 0.729188 4.55115 0.760622 4.59894C0.850492 4.73515 0.969782 4.70115 0.969782 4.53943C0.969782 4.45877 1.00605 4.37168 1.05038 4.34599C1.09471 4.32029 1.13098 4.25021 1.13098 4.19032C1.13098 4.08019 0.977842 4.03352 0.960311 4.13818ZM59.0404 4.59781C59.3052 4.85417 59.5351 5.06386 59.5514 5.06386C59.6213 5.06386 59.1208 4.55455 58.8522 4.35222C58.6801 4.22282 58.7577 4.32407 59.0404 4.59781ZM4.87512 4.62936L4.55654 4.95051L4.8991 4.65184C5.0875 4.48748 5.24165 4.34297 5.24165 4.33069C5.24165 4.27345 5.17153 4.33068 4.87512 4.62936ZM0.460986 5.21877C0.33948 5.51196 0.261296 5.784 0.28729 5.82329C0.383206 5.96876 0.486174 5.88847 0.486174 5.66838C0.486174 5.5437 0.522445 5.44169 0.566776 5.44169C0.611106 5.44169 0.647377 5.33967 0.647377 5.21499C0.647377 5.09031 0.683647 4.98829 0.727978 4.98829C0.772309 4.98829 0.80858 4.92029 0.80858 4.83716C0.80858 4.54869 0.681028 4.68887 0.460986 5.21877ZM4.32683 5.23388C4.06789 5.55598 3.79063 6.02694 3.79184 6.14294C3.79224 6.19356 3.92301 6.0141 4.0824 5.74395C4.24159 5.4738 4.42818 5.19327 4.4969 5.12053C4.56561 5.0478 4.59986 4.98829 4.57306 4.98829C4.54626 4.98829 4.43564 5.09881 4.32683 5.23388ZM0.163769 6.27291C0.163769 6.39759 0.20004 6.4996 0.244371 6.4996C0.288701 6.4996 0.324971 6.39759 0.324971 6.27291C0.324971 6.14823 0.288701 6.04621 0.244371 6.04621C0.20004 6.04621 0.163769 6.14823 0.163769 6.27291ZM63.6776 6.25855C63.6776 6.38229 63.7266 6.50112 63.7864 6.52265C63.8642 6.55061 63.893 6.49526 63.8872 6.3292C63.8765 6.0209 63.6776 5.95383 63.6776 6.25855ZM3.68343 6.32335C3.65381 6.35093 3.63184 6.44444 3.63466 6.53115C3.6395 6.67586 3.64615 6.67397 3.71708 6.50754C3.79607 6.32259 3.77954 6.23305 3.68343 6.32335ZM0.0563676 6.77674C-0.0347119 6.86194 -0.00791205 53.1842 0.0831674 53.2369C0.136767 53.2681 0.163769 45.5048 0.163769 30.005C0.163769 17.2018 0.151679 6.7263 0.136969 6.7263C0.122058 6.7263 0.0857871 6.74897 0.0563676 6.77674ZM3.5186 6.84248C3.49099 6.91012 3.47265 7.05615 3.47769 7.16704C3.48454 7.31798 3.50268 7.29267 3.54983 7.06635C3.61653 6.74519 3.60182 6.6394 3.5186 6.84248ZM60.4213 6.92768C60.4955 7.21729 60.5341 7.24468 60.5341 7.00778C60.5341 6.89954 60.4965 6.78902 60.4503 6.76219C60.3953 6.73027 60.3854 6.78732 60.4213 6.92768ZM63.8388 30.0005C63.8388 45.4159 63.8658 53.1991 63.9194 53.1991C63.973 53.1991 64 45.4159 64 30.0005C64 14.5851 63.973 6.80187 63.9194 6.80187C63.8658 6.80187 63.8388 14.5851 63.8388 30.0005ZM3.42248 9.3711C3.42248 10.3478 3.43397 10.7473 3.44807 10.259C3.46197 9.77065 3.46197 8.97154 3.44807 8.4832C3.43397 7.99486 3.42248 8.39441 3.42248 9.3711ZM60.5688 9.3711C60.5688 10.3478 60.5803 10.7473 60.5944 10.259C60.6083 9.77065 60.6083 8.97154 60.5944 8.4832C60.5803 7.99486 60.5688 8.39441 60.5688 9.3711ZM6.03336 11.1658C7.42192 11.1773 9.67069 11.1773 11.0306 11.1658C12.3906 11.1541 11.2545 11.1446 8.506 11.1446C5.7575 11.1446 4.6448 11.1541 6.03336 11.1658ZM53.0584 11.1658C54.4215 11.1773 56.6522 11.1773 58.0154 11.1658C59.3785 11.1541 58.2632 11.1446 55.5369 11.1446C52.8105 11.1446 51.6952 11.1541 53.0584 11.1658ZM3.44223 14.2572C3.36485 14.3297 3.37694 22.0087 3.45472 22.1233C3.5055 22.1983 4.57891 22.2142 8.55134 22.1989L13.5839 22.1795V18.2123V14.2451L8.54026 14.2256C5.76616 14.2148 3.47205 14.229 3.44223 14.2572ZM50.4328 14.2572C50.3554 14.3297 50.3675 22.0087 50.4453 22.1233C50.4961 22.1983 51.5695 22.2142 55.5419 22.1989L60.5744 22.1795V18.2123V14.2451L55.5308 14.2256C52.7567 14.2148 50.4626 14.229 50.4328 14.2572ZM13.5242 18.1934L13.5033 22.1039H8.506H3.50872L3.48777 18.2878C3.47628 16.189 3.48414 14.4293 3.5053 14.3773C3.53572 14.3031 4.6184 14.2829 8.54449 14.2829H13.545L13.5242 18.1934ZM60.5148 18.1934L60.4938 22.1039H55.4966H50.4993L50.4783 18.2878C50.4668 16.189 50.4747 14.4293 50.4959 14.3773C50.5263 14.3031 51.609 14.2829 55.5351 14.2829H60.5356L60.5148 18.1934ZM24.9084 19.0435C24.7619 19.0875 24.8548 19.106 25.2485 19.1115C25.9 19.1206 25.8633 19.1026 27.9926 20.4494C28.8784 21.0097 29.6171 21.455 29.6342 21.4389C29.6514 21.423 28.8347 20.8916 27.8193 20.2584C25.8119 19.0061 25.4861 18.8701 24.9084 19.0435ZM24.1267 19.4406C23.8855 19.6898 23.6709 20.0243 23.7219 20.0721C23.7463 20.095 23.8283 19.9907 23.9045 19.8405C23.9804 19.6901 24.1175 19.5182 24.2088 19.4582C24.3 19.3983 24.3558 19.3316 24.3329 19.31C24.3099 19.2885 24.2172 19.3471 24.1267 19.4406ZM23.6578 30.0005C23.6578 35.4242 23.6675 37.643 23.6792 34.9311C23.6909 32.2193 23.6909 27.7817 23.6792 25.0698C23.6675 22.358 23.6578 24.5768 23.6578 30.0005ZM29.7444 21.5173C29.7444 21.5908 30.0697 21.7863 30.1174 21.7416C30.1368 21.7234 30.0606 21.6524 29.9484 21.5834C29.8363 21.5145 29.7444 21.4846 29.7444 21.5173ZM30.2281 21.8196C30.2281 21.8931 30.5533 22.0886 30.601 22.0438C30.6204 22.0257 30.5442 21.9546 30.432 21.8857C30.3199 21.8167 30.2281 21.7869 30.2281 21.8196ZM30.7117 22.1218C30.7117 22.1953 31.0369 22.3908 31.0846 22.3461C31.104 22.3279 31.0278 22.2569 30.9156 22.188C30.8035 22.119 30.7117 22.0892 30.7117 22.1218ZM31.1953 22.4241C31.1953 22.4976 31.5205 22.6931 31.5683 22.6483C31.5876 22.6302 31.5114 22.5592 31.3992 22.4902C31.2872 22.4213 31.1953 22.3914 31.1953 22.4241ZM31.6841 22.7284C31.6904 22.7923 39.0305 27.3649 39.069 27.3289C39.09 27.3092 32.6155 23.2209 31.9029 22.804C31.7796 22.7318 31.6813 22.6978 31.6841 22.7284ZM26.9595 23.5083C26.9309 23.5517 26.929 23.6078 26.9556 23.6328C26.9822 23.6577 27.004 23.6381 27.004 23.5889C27.004 23.5398 27.5934 23.868 28.3138 24.3181C29.6981 25.1832 29.9187 25.3132 29.7847 25.1849C29.5266 24.9382 27.0038 23.4408 26.9595 23.5083ZM3.4251 25.3337C3.40374 25.3861 3.39568 27.52 3.40717 30.0761L3.42812 34.7233H8.506H13.5839V30.0005V25.2776L8.52394 25.2582C4.51866 25.2427 3.45573 25.2586 3.4251 25.3337ZM30.1072 25.4222C30.2401 25.5293 30.3822 25.6171 30.4229 25.6173C30.5104 25.6177 30.5094 25.6169 30.1475 25.398L29.8653 25.2274L30.1072 25.4222ZM50.4157 25.3337C50.3943 25.3861 50.3862 27.52 50.3977 30.0761L50.4187 34.7233H55.4966H60.5744V30.0005V25.2776L55.5145 25.2582C51.5092 25.2427 50.4463 25.2586 50.4157 25.3337ZM13.5436 30.0005V34.6856H8.506H3.46842V30.0005V25.3154H8.506H13.5436V30.0005ZM60.5341 30.0005V34.6856H55.4966H50.459V30.0005V25.3154H55.4966H60.5341V30.0005ZM32.4849 26.894C32.8216 27.1604 32.8516 27.1811 33.0287 27.2699C33.5563 27.5346 33.1632 27.2212 32.5252 26.8685L32.2834 26.7347L32.4849 26.894ZM39.3136 27.5125C39.4122 27.6086 39.5129 27.6683 39.5377 27.6451C39.5625 27.6219 39.4819 27.5431 39.3586 27.4702L39.1345 27.3376L39.3136 27.5125ZM33.5315 27.579C33.6417 27.6583 33.7479 27.7082 33.7675 27.6899C33.813 27.647 33.5184 27.4364 33.4118 27.4354C33.3675 27.435 33.4213 27.4995 33.5315 27.579ZM39.6584 27.7137C39.6584 27.7872 39.9836 27.9827 40.0314 27.9379C40.0507 27.9198 39.9746 27.8488 39.8623 27.7798C39.7503 27.7108 39.6584 27.681 39.6584 27.7137ZM34.0151 27.8813C34.1253 27.9606 34.2315 28.0105 34.2511 27.9921C34.2966 27.9493 34.002 27.7386 33.8954 27.7377C33.8511 27.7373 33.9049 27.8017 34.0151 27.8813ZM40.142 28.0159C40.142 28.0894 40.4672 28.285 40.515 28.2402C40.5343 28.2221 40.4582 28.151 40.3459 28.0821C40.2339 28.0131 40.142 27.9833 40.142 28.0159ZM34.4987 28.1835C34.6089 28.2629 34.7151 28.3127 34.7347 28.2944C34.7802 28.2515 34.4856 28.0409 34.379 28.0399C34.3347 28.0396 34.3885 28.104 34.4987 28.1835ZM40.6256 28.3182C40.6256 28.3917 40.9508 28.5872 40.9986 28.5424C41.0179 28.5243 40.9418 28.4533 40.8295 28.3843C40.7175 28.3154 40.6256 28.2855 40.6256 28.3182ZM34.9823 28.4858C35.0925 28.5651 35.1987 28.615 35.2183 28.5967C35.2638 28.5538 34.9692 28.3431 34.8626 28.3422C34.8183 28.3418 34.8721 28.4062 34.9823 28.4858ZM41.1092 28.6224C41.1092 28.6598 41.2011 28.7365 41.3136 28.7928C41.4258 28.8492 41.5932 29.0098 41.6853 29.1496C41.7776 29.2894 41.8709 29.3871 41.8929 29.3665C41.9574 29.3062 41.6069 28.8868 41.3478 28.7138C41.2166 28.6261 41.1092 28.585 41.1092 28.6224ZM35.7077 28.9392C35.818 29.0185 35.9241 29.0684 35.9437 29.0501C35.9892 29.0072 35.6946 28.7965 35.588 28.7956C35.5437 28.7952 35.5975 28.8596 35.7077 28.9392ZM36.2732 29.2675C36.2732 29.2868 36.5089 29.4466 36.7971 29.6227C37.4628 30.0294 37.5237 29.9279 36.0706 30.8323C35.3829 31.2604 34.8358 31.6251 34.855 31.6431C34.9237 31.7077 37.3923 30.111 37.3943 30.0005C37.3953 29.9381 37.1708 29.7511 36.8952 29.5849C36.3411 29.2507 36.2732 29.2159 36.2732 29.2675ZM41.9177 29.5849C41.9177 29.668 41.9529 29.787 41.9958 29.8494C42.0605 29.9432 42.074 29.9366 42.074 29.8116C42.074 29.7285 42.0388 29.6094 41.9958 29.5471C41.9312 29.4532 41.9177 29.4598 41.9177 29.5849ZM41.9703 30.2561C41.94 30.3301 41.9175 30.4475 41.9203 30.5168C41.9237 30.6003 41.9517 30.5812 42.0033 30.4603C42.046 30.36 42.0686 30.2427 42.0533 30.1996C42.038 30.1567 42.0007 30.182 41.9703 30.2561ZM41.5193 31.0316C41.3236 31.2203 41.0425 31.4291 40.8946 31.4952C40.7467 31.5613 40.6256 31.6431 40.6256 31.6769C40.6256 31.7107 40.5877 31.7385 40.5416 31.7385C40.4955 31.7385 40.3776 31.8107 40.2796 31.8989C40.1219 32.0413 40.1198 32.0502 40.2629 31.9786C40.679 31.7699 41.5578 31.1402 41.7367 30.9228C42.0104 30.5901 41.9404 30.625 41.5193 31.0316ZM34.4987 31.8175C34.3885 31.897 34.3347 31.9614 34.379 31.961C34.4856 31.9601 34.7802 31.7495 34.7347 31.7066C34.7151 31.6882 34.6089 31.7381 34.4987 31.8175ZM34.0151 32.1197C33.9049 32.1993 33.8511 32.2637 33.8954 32.2633C34.002 32.2624 34.2966 32.0517 34.2511 32.0088C34.2315 31.9905 34.1253 32.0404 34.0151 32.1197ZM32.7797 32.9052C31.938 33.4448 31.54 33.7334 32.0416 33.4408C32.7273 33.0407 33.8035 32.3432 33.7336 32.3442C33.6897 32.3447 33.2603 32.5973 32.7797 32.9052ZM39.288 32.5059L39.1345 32.6687L39.3562 32.535C39.5847 32.397 39.628 32.343 39.5097 32.343C39.4722 32.343 39.3725 32.4163 39.288 32.5059ZM36.2955 34.3646C35.0442 35.1437 34.0195 35.8054 34.0185 35.8351C34.0165 35.8819 38.3625 33.1843 38.5663 33.0122C38.7921 32.8213 38.3642 33.0762 36.2955 34.3646ZM31.4534 33.7357C31.079 33.9837 31.0264 34.0548 31.3426 33.8849C31.4901 33.8058 31.6487 33.6985 31.695 33.6465C31.8141 33.513 31.7581 33.5336 31.4534 33.7357ZM27.5563 36.1549C27.2625 36.3397 26.9941 36.4672 26.9599 36.4383C26.9256 36.4094 26.9248 36.43 26.9579 36.4838C26.9947 36.5437 27.0548 36.5564 27.112 36.5165C27.1634 36.4804 27.4141 36.324 27.669 36.1687C28.0651 35.9275 28.2023 35.819 28.1115 35.819C28.0998 35.819 27.8501 35.9702 27.5563 36.1549ZM32.5655 36.6905C31.8784 37.1235 31.2722 37.5128 31.2184 37.5555C31.1646 37.5982 31.0286 37.6727 30.9162 37.7206C30.8038 37.7686 30.7117 37.8385 30.7117 37.8759C30.7117 37.9587 30.6051 38.0199 32.364 36.9281C33.8706 35.9932 34.0212 35.8916 33.8914 35.8988C33.8493 35.9012 33.2526 36.2573 32.5655 36.6905ZM3.47749 37.8867C3.4116 37.9611 3.39205 39.0682 3.40717 41.8728L3.42812 45.7559H8.506H13.5839L13.6048 41.8314C13.6212 38.7419 13.604 37.8941 13.5242 37.8465C13.3304 37.7312 3.58066 37.7703 3.47749 37.8867ZM50.468 37.8867C50.4022 37.9611 50.3826 39.0682 50.3977 41.8728L50.4187 45.7559H55.4966H60.5744L60.5954 41.8314C60.6117 38.7419 60.5946 37.8941 60.5148 37.8465C60.321 37.7312 50.5712 37.7703 50.468 37.8867ZM13.5242 41.8076L13.545 45.7181H8.50681H3.46842V41.8391C3.46842 39.7056 3.4928 37.9371 3.52283 37.9092C3.55265 37.881 5.81049 37.8669 8.54026 37.8776L13.5033 37.8971L13.5242 41.8076ZM60.5148 41.8076L60.5356 45.7181H55.4974H50.459V41.8391C50.459 39.7056 50.4834 37.9371 50.5134 37.9092C50.5432 37.881 52.8011 37.8669 55.5308 37.8776L60.4938 37.8971L60.5148 41.8076ZM30.3413 38.0977L30.1878 38.2606L30.4094 38.1268C30.6379 37.9889 30.6812 37.9349 30.563 37.9349C30.5255 37.9349 30.4257 38.0082 30.3413 38.0977ZM29.8577 38.4L29.7041 38.5628L29.9258 38.4291C30.1543 38.2912 30.1976 38.2371 30.0793 38.2371C30.0419 38.2371 29.9421 38.3104 29.8577 38.4ZM28.7168 39.1093C28.484 39.2524 28.2936 39.3852 28.2936 39.4046C28.2936 39.4524 29.0978 38.9813 29.149 38.9034C29.2101 38.8109 29.1764 38.8269 28.7168 39.1093ZM27.0175 40.165L25.8623 40.8819H25.2691C24.943 40.8819 24.6537 40.8479 24.6263 40.8064C24.5989 40.7648 24.5342 40.7308 24.4826 40.7308C24.3073 40.7308 24.7057 40.9343 24.9771 40.9834C25.5387 41.0852 27.3085 40.27 28.1687 39.5134C28.3571 39.3478 28.0953 39.4959 27.0175 40.165ZM23.6994 39.9366C23.6994 40.0549 23.948 40.4094 24.1505 40.5797C24.3591 40.7552 24.3569 40.7472 24.1179 40.468C23.9762 40.3027 23.8606 40.1261 23.8606 40.0756C23.8606 40.0254 23.8243 39.963 23.78 39.9374C23.7356 39.9117 23.6994 39.9113 23.6994 39.9366ZM3.40414 50.6488C3.42067 52.4081 3.44888 52.2039 3.48797 50.0441C3.49945 49.4102 3.48152 48.8917 3.44827 48.8917C3.41502 48.8919 3.39528 49.6825 3.40414 50.6488ZM13.5432 52.7835L13.5033 56.7129L10.8031 56.7522L8.103 56.7915L10.8259 56.8089C12.9435 56.8225 13.5573 56.8053 13.5873 56.7318C13.6085 56.6798 13.6161 54.8861 13.6044 52.7457L13.5831 48.8541L13.5432 52.7835ZM50.3784 52.7395C50.3784 54.8557 50.4003 56.6409 50.4273 56.7067C50.4709 56.8128 50.7786 56.8244 53.1879 56.8089L55.8996 56.7915L53.1994 56.7522L50.4993 56.7129V52.8024C50.4993 50.6516 50.4721 48.8919 50.4388 48.8919C50.4056 48.8919 50.3784 50.6233 50.3784 52.7395ZM60.5688 50.6299C60.5688 51.6066 60.5803 52.0061 60.5944 51.5178C60.6083 51.0294 60.6083 50.2303 60.5944 49.742C60.5803 49.2536 60.5688 49.6532 60.5688 50.6299ZM3.46963 52.8653C3.47024 52.9866 3.5055 53.1368 3.54802 53.1991C3.60041 53.2764 3.60927 53.2161 3.57562 53.0102C3.51457 52.6367 3.46802 52.573 3.46963 52.8653ZM60.4634 52.8968C60.4568 52.9592 60.4312 53.0952 60.4066 53.1991C60.3679 53.3623 60.3744 53.3697 60.4533 53.2535C60.5035 53.1796 60.5291 53.0436 60.5102 52.9512C60.491 52.8591 60.4701 52.8345 60.4634 52.8968ZM3.63527 53.4779C3.63224 53.569 3.6659 53.6646 3.71023 53.6903C3.80554 53.7454 3.80554 53.6716 3.71023 53.4636C3.64353 53.3179 3.64071 53.3183 3.63527 53.4779ZM63.7784 53.4817C63.6577 53.5203 63.6415 53.9548 63.7608 53.9548C63.8064 53.9548 63.8638 53.9062 63.888 53.8469C63.9579 53.6761 63.889 53.4462 63.7784 53.4817ZM0.163769 53.7235C0.163769 53.8458 0.20004 53.9668 0.244371 53.9925C0.292328 54.0203 0.324971 53.9304 0.324971 53.7704C0.324971 53.6225 0.288701 53.5014 0.244371 53.5014C0.20004 53.5014 0.163769 53.6013 0.163769 53.7235ZM0.293336 54.1684C0.235102 54.2566 0.329405 54.5593 0.415044 54.5593C0.454136 54.5593 0.486174 54.4573 0.486174 54.3326C0.486174 54.1185 0.383811 54.0313 0.293336 54.1684ZM63.5164 54.3281C63.5164 54.4503 63.4769 54.5733 63.4287 54.6012C63.3806 54.629 63.3596 54.7182 63.3822 54.7992C63.4064 54.8857 63.3761 54.9634 63.3086 54.9875C63.2456 55.0102 63.194 55.0728 63.194 55.1264C63.194 55.2303 62.7577 56.0394 62.6147 56.2011C62.5677 56.254 62.5589 56.2973 62.5947 56.2973C62.6308 56.2973 62.5812 56.3662 62.4847 56.4507C62.3882 56.5349 62.2562 56.6965 62.1917 56.8096C62.0295 57.0937 60.6156 58.3797 60.3931 58.4454C60.2934 58.4747 60.2117 58.5323 60.2117 58.5733C60.2117 58.6141 60.1029 58.6833 59.9699 58.7267C59.8369 58.7702 59.7281 58.8535 59.7281 58.9117C59.7281 59.059 59.8287 59.0441 60.032 58.8665C60.1271 58.7834 60.2428 58.7154 60.2889 58.7154C60.3351 58.7154 60.3729 58.6888 60.3729 58.6561C60.3729 58.6236 60.4874 58.5335 60.627 58.456C60.9704 58.266 62.3074 56.9955 62.3074 56.8593C62.3074 56.7996 62.3432 56.7507 62.387 56.7507C62.4307 56.7507 62.5655 56.6062 62.6866 56.4295C62.9627 56.0266 63.4342 55.1638 63.3784 55.1638C63.3554 55.1638 63.3878 55.0873 63.4503 54.9938C63.5128 54.9003 63.5611 54.7728 63.5577 54.7104C63.5541 54.6481 63.576 54.5801 63.6065 54.5593C63.726 54.4773 63.7181 54.1059 63.597 54.1059C63.5527 54.1059 63.5164 54.2058 63.5164 54.3281ZM3.95505 54.2192C3.95546 54.2608 4.02981 54.3798 4.12049 54.4837C4.2299 54.6092 4.25731 54.6218 4.20189 54.5215C4.06608 54.275 3.95445 54.1384 3.95505 54.2192ZM0.405573 54.7389C0.405573 54.7962 0.459979 54.8853 0.526475 54.9371C0.592971 54.9889 0.647377 55.095 0.647377 55.1731C0.647377 55.2511 0.683647 55.3149 0.727978 55.3149C0.772309 55.3149 0.80858 55.2469 0.80858 55.1638C0.80858 55.0807 0.772309 55.0127 0.727978 55.0127C0.683647 55.0127 0.647377 54.9277 0.647377 54.8238C0.647377 54.7063 0.601635 54.6348 0.526475 54.6348C0.459979 54.6348 0.405573 54.6817 0.405573 54.7389ZM4.41851 54.8993C4.62948 55.1821 4.89224 55.4479 5.20256 55.6928C5.33434 55.7967 5.22755 55.6606 4.96499 55.3905C4.30648 54.7125 4.22346 54.6379 4.41851 54.8993ZM59.3819 55.0879C59.258 55.252 58.9243 55.5477 58.6402 55.7447C58.3563 55.9418 58.1393 56.1174 58.1582 56.1352C58.2229 56.1958 59.0867 55.5209 59.4152 55.1532C59.5955 54.9513 59.7126 54.7867 59.6751 54.7877C59.6379 54.7884 59.5059 54.9235 59.3819 55.0879ZM0.81664 55.419C0.72677 55.5209 0.730396 55.5473 0.83941 55.5864C0.91054 55.6121 0.950841 55.6603 0.929079 55.6935C0.872456 55.7793 1.21058 56.3536 1.47354 56.6188C1.59545 56.7416 1.69519 56.8714 1.69519 56.9069C1.69519 57.0091 3.22158 58.4131 3.33281 58.4131C3.38782 58.4131 3.48515 58.4811 3.54902 58.5643C3.6129 58.6474 3.70479 58.7154 3.75315 58.7154C3.80151 58.7154 3.91133 58.7762 3.99737 58.8505C4.35322 59.1582 5.32225 59.529 5.32225 59.3577C5.32225 59.2948 5.25052 59.2443 5.16105 59.2443C5.07239 59.2443 4.99985 59.2103 4.99985 59.1688C4.99985 59.1272 4.94746 59.0932 4.88358 59.0932C4.74898 59.0932 4.18033 58.7966 4.09752 58.6831C4.06669 58.641 4.01893 58.6275 3.99132 58.6534C3.96372 58.6793 3.83355 58.6017 3.70196 58.4811C3.57058 58.3606 3.42913 58.262 3.38762 58.262C3.28344 58.262 1.8564 56.9332 1.8564 56.8363C1.8564 56.793 1.76572 56.6725 1.65489 56.5686C1.54407 56.4647 1.45339 56.3271 1.45339 56.2629C1.45339 56.1987 1.42276 56.1462 1.38548 56.1462C1.3208 56.1462 1.01452 55.6189 0.952856 55.4011C0.929683 55.3195 0.901674 55.3232 0.81664 55.419ZM7.21437 56.6721C7.24298 56.7154 7.36086 56.7507 7.47632 56.7507C7.72901 56.7507 7.69979 56.7144 7.39088 56.6449C7.24117 56.6113 7.18031 56.6205 7.21437 56.6721ZM56.5041 56.6751L56.3026 56.7356L56.5041 56.742C56.6149 56.7456 56.76 56.7154 56.8265 56.6751C56.9804 56.5818 56.8148 56.5818 56.5041 56.6751ZM59.4057 59.0617C59.4057 59.1276 59.4489 59.1678 59.5014 59.1514C59.651 59.1047 59.6757 58.9421 59.5333 58.9421C59.4632 58.9421 59.4057 58.9959 59.4057 59.0617ZM59.0833 59.2128C59.0833 59.2787 59.1264 59.319 59.179 59.3025C59.3286 59.2559 59.3533 59.0932 59.2109 59.0932C59.1408 59.0932 59.0833 59.1471 59.0833 59.2128ZM58.6803 59.3199C58.6803 59.3615 58.5896 59.3955 58.4788 59.3955C58.368 59.3955 58.2773 59.4266 58.2773 59.4648C58.2773 59.5651 58.4593 59.6076 58.5997 59.5402C58.6662 59.5083 58.7841 59.4637 58.8617 59.4412C59.0545 59.3853 59.0402 59.2443 58.8415 59.2443C58.7529 59.2443 58.6803 59.2784 58.6803 59.3199ZM5.44315 59.471C5.39661 59.5417 5.51086 59.581 5.6775 59.5515C5.7178 59.5445 5.77382 59.5736 5.80203 59.6163C5.878 59.7316 6.22579 59.7501 6.2671 59.6411C6.29068 59.5789 6.21955 59.5466 6.05915 59.5466C5.92515 59.5466 5.79296 59.5126 5.76556 59.471C5.73816 59.4295 5.66561 59.3955 5.60436 59.3955C5.5431 59.3955 5.47056 59.4295 5.44315 59.471ZM57.7131 59.6159C57.7131 59.7083 57.8814 59.7567 58.0557 59.7144C58.2844 59.6588 58.2171 59.5466 57.9549 59.5466C57.8219 59.5466 57.7131 59.5778 57.7131 59.6159ZM6.47082 59.7922C6.48936 59.8441 6.6161 59.8901 6.75252 59.8942C6.92964 59.8997 6.98868 59.8727 6.95886 59.7998C6.90486 59.6679 6.42407 59.6605 6.47082 59.7922ZM57.0352 59.8207C56.9929 59.9239 57.026 59.9361 57.2382 59.8963C57.3774 59.8702 57.5233 59.8489 57.562 59.8489C57.6009 59.8489 57.6325 59.8149 57.6325 59.7733C57.6325 59.642 57.0907 59.6851 57.0352 59.8207ZM7.25668 59.9244C7.25668 59.9747 15.5586 60 32.0013 60C48.4439 60 56.7459 59.9747 56.7459 59.9244C56.7459 59.8742 48.4439 59.8489 32.0013 59.8489C15.5586 59.8489 7.25668 59.8742 7.25668 59.9244Z" fill="#2C6CBC"/>
</svg>
