<svg width="56" height="56" viewBox="0 0 56 56" fill="none" xmlns="http://www.w3.org/2000/svg">
<path fill-rule="evenodd" clip-rule="evenodd" d="M16.857 18.8394C14.7734 19.348 13.4239 20.8043 13.1051 22.8882C13.0211 23.4382 13.0218 32.5556 13.106 33.1435C13.4116 35.2766 14.8818 36.7754 17.1118 37.2274C17.6885 37.3444 38.3064 37.3451 38.8889 37.2283C40.8678 36.8313 42.2482 35.6129 42.7684 33.8042C42.9408 33.2047 42.9571 32.7006 42.9559 28C42.9546 22.7373 42.9567 22.7763 42.6213 21.7293C42.566 21.5561 42.1439 20.7984 42.0594 20.7201C42.0427 20.7047 41.9517 20.5949 41.8572 20.4762C41.3217 19.8038 40.4565 19.2237 39.5974 18.961C38.714 18.691 39.2484 18.7026 27.9517 18.7072L17.381 18.7116L16.857 18.8394ZM30.5786 20.6964C31.0092 20.9491 31.1029 21.3644 30.8876 22.0649C30.3997 23.6525 29.5965 26.2705 29.5509 26.4216C29.5207 26.5218 29.4706 26.6857 29.4396 26.7858C29.4085 26.886 29.3532 27.0688 29.3165 27.1921C29.2799 27.3154 29.2245 27.4982 29.1934 27.5983C29.1625 27.6985 29.1116 27.8624 29.0806 27.9626C29.0495 28.0627 28.9957 28.2392 28.961 28.3548C28.9261 28.4704 28.8693 28.6595 28.8345 28.7751C28.7374 29.0982 28.6569 29.3609 28.5986 29.5455C28.5311 29.759 28.4547 30.0176 28.3334 30.4421C28.2806 30.627 28.214 30.8413 28.1856 30.9184C28.1571 30.9954 28.1041 31.1593 28.0676 31.2826C27.8973 31.8592 27.3279 33.7307 27.2238 34.0563C27.1596 34.2566 27.0727 34.5466 27.0304 34.7007C26.7574 35.6943 25.3331 35.7627 25.0242 34.7969C24.9478 34.5581 24.9494 34.548 25.1937 33.7341C25.2237 33.6339 25.2728 33.47 25.3029 33.3699C25.3329 33.2697 25.4011 33.0365 25.4544 32.8516C25.5076 32.6667 25.6035 32.3515 25.6675 32.1511C25.7315 31.9508 25.9324 31.2952 26.1137 30.6942C26.5024 29.4064 26.5262 29.3285 26.6864 28.8171C26.754 28.6014 26.838 28.324 26.8732 28.2007C26.9085 28.0774 26.958 27.9135 26.9832 27.8365C27.0085 27.7594 27.0624 27.5829 27.1029 27.4442C27.1434 27.3056 27.1973 27.129 27.2226 27.052C27.2478 26.975 27.3017 26.7984 27.3422 26.6598C27.3827 26.5211 27.4366 26.3446 27.4619 26.2675C27.4871 26.1905 27.541 26.014 27.5815 25.8753C27.6221 25.7366 27.6759 25.5601 27.7012 25.483C27.7265 25.406 27.7803 25.2295 27.8208 25.0908C27.8614 24.9521 27.9152 24.7756 27.9405 24.6986C27.9658 24.6215 28.0204 24.445 28.0618 24.3063C28.1034 24.1676 28.1705 23.9533 28.2114 23.83C28.2522 23.7067 28.4542 23.0454 28.6604 22.3602C28.8665 21.6751 29.0838 21.0398 29.143 20.9484C29.4249 20.5143 30.0742 20.4004 30.5786 20.6964ZM22.4899 22.5175C22.9853 22.8004 23.1564 23.2526 22.9463 23.7237C22.8896 23.8506 22.0816 24.6499 20.7027 25.9432C19.5174 27.0549 18.5476 27.9861 18.5476 28.0126C18.5476 28.0389 19.5189 28.9699 20.706 30.0815C22.8622 32.1003 23.0347 32.2908 23.0347 32.6554C23.0347 33.3385 22.1802 33.8407 21.5509 33.5276C21.3012 33.4032 16.1683 28.5575 16.0974 28.3792C16.0174 28.1772 16.0174 27.832 16.0975 27.63C16.1749 27.4349 21.1088 22.7869 21.4759 22.5632C21.8058 22.3622 22.1878 22.345 22.4899 22.5175ZM34.4094 22.4818C34.6203 22.5663 39.778 27.3694 39.8996 27.5947C39.9931 27.7678 39.9816 28.2623 39.8799 28.4417C39.7762 28.6243 34.6066 33.4581 34.4207 33.5461C33.7826 33.8483 32.9954 33.3739 32.9963 32.6878C32.9969 32.2387 32.8726 32.3779 35.3284 30.0731C36.497 28.9764 37.453 28.047 37.453 28.0079C37.453 27.9689 36.5098 27.0534 35.3571 25.9736C32.9359 23.7056 32.9978 23.7745 32.9978 23.3492C32.9978 22.6513 33.7216 22.2066 34.4094 22.4818Z" fill="#43DB93"/>
<path fill-rule="evenodd" clip-rule="evenodd" d="M20.4618 0.0257143C20.3137 0.0393027 20.167 0.074044 20.1357 0.102902C20.1045 0.13176 20.0035 0.155434 19.9114 0.155434C19.8192 0.155434 19.7438 0.18065 19.7438 0.211469C19.7438 0.242288 19.6765 0.267503 19.5943 0.267503C19.512 0.267503 19.4447 0.292718 19.4447 0.323537C19.4447 0.354356 19.3909 0.379572 19.3251 0.379572C19.2592 0.379572 19.2054 0.404787 19.2054 0.435606C19.2054 0.466425 19.1448 0.492201 19.0708 0.492902C18.9967 0.493602 18.8689 0.543473 18.7866 0.60371C18.7043 0.663947 18.6034 0.713817 18.5623 0.714518C18.5211 0.715218 18.4875 0.740994 18.4875 0.771813C18.4875 0.802632 18.4336 0.827847 18.3678 0.827847C18.302 0.827847 18.2482 0.853063 18.2482 0.883882C18.2482 0.914701 18.2129 0.939916 18.1696 0.939916C18.1266 0.939916 18.0365 0.987686 17.9697 1.04596C17.9028 1.10438 17.7698 1.19179 17.6741 1.24026C17.5074 1.32487 17.007 1.7244 17.0679 1.7244C17.0842 1.7244 16.9391 1.87457 16.7455 2.05822C16.5519 2.24174 16.3935 2.41853 16.3935 2.45089C16.3935 2.48339 16.3128 2.58901 16.214 2.68581C16.1153 2.78261 16.0346 2.8958 16.0346 2.9374C16.0346 2.97915 16.0076 3.01319 15.9747 3.01319C15.9418 3.01319 15.9149 3.06362 15.9149 3.12526C15.9149 3.1869 15.888 3.23733 15.8551 3.23733C15.8222 3.23733 15.7952 3.28776 15.7952 3.3494C15.7952 3.41104 15.7683 3.46147 15.7354 3.46147C15.7025 3.46147 15.6756 3.49929 15.6756 3.54552C15.6756 3.61514 15.5504 3.63097 14.9427 3.63784C14.118 3.64722 14.0659 3.65044 13.9406 3.69989C13.8912 3.71937 13.7566 3.74934 13.6415 3.76629C13.1911 3.83284 13.0405 3.86856 13.0089 3.91619C12.991 3.9435 12.9279 3.96578 12.8686 3.96578C12.7502 3.96578 12.043 4.28854 11.9171 4.40004C11.8737 4.43857 11.8173 4.47009 11.7919 4.47009C11.7665 4.47009 11.6673 4.53313 11.5717 4.61017C11.4762 4.68708 11.3775 4.75012 11.3523 4.75026C11.0864 4.75054 9.5433 6.55527 9.48362 6.9356C9.48123 6.95101 9.44444 7.02232 9.40196 7.09404C9.35948 7.16576 9.33944 7.26032 9.35739 7.30417C9.37534 7.34802 9.36397 7.38388 9.33196 7.38388C9.3001 7.38388 9.27408 7.45953 9.27408 7.55198C9.27408 7.64444 9.24716 7.72009 9.21425 7.72009C9.18135 7.72009 9.15442 7.82095 9.15442 7.94422C9.15442 8.0675 9.1275 8.16836 9.0946 8.16836C9.06035 8.16836 9.03477 8.33646 9.03477 8.5606C9.03477 8.78474 9.00919 8.95284 8.97494 8.95284C8.94114 8.95284 8.91512 9.11156 8.91512 9.31707C8.91512 9.52257 8.94114 9.68129 8.97494 9.68129C9.00949 9.68129 9.03477 9.85878 9.03477 10.1015C9.03477 10.3443 9.06005 10.5218 9.0946 10.5218C9.1275 10.5218 9.15442 10.6227 9.15442 10.7459C9.15442 10.8692 9.18135 10.9701 9.21425 10.9701C9.24716 10.9701 9.27408 11.0239 9.27408 11.0897C9.27408 11.2675 9.40465 11.6425 9.46657 11.6425C9.49619 11.6425 9.50277 11.6693 9.48108 11.702C9.45954 11.7348 9.48901 11.8105 9.54674 11.8701C9.60433 11.9298 9.63215 11.9787 9.60836 11.9787C9.58458 11.9787 9.62257 12.0543 9.69287 12.1468C9.76317 12.2393 9.8559 12.3149 9.89912 12.3149C9.9422 12.3149 10.1046 12.4543 10.26 12.6248C10.7735 13.1876 11.3324 13.2448 11.7962 12.7818C12.1703 12.4085 12.1528 12.0783 11.727 11.4744C9.77782 8.70979 12.2001 5.11504 15.6745 5.61613C16.0441 5.6695 16.4393 5.69682 16.5528 5.67679C16.7757 5.6377 17.2311 5.25961 17.2311 5.11378C17.2311 5.06713 17.255 4.98518 17.2843 4.93167C17.3137 4.87816 17.4003 4.70823 17.4768 4.55414C18.057 3.38652 19.2087 2.44094 20.5427 2.03721C21.1683 1.84781 22.291 1.77889 22.8433 1.896C23.4989 2.03483 23.6823 2.0875 24.0427 2.24006C25.2601 2.75529 26.7436 4.25954 26.7436 4.97888C26.7436 5.03435 26.7676 5.09375 26.7969 5.1107C26.8597 5.14698 26.8966 5.33624 27.0149 6.22677C27.1352 7.13298 27.3618 7.40363 28 7.40363C28.6285 7.40363 28.8829 7.11309 28.9623 6.30493C29.146 4.43647 30.2025 2.99162 31.928 2.24972C34.3759 1.19725 37.4427 2.26737 38.5314 4.55414C38.6048 4.70823 38.6883 4.87816 38.7169 4.93167C38.7454 4.98518 38.7689 5.06713 38.7689 5.11378C38.7689 5.53082 39.4512 5.74963 40.3262 5.61305C40.9598 5.51415 41.4342 5.54077 42.0594 5.70999C42.2559 5.76322 42.3446 5.79516 42.7175 5.94673C44.9004 6.8346 45.6451 9.59724 44.226 11.5426C43.6942 12.2718 44.0724 13.0994 44.9375 13.0994C46.2361 13.0994 48.5542 14.363 49.5121 15.5929C49.6081 15.7162 49.7019 15.8297 49.7206 15.8451C49.7994 15.9101 50.2089 16.587 50.3528 16.8898C50.9591 18.1657 51.1038 19.5407 50.7972 21.1112C50.711 21.5528 50.7891 21.751 51.2169 22.177C53.2275 24.1787 53.519 26.8619 51.9843 29.2373C51.9146 29.3452 51.8404 29.446 51.8195 29.4615C51.5332 29.6719 51.3625 30.0116 51.3625 30.3706V30.7476L52.0042 31.3376C53.122 32.3659 53.5899 33.1723 53.9004 34.607C54.0501 35.2983 53.9163 36.7458 53.66 37.2075C53.6303 37.261 53.6061 37.3343 53.6061 37.3704C53.6061 37.5035 53.0592 38.4652 52.7982 38.7912C52.1881 39.5531 51.3872 40.1738 50.5249 40.5532C50.2946 40.6545 50.0593 40.7597 50.0022 40.7869C49.9451 40.8142 49.8618 40.8364 49.817 40.8364C49.2485 40.8364 48.9937 41.2942 48.9672 42.3635C48.8933 45.3392 46.7739 47.7591 43.6747 48.4064C43.1143 48.5234 42.9872 48.6583 42.7426 49.3951C40.8148 55.2048 32.4338 55.9152 29.6805 50.5024C29.2235 49.6037 29.0585 49.0077 28.9628 47.9083C28.8893 47.0668 28.6084 46.7201 28 46.7201C27.3648 46.7201 27.1201 47.0488 27.0127 48.0461C26.6889 51.0531 24.6432 53.3772 21.778 53.9936C20.9688 54.1676 20.8103 54.181 19.8635 54.1564C17.6595 54.099 16.0115 53.3585 14.5947 51.7891C14.0625 51.1996 13.2825 49.7992 13.2825 49.4331C13.2825 48.9998 12.7394 48.4011 12.3464 48.4011C12.272 48.4011 12.1494 48.3785 12.0738 48.3509C11.9982 48.3233 11.8152 48.2682 11.6672 48.2284C11.5191 48.1886 11.2289 48.0851 11.0225 47.9983C10.816 47.9116 10.6334 47.8408 10.6165 47.8408C10.2125 47.8408 8.44667 46.2742 7.96237 45.4859C7.31055 44.4253 7.05883 43.5785 7.05494 42.4334C7.0509 41.2739 6.92631 41.0702 6.04341 40.781C3.61712 39.9858 1.91862 37.6358 2.05413 35.261C2.14746 33.6266 2.70206 32.5223 4.04757 31.2913C4.71854 30.6774 4.86362 30.1882 4.487 29.8097C3.17903 28.4947 2.70221 26.1704 3.3639 24.3343C3.64015 23.5679 4.08975 22.8893 4.76924 22.2134C5.2145 21.7706 5.29796 21.5525 5.20568 21.0735C5.0253 20.1372 4.99778 18.8925 5.14645 18.3946C5.17412 18.3022 5.22916 18.0904 5.26895 17.924C5.33805 17.6343 5.49808 17.2279 5.75684 16.6856C6.0114 16.1517 6.55344 15.4732 7.21169 14.8645C8.0548 14.0848 8.17909 13.8285 7.94621 13.35C7.89072 13.236 7.89087 13.179 7.94681 13.0952C8.00589 13.0067 8.0026 12.9873 7.92842 12.9873C7.87891 12.9873 7.83823 12.9621 7.83823 12.9313C7.83823 12.9005 7.78438 12.8753 7.71857 12.8753C7.65276 12.8753 7.59892 12.85 7.59892 12.8192C7.59892 12.7863 7.38952 12.7632 7.09039 12.7632C6.79125 12.7632 6.58185 12.7863 6.58185 12.8192C6.58185 12.85 6.5301 12.8753 6.46699 12.8753C6.35062 12.8753 4.84686 14.2241 4.84686 14.3285C4.84686 14.3585 4.77956 14.4462 4.6973 14.5232C4.61503 14.6003 4.54773 14.7023 4.54773 14.7499C4.54773 14.7975 4.51916 14.8365 4.48431 14.8365C4.44946 14.8365 4.43765 14.8617 4.45799 14.8925C4.47833 14.9233 4.46651 14.9485 4.43166 14.9485C4.39681 14.9485 4.36825 14.9816 4.36825 15.0221C4.36825 15.0624 4.3144 15.1497 4.24859 15.2158C4.18278 15.2819 4.12894 15.3623 4.12894 15.3944C4.12894 15.4265 4.10202 15.4528 4.06911 15.4528C4.03621 15.4528 4.00928 15.5033 4.00928 15.5649C4.00928 15.6265 3.98236 15.677 3.94946 15.677C3.91655 15.677 3.88963 15.7274 3.88963 15.789C3.88963 15.8507 3.86271 15.9011 3.8298 15.9011C3.7969 15.9011 3.76997 15.9515 3.76997 16.0132C3.76997 16.0748 3.74305 16.1253 3.71015 16.1253C3.67724 16.1253 3.65032 16.2009 3.65032 16.2934C3.65032 16.3858 3.6234 16.4615 3.59049 16.4615C3.55759 16.4615 3.53067 16.5119 3.53067 16.5735C3.53067 16.6352 3.50374 16.6856 3.47084 16.6856C3.43793 16.6856 3.41101 16.7597 3.41101 16.8503C3.41101 16.941 3.38409 17.0308 3.35118 17.0498C3.31828 17.0689 3.29136 17.1713 3.29136 17.2773C3.29136 17.3834 3.26444 17.4701 3.23153 17.4701C3.19863 17.4701 3.1717 17.5835 3.1717 17.7222C3.1717 17.8609 3.14478 17.9744 3.11188 17.9744C3.07762 17.9744 3.05205 18.1425 3.05205 18.3666C3.05205 18.5908 3.02647 18.7589 2.99222 18.7589C2.9116 18.7589 2.9116 20.3652 2.99222 20.4119C3.10963 20.4798 3.06312 21.0241 2.93239 21.1123C2.86658 21.1567 2.81274 21.2205 2.81274 21.2538C2.81274 21.2873 2.71971 21.4097 2.60589 21.5261C2.49207 21.6424 2.38258 21.786 2.36254 21.8452C2.3425 21.9044 2.30271 21.9528 2.27429 21.9528C2.24588 21.9528 2.204 22.0096 2.18156 22.0789C2.15898 22.1483 2.09915 22.2491 2.0486 22.3031C1.99804 22.357 1.97621 22.4011 2.00014 22.4011C2.02392 22.4011 1.99984 22.442 1.94659 22.4919C1.8932 22.5419 1.83412 22.6554 1.81512 22.744C1.79628 22.8329 1.75724 22.9054 1.72837 22.9054C1.6995 22.9054 1.67602 22.9559 1.67602 23.0175C1.67602 23.0791 1.6491 23.1296 1.6162 23.1296C1.58329 23.1296 1.55637 23.2052 1.55637 23.2977C1.55637 23.3901 1.52945 23.4658 1.49654 23.4658C1.46364 23.4658 1.43671 23.5147 1.43671 23.5745C1.43671 23.6343 1.40979 23.6989 1.37689 23.7179C1.34398 23.737 1.31706 23.8394 1.31706 23.9454C1.31706 24.0515 1.29014 24.1382 1.25723 24.1382C1.22433 24.1382 1.1974 24.239 1.1974 24.3623C1.1974 24.4856 1.17048 24.5865 1.13758 24.5865C1.10377 24.5865 1.07775 24.7452 1.07775 24.9507C1.07775 25.1562 1.05173 25.3149 1.01792 25.3149C0.98083 25.3149 0.958096 25.6231 0.958096 26.1274C0.958096 26.6317 0.98083 26.9399 1.01792 26.9399C1.05217 26.9399 1.07775 27.108 1.07775 27.3321C1.07775 27.5563 1.10333 27.7244 1.13758 27.7244C1.17048 27.7244 1.1974 27.8252 1.1974 27.9485C1.1974 28.0718 1.22433 28.1727 1.25723 28.1727C1.29014 28.1727 1.31706 28.2468 1.31706 28.3374C1.31706 28.428 1.34398 28.5178 1.37689 28.5369C1.40979 28.5559 1.43671 28.6331 1.43671 28.7083C1.43671 28.7836 1.46364 28.8451 1.49654 28.8451C1.52945 28.8451 1.55637 28.9081 1.55637 28.9852C1.55637 29.0622 1.58329 29.1252 1.6162 29.1252C1.6491 29.1252 1.67602 29.1757 1.67602 29.2373C1.67602 29.299 1.70294 29.3494 1.73585 29.3494C1.76875 29.3494 1.79568 29.388 1.79568 29.4353C1.79568 29.5417 2.08823 30.0925 2.17124 30.1423C2.20744 30.164 2.17423 30.2371 2.08853 30.3237C1.72927 30.6875 1.67602 30.7502 1.67602 30.8098C1.67602 30.8448 1.59526 30.944 1.49654 31.0304C1.39783 31.1169 1.31706 31.2186 1.31706 31.2565C1.31706 31.2943 1.26785 31.3662 1.20787 31.4161C1.14775 31.4659 1.0604 31.5887 1.01373 31.6888C0.96707 31.789 0.908588 31.8709 0.883611 31.8709C0.858782 31.8709 0.838441 31.9214 0.838441 31.983C0.838441 32.0446 0.811519 32.0951 0.778614 32.0951C0.745709 32.0951 0.718787 32.1455 0.718787 32.2071C0.718787 32.2688 0.691865 32.3192 0.65896 32.3192C0.626055 32.3192 0.599132 32.3681 0.599132 32.4279C0.599132 32.4877 0.57221 32.5523 0.539305 32.5714C0.5064 32.5904 0.479478 32.6676 0.479478 32.7428C0.479478 32.8181 0.452556 32.8796 0.419651 32.8796C0.386746 32.8796 0.359823 32.9552 0.359823 33.0477C0.359823 33.1401 0.332901 33.2158 0.299996 33.2158C0.267091 33.2158 0.240169 33.3166 0.240169 33.4399C0.240169 33.5632 0.213247 33.664 0.180342 33.664C0.147437 33.664 0.120515 33.776 0.120515 33.9128C0.120515 34.0497 0.0935922 34.1773 0.0606872 34.1964C-0.0202291 34.2433 -0.0202291 36.671 0.0606872 36.7179C0.0935922 36.737 0.120515 36.863 0.120515 36.9981C0.120515 37.1331 0.147437 37.2592 0.180342 37.2783C0.213247 37.2973 0.240169 37.3997 0.240169 37.5058C0.240169 37.6118 0.267091 37.6985 0.299996 37.6985C0.332901 37.6985 0.359823 37.7742 0.359823 37.8666C0.359823 37.9591 0.386746 38.0347 0.419651 38.0347C0.452556 38.0347 0.479478 38.0978 0.479478 38.1748C0.479478 38.2519 0.5064 38.3149 0.539305 38.3149C0.57221 38.3149 0.599132 38.3653 0.599132 38.427C0.599132 38.4886 0.626055 38.539 0.65896 38.539C0.691865 38.539 0.718787 38.5895 0.718787 38.6511C0.718787 38.7127 0.745709 38.7632 0.778614 38.7632C0.811519 38.7632 0.838441 38.8136 0.838441 38.8752C0.838441 38.9369 0.865363 38.9873 0.898268 38.9873C0.931173 38.9873 0.958096 39.0377 0.958096 39.0994C0.958096 39.161 0.985018 39.2114 1.01792 39.2114C1.05083 39.2114 1.07775 39.2619 1.07775 39.3235C1.07775 39.3852 1.10019 39.4356 1.12741 39.4356C1.15478 39.4356 1.2152 39.5049 1.26172 39.5897C1.30808 39.6744 1.39349 39.7845 1.45122 39.8344C1.5091 39.8843 1.55637 39.957 1.55637 39.9959C1.55637 40.0349 1.60363 40.1076 1.66136 40.1574C1.7191 40.2073 1.8736 40.3742 2.00477 40.5283C2.30914 40.8858 2.43433 41.0029 2.69308 41.1717C2.80825 41.2469 2.97382 41.3787 3.06102 41.4647C3.14837 41.5506 3.25681 41.6209 3.30213 41.6209C3.34745 41.6209 3.42343 41.6714 3.47084 41.733C3.51825 41.7946 3.59902 41.8451 3.65032 41.8451C3.70162 41.8451 3.78239 41.8955 3.8298 41.9571C3.87722 42.0188 3.96396 42.0692 4.02245 42.0692C4.08108 42.0692 4.12894 42.0944 4.12894 42.1252C4.12894 42.1561 4.18054 42.1813 4.24366 42.1813C4.30662 42.1813 4.3672 42.2002 4.37827 42.2233C4.38919 42.2464 4.50585 42.3169 4.63747 42.3799C4.85973 42.4862 4.88007 42.5162 4.92344 42.8002C4.94917 42.9683 4.99583 43.2697 5.02709 43.4701C5.05835 43.6704 5.10068 43.9541 5.12102 44.1004C5.14136 44.2468 5.1822 44.3666 5.21181 44.3666C5.24143 44.3666 5.26566 44.4407 5.26566 44.5314C5.26566 44.622 5.29258 44.7118 5.32548 44.7308C5.35839 44.7499 5.38531 44.8397 5.38531 44.9303C5.38531 45.021 5.41223 45.0951 5.44514 45.0951C5.47804 45.0951 5.50496 45.144 5.50496 45.2038C5.50496 45.2636 5.53189 45.3282 5.56479 45.3472C5.5977 45.3663 5.62462 45.4435 5.62462 45.5187C5.62462 45.5939 5.65154 45.6554 5.68445 45.6554C5.71735 45.6554 5.74427 45.7058 5.74427 45.7675C5.74427 45.8291 5.77119 45.8795 5.8041 45.8795C5.83701 45.8795 5.86393 45.93 5.86393 45.9916C5.86393 46.0532 5.89085 46.1037 5.92376 46.1037C5.95666 46.1037 5.98358 46.1485 5.98358 46.2034C5.98358 46.2582 6.03743 46.3395 6.10324 46.3839C6.16905 46.4283 6.22289 46.5095 6.22289 46.5643C6.22289 46.6192 6.24981 46.664 6.28272 46.664C6.31562 46.664 6.34255 46.6981 6.34255 46.7398C6.34255 46.7814 6.42331 46.8946 6.52203 46.9914C6.62074 47.0882 6.70151 47.1943 6.70151 47.2272C6.70151 47.3687 8.30129 48.8494 8.45415 48.8494C8.49573 48.8494 8.56857 48.8998 8.61598 48.9614C8.66339 49.0231 8.74416 49.0735 8.79546 49.0735C8.84676 49.0735 8.92753 49.1239 8.97494 49.1856C9.02236 49.2472 9.10911 49.2976 9.16759 49.2976C9.22622 49.2976 9.27408 49.3181 9.27408 49.3432C9.27408 49.3683 9.36831 49.4234 9.48347 49.4658C9.59864 49.5081 9.69287 49.5633 9.69287 49.5883C9.69287 49.6134 9.74671 49.6339 9.81252 49.6339C9.87833 49.6339 9.93218 49.6591 9.93218 49.6899C9.93218 49.7207 9.98064 49.7459 10.0399 49.7459C10.0991 49.7459 10.1731 49.7682 10.2044 49.7954C10.2357 49.8227 10.4362 49.9 10.6501 49.9674C11.2858 50.1677 11.368 50.204 11.368 50.2851C11.368 50.3276 11.395 50.3623 11.4279 50.3623C11.4608 50.3623 11.4877 50.4379 11.4877 50.5304C11.4877 50.6229 11.5146 50.6985 11.5475 50.6985C11.5804 50.6985 11.6073 50.7489 11.6073 50.8106C11.6073 50.8722 11.6343 50.9226 11.6672 50.9226C11.7001 50.9226 11.727 50.9983 11.727 51.0907C11.727 51.1832 11.7539 51.2589 11.7868 51.2589C11.8197 51.2589 11.8466 51.3093 11.8466 51.3709C11.8466 51.4326 11.8781 51.483 11.9165 51.483C11.9548 51.483 11.9688 51.4994 11.9475 51.5193C11.9144 51.5502 12.1163 51.9598 12.2058 52.0433C12.2222 52.0587 12.2738 52.1407 12.3205 52.2254C12.3671 52.3102 12.4277 52.3795 12.4551 52.3795C12.4823 52.3795 12.5047 52.4118 12.5047 52.4513C12.5047 52.4906 12.5586 52.5593 12.6244 52.6037C12.6902 52.6481 12.7441 52.7155 12.7441 52.7534C12.7441 52.9016 14.7219 54.677 14.8871 54.677C14.9179 54.677 14.9765 54.7148 15.0175 54.761C15.0585 54.8072 15.1425 54.8451 15.2043 54.8451C15.2661 54.8451 15.3166 54.8703 15.3166 54.9011C15.3166 54.9319 15.3519 54.9571 15.3952 54.9571C15.4382 54.9571 15.5314 55.0076 15.602 55.0692C15.6726 55.1308 15.7719 55.1813 15.8226 55.1813C15.8733 55.1813 15.9149 55.2065 15.9149 55.2373C15.9149 55.2681 15.9687 55.2933 16.0346 55.2933C16.1004 55.2933 16.1542 55.3186 16.1542 55.3494C16.1542 55.3802 16.235 55.4054 16.3337 55.4054C16.4324 55.4054 16.5132 55.4306 16.5132 55.4614C16.5132 55.4923 16.567 55.5175 16.6328 55.5175C16.6986 55.5175 16.7525 55.5427 16.7525 55.5735C16.7525 55.6043 16.8198 55.6295 16.9021 55.6295C16.9843 55.6295 17.0516 55.6548 17.0516 55.6856C17.0516 55.7164 17.1307 55.7416 17.2275 55.7416C17.3243 55.7416 17.4202 55.7668 17.4405 55.7976C17.4608 55.8285 17.5679 55.8537 17.6783 55.8537C17.7888 55.8537 17.8904 55.8852 17.9042 55.9237C17.9235 55.9779 18.3931 55.9938 19.9832 55.9938C21.5732 55.9938 22.0429 55.9779 22.0621 55.9237C22.0764 55.8835 22.1872 55.8537 22.3214 55.8537C22.4503 55.8537 22.5557 55.8285 22.5557 55.7976C22.5557 55.7668 22.6365 55.7416 22.7352 55.7416C22.8339 55.7416 22.9147 55.7164 22.9147 55.6856C22.9147 55.6548 22.9955 55.6295 23.0942 55.6295C23.1929 55.6295 23.2736 55.6043 23.2736 55.5735C23.2736 55.5427 23.3393 55.5175 23.4196 55.5175C23.4999 55.5175 23.5824 55.4923 23.6027 55.4614C23.623 55.4306 23.692 55.4054 23.7559 55.4054C23.8197 55.4054 23.8719 55.3802 23.8719 55.3494C23.8719 55.3186 23.9258 55.2933 23.9916 55.2933C24.0574 55.2933 24.1112 55.2681 24.1112 55.2373C24.1112 55.2065 24.1516 55.1813 24.201 55.1813C24.2503 55.1813 24.2907 55.156 24.2907 55.1252C24.2907 55.0944 24.3446 55.0692 24.4104 55.0692C24.4762 55.0692 24.53 55.044 24.53 55.0132C24.53 54.9823 24.5839 54.9571 24.6497 54.9571C24.7155 54.9571 24.7693 54.9357 24.7693 54.9096C24.7693 54.8834 24.877 54.8166 25.0086 54.761C25.1403 54.7054 25.2479 54.6403 25.2479 54.6162C25.2479 54.5921 25.3031 54.5561 25.3706 54.536C25.438 54.516 25.5852 54.4133 25.6977 54.3081C25.81 54.2028 25.9253 54.1166 25.9538 54.1166C26.0305 54.1166 26.9829 53.1808 26.9829 53.1055C26.9829 53.07 27.0585 52.9741 27.1506 52.8923C27.2429 52.8106 27.4097 52.6177 27.5211 52.4636C27.6327 52.3095 27.7456 52.175 27.7722 52.1648C27.7988 52.1544 27.8205 52.0977 27.8205 52.0387C27.8205 51.9796 27.8474 51.9313 27.8803 51.9313C27.9132 51.9313 27.9402 51.8934 27.9402 51.8472C27.9402 51.801 27.9671 51.7632 28 51.7632C28.0329 51.7632 28.0598 51.801 28.0598 51.8472C28.0598 51.8934 28.0867 51.9313 28.1197 51.9313C28.1526 51.9313 28.1795 51.9796 28.1795 52.0387C28.1795 52.0977 28.2012 52.1544 28.2278 52.1648C28.2544 52.175 28.3673 52.3095 28.4789 52.4636C28.5903 52.6177 28.7571 52.8106 28.8494 52.8923C28.9415 52.9741 29.0171 53.0685 29.0171 53.1022C29.0171 53.1755 29.9719 54.1166 30.0462 54.1166C30.0747 54.1166 30.19 54.2028 30.3023 54.3081C30.4148 54.4133 30.562 54.516 30.6294 54.536C30.6969 54.5561 30.7521 54.5921 30.7521 54.6162C30.7521 54.6403 30.8597 54.7054 30.9914 54.761C31.123 54.8166 31.2307 54.8834 31.2307 54.9096C31.2307 54.9357 31.2845 54.9571 31.3503 54.9571C31.4161 54.9571 31.47 54.9823 31.47 55.0132C31.47 55.044 31.5238 55.0692 31.5896 55.0692C31.6554 55.0692 31.7093 55.0944 31.7093 55.1252C31.7093 55.156 31.7497 55.1813 31.799 55.1813C31.8484 55.1813 31.8888 55.2065 31.8888 55.2373C31.8888 55.2681 31.9426 55.2933 32.0084 55.2933C32.0742 55.2933 32.1281 55.3186 32.1281 55.3494C32.1281 55.3802 32.1803 55.4054 32.2441 55.4054C32.308 55.4054 32.377 55.4306 32.3973 55.4614C32.4176 55.4923 32.5001 55.5175 32.5804 55.5175C32.6607 55.5175 32.7263 55.5427 32.7263 55.5735C32.7263 55.6043 32.792 55.6295 32.8723 55.6295C32.9526 55.6295 33.0351 55.6548 33.0554 55.6856C33.0757 55.7164 33.1716 55.7416 33.2684 55.7416C33.3652 55.7416 33.4443 55.7668 33.4443 55.7976C33.4443 55.8285 33.5331 55.8537 33.6417 55.8537C33.7503 55.8537 33.8728 55.8852 33.9139 55.9237C34.0225 56.0254 38.0596 56.0254 38.0958 55.9237C38.1096 55.8852 38.2112 55.8537 38.3217 55.8537C38.4321 55.8537 38.5392 55.8285 38.5595 55.7976C38.5798 55.7668 38.6757 55.7416 38.7725 55.7416C38.8693 55.7416 38.9484 55.7164 38.9484 55.6856C38.9484 55.6548 39.0157 55.6295 39.0979 55.6295C39.1802 55.6295 39.2475 55.6043 39.2475 55.5735C39.2475 55.5427 39.2997 55.5175 39.3636 55.5175C39.4274 55.5175 39.4964 55.4923 39.5167 55.4614C39.5371 55.4306 39.6195 55.4054 39.6998 55.4054C39.7801 55.4054 39.8458 55.3802 39.8458 55.3494C39.8458 55.3186 39.8996 55.2933 39.9654 55.2933C40.0313 55.2933 40.0851 55.2681 40.0851 55.2373C40.0851 55.2065 40.1389 55.1813 40.2048 55.1813C40.2706 55.1813 40.3244 55.156 40.3244 55.1252C40.3244 55.0944 40.3648 55.0692 40.4141 55.0692C40.4635 55.0692 40.5039 55.044 40.5039 55.0132C40.5039 54.9823 40.5443 54.9571 40.5936 54.9571C40.643 54.9571 40.6834 54.9319 40.6834 54.9011C40.6834 54.8703 40.7353 54.8451 40.7987 54.8451C40.8623 54.8451 40.9545 54.8072 41.0039 54.761C41.0532 54.7148 41.1158 54.6765 41.1427 54.676C41.2807 54.673 43.2559 52.896 43.2559 52.7747C43.2559 52.7417 43.3312 52.6409 43.4233 52.5507C43.5153 52.4606 43.6296 52.3158 43.6774 52.2291C43.7251 52.1424 43.7788 52.0587 43.7965 52.0433C43.8859 51.9654 44.273 51.1992 44.273 51.0999C44.273 51.0368 44.2999 50.9697 44.3328 50.9507C44.3657 50.9316 44.3927 50.867 44.3927 50.8072C44.3927 50.7474 44.4196 50.6985 44.4525 50.6985C44.4854 50.6985 44.5123 50.6229 44.5123 50.5304C44.5123 50.4379 44.5392 50.3623 44.5721 50.3623C44.605 50.3623 44.632 50.3285 44.632 50.2872C44.632 50.2027 44.8779 50.0821 45.05 50.0821C45.1124 50.0821 45.1767 50.062 45.193 50.0372C45.2093 50.0125 45.359 49.9575 45.5256 49.915C45.6923 49.8726 45.8285 49.8171 45.8285 49.7919C45.8285 49.7665 45.8664 49.7459 45.9126 49.7459C46.0122 49.7459 46.5077 49.5123 46.5364 49.4517C46.5475 49.4286 46.5946 49.4097 46.6411 49.4097C46.6878 49.4097 46.7259 49.3845 46.7259 49.3537C46.7259 49.3229 46.7798 49.2976 46.8456 49.2976C46.9114 49.2976 46.9652 49.2766 46.9652 49.2511C46.9652 49.2255 47.0393 49.1689 47.1298 49.1253C47.2202 49.0819 47.3378 49.0019 47.391 48.9478C47.4443 48.8936 47.5204 48.8494 47.5602 48.8494C47.6001 48.8494 47.7316 48.7548 47.8523 48.6392C47.9732 48.5237 48.1393 48.3952 48.2216 48.3536C48.3039 48.3121 48.5327 48.1026 48.7301 47.888C48.9276 47.6733 49.1362 47.4499 49.1938 47.3914C49.2514 47.3329 49.2985 47.2563 49.2985 47.2211C49.2985 47.186 49.3793 47.0867 49.478 47.0002C49.5767 46.9138 49.6575 46.8029 49.6575 46.7537C49.6575 46.7044 49.6844 46.664 49.7173 46.664C49.7502 46.664 49.7771 46.6192 49.7771 46.5643C49.7771 46.5095 49.831 46.4283 49.8968 46.3839C49.9626 46.3395 50.0164 46.2582 50.0164 46.2034C50.0164 46.1485 50.0433 46.1037 50.0762 46.1037C50.1091 46.1037 50.1361 46.0532 50.1361 45.9916C50.1361 45.93 50.163 45.8795 50.1959 45.8795C50.2288 45.8795 50.2557 45.8291 50.2557 45.7675C50.2557 45.7058 50.2826 45.6554 50.3156 45.6554C50.3485 45.6554 50.3754 45.6057 50.3754 45.545C50.3754 45.4844 50.4292 45.3448 50.495 45.2351C50.5608 45.1255 50.6147 44.9749 50.6147 44.9005C50.6147 44.8262 50.6416 44.7499 50.6745 44.7308C50.7074 44.7118 50.7343 44.622 50.7343 44.5314C50.7343 44.4407 50.7613 44.3666 50.7942 44.3666C50.8271 44.3666 50.854 44.2673 50.854 44.1458C50.854 44.0244 50.8809 43.9094 50.9138 43.8903C50.9467 43.8713 50.9737 43.6857 50.9737 43.4779C50.9737 43.2702 50.9989 43.0763 51.0297 43.047C51.0606 43.0177 51.0942 42.881 51.1045 42.743C51.1228 42.498 51.1311 42.4886 51.4822 42.3228C51.6796 42.2296 51.8501 42.1343 51.861 42.1112C51.8721 42.0881 51.9267 42.0692 51.9825 42.0692C52.0383 42.0692 52.1228 42.0188 52.1702 41.9571C52.2176 41.8955 52.2984 41.8451 52.3497 41.8451C52.401 41.8451 52.4817 41.7946 52.5292 41.733C52.5766 41.6714 52.6526 41.6209 52.6979 41.6209C52.7432 41.6209 52.8557 41.5453 52.9479 41.4528C53.0402 41.3604 53.1315 41.2847 53.1508 41.2847C53.2405 41.2847 54.1436 40.4593 54.1442 40.3767C54.1443 40.355 54.2118 40.2741 54.2941 40.1971C54.3763 40.12 54.4436 40.037 54.4438 40.0125C54.4438 39.9879 54.5245 39.8797 54.6231 39.7718C54.7217 39.6639 54.8024 39.5442 54.8024 39.5056C54.8026 39.4671 54.8295 39.4356 54.8624 39.4356C54.8953 39.4356 54.9222 39.3852 54.9222 39.3235C54.9222 39.2619 54.9492 39.2114 54.9821 39.2114C55.015 39.2114 55.0419 39.161 55.0419 39.0994C55.0419 39.0377 55.0621 38.9872 55.0868 38.9869C55.1405 38.9863 55.2812 38.715 55.2812 38.6119C55.2812 38.5718 55.3081 38.539 55.341 38.539C55.3739 38.539 55.4009 38.4886 55.4009 38.427C55.4009 38.3653 55.4278 38.3149 55.4607 38.3149C55.4936 38.3149 55.5205 38.2519 55.5205 38.1748C55.5205 38.0978 55.5474 38.0347 55.5803 38.0347C55.6133 38.0347 55.6402 37.9591 55.6402 37.8666C55.6402 37.7742 55.6671 37.6985 55.7 37.6985C55.7329 37.6985 55.7598 37.6118 55.7598 37.5058C55.7598 37.3997 55.7868 37.2973 55.8197 37.2783C55.8526 37.2592 55.8795 37.1331 55.8795 36.9981C55.8795 36.863 55.9064 36.737 55.9393 36.7179C56.0202 36.671 56.0202 34.2433 55.9393 34.1964C55.9064 34.1773 55.8795 34.0497 55.8795 33.9128C55.8795 33.776 55.8526 33.664 55.8197 33.664C55.7868 33.664 55.7598 33.5632 55.7598 33.4399C55.7598 33.3166 55.7329 33.2158 55.7 33.2158C55.6671 33.2158 55.6402 33.1401 55.6402 33.0477C55.6402 32.9552 55.6133 32.8796 55.5803 32.8796C55.5474 32.8796 55.5205 32.8181 55.5205 32.7428C55.5205 32.6676 55.4936 32.5904 55.4607 32.5714C55.4278 32.5523 55.4009 32.4877 55.4009 32.4279C55.4009 32.3681 55.3739 32.3192 55.341 32.3192C55.3081 32.3192 55.2812 32.2688 55.2812 32.2071C55.2812 32.1455 55.2543 32.0951 55.2214 32.0951C55.1885 32.0951 55.1616 32.0446 55.1616 31.983C55.1616 31.9214 55.1412 31.8709 55.1164 31.8709C55.0914 31.8709 55.0329 31.789 54.9863 31.6888C54.9396 31.5887 54.8523 31.4659 54.7921 31.4161C54.7321 31.3662 54.6829 31.2943 54.6829 31.2565C54.6829 31.2186 54.6022 31.1169 54.5035 31.0304C54.4047 30.944 54.324 30.8459 54.324 30.8123C54.324 30.7498 54.1678 30.562 53.9115 30.3161C53.8271 30.2353 53.7929 30.1637 53.8282 30.1423C53.9188 30.0874 54.2043 29.5604 54.2043 29.4479C54.2043 29.3937 54.2312 29.3494 54.2641 29.3494C54.2971 29.3494 54.324 29.299 54.324 29.2373C54.324 29.1757 54.3509 29.1252 54.3838 29.1252C54.4167 29.1252 54.4436 29.0622 54.4436 28.9852C54.4436 28.9081 54.4706 28.8451 54.5035 28.8451C54.5364 28.8451 54.5633 28.7694 54.5633 28.677C54.5633 28.5845 54.5902 28.5089 54.6231 28.5089C54.656 28.5089 54.6829 28.4332 54.6829 28.3408C54.6829 28.2483 54.7099 28.1727 54.7428 28.1727C54.7757 28.1727 54.8026 28.0733 54.8026 27.9519C54.8026 27.8304 54.8295 27.7154 54.8624 27.6964C54.8953 27.6773 54.9222 27.4993 54.9222 27.3008C54.9222 27.0975 54.9484 26.9399 54.9821 26.9399C55.0192 26.9399 55.0419 26.6317 55.0419 26.1274C55.0419 25.6231 55.0192 25.3149 54.9821 25.3149C54.9483 25.3149 54.9222 25.1562 54.9222 24.9507C54.9222 24.7452 54.8962 24.5865 54.8624 24.5865C54.8295 24.5865 54.8026 24.4856 54.8026 24.3623C54.8026 24.239 54.7757 24.1382 54.7428 24.1382C54.7099 24.1382 54.6829 24.0641 54.6829 23.9734C54.6829 23.8828 54.656 23.793 54.6231 23.774C54.5902 23.7549 54.5633 23.6777 54.5633 23.6025C54.5633 23.5273 54.5364 23.4658 54.5035 23.4658C54.4706 23.4658 54.4436 23.3901 54.4436 23.2977C54.4436 23.2052 54.4167 23.1296 54.3838 23.1296C54.3509 23.1296 54.324 23.0791 54.324 23.0175C54.324 22.9559 54.3005 22.9054 54.2716 22.9054C54.2428 22.9054 54.204 22.8337 54.1853 22.7461C54.152 22.5905 53.8297 22.0543 53.6808 21.9067C53.6397 21.8661 53.6061 21.8125 53.6061 21.7878C53.6061 21.763 53.5118 21.6465 53.3967 21.5287C53.2815 21.4108 53.1873 21.2873 53.1873 21.2538C53.1873 21.2205 53.1334 21.1567 53.0676 21.1123C52.9369 21.0241 52.8904 20.4798 53.0078 20.4119C53.0432 20.3914 53.0676 20.0471 53.0676 19.568C53.0676 19.0659 53.0449 18.7589 53.0078 18.7589C52.9735 18.7589 52.9479 18.5908 52.9479 18.3666C52.9479 18.1425 52.9224 17.9744 52.8881 17.9744C52.8552 17.9744 52.8283 17.8609 52.8283 17.7222C52.8283 17.5835 52.8014 17.4701 52.7685 17.4701C52.7356 17.4701 52.7086 17.3944 52.7086 17.302C52.7086 17.2095 52.6817 17.1339 52.6488 17.1339C52.6159 17.1339 52.589 17.0472 52.589 16.9411C52.589 16.8351 52.5621 16.7327 52.5292 16.7136C52.4963 16.6946 52.4693 16.63 52.4693 16.5702C52.4693 16.5103 52.4424 16.4615 52.4095 16.4615C52.3766 16.4615 52.3497 16.3858 52.3497 16.2934C52.3497 16.2009 52.3228 16.1253 52.2898 16.1253C52.2569 16.1253 52.23 16.0748 52.23 16.0132C52.23 15.9515 52.2031 15.9011 52.1702 15.9011C52.1373 15.9011 52.1104 15.8507 52.1104 15.789C52.1104 15.7274 52.0834 15.677 52.0505 15.677C52.0176 15.677 51.9907 15.6265 51.9907 15.5649C51.9907 15.5033 51.9638 15.4528 51.9309 15.4528C51.898 15.4528 51.8711 15.415 51.8711 15.3688C51.8711 15.3226 51.8494 15.2847 51.8228 15.2847C51.7961 15.2847 51.7269 15.1839 51.6688 15.0606C51.6108 14.9373 51.5383 14.8365 51.5078 14.8365C51.4772 14.8365 51.4523 14.8049 51.4521 14.7664C51.4521 14.7279 51.3714 14.6081 51.2728 14.5003C51.1742 14.3924 51.0935 14.2837 51.0935 14.2587C51.0932 14.1846 49.6519 12.8753 49.5704 12.8753C49.5294 12.8753 49.4113 12.7996 49.3079 12.7072C49.2046 12.6147 49.093 12.539 49.0598 12.539C49.0266 12.539 48.9994 12.5138 48.9994 12.483C48.9994 12.4522 48.9641 12.427 48.9208 12.427C48.8778 12.427 48.7846 12.3765 48.714 12.3149C48.6434 12.2533 48.5441 12.2028 48.4934 12.2028C48.4427 12.2028 48.4011 12.1776 48.4011 12.1468C48.4011 12.116 48.3472 12.0908 48.2814 12.0908C48.2156 12.0908 48.1618 12.0656 48.1618 12.0347C48.1618 12.0039 48.1079 11.9787 48.0421 11.9787C47.9763 11.9787 47.9225 11.9535 47.9225 11.9227C47.9225 11.8918 47.8686 11.8666 47.8028 11.8666C47.737 11.8666 47.6832 11.8414 47.6832 11.8106C47.6832 11.7798 47.631 11.7546 47.5671 11.7546C47.5032 11.7546 47.4343 11.7294 47.4139 11.6985C47.3936 11.6677 47.3112 11.6425 47.2309 11.6425C47.1505 11.6425 47.0849 11.6173 47.0849 11.5865C47.0849 11.5556 47.007 11.5304 46.9118 11.5304C46.8166 11.5304 46.7264 11.4989 46.7114 11.4604C46.6694 11.3524 46.7324 10.9701 46.7923 10.9701C46.8216 10.9701 46.8456 10.8692 46.8456 10.7459C46.8456 10.6227 46.8725 10.5218 46.9054 10.5218C46.9397 10.5218 46.9652 10.3537 46.9652 10.1296C46.9652 9.90543 46.9908 9.73732 47.0251 9.73732C47.0592 9.73732 47.0849 9.57034 47.0849 9.34845C47.0849 9.13453 47.058 8.94388 47.0251 8.92483C46.9922 8.90577 46.9652 8.70251 46.9652 8.47319C46.9652 8.23266 46.9399 8.05629 46.9054 8.05629C46.8725 8.05629 46.8456 7.96958 46.8456 7.86353C46.8456 7.75749 46.8222 7.65719 46.7937 7.64052C46.765 7.62399 46.7244 7.5094 46.7033 7.38584C46.6822 7.26228 46.6114 7.07191 46.5458 6.96264C46.4803 6.85351 46.4268 6.72701 46.4268 6.68177C46.4268 6.63652 46.4049 6.5994 46.3782 6.5994C46.3514 6.5994 46.2925 6.51114 46.2473 6.40328C46.2021 6.29541 46.149 6.20716 46.1294 6.20716C46.1097 6.20716 46.0451 6.13011 45.9857 6.03597C45.8681 5.8498 44.7254 4.7504 44.649 4.75012C44.6231 4.75012 44.5078 4.67447 44.3927 4.58216C44.2775 4.48984 44.1519 4.41419 44.1134 4.41419C44.0751 4.41405 44.0347 4.39514 44.0237 4.37203C43.9908 4.30268 43.2479 3.96578 43.1279 3.96578C43.0667 3.96578 43.0166 3.94056 43.0166 3.90974C43.0166 3.87892 42.9375 3.85371 42.8407 3.85371C42.744 3.85371 42.6481 3.82849 42.6278 3.79767C42.6074 3.76685 42.4863 3.74164 42.3585 3.74164C42.2308 3.74164 42.1092 3.71572 42.0884 3.6842C42.0675 3.65254 41.9918 3.63125 41.9203 3.63685C41.8487 3.64246 41.4655 3.64302 41.0685 3.63826L40.3467 3.62957L40.2646 3.43345C40.2194 3.32558 40.1605 3.23733 40.1337 3.23733C40.1069 3.23733 40.0851 3.1869 40.0851 3.12526C40.0851 3.06362 40.0582 3.01319 40.0253 3.01319C39.9924 3.01319 39.9654 2.97915 39.9654 2.9374C39.9654 2.8958 39.8847 2.78261 39.786 2.68581C39.6872 2.58901 39.6065 2.48367 39.6065 2.45145C39.6065 2.41937 39.519 2.30786 39.412 2.20377C39.3051 2.09969 39.0573 1.85888 38.8613 1.66878C38.6654 1.47869 38.4256 1.28467 38.3286 1.2376C38.2315 1.19067 38.0972 1.10438 38.0303 1.04596C37.9635 0.987686 37.8734 0.939916 37.8304 0.939916C37.7871 0.939916 37.7518 0.914701 37.7518 0.883882C37.7518 0.853063 37.698 0.827847 37.6322 0.827847C37.5664 0.827847 37.5125 0.802632 37.5125 0.771813C37.5125 0.740994 37.4789 0.715218 37.4377 0.714518C37.3966 0.713817 37.2957 0.663947 37.2134 0.60371C37.1311 0.543473 37.0033 0.493602 36.9292 0.492902C36.8552 0.492201 36.7946 0.466425 36.7946 0.435606C36.7946 0.404787 36.7408 0.379572 36.6749 0.379572C36.6091 0.379572 36.5553 0.354356 36.5553 0.323537C36.5553 0.292718 36.488 0.267503 36.4057 0.267503C36.3235 0.267503 36.2562 0.242288 36.2562 0.211469C36.2562 0.18065 36.1808 0.155434 36.0886 0.155434C35.9965 0.155434 35.8875 0.123915 35.8463 0.085391C35.7381 -0.0160313 32.1791 -0.0160313 32.143 0.085391C32.1293 0.123915 32.0527 0.155434 31.9727 0.155434C31.8928 0.155434 31.7739 0.18065 31.7085 0.211469C31.6432 0.242288 31.5361 0.292718 31.4707 0.323537C31.4054 0.354356 31.2977 0.379572 31.2314 0.379572C31.1652 0.379572 31.111 0.404787 31.111 0.435606C31.111 0.466425 31.0572 0.491641 30.9914 0.491641C30.9256 0.491641 30.8717 0.516856 30.8717 0.547675C30.8717 0.578494 30.8179 0.60371 30.7521 0.60371C30.6862 0.60371 30.6324 0.628925 30.6324 0.659744C30.6324 0.690563 30.5786 0.715779 30.5127 0.715779C30.4469 0.715779 30.3931 0.740994 30.3931 0.771813C30.3931 0.802632 30.3578 0.827847 30.3146 0.827847C30.2715 0.827847 30.1783 0.878278 30.1077 0.939916C30.0371 1.00155 29.9541 1.05199 29.9233 1.05199C29.8925 1.05199 29.7809 1.12763 29.6752 1.22009C29.5694 1.31255 29.464 1.38819 29.4405 1.38819C29.3699 1.38819 28.6934 2.01886 28.5389 2.22871C28.4595 2.33658 28.3461 2.46559 28.287 2.51547C28.2279 2.56534 28.1786 2.62837 28.1775 2.65555C28.1683 2.89622 27.8205 2.91555 27.8205 2.67544C27.8205 2.63944 27.7398 2.53928 27.641 2.45285C27.5423 2.36641 27.4616 2.26891 27.4616 2.23613C27.4616 2.16805 26.6362 1.38819 26.5643 1.38819C26.5383 1.38819 26.4306 1.31255 26.3248 1.22009C26.2191 1.12763 26.1075 1.05199 26.0767 1.05199C26.0459 1.05199 25.9629 1.00155 25.8923 0.939916C25.8217 0.878278 25.7285 0.827847 25.6854 0.827847C25.6422 0.827847 25.6069 0.802632 25.6069 0.771813C25.6069 0.740994 25.5531 0.715779 25.4873 0.715779C25.4214 0.715779 25.3676 0.690563 25.3676 0.659744C25.3676 0.628925 25.3138 0.60371 25.2479 0.60371C25.1821 0.60371 25.1283 0.578494 25.1283 0.547675C25.1283 0.516856 25.0744 0.491641 25.0086 0.491641C24.9428 0.491641 24.889 0.466425 24.889 0.435606C24.889 0.404787 24.8348 0.379572 24.7686 0.379572C24.7023 0.379572 24.5946 0.354356 24.5293 0.323537C24.4639 0.292718 24.3568 0.242288 24.2915 0.211469C24.2261 0.18065 24.1103 0.155434 24.0342 0.155434C23.9581 0.155434 23.8623 0.124055 23.8214 0.0856712C23.7466 0.0156281 21.0873 -0.0318611 20.4618 0.0257143ZM17.5241 8.57475C16.6775 9.10007 17.1325 10.2416 18.1883 10.2416C18.2959 10.2416 18.4947 10.2688 18.6302 10.3022C18.7655 10.3354 18.984 10.389 19.1157 10.4214C19.3455 10.478 19.5298 10.5446 19.9832 10.7352C20.7105 11.041 21.5843 11.7588 22.1248 12.4945C22.6808 13.2514 23.6854 13.1592 23.9356 12.3284C24.1912 11.4792 22.2039 9.61811 20.2821 8.90703C19.8807 8.7584 19.5977 8.68388 18.7452 8.50205C18.2808 8.40301 17.75 8.43452 17.5241 8.57475ZM37.2134 8.51311C35.5204 8.8433 34.3076 9.42928 33.2416 10.4317C31.968 11.6293 31.729 12.3788 32.4664 12.8633C32.9506 13.1815 33.4553 13.0205 33.966 12.3851C34.7466 11.4137 35.5921 10.8261 36.7049 10.4817C37.2141 10.3243 37.6023 10.2416 37.8335 10.2416C38.4777 10.2416 39.0271 9.72472 38.9241 9.21536C38.7927 8.5634 38.2008 8.32035 37.2134 8.51311ZM16.8319 16.9317C16.6288 16.9659 16.4426 17.0127 16.418 17.0358C16.3937 17.0589 16.3175 17.0783 16.2489 17.0787C16.1108 17.0797 15.701 17.2034 15.6369 17.2636C15.6143 17.2847 15.5612 17.302 15.5187 17.302C15.4394 17.302 14.6756 17.6284 14.5688 17.7079C14.5359 17.7325 14.3459 17.8492 14.1467 17.9672C13.1298 18.5699 11.5475 20.4599 11.5475 21.0718C11.5475 21.1213 11.5206 21.1773 11.4877 21.1964C11.4548 21.2154 11.4279 21.2911 11.4279 21.3645C11.4279 21.4379 11.4039 21.5118 11.3746 21.5288C11.3454 21.5457 11.3043 21.6543 11.2835 21.7702C11.2627 21.886 11.2126 22.17 11.1722 22.4011C11.0695 22.9893 11.0673 33.0005 11.1697 33.608C11.2566 34.1234 11.3031 34.3308 11.3643 34.4765C11.3902 34.5382 11.4448 34.6895 11.4859 34.8127C12.1939 36.9416 14.3802 38.6528 16.9619 39.0987C17.5018 39.1918 38.9262 39.1457 39.3373 39.0505C39.5018 39.0122 39.7242 38.9671 39.8314 38.95C39.9387 38.933 40.0411 38.8964 40.0592 38.8691C40.0773 38.8416 40.1448 38.8192 40.2091 38.8192C40.2734 38.8192 40.3727 38.7966 40.4299 38.7691C40.487 38.7415 40.7223 38.6353 40.9526 38.533C43.0769 37.5901 44.4989 35.7442 44.8659 33.4529C44.9561 32.8899 44.9561 23.1192 44.8659 22.5562C44.3934 19.6063 42.2307 17.4879 39.1279 16.9358C38.546 16.8323 17.4474 16.8285 16.8319 16.9317ZM38.4479 18.6467C39.8412 18.7841 41.1415 19.4473 41.9101 20.4119C42.0082 20.5352 42.1046 20.6486 42.124 20.664C42.3771 20.8642 42.8581 22.0218 42.9571 22.6687C43.0815 23.4813 43.008 33.3844 42.8742 33.8321C42.7589 34.2184 42.2996 35.1666 42.1653 35.296C42.1213 35.3385 42.0199 35.4613 41.9399 35.5692C41.354 36.3592 40.3202 36.968 38.9783 37.3133C38.5348 37.4274 17.4683 37.428 17.0217 37.314C16.2519 37.1173 15.5028 36.8081 15.1916 36.5585C15.128 36.5075 15.0561 36.4656 15.0317 36.4655C14.6525 36.463 13.4867 34.8913 13.1821 33.9722L13.0151 33.4679V28.0046V22.5412L13.175 22.0621C13.5004 21.0871 14.1394 20.192 14.8784 19.6757C15.0043 19.5879 15.1207 19.4998 15.1371 19.4802C15.1729 19.4373 15.5598 19.228 15.8635 19.0872C16.2791 18.8946 17.0053 18.6964 17.461 18.6511C18.1267 18.585 37.7813 18.5808 38.4479 18.6467ZM29.5769 20.6858C29.2398 20.8611 29.1285 21.0503 28.8974 21.8408C28.8569 21.9795 28.803 22.156 28.7778 22.233C28.7525 22.3101 28.7027 22.474 28.6672 22.5972C28.6316 22.7205 28.5479 22.9979 28.481 23.2136C28.3667 23.582 27.9337 25.0115 27.8147 25.413C27.7849 25.5131 27.7338 25.6833 27.7009 25.7912C27.668 25.8991 27.6126 26.0819 27.5778 26.1974C27.5431 26.313 27.4907 26.4832 27.4616 26.5757C27.3939 26.7897 27.3071 27.0748 27.2222 27.3602C27.1856 27.4834 27.128 27.6726 27.0944 27.7804C27.0606 27.8883 27.0185 28.0462 27.001 28.1313C26.9835 28.2165 26.9454 28.2999 26.9162 28.3168C26.8871 28.3336 26.8633 28.4201 26.8633 28.5089C26.8633 28.5977 26.8364 28.6859 26.8035 28.705C26.7705 28.724 26.7436 28.7931 26.7436 28.8584C26.7436 28.9703 26.6659 29.238 26.5604 29.4895C26.5345 29.5511 26.4997 29.6646 26.4831 29.7416C26.4665 29.8187 26.424 29.9763 26.3889 30.0918C26.3537 30.2074 26.2979 30.3902 26.265 30.4981C26.2005 30.7093 26.1089 31.0135 26.0285 31.2826C26.001 31.375 25.784 32.0811 25.5463 32.8515C24.9763 34.6989 24.9739 34.9814 25.5255 35.2862C26.0462 35.574 26.9231 35.2316 26.9231 34.7407C26.9231 34.6762 26.95 34.6077 26.9829 34.5886C27.0158 34.5696 27.0428 34.5005 27.0428 34.4352C27.0428 34.309 27.1422 33.9808 27.2296 33.8188C27.2584 33.7653 27.2821 33.6597 27.2821 33.584C27.2821 33.5084 27.309 33.4309 27.3419 33.4119C27.3748 33.3928 27.4017 33.3238 27.4017 33.2585C27.4017 33.1466 27.4795 32.8789 27.5849 32.6274C27.6108 32.5658 27.6457 32.4523 27.6623 32.3752C27.6789 32.2982 27.7229 32.1343 27.7599 32.011C27.8268 31.7884 27.8434 31.7341 28.0239 31.1425C28.0755 30.973 28.1705 30.6578 28.2347 30.4421C28.2988 30.2263 28.4207 29.8229 28.5054 29.5455C28.59 29.2681 28.6856 28.9529 28.7178 28.8451C28.7498 28.7372 28.8303 28.4872 28.8965 28.2895C28.9628 28.0918 29.0171 27.8852 29.0171 27.8306C29.0171 27.7758 29.044 27.7154 29.0769 27.6964C29.1098 27.6773 29.1367 27.5891 29.1367 27.5002C29.1367 27.4114 29.1636 27.3232 29.1965 27.3041C29.2294 27.2851 29.2564 27.1968 29.2564 27.108C29.2564 27.0192 29.2833 26.9309 29.3162 26.9119C29.3491 26.8928 29.376 26.8154 29.376 26.7397C29.376 26.6641 29.3997 26.5584 29.4285 26.5049C29.509 26.3556 29.6153 26.0186 29.6153 25.9125C29.6153 25.8604 29.639 25.774 29.6678 25.7205C29.7483 25.5711 29.8546 25.2341 29.8546 25.128C29.8546 25.0759 29.8789 24.9895 29.9086 24.936C29.9384 24.8825 29.9919 24.7377 30.0277 24.6145C30.0634 24.4912 30.162 24.1634 30.2467 23.886C30.9739 21.5046 30.9833 21.4599 30.8336 21.1092C30.6547 20.6907 29.9946 20.4682 29.5769 20.6858ZM21.6583 22.5268C21.4207 22.6254 16.2788 27.4448 16.1804 27.6612C16.0713 27.9009 16.0713 28.1085 16.1805 28.3479C16.2858 28.5785 21.4323 33.3904 21.6761 33.4863C22.1025 33.6537 22.6338 33.4473 22.8492 33.0307C23.1384 32.4709 23.1202 32.447 20.603 30.0946C19.4022 28.9726 18.4284 28.0317 18.4387 28.0039C18.449 27.9761 19.4414 27.0256 20.6438 25.8916C23.0379 23.6339 23.0764 23.5875 22.9193 23.1436C22.7324 22.6149 22.142 22.3262 21.6583 22.5268ZM33.5639 22.5779C33.1798 22.7813 33.001 23.1925 33.1116 23.6165C33.1395 23.7227 33.8729 24.45 35.3626 25.8482C36.578 26.9891 37.5724 27.96 37.5724 28.0058C37.5724 28.0516 36.5783 29.02 35.3632 30.1577C32.9597 32.4082 32.9494 32.4206 33.088 32.891C33.2421 33.4136 33.8993 33.7199 34.3574 33.4828C34.5568 33.3797 39.7199 28.5615 39.8198 28.3856C40.124 27.8493 40.0902 27.8073 37.1109 25.0308C34.1417 22.2637 34.1484 22.2683 33.5639 22.5779ZM13.447 43.193C13.0369 43.5096 12.9765 44.0073 13.2958 44.4368C13.4585 44.6556 13.5529 44.6905 14.3115 44.8124C15.9503 45.0756 17.2607 45.9164 18.289 47.3645C18.5204 47.6903 18.6722 47.9545 19.0887 48.7555C19.5813 49.7026 20.7489 49.6694 20.967 48.7021C21.0379 48.3874 20.5424 47.2679 20.0359 46.5993C19.974 46.5175 19.9233 46.4358 19.9233 46.4179C19.9233 46.3998 19.8844 46.3407 19.8369 46.2865C19.5826 45.9958 19.2054 45.4926 19.2054 45.4437C19.2054 45.2342 20.6546 44.8635 21.7968 44.781C22.722 44.7142 23.2017 44.1755 22.8997 43.5428C22.6817 43.0857 22.4616 43.0051 21.5276 43.0401C20.6815 43.0719 20.1012 43.1658 19.4148 43.3817C18.9801 43.5184 18.9378 43.5356 18.2459 43.8571L17.6156 44.15L17.2289 43.9343C16.563 43.5625 16.0407 43.3528 15.4064 43.2021C14.3335 42.9473 13.7687 42.9446 13.447 43.193ZM33.5349 43.0928C33.0192 43.3927 32.8822 44.0199 33.2445 44.4231C33.4713 44.6756 33.6535 44.7408 34.2519 44.7834C35.1897 44.8501 35.9675 45.0204 36.5821 45.2936C36.839 45.4077 36.8465 45.4832 36.6248 45.7235C35.9129 46.4952 35.0593 48.0437 35.0598 48.5629C35.0605 49.3502 36.0403 49.7187 36.6524 49.1619C36.7635 49.0608 36.8544 48.9578 36.8544 48.933C36.8544 48.8249 37.4994 47.6641 37.768 47.2888C38.3597 46.4619 39.2834 45.6777 40.115 45.2961C40.8026 44.9805 40.9812 44.9256 41.6885 44.8122C42.4466 44.6906 42.5409 44.6558 42.7052 44.4368C43.3843 43.5317 42.506 42.7829 41.118 43.0836C40.0298 43.3192 39.5742 43.4848 38.7738 43.9363L38.3899 44.1527L37.7568 43.8584C37.0622 43.5355 37.0201 43.5184 36.5852 43.3817C35.876 43.1587 35.3091 43.0701 34.4314 43.0455C33.8827 43.0301 33.6187 43.0439 33.5349 43.0928Z" fill="#343435"/>
<path fill-rule="evenodd" clip-rule="evenodd" d="M21.2695 1.89923C21.1378 1.92739 20.8955 1.97824 20.731 2.01228C19.2637 2.31529 17.7711 3.62299 17.2897 5.02708C17.0916 5.60521 16.7147 5.76085 15.7897 5.64612C13.159 5.32 11.0571 6.97749 11.0731 9.3654C11.0755 9.70862 11.0957 10.0326 11.118 10.0854C11.1404 10.1383 11.1616 9.81046 11.1654 9.357C11.1715 8.59969 11.1854 8.50065 11.3359 8.14035C11.4259 7.92462 11.5136 7.70398 11.5306 7.65005C11.5475 7.59612 11.5852 7.55199 11.6144 7.55199C11.6434 7.55199 11.6672 7.51893 11.6672 7.47844C11.6672 7.4381 11.721 7.35082 11.7868 7.2847C11.8526 7.21858 11.9071 7.14448 11.9078 7.1201C11.9098 7.05608 12.4974 6.53216 12.7441 6.37442C12.8592 6.30088 12.9669 6.22635 12.9834 6.20912C12.9998 6.19175 13.1479 6.11849 13.3124 6.0462C13.477 5.97392 13.6584 5.89225 13.7155 5.86479C13.7727 5.83733 13.8817 5.81492 13.9578 5.81492C14.0339 5.81492 14.1244 5.78844 14.1591 5.75594C14.2441 5.67637 15.8075 5.67511 15.9658 5.7544C16.4109 5.97742 17.1495 5.62945 17.3419 5.10608C18.5647 1.78016 22.9632 0.85825 25.5791 3.37966C25.9458 3.73324 26.4445 4.39767 26.4445 4.53285C26.4445 4.55807 26.4984 4.66859 26.5642 4.77828C26.63 4.88797 26.6838 5.02595 26.6838 5.08493C26.6838 5.14377 26.7079 5.20582 26.7374 5.22292C26.8053 5.26228 26.8637 5.60745 26.8992 6.17914C26.9257 6.60711 26.9465 6.68808 27.117 7.02709C27.3431 7.47676 28.1629 7.63604 28.6095 7.31706C28.9109 7.10161 29.0386 6.81878 29.085 6.2632C29.1384 5.62468 29.2015 5.25836 29.2643 5.22193C29.2929 5.2054 29.3162 5.14377 29.3162 5.08493C29.3162 5.02595 29.3701 4.88797 29.4359 4.77828C29.5017 4.66859 29.5555 4.5526 29.5555 4.52052C29.5555 4.48844 29.6363 4.35228 29.735 4.21794C29.8337 4.08359 29.9145 3.95948 29.9145 3.94211C29.9145 3.83158 30.7456 3.04219 31.1409 2.77729C32.7775 1.6807 35.4309 1.70003 36.9099 2.81918C37.7371 3.44508 38.3226 4.186 38.6122 4.973C38.8495 5.61852 39.5441 6.00011 40.0343 5.7544C40.1925 5.67511 41.7559 5.67637 41.8409 5.75594C41.8756 5.78844 41.9661 5.81492 42.0422 5.81492C42.1184 5.81492 42.2274 5.83789 42.2845 5.86605C42.3417 5.89421 42.5365 5.98148 42.7175 6.06007C43.2376 6.28561 44.0678 6.97848 44.2729 7.35811C44.3222 7.44931 44.3761 7.53658 44.3927 7.55199C44.4093 7.5674 44.4595 7.65565 44.5044 7.74811C44.5494 7.84057 44.6099 7.96006 44.639 8.01357C44.668 8.06708 44.6918 8.1601 44.6918 8.22034C44.6918 8.28058 44.7226 8.34768 44.7603 8.36953C44.9492 8.47894 44.5105 7.51459 44.2011 7.14028C43.1982 5.92713 41.7278 5.39466 40.115 5.66026C39.3545 5.78564 39.0217 5.65004 38.7727 5.11351C37.9656 3.37462 36.7746 2.32061 35.269 2.01284C35.1045 1.97922 34.8435 1.92585 34.6892 1.89405C34.1696 1.78744 33.4117 1.84264 32.5346 2.05108C30.6368 2.50202 29.1566 4.2884 28.9872 6.33226C28.8587 7.88385 27.1517 7.84827 27.0157 6.29121C26.7728 3.51106 23.9213 1.33174 21.2695 1.89923ZM17.4287 8.52026C16.8256 8.91265 16.8561 9.80738 17.4845 10.157C17.6646 10.2573 17.831 10.2912 18.6233 10.389C18.7803 10.4083 18.9233 10.4462 18.941 10.4731C18.9586 10.4998 19.0392 10.5218 19.12 10.5218C19.2008 10.5218 19.3203 10.547 19.3856 10.5778C19.451 10.6087 19.5581 10.6591 19.6235 10.6899C19.6888 10.7207 19.7808 10.746 19.8278 10.746C19.8749 10.746 19.9223 10.7649 19.9334 10.788C19.9443 10.8111 20.0744 10.8904 20.2225 10.9642C20.8053 11.2546 21.6522 11.9805 22.0598 12.5391C22.734 13.4631 24.0514 13.205 24.0514 12.1491C24.0514 11.631 23.1064 10.4525 22.1622 9.79337C21.5408 9.35952 20.7093 8.9282 20.2225 8.78713C20.0744 8.74426 19.9277 8.68837 19.8964 8.66287C19.8652 8.63752 19.7658 8.61664 19.6757 8.61664C19.5855 8.61664 19.4968 8.59409 19.4785 8.56649C19.3631 8.39139 17.6849 8.35356 17.4287 8.52026ZM37.0638 8.44854C36.998 8.47502 36.8583 8.49841 36.7533 8.50065C36.6483 8.50275 36.5457 8.52979 36.5254 8.56061C36.5051 8.59143 36.4223 8.61664 36.3416 8.61664C36.2608 8.61664 36.148 8.6399 36.0909 8.66819C36.0338 8.69649 35.8254 8.77704 35.628 8.84694C34.2627 9.3308 32.7392 10.536 32.0741 11.6582C31.9413 11.8825 31.8993 12.3918 32.0084 12.455C32.0413 12.4741 32.0689 12.5323 32.0696 12.5844C32.0714 12.7234 32.4426 12.999 32.7382 13.0808C33.2057 13.2099 33.6719 12.9672 34.101 12.371C34.3387 12.0408 35.2868 11.1942 35.419 11.1942C35.4516 11.1942 35.4786 11.1753 35.4789 11.1522C35.4792 11.1291 35.5397 11.082 35.6135 11.0477C35.8742 10.9264 36.5267 10.6204 36.6293 10.5714C36.6865 10.5441 36.7955 10.5218 36.8716 10.5218C36.9478 10.5218 37.0356 10.4991 37.0668 10.4715C37.1225 10.4222 37.2673 10.3976 37.9313 10.3244C38.8365 10.2247 39.2775 9.5478 38.8854 8.86011C38.647 8.44182 37.6437 8.21516 37.0638 8.44854ZM19.213 8.5847C21.0481 8.97456 22.6989 10.0255 23.7085 11.4467C24.2026 12.1422 23.9503 12.9107 23.1927 13.017C22.6915 13.0875 22.4667 12.9523 21.8846 12.2309C21.38 11.6054 20.804 11.1539 20.0729 10.8105C19.3862 10.4881 18.9519 10.3697 17.8892 10.2156C17.0406 10.0926 16.7758 9.17082 17.4336 8.62981C17.7187 8.39545 18.2582 8.38172 19.213 8.5847ZM38.622 8.68851C39.1689 9.20052 38.9275 10.1091 38.2188 10.2066C36.7936 10.4026 36.2865 10.564 35.4186 11.0978C34.8437 11.4516 34.422 11.835 33.9774 12.4086C32.9703 13.7078 31.3897 12.7766 32.3161 11.43C33.4488 9.78328 35.9002 8.46773 37.8645 8.45246L38.3658 8.44854L38.622 8.68851ZM44.8245 8.61664C44.8251 8.72451 44.8462 8.88841 44.8713 8.98087C44.9147 9.14085 44.9171 9.13804 44.9181 8.92483C44.9187 8.80156 44.8976 8.63766 44.8713 8.56061C44.8281 8.43425 44.8234 8.43971 44.8245 8.61664ZM44.843 9.85991C44.8188 10.0043 44.8118 10.1556 44.8273 10.1961C44.8429 10.2366 44.8753 10.1514 44.8996 10.007C44.9238 9.86257 44.9308 9.71128 44.9153 9.67079C44.8997 9.63031 44.8673 9.71548 44.843 9.85991ZM11.1895 10.3134C11.188 10.4717 11.4786 11.0753 11.7201 11.4151C12.1383 12.0041 12.1796 12.2396 11.9339 12.6324C11.5347 13.2702 10.7438 13.2468 10.2028 12.5811C10.0839 12.4347 9.95957 12.3149 9.92666 12.3149C9.87521 12.3149 10.1195 12.6443 10.3285 12.8569C10.9539 13.4925 12.1458 13.0427 12.1458 12.1712C12.1458 11.9581 11.9834 11.5695 11.8547 11.4744C11.7554 11.4011 11.3132 10.5832 11.3091 10.4658C11.3048 10.3319 11.1907 10.1866 11.1895 10.3134ZM44.7355 10.3316C44.7114 10.354 44.6918 10.4179 44.6918 10.4735C44.6918 10.529 44.638 10.6643 44.5722 10.774C44.5064 10.8837 44.4525 11.0106 44.4525 11.0558C44.4525 11.1011 44.4256 11.1382 44.3927 11.1382C44.3598 11.1382 44.3329 11.1697 44.3329 11.2082C44.3327 11.2468 44.2632 11.3539 44.1781 11.4464C43.5538 12.1247 43.8765 13.0039 44.8104 13.1689C46.0019 13.3793 46.1039 13.4091 47.0251 13.814C49.755 15.0141 51.3464 18.0226 50.7374 20.8322C50.5951 21.4883 50.6427 21.7357 50.974 22.0652C51.659 22.7464 52.0338 23.2156 52.149 23.5358C52.1683 23.5898 52.2079 23.6339 52.2371 23.6339C52.2661 23.6339 52.2899 23.6793 52.2899 23.7347C52.2899 23.7902 52.3141 23.8596 52.3439 23.8888C52.5468 24.089 52.8861 25.5252 52.8861 26.1835C52.8859 27.0845 52.4878 28.3441 51.9795 29.0513C51.8869 29.1802 51.8113 29.3001 51.8113 29.318C51.8113 29.3358 51.7369 29.4232 51.6461 29.5122C51.0749 30.0721 51.0939 30.7739 51.6916 31.1921C52.2526 31.5845 53.0077 32.4918 53.3059 33.1317C53.3777 33.2858 53.4611 33.4557 53.4914 33.5093C53.5216 33.5628 53.5462 33.6558 53.5462 33.716C53.5462 33.7763 53.5702 33.8394 53.5995 33.8564C53.6596 33.8911 53.685 34.0112 53.8068 34.8383C54.1595 37.233 52.6288 39.6604 50.166 40.612C50.0673 40.6503 49.9397 40.7037 49.8826 40.731C49.8254 40.7582 49.7375 40.7804 49.6869 40.7804C49.1744 40.7804 48.9174 41.2563 48.8699 42.2934C48.8248 43.2747 48.7776 43.5536 48.5314 44.2917C47.9614 46.0006 46.2168 47.5875 44.2688 48.1693C44.1513 48.2043 43.9981 48.233 43.9283 48.233C43.8586 48.233 43.7848 48.2582 43.7645 48.2891C43.7442 48.3199 43.6614 48.3451 43.5807 48.3451C43.1336 48.3451 42.8689 48.6551 42.6 49.4938C42.4562 49.9418 42.444 49.9706 42.174 50.5024C41.9894 50.8662 41.7015 51.3118 41.5537 51.463C41.5193 51.4983 41.3772 51.663 41.2383 51.829C40.1158 53.1698 37.9544 54.1166 36.0166 54.1166C34.3128 54.1166 32.5523 53.4773 31.2999 52.4037C30.954 52.1071 30.1538 51.2115 30.1538 51.1209C30.1538 51.1 30.0789 50.9776 29.9875 50.8487C29.8279 50.624 29.7545 50.489 29.6083 50.1522C29.5717 50.0674 29.5178 49.9543 29.4887 49.9007C29.4597 49.8472 29.4359 49.7542 29.4359 49.694C29.4359 49.6337 29.4119 49.5706 29.3826 49.5536C29.3535 49.5367 29.3141 49.4407 29.2954 49.3403C29.2767 49.2398 29.2305 49.0189 29.1927 48.8494C29.1548 48.6799 29.1116 48.2891 29.0965 47.9809C29.0815 47.6727 29.044 47.3966 29.0132 47.3673C28.9824 47.338 28.9573 47.2716 28.9573 47.2198C28.9573 47.0763 28.5163 46.734 28.2428 46.6649C27.4693 46.4699 26.9566 47.0145 26.8983 48.0929C26.8833 48.3703 26.8434 48.7233 26.8096 48.8774C26.7758 49.0315 26.7306 49.2398 26.7091 49.3404C26.6876 49.441 26.6463 49.5369 26.6171 49.5539C26.5879 49.5707 26.5642 49.6337 26.5642 49.694C26.5642 49.7542 26.5404 49.8472 26.5114 49.9007C26.4822 49.9543 26.4322 50.0611 26.4001 50.1382C26.347 50.2658 26.2164 50.5157 25.9801 50.9419C24.8349 53.007 21.7141 54.4253 19.1317 54.0542C18.0237 53.8949 16.4888 53.3375 16.0231 52.9251C15.98 52.887 15.8458 52.7867 15.7248 52.702C15.4306 52.4963 14.8403 51.945 14.6238 51.674C14.5278 51.5536 14.402 51.4062 14.3445 51.3464C14.2869 51.2866 14.2398 51.2047 14.2398 51.1643C14.2398 51.1238 14.2196 51.0906 14.1949 51.0904C14.1702 51.0901 14.12 51.0333 14.0833 50.9643C14.0467 50.8952 13.9351 50.6873 13.8353 50.5024C13.6204 50.1037 13.4022 49.593 13.4022 49.4883C13.4022 49.1408 13.029 48.5605 12.7278 48.4398C12.4219 48.3171 12.1181 48.233 11.9805 48.233C11.9108 48.233 11.8371 48.2078 11.8168 48.177C11.7964 48.1462 11.7073 48.1222 11.6187 48.1239C11.4053 48.1277 11.6848 48.2318 12.2954 48.3755C12.8808 48.5135 13.0933 48.726 13.2795 49.3595C13.9828 51.751 16.0723 53.5675 18.6884 54.0613C19.3287 54.1822 20.6229 54.2147 21.0785 54.1213C21.2164 54.093 21.4908 54.0379 21.6882 53.9987C23.294 53.6807 25.2697 52.3226 26.0221 51.0193C26.685 49.8715 26.9328 49.0898 27.0162 47.8834C27.125 46.3081 28.865 46.2589 28.9837 47.8277C29.2159 50.8963 31.4021 53.4285 34.3118 53.9988C34.4763 54.031 34.7373 54.0833 34.8917 54.1151C35.3734 54.2139 36.6539 54.1856 37.3117 54.0613C40.0344 53.5473 42.0338 51.7607 42.7871 49.1684C42.906 48.759 43.139 48.5308 43.544 48.4269C45.2624 47.9862 46.0669 47.5715 47.0987 46.5951C48.2904 45.4673 48.9394 43.9653 48.9396 42.3348C48.9396 41.3538 49.1289 40.9936 49.7173 40.855C49.8745 40.8178 50.5646 40.5413 50.7575 40.4381C50.8196 40.4049 50.9659 40.3274 51.0827 40.266C54.4686 38.4848 54.9073 33.9549 51.9501 31.3106C51.1167 30.5655 51.0975 30.3471 51.7863 29.4475C53.5178 27.1855 53.303 24.3347 51.2427 22.2329C50.7027 21.6819 50.6309 21.3891 50.8624 20.6813C51.1346 19.8485 50.8129 17.7933 50.2412 16.7136C49.2257 14.7957 46.685 13.0994 44.8279 13.0994C44.5615 13.0994 44.1778 12.8457 44.0394 12.5781C43.8394 12.1914 43.89 11.9532 44.2898 11.3976C44.6169 10.9432 44.9607 10.1206 44.7355 10.3316ZM7.90285 13.1863C7.90031 13.2494 7.92888 13.33 7.96642 13.3651C8.22547 13.6078 8.02027 14.1629 7.50336 14.6177C6.4673 15.5289 5.96415 16.1973 5.50393 17.274C5.38188 17.5593 5.26926 17.9513 5.14946 18.5067C5.05986 18.9221 5.09367 20.4789 5.2039 21.0085C5.32026 21.5682 5.26986 21.7055 4.75146 22.2424C3.16259 23.8877 2.66528 25.9271 3.36675 27.9205C3.53621 28.402 3.92644 29.0872 4.28046 29.5249C4.91972 30.3152 4.88008 30.5578 3.97475 31.3947C2.81365 32.4679 2.30288 33.4146 2.09228 34.8835C2.0172 35.4071 2.07912 36.3397 2.21792 36.774C2.89427 38.8897 3.98641 39.9854 6.29246 40.8615C6.96521 41.1172 7.06049 41.2927 7.06049 42.2766C7.06049 44.3297 8.08832 46.2123 9.84245 47.3727C10.4149 47.7514 11.4279 48.196 11.4279 48.0687C11.4279 48.0358 11.3872 48.0089 11.3374 48.0089C11.2876 48.0089 11.2001 47.9869 11.1429 47.9599C11.0858 47.933 10.9313 47.8611 10.7997 47.8004C9.30461 47.1102 8.10432 45.8773 7.53866 44.4507C7.51413 44.3891 7.46387 44.2682 7.42693 44.1819C7.38984 44.0957 7.35962 43.9684 7.35962 43.8989C7.35962 43.8295 7.33524 43.7487 7.30563 43.7194C7.228 43.643 7.17775 43.2245 7.13123 42.2653C7.08247 41.2609 6.81908 40.7804 6.31743 40.7804C6.26927 40.7804 6.21333 40.7552 6.19299 40.7244C6.17265 40.6936 6.1034 40.6684 6.03909 40.6684C5.97477 40.6684 5.86873 40.6432 5.80337 40.6123C5.12029 40.2903 4.88831 40.162 4.49106 39.8861C3.7504 39.3719 3.09334 38.6101 2.72286 37.8361C2.63507 37.6526 2.5386 37.4586 2.50853 37.4051C2.47847 37.3515 2.45379 37.2585 2.45379 37.1983C2.45379 37.1381 2.42687 37.0732 2.39396 37.0541C2.36106 37.0351 2.33414 36.966 2.33414 36.9007C2.33414 36.8353 2.30916 36.7045 2.2785 36.6098C2.08002 35.9954 2.16886 33.9905 2.40054 33.8564C2.42986 33.8394 2.45379 33.7763 2.45379 33.716C2.45379 33.6558 2.47772 33.5628 2.50704 33.5093C2.53635 33.4557 2.6228 33.2858 2.69923 33.1317C3.04249 32.4397 3.6445 31.7101 4.26611 31.2331C4.8756 30.7654 4.94066 30.1038 4.42824 29.5861C2.94707 28.0902 2.74964 25.0282 4.02052 23.2596C4.1131 23.1307 4.18878 23.0004 4.18878 22.97C4.18878 22.9396 4.20897 22.9064 4.23365 22.896C4.25833 22.8858 4.356 22.7892 4.45067 22.6813C4.54535 22.5734 4.75445 22.351 4.91538 22.1868C5.41748 21.6749 5.45502 21.4511 5.19926 20.496C4.7534 18.8314 5.68102 16.3909 7.33883 14.8659C8.03313 14.2271 8.13842 14.0766 8.13588 13.7261C8.13409 13.5003 7.91138 12.9843 7.90285 13.1863ZM17.2909 16.7779C16.8028 16.8243 16.1439 16.9631 15.7953 17.0931C15.713 17.1238 15.5919 17.1675 15.526 17.1903C15.4179 17.2277 15.026 17.3897 14.6735 17.5427C14.5995 17.5749 14.5389 17.6221 14.5389 17.6477C14.5389 17.6732 14.5085 17.6942 14.4714 17.6942C14.1897 17.6942 13.1033 18.5866 12.4233 19.3765C12.2477 19.5805 11.9663 19.9884 11.9663 20.0391C11.9663 20.0695 11.946 20.1027 11.9212 20.1131C11.8501 20.1425 11.508 20.826 11.3791 21.1964C11.2683 21.5145 11.2224 21.68 11.0726 22.2998C10.9941 22.6244 10.9841 33.3717 11.062 33.6641C11.0907 33.7719 11.1471 34.0115 11.1875 34.1964C11.2279 34.3813 11.2823 34.583 11.3085 34.6447C11.3345 34.7063 11.3884 34.845 11.4282 34.9528C11.5294 35.2278 11.8669 35.8736 11.9212 35.896C11.946 35.9064 11.9663 35.9396 11.9663 35.97C11.9663 36.0295 12.2993 36.5019 12.4271 36.6239C12.4698 36.6646 12.5048 36.7185 12.5048 36.7436C12.5048 36.8726 14.0634 38.2028 14.2146 38.2028C14.233 38.2028 14.3655 38.2785 14.509 38.371C14.6524 38.4634 14.7961 38.5391 14.8282 38.5391C14.8603 38.5391 15.0034 38.5931 15.1464 38.6591C15.2894 38.7251 15.467 38.8007 15.541 38.8272C15.615 38.8537 15.7362 38.8975 15.8102 38.9249C15.8843 38.9522 16.0525 39.0005 16.1841 39.0323C16.3158 39.064 16.5311 39.1229 16.6628 39.1631C16.9848 39.2618 37.924 39.305 38.7845 39.2089C39.6615 39.111 39.7846 39.0907 39.8198 39.0375C39.838 39.0099 39.917 38.9873 39.9954 38.9873C40.0738 38.9873 40.1512 38.9672 40.1675 38.9424C40.1838 38.9177 40.3336 38.8627 40.5002 38.8202C40.6668 38.7778 40.803 38.7223 40.803 38.6971C40.803 38.6717 40.8427 38.6511 40.8911 38.6511C40.9396 38.6511 41.0944 38.587 41.2352 38.5085C41.3759 38.4302 41.5382 38.3516 41.5958 38.334C41.6533 38.3163 41.7005 38.2796 41.7005 38.2523C41.7005 38.2251 41.7358 38.2028 41.779 38.2028C41.8221 38.2028 41.9095 38.1587 41.9734 38.1048C42.0373 38.0509 42.1972 37.9332 42.3286 37.8432C42.8782 37.4678 44.0337 36.1992 44.0337 35.9714C44.0337 35.9403 44.0541 35.9064 44.0789 35.896C44.1332 35.8736 44.4706 35.2278 44.5719 34.9528C44.6116 34.845 44.6662 34.7063 44.6933 34.6447C44.7204 34.583 44.7594 34.4569 44.7801 34.3645C44.8006 34.272 44.8495 34.0703 44.8885 33.9162C44.9902 33.5154 44.9902 22.4937 44.8885 22.0929C44.8495 21.9388 44.8006 21.7371 44.7801 21.6447C44.7431 21.4788 44.6685 21.2893 44.5651 21.099C44.5361 21.0455 44.5123 20.9672 44.5123 20.9249C44.5123 20.8322 44.1423 20.1396 44.0786 20.1131C44.0539 20.1027 44.0337 20.0701 44.0337 20.0405C44.0337 19.8164 42.8795 18.5488 42.3286 18.1679C42.1972 18.0768 42.0373 17.9583 41.9734 17.9044C41.9095 17.8504 41.8221 17.8063 41.779 17.8063C41.7358 17.8063 41.7003 17.7874 41.7 17.7643C41.6997 17.7412 41.6391 17.6945 41.5654 17.6606C41.4917 17.6266 41.3235 17.547 41.1919 17.4835C40.8358 17.3121 40.3938 17.1339 40.3243 17.1339C40.2906 17.1339 40.2163 17.1112 40.1592 17.0833C40.102 17.0554 39.9475 17.0072 39.8159 16.976C39.6843 16.9448 39.4689 16.8862 39.3373 16.846C39.1156 16.7781 17.9758 16.7128 17.2909 16.7779ZM39.1399 16.9116C41 17.251 42.4345 18.0793 43.5306 19.4464C44.2606 20.3573 44.629 21.1922 44.8694 22.4806C44.9549 22.9398 44.9539 33.1557 44.8682 33.5617C44.721 34.2586 44.6745 34.4379 44.5583 34.7567C43.7492 36.9761 41.7888 38.5828 39.2954 39.07C38.6515 39.1958 17.3518 39.1996 16.7525 39.0739C15.6122 38.8351 14.9687 38.5844 14.1452 38.0588C12.4849 36.9989 11.4684 35.4759 11.1332 33.5455C11.0444 33.0337 11.0444 22.9755 11.1332 22.4636C11.6127 19.7025 13.7065 17.5728 16.5132 16.9914C16.76 16.9403 16.9888 16.8904 17.0217 16.8805C17.1931 16.8291 38.8542 16.8595 39.1399 16.9116ZM13.8051 42.9274C13.3392 43.0306 12.9221 43.5546 13.0016 43.9367C13.0221 44.0355 13.0284 44.0292 13.0351 43.9038C13.0489 43.6424 13.27 43.2824 13.5075 43.135C14.0812 42.7785 16.274 43.2563 17.3463 43.9713C17.5805 44.1275 17.6414 44.1198 18.1743 43.8664C18.8828 43.5293 19.4975 43.3139 20.1028 43.1902C20.2838 43.1532 20.5397 43.0987 20.6713 43.069C22.0116 42.7669 22.9745 43.1174 22.9745 43.9073C22.9745 44.5055 22.6313 44.7369 21.62 44.8208C20.9299 44.8781 20.0481 45.048 19.8646 45.1591C19.7596 45.2226 19.9189 45.1999 20.3122 45.0952C20.7424 44.9809 21.501 44.8732 21.8851 44.8721C22.6811 44.8697 23.173 44.372 23.0562 43.6875C22.9289 42.9422 21.9388 42.7271 20.2524 43.0778C20.0879 43.112 19.8655 43.1541 19.7582 43.1711C19.651 43.1882 19.5485 43.2248 19.5304 43.2521C19.5123 43.2796 19.4449 43.302 19.3806 43.302C19.3162 43.302 19.2169 43.3243 19.1598 43.3514C19.1027 43.3788 18.9885 43.426 18.9063 43.4565C18.6194 43.5628 18.1574 43.7739 18.0089 43.8665C17.6997 44.0592 17.618 44.051 17.1441 43.7816C16.8968 43.6411 16.6806 43.5261 16.6631 43.5261C16.6276 43.5261 16.1204 43.3206 15.9605 43.2413C15.9034 43.213 15.7906 43.1899 15.7099 43.1899C15.6291 43.1899 15.5464 43.1647 15.526 43.1339C15.5057 43.1031 15.432 43.0778 15.3623 43.0778C15.2924 43.0778 15.1527 43.0542 15.0516 43.0253C14.7318 42.934 14.026 42.8785 13.8051 42.9274ZM33.7733 42.9254C32.458 43.2233 32.7647 44.8677 34.1362 44.8721C34.502 44.8732 35.2662 44.9832 35.6878 45.0952C36.1172 45.2095 36.2571 45.2216 36.0468 45.1263C35.7647 44.9986 35.0897 44.8747 34.3586 44.8167C33.3928 44.7402 33.0255 44.4845 33.0255 43.8888C33.0255 43.1029 33.9639 42.7786 35.3722 43.0777C35.5457 43.1147 35.809 43.1709 35.957 43.2027C36.4974 43.3189 37.1373 43.539 37.7219 43.8098C38.4025 44.125 38.4191 44.1279 38.6538 43.9713C39.6832 43.2848 41.89 42.7853 42.4739 43.1067C43.3728 43.6012 42.9698 44.6674 41.8276 44.8167C40.2233 45.0263 38.8841 45.8287 37.8916 47.1749C37.4662 47.7518 37.3543 47.9386 36.9476 48.7501C36.6148 49.4139 36.112 49.6279 35.5335 49.3515C34.8792 49.0388 34.8634 48.4734 35.478 47.3716C35.8932 46.6275 35.9757 46.502 36.3865 45.9904C36.612 45.7094 36.7794 45.4534 36.7584 45.4216C36.71 45.3482 36.3132 45.191 36.2725 45.2292C36.2557 45.245 36.351 45.302 36.4843 45.3561L36.7264 45.4543L36.4228 45.8163C35.8745 46.4698 35.2506 47.5198 35.0272 48.1655C34.5602 49.5144 36.3613 50.1019 37.0045 48.8105C37.3503 48.1158 37.4243 47.9802 37.4677 47.9622C37.4924 47.9519 37.5125 47.9194 37.5125 47.8899C37.5125 47.5231 39.055 45.9468 39.803 45.5494C40.3333 45.2677 40.4218 45.2277 40.6834 45.1524C40.8315 45.1098 40.9795 45.0575 41.0124 45.0364C41.0453 45.0151 41.3011 44.9676 41.5808 44.9308C42.4568 44.8155 42.7507 44.672 42.9342 44.2704C43.1086 43.8887 42.9482 43.2944 42.6272 43.1336C42.5452 43.0926 42.4782 43.0402 42.4782 43.0173C42.4782 42.969 42.0187 42.883 41.8668 42.9027C41.8102 42.9102 41.5814 42.9383 41.3582 42.9654C40.8772 43.0236 40.6367 43.0693 40.474 43.1335C40.4082 43.1594 40.2265 43.2133 40.0702 43.2535C39.9139 43.2936 39.786 43.3461 39.786 43.3702C39.786 43.3943 39.7443 43.4141 39.6934 43.4141C39.5639 43.4141 38.994 43.6848 38.5492 43.9579C38.401 44.0488 38.3811 44.044 37.8201 43.7814C37.5028 43.633 37.176 43.4866 37.0938 43.4562C37.0115 43.4258 36.8974 43.3788 36.8402 43.3514C36.7831 43.3243 36.6838 43.302 36.6195 43.302C36.5552 43.302 36.4877 43.2796 36.4696 43.2521C36.4515 43.2248 36.3491 43.1882 36.2418 43.1711C36.1346 43.1541 35.9122 43.112 35.7476 43.0778C35.5831 43.0435 35.2062 42.9925 34.9101 42.9645C34.6139 42.9365 34.2909 42.9041 34.1921 42.8925C34.0934 42.8809 33.905 42.8957 33.7733 42.9254ZM13.0481 44.1652C13.035 44.4504 13.6162 44.8709 14.0235 44.8709C14.2441 44.8709 14.7891 44.9662 14.9876 45.0396C15.0534 45.0639 15.2015 45.1146 15.3166 45.1521C16.4716 45.5285 17.6231 46.4805 18.3997 47.7007C18.5723 47.9719 18.6516 48.1195 18.9956 48.8102C19.5273 49.8782 21.0601 49.7084 21.0601 48.5814C21.0601 48.1239 20.0989 46.2699 19.6885 45.9356C19.6697 45.9202 19.5695 45.8052 19.466 45.6801L19.278 45.4526L19.518 45.3552C19.6499 45.3016 19.7443 45.245 19.7276 45.2292C19.6872 45.1915 19.2904 45.3479 19.2425 45.4204C19.222 45.4515 19.3077 45.5991 19.4332 45.7483C20.1951 46.6552 21.0014 48.1043 20.9992 48.5626C20.9959 49.2386 20.1625 49.6734 19.5328 49.3278C19.2775 49.1877 19.2636 49.167 18.8058 48.247C17.8695 46.3661 16.1176 45.0682 14.1674 44.8104C13.5876 44.7338 13.2918 44.5686 13.1353 44.2347C13.0769 44.1097 13.0516 44.0896 13.0481 44.1652Z" fill="#5548A7"/>
<path fill-rule="evenodd" clip-rule="evenodd" d="M14.8528 5.57497C14.9433 5.58772 15.0914 5.58772 15.1819 5.57497C15.2723 5.56208 15.1983 5.55157 15.0173 5.55157C14.8364 5.55157 14.7623 5.56208 14.8528 5.57497ZM40.789 5.57539C40.8965 5.58786 41.058 5.58758 41.1479 5.57483C41.2378 5.56208 41.1499 5.55185 40.9524 5.55213C40.755 5.55241 40.6814 5.56292 40.789 5.57539ZM44.946 9.03692C44.9466 9.16019 44.9589 9.20404 44.9733 9.13428C44.9876 9.06466 44.987 8.96379 44.9721 8.91014C44.9571 8.85663 44.9453 8.91364 44.946 9.03692ZM11.029 9.34511C11.029 9.57625 11.0396 9.67081 11.0524 9.55524C11.0654 9.43967 11.0654 9.25055 11.0524 9.13498C11.0396 9.01941 11.029 9.11397 11.029 9.34511ZM44.9449 9.68131C44.9449 9.78918 44.9571 9.83331 44.9722 9.77938C44.9872 9.72544 44.9872 9.63719 44.9722 9.58325C44.9571 9.52932 44.9449 9.57345 44.9449 9.68131ZM22.9003 13.027C22.9747 13.0404 23.0823 13.0399 23.1396 13.0259C23.1968 13.0119 23.1359 13.0008 23.0043 13.0015C22.8726 13.0021 22.8258 13.0135 22.9003 13.027ZM32.8915 13.027C32.9658 13.0404 33.0735 13.0399 33.1308 13.0259C33.1879 13.0119 33.127 13.0008 32.9954 13.0015C32.8638 13.0021 32.817 13.0135 32.8915 13.027ZM7.26597 14.7945L7.09023 14.9766L7.28466 14.812C7.46594 14.6586 7.50662 14.6123 7.46041 14.6123C7.45009 14.6123 7.36259 14.6943 7.26597 14.7945ZM13.0996 18.7449L12.8935 18.955L13.1178 18.762C13.3266 18.5821 13.3697 18.5348 13.3239 18.5348C13.3141 18.5348 13.2131 18.6293 13.0996 18.7449ZM17.4608 18.6512C17.0051 18.6964 16.2789 18.8946 15.8633 19.0873C15.5597 19.228 15.1727 19.4373 15.137 19.4802C15.1205 19.4998 15.0042 19.5879 14.8782 19.6758C13.8935 20.3637 13.0284 21.8617 13.0501 22.8417L13.0571 23.1576L13.107 22.8494C13.4461 20.7602 14.8417 19.294 16.9424 18.82C17.6458 18.6613 38.1986 18.6325 38.9201 18.7893C40.2218 19.0721 41.1742 19.6192 41.8567 20.4762C41.9512 20.5949 42.0422 20.7047 42.0589 20.7201C42.1434 20.7984 42.5655 21.5561 42.6209 21.7293C42.9562 22.7763 42.9541 22.7373 42.9554 28C42.9566 32.7006 42.9403 33.2047 42.7679 33.8041C42.2477 35.6129 40.8673 36.8313 38.8884 37.2283C38.306 37.3451 17.688 37.3444 17.1113 37.2274C14.9319 36.7857 13.4881 35.3595 13.1355 33.2998L13.0587 32.8516L13.051 33.1675C13.0351 33.8013 13.4316 34.7642 14.0106 35.4982C14.2572 35.8109 14.9476 36.4649 15.0315 36.4655C15.0559 36.4656 15.1279 36.5075 15.1914 36.5585C15.5027 36.8082 16.2517 37.1173 17.0215 37.314C17.4682 37.428 38.5347 37.4275 38.9781 37.3133C40.3201 36.968 41.3539 36.3592 41.9397 35.5692C42.0197 35.4614 42.1212 35.3385 42.1651 35.2961C42.2994 35.1666 42.7588 34.2184 42.8741 33.8322C43.0078 33.3845 43.0814 23.4813 42.9569 22.6687C42.8579 22.0218 42.3769 20.8643 42.1238 20.6641C42.1044 20.6487 42.0081 20.5352 41.91 20.4119C41.1413 19.4473 39.841 18.7841 38.4478 18.6467C37.7811 18.5808 18.1266 18.5851 17.4608 18.6512ZM50.9288 19.3473C50.9294 19.4705 50.9416 19.5144 50.956 19.4446C50.9703 19.375 50.9698 19.2741 50.9548 19.2205C50.9398 19.167 50.928 19.224 50.9288 19.3473ZM5.04623 19.5994C5.04623 19.8306 5.05685 19.9251 5.06971 19.8095C5.08272 19.694 5.08272 19.5049 5.06971 19.3893C5.05685 19.2737 5.04623 19.3683 5.04623 19.5994ZM50.9276 19.8796C50.9276 19.9875 50.9398 20.0316 50.9549 19.9776C50.9699 19.9237 50.9699 19.8355 50.9549 19.7815C50.9398 19.7276 50.9276 19.7717 50.9276 19.8796ZM29.7848 20.551C29.2251 20.6475 29.1285 20.803 28.6599 22.3602C28.4538 23.0454 28.2517 23.7067 28.2109 23.83C28.17 23.9533 28.1029 24.1676 28.0613 24.3063C28.0199 24.445 27.9653 24.6215 27.94 24.6985C27.9147 24.7756 27.8609 24.9521 27.8204 25.0908C27.7798 25.2295 27.726 25.406 27.7007 25.483C27.6754 25.5601 27.6216 25.7366 27.581 25.8753C27.5405 26.014 27.4867 26.1905 27.4614 26.2675C27.4361 26.3446 27.3823 26.5211 27.3417 26.6598C27.3012 26.7984 27.2474 26.975 27.2221 27.052C27.1968 27.129 27.143 27.3056 27.1024 27.4442C27.0619 27.5829 27.0081 27.7594 26.9828 27.8365C26.9575 27.9135 26.908 28.0774 26.8727 28.2007C26.8375 28.324 26.7535 28.6014 26.6859 28.8171C26.5257 29.3285 26.5019 29.4064 26.1132 30.6942C25.9319 31.2952 25.731 31.9508 25.667 32.1511C25.603 32.3515 25.5071 32.6667 25.4539 32.8516C25.4006 33.0365 25.3324 33.2697 25.3024 33.3699C25.2723 33.47 25.2233 33.6339 25.1932 33.7341C24.949 34.548 24.9473 34.5581 25.0237 34.7969C25.3326 35.7627 26.7569 35.6943 27.0299 34.7007C27.0722 34.5466 27.1591 34.2566 27.2233 34.0563C27.3274 33.7307 27.8968 31.8592 28.0671 31.2826C28.1036 31.1593 28.1566 30.9954 28.1852 30.9184C28.2136 30.8413 28.2801 30.627 28.3329 30.4421C28.4542 30.0176 28.5307 29.759 28.5981 29.5455C28.6564 29.3609 28.7369 29.0982 28.834 28.7751C28.8688 28.6595 28.9257 28.4704 28.9605 28.3548C28.9952 28.2392 29.0491 28.0627 29.0802 27.9626C29.1111 27.8624 29.162 27.6985 29.1929 27.5983C29.2241 27.4982 29.2794 27.3154 29.316 27.1921C29.3527 27.0688 29.408 26.886 29.4391 26.7858C29.4701 26.6857 29.5202 26.5218 29.5504 26.4216C29.596 26.2705 30.3992 23.6525 30.8871 22.0649C31.1967 21.0577 30.7115 20.3913 29.7848 20.551ZM30.5056 20.7439C30.7319 20.8777 30.9314 21.2055 30.9314 21.4435C30.9314 21.5715 30.6856 22.4481 30.2465 23.8861C30.1618 24.1634 30.0633 24.4912 30.0275 24.6145C29.9918 24.7378 29.9382 24.8825 29.9085 24.936C29.8787 24.9895 29.8545 25.0759 29.8545 25.1281C29.8545 25.2341 29.7481 25.5711 29.6677 25.7205C29.6388 25.774 29.6152 25.8604 29.6152 25.9125C29.6152 26.0186 29.5088 26.3556 29.4284 26.505C29.3995 26.5585 29.3759 26.6641 29.3759 26.7397C29.3759 26.8154 29.3489 26.8929 29.316 26.9119C29.2831 26.931 29.2562 27.0192 29.2562 27.108C29.2562 27.1968 29.2293 27.2851 29.1964 27.3042C29.1635 27.3232 29.1366 27.4115 29.1366 27.5003C29.1366 27.5891 29.1096 27.6773 29.0767 27.6964C29.0438 27.7154 29.0169 27.7758 29.0169 27.8306C29.0169 27.8852 28.9626 28.0919 28.8964 28.2895C28.8301 28.4872 28.7496 28.7372 28.7176 28.8451C28.6855 28.953 28.5899 29.2682 28.5052 29.5455C28.4206 29.8229 28.2987 30.2263 28.2345 30.4421C28.1703 30.6578 28.0754 30.973 28.0238 31.1425C27.8432 31.7341 27.8266 31.7885 27.7598 32.011C27.7227 32.1343 27.6787 32.2982 27.6621 32.3753C27.6455 32.4523 27.6107 32.5658 27.5848 32.6274C27.4793 32.8789 27.4016 33.1466 27.4016 33.2585C27.4016 33.3238 27.3746 33.3929 27.3417 33.4119C27.3088 33.431 27.2819 33.5084 27.2819 33.5841C27.2819 33.6597 27.2583 33.7653 27.2294 33.8189C27.1421 33.9808 27.0426 34.309 27.0426 34.4352C27.0426 34.5005 27.0157 34.5696 26.9828 34.5886C26.9499 34.6077 26.923 34.6762 26.923 34.7408C26.923 35.2316 26.046 35.574 25.5254 35.2863C24.9738 34.9814 24.9762 34.6989 25.5462 32.8516C25.7838 32.0811 26.0009 31.3751 26.0284 31.2826C26.1087 31.0135 26.2004 30.7094 26.2648 30.4981C26.2978 30.3903 26.3535 30.2074 26.3887 30.0919C26.4238 29.9763 26.4663 29.8187 26.4829 29.7417C26.4995 29.6646 26.5344 29.5511 26.5602 29.4895C26.6657 29.238 26.7435 28.9703 26.7435 28.8584C26.7435 28.7931 26.7704 28.7241 26.8033 28.705C26.8362 28.686 26.8631 28.5977 26.8631 28.5089C26.8631 28.4201 26.8869 28.3336 26.9161 28.3168C26.9452 28.2999 26.9834 28.2165 27.0009 28.1314C27.0184 28.0462 27.0604 27.8883 27.0942 27.7804C27.1279 27.6726 27.1854 27.4835 27.2221 27.3602C27.3069 27.0748 27.3938 26.7898 27.4614 26.5757C27.4906 26.4832 27.5429 26.313 27.5776 26.1975C27.6125 26.0819 27.6678 25.8991 27.7007 25.7912C27.7336 25.6834 27.7848 25.5132 27.8145 25.413C27.9336 25.0115 28.3666 23.5821 28.4808 23.2136C28.5477 22.9979 28.6315 22.7205 28.6671 22.5973C28.7025 22.474 28.7523 22.3101 28.7776 22.233C28.8029 22.156 28.8567 21.9795 28.8972 21.8408C29.066 21.2636 29.2131 20.9354 29.3512 20.8281C29.685 20.5687 30.1515 20.5346 30.5056 20.7439ZM21.4754 22.5632C21.1083 22.7869 16.1744 27.4349 16.0971 27.63C16.0169 27.832 16.0169 28.1772 16.0969 28.3792C16.1678 28.5575 21.3007 33.4032 21.5505 33.5276C22.1797 33.8407 23.0342 33.3385 23.0342 32.6554C23.0342 32.2908 22.8617 32.1003 20.7056 30.0815C19.5184 28.9699 18.5471 28.0389 18.5471 28.0126C18.5471 27.9861 19.5169 27.0549 20.7023 25.9432C22.0811 24.6499 22.8891 23.8506 22.9458 23.7237C23.3324 22.8568 22.3136 22.0526 21.4754 22.5632ZM33.5023 22.5184C33.0129 22.7843 32.8273 23.4402 33.1291 23.8372C33.2015 23.9324 34.2039 24.8938 35.3566 25.9736C36.5094 27.0534 37.4525 27.9689 37.4525 28.0079C37.4525 28.047 36.4965 28.9764 35.3279 30.0731C32.8722 32.3779 32.9965 32.2387 32.9959 32.6878C32.995 33.3739 33.7821 33.8483 34.4202 33.5461C34.6061 33.4581 39.7758 28.6243 39.8794 28.4417C39.9811 28.2623 39.9927 27.7678 39.8992 27.5947C39.7776 27.3694 34.6199 22.5663 34.409 22.4818C34.1251 22.3682 33.7509 22.3833 33.5023 22.5184ZM22.4126 22.5726C22.6845 22.7158 22.8231 22.872 22.9192 23.1436C23.0762 23.5875 23.0378 23.6339 20.6436 25.8917C19.4413 27.0257 18.4489 27.9761 18.4386 28.0039C18.4282 28.0318 19.4021 28.9726 20.6028 30.0947C23.12 32.447 23.1383 32.471 22.849 33.0307C22.6336 33.4474 22.1024 33.6537 21.676 33.4863C21.4322 33.3905 16.2857 28.5785 16.1804 28.3479C16.0712 28.1085 16.0712 27.9009 16.1802 27.6612C16.2786 27.4448 21.4205 22.6254 21.6582 22.5268C21.8922 22.4297 22.1731 22.4468 22.4126 22.5726ZM34.3237 22.5233C34.5322 22.6058 39.698 27.4117 39.818 27.6349C39.9294 27.8422 39.9301 28.1908 39.8196 28.3856C39.7197 28.5616 34.5566 33.3797 34.3572 33.4828C33.8991 33.72 33.2419 33.4136 33.0878 32.8911C32.9492 32.4207 32.9595 32.4082 35.3631 30.1577C36.5782 29.0201 37.5722 28.0517 37.5722 28.0058C37.5722 27.96 36.5779 26.9891 35.3625 25.8482C33.8728 24.45 33.1393 23.7227 33.1115 23.6165C32.9232 22.8956 33.6372 22.2518 34.3237 22.5233ZM13.0118 28.0046C13.0118 30.5471 13.0191 31.5873 13.0281 30.316C13.0371 29.0447 13.0371 26.9644 13.0281 25.6932C13.0191 24.4219 13.0118 25.462 13.0118 28.0046ZM4.68113 30.358C4.68113 30.4659 4.6934 30.51 4.7085 30.4561C4.72346 30.4022 4.72346 30.3139 4.7085 30.26C4.6934 30.206 4.68113 30.2502 4.68113 30.358ZM4.33443 31.0445L4.15869 31.2266L4.35313 31.062C4.53441 30.9086 4.57509 30.8623 4.52887 30.8623C4.51855 30.8623 4.43106 30.9443 4.33443 31.0445ZM48.9557 42.2934C48.9557 42.4321 48.9673 42.4888 48.9815 42.4194C48.9959 42.3501 48.9959 42.2366 48.9815 42.1673C48.9673 42.098 48.9557 42.1547 48.9557 42.2934ZM21.6731 43.006C21.7636 43.0187 21.9117 43.0187 22.0022 43.006C22.0926 42.9931 22.0186 42.9826 21.8376 42.9826C21.6567 42.9826 21.5826 42.9931 21.6731 43.006ZM34.0285 43.0064C34.136 43.0189 34.2976 43.0186 34.3874 43.0059C34.4773 42.9931 34.3894 42.9829 34.192 42.9832C33.9945 42.9834 33.9209 42.9939 34.0285 43.0064ZM21.7928 44.7976C21.8503 44.8116 21.9446 44.8116 22.0022 44.7976C22.0597 44.7834 22.0126 44.7719 21.8975 44.7719C21.7823 44.7719 21.7352 44.7834 21.7928 44.7976ZM33.9975 44.7976C34.0551 44.8116 34.1493 44.8116 34.2069 44.7976C34.2645 44.7834 34.2174 44.7719 34.1022 44.7719C33.987 44.7719 33.9399 44.7834 33.9975 44.7976ZM28.971 47.9529C28.971 48.0607 28.9832 48.1048 28.9984 48.0509C29.0133 47.997 29.0133 47.9087 28.9984 47.8548C28.9832 47.8009 28.971 47.845 28.971 47.9529ZM35.0147 48.5412C35.0153 48.6645 35.0276 48.7083 35.042 48.6386C35.0563 48.569 35.0557 48.4681 35.0408 48.4144C35.0258 48.3609 35.014 48.4179 35.0147 48.5412Z" fill="#3C785B"/>
<path fill-rule="evenodd" clip-rule="evenodd" d="M21.1799 2.00128C19.4649 2.24153 17.9423 3.47331 17.3421 5.10601C17.1496 5.62937 16.4111 5.97735 15.9659 5.75433C15.8077 5.67504 14.2443 5.6763 14.1593 5.75587C14.1246 5.78837 14.0341 5.81485 13.958 5.81485C13.8819 5.81485 13.7728 5.83726 13.7157 5.86472C13.6586 5.89218 13.4771 5.97385 13.3126 6.04613C13.1481 6.11841 13 6.19168 12.9836 6.20905C12.9671 6.22628 12.8594 6.30081 12.7442 6.37435C12.4976 6.53209 11.91 7.05601 11.908 7.12003C11.9073 7.14441 11.8528 7.21851 11.787 7.28463C11.7212 7.35075 11.6674 7.43803 11.6674 7.47837C11.6674 7.51886 11.6436 7.55192 11.6146 7.55192C11.5854 7.55192 11.5477 7.59604 11.5308 7.64998C11.5138 7.70391 11.4264 7.92455 11.3365 8.14028C11.0081 8.92952 11.108 10.2648 11.5508 11.0034C11.6087 11.0999 11.6923 11.239 11.7365 11.3125C11.7807 11.3861 11.834 11.4589 11.8549 11.4743C11.9835 11.5694 12.146 11.958 12.146 12.1711C12.146 13.0988 10.8712 13.5071 10.2614 12.7749C9.88137 12.3185 9.8362 12.2868 9.66719 12.359C9.57969 12.3964 9.4554 12.4269 9.39108 12.4269C9.32692 12.4269 9.27427 12.4521 9.27427 12.4829C9.27427 12.5138 9.1935 12.539 9.09479 12.539C8.99607 12.539 8.91531 12.5642 8.91531 12.595C8.91531 12.6258 8.87492 12.6511 8.82557 12.6511C8.77621 12.6511 8.73583 12.6763 8.73583 12.7071C8.73583 12.7379 8.68363 12.7631 8.61976 12.7631C8.5559 12.7631 8.48694 12.7883 8.4666 12.8192C8.44626 12.85 8.37731 12.8752 8.31345 12.8752C8.24958 12.8752 8.19738 12.9046 8.19738 12.9406C8.19738 12.9765 8.18078 12.9903 8.16029 12.9713C8.03495 12.8538 7.94955 13.1097 8.04198 13.3261C8.27516 13.872 8.17076 14.1007 7.33901 14.8658C5.6812 16.3908 4.75358 18.8314 5.19944 20.4959C5.4552 21.451 5.41766 21.6748 4.91556 22.1867C4.75462 22.3509 4.54553 22.5734 4.45085 22.6812C4.35617 22.7891 4.25851 22.8857 4.23383 22.896C4.20915 22.9063 4.18896 22.9395 4.18896 22.9699C4.18896 23.0003 4.11327 23.1306 4.02069 23.2595C2.74981 25.0281 2.94724 28.0901 4.42841 29.5861C4.94084 30.1037 4.87577 30.7653 4.26628 31.2331C3.64468 31.7101 3.04267 32.4396 2.69941 33.1317C2.62298 33.2857 2.53653 33.4557 2.50721 33.5092C2.4779 33.5627 2.45397 33.6557 2.45397 33.716C2.45397 33.7762 2.43004 33.8394 2.40072 33.8563C2.16904 33.9904 2.0802 35.9953 2.27867 36.6097C2.30933 36.7044 2.33431 36.8353 2.33431 36.9007C2.33431 36.966 2.36123 37.035 2.39414 37.0541C2.42704 37.0731 2.45397 37.138 2.45397 37.1982C2.45397 37.2584 2.47865 37.3515 2.50871 37.405C2.53877 37.4585 2.63524 37.6525 2.72304 37.836C3.09352 38.61 3.75057 39.3718 4.49123 39.886C4.88849 40.1619 5.12047 40.2902 5.80354 40.6123C5.8689 40.6431 5.97495 40.6683 6.03926 40.6683C6.10358 40.6683 6.17283 40.6935 6.19317 40.7243C6.21351 40.7551 6.26945 40.7804 6.31761 40.7804C6.81926 40.7804 7.08265 41.2609 7.13141 42.2653C7.17792 43.2244 7.22818 43.6429 7.30581 43.7194C7.33542 43.7486 7.3598 43.8295 7.3598 43.8988C7.3598 43.9683 7.39001 44.0956 7.42711 44.1818C7.46405 44.2681 7.5143 44.389 7.53883 44.4506C8.1045 45.8773 9.30478 47.1102 10.7999 47.8004C10.9315 47.861 11.086 47.9329 11.1431 47.9598C11.2003 47.9868 11.2878 48.0088 11.3376 48.0088C11.3874 48.0088 11.4281 48.034 11.4281 48.0648C11.4281 48.0957 11.5072 48.1209 11.6039 48.1209C11.7007 48.1209 11.7966 48.1461 11.8169 48.1769C11.8373 48.2077 11.911 48.2329 11.9807 48.2329C12.1183 48.2329 12.4221 48.317 12.7279 48.4397C13.0292 48.5605 13.4023 49.1407 13.4023 49.4883C13.4023 49.5929 13.6206 50.1037 13.8355 50.5023C13.9353 50.6873 14.0468 50.8951 14.0835 50.9642C14.1201 51.0333 14.1704 51.09 14.1951 51.0903C14.2197 51.0906 14.2399 51.1238 14.2399 51.1642C14.2399 51.2046 14.287 51.2865 14.3446 51.3464C14.4022 51.4062 14.528 51.5535 14.624 51.6739C14.8404 51.9449 15.4308 52.4962 15.725 52.702C15.846 52.7866 15.9802 52.8869 16.0232 52.925C16.489 53.3374 18.0239 53.8948 19.1319 54.0541C21.7143 54.4252 24.835 53.0069 25.9803 50.9418C26.2166 50.5156 26.3472 50.2657 26.4003 50.1381C26.4324 50.0611 26.4824 49.9542 26.5115 49.9007C26.5406 49.8472 26.5643 49.7541 26.5643 49.6939C26.5643 49.6337 26.5881 49.5706 26.6173 49.5538C26.6465 49.5369 26.6877 49.4409 26.7093 49.3403C26.7308 49.2397 26.776 49.0314 26.8098 48.8773C26.8436 48.7232 26.8835 48.3702 26.8985 48.0929C26.9568 47.0145 27.4695 46.4698 28.2429 46.6648C28.5165 46.7339 28.9574 47.0762 28.9574 47.2197C28.9574 47.2715 28.9826 47.3379 29.0134 47.3672C29.0442 47.3965 29.0817 47.6726 29.0967 47.9808C29.1118 48.289 29.155 48.6798 29.1928 48.8493C29.2307 49.0188 29.2769 49.2397 29.2956 49.3402C29.3143 49.4406 29.3536 49.5366 29.3828 49.5535C29.4121 49.5705 29.436 49.6337 29.436 49.6939C29.436 49.7541 29.4598 49.8472 29.4888 49.9007C29.518 49.9542 29.5719 50.0674 29.6085 50.1521C29.7546 50.4889 29.8281 50.6239 29.9877 50.8486C30.079 50.9775 30.154 51.0999 30.154 51.1208C30.154 51.1416 30.3266 51.3655 30.5373 51.6185C32.574 54.0612 36.1015 54.7972 39.1032 53.4058C39.911 53.0313 40.7513 52.4107 41.2385 51.829C41.3774 51.663 41.5195 51.4982 41.5539 51.4629C41.7017 51.3118 41.9896 50.8661 42.1742 50.5023C42.4441 49.9706 42.4564 49.9417 42.6001 49.4937C42.8691 48.655 43.1338 48.345 43.5808 48.345C43.6616 48.345 43.7443 48.3198 43.7647 48.289C43.785 48.2582 43.8587 48.2329 43.9284 48.2329C44.2885 48.2329 45.2852 47.8193 46.0082 47.3699C47.1015 46.6903 48.1636 45.3945 48.5315 44.2916C48.7777 43.5535 48.825 43.2746 48.87 42.2933C48.9176 41.2562 49.1745 40.7804 49.6871 40.7804C49.7377 40.7804 49.8256 40.7581 49.8827 40.7309C49.9399 40.7036 50.0675 40.6502 50.1662 40.612C52.629 39.6604 54.1596 37.233 53.807 34.8382C53.6852 34.0111 53.6598 33.8911 53.5997 33.8563C53.5704 33.8394 53.5464 33.7762 53.5464 33.716C53.5464 33.6557 53.5217 33.5627 53.4915 33.5092C53.4613 33.4557 53.3779 33.2857 53.3061 33.1317C53.0078 32.4917 52.2528 31.5844 51.6918 31.192C51.0941 30.7739 51.0751 30.072 51.6463 29.5121C51.7371 29.4231 51.8114 29.3357 51.8114 29.3179C51.8114 29.3 51.8871 29.1801 51.9797 29.0512C52.4879 28.3441 52.8861 27.0844 52.8862 26.1834C52.8862 25.5251 52.547 24.0889 52.344 23.8888C52.3143 23.8595 52.29 23.7901 52.29 23.7347C52.29 23.6792 52.2663 23.6338 52.2372 23.6338C52.2081 23.6338 52.1684 23.5897 52.1492 23.5357C52.034 23.2155 51.6592 22.7464 50.9741 22.0651C50.6429 21.7356 50.5953 21.4882 50.7375 20.8321C51.3466 18.0225 49.7552 15.014 47.0253 13.8139C46.1041 13.4091 46.0021 13.3792 44.8106 13.1688C43.8767 13.0038 43.5539 12.1246 44.1782 11.4463C44.2633 11.3539 44.3329 11.2467 44.333 11.2082C44.333 11.1696 44.3599 11.1381 44.3929 11.1381C44.4258 11.1381 44.4527 11.101 44.4527 11.0558C44.4527 11.0105 44.5065 10.8836 44.5723 10.7739C44.6381 10.6642 44.692 10.5262 44.692 10.4672C44.692 10.4084 44.7189 10.3447 44.7518 10.3256C44.7847 10.3066 44.8116 10.2154 44.8116 10.1231C44.8116 10.0306 44.8425 9.84036 44.8801 9.70014C44.9515 9.43453 44.8665 8.5901 44.747 8.37913C44.7168 8.32561 44.692 8.24338 44.692 8.19631C44.692 8.14924 44.6682 8.06701 44.6392 8.0135C44.61 7.95999 44.5496 7.84049 44.5046 7.74804C44.4597 7.65558 44.4095 7.56733 44.3929 7.55192C44.3763 7.53651 44.3224 7.44923 44.273 7.35804C44.068 6.9784 43.2377 6.28554 42.7177 6.06C42.5367 5.98141 42.3418 5.89414 42.2847 5.86598C42.2276 5.83782 42.1185 5.81485 42.0424 5.81485C41.9663 5.81485 41.8758 5.78837 41.8411 5.75587C41.7561 5.6763 40.1927 5.67504 40.0344 5.75433C39.5443 6.00004 38.8497 5.61845 38.6123 4.97293C38.3228 4.18593 37.7372 3.44501 36.9101 2.8191C35.431 1.69996 32.7777 1.68062 31.1411 2.77722C30.7458 3.04212 29.9147 3.83151 29.9147 3.94204C29.9147 3.95941 29.8339 4.08352 29.7352 4.21787C29.6365 4.35221 29.5557 4.48837 29.5557 4.52045C29.5557 4.55253 29.5019 4.66852 29.436 4.77821C29.3702 4.8879 29.3164 5.02588 29.3164 5.08486C29.3164 5.14369 29.2931 5.20533 29.2645 5.22186C29.2017 5.25829 29.1386 5.62461 29.0852 6.26312C29.0388 6.81871 28.9111 7.10154 28.6097 7.31699C28.1631 7.63597 27.3433 7.47669 27.1171 7.02701C26.9466 6.688 26.9258 6.60704 26.8994 6.17907C26.8639 5.60738 26.8054 5.26221 26.7375 5.22284C26.7081 5.20575 26.684 5.14369 26.684 5.08486C26.684 5.02588 26.6301 4.8879 26.5643 4.77821C26.4985 4.66852 26.4447 4.55799 26.4447 4.53278C26.4447 4.28889 25.4948 3.21331 24.9153 2.80103C24.015 2.16042 22.4445 1.82407 21.1799 2.00128ZM19.1911 8.47761C19.3311 8.4989 19.4606 8.53882 19.4787 8.56642C19.4969 8.59402 19.5856 8.61657 19.6758 8.61657C19.766 8.61657 19.8653 8.63744 19.8966 8.6628C19.9279 8.6883 20.0746 8.74419 20.2227 8.78706C20.7095 8.92812 21.5409 9.35945 22.1624 9.7933C23.1066 10.4524 24.0516 11.6309 24.0516 12.149C24.0516 13.205 22.7342 13.463 22.0599 12.539C21.6524 11.9805 20.8055 11.2545 20.2227 10.9641C20.0746 10.8903 19.9445 10.811 19.9335 10.7879C19.9225 10.7648 19.8751 10.7459 19.8279 10.7459C19.781 10.7459 19.689 10.7207 19.6236 10.6898C19.5583 10.659 19.4512 10.6086 19.3858 10.5778C19.3205 10.547 19.201 10.5217 19.1202 10.5217C19.0394 10.5217 18.9588 10.4997 18.9412 10.473C18.9235 10.4461 18.7805 10.4083 18.6235 10.3889C17.8312 10.2912 17.6647 10.2573 17.4847 10.157C16.8563 9.8073 16.8258 8.91257 17.4289 8.52019C17.6276 8.39075 18.4856 8.37002 19.1911 8.47761ZM38.5575 8.51851C39.4375 9.05868 39.0412 10.2021 37.9315 10.3244C37.2674 10.3975 37.1226 10.4221 37.067 10.4715C37.0357 10.4991 36.948 10.5217 36.8718 10.5217C36.7957 10.5217 36.6867 10.544 36.6295 10.5713C36.5269 10.6204 35.8744 10.9263 35.6137 11.0476C35.5399 11.0819 35.4793 11.129 35.479 11.1521C35.4787 11.1752 35.4518 11.1942 35.4192 11.1942C35.287 11.1942 34.3389 12.0407 34.1012 12.3709C33.6721 12.9671 33.2059 13.2099 32.7384 13.0807C32.4428 12.9989 32.0716 12.7233 32.0698 12.5844C32.069 12.5323 32.0415 12.474 32.0086 12.4549C31.8994 12.3918 31.9415 11.8824 32.0743 11.6581C32.7394 10.5359 34.2629 9.33073 35.6282 8.84687C35.8256 8.77697 36.0339 8.69642 36.0911 8.66812C36.1482 8.63983 36.261 8.61657 36.3418 8.61657C36.4225 8.61657 36.5052 8.59136 36.5256 8.56054C36.5459 8.52972 36.6485 8.50268 36.7535 8.50058C36.8585 8.49834 36.9982 8.47494 37.064 8.44847C37.3398 8.33738 38.3388 8.38431 38.5575 8.51851ZM39.3374 16.8459C39.4691 16.8861 39.6844 16.9447 39.8161 16.9759C39.9477 17.0072 40.1022 17.0554 40.1593 17.0832C40.2165 17.1111 40.2908 17.1338 40.3244 17.1338C40.394 17.1338 40.836 17.312 41.1921 17.4835C41.3237 17.5469 41.4918 17.6265 41.5656 17.6605C41.6393 17.6944 41.6999 17.7411 41.7002 17.7642C41.7005 17.7873 41.7359 17.8062 41.7792 17.8062C41.8222 17.8062 41.9097 17.8504 41.9736 17.9043C42.0375 17.9582 42.1973 18.0767 42.3288 18.1678C42.8797 18.5487 44.0339 19.8163 44.0339 20.0405C44.0339 20.07 44.0541 20.1027 44.0788 20.113C44.1425 20.1395 44.5125 20.8321 44.5125 20.9248C44.5125 20.9671 44.5363 21.0454 44.5653 21.0989C44.6687 21.2892 44.7433 21.4787 44.7802 21.6446C44.8007 21.737 44.8496 21.9388 44.8887 22.0929C44.9904 22.4936 44.9904 33.5153 44.8887 33.9161C44.8496 34.0702 44.8007 34.2719 44.7802 34.3644C44.7596 34.4569 44.7206 34.5829 44.6935 34.6446C44.6664 34.7062 44.6118 34.8449 44.572 34.9528C44.4708 35.2278 44.1334 35.8736 44.0791 35.896C44.0542 35.9063 44.0339 35.9402 44.0339 35.9713C44.0339 36.1991 42.8783 37.4677 42.3288 37.8432C42.1973 37.9331 42.0375 38.0508 41.9736 38.1047C41.9097 38.1586 41.8222 38.2028 41.7792 38.2028C41.7359 38.2028 41.7006 38.225 41.7006 38.2522C41.7006 38.2795 41.6535 38.3162 41.5959 38.3339C41.5383 38.3515 41.3761 38.4301 41.2353 38.5084C41.0946 38.5869 40.9398 38.651 40.8913 38.651C40.8429 38.651 40.8032 38.6716 40.8032 38.697C40.8032 38.7222 40.667 38.7777 40.5003 38.8201C40.3337 38.8626 40.184 38.9176 40.1677 38.9423C40.1514 38.9671 40.0739 38.9873 39.9956 38.9873C39.9172 38.9873 39.8382 39.0098 39.82 39.0374C39.7848 39.0906 39.6617 39.111 38.7846 39.2089C37.9242 39.305 16.985 39.2617 16.6629 39.1631C16.5313 39.1229 16.3159 39.0639 16.1843 39.0322C16.0527 39.0004 15.8844 38.9521 15.8104 38.9248C15.7364 38.8975 15.6152 38.8536 15.5412 38.8271C15.4671 38.8007 15.2896 38.725 15.1466 38.659C15.0036 38.5931 14.8605 38.539 14.8283 38.539C14.7963 38.539 14.6526 38.4633 14.5092 38.3709C14.3657 38.2784 14.2332 38.2028 14.2148 38.2028C14.0636 38.2028 12.5049 36.8725 12.5049 36.7435C12.5049 36.7184 12.4699 36.6645 12.4273 36.6239C12.2994 36.5018 11.9665 36.0295 11.9665 35.9699C11.9665 35.9395 11.9462 35.9063 11.9213 35.896C11.867 35.8736 11.5296 35.2278 11.4284 34.9528C11.3886 34.8449 11.3347 34.7062 11.3087 34.6446C11.2825 34.5829 11.2281 34.3812 11.1877 34.1963C11.1473 34.0114 11.0909 33.7718 11.0622 33.664C10.9843 33.3716 10.9943 22.6243 11.0728 22.2998C11.2225 21.6799 11.2685 21.5144 11.3793 21.1963C11.5082 20.8259 11.8503 20.1424 11.9213 20.113C11.9462 20.1027 11.9665 20.0695 11.9665 20.0391C11.9665 19.9883 12.2478 19.5804 12.4234 19.3764C13.1035 18.5865 14.1898 17.6942 14.4716 17.6942C14.5087 17.6942 14.5391 17.6731 14.5391 17.6476C14.5391 17.622 14.5996 17.5748 14.6737 17.5426C15.0262 17.3896 15.4181 17.2277 15.5262 17.1903C15.592 17.1674 15.7132 17.1237 15.7954 17.093C16.1441 16.963 16.8029 16.8242 17.2911 16.7779C17.976 16.7127 39.1158 16.778 39.3374 16.8459ZM15.0518 43.0252C15.1529 43.0541 15.2926 43.0778 15.3624 43.0778C15.4321 43.0778 15.5059 43.103 15.5262 43.1338C15.5466 43.1646 15.6293 43.1898 15.71 43.1898C15.7908 43.1898 15.9036 43.213 15.9607 43.2413C16.1206 43.3205 16.6278 43.526 16.6632 43.526C16.6807 43.526 16.897 43.6411 17.1442 43.7816C17.6182 44.0509 17.6999 44.0591 18.009 43.8665C18.1576 43.7739 18.6196 43.5628 18.9065 43.4564C18.9887 43.4259 19.1028 43.3787 19.16 43.3514C19.2171 43.3242 19.3164 43.3019 19.3807 43.3019C19.445 43.3019 19.5125 43.2795 19.5306 43.252C19.5487 43.2247 19.6512 43.1882 19.7584 43.1711C19.8656 43.154 20.088 43.112 20.2526 43.0778C21.9389 42.727 22.9291 42.9422 23.0564 43.6874C23.1732 44.3719 22.6813 44.8696 21.8853 44.872C21.6782 44.8726 21.2936 44.9087 21.0303 44.9524C20.6003 45.0236 20.4424 45.0586 19.9235 45.1987C19.8413 45.2208 19.6624 45.2871 19.526 45.3458L19.2781 45.4525L19.4661 45.68C19.5696 45.8051 19.6698 45.9201 19.6887 45.9355C20.0991 46.2698 21.0602 48.1238 21.0602 48.5813C21.0602 49.7083 19.5275 49.8781 18.9957 48.8101C18.6517 48.1195 18.5725 47.9718 18.3999 47.7006C17.6233 46.4805 16.4718 45.5284 15.3168 45.152C15.2017 45.1145 15.0536 45.0638 14.9878 45.0395C14.7893 44.9661 14.2443 44.8709 14.0237 44.8709C13.5604 44.8709 13.0924 44.49 13.0157 44.0507C12.8584 43.1488 13.809 42.6701 15.0518 43.0252ZM34.9102 42.9644C35.2064 42.9925 35.5833 43.0434 35.7478 43.0778C35.9123 43.112 36.1348 43.154 36.242 43.1711C36.3492 43.1882 36.4517 43.2247 36.4698 43.252C36.4879 43.2795 36.5553 43.3019 36.6196 43.3019C36.684 43.3019 36.7833 43.3242 36.8404 43.3514C36.8975 43.3787 37.0117 43.4257 37.0939 43.4561C37.1762 43.4865 37.503 43.6329 37.8202 43.7813C38.3813 44.0439 38.4012 44.0487 38.5494 43.9578C38.9942 43.6848 39.564 43.414 39.6936 43.414C39.7444 43.414 39.7862 43.3942 39.7862 43.3701C39.7862 43.346 39.914 43.2935 40.0703 43.2534C40.2266 43.2132 40.4084 43.1593 40.4742 43.1334C40.6369 43.0692 40.8774 43.0236 41.3584 42.9653C41.5816 42.9382 41.8104 42.9101 41.8669 42.9027C42.0189 42.8829 42.4784 42.9689 42.4784 43.0173C42.4784 43.0401 42.5454 43.0925 42.6273 43.1335C42.9483 43.2943 43.1088 43.8886 42.9344 44.2703C42.7509 44.672 42.457 44.8154 41.581 44.9307C41.3013 44.9675 41.0455 45.015 41.0126 45.0363C40.9797 45.0575 40.8316 45.1097 40.6836 45.1523C40.422 45.2277 40.3334 45.2676 39.8032 45.5493C39.0552 45.9467 37.5127 47.523 37.5127 47.8899C37.5127 47.9193 37.4925 47.9518 37.4678 47.9622C37.4245 47.9801 37.3504 48.1157 37.0046 48.8104C36.3615 50.1018 34.5604 49.5143 35.0273 48.1654C35.2508 47.5198 35.8746 46.4697 36.423 45.8162L36.7266 45.4542L36.4765 45.3466C36.3389 45.2875 36.1591 45.2208 36.0769 45.1987C35.558 45.0586 35.4001 45.0236 34.9701 44.9524C34.7068 44.9087 34.3317 44.8726 34.1364 44.872C33.4235 44.8698 32.9488 44.482 32.9488 43.9022C32.9488 43.278 33.5209 42.8133 34.1923 42.8924C34.291 42.9041 34.6141 42.9364 34.9102 42.9644Z" fill="#6454DC"/>
</svg>
