<svg width="1140" height="746" viewBox="0 0 1140 746" fill="none" xmlns="http://www.w3.org/2000/svg">
<g clip-path="url(#clip0_1126_11395)">
<path d="M564.139 126.821C583.239 126.821 598.722 111.345 598.722 92.2558C598.722 73.1661 583.239 57.6909 564.139 57.6909C545.039 57.6909 529.556 73.1661 529.556 92.2558C529.556 111.345 545.039 126.821 564.139 126.821Z" fill="#FD6584"/>
<path d="M641.539 75.8891C640.563 72.6928 638.674 69.8514 636.104 67.7146C633.533 65.5778 630.393 64.239 627.071 63.863C626.994 63.8565 626.916 63.8565 626.838 63.863C626.745 63.8339 626.65 63.8122 626.553 63.7982C614.974 62.2966 602.099 65.9471 593.434 73.8955C590.218 76.7997 587.645 80.3452 585.883 84.3035C584.277 82.1107 582.16 80.3422 579.716 79.1512C577.272 77.9602 574.574 77.3826 571.856 77.4684C568.351 77.7 565.003 79.0065 562.267 81.2096C559.532 83.4127 557.544 86.4053 556.572 89.7794C556.466 90.1916 556.495 90.6273 556.656 91.0215C556.817 91.4157 557.101 91.7474 557.466 91.9671C558.508 92.8576 559.746 93.4877 561.08 93.8054C563.942 94.4138 566.831 94.9704 569.719 95.4753C575.366 96.4592 581.043 97.2574 586.751 97.8702C590.52 98.2715 594.298 98.5908 598.084 98.8281C605.907 99.3201 613.769 99.4366 621.605 99.1906C625.491 99.0611 629.221 98.9317 632.77 97.2229C635.356 95.9518 637.566 94.0287 639.182 91.6435C640.702 89.3492 641.702 86.7496 642.109 84.0277C642.516 81.3058 642.321 78.5277 641.539 75.8891Z" fill="#E6E6E6"/>
<path d="M570.393 126.246C570.327 124.798 570.083 123.363 569.667 121.974C568.687 118.778 566.795 115.938 564.223 113.801C561.65 111.665 558.51 110.326 555.187 109.948C555.113 109.941 555.04 109.941 554.966 109.948C554.869 109.92 554.769 109.899 554.669 109.883C548.26 109.099 541.757 109.767 535.642 111.838C526.238 114.984 517.988 121.327 514.012 130.389C512.404 128.194 510.285 126.425 507.838 125.234C505.392 124.043 502.691 123.466 499.971 123.553C496.466 123.785 493.118 125.091 490.383 127.295C487.648 129.498 485.659 132.49 484.688 135.864C484.587 136.277 484.619 136.71 484.78 137.103C484.94 137.496 485.221 137.828 485.582 138.052C486.625 138.94 487.863 139.57 489.195 139.89C492.071 140.499 494.946 141.055 497.847 141.56C503.494 142.544 509.168 143.342 514.866 143.955C526.445 145.197 538.095 145.639 549.734 145.276C553.606 145.146 557.35 145.017 560.899 143.308C563.481 142.036 565.686 140.113 567.297 137.729C569.567 134.347 570.656 130.31 570.393 126.246Z" fill="#E6E6E6"/>
<path d="M1020.8 545.658C1021.3 569.226 1018.05 592.722 1011.16 615.269C1010.92 616.088 1010.63 616.906 1010.34 617.726H868.447C870.475 607.742 873.696 598.038 878.039 588.822C889.847 563.771 909.127 542.334 928.166 521.042C954.386 491.704 979.979 462.608 984.028 424.455C994.422 440.29 1002.72 457.406 1008.71 475.374C1001.37 478.089 994.643 482.213 988.896 487.513C987.306 489.007 985.619 491.174 986.438 493.246C987.209 494.98 989.33 495.558 991.21 495.944C995.741 496.811 1000.27 497.678 1004.8 498.497C1008.37 499.219 1011.98 499.894 1015.6 500.568C1018.78 515.397 1020.52 530.496 1020.8 545.658Z" fill="#F2F2F2"/>
<path d="M1140 530.05C1117.25 543.876 1102.79 565.264 1090.98 589.206C1080.71 591.547 1071.22 596.529 1063.46 603.658C1061.82 605.152 1060.13 607.32 1061 609.391C1061.73 611.125 1063.89 611.704 1065.77 612.089C1070.26 612.956 1074.83 613.823 1079.32 614.642C1078.88 615.654 1078.45 616.713 1078.02 617.725H927.635C934.462 608.523 942.022 599.888 950.241 591.904C952.024 590.122 953.856 588.436 955.736 586.702C974.905 569.386 996.917 555.502 1020.8 545.658C1058.44 529.935 1099.59 524.546 1140 530.05Z" fill="#F2F2F2"/>
<path d="M952.699 617.725H818.802C818.071 607.009 818.135 596.253 818.995 585.546C824.345 519.404 860.35 456.393 914.67 418.24C907.729 442.953 911.296 467.521 918.526 492.186C917.514 492.523 916.501 492.812 915.586 493.197C908.253 495.912 901.523 500.037 895.776 505.337C894.185 506.83 892.498 508.998 893.318 511.07C894.041 512.804 896.21 513.382 898.089 513.767C902.62 514.634 907.151 515.501 911.633 516.321C915.248 517.043 918.863 517.718 922.478 518.44C924.165 518.729 925.852 519.066 927.539 519.403C927.78 519.982 927.925 520.512 928.165 521.042C936.649 544.405 945.903 567.962 950.241 591.904C951.314 597.913 952.055 603.976 952.458 610.065C952.602 612.619 952.699 615.172 952.699 617.725Z" fill="#F2F2F2"/>
<path d="M222.949 545.658C223.446 569.226 220.192 592.722 213.309 615.269C213.068 616.088 212.779 616.906 212.49 617.726H70.592C72.6205 607.742 75.8408 598.038 80.1839 588.822C91.9924 563.771 111.272 542.334 130.311 521.042C156.531 491.704 182.125 462.608 186.173 424.455C196.567 440.29 204.862 457.406 210.851 475.374C203.518 478.089 196.788 482.213 191.041 487.513C189.451 489.007 187.764 491.174 188.583 493.246C189.354 494.98 191.475 495.558 193.355 495.944C197.886 496.811 202.416 497.678 206.947 498.497C210.514 499.219 214.129 499.894 217.744 500.568C220.921 515.397 222.664 530.496 222.949 545.658Z" fill="#F2F2F2"/>
<path d="M342.145 530.05C319.395 543.876 304.935 565.264 293.127 589.206C282.851 591.547 273.364 596.529 265.605 603.658C263.966 605.152 262.279 607.32 263.147 609.391C263.87 611.125 266.039 611.704 267.919 612.089C272.401 612.956 276.98 613.823 281.462 614.642C281.029 615.654 280.595 616.713 280.161 617.725H129.781C136.607 608.523 144.167 599.888 152.386 591.904C154.169 590.122 156.001 588.436 157.881 586.702C177.05 569.386 199.062 555.502 222.949 545.658C260.58 529.935 301.731 524.546 342.145 530.05Z" fill="#F2F2F2"/>
<path d="M154.844 617.725H20.9473C20.2162 607.009 20.2807 596.253 21.1403 585.546C26.4904 519.404 62.4948 456.393 116.815 418.24C109.874 442.953 113.441 467.521 120.671 492.186C119.659 492.523 118.647 492.812 117.731 493.197C110.398 495.912 103.668 500.037 97.9213 505.337C96.3306 506.83 94.6438 508.998 95.4631 511.07C96.1859 512.804 98.3549 513.382 100.235 513.767C104.765 514.634 109.296 515.501 113.779 516.321C117.394 517.043 121.008 517.718 124.623 518.44C126.31 518.729 127.997 519.066 129.684 519.403C129.925 519.982 130.07 520.512 130.311 521.042C138.794 544.405 148.048 567.962 152.386 591.904C153.46 597.913 154.2 603.976 154.603 610.065C154.748 612.619 154.844 615.172 154.844 617.725Z" fill="#F2F2F2"/>
<path d="M653.321 561.54L772.961 572.155L774.243 572.272V62.0467C773.815 61.7489 773.388 61.4512 772.961 61.1534C748.027 43.7222 721.054 29.4022 692.644 18.5117L686.531 102.785L685.974 110.501L679.925 194.075L678.06 219.785L653.541 558.563L653.321 561.54Z" fill="#E6E6E6"/>
<path d="M357.454 52.545C356.6 53.0887 355.745 53.6324 354.89 54.202V572.272L357.454 572.039L475.798 561.54L475.578 558.563L451.06 219.785L449.195 194.076L443.146 110.501L442.589 102.786L436.178 14.4082C408.529 23.9869 382.106 36.7873 357.454 52.545Z" fill="#E6E6E6"/>
<path d="M354.89 54.2019C353.167 55.3152 351.445 56.4544 349.748 57.6065V579.34C349.748 592.376 357.48 603.301 367.816 606.085C369.505 606.542 371.247 606.772 372.997 606.771H757.418C759.164 606.773 760.902 606.543 762.586 606.085C766.428 605.019 769.91 602.935 772.663 600.052C777.913 594.444 780.782 587.019 780.667 579.34V66.6812C778.543 65.1148 776.406 63.5613 774.243 62.0467C773.816 61.749 773.388 61.4513 772.961 61.1535V579.34C772.964 581.019 772.764 582.692 772.365 584.324C770.539 592.026 764.516 597.67 757.418 597.67H372.997C364.423 597.67 357.454 589.45 357.454 579.34V52.5449C356.6 53.0886 355.745 53.6323 354.89 54.2019Z" fill="#E6E6E6"/>
<path d="M776.814 102.791H353.598V110.505H776.814V102.791Z" fill="#E6E6E6"/>
<path d="M647.195 4.3885C644.63 3.75419 642.066 3.1587 639.475 2.60205V212.069H647.195V4.3885Z" fill="#E6E6E6"/>
<path d="M490.94 0C488.362 0.478975 485.785 0.9709 483.22 1.50166V212.069H490.94V0Z" fill="#E6E6E6"/>
<path d="M270.623 593.269C270.621 597.695 271.47 602.081 273.123 606.188C273.758 607.781 274.516 609.321 275.389 610.797C276.518 612.721 277.828 614.532 279.301 616.208C282.555 619.914 286.563 622.883 291.057 624.917C295.551 626.95 300.428 628.002 305.361 628.001H812.193C821.406 628.001 830.242 624.343 836.756 617.832C843.271 611.321 846.931 602.49 846.931 593.282C846.931 584.074 843.271 575.243 836.756 568.732C830.242 562.22 821.406 558.562 812.193 558.562H305.361C296.153 558.572 287.324 562.231 280.812 568.737C274.3 575.243 270.636 584.066 270.623 593.269Z" fill="#E6E6E6"/>
<path d="M353.598 219.788L774.241 219.788V194.074L353.598 194.074V219.788Z" fill="#E6E6E6"/>
<path d="M581.929 200.502H545.91C545.91 196.752 547.401 193.154 550.055 190.502C552.708 187.85 556.308 186.36 560.06 186.36H567.779C569.637 186.36 571.477 186.726 573.193 187.436C574.91 188.147 576.47 189.189 577.784 190.502C579.098 191.815 580.14 193.374 580.851 195.09C581.563 196.806 581.929 198.645 581.929 200.502H581.929Z" fill="#E6E6E6"/>
<path d="M0 613.101C11.2519 626.426 23.4221 638.949 36.4216 650.578H1081.12C1094.12 638.949 1106.29 626.426 1117.54 613.101H0Z" fill="#3F3D56"/>
<path d="M513.8 487.778V620.544H606.862V487.778C606.863 486.823 606.558 485.893 605.992 485.124C605.425 484.355 604.627 483.788 603.714 483.506C603.284 483.364 602.833 483.294 602.38 483.299H518.295C517.705 483.297 517.121 483.412 516.576 483.637C516.031 483.862 515.536 484.191 515.119 484.607C514.701 485.023 514.37 485.517 514.144 486.061C513.918 486.605 513.801 487.189 513.8 487.778ZM550.118 533.397C550.143 530.78 551.2 528.278 553.061 526.436C554.921 524.594 557.434 523.561 560.053 523.561C562.671 523.561 565.184 524.594 567.044 526.436C568.905 528.278 569.962 530.78 569.987 533.397V548.802C569.973 551.426 568.921 553.939 567.059 555.79C565.198 557.641 562.679 558.68 560.053 558.68C557.427 558.68 554.907 557.641 553.046 555.79C551.184 553.939 550.132 551.426 550.118 548.802V533.397Z" fill="#2F2E41"/>
<path d="M513.516 616.298V629.101C513.518 629.764 513.781 630.4 514.249 630.87C514.717 631.34 515.352 631.607 516.015 631.613H604.647C605.311 631.609 605.947 631.343 606.416 630.873C606.884 630.402 607.147 629.765 607.147 629.101V616.298H513.516Z" fill="#3F3D56"/>
<path d="M367.402 287.748V530.161C367.404 533.25 368.633 536.212 370.819 538.396C373.004 540.581 375.968 541.809 379.059 541.812H738.482C741.573 541.809 744.536 540.581 746.722 538.396C748.908 536.212 750.137 533.25 750.139 530.161V287.748C750.132 284.661 748.901 281.703 746.716 279.522C744.531 277.341 741.57 276.114 738.482 276.11H379.059C375.971 276.114 373.01 277.341 370.825 279.522C368.64 281.703 367.409 284.661 367.402 287.748Z" fill="#3F3D56"/>
<path d="M375.834 290.764V527.17C375.837 528.821 376.494 530.403 377.662 531.57C378.829 532.737 380.412 533.394 382.064 533.397H735.49C737.141 533.394 738.724 532.737 739.892 531.57C741.06 530.403 741.717 528.821 741.72 527.17V290.764C741.72 289.111 741.064 287.526 739.896 286.356C738.728 285.186 737.143 284.528 735.49 284.524H382.064C380.41 284.528 378.826 285.186 377.658 286.356C376.49 287.526 375.834 289.111 375.834 290.764Z" fill="#6C33A3"/>
<path d="M447.9 634.629C448.259 635.08 448.717 635.443 449.237 635.692C449.758 635.941 450.328 636.069 450.905 636.066H661.171C661.746 636.065 662.313 635.936 662.832 635.689C663.351 635.441 663.808 635.081 664.171 634.635C664.533 634.188 664.791 633.667 664.926 633.108C665.062 632.55 665.07 631.968 664.953 631.405L661.689 615.91C661.553 615.278 661.262 614.69 660.841 614.199C660.421 613.709 659.884 613.331 659.279 613.101C658.842 612.929 658.376 612.841 657.907 612.842H454.156C453.686 612.841 453.22 612.929 452.783 613.101C452.179 613.331 451.642 613.709 451.221 614.199C450.8 614.69 450.509 615.278 450.374 615.91L447.11 631.405C446.994 631.968 447.004 632.549 447.141 633.106C447.277 633.664 447.537 634.184 447.9 634.629Z" fill="#2F2E41"/>
<path d="M650.569 619.517H655.781C656.13 619.517 656.413 619.234 656.413 618.885V616.265C656.413 615.916 656.13 615.633 655.781 615.633H650.569C650.22 615.633 649.937 615.916 649.937 616.265V618.885C649.937 619.234 650.22 619.517 650.569 619.517Z" fill="#3F3D56"/>
<path d="M637.617 619.517H642.829C643.178 619.517 643.461 619.234 643.461 618.885V616.265C643.461 615.916 643.178 615.633 642.829 615.633H637.617C637.268 615.633 636.985 615.916 636.985 616.265V618.885C636.985 619.234 637.268 619.517 637.617 619.517Z" fill="#3F3D56"/>
<path d="M624.665 619.517H629.876C630.226 619.517 630.509 619.234 630.509 618.885V616.265C630.509 615.916 630.226 615.633 629.876 615.633H624.665C624.316 615.633 624.033 615.916 624.033 616.265V618.885C624.033 619.234 624.316 619.517 624.665 619.517Z" fill="#3F3D56"/>
<path d="M611.713 619.517H616.924C617.273 619.517 617.557 619.234 617.557 618.885V616.265C617.557 615.916 617.273 615.633 616.924 615.633H611.713C611.363 615.633 611.08 615.916 611.08 616.265V618.885C611.08 619.234 611.363 619.517 611.713 619.517Z" fill="#3F3D56"/>
<path d="M598.76 619.517H603.972C604.321 619.517 604.604 619.234 604.604 618.885V616.265C604.604 615.916 604.321 615.633 603.972 615.633H598.76C598.411 615.633 598.128 615.916 598.128 616.265V618.885C598.128 619.234 598.411 619.517 598.76 619.517Z" fill="#3F3D56"/>
<path d="M585.808 619.517H591.02C591.369 619.517 591.652 619.234 591.652 618.885V616.265C591.652 615.916 591.369 615.633 591.02 615.633H585.808C585.459 615.633 585.176 615.916 585.176 616.265V618.885C585.176 619.234 585.459 619.517 585.808 619.517Z" fill="#3F3D56"/>
<path d="M572.856 619.517H578.068C578.417 619.517 578.7 619.234 578.7 618.885V616.265C578.7 615.916 578.417 615.633 578.068 615.633H572.856C572.507 615.633 572.224 615.916 572.224 616.265V618.885C572.224 619.234 572.507 619.517 572.856 619.517Z" fill="#3F3D56"/>
<path d="M559.904 619.517H565.115C565.465 619.517 565.748 619.234 565.748 618.885V616.265C565.748 615.916 565.465 615.633 565.115 615.633H559.904C559.555 615.633 559.272 615.916 559.272 616.265V618.885C559.272 619.234 559.555 619.517 559.904 619.517Z" fill="#3F3D56"/>
<path d="M546.952 619.517H552.163C552.512 619.517 552.796 619.234 552.796 618.885V616.265C552.796 615.916 552.512 615.633 552.163 615.633H546.952C546.603 615.633 546.319 615.916 546.319 616.265V618.885C546.319 619.234 546.603 619.517 546.952 619.517Z" fill="#3F3D56"/>
<path d="M533.999 619.517H539.211C539.56 619.517 539.843 619.234 539.843 618.885V616.265C539.843 615.916 539.56 615.633 539.211 615.633H533.999C533.65 615.633 533.367 615.916 533.367 616.265V618.885C533.367 619.234 533.65 619.517 533.999 619.517Z" fill="#3F3D56"/>
<path d="M521.047 619.517H526.259C526.608 619.517 526.891 619.234 526.891 618.885V616.265C526.891 615.916 526.608 615.633 526.259 615.633H521.047C520.698 615.633 520.415 615.916 520.415 616.265V618.885C520.415 619.234 520.698 619.517 521.047 619.517Z" fill="#3F3D56"/>
<path d="M508.095 619.517H513.307C513.656 619.517 513.939 619.234 513.939 618.885V616.265C513.939 615.916 513.656 615.633 513.307 615.633H508.095C507.746 615.633 507.463 615.916 507.463 616.265V618.885C507.463 619.234 507.746 619.517 508.095 619.517Z" fill="#3F3D56"/>
<path d="M495.143 619.517H500.354C500.704 619.517 500.987 619.234 500.987 618.885V616.265C500.987 615.916 500.704 615.633 500.354 615.633H495.143C494.794 615.633 494.511 615.916 494.511 616.265V618.885C494.511 619.234 494.794 619.517 495.143 619.517Z" fill="#3F3D56"/>
<path d="M482.191 619.517H487.402C487.751 619.517 488.035 619.234 488.035 618.885V616.265C488.035 615.916 487.751 615.633 487.402 615.633H482.191C481.841 615.633 481.558 615.916 481.558 616.265V618.885C481.558 619.234 481.841 619.517 482.191 619.517Z" fill="#3F3D56"/>
<path d="M469.238 619.517H474.45C474.799 619.517 475.082 619.234 475.082 618.885V616.265C475.082 615.916 474.799 615.633 474.45 615.633H469.238C468.889 615.633 468.606 615.916 468.606 616.265V618.885C468.606 619.234 468.889 619.517 469.238 619.517Z" fill="#3F3D56"/>
<path d="M456.286 619.517H461.498C461.847 619.517 462.13 619.234 462.13 618.885V616.265C462.13 615.916 461.847 615.633 461.498 615.633H456.286C455.937 615.633 455.654 615.916 455.654 616.265V618.885C455.654 619.234 455.937 619.517 456.286 619.517Z" fill="#3F3D56"/>
<path d="M650.722 625.989H655.934C656.283 625.989 656.566 625.706 656.566 625.357V622.737C656.566 622.388 656.283 622.105 655.934 622.105H650.722C650.373 622.105 650.09 622.388 650.09 622.737V625.357C650.09 625.706 650.373 625.989 650.722 625.989Z" fill="#3F3D56"/>
<path d="M637.77 625.989H642.982C643.331 625.989 643.614 625.706 643.614 625.357V622.737C643.614 622.388 643.331 622.105 642.982 622.105H637.77C637.421 622.105 637.138 622.388 637.138 622.737V625.357C637.138 625.706 637.421 625.989 637.77 625.989Z" fill="#3F3D56"/>
<path d="M624.818 625.989H630.029C630.379 625.989 630.662 625.706 630.662 625.357V622.737C630.662 622.388 630.379 622.105 630.029 622.105H624.818C624.469 622.105 624.186 622.388 624.186 622.737V625.357C624.186 625.706 624.469 625.989 624.818 625.989Z" fill="#3F3D56"/>
<path d="M611.866 625.989H617.077C617.426 625.989 617.709 625.706 617.709 625.357V622.737C617.709 622.388 617.426 622.105 617.077 622.105H611.866C611.516 622.105 611.233 622.388 611.233 622.737V625.357C611.233 625.706 611.516 625.989 611.866 625.989Z" fill="#3F3D56"/>
<path d="M598.913 625.989H604.125C604.474 625.989 604.757 625.706 604.757 625.357V622.737C604.757 622.388 604.474 622.105 604.125 622.105H598.913C598.564 622.105 598.281 622.388 598.281 622.737V625.357C598.281 625.706 598.564 625.989 598.913 625.989Z" fill="#3F3D56"/>
<path d="M585.961 625.989H591.173C591.522 625.989 591.805 625.706 591.805 625.357V622.737C591.805 622.388 591.522 622.105 591.173 622.105H585.961C585.612 622.105 585.329 622.388 585.329 622.737V625.357C585.329 625.706 585.612 625.989 585.961 625.989Z" fill="#3F3D56"/>
<path d="M573.009 625.989H578.221C578.57 625.989 578.853 625.706 578.853 625.357V622.737C578.853 622.388 578.57 622.105 578.221 622.105H573.009C572.66 622.105 572.377 622.388 572.377 622.737V625.357C572.377 625.706 572.66 625.989 573.009 625.989Z" fill="#3F3D56"/>
<path d="M560.057 625.989H565.269C565.618 625.989 565.901 625.706 565.901 625.357V622.737C565.901 622.388 565.618 622.105 565.269 622.105H560.057C559.708 622.105 559.425 622.388 559.425 622.737V625.357C559.425 625.706 559.708 625.989 560.057 625.989Z" fill="#3F3D56"/>
<path d="M547.105 625.989H552.316C552.665 625.989 552.949 625.706 552.949 625.357V622.737C552.949 622.388 552.665 622.105 552.316 622.105H547.105C546.756 622.105 546.473 622.388 546.473 622.737V625.357C546.473 625.706 546.756 625.989 547.105 625.989Z" fill="#3F3D56"/>
<path d="M534.153 625.989H539.364C539.713 625.989 539.996 625.706 539.996 625.357V622.737C539.996 622.388 539.713 622.105 539.364 622.105H534.153C533.803 622.105 533.52 622.388 533.52 622.737V625.357C533.52 625.706 533.803 625.989 534.153 625.989Z" fill="#3F3D56"/>
<path d="M521.2 625.989H526.412C526.761 625.989 527.044 625.706 527.044 625.357V622.737C527.044 622.388 526.761 622.105 526.412 622.105H521.2C520.851 622.105 520.568 622.388 520.568 622.737V625.357C520.568 625.706 520.851 625.989 521.2 625.989Z" fill="#3F3D56"/>
<path d="M508.248 625.989H513.46C513.809 625.989 514.092 625.706 514.092 625.357V622.737C514.092 622.388 513.809 622.105 513.46 622.105H508.248C507.899 622.105 507.616 622.388 507.616 622.737V625.357C507.616 625.706 507.899 625.989 508.248 625.989Z" fill="#3F3D56"/>
<path d="M495.296 625.989H500.508C500.857 625.989 501.14 625.706 501.14 625.357V622.737C501.14 622.388 500.857 622.105 500.508 622.105H495.296C494.947 622.105 494.664 622.388 494.664 622.737V625.357C494.664 625.706 494.947 625.989 495.296 625.989Z" fill="#3F3D56"/>
<path d="M482.344 625.989H487.555C487.904 625.989 488.188 625.706 488.188 625.357V622.737C488.188 622.388 487.904 622.105 487.555 622.105H482.344C481.995 622.105 481.712 622.388 481.712 622.737V625.357C481.712 625.706 481.995 625.989 482.344 625.989Z" fill="#3F3D56"/>
<path d="M469.392 625.989H474.603C474.952 625.989 475.235 625.706 475.235 625.357V622.737C475.235 622.388 474.952 622.105 474.603 622.105H469.392C469.042 622.105 468.759 622.388 468.759 622.737V625.357C468.759 625.706 469.042 625.989 469.392 625.989Z" fill="#3F3D56"/>
<path d="M456.439 625.989H461.651C462 625.989 462.283 625.706 462.283 625.357V622.737C462.283 622.388 462 622.105 461.651 622.105H456.439C456.09 622.105 455.807 622.388 455.807 622.737V625.357C455.807 625.706 456.09 625.989 456.439 625.989Z" fill="#3F3D56"/>
<path d="M543.219 633.756H593.763C594.112 633.756 594.396 633.473 594.396 633.124V630.504C594.396 630.155 594.112 629.872 593.763 629.872H543.219C542.87 629.872 542.587 630.155 542.587 630.504V633.124C542.587 633.473 542.87 633.756 543.219 633.756Z" fill="#3F3D56"/>
<path d="M399.823 317.09H730.523C730.867 317.083 731.194 316.941 731.435 316.695C731.675 316.45 731.81 316.119 731.81 315.776C731.81 315.432 731.675 315.102 731.435 314.856C731.194 314.611 730.867 314.469 730.523 314.461H399.823C399.48 314.469 399.153 314.611 398.912 314.856C398.672 315.102 398.537 315.432 398.537 315.776C398.537 316.119 398.672 316.45 398.912 316.695C399.153 316.941 399.48 317.083 399.823 317.09Z" fill="#3F3D56"/>
<path d="M708.012 307.75C712.269 307.75 715.719 304.225 715.719 299.876C715.719 295.527 712.269 292.001 708.012 292.001C703.755 292.001 700.305 295.527 700.305 299.876C700.305 304.225 703.755 307.75 708.012 307.75Z" fill="#3F3D56"/>
<path d="M681.388 307.75C685.644 307.75 689.095 304.225 689.095 299.876C689.095 295.527 685.644 292.001 681.388 292.001C677.131 292.001 673.68 295.527 673.68 299.876C673.68 304.225 677.131 307.75 681.388 307.75Z" fill="#3F3D56"/>
<path d="M654.763 307.75C659.019 307.75 662.47 304.225 662.47 299.876C662.47 295.527 659.019 292.001 654.763 292.001C650.506 292.001 647.056 295.527 647.056 299.876C647.056 304.225 650.506 307.75 654.763 307.75Z" fill="#3F3D56"/>
<path d="M414.444 295.385C414.443 295.571 414.479 295.756 414.55 295.928C414.62 296.1 414.724 296.257 414.855 296.39C414.986 296.522 415.142 296.627 415.314 296.699C415.485 296.771 415.67 296.808 415.856 296.809H434.766C435.14 296.8 435.495 296.646 435.757 296.379C436.018 296.111 436.164 295.752 436.164 295.379C436.164 295.005 436.018 294.646 435.757 294.379C435.495 294.112 435.14 293.957 434.766 293.948H415.856C415.478 293.953 415.118 294.107 414.854 294.376C414.589 294.645 414.442 295.008 414.444 295.385Z" fill="#3F3D56"/>
<path d="M414.444 300.758C414.443 300.944 414.479 301.128 414.55 301.301C414.62 301.473 414.724 301.63 414.855 301.762C414.986 301.894 415.142 301.999 415.314 302.071C415.485 302.143 415.67 302.181 415.856 302.182H434.766C435.14 302.173 435.496 302.019 435.758 301.752C436.02 301.484 436.166 301.125 436.166 300.751C436.166 300.377 436.02 300.018 435.758 299.751C435.496 299.483 435.14 299.329 434.766 299.321H415.856C415.478 299.325 415.118 299.479 414.854 299.748C414.589 300.017 414.442 300.38 414.444 300.758Z" fill="#3F3D56"/>
<path d="M414.444 306.117C414.442 306.494 414.589 306.857 414.854 307.126C415.118 307.396 415.478 307.549 415.856 307.554H434.766C435.14 307.545 435.495 307.391 435.757 307.123C436.018 306.856 436.164 306.497 436.164 306.123C436.164 305.75 436.018 305.391 435.757 305.123C435.495 304.856 435.14 304.702 434.766 304.693H415.856C415.67 304.694 415.485 304.731 415.314 304.803C415.142 304.875 414.986 304.98 414.855 305.113C414.724 305.245 414.62 305.402 414.55 305.574C414.479 305.746 414.443 305.931 414.444 306.117Z" fill="#3F3D56"/>
<path d="M420.288 347.637H413.493C411.433 347.637 409.763 349.306 409.763 351.365C409.763 353.424 411.433 355.093 413.493 355.093H420.288C422.348 355.093 424.018 353.424 424.018 351.365C424.018 349.306 422.348 347.637 420.288 347.637Z" fill="#E6E6E6"/>
<path d="M498.001 347.637H491.206C489.146 347.637 487.476 349.306 487.476 351.365C487.476 353.424 489.146 355.093 491.206 355.093H498.001C500.062 355.093 501.732 353.424 501.732 351.365C501.732 349.306 500.062 347.637 498.001 347.637Z" fill="#E6E6E6"/>
<path d="M520.02 347.637H513.225C511.165 347.637 509.495 349.306 509.495 351.365C509.495 353.424 511.165 355.093 513.225 355.093H520.02C522.08 355.093 523.75 353.424 523.75 351.365C523.75 349.306 522.08 347.637 520.02 347.637Z" fill="#E6E6E6"/>
<path d="M476.863 347.015H434.632C432.571 347.015 430.901 348.684 430.901 350.743C430.901 352.802 432.571 354.472 434.632 354.472H476.863C478.923 354.472 480.593 352.802 480.593 350.743C480.593 348.684 478.923 347.015 476.863 347.015Z" fill="#E6E6E6"/>
<path d="M580.481 347.015H538.249C536.189 347.015 534.519 348.684 534.519 350.743C534.519 352.802 536.189 354.472 538.249 354.472H580.481C582.541 354.472 584.211 352.802 584.211 350.743C584.211 348.684 582.541 347.015 580.481 347.015Z" fill="#E6E6E6"/>
<path d="M441.012 364.465H434.217C432.157 364.465 430.487 366.134 430.487 368.193C430.487 370.252 432.157 371.922 434.217 371.922H441.012C443.072 371.922 444.742 370.252 444.742 368.193C444.742 366.134 443.072 364.465 441.012 364.465Z" fill="#E6E6E6"/>
<path d="M518.725 364.465H511.93C509.87 364.465 508.2 366.134 508.2 368.193C508.2 370.252 509.87 371.922 511.93 371.922H518.725C520.785 371.922 522.455 370.252 522.455 368.193C522.455 366.134 520.785 364.465 518.725 364.465Z" fill="#E6E6E6"/>
<path d="M540.744 364.465H533.949C531.889 364.465 530.219 366.134 530.219 368.193C530.219 370.252 531.889 371.922 533.949 371.922H540.744C542.804 371.922 544.474 370.252 544.474 368.193C544.474 366.134 542.804 364.465 540.744 364.465Z" fill="#E6E6E6"/>
<path d="M497.587 363.844H455.355C453.295 363.844 451.625 365.513 451.625 367.572C451.625 369.631 453.295 371.3 455.355 371.3H497.587C499.647 371.3 501.317 369.631 501.317 367.572C501.317 365.513 499.647 363.844 497.587 363.844Z" fill="#E6E6E6"/>
<path d="M601.204 363.844H558.973C556.912 363.844 555.242 365.513 555.242 367.572C555.242 369.631 556.912 371.3 558.973 371.3H601.204C603.264 371.3 604.934 369.631 604.934 367.572C604.934 365.513 603.264 363.844 601.204 363.844Z" fill="#E6E6E6"/>
<path d="M461.735 381.294H454.94C452.88 381.294 451.21 382.964 451.21 385.023C451.21 387.082 452.88 388.751 454.94 388.751H461.735C463.795 388.751 465.465 387.082 465.465 385.023C465.465 382.964 463.795 381.294 461.735 381.294Z" fill="#E6E6E6"/>
<path d="M539.448 381.294H532.654C530.593 381.294 528.923 382.964 528.923 385.023C528.923 387.082 530.593 388.751 532.654 388.751H539.448C541.509 388.751 543.179 387.082 543.179 385.023C543.179 382.964 541.509 381.294 539.448 381.294Z" fill="#E6E6E6"/>
<path d="M561.467 381.294H554.672C552.612 381.294 550.942 382.964 550.942 385.023C550.942 387.082 552.612 388.751 554.672 388.751H561.467C563.527 388.751 565.197 387.082 565.197 385.023C565.197 382.964 563.527 381.294 561.467 381.294Z" fill="#E6E6E6"/>
<path d="M518.31 380.673H476.079C474.018 380.673 472.348 382.342 472.348 384.401C472.348 386.46 474.018 388.129 476.079 388.129H518.31C520.37 388.129 522.04 386.46 522.04 384.401C522.04 382.342 520.37 380.673 518.31 380.673Z" fill="#E6E6E6"/>
<path d="M621.928 380.673H579.696C577.636 380.673 575.966 382.342 575.966 384.401C575.966 386.46 577.636 388.129 579.696 388.129H621.928C623.988 388.129 625.658 386.46 625.658 384.401C625.658 382.342 623.988 380.673 621.928 380.673Z" fill="#E6E6E6"/>
<path d="M482.459 398.123H475.664C473.604 398.123 471.934 399.792 471.934 401.851C471.934 403.91 473.604 405.579 475.664 405.579H482.459C484.519 405.579 486.189 403.91 486.189 401.851C486.189 399.792 484.519 398.123 482.459 398.123Z" fill="#E6E6E6"/>
<path d="M560.172 398.123H553.377C551.317 398.123 549.647 399.792 549.647 401.851C549.647 403.91 551.317 405.579 553.377 405.579H560.172C562.232 405.579 563.902 403.91 563.902 401.851C563.902 399.792 562.232 398.123 560.172 398.123Z" fill="#E6E6E6"/>
<path d="M582.191 398.123H575.396C573.336 398.123 571.666 399.792 571.666 401.851C571.666 403.91 573.336 405.579 575.396 405.579H582.191C584.251 405.579 585.921 403.91 585.921 401.851C585.921 399.792 584.251 398.123 582.191 398.123Z" fill="#E6E6E6"/>
<path d="M539.034 397.501H496.802C494.742 397.501 493.072 399.171 493.072 401.23C493.072 403.289 494.742 404.958 496.802 404.958H539.034C541.094 404.958 542.764 403.289 542.764 401.23C542.764 399.171 541.094 397.501 539.034 397.501Z" fill="#E6E6E6"/>
<path d="M498.001 465.042H491.206C489.146 465.042 487.476 466.711 487.476 468.77C487.476 470.829 489.146 472.498 491.206 472.498H498.001C500.062 472.498 501.732 470.829 501.732 468.77C501.732 466.711 500.062 465.042 498.001 465.042Z" fill="#E6E6E6"/>
<path d="M520.02 465.042H513.225C511.165 465.042 509.495 466.711 509.495 468.77C509.495 470.829 511.165 472.498 513.225 472.498H520.02C522.08 472.498 523.75 470.829 523.75 468.77C523.75 466.711 522.08 465.042 520.02 465.042Z" fill="#E6E6E6"/>
<path d="M580.481 465.664H538.249C536.189 465.664 534.519 467.333 534.519 469.392C534.519 471.451 536.189 473.12 538.249 473.12H580.481C582.541 473.12 584.211 471.451 584.211 469.392C584.211 467.333 582.541 465.664 580.481 465.664Z" fill="#E6E6E6"/>
<path d="M420.288 465.042H413.493C411.433 465.042 409.763 466.711 409.763 468.77C409.763 470.829 411.433 472.498 413.493 472.498H420.288C422.348 472.498 424.018 470.829 424.018 468.77C424.018 466.711 422.348 465.042 420.288 465.042Z" fill="#E6E6E6"/>
<path d="M476.863 465.664H434.632C432.571 465.664 430.901 467.333 430.901 469.392C430.901 471.451 432.571 473.12 434.632 473.12H476.863C478.923 473.12 480.593 471.451 480.593 469.392C480.593 467.333 478.923 465.664 476.863 465.664Z" fill="#E6E6E6"/>
<path d="M441.012 448.213H434.217C432.157 448.213 430.487 449.882 430.487 451.941C430.487 454 432.157 455.669 434.217 455.669H441.012C443.072 455.669 444.742 454 444.742 451.941C444.742 449.882 443.072 448.213 441.012 448.213Z" fill="#E6E6E6"/>
<path d="M518.725 448.213H511.93C509.87 448.213 508.2 449.882 508.2 451.941C508.2 454 509.87 455.669 511.93 455.669H518.725C520.785 455.669 522.455 454 522.455 451.941C522.455 449.882 520.785 448.213 518.725 448.213Z" fill="#E6E6E6"/>
<path d="M540.744 448.213H533.949C531.889 448.213 530.219 449.882 530.219 451.941C530.219 454 531.889 455.669 533.949 455.669H540.744C542.804 455.669 544.474 454 544.474 451.941C544.474 449.882 542.804 448.213 540.744 448.213Z" fill="#E6E6E6"/>
<path d="M497.587 448.834H455.355C453.295 448.834 451.625 450.504 451.625 452.563C451.625 454.622 453.295 456.291 455.355 456.291H497.587C499.647 456.291 501.317 454.622 501.317 452.563C501.317 450.504 499.647 448.834 497.587 448.834Z" fill="#E6E6E6"/>
<path d="M461.735 431.384H454.94C452.88 431.384 451.21 433.053 451.21 435.112C451.21 437.171 452.88 438.841 454.94 438.841H461.735C463.795 438.841 465.465 437.171 465.465 435.112C465.465 433.053 463.795 431.384 461.735 431.384Z" fill="#E6E6E6"/>
<path d="M539.448 431.384H532.654C530.593 431.384 528.923 433.053 528.923 435.112C528.923 437.171 530.593 438.841 532.654 438.841H539.448C541.509 438.841 543.179 437.171 543.179 435.112C543.179 433.053 541.509 431.384 539.448 431.384Z" fill="#E6E6E6"/>
<path d="M561.467 431.384H554.672C552.612 431.384 550.942 433.053 550.942 435.112C550.942 437.171 552.612 438.841 554.672 438.841H561.467C563.527 438.841 565.197 437.171 565.197 435.112C565.197 433.053 563.527 431.384 561.467 431.384Z" fill="#E6E6E6"/>
<path d="M518.31 432.006H476.079C474.018 432.006 472.348 433.675 472.348 435.734C472.348 437.793 474.018 439.462 476.079 439.462H518.31C520.37 439.462 522.04 437.793 522.04 435.734C522.04 433.675 520.37 432.006 518.31 432.006Z" fill="#E6E6E6"/>
<path d="M482.459 414.555H475.664C473.604 414.555 471.934 416.224 471.934 418.283C471.934 420.342 473.604 422.012 475.664 422.012H482.459C484.519 422.012 486.189 420.342 486.189 418.283C486.189 416.224 484.519 414.555 482.459 414.555Z" fill="#E6E6E6"/>
<path d="M560.172 414.555H553.377C551.317 414.555 549.647 416.224 549.647 418.283C549.647 420.342 551.317 422.012 553.377 422.012H560.172C562.232 422.012 563.902 420.342 563.902 418.283C563.902 416.224 562.232 414.555 560.172 414.555Z" fill="#E6E6E6"/>
<path d="M582.191 414.555H575.396C573.336 414.555 571.666 416.224 571.666 418.283C571.666 420.342 573.336 422.012 575.396 422.012H582.191C584.251 422.012 585.921 420.342 585.921 418.283C585.921 416.224 584.251 414.555 582.191 414.555Z" fill="#E6E6E6"/>
<path d="M539.034 415.177H496.802C494.742 415.177 493.072 416.846 493.072 418.905C493.072 420.964 494.742 422.633 496.802 422.633H539.034C541.094 422.633 542.764 420.964 542.764 418.905C542.764 416.846 541.094 415.177 539.034 415.177Z" fill="#E6E6E6"/>
<path d="M453.212 706.75C452.928 706.893 452.643 707.035 452.358 707.164C450.557 708.058 448.744 708.938 446.918 709.805C441.452 712.407 435.917 714.88 430.313 717.223C415.568 723.387 400.438 728.589 385.019 732.796C382.429 716.653 379.916 678.581 377.507 650.581C377.054 645.312 376.6 640.406 376.147 636.069C375.716 630.376 374.899 624.719 373.699 619.137C373.582 618.699 373.412 618.278 373.194 617.881C373.44 620.12 373.699 626.8 373.945 636.069C374.075 640.406 374.191 645.312 374.321 650.581C374.929 677.533 375.564 714.207 376.199 735.087C374.398 735.528 372.585 735.968 370.772 736.382C369.632 736.654 368.479 736.913 367.327 737.159C365.928 737.469 364.529 737.78 363.13 738.065C361.666 738.376 360.203 738.673 358.739 738.958C334.822 743.654 310.504 746.012 286.129 746C284.51 746 282.904 745.987 281.285 745.974C280.793 745.974 280.301 745.961 279.796 745.948C278.371 745.923 276.894 745.897 275.392 745.858C246.587 745.062 217.972 740.939 190.115 733.573L191.242 650.581L191.436 636.069L191.514 630.567C190.872 632.337 190.488 634.19 190.374 636.069C189.92 639.603 189.454 644.613 188.988 650.581C187.213 673.571 185.387 710.66 183.496 731.76C161.102 725.391 144.73 719.579 124.266 709.352C123.476 708.964 122.673 708.562 121.883 708.161C122.025 707.164 122.18 706.168 122.323 705.145C124.641 689.041 121.908 668.083 124.473 650.581C126.429 637.079 128.449 624.108 130.483 613.104C132.944 599.861 135.443 589.453 137.917 584.391C140.767 578.553 143.616 572.805 146.375 567.304C147.567 564.935 148.737 562.609 149.885 560.326C150.507 559.096 151.129 557.88 151.737 556.689C154.509 551.264 157.125 546.255 159.522 541.814C161.205 538.695 162.76 535.873 164.184 533.4C165.855 530.487 167.332 528.079 168.549 526.254C177.542 512.63 190.923 502.486 206.473 497.503L206.862 497.399L207.237 497.555L207.665 497.749L232.352 488.726L243.374 462.201L299.988 458.719L309.132 465.67L313.808 469.23L318.795 473.023L327.965 480.001L330.568 480.803L334.441 481.994L360.928 490.124L361.2 490.007L361.589 490.111C375.74 494.638 388.127 503.462 397.026 515.354C397.907 516.493 398.723 517.671 399.513 518.862C401.663 522.047 404.564 527.083 407.983 533.4C409.395 536.002 410.885 538.824 412.452 541.814C413.397 543.614 421.557 569.064 429.497 595.058C436.919 619.395 444.146 644.212 445.091 650.581C445.26 651.759 445.441 652.95 445.609 654.128C446.685 661.493 447.747 668.911 448.77 676.147C450.285 686.879 451.762 697.235 453.174 706.491C453.187 706.582 453.2 706.66 453.212 706.75Z" fill="#3F3D56"/>
<path opacity="0.2" d="M393.215 613.044L382.21 570.594L372.492 607.224L393.215 613.044Z" fill="black"/>
<path d="M20.5024 612.552C21.073 614.212 22.1555 615.649 23.5943 616.657C25.0332 617.664 26.7544 618.19 28.5109 618.158L62.8236 617.276C64.5929 617.241 66.3035 616.635 67.6998 615.549C69.0961 614.462 70.103 612.953 70.5701 611.247L75.4257 559.353C77.1484 560.133 79.0238 560.518 80.9147 560.48C84.2325 560.397 87.3813 559 89.6684 556.596C91.9555 554.193 93.1936 550.979 93.1103 547.663C93.027 544.347 91.6292 541.2 89.2243 538.914C86.8194 536.629 83.6045 535.391 80.2867 535.474C79.5309 535.472 78.7771 535.55 78.038 535.708C77.2342 534.839 76.2572 534.148 75.1699 533.679C74.0826 533.21 72.9091 532.974 71.725 532.986L18.9442 534.348C18.5063 534.364 18.0707 534.418 17.6422 534.51C16.4847 534.725 15.3869 535.186 14.4226 535.861C13.4583 536.537 12.65 537.411 12.0519 538.424C11.4539 539.438 11.0801 540.568 10.9556 541.738C10.8311 542.908 10.959 544.092 11.3304 545.208L20.5024 612.552ZM76.4214 555.829L79.8766 543.463C80.2697 542.035 80.2788 540.528 79.903 539.095C80.0706 539.094 80.2186 539.015 80.3862 539.014C82.7553 538.965 85.0472 539.857 86.7593 541.495C88.4714 543.132 89.464 545.381 89.5194 547.749C89.5749 550.117 88.6887 552.41 87.0552 554.125C85.4217 555.841 83.1741 556.839 80.8053 556.901C79.2737 556.949 77.758 556.578 76.4214 555.829Z" fill="#2F2E41"/>
<path d="M17.6423 534.51C18.7668 540.936 31.4093 545.453 46.611 544.668C60.5899 544.024 72.0199 539.119 74.114 533.304C73.339 533.075 72.5331 532.968 71.7251 532.986L18.9443 534.348C18.5064 534.364 18.0708 534.418 17.6423 534.51Z" fill="#3F3D56"/>
<path d="M49.397 584.036C49.4665 584.018 49.5326 583.989 49.5925 583.95L57.0441 579.075C57.1342 579.016 57.2082 578.936 57.2594 578.842C57.3107 578.747 57.3375 578.641 57.3376 578.534C57.3376 578.426 57.3108 578.321 57.2597 578.226C57.2085 578.132 57.1345 578.051 57.0445 577.993L49.2993 572.922C49.2283 572.875 49.1486 572.843 49.0649 572.827C48.9812 572.811 48.8952 572.811 48.8117 572.828C48.7282 572.845 48.6489 572.879 48.5784 572.927C48.5079 572.975 48.4476 573.036 48.4009 573.107C48.3541 573.178 48.3219 573.258 48.3061 573.342C48.2903 573.426 48.2912 573.512 48.3088 573.595C48.3263 573.678 48.3602 573.757 48.4084 573.828C48.4566 573.898 48.5182 573.958 48.5897 574.004L55.5073 578.533L48.8836 582.867C48.7553 582.951 48.661 583.077 48.6173 583.224C48.5736 583.371 48.5834 583.528 48.645 583.669C48.7066 583.809 48.816 583.923 48.9537 583.99C49.0913 584.057 49.2484 584.073 49.397 584.036H49.397Z" fill="#6C63FF"/>
<path d="M37.6278 584.578C37.7528 584.546 37.8656 584.478 37.9516 584.382C38.0376 584.286 38.0929 584.166 38.1104 584.039C38.1279 583.911 38.1069 583.781 38.05 583.665C37.9931 583.549 37.9029 583.453 37.791 583.389L30.9224 579.453L37.5612 574.525C37.6294 574.474 37.687 574.411 37.7306 574.338C37.7742 574.265 37.8031 574.184 37.8155 574.1C37.8278 574.016 37.8235 573.93 37.8028 573.848C37.7821 573.766 37.7453 573.688 37.6947 573.62C37.644 573.552 37.5804 573.494 37.5074 573.451C37.4345 573.407 37.3537 573.378 37.2696 573.366C37.1855 573.353 37.0998 573.358 37.0174 573.378C36.935 573.399 36.8575 573.436 36.7893 573.487L29.3565 579.005C29.2701 579.069 29.2011 579.153 29.1556 579.25C29.11 579.348 29.0895 579.455 29.0958 579.562C29.1022 579.669 29.1351 579.773 29.1918 579.865C29.2484 579.956 29.3269 580.032 29.4202 580.085L37.1465 584.512C37.2922 584.596 37.4648 584.619 37.6278 584.578Z" fill="#6C63FF"/>
<path d="M48.6558 588.308C48.7185 588.292 48.7784 588.267 48.8333 588.233C48.906 588.189 48.9693 588.131 49.0196 588.062C49.0699 587.994 49.1061 587.916 49.1263 587.833C49.1464 587.75 49.1501 587.665 49.137 587.581C49.124 587.497 49.0945 587.416 49.0502 587.343L38.4871 569.986C38.3973 569.84 38.2534 569.736 38.0868 569.696C37.9202 569.656 37.7445 569.683 37.5982 569.772C37.4519 569.861 37.3468 570.005 37.306 570.171C37.2652 570.337 37.292 570.513 37.3805 570.66L47.9435 588.017C48.0157 588.135 48.1237 588.227 48.2519 588.28C48.3801 588.332 48.5216 588.342 48.6558 588.308Z" fill="#6C63FF"/>
<path d="M1016.94 708.158C1016.15 708.559 1015.35 708.961 1014.56 709.349C994.092 719.576 977.721 725.388 955.326 731.757C953.435 710.657 951.609 673.568 949.835 650.578C949.368 644.61 948.902 639.6 948.449 636.066C948.334 634.187 947.951 632.334 947.309 630.564L947.387 636.066L947.581 650.578L948.708 733.57C920.851 740.936 892.235 745.059 863.431 745.855C861.928 745.894 860.451 745.92 859.027 745.945C858.522 745.958 858.029 745.971 857.537 745.971C855.918 745.984 854.312 745.997 852.693 745.997C822.338 746.02 792.094 742.355 762.624 735.084C763.258 714.204 763.893 677.53 764.502 650.578C764.631 645.309 764.748 640.403 764.877 636.066C765.123 626.797 765.382 620.117 765.628 617.878C765.41 618.275 765.241 618.696 765.123 619.134C763.924 624.716 763.106 630.373 762.675 636.066C762.222 640.403 761.769 645.309 761.315 650.578C758.906 678.578 756.394 716.65 753.803 732.793C738.384 728.586 723.255 723.384 708.509 717.22C700.738 713.984 693.105 710.493 685.61 706.747C687.035 697.427 688.524 686.98 690.052 676.145C691.244 667.743 692.474 659.109 693.731 650.578C695.674 637.399 761.678 495.092 777.234 490.108L777.622 490.005L777.894 490.121L804.381 481.991L808.254 480.8L810.857 479.998L820.028 473.02L825.014 469.227L829.69 465.667L838.834 458.716L895.448 462.198L906.471 488.723L931.157 497.746L931.585 497.552L931.96 497.396L932.349 497.5C947.9 502.483 961.28 512.627 970.273 526.251C971.491 528.077 972.967 530.484 974.638 533.397C976.063 535.87 977.617 538.692 979.301 541.812C981.697 546.252 984.313 551.262 987.085 556.686C987.694 557.877 988.315 559.093 988.937 560.323C990.09 562.602 991.26 564.927 992.447 567.301C995.206 572.802 998.056 578.55 1000.9 584.388C1003.38 589.45 1005.88 599.858 1008.34 613.101C1010.37 624.105 1012.39 637.076 1014.35 650.578C1016.91 668.08 1014.18 689.038 1016.5 705.142C1016.64 706.165 1016.8 707.161 1016.94 708.158Z" fill="#3F3D56"/>
<path d="M850.899 449.194C887.264 449.194 916.744 419.73 916.744 383.385C916.744 347.039 887.264 317.576 850.899 317.576C814.535 317.576 785.055 347.039 785.055 383.385C785.055 419.73 814.535 449.194 850.899 449.194Z" fill="#FFB6B6"/>
<path opacity="0.2" d="M745.604 613.044L756.61 570.594L766.328 607.224L745.604 613.044Z" fill="black"/>
<path d="M1038.47 585.385C1034.53 639.6 1038.61 663.471 1016.88 708.171C997.1 717.845 976.503 725.738 955.326 731.757C953.124 732.379 950.918 732.983 948.708 733.57C920.851 740.936 892.235 745.059 863.431 745.855C861.928 745.894 860.451 745.919 859.027 745.945C858.522 745.958 858.029 745.971 857.537 745.971C855.918 745.984 854.312 745.997 852.693 745.997C822.338 746.02 792.094 742.355 762.624 735.084C759.67 734.359 756.73 733.596 753.803 732.793C738.384 728.586 723.255 723.384 708.509 717.22C700.738 713.983 693.105 710.493 685.61 706.747C683.913 705.893 682.216 705.038 680.546 704.158C671.958 689.064 667.075 670.707 666.972 648.649C672.917 610.641 1025.33 552.608 1038.47 585.385Z" fill="#2F2E41"/>
<path opacity="0.2" d="M1038.46 594.67C1038.66 591.314 1038.88 587.847 1039.14 584.236C1026.01 551.459 673.595 609.492 667.65 647.5C667.666 650.984 667.815 654.366 668.066 657.668C682.463 620.154 1017.26 564.997 1038.46 594.67Z" fill="black"/>
<path d="M658.208 587.942L687.135 573.486L663.029 508.435L656.676 475.629C655.85 471.367 653.92 467.396 651.078 464.113C648.236 460.83 644.582 458.35 640.481 456.921C636.379 455.492 631.975 455.163 627.706 455.969C623.438 456.774 619.456 458.684 616.158 461.51C611.271 465.696 608.203 471.617 607.601 478.022C606.998 484.427 608.909 490.815 612.93 495.838L636.512 525.3L658.208 587.942Z" fill="#FFB6B6"/>
<path d="M687.134 561.44L648.565 580.714L677.835 672.379C679.937 678.961 683.705 684.889 688.774 689.588C693.842 694.286 700.039 697.596 706.765 699.197C715.057 701.17 723.763 700.452 731.62 697.148C739.477 693.843 746.076 688.124 750.462 680.818L828.078 547.852C833.578 538.69 835.276 527.741 832.809 517.345C830.341 506.948 823.904 497.928 814.872 492.211C810.015 489.136 804.564 487.118 798.874 486.288C793.185 485.458 787.384 485.835 781.85 487.393C776.316 488.952 771.172 491.658 766.753 495.335C762.335 499.013 758.74 503.578 756.204 508.736L708.83 609.626L687.134 561.44Z" fill="#3F3D56"/>
<path d="M271.358 444.653C311.37 444.653 343.806 412.234 343.806 372.243C343.806 332.253 311.37 299.834 271.358 299.834C231.346 299.834 198.91 332.253 198.91 372.243C198.91 412.234 231.346 444.653 271.358 444.653Z" fill="#A0616A"/>
<path d="M199.78 322.345C205.671 314.41 214.137 308.768 220.613 301.303C224.167 297.207 227.117 292.565 231.112 288.898C238.534 282.085 248.914 279.293 258.985 278.946C270.023 278.663 280.973 280.98 290.948 285.712C300.923 290.443 309.644 297.455 316.404 306.181C321.668 303.096 326.933 300.011 332.197 296.926C334.277 302.397 336.357 307.869 338.437 313.34C340.144 311.857 342.321 311.026 344.582 310.994C346.844 310.963 349.043 311.732 350.791 313.167C352.539 314.601 353.722 316.607 354.131 318.831C354.54 321.054 354.149 323.35 353.026 325.312C354.278 321.442 360.019 320.621 363.183 323.178C366.348 325.734 367.196 330.282 366.679 334.316C366.031 338.742 364.074 342.872 361.058 346.177C358.043 349.482 354.107 351.81 349.758 352.861C342.888 354.391 334.892 352.784 329.393 357.175C324.985 360.696 323.654 367.106 319.156 370.511C313.612 374.705 305.777 372.765 298.886 373.692C286.83 375.314 277.284 387.638 278.733 399.71C277.642 395.901 276.496 391.982 274.02 388.887C271.544 385.793 267.374 383.701 263.577 384.838C257.301 386.718 256.274 395.269 257.795 401.639C261.83 418.532 277.119 445.839 277.119 445.839C257.266 453.666 233.614 446.265 218.296 431.413C202.979 416.561 195.001 395.53 191.526 374.485C188.579 356.639 188.997 336.872 199.78 322.345Z" fill="#2F2E41"/>
<path d="M933.415 419.663C947.198 388.079 939.39 359.014 922.587 343.596V343.583C915.981 328.787 907.2 317.369 897.149 314.689C892.292 311.57 887.577 307.906 882.345 306.042C879.907 305.13 877.31 304.721 874.71 304.839C872.11 304.957 869.561 305.599 867.216 306.728L864.548 306.016C862.282 300.23 859.626 300.113 856.673 303.919C845.301 298.624 835.056 296.255 825.938 296.255C796.199 296.255 778.61 321.421 773.948 351.842L798.803 358.457L807.442 344.697L803.453 359.7L817.169 363.338C838.048 390.51 813.063 453.191 781.395 488.066C788.933 485.981 796.441 484.221 803.919 482.784L831.093 442.964L814.255 479.211C822.998 477.929 834.149 479.159 846.337 481.632C850.443 476.272 852.606 469.127 850.482 462.757C853.955 469.475 856.35 476.696 857.58 484.156C883.303 490.434 918.391 493.658 937.301 496.04C952.579 491.055 952.621 434.757 933.415 419.663Z" fill="#2F2E41"/>
<path d="M942.382 312.228C952.478 334.821 932.107 344.54 913.445 344.265C896.583 344.017 882.252 332.177 881.391 315.344C880.977 307.26 883.794 299.343 889.22 293.335C894.647 287.327 902.24 283.719 910.328 283.306C927.17 282.446 935.505 296.838 942.382 312.228Z" fill="#2F2E41"/>
<path d="M474.027 680.027L457.397 652.304L512.691 610.376L535.681 586.116C538.668 582.964 542.43 580.651 546.592 579.407C550.753 578.164 555.169 578.034 559.396 579.03C563.624 580.027 567.516 582.114 570.683 585.085C573.85 588.056 576.182 591.805 577.445 595.959C579.317 602.114 578.724 608.755 575.789 614.481C572.855 620.207 567.81 624.569 561.718 626.648L525.993 638.837L474.027 680.027Z" fill="#A0616A"/>
<path d="M486.046 679.112L460.155 700.679L453.174 706.491L452.358 707.164C450.557 708.058 448.744 708.938 446.918 709.805C441.452 712.407 435.917 714.88 430.313 717.223C415.568 723.387 400.438 728.589 385.019 732.796C382.092 733.599 379.152 734.362 376.199 735.087C374.399 735.527 372.585 735.968 370.772 736.382C369.632 736.654 368.479 736.913 367.327 737.159C365.928 737.469 364.529 737.78 363.13 738.065C361.667 738.375 360.203 738.673 358.739 738.958C354.801 735.213 351.666 730.706 349.524 725.713C347.382 720.719 346.278 715.342 346.279 709.909C346.279 709.559 346.279 709.197 346.292 708.834L350.45 602.256L352.289 555.019C352.573 544.336 357.025 534.188 364.694 526.743C372.364 519.297 382.643 515.145 393.335 515.173C394.578 515.173 395.809 515.238 397.026 515.354C397.907 516.493 398.723 517.671 399.513 518.862C401.663 522.047 404.564 527.083 407.984 533.4C409.395 536.002 410.885 538.824 412.452 541.814C413.398 543.614 421.557 569.064 429.497 595.058L426 622.204L419.679 671.138L445.61 654.128L463.872 642.14L466.035 645.752L471.669 655.15L482.549 673.274L486.046 679.112Z" fill="#3F3D56"/>
<path d="M471.851 648.652C471.838 650.853 471.786 653.014 471.669 655.15C471.399 661.042 470.716 666.908 469.623 672.704C467.835 682.437 464.646 691.86 460.155 700.679C459.559 701.857 458.924 703.022 458.277 704.161C456.606 705.042 454.909 705.896 453.212 706.75C452.927 706.893 452.643 707.035 452.358 707.165C445.143 710.75 437.795 714.103 430.313 717.223C415.568 723.387 400.438 728.589 385.019 732.796C382.092 733.599 379.152 734.363 376.199 735.088C370.435 736.512 364.615 737.802 358.739 738.958C334.822 743.654 310.504 746.013 286.129 746C284.51 746 282.904 745.987 281.285 745.974C280.793 745.974 280.301 745.961 279.796 745.949C278.371 745.923 276.894 745.897 275.392 745.858C246.587 745.062 217.972 740.939 190.115 733.573C187.9 732.99 185.694 732.386 183.496 731.761C162.32 725.741 141.722 717.848 121.947 708.174C100.213 663.474 104.293 639.603 100.356 585.388C108.438 565.207 245.174 579.459 350.45 602.256C379.022 608.444 405.263 615.266 426 622.205C447.423 629.363 462.952 636.639 469.04 643.474C470.462 644.889 471.439 646.689 471.851 648.652Z" fill="#2F2E41"/>
<path opacity="0.2" d="M100.364 594.67C100.163 591.314 99.9378 587.847 99.6755 584.236C112.809 551.459 465.225 609.492 471.17 647.5C471.154 650.984 471.005 654.366 470.754 657.668C456.357 620.154 121.557 564.997 100.364 594.67Z" fill="black"/>
</g>
<defs>
<clipPath id="clip0_1126_11395">
<rect width="1140" height="746" fill="white"/>
</clipPath>
</defs>
</svg>
