<svg width="886" height="644" viewBox="0 0 886 644" fill="none" xmlns="http://www.w3.org/2000/svg">
<path d="M516.094 113.53C532.699 113.53 546.16 100.077 546.16 83.4816C546.16 66.8864 532.699 53.4334 516.094 53.4334C499.488 53.4334 486.027 66.8864 486.027 83.4816C486.027 100.077 499.488 113.53 516.094 113.53Z" fill="#F2F2F2"/>
<path d="M749.328 559.478C794.019 525.46 815.364 468.295 802.001 413.763C801.669 412.408 801.318 411.056 800.949 409.708C792.09 377.338 770.173 346.574 738.228 336.231C711.406 327.547 682.129 334.225 654.147 330.771C599.216 323.992 556.63 279.574 526.665 233.068C496.7 186.561 473.671 134.504 433.854 96.0833C368.223 32.7529 261.161 19.1178 179.787 60.3412C98.4132 101.565 46.5789 193.022 48.7895 284.171C51.0001 375.32 105.144 462.465 183.775 508.701C212.661 525.686 246.07 537.719 279.318 533.509C308.168 529.855 334.381 514.363 363.095 509.764C408.24 502.533 453.097 522.932 492.144 546.703C531.19 570.474 568.907 598.649 613.278 609.67C656.362 620.37 709.74 589.614 749.328 559.478Z" fill="#F2F2F2"/>
<path d="M685.119 62.2552C684.139 61.6025 683.149 60.9836 682.169 60.3534C653.85 42.2527 623.496 27.5479 591.736 16.5428L584.371 118.073H537.685V1.72175C534.746 1.11405 531.785 0.540115 528.823 -6.10352e-05V118.073H473.342C442.8 118.073 413.508 105.948 391.911 84.364C370.314 62.7803 358.181 33.5064 358.181 2.98229V2.98219C355.208 3.62365 352.258 4.31012 349.308 5.04161V118.073H304.119L297.104 21.2581C264.465 33.768 233.479 50.2192 204.835 70.2454C204.34 70.583 203.844 70.9318 203.36 71.2694C200.872 73.0138 198.417 74.7919 195.973 76.5924V463.932H329.152L326.798 431.353L313.848 252.476H574.631L561.681 431.353L559.328 463.932H691.031V66.1715C689.071 64.8436 687.101 63.5382 685.119 62.2552ZM349.308 222.935H311.709L304.761 126.941H349.308V222.935ZM528.823 222.935H465.674V221.033C465.674 220.119 465.494 219.214 465.143 218.369C464.793 217.525 464.279 216.757 463.632 216.111C462.985 215.465 462.216 214.953 461.37 214.605C460.525 214.256 459.619 214.077 458.704 214.078H431.251C430.337 214.078 429.432 214.258 428.587 214.607C427.743 214.957 426.975 215.469 426.329 216.115C425.683 216.761 425.17 217.527 424.821 218.371C424.471 219.215 424.291 220.12 424.292 221.033V222.935H358.181V126.941H528.823V222.935ZM537.685 222.935V126.941H583.729L576.782 222.935H537.685Z" fill="#4D497D"/>
<path d="M0 488.737C9.7823 500.32 20.363 511.207 31.6646 521.316L854.335 522.441C865.637 512.332 876.218 501.446 886 489.862L0 488.737Z" fill="#4D497D"/>
<path d="M557.88 384.416V480.864C557.881 482.093 558.37 483.272 559.239 484.141C560.109 485.01 561.288 485.499 562.518 485.5H705.532C706.762 485.499 707.941 485.01 708.81 484.141C709.68 483.272 710.169 482.093 710.17 480.864V384.416C710.167 383.188 709.677 382.011 708.808 381.143C707.939 380.275 706.761 379.787 705.532 379.785H562.518C561.289 379.787 560.111 380.275 559.242 381.143C558.373 382.011 557.883 383.188 557.88 384.416Z" fill="#4D497D"/>
<path d="M561.235 385.616V479.674C561.236 480.331 561.498 480.96 561.962 481.425C562.427 481.889 563.057 482.151 563.714 482.152H704.341C704.998 482.151 705.628 481.889 706.093 481.425C706.557 480.96 706.819 480.331 706.82 479.674V385.616C706.82 384.958 706.559 384.328 706.094 383.862C705.63 383.397 704.999 383.135 704.341 383.133H563.714C563.056 383.135 562.425 383.397 561.961 383.862C561.496 384.328 561.235 384.958 561.235 385.616Z" fill="#6C33A3"/>
<path d="M554.889 499.674C555.151 500.002 555.484 500.267 555.863 500.448C556.242 500.63 556.657 500.723 557.077 500.721H710.211C710.63 500.72 711.043 500.626 711.421 500.446C711.799 500.266 712.132 500.003 712.396 499.678C712.66 499.353 712.848 498.974 712.946 498.567C713.045 498.16 713.051 497.736 712.966 497.327L710.588 486.042C710.49 485.582 710.278 485.154 709.971 484.797C709.665 484.439 709.274 484.164 708.834 483.997C708.515 483.872 708.176 483.808 707.834 483.808H559.445C559.103 483.808 558.763 483.872 558.445 483.997C558.005 484.164 557.614 484.439 557.307 484.797C557.001 485.154 556.789 485.582 556.69 486.042L554.313 497.327C554.229 497.736 554.236 498.159 554.336 498.565C554.436 498.971 554.624 499.35 554.889 499.674Z" fill="#2F2E41"/>
<path d="M702.58 488.669H706.197C706.5 488.669 706.746 488.423 706.746 488.119V486.39C706.746 486.086 706.5 485.84 706.197 485.84H702.58C702.276 485.84 702.03 486.086 702.03 486.39V488.119C702.03 488.423 702.276 488.669 702.58 488.669Z" fill="#4D497D"/>
<path d="M693.147 488.669H696.764C697.067 488.669 697.313 488.423 697.313 488.119V486.39C697.313 486.086 697.067 485.84 696.764 485.84H693.147C692.843 485.84 692.597 486.086 692.597 486.39V488.119C692.597 488.423 692.843 488.669 693.147 488.669Z" fill="#4D497D"/>
<path d="M683.714 488.669H687.331C687.634 488.669 687.88 488.423 687.88 488.119V486.39C687.88 486.086 687.634 485.84 687.331 485.84H683.714C683.41 485.84 683.164 486.086 683.164 486.39V488.119C683.164 488.423 683.41 488.669 683.714 488.669Z" fill="#4D497D"/>
<path d="M674.281 488.669H677.898C678.202 488.669 678.448 488.423 678.448 488.119V486.39C678.448 486.086 678.202 485.84 677.898 485.84H674.281C673.977 485.84 673.731 486.086 673.731 486.39V488.119C673.731 488.423 673.977 488.669 674.281 488.669Z" fill="#4D497D"/>
<path d="M664.848 488.669H668.465C668.769 488.669 669.015 488.423 669.015 488.119V486.39C669.015 486.086 668.769 485.84 668.465 485.84H664.848C664.544 485.84 664.298 486.086 664.298 486.39V488.119C664.298 488.423 664.544 488.669 664.848 488.669Z" fill="#4D497D"/>
<path d="M655.415 488.669H659.032C659.336 488.669 659.582 488.423 659.582 488.119V486.39C659.582 486.086 659.336 485.84 659.032 485.84H655.415C655.112 485.84 654.866 486.086 654.866 486.39V488.119C654.866 488.423 655.112 488.669 655.415 488.669Z" fill="#4D497D"/>
<path d="M645.982 488.669H649.599C649.903 488.669 650.149 488.423 650.149 488.119V486.39C650.149 486.086 649.903 485.84 649.599 485.84H645.982C645.679 485.84 645.432 486.086 645.432 486.39V488.119C645.432 488.423 645.679 488.669 645.982 488.669Z" fill="#4D497D"/>
<path d="M636.549 488.669H640.166C640.47 488.669 640.716 488.423 640.716 488.119V486.39C640.716 486.086 640.47 485.84 640.166 485.84H636.549C636.246 485.84 636 486.086 636 486.39V488.119C636 488.423 636.246 488.669 636.549 488.669Z" fill="#4D497D"/>
<path d="M627.117 488.669H630.734C631.037 488.669 631.283 488.423 631.283 488.119V486.39C631.283 486.086 631.037 485.84 630.734 485.84H627.117C626.813 485.84 626.567 486.086 626.567 486.39V488.119C626.567 488.423 626.813 488.669 627.117 488.669Z" fill="#4D497D"/>
<path d="M617.683 488.669H621.3C621.604 488.669 621.85 488.423 621.85 488.119V486.39C621.85 486.086 621.604 485.84 621.3 485.84H617.683C617.38 485.84 617.134 486.086 617.134 486.39V488.119C617.134 488.423 617.38 488.669 617.683 488.669Z" fill="#4D497D"/>
<path d="M608.25 488.669H611.868C612.171 488.669 612.417 488.423 612.417 488.119V486.39C612.417 486.086 612.171 485.84 611.868 485.84H608.25C607.947 485.84 607.701 486.086 607.701 486.39V488.119C607.701 488.423 607.947 488.669 608.25 488.669Z" fill="#4D497D"/>
<path d="M598.818 488.669H602.435C602.738 488.669 602.984 488.423 602.984 488.119V486.39C602.984 486.086 602.738 485.84 602.435 485.84H598.818C598.514 485.84 598.268 486.086 598.268 486.39V488.119C598.268 488.423 598.514 488.669 598.818 488.669Z" fill="#4D497D"/>
<path d="M589.385 488.669H593.002C593.305 488.669 593.551 488.423 593.551 488.119V486.39C593.551 486.086 593.305 485.84 593.002 485.84H589.385C589.081 485.84 588.835 486.086 588.835 486.39V488.119C588.835 488.423 589.081 488.669 589.385 488.669Z" fill="#4D497D"/>
<path d="M579.952 488.669H583.569C583.872 488.669 584.119 488.423 584.119 488.119V486.39C584.119 486.086 583.872 485.84 583.569 485.84H579.952C579.648 485.84 579.402 486.086 579.402 486.39V488.119C579.402 488.423 579.648 488.669 579.952 488.669Z" fill="#4D497D"/>
<path d="M570.519 488.669H574.136C574.439 488.669 574.686 488.423 574.686 488.119V486.39C574.686 486.086 574.439 485.84 574.136 485.84H570.519C570.215 485.84 569.969 486.086 569.969 486.39V488.119C569.969 488.423 570.215 488.669 570.519 488.669Z" fill="#4D497D"/>
<path d="M561.086 488.669H564.703C565.007 488.669 565.253 488.423 565.253 488.119V486.39C565.253 486.086 565.007 485.84 564.703 485.84H561.086C560.782 485.84 560.536 486.086 560.536 486.39V488.119C560.536 488.423 560.782 488.669 561.086 488.669Z" fill="#4D497D"/>
<path d="M702.691 493.382H706.308C706.612 493.382 706.858 493.136 706.858 492.833V491.103C706.858 490.8 706.612 490.554 706.308 490.554H702.691C702.388 490.554 702.141 490.8 702.141 491.103V492.833C702.141 493.136 702.388 493.382 702.691 493.382Z" fill="#4D497D"/>
<path d="M693.258 493.382H696.875C697.179 493.382 697.425 493.136 697.425 492.833V491.103C697.425 490.8 697.179 490.554 696.875 490.554H693.258C692.954 490.554 692.708 490.8 692.708 491.103V492.833C692.708 493.136 692.954 493.382 693.258 493.382Z" fill="#4D497D"/>
<path d="M683.825 493.382H687.442C687.746 493.382 687.992 493.136 687.992 492.833V491.103C687.992 490.8 687.746 490.554 687.442 490.554H683.825C683.522 490.554 683.276 490.8 683.276 491.103V492.833C683.276 493.136 683.522 493.382 683.825 493.382Z" fill="#4D497D"/>
<path d="M674.392 493.382H678.009C678.313 493.382 678.559 493.136 678.559 492.833V491.103C678.559 490.8 678.313 490.554 678.009 490.554H674.392C674.089 490.554 673.843 490.8 673.843 491.103V492.833C673.843 493.136 674.089 493.382 674.392 493.382Z" fill="#4D497D"/>
<path d="M664.96 493.382H668.577C668.88 493.382 669.126 493.136 669.126 492.833V491.103C669.126 490.8 668.88 490.554 668.577 490.554H664.96C664.656 490.554 664.41 490.8 664.41 491.103V492.833C664.41 493.136 664.656 493.382 664.96 493.382Z" fill="#4D497D"/>
<path d="M655.527 493.382H659.144C659.447 493.382 659.693 493.136 659.693 492.833V491.103C659.693 490.8 659.447 490.554 659.144 490.554H655.527C655.223 490.554 654.977 490.8 654.977 491.103V492.833C654.977 493.136 655.223 493.382 655.527 493.382Z" fill="#4D497D"/>
<path d="M646.094 493.382H649.71C650.014 493.382 650.26 493.136 650.26 492.833V491.103C650.26 490.8 650.014 490.554 649.71 490.554H646.094C645.79 490.554 645.544 490.8 645.544 491.103V492.833C645.544 493.136 645.79 493.382 646.094 493.382Z" fill="#4D497D"/>
<path d="M636.661 493.382H640.278C640.581 493.382 640.827 493.136 640.827 492.833V491.103C640.827 490.8 640.581 490.554 640.278 490.554H636.661C636.357 490.554 636.111 490.8 636.111 491.103V492.833C636.111 493.136 636.357 493.382 636.661 493.382Z" fill="#4D497D"/>
<path d="M627.228 493.382H630.845C631.148 493.382 631.395 493.136 631.395 492.833V491.103C631.395 490.8 631.148 490.554 630.845 490.554H627.228C626.924 490.554 626.678 490.8 626.678 491.103V492.833C626.678 493.136 626.924 493.382 627.228 493.382Z" fill="#4D497D"/>
<path d="M617.795 493.382H621.412C621.716 493.382 621.962 493.136 621.962 492.833V491.103C621.962 490.8 621.716 490.554 621.412 490.554H617.795C617.491 490.554 617.245 490.8 617.245 491.103V492.833C617.245 493.136 617.491 493.382 617.795 493.382Z" fill="#4D497D"/>
<path d="M608.362 493.382H611.979C612.282 493.382 612.529 493.136 612.529 492.833V491.103C612.529 490.8 612.282 490.554 611.979 490.554H608.362C608.058 490.554 607.812 490.8 607.812 491.103V492.833C607.812 493.136 608.058 493.382 608.362 493.382Z" fill="#4D497D"/>
<path d="M598.929 493.382H602.546C602.85 493.382 603.096 493.136 603.096 492.833V491.103C603.096 490.8 602.85 490.554 602.546 490.554H598.929C598.626 490.554 598.379 490.8 598.379 491.103V492.833C598.379 493.136 598.626 493.382 598.929 493.382Z" fill="#4D497D"/>
<path d="M589.496 493.382H593.113C593.417 493.382 593.663 493.136 593.663 492.833V491.103C593.663 490.8 593.417 490.554 593.113 490.554H589.496C589.193 490.554 588.946 490.8 588.946 491.103V492.833C588.946 493.136 589.193 493.382 589.496 493.382Z" fill="#4D497D"/>
<path d="M580.063 493.382H583.68C583.984 493.382 584.23 493.136 584.23 492.833V491.103C584.23 490.8 583.984 490.554 583.68 490.554H580.063C579.76 490.554 579.514 490.8 579.514 491.103V492.833C579.514 493.136 579.76 493.382 580.063 493.382Z" fill="#4D497D"/>
<path d="M570.63 493.382H574.247C574.551 493.382 574.797 493.136 574.797 492.833V491.103C574.797 490.8 574.551 490.554 574.247 490.554H570.63C570.327 490.554 570.081 490.8 570.081 491.103V492.833C570.081 493.136 570.327 493.382 570.63 493.382Z" fill="#4D497D"/>
<path d="M561.198 493.382H564.814C565.118 493.382 565.364 493.136 565.364 492.833V491.103C565.364 490.8 565.118 490.554 564.814 490.554H561.198C560.894 490.554 560.648 490.8 560.648 491.103V492.833C560.648 493.136 560.894 493.382 561.198 493.382Z" fill="#4D497D"/>
<path d="M624.398 499.038H661.03C661.334 499.038 661.58 498.792 661.58 498.489V496.76C661.58 496.456 661.334 496.21 661.03 496.21H624.398C624.094 496.21 623.848 496.456 623.848 496.76V498.489C623.848 498.792 624.094 499.038 624.398 499.038Z" fill="#4D497D"/>
<path d="M585.587 403.711H582.385C581.414 403.711 580.627 404.497 580.627 405.468C580.627 406.438 581.414 407.224 582.385 407.224H585.587C586.558 407.224 587.345 406.438 587.345 405.468C587.345 404.497 586.558 403.711 585.587 403.711Z" fill="white"/>
<path d="M622.21 403.711H619.008C618.037 403.711 617.25 404.497 617.25 405.468C617.25 406.438 618.037 407.224 619.008 407.224H622.21C623.181 407.224 623.968 406.438 623.968 405.468C623.968 404.497 623.181 403.711 622.21 403.711Z" fill="white"/>
<path d="M632.586 403.711H629.384C628.413 403.711 627.626 404.497 627.626 405.468C627.626 406.438 628.413 407.224 629.384 407.224H632.586C633.557 407.224 634.344 406.438 634.344 405.468C634.344 404.497 633.557 403.711 632.586 403.711Z" fill="white"/>
<path d="M612.248 403.418H592.347C591.376 403.418 590.589 404.205 590.589 405.175C590.589 406.145 591.376 406.932 592.347 406.932H612.248C613.219 406.932 614.006 406.145 614.006 405.175C614.006 404.205 613.219 403.418 612.248 403.418Z" fill="white"/>
<path d="M661.079 403.418H641.177C640.206 403.418 639.419 404.205 639.419 405.175C639.419 406.145 640.206 406.932 641.177 406.932H661.079C662.049 406.932 662.836 406.145 662.836 405.175C662.836 404.205 662.049 403.418 661.079 403.418Z" fill="white"/>
<path d="M595.353 411.641H592.151C591.18 411.641 590.393 412.427 590.393 413.398C590.393 414.368 591.18 415.155 592.151 415.155H595.353C596.324 415.155 597.111 414.368 597.111 413.398C597.111 412.427 596.324 411.641 595.353 411.641Z" fill="white"/>
<path d="M631.976 411.641H628.774C627.803 411.641 627.016 412.427 627.016 413.398C627.016 414.368 627.803 415.155 628.774 415.155H631.976C632.947 415.155 633.734 414.368 633.734 413.398C633.734 412.427 632.947 411.641 631.976 411.641Z" fill="white"/>
<path d="M642.352 411.641H639.15C638.179 411.641 637.392 412.427 637.392 413.398C637.392 414.368 638.179 415.155 639.15 415.155H642.352C643.323 415.155 644.11 414.368 644.11 413.398C644.11 412.427 643.323 411.641 642.352 411.641Z" fill="white"/>
<path d="M622.014 411.348H602.113C601.142 411.348 600.355 412.135 600.355 413.105C600.355 414.075 601.142 414.862 602.113 414.862H622.014C622.985 414.862 623.772 414.075 623.772 413.105C623.772 412.135 622.985 411.348 622.014 411.348Z" fill="white"/>
<path d="M670.844 411.348H650.943C649.972 411.348 649.185 412.135 649.185 413.105C649.185 414.075 649.972 414.862 650.943 414.862H670.844C671.815 414.862 672.602 414.075 672.602 413.105C672.602 412.135 671.815 411.348 670.844 411.348Z" fill="white"/>
<path d="M605.119 419.571H601.917C600.946 419.571 600.159 420.358 600.159 421.328C600.159 422.298 600.946 423.085 601.917 423.085H605.119C606.09 423.085 606.877 422.298 606.877 421.328C606.877 420.358 606.09 419.571 605.119 419.571Z" fill="white"/>
<path d="M641.742 419.571H638.54C637.569 419.571 636.782 420.358 636.782 421.328C636.782 422.298 637.569 423.085 638.54 423.085H641.742C642.713 423.085 643.5 422.298 643.5 421.328C643.5 420.358 642.713 419.571 641.742 419.571Z" fill="white"/>
<path d="M652.118 419.571H648.916C647.945 419.571 647.158 420.358 647.158 421.328C647.158 422.298 647.945 423.085 648.916 423.085H652.118C653.089 423.085 653.876 422.298 653.876 421.328C653.876 420.358 653.089 419.571 652.118 419.571Z" fill="white"/>
<path d="M631.78 419.278H611.879C610.908 419.278 610.121 420.065 610.121 421.035C610.121 422.005 610.908 422.792 611.879 422.792H631.78C632.751 422.792 633.538 422.005 633.538 421.035C633.538 420.065 632.751 419.278 631.78 419.278Z" fill="white"/>
<path d="M680.611 419.278H660.709C659.738 419.278 658.951 420.065 658.951 421.035C658.951 422.005 659.738 422.792 660.709 422.792H680.611C681.581 422.792 682.368 422.005 682.368 421.035C682.368 420.065 681.581 419.278 680.611 419.278Z" fill="white"/>
<path d="M614.885 427.501H611.683C610.712 427.501 609.925 428.288 609.925 429.258C609.925 430.228 610.712 431.015 611.683 431.015H614.885C615.856 431.015 616.643 430.228 616.643 429.258C616.643 428.288 615.856 427.501 614.885 427.501Z" fill="white"/>
<path d="M651.508 427.501H648.306C647.335 427.501 646.548 428.288 646.548 429.258C646.548 430.228 647.335 431.015 648.306 431.015H651.508C652.479 431.015 653.266 430.228 653.266 429.258C653.266 428.288 652.479 427.501 651.508 427.501Z" fill="white"/>
<path d="M661.884 427.501H658.682C657.711 427.501 656.924 428.288 656.924 429.258C656.924 430.228 657.711 431.015 658.682 431.015H661.884C662.855 431.015 663.642 430.228 663.642 429.258C663.642 428.288 662.855 427.501 661.884 427.501Z" fill="white"/>
<path d="M641.546 427.208H621.645C620.674 427.208 619.887 427.995 619.887 428.965C619.887 429.935 620.674 430.722 621.645 430.722H641.546C642.517 430.722 643.304 429.935 643.304 428.965C643.304 427.995 642.517 427.208 641.546 427.208Z" fill="white"/>
<path d="M622.21 459.034H619.008C618.037 459.034 617.25 459.821 617.25 460.791C617.25 461.761 618.037 462.548 619.008 462.548H622.21C623.181 462.548 623.968 461.761 623.968 460.791C623.968 459.821 623.181 459.034 622.21 459.034Z" fill="white"/>
<path d="M632.586 459.034H629.384C628.413 459.034 627.626 459.821 627.626 460.791C627.626 461.761 628.413 462.548 629.384 462.548H632.586C633.557 462.548 634.344 461.761 634.344 460.791C634.344 459.821 633.557 459.034 632.586 459.034Z" fill="white"/>
<path d="M661.079 459.327H641.177C640.206 459.327 639.419 460.114 639.419 461.084C639.419 462.054 640.206 462.841 641.177 462.841H661.079C662.049 462.841 662.836 462.054 662.836 461.084C662.836 460.114 662.049 459.327 661.079 459.327Z" fill="white"/>
<path d="M585.587 459.034H582.385C581.414 459.034 580.627 459.821 580.627 460.791C580.627 461.761 581.414 462.548 582.385 462.548H585.587C586.558 462.548 587.345 461.761 587.345 460.791C587.345 459.821 586.558 459.034 585.587 459.034Z" fill="white"/>
<path d="M612.248 459.327H592.347C591.376 459.327 590.589 460.114 590.589 461.084C590.589 462.054 591.376 462.841 592.347 462.841H612.248C613.219 462.841 614.006 462.054 614.006 461.084C614.006 460.114 613.219 459.327 612.248 459.327Z" fill="white"/>
<path d="M595.353 451.104H592.151C591.18 451.104 590.393 451.891 590.393 452.861C590.393 453.831 591.18 454.618 592.151 454.618H595.353C596.324 454.618 597.111 453.831 597.111 452.861C597.111 451.891 596.324 451.104 595.353 451.104Z" fill="white"/>
<path d="M631.976 451.104H628.774C627.803 451.104 627.016 451.891 627.016 452.861C627.016 453.831 627.803 454.618 628.774 454.618H631.976C632.947 454.618 633.734 453.831 633.734 452.861C633.734 451.891 632.947 451.104 631.976 451.104Z" fill="white"/>
<path d="M642.352 451.104H639.15C638.179 451.104 637.392 451.891 637.392 452.861C637.392 453.831 638.179 454.618 639.15 454.618H642.352C643.323 454.618 644.11 453.831 644.11 452.861C644.11 451.891 643.323 451.104 642.352 451.104Z" fill="white"/>
<path d="M622.014 451.397H602.113C601.142 451.397 600.355 452.184 600.355 453.154C600.355 454.124 601.142 454.911 602.113 454.911H622.014C622.985 454.911 623.772 454.124 623.772 453.154C623.772 452.184 622.985 451.397 622.014 451.397Z" fill="white"/>
<path d="M605.119 443.174H601.917C600.946 443.174 600.159 443.961 600.159 444.931C600.159 445.901 600.946 446.688 601.917 446.688H605.119C606.09 446.688 606.877 445.901 606.877 444.931C606.877 443.961 606.09 443.174 605.119 443.174Z" fill="white"/>
<path d="M641.742 443.174H638.54C637.569 443.174 636.782 443.961 636.782 444.931C636.782 445.901 637.569 446.688 638.54 446.688H641.742C642.713 446.688 643.5 445.901 643.5 444.931C643.5 443.961 642.713 443.174 641.742 443.174Z" fill="white"/>
<path d="M652.118 443.174H648.916C647.945 443.174 647.158 443.961 647.158 444.931C647.158 445.901 647.945 446.688 648.916 446.688H652.118C653.089 446.688 653.876 445.901 653.876 444.931C653.876 443.961 653.089 443.174 652.118 443.174Z" fill="white"/>
<path d="M631.78 443.467H611.879C610.908 443.467 610.121 444.254 610.121 445.224C610.121 446.194 610.908 446.981 611.879 446.981H631.78C632.751 446.981 633.538 446.194 633.538 445.224C633.538 444.254 632.751 443.467 631.78 443.467Z" fill="white"/>
<path d="M614.885 435.244H611.683C610.712 435.244 609.925 436.031 609.925 437.001C609.925 437.971 610.712 438.758 611.683 438.758H614.885C615.856 438.758 616.643 437.971 616.643 437.001C616.643 436.031 615.856 435.244 614.885 435.244Z" fill="white"/>
<path d="M651.508 435.244H648.306C647.335 435.244 646.548 436.031 646.548 437.001C646.548 437.971 647.335 438.758 648.306 438.758H651.508C652.479 438.758 653.266 437.971 653.266 437.001C653.266 436.031 652.479 435.244 651.508 435.244Z" fill="white"/>
<path d="M661.884 435.244H658.682C657.711 435.244 656.924 436.031 656.924 437.001C656.924 437.971 657.711 438.758 658.682 438.758H661.884C662.855 438.758 663.642 437.971 663.642 437.001C663.642 436.031 662.855 435.244 661.884 435.244Z" fill="white"/>
<path d="M641.546 435.537H621.645C620.674 435.537 619.887 436.324 619.887 437.294C619.887 438.264 620.674 439.051 621.645 439.051H641.546C642.517 439.051 643.304 438.264 643.304 437.294C643.304 436.324 642.517 435.537 641.546 435.537Z" fill="white"/>
<path d="M568.563 551.972L553.531 528.225L600.715 490.634L620.19 469.071C622.72 466.27 625.942 464.181 629.533 463.014C633.124 461.846 636.959 461.641 640.654 462.419C644.349 463.197 647.775 464.93 650.59 467.446C653.405 469.962 655.51 473.172 656.694 476.755C658.45 482.065 658.072 487.849 655.642 492.887C653.211 497.924 648.917 501.82 643.666 503.754L612.87 515.092L568.563 551.972Z" fill="#FFB6B6"/>
<path d="M215.853 379.79V495.207H296.76V379.79C296.761 378.96 296.496 378.151 296.003 377.483C295.511 376.814 294.817 376.321 294.023 376.076C293.649 375.953 293.257 375.892 292.863 375.896H219.76C219.248 375.895 218.74 375.995 218.266 376.19C217.793 376.385 217.362 376.672 216.999 377.034C216.636 377.395 216.348 377.825 216.151 378.298C215.955 378.771 215.853 379.278 215.853 379.79ZM247.427 419.448C247.448 417.172 248.368 414.997 249.985 413.396C251.602 411.794 253.787 410.896 256.064 410.896C258.341 410.896 260.526 411.794 262.143 413.396C263.761 414.997 264.68 417.172 264.701 419.448V432.84C264.689 435.121 263.774 437.305 262.156 438.915C260.537 440.524 258.347 441.427 256.064 441.427C253.781 441.427 251.591 440.524 249.972 438.915C248.354 437.305 247.439 435.121 247.427 432.84V419.448Z" fill="#2F2E41"/>
<path d="M215.605 491.516V502.646C215.607 503.223 215.836 503.775 216.243 504.184C216.65 504.593 217.202 504.825 217.778 504.829H294.834C295.412 504.826 295.964 504.595 296.372 504.186C296.779 503.777 297.008 503.223 297.008 502.646V491.516H215.605Z" fill="#4D497D"/>
<path d="M88.5752 205.898V416.634C88.5773 419.32 89.6457 421.895 91.5459 423.794C93.446 425.693 96.0225 426.76 98.7097 426.763H411.189C413.876 426.76 416.453 425.693 418.353 423.794C420.253 421.895 421.321 419.32 421.324 416.634V205.898C421.317 203.215 420.247 200.644 418.347 198.747C416.448 196.851 413.874 195.785 411.189 195.781H98.7097C96.0248 195.785 93.4508 196.851 91.5513 198.747C89.6517 200.644 88.5816 203.215 88.5752 205.898Z" fill="#4D497D"/>
<path d="M95.9058 208.52V311.277V414.035C95.9082 415.47 96.4797 416.845 97.4949 417.86C98.5101 418.874 99.8863 419.445 101.322 419.448H408.588C410.023 419.445 411.4 418.874 412.415 417.86C413.43 416.845 414.002 415.47 414.004 414.035V208.52C414.004 207.084 413.434 205.706 412.418 204.689C411.403 203.672 410.025 203.099 408.588 203.096H101.322C99.8846 203.099 98.507 203.672 97.4916 204.689C96.4762 205.706 95.9059 207.084 95.9058 208.52Z" fill="white"/>
<path d="M152.929 504.075C153.242 504.467 153.639 504.783 154.092 505C154.544 505.216 155.04 505.327 155.542 505.324H338.345C338.845 505.324 339.338 505.212 339.789 504.997C340.241 504.781 340.638 504.468 340.953 504.08C341.268 503.692 341.492 503.239 341.61 502.753C341.728 502.268 341.735 501.762 341.633 501.273L338.795 487.802C338.678 487.253 338.424 486.742 338.059 486.315C337.693 485.889 337.226 485.561 336.701 485.36C336.321 485.211 335.916 485.135 335.507 485.135H158.368C157.96 485.135 157.555 485.211 157.174 485.36C156.649 485.561 156.182 485.889 155.817 486.315C155.451 486.742 155.198 487.253 155.08 487.802L152.242 501.273C152.141 501.762 152.151 502.267 152.269 502.752C152.388 503.236 152.614 503.689 152.929 504.075Z" fill="#2F2E41"/>
<path d="M398.616 231.406H111.109C110.81 231.4 110.525 231.277 110.316 231.063C110.107 230.849 109.99 230.563 109.99 230.264C109.99 229.965 110.107 229.678 110.316 229.465C110.525 229.251 110.81 229.128 111.109 229.121H398.616C398.915 229.128 399.199 229.251 399.408 229.465C399.617 229.678 399.734 229.965 399.734 230.264C399.734 230.563 399.617 230.849 399.408 231.063C399.199 231.277 398.915 231.4 398.616 231.406Z" fill="#4D497D"/>
<path d="M130.68 223.287C134.38 223.287 137.38 220.222 137.38 216.441C137.38 212.661 134.38 209.596 130.68 209.596C126.979 209.596 123.979 212.661 123.979 216.441C123.979 220.222 126.979 223.287 130.68 223.287Z" fill="#4D497D"/>
<path d="M153.827 223.287C157.528 223.287 160.527 220.222 160.527 216.441C160.527 212.661 157.528 209.596 153.827 209.596C150.126 209.596 147.126 212.661 147.126 216.441C147.126 220.222 150.126 223.287 153.827 223.287Z" fill="#4D497D"/>
<path d="M176.974 223.287C180.675 223.287 183.675 220.222 183.675 216.441C183.675 212.661 180.675 209.596 176.974 209.596C173.274 209.596 170.274 212.661 170.274 216.441C170.274 220.222 173.274 223.287 176.974 223.287Z" fill="#4D497D"/>
<path d="M384.678 211.289H368.237C367.912 211.296 367.603 211.431 367.376 211.663C367.149 211.895 367.022 212.207 367.022 212.532C367.022 212.857 367.149 213.169 367.376 213.401C367.603 213.634 367.912 213.768 368.237 213.776H384.678C385.005 213.771 385.317 213.638 385.546 213.405C385.776 213.173 385.905 212.859 385.905 212.532C385.905 212.205 385.776 211.892 385.546 211.659C385.317 211.426 385.005 211.293 384.678 211.289Z" fill="#4D497D"/>
<path d="M384.678 215.959H368.237C367.912 215.966 367.603 216.1 367.375 216.333C367.148 216.565 367.02 216.877 367.02 217.202C367.02 217.528 367.148 217.84 367.375 218.072C367.603 218.305 367.912 218.439 368.237 218.446H384.678C385.005 218.442 385.318 218.309 385.548 218.077C385.778 217.844 385.907 217.53 385.907 217.202C385.907 216.875 385.778 216.561 385.548 216.328C385.318 216.096 385.005 215.963 384.678 215.959Z" fill="#4D497D"/>
<path d="M384.678 220.629H368.237C367.912 220.637 367.603 220.771 367.376 221.003C367.149 221.236 367.022 221.548 367.022 221.873C367.022 222.198 367.149 222.51 367.376 222.742C367.603 222.974 367.912 223.109 368.237 223.116H384.678C385.005 223.112 385.317 222.979 385.546 222.746C385.776 222.513 385.905 222.199 385.905 221.873C385.905 221.546 385.776 221.232 385.546 220.999C385.317 220.767 385.005 220.634 384.678 220.629Z" fill="#4D497D"/>
<path d="M781.025 496.401C781.521 497.844 782.462 499.094 783.713 499.969C784.964 500.845 786.46 501.302 787.987 501.275L817.818 500.508C819.356 500.478 820.844 499.951 822.058 499.006C823.272 498.062 824.147 496.75 824.553 495.267L828.774 450.154C830.272 450.832 831.903 451.167 833.547 451.134C834.975 451.098 836.382 450.781 837.688 450.202C838.994 449.623 840.172 448.792 841.157 447.757C842.141 446.723 842.912 445.504 843.426 444.172C843.939 442.84 844.185 441.419 844.149 439.992C844.113 438.564 843.797 437.158 843.217 435.853C842.637 434.548 841.806 433.37 840.771 432.386C839.736 431.402 838.517 430.632 837.183 430.119C835.85 429.605 834.429 429.36 833.001 429.396C832.343 429.393 831.688 429.462 831.045 429.599C830.347 428.843 829.497 428.242 828.552 427.835C827.607 427.427 826.587 427.222 825.557 427.232L779.67 428.416C779.289 428.43 778.911 428.477 778.538 428.557C777.532 428.744 776.577 429.145 775.739 429.732C774.901 430.319 774.198 431.079 773.678 431.96C773.158 432.841 772.833 433.824 772.725 434.841C772.617 435.858 772.728 436.887 773.051 437.858L781.025 496.401ZM829.64 447.091L832.644 436.34C832.986 435.099 832.994 433.789 832.667 432.543C832.813 432.542 832.941 432.473 833.087 432.473C835.147 432.43 837.139 433.206 838.628 434.629C840.116 436.053 840.979 438.008 841.027 440.066C841.076 442.124 840.305 444.118 838.885 445.609C837.465 447.101 835.511 447.969 833.451 448.022C832.12 448.064 830.802 447.742 829.64 447.091Z" fill="#2F2E41"/>
<path d="M778.538 428.557C779.516 434.143 790.507 438.07 803.723 437.388C815.876 436.828 825.813 432.563 827.634 427.509C826.96 427.31 826.26 427.216 825.557 427.232L779.67 428.416C779.289 428.43 778.911 428.477 778.538 428.557Z" fill="#4D497D"/>
<path d="M806.145 471.611C806.206 471.596 806.263 471.57 806.315 471.536L812.794 467.298C812.872 467.247 812.936 467.178 812.981 467.096C813.025 467.013 813.049 466.921 813.049 466.828C813.049 466.735 813.026 466.643 812.981 466.56C812.937 466.478 812.872 466.409 812.794 466.357L806.061 461.95C805.999 461.909 805.929 461.881 805.857 461.867C805.784 461.853 805.709 461.853 805.637 461.868C805.564 461.883 805.495 461.912 805.434 461.954C805.372 461.995 805.32 462.048 805.279 462.11C805.239 462.172 805.211 462.242 805.197 462.314C805.183 462.387 805.184 462.462 805.199 462.534C805.215 462.607 805.244 462.676 805.286 462.737C805.328 462.798 805.381 462.85 805.443 462.89L811.458 466.827L805.699 470.595C805.588 470.668 805.506 470.778 805.468 470.905C805.43 471.033 805.438 471.17 805.492 471.292C805.545 471.414 805.64 471.513 805.76 471.571C805.88 471.629 806.016 471.644 806.145 471.611H806.145Z" fill="#6C33A3"/>
<path d="M795.913 472.083C796.022 472.055 796.12 471.996 796.195 471.912C796.269 471.829 796.318 471.725 796.333 471.614C796.348 471.503 796.33 471.39 796.28 471.289C796.231 471.188 796.152 471.105 796.055 471.049L790.084 467.627L795.855 463.343C795.915 463.299 795.965 463.244 796.003 463.18C796.04 463.117 796.066 463.047 796.076 462.974C796.087 462.901 796.083 462.826 796.065 462.755C796.047 462.683 796.015 462.616 795.971 462.556C795.927 462.497 795.872 462.447 795.809 462.409C795.745 462.371 795.675 462.346 795.602 462.335C795.529 462.325 795.454 462.328 795.383 462.346C795.311 462.364 795.243 462.396 795.184 462.44L788.722 467.237C788.647 467.293 788.587 467.366 788.548 467.451C788.508 467.536 788.49 467.629 788.496 467.722C788.501 467.815 788.53 467.906 788.579 467.985C788.628 468.064 788.696 468.13 788.778 468.177L795.495 472.025C795.622 472.098 795.771 472.119 795.913 472.083Z" fill="#6C33A3"/>
<path d="M805.501 475.325C805.555 475.311 805.607 475.289 805.655 475.26C805.718 475.221 805.773 475.171 805.817 475.111C805.861 475.051 805.892 474.984 805.91 474.912C805.927 474.84 805.931 474.766 805.919 474.693C805.908 474.62 805.882 474.549 805.844 474.486L796.66 459.397C796.582 459.27 796.457 459.179 796.312 459.144C796.167 459.108 796.014 459.132 795.887 459.21C795.759 459.288 795.668 459.413 795.632 459.557C795.597 459.702 795.621 459.855 795.698 459.983L804.882 475.072C804.944 475.175 805.038 475.255 805.15 475.3C805.261 475.346 805.384 475.354 805.501 475.325Z" fill="#6C33A3"/>
<path d="M289.215 293.526H239.453C237.423 293.526 235.778 295.171 235.778 297.2V302.058C235.778 304.087 237.423 305.732 239.453 305.732H289.215C291.245 305.732 292.89 304.087 292.89 302.058V297.2C292.89 295.171 291.245 293.526 289.215 293.526Z" fill="#6C33A3"/>
<path d="M318.22 317.937H210.448C208.418 317.937 206.772 319.582 206.772 321.61V326.469C206.772 328.498 208.418 330.142 210.448 330.142H318.22C320.25 330.142 321.896 328.498 321.896 326.469V321.61C321.896 319.582 320.25 317.937 318.22 317.937Z" fill="#E6E6E6"/>
<path d="M318.22 342.348H210.448C208.418 342.348 206.772 343.992 206.772 346.021V350.88C206.772 352.909 208.418 354.553 210.448 354.553H318.22C320.25 354.553 321.896 352.909 321.896 350.88V346.021C321.896 343.992 320.25 342.348 318.22 342.348Z" fill="#E6E6E6"/>
<path d="M327.356 424.09L327.6 424.86L327.613 424.886L334.961 447.211L343.413 472.938L359.316 521.285L359.47 528.795V528.821L360.652 589.236L357.376 597.426L361.063 610.854C361.063 610.854 359.367 590.556 350.273 602.213C345.121 608.837 339.097 615.616 334.151 621.97C341.358 624.885 348.68 627.521 356.117 629.878C357.723 630.392 359.342 630.88 360.96 631.368C361.307 631.47 361.654 631.573 362.001 631.676C386.655 638.962 412.144 643.057 437.841 643.859C439.177 643.897 440.487 643.923 441.759 643.949C442.209 643.962 442.645 643.974 443.082 643.974C444.521 643.987 445.947 644 447.385 644C450.289 644 453.179 643.957 456.056 643.872C477.354 643.272 498.527 640.41 519.218 635.334C519.077 626.797 518.692 616.822 518.139 606.167C517.882 600.942 512.115 595.281 511.768 589.812C511.524 585.704 516.7 581.839 516.431 577.667C514.684 551.979 512.5 561.84 510.881 543.649C510.714 541.864 510.56 540.157 510.419 538.526C509.378 526.844 508.659 519.539 508.659 519.539L515.57 476.006L526.425 407.658L525.59 406.284L524.652 405.822L467.399 377.502L464.29 369.542C463.385 367.249 461.813 365.279 459.778 363.886C457.743 362.493 455.337 361.74 452.871 361.724L415.156 361.57C413.199 361.561 411.267 362.019 409.523 362.905C407.778 363.791 406.27 365.081 405.123 366.666L394.911 380.801L327.356 424.09Z" fill="#4D497D"/>
<path d="M368.012 510.527L359.47 528.795L353.638 541.274L343.606 593.767L338.583 599.095L334.28 580.235L289.24 590.229C287.763 582.026 288.845 590.506 287.933 581.507C288.19 581.25 288.459 580.994 288.729 580.737C289.448 580.069 290.052 579.44 290.039 578.837C289.525 547.795 291.067 494.967 303.938 462.963C305.954 457.737 308.612 452.782 311.851 448.212C312.108 447.866 312.352 447.519 312.596 447.172C318.531 438.866 322.282 430.689 327.6 424.873V424.86C327.633 424.834 327.663 424.803 327.69 424.77C327.709 424.761 327.727 424.748 327.741 424.732L364.274 405.372L365.841 449.38L366.959 481.013L368.012 510.527Z" fill="#4D497D"/>
<path d="M499.743 515.716L510.414 538.532L514.138 546.478L524.168 598.967L529.174 604.282L533.487 585.426L535.514 585.011L572.064 577.446L582.717 611.259C585.118 607.261 586.064 602.556 585.395 597.942C584.726 593.327 582.482 589.084 579.045 585.932C578.317 585.274 577.711 584.633 577.728 584.028C578.334 547.517 576.1 480.85 555.919 453.411C549.51 444.703 545.665 436.03 540.07 429.971C540.052 429.954 540.052 429.936 540.035 429.936L526.42 407.656L525.588 406.288L524.653 405.821L499.743 515.716Z" fill="#4D497D"/>
<path d="M435.102 350.843C462.813 350.843 485.277 328.393 485.277 300.699C485.277 273.005 462.813 250.554 435.102 250.554C407.392 250.554 384.927 273.005 384.927 300.699C384.927 328.393 407.392 350.843 435.102 350.843Z" fill="#FFB6B6"/>
<path d="M502.92 265.673C502.531 265.258 502.062 264.925 501.542 264.695C501.021 264.465 500.46 264.342 499.891 264.334L500.645 262.241C500.892 261.581 500.958 260.868 500.838 260.175C500.718 259.482 500.415 258.833 499.962 258.294C499.508 257.756 498.919 257.348 498.256 257.112C497.592 256.876 496.878 256.821 496.186 256.951L493.439 257.48L493.698 255.646C493.797 254.963 493.717 254.266 493.464 253.623C493.212 252.98 492.797 252.414 492.26 251.98C491.722 251.546 491.081 251.26 490.399 251.149C489.718 251.038 489.019 251.106 488.371 251.347C487.782 251.579 487.149 251.676 486.518 251.631C485.886 251.586 485.273 251.401 484.723 251.088C484.17 250.785 483.691 250.366 483.317 249.858C482.944 249.351 482.686 248.768 482.561 248.151L481.604 243.537L481.502 243.289C476.841 235.524 467.877 229.875 456.909 227.804C447.147 225.947 437.136 226.893 427.486 227.782C423.657 228.142 419.333 228.547 415.73 230.753C412.667 232.643 410.077 236.425 410.606 240.24C401.091 237.325 390.889 243.143 385.833 250.48C379.842 259.213 378.863 270.152 378.705 278.705C378.277 298.939 382.455 315.493 391.092 327.917C391.722 328.817 391.88 330.697 393.13 331.327L392.871 330.91C394.267 331.608 395.686 332.734 395.157 333.938C393.637 337.404 403.737 345.068 410.854 347.6C423.837 352.225 441.1 351.831 453.239 350.166L453.666 347.296C458.047 346.699 461.132 345.563 461.999 343.785C463.531 342.479 464.837 341.309 465.974 340.229L465.985 340.217C466.008 340.195 466.053 340.161 466.075 340.139C471.559 334.883 472.832 331.89 473.406 327.332C473.958 322.864 472.978 318.329 471.976 314.244C493.078 317.507 463.666 291.782 483.327 286.807C483.552 286.738 483.781 286.682 484.013 286.639C484.588 286.504 485.162 286.369 485.714 286.211C488.374 285.489 490.92 284.403 493.281 282.981C498.776 279.639 500.589 275.205 503.427 270.208C503.836 269.497 504.008 268.673 503.917 267.858C503.825 267.042 503.476 266.277 502.92 265.673Z" fill="#2F2E41"/>
<path d="M612.563 519.286C612.552 521.255 612.53 524.012 612.44 527.422C612.428 527.895 612.417 528.379 612.406 528.874C612.259 535.142 612.113 540.398 611.877 546.238C611.865 546.643 611.854 547.037 611.832 547.442C611.516 555.59 611.021 565.077 610.165 580.101C608.577 607.852 605.807 583.916 603.026 593.65C602.891 594.134 602.744 594.708 602.609 595.383C602.188 597.833 601.477 600.224 600.492 602.507C599.017 603.384 597.497 604.228 595.999 605.072C591.732 607.447 587.396 609.731 583.027 611.903C580.572 613.119 578.106 614.312 575.629 615.46C575.235 615.64 574.852 615.82 574.469 615.989C561.783 621.853 548.709 626.839 535.339 630.911C532.726 631.699 530.125 632.464 527.49 633.173C524.743 633.938 521.995 634.658 519.214 635.334C498.523 640.41 477.35 643.273 456.054 643.875C453.182 643.965 450.288 643.999 447.383 643.999C445.942 643.999 444.523 643.988 443.081 643.976C442.642 643.976 442.203 643.965 441.764 643.954C440.492 643.92 439.174 643.898 437.845 643.864C412.148 643.063 386.659 638.967 362.006 631.676L360.959 631.372C359.337 630.877 357.727 630.393 356.117 629.876C348.685 627.524 341.361 624.89 334.147 621.976C328.641 619.759 323.198 617.38 317.819 614.841C317.77 614.827 317.724 614.804 317.684 614.773C316.558 614.255 315.421 613.715 314.295 613.164C314.149 613.085 313.991 613.006 313.833 612.928C309.633 610.879 305.478 608.734 301.368 606.49C297.911 598.557 293.046 597.037 290.029 590.06C289.15 587.987 288.515 585.819 288.137 583.6C288.137 583.578 288.125 583.555 288.125 583.522C288.441 587.708 286.786 576.094 288.114 583.477C288.103 583.342 288.092 583.195 288.08 583.026C288.047 582.621 288.002 582.126 287.934 581.507C284.072 543.819 284.32 500.717 282.642 465.201C282.529 462.905 282.413 460.707 282.293 458.606C282.259 457.908 282.214 457.222 282.169 456.547C282.248 456.344 282.338 456.13 282.439 455.928C282.461 455.869 282.487 455.813 282.518 455.759C282.551 455.689 282.589 455.621 282.63 455.556C282.653 455.522 282.687 455.477 282.709 455.444C282.726 455.405 282.744 455.367 282.766 455.331C282.867 455.174 282.979 455.005 283.103 454.847C283.16 454.78 283.205 454.723 283.261 454.667C283.3 454.61 283.345 454.557 283.396 454.51C283.431 454.456 283.472 454.406 283.52 454.363C283.565 454.318 283.61 454.262 283.666 454.206C283.69 454.17 283.721 454.14 283.756 454.116C283.845 454.014 283.943 453.919 284.049 453.834C284.451 453.465 284.88 453.126 285.333 452.822C285.49 452.72 285.659 452.619 285.817 452.507C286.952 451.828 288.147 451.255 289.387 450.796C289.815 450.638 290.242 450.492 290.704 450.335C290.873 450.29 291.031 450.233 291.2 450.177C291.447 450.098 291.695 450.019 291.954 449.963C293.238 449.581 294.623 449.254 296.12 448.95C296.301 448.917 296.492 448.883 296.683 448.838C296.954 448.782 297.235 448.737 297.517 448.691C297.9 448.624 298.294 448.556 298.688 448.489C302.032 447.96 305.827 447.566 310.016 447.307C310.41 447.285 310.804 447.262 311.198 447.24C311.66 447.217 312.122 447.195 312.595 447.172C312.989 447.15 313.394 447.138 313.799 447.127C314.194 447.105 314.599 447.093 315.016 447.082C316.153 447.048 317.324 447.015 318.518 446.992C321.918 446.925 325.499 446.947 329.26 447.026C331.006 447.071 332.785 447.116 334.609 447.195C334.733 447.195 334.845 447.206 334.958 447.206C336.546 447.262 338.145 447.33 339.789 447.42C340.937 447.476 342.097 447.532 343.257 447.6C344.349 447.667 345.453 447.735 346.568 447.814C347.435 447.859 348.302 447.926 349.18 447.983C349.923 448.039 350.666 448.095 351.41 448.14L352.423 448.208C352.975 448.253 353.527 448.286 354.09 448.343C355.328 448.444 356.567 448.545 357.828 448.647C359.078 448.759 360.35 448.872 361.623 448.984C362.895 449.097 364.179 449.22 365.463 449.344C365.598 449.355 365.722 449.367 365.846 449.378C367.017 449.502 368.188 449.614 369.37 449.738C369.64 449.761 369.922 449.783 370.192 449.817C371.319 449.93 372.469 450.063 373.606 450.183C373.955 450.221 374.303 450.257 374.653 450.296C375.544 450.393 376.423 450.477 377.32 450.582C378.502 450.717 379.707 450.841 380.878 450.998C381.79 451.1 382.702 451.201 383.615 451.314C385.045 451.482 386.497 451.662 387.95 451.854C388.502 451.921 389.053 451.989 389.605 452.068C393.749 452.585 397.938 453.159 402.194 453.756C408.647 454.667 415.2 455.658 421.799 456.727C428.409 457.796 435.056 458.925 441.741 460.114C443.43 460.418 445.12 460.722 446.82 461.037C447.586 461.183 448.351 461.329 449.117 461.476C450.423 461.712 451.729 461.96 453.036 462.207C454.342 462.455 455.648 462.702 456.954 462.961C458.508 463.265 460.073 463.569 461.627 463.873C471.863 465.898 482.043 468.059 491.975 470.321C493.607 470.692 495.24 471.075 496.862 471.446C500.105 472.2 503.318 472.966 506.501 473.742C507.379 473.945 508.246 474.158 509.113 474.372C511.275 474.912 513.437 475.453 515.565 476.004L515.937 476.105C517.502 476.488 519.034 476.882 520.565 477.287C524.18 478.232 527.734 479.189 531.229 480.157C533.548 480.798 535.842 481.447 538.109 482.104C541.498 483.083 544.82 484.073 548.052 485.075C548.851 485.322 549.651 485.57 550.439 485.806C552.804 486.537 555.135 487.28 557.398 488.023C559.2 488.608 560.956 489.205 562.691 489.801C564.425 490.398 566.125 490.994 567.792 491.59C568.861 491.973 569.92 492.378 570.978 492.761C572.498 493.324 573.996 493.886 575.46 494.449C575.91 494.618 576.35 494.798 576.789 494.967C577.07 495.09 577.34 495.192 577.611 495.304C578.14 495.518 578.681 495.72 579.199 495.934C579.728 496.137 580.246 496.351 580.764 496.576C581.27 496.778 581.788 496.992 582.284 497.206C582.791 497.409 583.286 497.622 583.782 497.847C584.198 498.016 584.604 498.196 584.998 498.376C585.797 498.725 586.597 499.074 587.374 499.434C587.757 499.614 588.139 499.783 588.522 499.963L589.401 500.368C589.524 500.436 589.648 500.492 589.772 500.548C590.054 500.683 590.346 500.83 590.628 500.965C591.281 501.269 591.923 501.595 592.553 501.899C593.398 502.326 594.22 502.754 595.008 503.17C595.808 503.598 596.585 504.026 597.328 504.442C597.452 504.51 597.564 504.577 597.688 504.645C597.857 504.735 598.026 504.836 598.195 504.926C598.769 505.252 599.321 505.59 599.873 505.916C600.954 506.58 601.978 507.233 602.936 507.886C603.15 508.032 603.352 508.178 603.566 508.313C604.276 508.82 604.951 509.315 605.582 509.821C605.582 509.833 605.582 509.833 605.593 509.833C605.807 509.99 606.01 510.159 606.212 510.316C606.381 510.474 606.561 510.609 606.73 510.767C607.316 511.273 607.856 511.757 608.352 512.252C608.518 512.405 608.676 512.566 608.825 512.736C608.89 512.79 608.951 512.851 609.005 512.916C609.23 513.141 609.433 513.366 609.624 513.591C609.654 513.622 609.681 513.656 609.703 513.693C609.973 514.008 610.221 514.323 610.458 514.638C610.57 514.795 610.694 514.953 610.796 515.111C610.931 515.302 611.066 515.504 611.178 515.696C611.28 515.853 611.37 516.022 611.46 516.18C611.699 516.585 611.902 517.011 612.068 517.451C612.195 517.75 612.296 518.059 612.372 518.374C612.457 518.673 612.521 518.978 612.563 519.286Z" fill="#2F2E41"/>
<path opacity="0.2" d="M612.563 519.286C612.552 521.255 612.53 524.012 612.439 527.422C612.428 527.895 612.406 528.379 612.394 528.874C612.282 533.657 612.113 539.565 611.876 546.238C611.865 546.643 611.854 547.037 611.831 547.442C611.516 555.59 611.021 565.077 610.165 580.101C608.577 607.852 605.807 583.916 603.026 593.65C595.301 588.901 586.833 583.927 577.78 578.818C576.147 577.895 574.499 576.968 572.836 576.038C554.729 565.943 534.505 555.365 513.392 544.888C512.559 544.471 511.714 544.055 510.881 543.65C462.517 519.758 409.728 496.52 366.96 481.012C358.706 478.019 350.824 475.318 343.414 472.943C327.807 467.958 314.317 464.469 303.935 462.961C293.125 461.386 285.659 461.948 282.641 465.201C282.529 462.905 282.412 460.707 282.292 458.606C282.247 457.908 282.202 457.222 282.157 456.546C282.227 456.361 282.317 456.184 282.404 456.006C282.417 455.98 282.426 455.953 282.439 455.928C282.46 455.869 282.487 455.813 282.518 455.759C282.551 455.689 282.588 455.621 282.63 455.556C282.667 455.476 282.712 455.401 282.765 455.331C282.867 455.174 282.979 455.005 283.103 454.847C283.194 454.729 283.292 454.616 283.396 454.51C283.43 454.455 283.472 454.406 283.52 454.363C283.565 454.318 283.61 454.262 283.666 454.206C283.69 454.17 283.721 454.14 283.756 454.116C283.845 454.013 283.943 453.919 284.049 453.834C284.451 453.465 284.88 453.126 285.333 452.822C285.49 452.72 285.659 452.619 285.817 452.506C286.952 451.828 288.147 451.255 289.386 450.796C289.814 450.638 290.242 450.492 290.704 450.334C290.873 450.289 291.031 450.233 291.199 450.177C291.447 450.098 291.695 450.019 291.954 449.963C293.238 449.581 294.623 449.254 296.12 448.95C296.571 448.86 297.044 448.77 297.517 448.691C297.899 448.624 298.294 448.556 298.688 448.489C302.032 447.96 305.827 447.566 310.016 447.307C310.41 447.285 310.804 447.262 311.198 447.24C311.66 447.217 312.121 447.195 312.594 447.172C312.989 447.15 313.394 447.138 313.799 447.127C314.193 447.105 314.599 447.093 315.015 447.082C316.153 447.048 317.324 447.015 318.517 446.992C321.918 446.936 325.499 446.958 329.26 447.037C331.005 447.071 332.785 447.127 334.609 447.206C334.721 447.206 334.845 447.217 334.958 447.217C336.546 447.262 338.156 447.341 339.789 447.42C340.937 447.476 342.097 447.532 343.257 447.6C344.349 447.667 345.453 447.735 346.567 447.814C347.434 447.859 348.301 447.926 349.18 447.982C349.923 448.039 350.666 448.095 351.409 448.14C352.299 448.207 353.189 448.275 354.089 448.343C355.328 448.444 356.567 448.545 357.828 448.646C359.078 448.759 360.35 448.871 361.623 448.984C362.895 449.097 364.179 449.22 365.462 449.344C365.598 449.355 365.721 449.367 365.845 449.378C367.016 449.502 368.188 449.614 369.37 449.738C375.924 450.402 382.669 451.179 389.605 452.068C393.749 452.596 397.945 453.163 402.194 453.767C408.647 454.678 415.2 455.669 421.799 456.727C428.409 457.796 435.056 458.925 441.741 460.114C443.43 460.418 445.119 460.722 446.82 461.037C448.892 461.419 450.964 461.809 453.036 462.207C454.342 462.455 455.648 462.702 456.954 462.961C458.508 463.265 460.073 463.569 461.627 463.873C471.863 465.898 482.043 468.059 491.974 470.321C493.607 470.692 495.24 471.075 496.861 471.446C500.104 472.2 503.317 472.966 506.5 473.742C507.379 473.956 508.246 474.17 509.113 474.384C511.286 474.924 513.437 475.464 515.565 476.004V476.015C515.689 476.038 515.813 476.072 515.937 476.105C517.491 476.499 519.033 476.893 520.565 477.298C524.179 478.244 527.734 479.196 531.229 480.157C533.548 480.809 535.845 481.451 538.109 482.104C541.498 483.094 544.82 484.084 548.052 485.075C548.851 485.322 549.651 485.57 550.439 485.806C552.804 486.549 555.123 487.288 557.398 488.023C559.2 488.608 560.956 489.205 562.69 489.801C564.425 490.398 566.125 490.994 567.791 491.59C568.872 491.973 569.931 492.367 570.978 492.75C572.51 493.312 573.996 493.875 575.46 494.449C575.91 494.618 576.349 494.798 576.789 494.967C577.611 495.282 578.41 495.608 579.198 495.934C579.728 496.137 580.246 496.351 580.764 496.576C581.27 496.778 581.788 496.992 582.284 497.206C582.79 497.409 583.286 497.622 583.781 497.847C584.198 498.016 584.603 498.196 584.998 498.376C585.797 498.725 586.596 499.074 587.373 499.434C587.756 499.614 588.139 499.783 588.522 499.963L589.4 500.368C589.524 500.436 589.648 500.492 589.772 500.548C590.729 500.998 591.652 501.449 592.553 501.899C593.398 502.326 594.22 502.754 595.008 503.17C595.943 503.666 596.832 504.15 597.688 504.645C597.857 504.735 598.026 504.836 598.195 504.926C598.769 505.252 599.321 505.59 599.873 505.916C600.954 506.58 601.978 507.233 602.936 507.886C603.881 508.538 604.76 509.18 605.582 509.821C605.582 509.833 605.582 509.833 605.593 509.833C605.987 510.148 606.37 510.463 606.73 510.767C607.316 511.273 607.856 511.757 608.352 512.252C608.518 512.405 608.676 512.566 608.825 512.736C608.89 512.79 608.951 512.851 609.005 512.916C609.241 513.175 609.478 513.434 609.703 513.693C609.973 514.008 610.221 514.323 610.458 514.638C610.57 514.795 610.694 514.953 610.795 515.111C610.931 515.302 611.066 515.504 611.178 515.696C611.28 515.853 611.37 516.022 611.46 516.18C611.699 516.585 611.902 517.011 612.068 517.451C612.191 517.751 612.293 518.06 612.372 518.374C612.457 518.673 612.521 518.978 612.563 519.286Z" fill="black"/>
</svg>
