<svg width="61" height="44" viewBox="0 0 61 44" fill="none" xmlns="http://www.w3.org/2000/svg">
<path d="M34.5374 0.135396C34.3146 0.237167 34.0683 0.474632 33.9745 0.666866C33.5992 1.44711 21.3799 41.6239 21.3799 42.0649C21.3917 42.5285 21.6145 42.9017 22.0249 43.1052C22.1539 43.1731 22.9513 43.4106 23.7839 43.648C25.2615 44.0551 25.3201 44.0664 25.7423 43.8968C26.0355 43.7837 26.2466 43.5915 26.3638 43.3427C26.7391 42.5738 38.9701 2.37435 38.9701 1.92204C38.9701 1.26618 38.5831 0.915638 37.5277 0.621634C37.0704 0.48594 36.4489 0.316322 36.1557 0.225859C35.2175 -0.0455294 34.9478 -0.0681451 34.5374 0.135396Z" fill="#DA1111"/>
<path d="M8.22249 13.7048C2.8399 18.9064 0.260007 21.4733 0.201373 21.6769C0.166193 21.8578 0.166193 22.1292 0.201373 22.2988C0.260007 22.5136 2.8399 25.0805 8.22249 30.2708L16.1615 37.9376H16.7479H17.3225L19.2808 36.0491C21.2978 34.0929 21.4268 33.912 21.2392 33.2448C21.1689 33.0073 19.4802 31.2998 15.4931 27.4552L9.82906 21.9935L15.4931 16.5318C19.3981 12.7663 21.1806 10.9796 21.2392 10.7422C21.4386 10.0863 21.2275 9.79231 19.2339 7.88128L17.3107 6.04941H16.7361H16.1615L8.22249 13.7048Z" fill="#DA1111"/>
<path d="M41.116 7.88128C39.1225 9.79231 38.9114 10.0863 39.1107 10.7422C39.1694 10.9796 40.9519 12.7663 44.8569 16.5318L50.5209 21.9935L44.8686 27.4439C41.761 30.4518 39.1694 33.0299 39.099 33.1996C38.8645 33.8215 39.0404 34.0816 41.0691 36.0491L43.0275 37.9376H43.6021H44.1884L52.1275 30.2821C57.5101 25.0805 60.0899 22.5136 60.1486 22.2988C60.1838 22.1292 60.1838 21.8578 60.1486 21.6769C60.0899 21.4733 57.5101 18.9064 52.1275 13.7048L44.1884 6.04941H43.6138H43.0392L41.116 7.88128Z" fill="#DA1111"/>
</svg>
