<svg width="260" height="253" viewBox="0 0 260 253" fill="none" xmlns="http://www.w3.org/2000/svg">
<g clip-path="url(#clip0_1017_2353)">
<path d="M252.308 98.553C223.447 49.6036 145.159 67.0361 129.171 43.2299C120.982 31.057 111.821 16.9082 98.5333 9.56108C85.8672 2.52476 71.182 0.0561812 58.3798 0.98263C12.6601 4.29557 -6.72091 44.8013 2.06064 89.2826C13.7852 148.616 66.9008 209.228 130 209.651C163.006 209.897 194.544 198.17 219.237 181.675L219.787 181.306C244.48 164.659 274.348 135.922 252.308 98.553Z" fill="#3CCFFE"/>
<path opacity="0.7" d="M252.308 98.553C223.447 49.6036 145.159 67.0361 129.171 43.2299C120.982 31.057 111.821 16.9082 98.5333 9.56108C85.8672 2.52476 71.182 0.0561812 58.3798 0.98263C12.6601 4.29557 -6.72091 44.8013 2.06064 89.2826C13.7852 148.616 66.9008 209.228 130 209.651C163.006 209.897 194.544 198.17 219.237 181.675L219.787 181.306C244.48 164.659 274.348 135.922 252.308 98.553Z" fill="white"/>
<path d="M28.2629 102.111H25.0534C21.6094 102.111 18.3064 103.466 15.8711 105.878C13.4358 108.289 12.0676 111.56 12.0676 114.97V185.533C12.0676 188.943 13.4358 192.214 15.8711 194.625C18.3064 197.037 21.6094 198.392 25.0534 198.392H69.0855C72.5295 198.392 75.8325 197.037 78.2678 194.625C80.7031 192.214 82.0713 188.943 82.0713 185.533" stroke="#263238" stroke-width="1.1" stroke-linecap="round" stroke-linejoin="round" stroke-dasharray="4.41 4.41"/>
<path d="M78.4827 35.5304V21.5926C78.4827 19.5071 79.3181 17.5068 80.8056 16.0305C82.2932 14.5542 84.3114 13.7224 86.4174 13.7178H143.678C145.787 13.7178 147.81 14.5474 149.301 16.0243C150.793 17.5011 151.631 19.5041 151.631 21.5926" stroke="#263238" stroke-width="1.1" stroke-linecap="round" stroke-linejoin="round" stroke-dasharray="4.41 4.41"/>
<path d="M130 252.795C192.634 252.795 243.408 245.769 243.408 237.104C243.408 228.438 192.634 221.413 130 221.413C67.3668 221.413 16.5923 228.438 16.5923 237.104C16.5923 245.769 67.3668 252.795 130 252.795Z" fill="#3CCFFE"/>
<path opacity="0.5" d="M130 252.795C192.634 252.795 243.408 245.769 243.408 237.104C243.408 228.438 192.634 221.413 130 221.413C67.3668 221.413 16.5923 228.438 16.5923 237.104C16.5923 245.769 67.3668 252.795 130 252.795Z" fill="white"/>
<path d="M236.906 54.2291V159.809C236.906 163.26 235.522 166.571 233.058 169.012C230.594 171.453 227.252 172.825 223.767 172.826H36.2335C32.7481 172.825 29.4059 171.453 26.9419 169.012C24.4779 166.571 23.0937 163.26 23.0938 159.809V54.2291C23.0938 53.9183 23.0937 53.6428 23.1352 53.3144C23.366 50.03 24.8462 46.9546 27.2771 44.7085C29.708 42.4624 32.9087 41.2129 36.2335 41.2119H223.767C227.095 41.2133 230.299 42.4661 232.731 44.7171C235.162 46.9681 236.64 50.0493 236.865 53.3378C236.894 53.6193 236.906 53.9242 236.906 54.2291Z" fill="white" stroke="#263238" stroke-width="1.1" stroke-linecap="round" stroke-linejoin="round"/>
<path d="M29.4885 58.1929H231.18V155.722C231.18 158.957 229.882 162.059 227.572 164.346C225.263 166.633 222.13 167.918 218.863 167.918H41.8052C38.5386 167.918 35.4058 166.633 33.096 164.346C30.7862 162.059 29.4885 158.957 29.4885 155.722V58.1929Z" fill="#263238"/>
<path opacity="0.2" d="M231.187 58.1929V155.722C231.204 158.939 229.931 162.03 227.646 164.317C225.362 166.605 222.254 167.9 219.006 167.918H41.6699C38.4216 167.9 35.3137 166.605 33.0296 164.317C30.7455 162.03 29.4721 158.939 29.4894 155.722V58.1929H231.187Z" fill="white"/>
<path d="M236.864 53.3373H23.134C23.3649 50.053 24.8451 46.9776 27.276 44.7315C29.7068 42.4854 32.9075 41.2358 36.2323 41.2349H223.765C227.09 41.2358 230.291 42.4854 232.722 44.7315C235.153 46.9776 236.633 50.053 236.864 53.3373Z" fill="#3CCFFE" stroke="#263238" stroke-width="1.1" stroke-miterlimit="10"/>
<path d="M49.3967 47.2629C49.3967 47.7187 49.2602 48.1642 49.0045 48.5431C48.7488 48.9221 48.3854 49.2175 47.9601 49.3919C47.5349 49.5663 47.067 49.6119 46.6156 49.523C46.1641 49.4341 45.7495 49.2146 45.424 48.8923C45.0986 48.5701 44.8769 48.1595 44.7871 47.7125C44.6974 47.2655 44.7434 46.8021 44.9196 46.381C45.0957 45.96 45.394 45.6001 45.7767 45.3469C46.1594 45.0936 46.6093 44.9585 47.0696 44.9585C47.6868 44.9585 48.2787 45.2013 48.7151 45.6334C49.1515 46.0656 49.3967 46.6517 49.3967 47.2629Z" fill="#263238"/>
<path d="M59.2385 47.2629C59.2385 47.7187 59.102 48.1642 58.8463 48.5431C58.5906 48.9221 58.2271 49.2175 57.8019 49.3919C57.3767 49.5663 56.9088 49.6119 56.4574 49.523C56.0059 49.4341 55.5913 49.2146 55.2658 48.8923C54.9404 48.5701 54.7187 48.1595 54.6289 47.7125C54.5392 47.2655 54.5852 46.8021 54.7614 46.381C54.9375 45.96 55.2358 45.6001 55.6185 45.3469C56.0012 45.0936 56.4511 44.9585 56.9114 44.9585C57.5286 44.9585 58.1205 45.2013 58.5569 45.6334C58.9933 46.0656 59.2385 46.6517 59.2385 47.2629Z" fill="#263238"/>
<path d="M66.7524 49.5673C68.0377 49.5673 69.0796 48.5356 69.0796 47.2629C69.0796 45.9902 68.0377 44.9585 66.7524 44.9585C65.4672 44.9585 64.4253 45.9902 64.4253 47.2629C64.4253 48.5356 65.4672 49.5673 66.7524 49.5673Z" fill="#263238"/>
<path d="M231.18 58.1929V155.722C231.18 158.957 229.882 162.059 227.573 164.346C225.263 166.633 222.13 167.918 218.863 167.918H41.8114C38.9604 167.918 36.1979 166.938 33.995 165.146C31.7922 163.354 30.2854 160.86 29.7316 158.091V158.056C29.5811 157.283 29.5057 156.498 29.5066 155.71V58.1929H231.18Z" stroke="#263238" stroke-width="1.1" stroke-miterlimit="10"/>
<path d="M230.99 73.2744C230.127 72.7942 229.209 72.4182 228.255 72.1544L227.147 67.2583H222.446L221.35 72.1544C220.391 72.4135 219.468 72.7897 218.603 73.2744L214.357 70.583L211.035 73.8607L213.706 78.0649C213.217 78.9221 212.837 79.836 212.575 80.7856L207.63 81.8704V86.5261L212.575 87.6226C212.834 88.5769 213.214 89.495 213.706 90.355L210.988 94.5885L214.316 97.878L218.585 95.1866C219.449 95.6721 220.369 96.0502 221.327 96.3124L222.428 101.203H227.112L228.213 96.3124C229.168 96.0476 230.086 95.6696 230.949 95.1866L231.168 95.3274V73.1571L230.99 73.2744ZM224.808 90.2788C223.607 90.2788 222.432 89.9258 221.432 89.2645C220.433 88.6032 219.655 87.6633 219.195 86.5636C218.735 85.464 218.615 84.2541 218.85 83.0869C219.085 81.9197 219.664 80.8478 220.515 80.0067C221.365 79.1655 222.448 78.593 223.627 78.3616C224.806 78.1301 226.027 78.2501 227.138 78.7063C228.248 79.1626 229.196 79.9346 229.863 80.9247C230.53 81.9148 230.885 83.0785 230.884 84.2686C230.884 85.0584 230.727 85.8404 230.421 86.57C230.116 87.2995 229.668 87.9624 229.104 88.5205C228.54 89.0787 227.87 89.5213 227.133 89.823C226.396 90.1247 225.606 90.2796 224.808 90.2788Z" fill="#263238"/>
<path d="M146.255 77.9943V68.1786L135.833 65.8859C135.271 63.8918 134.476 61.9693 133.464 60.1572L134.726 58.1929H85.5182L86.7321 60.1044C85.7084 61.9085 84.9129 63.8306 84.3635 65.8273L73.9358 68.1258V77.9649L84.3635 80.2693C84.9129 82.2809 85.7083 84.2185 86.7321 86.0391L81.006 94.9577L88.023 101.9L97.0236 96.2242C98.8495 97.2413 100.792 98.0385 102.809 98.599L105.13 108.89H115.019L117.352 98.5755C119.363 98.0124 121.299 97.2153 123.12 96.2007L132.126 101.877L139.137 94.9342L133.447 86.0157C134.455 84.2064 135.25 82.2881 135.815 80.2986L146.255 77.9943ZM110.134 85.7694C107.601 85.7694 105.124 85.0255 103.018 83.6319C100.912 82.2383 99.27 80.2575 98.3006 77.94C97.3311 75.6225 97.0775 73.0723 97.5717 70.6121C98.0659 68.1518 99.2858 65.892 101.077 64.1182C102.868 62.3445 105.15 61.1365 107.635 60.6472C110.12 60.1578 112.695 60.4089 115.035 61.3689C117.376 62.3288 119.376 63.9544 120.783 66.0401C122.191 68.1258 122.942 70.578 122.942 73.0864C122.943 74.7522 122.612 76.4018 121.969 77.9409C121.325 79.48 120.382 80.8785 119.192 82.0564C118.003 83.2342 116.59 84.1684 115.036 84.8055C113.482 85.4426 111.816 85.7702 110.134 85.7694Z" fill="#263238"/>
<path d="M80.4843 145.396L80.9047 137.603L72.7508 135.328C72.3723 133.727 71.8121 132.173 71.081 130.696L76.0076 123.847L70.7257 118.048L63.3475 122.153C61.9372 121.274 60.4291 120.56 58.8531 120.024L57.4438 111.745L49.5801 111.387L47.3062 119.485C45.6861 119.845 44.1156 120.396 42.6283 121.127L35.7179 116.254L29.8497 121.478L34.0303 128.79C33.1341 130.181 32.4104 131.673 31.8749 133.235L29.5063 133.622V144.176L31.2354 144.657C31.5941 146.264 32.1488 147.821 32.8874 149.295L29.4885 154.016L29.7135 158.056V158.091L33.225 161.943L40.615 157.809C42.0228 158.706 43.5361 159.429 45.1212 159.961L46.5068 167.912L46.572 168.247L54.4357 168.657L54.6429 167.912L56.7095 160.565C58.3369 160.204 59.9152 159.653 61.4112 158.923L68.3097 163.79L74.172 158.572L70.0269 151.254C70.9148 149.865 71.6287 148.375 72.1527 146.815L80.4843 145.396ZM59.5992 133.229C58.2522 131.745 56.4911 130.691 54.5386 130.198C52.5861 129.706 50.5301 129.798 48.6305 130.463C46.7309 131.128 45.0732 132.336 43.8671 133.934C42.6609 135.532 41.9605 137.449 41.8544 139.441C41.7483 141.433 42.2414 143.412 43.2712 145.127C44.301 146.842 45.8212 148.215 47.6397 149.074C49.4581 149.934 51.493 150.239 53.4869 149.953C55.4808 149.667 57.3442 148.801 58.8413 147.466C60.8402 145.678 62.0422 143.178 62.1842 140.514C62.3263 137.85 61.3968 135.239 59.5992 133.253V133.229Z" fill="#263238"/>
<path d="M143.382 133.78C143.686 132.574 143.847 131.336 143.862 130.092L149.517 127.16L147.954 121.479L141.57 121.772C140.924 120.71 140.155 119.726 139.279 118.84L141.168 112.795L136.016 109.863L131.705 114.519C130.489 114.228 129.243 114.07 127.992 114.049L125.032 108.45L119.3 109.992L119.602 116.319C118.529 116.959 117.535 117.72 116.641 118.588L110.53 116.717L107.569 121.813L112.306 126.076C112 127.278 111.843 128.512 111.838 129.752L106.172 132.684L107.735 138.36L114.13 138.061C114.764 139.128 115.53 140.113 116.41 140.993L114.509 147.009L119.667 149.941L123.954 145.32C125.172 145.624 126.423 145.779 127.678 145.783L130.639 151.389L136.371 149.847L136.117 144.44L136.075 143.514C137.163 142.88 138.169 142.118 139.071 141.245L145.176 143.121L147.699 138.759L148.125 138.02L143.382 133.78ZM129.84 137.228C128.37 137.63 126.813 137.59 125.366 137.114C123.919 136.637 122.647 135.746 121.712 134.554C120.777 133.361 120.221 131.92 120.114 130.414C120.007 128.908 120.355 127.404 121.112 126.094C121.87 124.783 123.003 123.725 124.369 123.053C125.734 122.381 127.27 122.126 128.783 122.32C130.295 122.515 131.715 123.149 132.862 124.143C134.01 125.137 134.833 126.447 135.228 127.905C135.755 129.849 135.484 131.92 134.474 133.666C133.465 135.413 131.799 136.693 129.84 137.228Z" fill="#263238"/>
<path d="M208.945 143.772L210.248 135.974L202.278 132.801C202.097 131.139 201.713 129.505 201.135 127.935L206.873 121.608L202.23 115.158L194.319 118.483C193.006 117.44 191.571 116.558 190.044 115.856L189.582 107.359L181.707 106.069L178.479 113.927C176.808 114.121 175.165 114.505 173.582 115.07L167.175 109.388L160.691 113.985L164.055 121.813C163.129 122.957 162.325 124.193 161.656 125.501C161.568 125.683 161.473 125.865 161.39 126.047L152.816 126.516L151.507 134.303L152.798 134.819L159.477 137.487C159.66 139.141 160.043 140.767 160.62 142.33L154.87 148.698L159.519 155.148L167.424 151.805C168.733 152.857 170.167 153.747 171.693 154.456L172.137 162.911L180.007 164.201L183.228 156.402C184.903 156.221 186.55 155.839 188.131 155.265L194.527 160.947L201.04 156.344L197.677 148.51C198.748 147.208 199.653 145.78 200.371 144.259L208.945 143.772ZM186.858 143.42C185.201 144.598 183.229 145.262 181.191 145.329C179.153 145.396 177.141 144.863 175.409 143.798C173.677 142.732 172.302 141.182 171.46 139.343C170.618 137.505 170.345 135.46 170.676 133.467C171.007 131.475 171.928 129.625 173.321 128.15C174.715 126.676 176.518 125.644 178.504 125.185C180.49 124.726 182.569 124.86 184.477 125.571C186.386 126.281 188.039 127.537 189.227 129.178C190.818 131.379 191.462 134.116 191.015 136.787C190.569 139.458 189.069 141.844 186.846 143.42H186.858Z" fill="#263238"/>
<path d="M102.217 86.0396H40.2899C36.0025 86.0396 32.5269 89.4812 32.5269 93.7267V178.626C32.5269 182.871 36.0025 186.313 40.2899 186.313H102.217C106.504 186.313 109.98 182.871 109.98 178.626V93.7267C109.98 89.4812 106.504 86.0396 102.217 86.0396Z" fill="#3CCFFE" stroke="#263238" stroke-width="1.1" stroke-miterlimit="10"/>
<path opacity="0.2" d="M102.217 86.0396H40.2899C36.0025 86.0396 32.5269 89.4812 32.5269 93.7267V178.626C32.5269 182.871 36.0025 186.313 40.2899 186.313H102.217C106.504 186.313 109.98 182.871 109.98 178.626V93.7267C109.98 89.4812 106.504 86.0396 102.217 86.0396Z" fill="black"/>
<path d="M117.186 101.302V186.201C117.187 187.211 116.987 188.212 116.597 189.145C116.207 190.078 115.635 190.927 114.915 191.641C114.194 192.355 113.338 192.922 112.395 193.309C111.453 193.696 110.443 193.895 109.423 193.895H47.4964C46.4769 193.894 45.4676 193.694 44.526 193.307C43.5845 192.92 42.7291 192.353 42.0088 191.639C41.2885 190.925 40.7173 190.077 40.3279 189.144C39.9385 188.211 39.7385 187.211 39.7393 186.201V101.302C39.7393 99.2647 40.5563 97.3103 42.0109 95.8688C43.4655 94.4274 45.4385 93.6168 47.4964 93.6152H109.423C111.482 93.6152 113.457 94.4251 114.912 95.8668C116.368 97.3084 117.186 99.2636 117.186 101.302Z" fill="white" stroke="#263238" stroke-width="1.1" stroke-linecap="round" stroke-linejoin="round"/>
<path d="M117.186 101.302V105.847H39.7393V101.302C39.7393 99.2647 40.5563 97.3103 42.0109 95.8688C43.4655 94.4274 45.4385 93.6168 47.4964 93.6152H109.423C111.482 93.6152 113.457 94.4251 114.912 95.8668C116.368 97.3084 117.186 99.2636 117.186 101.302Z" fill="#3CCFFE" stroke="#263238" stroke-width="1.1" stroke-miterlimit="10"/>
<path d="M66.0717 111.112H47.0164V114.279H66.0717V111.112Z" fill="#3CCFFE"/>
<path d="M66.0717 139.486H47.0164V142.653H66.0717V139.486Z" fill="#3CCFFE"/>
<path d="M66.0717 165.216H47.0164V168.382H66.0717V165.216Z" fill="#3CCFFE"/>
<path d="M101.133 118.946H47.0164V121.268H101.133V118.946Z" fill="#263238"/>
<path d="M91.3741 123.391H47.0164V125.654H91.3741V123.391Z" fill="#263238"/>
<path d="M97.1831 127.759H47.0164V130.023H97.1831V127.759Z" fill="#263238"/>
<path d="M97.1831 132.122H47.0164V134.385H97.1831V132.122Z" fill="#263238"/>
<path d="M101.133 144.676H47.0164V146.998H101.133V144.676Z" fill="#263238"/>
<path d="M91.3741 149.12H47.0164V151.383H91.3741V149.12Z" fill="#263238"/>
<path d="M97.1831 153.489H47.0164V155.752H97.1831V153.489Z" fill="#263238"/>
<path d="M101.133 172.933H47.0164V175.255H101.133V172.933Z" fill="#263238"/>
<path d="M91.3741 177.377H47.0164V179.64H91.3741V177.377Z" fill="#263238"/>
<path d="M97.1831 181.746H47.0164V184.009H97.1831V181.746Z" fill="#263238"/>
<path d="M204.474 34.7449V69.0587C204.474 70.2627 204.235 71.4549 203.769 72.5672C203.304 73.6796 202.621 74.6901 201.761 75.5412C200.901 76.3924 199.88 77.0673 198.757 77.5275C197.633 77.9878 196.429 78.2243 195.213 78.2235H115.404C114.188 78.2243 112.983 77.9878 111.86 77.5275C110.736 77.0673 109.715 76.3924 108.855 75.5412C107.995 74.6901 107.313 73.6796 106.847 72.5672C106.382 71.4549 106.142 70.2627 106.142 69.0587V34.7449C106.144 32.3132 107.12 29.9815 108.857 28.262C110.593 26.5425 112.948 25.5758 115.404 25.5742H195.213C197.669 25.5742 200.025 26.5404 201.762 28.2602C203.499 29.9801 204.474 32.3127 204.474 34.7449Z" fill="white" stroke="#222221" stroke-width="1.1" stroke-miterlimit="10"/>
<path d="M204.474 34.7449V35.5306H106.142V34.7449C106.144 32.3132 107.12 29.9815 108.857 28.262C110.593 26.5425 112.948 25.5758 115.404 25.5742H195.213C197.669 25.5742 200.025 26.5404 201.762 28.2602C203.499 29.9801 204.474 32.3127 204.474 34.7449Z" fill="#3CCFFE" stroke="#263238" stroke-width="1.1" stroke-miterlimit="10"/>
<path d="M120.591 32.1941C120.392 32.3913 120.139 32.5256 119.863 32.5802C119.587 32.6348 119.302 32.6071 119.042 32.5007C118.782 32.3943 118.56 32.2139 118.403 31.9824C118.247 31.7509 118.164 31.4787 118.164 31.2002C118.164 30.9218 118.247 30.6495 118.403 30.418C118.56 30.1865 118.782 30.0062 119.042 29.8998C119.302 29.7934 119.587 29.7657 119.863 29.8203C120.139 29.8748 120.392 30.0092 120.591 30.2064C120.855 30.4709 121.003 30.8281 121.003 31.2002C121.003 31.5724 120.855 31.9296 120.591 32.1941Z" fill="#263238"/>
<path d="M127.176 32.1941C126.977 32.3913 126.724 32.5256 126.448 32.5802C126.173 32.6348 125.887 32.6071 125.627 32.5007C125.367 32.3943 125.145 32.2139 124.989 31.9824C124.832 31.7509 124.749 31.4787 124.749 31.2002C124.749 30.9218 124.832 30.6495 124.989 30.418C125.145 30.1865 125.367 30.0062 125.627 29.8998C125.887 29.7934 126.173 29.7657 126.448 29.8203C126.724 29.8748 126.977 30.0092 127.176 30.2064C127.44 30.4709 127.589 30.8281 127.589 31.2002C127.589 31.5724 127.44 31.9296 127.176 32.1941Z" fill="#263238"/>
<path d="M133.76 32.1941C133.562 32.3913 133.308 32.5256 133.033 32.5802C132.757 32.6348 132.471 32.6071 132.211 32.5007C131.951 32.3943 131.729 32.2139 131.573 31.9824C131.416 31.7509 131.333 31.4787 131.333 31.2002C131.333 30.9218 131.416 30.6495 131.573 30.418C131.729 30.1865 131.951 30.0062 132.211 29.8998C132.471 29.7934 132.757 29.7657 133.033 29.8203C133.308 29.8748 133.562 30.0092 133.76 30.2064C134.025 30.4709 134.173 30.8281 134.173 31.2002C134.173 31.5724 134.025 31.9296 133.76 32.1941Z" fill="#263238"/>
<path d="M144.555 41.8398H112.413V69.3519H144.555V41.8398Z" stroke="#263238" stroke-width="1.1" stroke-linecap="round" stroke-linejoin="round" stroke-dasharray="4.41 4.41"/>
<path d="M186.503 41.8398H149.511V43.7748H186.503V41.8398Z" fill="#263238"/>
<path d="M177.887 45.8447H149.511V47.7738H177.887V45.8447Z" fill="#263238"/>
<path d="M191.761 49.832H149.511V51.7846H191.761V49.832Z" fill="#263238"/>
<path d="M185.49 53.7197H149.511V55.6723H185.49V53.7197Z" fill="#263238"/>
<path d="M157.748 234.213C157.748 234.213 140.576 239.085 138.178 239.93C135.999 240.692 130.089 242.744 125.654 242.105C125.226 242.044 124.802 241.954 124.387 241.835C119.892 240.51 117.873 239.273 117.281 236.476C116.689 233.679 118.927 231.615 121.082 230.296C123.238 228.977 134.927 227.599 134.927 227.599L137.751 228.42L157.748 234.213Z" fill="#3CCFFE"/>
<path d="M125.654 242.105C125.226 242.044 124.802 241.954 124.387 241.835C119.892 240.51 117.873 239.273 117.281 236.476C116.689 233.679 118.927 231.615 121.082 230.296C123.238 228.977 134.927 227.599 134.927 227.599L137.751 228.42C135.193 229.592 125.672 230.231 123.593 231.416C121.515 232.6 120.514 234.828 121.74 237.866C122.397 239.449 124.15 241.003 125.654 242.105Z" fill="white"/>
<path d="M155.166 234.905C155.166 234.905 142.269 238.212 137.153 240.329C132.037 242.446 122.284 243.372 118.797 239.009C115.309 234.647 118.394 230.882 121.87 230.044C125.346 229.205 132.374 227.886 136.212 228.42" stroke="#263238" stroke-width="1.1" stroke-linecap="round" stroke-linejoin="round"/>
<path d="M125.909 241.876C125.909 241.876 119.348 238.311 121.527 233.316C123.137 229.633 131.889 230.431 136.224 228.419" stroke="#263238" stroke-width="1.1" stroke-linecap="round" stroke-linejoin="round"/>
<path d="M210.053 242.897C209.875 244.656 209.253 246.304 207.477 247.342C206.293 248.033 204.611 248.444 202.201 248.42C196.179 248.344 184.857 244.081 184.857 244.081L174.257 238.276L179.77 229.639L181.28 227.294L185.177 228.162C185.177 228.162 188.404 229.974 191.649 231.416C194.894 232.858 202.775 233.175 205.552 235.386C208.33 237.596 210.355 240 210.053 242.897Z" fill="#3CCFFE"/>
<path d="M210.052 242.897C209.875 244.656 209.253 246.304 207.477 247.342C207.988 245.612 207.884 243.761 207.181 242.1C205.996 239.467 202.141 237.145 197.073 236.758C192.004 236.371 188.125 234.025 186.094 232.976C184.507 232.161 181.162 230.378 179.77 229.639L181.28 227.294L185.176 228.162C185.176 228.162 188.404 229.974 191.648 231.416C194.893 232.859 202.775 233.175 205.552 235.386C208.329 237.596 210.354 240 210.052 242.897Z" fill="white"/>
<path d="M176.609 239.906C184.238 244.298 192.671 247.15 201.42 248.297C203.35 248.526 205.594 248.561 206.885 247.124C207.229 246.709 207.484 246.23 207.637 245.716C207.789 245.201 207.836 244.661 207.773 244.128C207.542 241.431 205.251 239.296 202.74 238.223C200.229 237.15 197.464 236.904 194.793 236.312C192.137 235.719 189.57 234.789 187.155 233.544C185.236 232.553 183.383 231.351 181.269 230.906C179.155 230.46 176.638 230.999 175.507 232.829" stroke="#263238" stroke-width="1.1" stroke-linecap="round" stroke-linejoin="round"/>
<path d="M206.174 247.857C207.166 247.387 208.034 246.693 208.707 245.832C209.381 244.971 209.841 243.966 210.053 242.897C210.438 240.358 208.975 237.801 206.92 236.241C204.866 234.682 202.29 233.943 199.75 233.421C197.209 232.899 194.61 232.547 192.176 231.592C188.463 230.149 184.798 227.311 180.925 228.326" stroke="#263238" stroke-width="1.1" stroke-linecap="round" stroke-linejoin="round"/>
<path d="M188.569 149.067L170.633 142.313L170.408 142.225C170.408 142.225 170.473 141.756 170.526 141.052C170.639 139.633 170.698 137.323 170.023 136.543C169.022 135.37 166.192 136.355 163.426 135.1C160.661 133.846 155.551 136.091 155.551 136.091C155.551 136.091 151.856 135.417 150.222 138.056C149.393 140.184 149.677 143.333 149.677 143.333L149.339 143.45C147.202 144.242 135.572 148.575 133.114 150.316C130.396 152.222 127.388 171.789 126.423 177.535C125.458 183.282 123.741 188.459 124.611 190.435C125.482 192.411 137.976 201.94 145.165 204.396C152.353 206.853 177.845 206.155 177.845 206.155C177.845 206.155 178.26 206.044 179 205.809C183.311 204.437 198.606 198.773 206.724 185.475C206.736 185.498 198.872 159.974 188.569 149.067ZM140.108 181.98C138.787 182.906 139.516 186.495 139.516 186.495L137.271 184.536L142.908 170.81L145.313 181.364C145.313 181.364 141.428 181.059 140.108 181.98ZM185.206 190.699C184.584 191.016 186.982 184.419 185.845 182.924C184.708 181.429 181.28 181.569 181.28 181.569L181.57 179.769L183.601 169.449L184.276 168.658C184.276 168.658 191.251 180.496 192.501 184.671C192.501 184.683 184.898 190.699 185.206 190.699Z" fill="#3CCFFE"/>
<path d="M154.704 106.257L145.443 115.991C145.443 115.991 144.17 117.111 144.673 119.931C145.177 122.752 146.361 125.208 147.255 125.373C147.963 125.495 148.68 125.558 149.399 125.56C149.399 125.56 151.382 129.817 152.792 131.488C152.792 131.488 153.277 138.062 153.017 139.885C153.017 139.885 156.345 142.764 159.477 143.128C162.61 143.491 167.447 138.742 167.447 138.742L168.632 132.925C168.632 132.925 171.474 128.656 171.663 127.519C171.853 126.381 173.156 126.674 173.795 126.111C174.435 125.549 175.909 123.045 176.164 120.676C176.418 118.307 176.424 115.586 173.647 116.384C171.237 115.745 172.747 110.702 172.747 110.702L168.513 107.008L154.704 106.257Z" fill="white"/>
<path opacity="0.5" d="M170.634 142.313C170.494 142.675 170.334 143.029 170.154 143.374C168.626 146.224 161.971 151.659 161.971 151.659L159.957 145.532L158.856 151.659C156.635 150.697 149.861 144.887 149.861 144.887C149.861 144.887 149.63 144.341 149.352 143.491L149.689 143.374C149.689 143.374 149.405 140.202 150.234 138.097C151.857 135.458 155.564 136.132 155.564 136.132C155.564 136.132 160.674 133.887 163.439 135.141C166.204 136.396 169.035 135.423 170.036 136.584C171.036 137.745 170.421 142.248 170.421 142.248L170.634 142.313Z" fill="white"/>
<path opacity="0.2" d="M188.57 149.067L170.634 142.312L170.409 142.224C170.409 142.224 170.474 141.755 170.527 141.052L170.154 143.356L167.501 146.921C170.337 147.955 173.106 149.161 175.791 150.533C177.077 151.215 178.126 152.264 178.802 153.544C179.477 154.824 179.749 156.276 179.581 157.71L176.277 185.709L174.921 201.605L179.012 205.809C183.323 204.437 198.618 198.773 206.737 185.474C206.737 185.498 198.873 159.974 188.57 149.067ZM185.206 190.699C184.585 191.016 186.983 184.419 185.846 182.924C184.709 181.429 181.28 181.569 181.28 181.569L181.571 179.769L183.602 169.449L184.277 168.658C184.277 168.658 191.252 180.496 192.502 184.671C192.502 184.683 184.898 190.699 185.206 190.699Z" fill="black"/>
<path opacity="0.2" d="M146.503 182.924L143.714 173.694C143.714 173.694 138.711 156.801 135.282 152.638L136.182 164.518C136.182 164.518 133.222 178.708 130.515 182.924C127.809 187.14 127.205 188.201 130.515 188.201C133.826 188.201 141.885 194.557 141.885 194.557L141.263 189.28L146.503 182.924ZM139.475 186.495L137.23 184.536L142.868 170.809L145.272 181.364C145.272 181.364 141.411 181.077 140.09 181.997C138.77 182.918 139.475 186.495 139.475 186.495Z" fill="black"/>
<path d="M152.792 131.488C152.792 131.488 153.299 136.466 152.792 138.742" stroke="#263238" stroke-width="1.1" stroke-linecap="round" stroke-linejoin="round"/>
<path d="M167.962 138.073C167.968 136.473 168.154 134.877 168.519 133.318" stroke="#263238" stroke-width="1.1" stroke-linecap="round" stroke-linejoin="round"/>
<path d="M169.307 109.969C169.307 109.969 172.35 113.751 172.19 116.612C172.03 119.474 171.805 122.863 171.882 126.182C171.959 129.5 166.5 136.455 163.693 137.07C160.886 137.686 158.47 137.844 156.676 136.068C154.882 134.291 153.088 131.822 150.755 128.656C148.422 125.49 148.978 118.541 148.978 118.541" stroke="#263238" stroke-width="1.1" stroke-linecap="round" stroke-linejoin="round"/>
<path d="M161.977 121.186C161.791 122.225 161.712 123.28 161.74 124.335C161.679 125.224 161.958 126.103 162.521 126.798C162.859 127.138 163.344 127.413 163.41 127.882C163.408 128.093 163.349 128.3 163.238 128.481C163.128 128.661 162.97 128.809 162.782 128.908C162.402 129.098 162.036 129.314 161.686 129.553" stroke="#263238" stroke-width="1.1" stroke-linecap="round" stroke-linejoin="round"/>
<path d="M157.162 129.917C157.162 129.917 157.511 132.163 160.549 132.632" stroke="#263238" stroke-width="1.1" stroke-linecap="round" stroke-linejoin="round"/>
<path d="M157.476 122.898C157.476 123.549 157.192 124.071 156.843 124.071C156.493 124.071 156.209 123.549 156.209 122.898C156.209 122.247 156.493 121.726 156.843 121.726C157.192 121.726 157.476 122.253 157.476 122.898Z" fill="#263238"/>
<path d="M166.542 123.18C166.542 123.83 166.258 124.352 165.908 124.352C165.559 124.352 165.275 123.825 165.275 123.18C165.275 122.535 165.559 122.007 165.908 122.007C166.258 122.007 166.542 122.529 166.542 123.18Z" fill="#263238"/>
<path d="M164.712 120.336C164.712 120.336 167.672 117.404 170.153 120.676" stroke="#263238" stroke-width="2.21" stroke-linecap="round" stroke-linejoin="round"/>
<path d="M158.476 120.394C158.476 120.394 156.605 118.319 153.656 120.394" stroke="#263238" stroke-width="2.21" stroke-linecap="round" stroke-linejoin="round"/>
<path d="M153.017 134.256C153.017 134.256 154.823 139.181 158.856 140.583C162.888 141.984 168.241 134.719 168.241 134.719L167.963 133.775C167.963 133.775 164.452 138.29 160.549 137.522C156.647 136.754 152.792 131.512 152.792 131.512L153.017 134.256Z" fill="#263238"/>
<path d="M149.399 125.373C149.399 125.373 146.995 126.211 146.355 124.358C145.716 122.505 143.525 117.621 145.443 115.991C147.362 114.361 148.902 118.143 148.902 118.143" stroke="#263238" stroke-width="1.1" stroke-linecap="round" stroke-linejoin="round"/>
<path d="M171.877 126.381C171.877 126.381 174.109 126.826 174.749 124.973C175.388 123.121 177.579 118.236 175.661 116.606C173.742 114.976 172.202 118.758 172.202 118.758" stroke="#263238" stroke-width="1.1" stroke-linecap="round" stroke-linejoin="round"/>
<path d="M148.901 122.898C149.736 122.768 150.49 122.327 151.009 121.667C151.326 121.087 151.527 120.452 151.601 119.796C151.821 118.549 151.932 117.286 151.933 116.02C151.907 115.526 151.953 115.03 152.069 114.548C152.247 114.064 152.521 113.619 152.875 113.241C153.709 112.267 154.722 111.446 155.521 110.438C155.95 109.962 156.276 109.405 156.48 108.8C156.683 108.195 156.76 107.555 156.706 106.92C158.538 108.415 160.678 109.496 162.977 110.084C165.276 110.673 167.677 110.755 170.011 110.327C174.245 109.506 178.301 105.829 177.81 101.209C177.717 100.434 177.382 99.7075 176.851 99.1312C176.32 98.5549 175.62 98.1577 174.849 97.9954C172.759 97.4794 170.882 98.5817 168.987 99.2912C165.535 100.581 162.153 98.3648 158.666 97.9954C155.705 97.6729 152.016 98.0423 150.465 100.98C150.465 100.98 145.135 101.601 142.767 105.964C140.398 110.327 144.881 116.36 144.881 116.36C144.881 116.36 146.657 114.202 148.984 118.565L148.901 122.898Z" fill="#263238"/>
<path d="M169.674 108.855C169.674 108.855 168.288 116.008 171.906 119.474C171.906 119.474 172.7 117.322 173.499 116.794C174.076 115.524 174.32 114.132 174.209 112.744C174.098 111.356 173.636 110.019 172.866 108.855C170.189 104.692 169.674 108.855 169.674 108.855Z" fill="#263238"/>
<path opacity="0.2" d="M176.27 100.716C175.952 101.692 175.414 102.584 174.696 103.322C173.977 104.061 173.098 104.628 172.125 104.979C167.104 107.008 162.23 104.762 157.197 104.322C153.094 103.959 148.564 107.629 148.273 111.804" stroke="white" stroke-width="1.1" stroke-linecap="round" stroke-linejoin="round"/>
<path opacity="0.2" d="M145.177 110.702C145.238 109.054 145.772 107.458 146.716 106.1C147.66 104.742 148.974 103.678 150.506 103.032" stroke="white" stroke-width="1.1" stroke-linecap="round" stroke-linejoin="round"/>
<path d="M151.631 138.073C153.839 140.352 156.503 142.149 159.453 143.35C159.453 143.35 165.464 141.621 168.519 137.487" stroke="#263238" stroke-width="1.1" stroke-linecap="round" stroke-linejoin="round"/>
<path d="M157.768 127.667C160.437 126.454 161.609 123.329 160.384 120.686C159.16 118.042 156.004 116.882 153.334 118.095C150.665 119.307 149.493 122.433 150.718 125.076C151.942 127.719 155.099 128.879 157.768 127.667Z" stroke="#263238" stroke-width="1.1" stroke-linecap="round" stroke-linejoin="round"/>
<path d="M168.077 128.13C170.992 127.776 173.065 125.149 172.707 122.262C172.349 119.376 169.696 117.323 166.781 117.678C163.866 118.032 161.793 120.659 162.151 123.546C162.509 126.432 165.162 128.485 168.077 128.13Z" stroke="#263238" stroke-width="1.1" stroke-linecap="round" stroke-linejoin="round"/>
<path d="M152.791 136.109C152.253 136.249 151.748 136.495 151.307 136.833C150.867 137.17 150.5 137.592 150.227 138.073C149.286 139.715 149.854 144.881 149.854 144.881C149.854 144.881 154.716 149.642 158.855 151.653L160.075 144.857L161.97 151.653C161.97 151.653 168.377 147.168 170.153 143.374C170.153 143.374 170.745 138.947 170.153 137.51C170.019 137.111 169.762 136.763 169.42 136.515C169.077 136.266 168.665 136.128 168.241 136.121" stroke="#263238" stroke-width="1.1" stroke-linecap="round" stroke-linejoin="round"/>
<path d="M145.177 181.575C145.177 181.575 143.276 168.968 140.748 163.826" stroke="#263238" stroke-width="1.1" stroke-linecap="round" stroke-linejoin="round"/>
<path d="M135.282 152.638C136.755 154.71 138.069 156.887 139.214 159.153" stroke="#263238" stroke-width="1.1" stroke-linecap="round" stroke-linejoin="round"/>
<path d="M185.206 162.049C185.717 159.942 186.416 157.883 187.296 155.898" stroke="#263238" stroke-width="1.1" stroke-linecap="round" stroke-linejoin="round"/>
<path d="M181.281 181.575C181.281 181.575 182.648 172.932 184.283 165.814" stroke="#263238" stroke-width="1.1" stroke-linecap="round" stroke-linejoin="round"/>
<path d="M183.602 169.438C184.924 167.702 186.783 166.442 188.896 165.849" stroke="#263238" stroke-width="1.1" stroke-linecap="round" stroke-linejoin="round"/>
<path d="M170.415 142.225C170.415 142.225 181.446 146.593 188.57 149.073C188.57 149.073 197.334 157.23 206.731 185.498C206.731 185.498 198.121 199.84 181.742 204.437" stroke="#263238" stroke-width="1.1" stroke-linecap="round" stroke-linejoin="round"/>
<path d="M184.585 191.209L192.502 184.683C192.502 184.683 196.688 181.534 201.04 183.686" stroke="#263238" stroke-width="1.1" stroke-linecap="round" stroke-linejoin="round"/>
<path d="M184.283 168.658C184.283 168.658 190.826 178.233 192.502 184.683" stroke="#263238" stroke-width="1.1" stroke-linecap="round" stroke-linejoin="round"/>
<path d="M139.563 186.858L137.248 184.683C137.248 184.683 133.813 184.097 129.917 186.671" stroke="#263238" stroke-width="1.1" stroke-linecap="round" stroke-linejoin="round"/>
<path d="M137.248 184.683C137.248 184.683 140.126 175.301 142.962 170.499" stroke="#263238" stroke-width="1.1" stroke-linecap="round" stroke-linejoin="round"/>
<path d="M149.69 143.374C149.69 143.374 133.814 149.273 132.257 150.997C130.699 152.721 124.784 185.703 124.624 189.48C124.488 192.857 136.852 200.439 142.98 203.634" stroke="#263238" stroke-width="1.1" stroke-linecap="round" stroke-linejoin="round"/>
<path d="M207.163 119.902H189.073C186.937 119.902 185.206 121.616 185.206 123.731V134.244C185.206 136.359 186.937 138.073 189.073 138.073H207.163C209.298 138.073 211.03 136.359 211.03 134.244V123.731C211.03 121.616 209.298 119.902 207.163 119.902Z" fill="white" stroke="#263238" stroke-width="1.1" stroke-linecap="round" stroke-linejoin="round"/>
<path d="M193.538 125.367L188.57 128.457L193.177 132.503" stroke="#263238" stroke-width="1.1" stroke-linecap="round" stroke-linejoin="round"/>
<path d="M202.586 132.796L207.051 129.031L201.899 125.689" stroke="#263238" stroke-width="1.1" stroke-linecap="round" stroke-linejoin="round"/>
<path d="M195.947 135.118L199.619 123.731" stroke="#263238" stroke-width="1.1" stroke-linecap="round" stroke-linejoin="round"/>
<path d="M161.562 154.52C161.562 154.726 161.501 154.926 161.385 155.097C161.27 155.268 161.107 155.401 160.915 155.479C160.723 155.558 160.513 155.578 160.309 155.538C160.106 155.498 159.919 155.399 159.773 155.254C159.626 155.109 159.526 154.924 159.486 154.723C159.446 154.521 159.466 154.313 159.546 154.123C159.625 153.933 159.759 153.771 159.932 153.657C160.104 153.543 160.307 153.482 160.514 153.482C160.652 153.482 160.788 153.508 160.916 153.56C161.043 153.612 161.159 153.688 161.257 153.785C161.354 153.881 161.431 153.996 161.484 154.122C161.536 154.248 161.563 154.384 161.562 154.52Z" fill="#263238"/>
<path d="M179.93 209.767H143.809C143.584 209.767 143.369 209.679 143.21 209.522C143.051 209.364 142.962 209.151 142.962 208.929C142.962 208.706 143.051 208.493 143.21 208.336C143.369 208.179 143.584 208.09 143.809 208.09H179.93C180.154 208.09 180.37 208.179 180.529 208.336C180.687 208.493 180.777 208.706 180.777 208.929C180.777 209.151 180.687 209.364 180.529 209.522C180.37 209.679 180.154 209.767 179.93 209.767Z" fill="#263238"/>
<path d="M181.197 206.965L186.035 184.448C186.11 184.099 186.105 183.738 186.021 183.391C185.937 183.044 185.775 182.72 185.548 182.443C185.321 182.165 185.034 181.942 184.708 181.789C184.383 181.636 184.027 181.557 183.666 181.558H141.446C141.089 181.558 140.736 181.636 140.413 181.788C140.09 181.939 139.805 182.16 139.578 182.433C139.351 182.707 139.189 183.027 139.102 183.371C139.016 183.714 139.007 184.072 139.077 184.419L143.418 206.185C143.524 206.719 143.812 207.202 144.233 207.553C144.654 207.903 145.183 208.101 145.733 208.114L178.769 208.864C179.334 208.877 179.885 208.694 180.328 208.347C180.771 208 181.079 207.511 181.197 206.965Z" fill="white" stroke="#263238" stroke-width="1.1" stroke-linecap="round" stroke-linejoin="round"/>
<path d="M165.79 194.551C165.788 195.211 165.59 195.855 165.219 196.403C164.848 196.951 164.321 197.378 163.705 197.629C163.09 197.881 162.412 197.946 161.759 197.817C161.106 197.688 160.506 197.369 160.036 196.902C159.565 196.436 159.245 195.841 159.115 195.194C158.986 194.547 159.053 193.877 159.308 193.267C159.563 192.658 159.995 192.137 160.549 191.771C161.103 191.405 161.754 191.209 162.42 191.209C162.863 191.209 163.302 191.295 163.711 191.464C164.12 191.632 164.492 191.878 164.805 192.188C165.118 192.499 165.366 192.867 165.535 193.273C165.704 193.678 165.79 194.113 165.79 194.551Z" fill="#263238"/>
<path d="M172.409 183.709H177.425" stroke="#263238" stroke-width="1.1" stroke-linecap="round" stroke-linejoin="round"/>
<path d="M148.458 183.709H167.501" stroke="#263238" stroke-width="1.1" stroke-linecap="round" stroke-linejoin="round"/>
<path d="M181.28 230.87L177.431 240.873C177.431 240.873 167.613 238.423 155.042 235.872C141.891 233.204 128.159 229.75 121.035 217.372C120.171 215.865 119.59 214.083 119.999 212.394C121.023 208.119 126.643 206.958 130.344 206.53C132.67 206.281 135.009 206.152 137.349 206.143C138.533 206.143 142.471 205.504 143.424 206.202C144.857 207.237 146.385 208.134 147.99 208.882C150.092 209.767 180.777 208.09 180.777 208.09C181.311 206.937 181.637 205.701 181.742 204.437C186.568 202.01 197.73 199.957 202.467 200.866C209.887 202.291 214.215 206.577 213.392 211.069C212.569 215.56 196.179 227.604 181.28 230.87Z" fill="#263238"/>
<path d="M181.28 230.87C181.28 230.87 171.942 228.419 164.315 223.318C156.688 218.217 150.731 212.294 140.102 213.52" stroke="white" stroke-width="1.1" stroke-linecap="round" stroke-linejoin="round"/>
<path d="M162.569 222.116C167.389 220.744 170.924 217.654 174.791 214.693C178.869 211.451 183.249 208.601 187.871 206.179" stroke="white" stroke-width="1.1" stroke-linecap="round" stroke-linejoin="round"/>
<path d="M160.869 123.731H162.278" stroke="#263238" stroke-width="1.1" stroke-linecap="round" stroke-linejoin="round"/>
</g>
<defs>
<clipPath id="clip0_1017_2353">
<rect width="260" height="252" fill="white" transform="translate(0 0.794434)"/>
</clipPath>
</defs>
</svg>
