<svg width="32" height="32" viewBox="0 0 32 32" fill="none" xmlns="http://www.w3.org/2000/svg">
<path d="M5.33333 8.80001C5.33333 8.06363 5.93028 7.46667 6.66666 7.46667H25.3333C26.0697 7.46667 26.6667 8.06363 26.6667 8.80001C26.6667 9.53639 26.0697 10.1333 25.3333 10.1333H6.66666C5.93028 10.1333 5.33333 9.53639 5.33333 8.80001ZM10.6667 15.4667C10.6667 14.7303 11.2636 14.1333 12 14.1333H25.3333C26.0697 14.1333 26.6667 14.7303 26.6667 15.4667C26.6667 16.2031 26.0697 16.8 25.3333 16.8H12C11.2636 16.8 10.6667 16.2031 10.6667 15.4667ZM17.3333 22.1333C17.3333 21.397 17.9303 20.8 18.6667 20.8H25.3333C26.0697 20.8 26.6667 21.397 26.6667 22.1333C26.6667 22.8697 26.0697 23.4667 25.3333 23.4667H18.6667C17.9303 23.4667 17.3333 22.8697 17.3333 22.1333Z" fill="white"/>
</svg>
