<svg width="114" height="114" viewBox="0 0 114 114" fill="none" xmlns="http://www.w3.org/2000/svg">
<path d="M57 9.5C47.6054 9.5 38.4218 12.2858 30.6104 17.5052C22.7991 22.7246 16.7109 30.143 13.1157 38.8225C9.52058 47.502 8.57992 57.0527 10.4127 66.2668C12.2455 75.4809 16.7695 83.9446 23.4124 90.5876C30.0554 97.2306 38.5191 101.755 47.7332 103.587C56.9473 105.42 66.498 104.479 75.1775 100.884C83.857 97.2891 91.2755 91.2009 96.4948 83.3896C101.714 75.5782 104.5 66.3946 104.5 57C104.5 50.7622 103.271 44.5855 100.884 38.8225C98.4972 33.0596 94.9984 27.8232 90.5876 23.4124C86.1768 19.0016 80.9405 15.5028 75.1775 13.1157C69.4145 10.7286 63.2378 9.5 57 9.5ZM57 95C49.4843 95 42.1374 92.7713 35.8884 88.5958C29.6393 84.4203 24.7687 78.4856 21.8926 71.542C19.0165 64.5984 18.2639 56.9578 19.7302 49.5866C21.1964 42.2153 24.8156 35.4443 30.13 30.1299C35.4444 24.8155 42.2153 21.1964 49.5866 19.7302C56.9579 18.2639 64.5984 19.0164 71.542 21.8926C78.4856 24.7687 84.4204 29.6393 88.5959 35.8883C92.7714 42.1374 95 49.4843 95 57C95 67.0782 90.9965 76.7437 83.8701 83.8701C76.7437 90.9964 67.0783 95 57 95Z" fill="white"/>
<path d="M71.25 52.25H61.75V33.25C61.75 31.9902 61.2496 30.782 60.3588 29.8912C59.468 29.0004 58.2598 28.5 57 28.5C55.7402 28.5 54.532 29.0004 53.6412 29.8912C52.7504 30.782 52.25 31.9902 52.25 33.25V57C52.25 58.2598 52.7504 59.468 53.6412 60.3588C54.532 61.2496 55.7402 61.75 57 61.75H71.25C72.5098 61.75 73.718 61.2496 74.6088 60.3588C75.4996 59.468 76 58.2598 76 57C76 55.7402 75.4996 54.532 74.6088 53.6412C73.718 52.7504 72.5098 52.25 71.25 52.25Z" fill="white"/>
</svg>
