<svg width="32" height="32" viewBox="0 0 32 32" fill="none" xmlns="http://www.w3.org/2000/svg">
<path d="M23.5595 21.4395L18.12 16L23.5595 10.5605C24.1468 9.97319 24.1468 9.02772 23.5595 8.44045C22.9723 7.85318 22.0268 7.85318 21.4395 8.44045L16 13.88L10.5605 8.44045C9.97319 7.85318 9.02772 7.85318 8.44045 8.44045C7.85318 9.02772 7.85318 9.97319 8.44045 10.5605L13.88 16L8.44045 21.4395C7.85318 22.0268 7.85318 22.9723 8.44045 23.5595C9.02772 24.1468 9.97319 24.1468 10.5605 23.5595L16 18.12L21.4395 23.5595C22.0268 24.1468 22.9723 24.1468 23.5595 23.5595C24.1427 22.9723 24.1427 22.0226 23.5595 21.4395Z" fill="white"/>
</svg>
