<svg width="17" height="18" viewBox="0 0 17 18" fill="none" xmlns="http://www.w3.org/2000/svg">
<path d="M14.4855 2.33335H13.6522V1.50002C13.6522 1.00002 13.3188 0.666687 12.8188 0.666687C12.3188 0.666687 11.9855 1.00002 11.9855 1.50002V2.33335H5.31885V1.50002C5.31885 1.00002 4.98551 0.666687 4.48551 0.666687C3.98551 0.666687 3.65218 1.00002 3.65218 1.50002V2.33335H2.81885C1.40218 2.33335 0.318848 3.41669 0.318848 4.83335V5.66669H16.9855V4.83335C16.9855 3.41669 15.9022 2.33335 14.4855 2.33335ZM0.318848 14.8334C0.318848 16.25 1.40218 17.3334 2.81885 17.3334H14.4855C15.9022 17.3334 16.9855 16.25 16.9855 14.8334V7.33335H0.318848V14.8334ZM12.8188 9.00002C13.3188 9.00002 13.6522 9.33335 13.6522 9.83335C13.6522 10.3334 13.3188 10.6667 12.8188 10.6667C12.3188 10.6667 11.9855 10.3334 11.9855 9.83335C11.9855 9.33335 12.3188 9.00002 12.8188 9.00002ZM12.8188 12.3334C13.3188 12.3334 13.6522 12.6667 13.6522 13.1667C13.6522 13.6667 13.3188 14 12.8188 14C12.3188 14 11.9855 13.6667 11.9855 13.1667C11.9855 12.6667 12.3188 12.3334 12.8188 12.3334ZM8.65218 9.00002C9.15218 9.00002 9.48551 9.33335 9.48551 9.83335C9.48551 10.3334 9.15218 10.6667 8.65218 10.6667C8.15218 10.6667 7.81885 10.3334 7.81885 9.83335C7.81885 9.33335 8.15218 9.00002 8.65218 9.00002ZM8.65218 12.3334C9.15218 12.3334 9.48551 12.6667 9.48551 13.1667C9.48551 13.6667 9.15218 14 8.65218 14C8.15218 14 7.81885 13.6667 7.81885 13.1667C7.81885 12.6667 8.15218 12.3334 8.65218 12.3334ZM4.48551 9.00002C4.98551 9.00002 5.31885 9.33335 5.31885 9.83335C5.31885 10.3334 4.98551 10.6667 4.48551 10.6667C3.98551 10.6667 3.65218 10.3334 3.65218 9.83335C3.65218 9.33335 3.98551 9.00002 4.48551 9.00002ZM4.48551 12.3334C4.98551 12.3334 5.31885 12.6667 5.31885 13.1667C5.31885 13.6667 4.98551 14 4.48551 14C3.98551 14 3.65218 13.6667 3.65218 13.1667C3.65218 12.6667 3.98551 12.3334 4.48551 12.3334Z" fill="white"/>
</svg>
