<svg width="330" height="209" viewBox="0 0 330 209" fill="none" xmlns="http://www.w3.org/2000/svg">
<line x1="19" y1="34.1738" x2="288.896" y2="34.1738" stroke="#ECECEC" stroke-width="0.5"/>
<line x1="19" y1="113.339" x2="288.896" y2="113.339" stroke="#ECECEC" stroke-width="0.5"/>
<line x1="19" y1="73.7559" x2="288.896" y2="73.7558" stroke="#ECECEC" stroke-width="0.5"/>
<line x1="19" y1="152.922" x2="288.896" y2="152.922" stroke="#ECECEC" stroke-width="0.5"/>
<line x1="19" y1="192.504" x2="288.896" y2="192.504" stroke="#ECECEC" stroke-width="0.5"/>
<path d="M294.034 37.1553V38H289.303C289.296 37.7884 289.33 37.585 289.405 37.3896C289.526 37.0674 289.718 36.75 289.981 36.4375C290.248 36.125 290.632 35.7637 291.134 35.3535C291.912 34.7155 292.438 34.2109 292.711 33.8398C292.984 33.4655 293.121 33.1123 293.121 32.7803C293.121 32.432 292.996 32.139 292.745 31.9014C292.498 31.6605 292.174 31.54 291.773 31.54C291.35 31.54 291.012 31.667 290.758 31.9209C290.504 32.1748 290.375 32.5264 290.372 32.9756L289.469 32.8828C289.531 32.209 289.763 31.6963 290.167 31.3447C290.571 30.9899 291.113 30.8125 291.793 30.8125C292.48 30.8125 293.023 31.0029 293.424 31.3838C293.824 31.7646 294.024 32.2367 294.024 32.7998C294.024 33.0863 293.966 33.3678 293.849 33.6445C293.731 33.9212 293.536 34.2126 293.263 34.5186C292.993 34.8245 292.542 35.2445 291.91 35.7783C291.383 36.221 291.044 36.5221 290.895 36.6816C290.745 36.8379 290.621 36.9958 290.523 37.1553H294.034ZM295.531 36.125L296.454 36.0469C296.523 36.4961 296.681 36.8346 296.928 37.0625C297.179 37.2871 297.48 37.3994 297.831 37.3994C298.254 37.3994 298.613 37.2399 298.905 36.9209C299.198 36.6019 299.345 36.1787 299.345 35.6514C299.345 35.1501 299.203 34.7546 298.92 34.4648C298.64 34.1751 298.272 34.0303 297.817 34.0303C297.533 34.0303 297.278 34.0954 297.05 34.2256C296.822 34.3525 296.643 34.5186 296.513 34.7236L295.688 34.6162L296.381 30.9395H299.941V31.7793H297.084L296.698 33.7031C297.128 33.4036 297.579 33.2539 298.051 33.2539C298.676 33.2539 299.203 33.4704 299.633 33.9033C300.063 34.3363 300.278 34.8929 300.278 35.5732C300.278 36.221 300.089 36.7809 299.711 37.2529C299.252 37.8324 298.626 38.1221 297.831 38.1221C297.18 38.1221 296.648 37.9398 296.235 37.5752C295.824 37.2106 295.59 36.7272 295.531 36.125ZM301.648 34.4697C301.648 33.6234 301.734 32.943 301.907 32.4287C302.082 31.9111 302.341 31.5124 302.683 31.2324C303.028 30.9525 303.461 30.8125 303.982 30.8125C304.366 30.8125 304.703 30.8906 304.993 31.0469C305.282 31.1999 305.522 31.4229 305.71 31.7158C305.899 32.0055 306.047 32.3604 306.155 32.7803C306.262 33.1969 306.316 33.7601 306.316 34.4697C306.316 35.3096 306.23 35.9883 306.057 36.5059C305.885 37.0202 305.626 37.4189 305.281 37.7021C304.939 37.9821 304.506 38.1221 303.982 38.1221C303.292 38.1221 302.75 37.8747 302.356 37.3799C301.884 36.7842 301.648 35.8141 301.648 34.4697ZM302.551 34.4697C302.551 35.6449 302.688 36.4277 302.961 36.8184C303.238 37.2057 303.578 37.3994 303.982 37.3994C304.385 37.3994 304.724 37.2041 304.997 36.8135C305.274 36.4229 305.413 35.6416 305.413 34.4697C305.413 33.2913 305.274 32.5085 304.997 32.1211C304.724 31.7337 304.382 31.54 303.972 31.54C303.568 31.54 303.246 31.7109 303.005 32.0527C302.703 32.4889 302.551 33.2946 302.551 34.4697ZM311.097 34.4697C311.097 33.6234 311.184 32.943 311.356 32.4287C311.532 31.9111 311.791 31.5124 312.133 31.2324C312.478 30.9525 312.911 30.8125 313.431 30.8125C313.816 30.8125 314.152 30.8906 314.442 31.0469C314.732 31.1999 314.971 31.4229 315.16 31.7158C315.349 32.0055 315.497 32.3604 315.604 32.7803C315.712 33.1969 315.765 33.7601 315.765 34.4697C315.765 35.3096 315.679 35.9883 315.507 36.5059C315.334 37.0202 315.075 37.4189 314.73 37.7021C314.388 37.9821 313.956 38.1221 313.431 38.1221C312.741 38.1221 312.199 37.8747 311.805 37.3799C311.333 36.7842 311.097 35.8141 311.097 34.4697ZM312.001 34.4697C312.001 35.6449 312.138 36.4277 312.411 36.8184C312.688 37.2057 313.028 37.3994 313.431 37.3994C313.835 37.3994 314.174 37.2041 314.447 36.8135C314.724 36.4229 314.862 35.6416 314.862 34.4697C314.862 33.2913 314.724 32.5085 314.447 32.1211C314.174 31.7337 313.832 31.54 313.422 31.54C313.018 31.54 312.696 31.7109 312.455 32.0527C312.152 32.4889 312.001 33.2946 312.001 34.4697ZM317.214 34.4697C317.214 33.6234 317.3 32.943 317.473 32.4287C317.648 31.9111 317.907 31.5124 318.249 31.2324C318.594 30.9525 319.027 30.8125 319.548 30.8125C319.932 30.8125 320.269 30.8906 320.559 31.0469C320.848 31.1999 321.088 31.4229 321.276 31.7158C321.465 32.0055 321.613 32.3604 321.721 32.7803C321.828 33.1969 321.882 33.7601 321.882 34.4697C321.882 35.3096 321.796 35.9883 321.623 36.5059C321.451 37.0202 321.192 37.4189 320.847 37.7021C320.505 37.9821 320.072 38.1221 319.548 38.1221C318.858 38.1221 318.316 37.8747 317.922 37.3799C317.45 36.7842 317.214 35.8141 317.214 34.4697ZM318.117 34.4697C318.117 35.6449 318.254 36.4277 318.527 36.8184C318.804 37.2057 319.144 37.3994 319.548 37.3994C319.951 37.3994 320.29 37.2041 320.563 36.8135C320.84 36.4229 320.979 35.6416 320.979 34.4697C320.979 33.2913 320.84 32.5085 320.563 32.1211C320.29 31.7337 319.948 31.54 319.538 31.54C319.134 31.54 318.812 31.7109 318.571 32.0527C318.269 32.4889 318.117 33.2946 318.117 34.4697ZM323.33 34.4697C323.33 33.6234 323.417 32.943 323.589 32.4287C323.765 31.9111 324.024 31.5124 324.365 31.2324C324.71 30.9525 325.143 30.8125 325.664 30.8125C326.048 30.8125 326.385 30.8906 326.675 31.0469C326.965 31.1999 327.204 31.4229 327.393 31.7158C327.582 32.0055 327.73 32.3604 327.837 32.7803C327.945 33.1969 327.998 33.7601 327.998 34.4697C327.998 35.3096 327.912 35.9883 327.739 36.5059C327.567 37.0202 327.308 37.4189 326.963 37.7021C326.621 37.9821 326.188 38.1221 325.664 38.1221C324.974 38.1221 324.432 37.8747 324.038 37.3799C323.566 36.7842 323.33 35.8141 323.33 34.4697ZM324.234 34.4697C324.234 35.6449 324.37 36.4277 324.644 36.8184C324.92 37.2057 325.261 37.3994 325.664 37.3994C326.068 37.3994 326.406 37.2041 326.68 36.8135C326.957 36.4229 327.095 35.6416 327.095 34.4697C327.095 33.2913 326.957 32.5085 326.68 32.1211C326.406 31.7337 326.065 31.54 325.654 31.54C325.251 31.54 324.929 31.7109 324.688 32.0527C324.385 32.4889 324.234 33.2946 324.234 34.4697Z" fill="#ECECEC"/>
<path d="M295.034 76.1553V77H290.303C290.296 76.7884 290.33 76.585 290.405 76.3896C290.526 76.0674 290.718 75.75 290.981 75.4375C291.248 75.125 291.632 74.7637 292.134 74.3535C292.912 73.7155 293.438 73.2109 293.711 72.8398C293.984 72.4655 294.121 72.1123 294.121 71.7803C294.121 71.432 293.996 71.139 293.745 70.9014C293.498 70.6605 293.174 70.54 292.773 70.54C292.35 70.54 292.012 70.667 291.758 70.9209C291.504 71.1748 291.375 71.5264 291.372 71.9756L290.469 71.8828C290.531 71.209 290.763 70.6963 291.167 70.3447C291.571 69.9899 292.113 69.8125 292.793 69.8125C293.48 69.8125 294.023 70.0029 294.424 70.3838C294.824 70.7646 295.024 71.2367 295.024 71.7998C295.024 72.0863 294.966 72.3678 294.849 72.6445C294.731 72.9212 294.536 73.2126 294.263 73.5186C293.993 73.8245 293.542 74.2445 292.91 74.7783C292.383 75.221 292.044 75.5221 291.895 75.6816C291.745 75.8379 291.621 75.9958 291.523 76.1553H295.034ZM296.531 73.4697C296.531 72.6234 296.618 71.943 296.79 71.4287C296.966 70.9111 297.225 70.5124 297.567 70.2324C297.912 69.9525 298.345 69.8125 298.865 69.8125C299.25 69.8125 299.586 69.8906 299.876 70.0469C300.166 70.1999 300.405 70.4229 300.594 70.7158C300.783 71.0055 300.931 71.3604 301.038 71.7803C301.146 72.1969 301.199 72.7601 301.199 73.4697C301.199 74.3096 301.113 74.9883 300.941 75.5059C300.768 76.0202 300.509 76.4189 300.164 76.7021C299.822 76.9821 299.39 77.1221 298.865 77.1221C298.175 77.1221 297.633 76.8747 297.239 76.3799C296.767 75.7842 296.531 74.8141 296.531 73.4697ZM297.435 73.4697C297.435 74.6449 297.571 75.4277 297.845 75.8184C298.122 76.2057 298.462 76.3994 298.865 76.3994C299.269 76.3994 299.608 76.2041 299.881 75.8135C300.158 75.4229 300.296 74.6416 300.296 73.4697C300.296 72.2913 300.158 71.5085 299.881 71.1211C299.608 70.7337 299.266 70.54 298.856 70.54C298.452 70.54 298.13 70.7109 297.889 71.0527C297.586 71.4889 297.435 72.2946 297.435 73.4697ZM302.648 73.4697C302.648 72.6234 302.734 71.943 302.907 71.4287C303.082 70.9111 303.341 70.5124 303.683 70.2324C304.028 69.9525 304.461 69.8125 304.982 69.8125C305.366 69.8125 305.703 69.8906 305.993 70.0469C306.282 70.1999 306.522 70.4229 306.71 70.7158C306.899 71.0055 307.047 71.3604 307.155 71.7803C307.262 72.1969 307.316 72.7601 307.316 73.4697C307.316 74.3096 307.23 74.9883 307.057 75.5059C306.885 76.0202 306.626 76.4189 306.281 76.7021C305.939 76.9821 305.506 77.1221 304.982 77.1221C304.292 77.1221 303.75 76.8747 303.356 76.3799C302.884 75.7842 302.648 74.8141 302.648 73.4697ZM303.551 73.4697C303.551 74.6449 303.688 75.4277 303.961 75.8184C304.238 76.2057 304.578 76.3994 304.982 76.3994C305.385 76.3994 305.724 76.2041 305.997 75.8135C306.274 75.4229 306.413 74.6416 306.413 73.4697C306.413 72.2913 306.274 71.5085 305.997 71.1211C305.724 70.7337 305.382 70.54 304.972 70.54C304.568 70.54 304.246 70.7109 304.005 71.0527C303.703 71.4889 303.551 72.2946 303.551 73.4697ZM312.097 73.4697C312.097 72.6234 312.184 71.943 312.356 71.4287C312.532 70.9111 312.791 70.5124 313.133 70.2324C313.478 69.9525 313.911 69.8125 314.431 69.8125C314.816 69.8125 315.152 69.8906 315.442 70.0469C315.732 70.1999 315.971 70.4229 316.16 70.7158C316.349 71.0055 316.497 71.3604 316.604 71.7803C316.712 72.1969 316.765 72.7601 316.765 73.4697C316.765 74.3096 316.679 74.9883 316.507 75.5059C316.334 76.0202 316.075 76.4189 315.73 76.7021C315.388 76.9821 314.956 77.1221 314.431 77.1221C313.741 77.1221 313.199 76.8747 312.805 76.3799C312.333 75.7842 312.097 74.8141 312.097 73.4697ZM313.001 73.4697C313.001 74.6449 313.138 75.4277 313.411 75.8184C313.688 76.2057 314.028 76.3994 314.431 76.3994C314.835 76.3994 315.174 76.2041 315.447 75.8135C315.724 75.4229 315.862 74.6416 315.862 73.4697C315.862 72.2913 315.724 71.5085 315.447 71.1211C315.174 70.7337 314.832 70.54 314.422 70.54C314.018 70.54 313.696 70.7109 313.455 71.0527C313.152 71.4889 313.001 72.2946 313.001 73.4697ZM318.214 73.4697C318.214 72.6234 318.3 71.943 318.473 71.4287C318.648 70.9111 318.907 70.5124 319.249 70.2324C319.594 69.9525 320.027 69.8125 320.548 69.8125C320.932 69.8125 321.269 69.8906 321.559 70.0469C321.848 70.1999 322.088 70.4229 322.276 70.7158C322.465 71.0055 322.613 71.3604 322.721 71.7803C322.828 72.1969 322.882 72.7601 322.882 73.4697C322.882 74.3096 322.796 74.9883 322.623 75.5059C322.451 76.0202 322.192 76.4189 321.847 76.7021C321.505 76.9821 321.072 77.1221 320.548 77.1221C319.858 77.1221 319.316 76.8747 318.922 76.3799C318.45 75.7842 318.214 74.8141 318.214 73.4697ZM319.117 73.4697C319.117 74.6449 319.254 75.4277 319.527 75.8184C319.804 76.2057 320.144 76.3994 320.548 76.3994C320.951 76.3994 321.29 76.2041 321.563 75.8135C321.84 75.4229 321.979 74.6416 321.979 73.4697C321.979 72.2913 321.84 71.5085 321.563 71.1211C321.29 70.7337 320.948 70.54 320.538 70.54C320.134 70.54 319.812 70.7109 319.571 71.0527C319.269 71.4889 319.117 72.2946 319.117 73.4697ZM324.33 73.4697C324.33 72.6234 324.417 71.943 324.589 71.4287C324.765 70.9111 325.024 70.5124 325.365 70.2324C325.71 69.9525 326.143 69.8125 326.664 69.8125C327.048 69.8125 327.385 69.8906 327.675 70.0469C327.965 70.1999 328.204 70.4229 328.393 70.7158C328.582 71.0055 328.73 71.3604 328.837 71.7803C328.945 72.1969 328.998 72.7601 328.998 73.4697C328.998 74.3096 328.912 74.9883 328.739 75.5059C328.567 76.0202 328.308 76.4189 327.963 76.7021C327.621 76.9821 327.188 77.1221 326.664 77.1221C325.974 77.1221 325.432 76.8747 325.038 76.3799C324.566 75.7842 324.33 74.8141 324.33 73.4697ZM325.234 73.4697C325.234 74.6449 325.37 75.4277 325.644 75.8184C325.92 76.2057 326.261 76.3994 326.664 76.3994C327.068 76.3994 327.406 76.2041 327.68 75.8135C327.957 75.4229 328.095 74.6416 328.095 73.4697C328.095 72.2913 327.957 71.5085 327.68 71.1211C327.406 70.7337 327.065 70.54 326.654 70.54C326.251 70.54 325.929 70.7109 325.688 71.0527C325.385 71.4889 325.234 72.2946 325.234 73.4697Z" fill="#ECECEC"/>
<path d="M293.726 117H292.847V111.399C292.635 111.601 292.357 111.803 292.012 112.005C291.67 112.207 291.362 112.358 291.089 112.459V111.609C291.58 111.378 292.01 111.098 292.378 110.77C292.746 110.441 293.006 110.122 293.159 109.812H293.726V117ZM296.531 115.125L297.454 115.047C297.523 115.496 297.681 115.835 297.928 116.062C298.179 116.287 298.48 116.399 298.831 116.399C299.254 116.399 299.613 116.24 299.905 115.921C300.198 115.602 300.345 115.179 300.345 114.651C300.345 114.15 300.203 113.755 299.92 113.465C299.64 113.175 299.272 113.03 298.817 113.03C298.533 113.03 298.278 113.095 298.05 113.226C297.822 113.353 297.643 113.519 297.513 113.724L296.688 113.616L297.381 109.939H300.941V110.779H298.084L297.698 112.703C298.128 112.404 298.579 112.254 299.051 112.254C299.676 112.254 300.203 112.47 300.633 112.903C301.063 113.336 301.278 113.893 301.278 114.573C301.278 115.221 301.089 115.781 300.711 116.253C300.252 116.832 299.626 117.122 298.831 117.122C298.18 117.122 297.648 116.94 297.235 116.575C296.824 116.211 296.59 115.727 296.531 115.125ZM302.648 113.47C302.648 112.623 302.734 111.943 302.907 111.429C303.082 110.911 303.341 110.512 303.683 110.232C304.028 109.952 304.461 109.812 304.982 109.812C305.366 109.812 305.703 109.891 305.993 110.047C306.282 110.2 306.522 110.423 306.71 110.716C306.899 111.006 307.047 111.36 307.155 111.78C307.262 112.197 307.316 112.76 307.316 113.47C307.316 114.31 307.23 114.988 307.057 115.506C306.885 116.02 306.626 116.419 306.281 116.702C305.939 116.982 305.506 117.122 304.982 117.122C304.292 117.122 303.75 116.875 303.356 116.38C302.884 115.784 302.648 114.814 302.648 113.47ZM303.551 113.47C303.551 114.645 303.688 115.428 303.961 115.818C304.238 116.206 304.578 116.399 304.982 116.399C305.385 116.399 305.724 116.204 305.997 115.813C306.274 115.423 306.413 114.642 306.413 113.47C306.413 112.291 306.274 111.508 305.997 111.121C305.724 110.734 305.382 110.54 304.972 110.54C304.568 110.54 304.246 110.711 304.005 111.053C303.703 111.489 303.551 112.295 303.551 113.47ZM312.097 113.47C312.097 112.623 312.184 111.943 312.356 111.429C312.532 110.911 312.791 110.512 313.133 110.232C313.478 109.952 313.911 109.812 314.431 109.812C314.816 109.812 315.152 109.891 315.442 110.047C315.732 110.2 315.971 110.423 316.16 110.716C316.349 111.006 316.497 111.36 316.604 111.78C316.712 112.197 316.765 112.76 316.765 113.47C316.765 114.31 316.679 114.988 316.507 115.506C316.334 116.02 316.075 116.419 315.73 116.702C315.388 116.982 314.956 117.122 314.431 117.122C313.741 117.122 313.199 116.875 312.805 116.38C312.333 115.784 312.097 114.814 312.097 113.47ZM313.001 113.47C313.001 114.645 313.138 115.428 313.411 115.818C313.688 116.206 314.028 116.399 314.431 116.399C314.835 116.399 315.174 116.204 315.447 115.813C315.724 115.423 315.862 114.642 315.862 113.47C315.862 112.291 315.724 111.508 315.447 111.121C315.174 110.734 314.832 110.54 314.422 110.54C314.018 110.54 313.696 110.711 313.455 111.053C313.152 111.489 313.001 112.295 313.001 113.47ZM318.214 113.47C318.214 112.623 318.3 111.943 318.473 111.429C318.648 110.911 318.907 110.512 319.249 110.232C319.594 109.952 320.027 109.812 320.548 109.812C320.932 109.812 321.269 109.891 321.559 110.047C321.848 110.2 322.088 110.423 322.276 110.716C322.465 111.006 322.613 111.36 322.721 111.78C322.828 112.197 322.882 112.76 322.882 113.47C322.882 114.31 322.796 114.988 322.623 115.506C322.451 116.02 322.192 116.419 321.847 116.702C321.505 116.982 321.072 117.122 320.548 117.122C319.858 117.122 319.316 116.875 318.922 116.38C318.45 115.784 318.214 114.814 318.214 113.47ZM319.117 113.47C319.117 114.645 319.254 115.428 319.527 115.818C319.804 116.206 320.144 116.399 320.548 116.399C320.951 116.399 321.29 116.204 321.563 115.813C321.84 115.423 321.979 114.642 321.979 113.47C321.979 112.291 321.84 111.508 321.563 111.121C321.29 110.734 320.948 110.54 320.538 110.54C320.134 110.54 319.812 110.711 319.571 111.053C319.269 111.489 319.117 112.295 319.117 113.47ZM324.33 113.47C324.33 112.623 324.417 111.943 324.589 111.429C324.765 110.911 325.024 110.512 325.365 110.232C325.71 109.952 326.143 109.812 326.664 109.812C327.048 109.812 327.385 109.891 327.675 110.047C327.965 110.2 328.204 110.423 328.393 110.716C328.582 111.006 328.73 111.36 328.837 111.78C328.945 112.197 328.998 112.76 328.998 113.47C328.998 114.31 328.912 114.988 328.739 115.506C328.567 116.02 328.308 116.419 327.963 116.702C327.621 116.982 327.188 117.122 326.664 117.122C325.974 117.122 325.432 116.875 325.038 116.38C324.566 115.784 324.33 114.814 324.33 113.47ZM325.234 113.47C325.234 114.645 325.37 115.428 325.644 115.818C325.92 116.206 326.261 116.399 326.664 116.399C327.068 116.399 327.406 116.204 327.68 115.813C327.957 115.423 328.095 114.642 328.095 113.47C328.095 112.291 327.957 111.508 327.68 111.121C327.406 110.734 327.065 110.54 326.654 110.54C326.251 110.54 325.929 110.711 325.688 111.053C325.385 111.489 325.234 112.295 325.234 113.47Z" fill="#ECECEC"/>
<path d="M293.726 156H292.847V150.399C292.635 150.601 292.357 150.803 292.012 151.005C291.67 151.207 291.362 151.358 291.089 151.459V150.609C291.58 150.378 292.01 150.098 292.378 149.77C292.746 149.441 293.006 149.122 293.159 148.812H293.726V156ZM296.531 152.47C296.531 151.623 296.618 150.943 296.79 150.429C296.966 149.911 297.225 149.512 297.567 149.232C297.912 148.952 298.345 148.812 298.865 148.812C299.25 148.812 299.586 148.891 299.876 149.047C300.166 149.2 300.405 149.423 300.594 149.716C300.783 150.006 300.931 150.36 301.038 150.78C301.146 151.197 301.199 151.76 301.199 152.47C301.199 153.31 301.113 153.988 300.941 154.506C300.768 155.02 300.509 155.419 300.164 155.702C299.822 155.982 299.39 156.122 298.865 156.122C298.175 156.122 297.633 155.875 297.239 155.38C296.767 154.784 296.531 153.814 296.531 152.47ZM297.435 152.47C297.435 153.645 297.571 154.428 297.845 154.818C298.122 155.206 298.462 155.399 298.865 155.399C299.269 155.399 299.608 155.204 299.881 154.813C300.158 154.423 300.296 153.642 300.296 152.47C300.296 151.291 300.158 150.508 299.881 150.121C299.608 149.734 299.266 149.54 298.856 149.54C298.452 149.54 298.13 149.711 297.889 150.053C297.586 150.489 297.435 151.295 297.435 152.47ZM302.648 152.47C302.648 151.623 302.734 150.943 302.907 150.429C303.082 149.911 303.341 149.512 303.683 149.232C304.028 148.952 304.461 148.812 304.982 148.812C305.366 148.812 305.703 148.891 305.993 149.047C306.282 149.2 306.522 149.423 306.71 149.716C306.899 150.006 307.047 150.36 307.155 150.78C307.262 151.197 307.316 151.76 307.316 152.47C307.316 153.31 307.23 153.988 307.057 154.506C306.885 155.02 306.626 155.419 306.281 155.702C305.939 155.982 305.506 156.122 304.982 156.122C304.292 156.122 303.75 155.875 303.356 155.38C302.884 154.784 302.648 153.814 302.648 152.47ZM303.551 152.47C303.551 153.645 303.688 154.428 303.961 154.818C304.238 155.206 304.578 155.399 304.982 155.399C305.385 155.399 305.724 155.204 305.997 154.813C306.274 154.423 306.413 153.642 306.413 152.47C306.413 151.291 306.274 150.508 305.997 150.121C305.724 149.734 305.382 149.54 304.972 149.54C304.568 149.54 304.246 149.711 304.005 150.053C303.703 150.489 303.551 151.295 303.551 152.47ZM312.097 152.47C312.097 151.623 312.184 150.943 312.356 150.429C312.532 149.911 312.791 149.512 313.133 149.232C313.478 148.952 313.911 148.812 314.431 148.812C314.816 148.812 315.152 148.891 315.442 149.047C315.732 149.2 315.971 149.423 316.16 149.716C316.349 150.006 316.497 150.36 316.604 150.78C316.712 151.197 316.765 151.76 316.765 152.47C316.765 153.31 316.679 153.988 316.507 154.506C316.334 155.02 316.075 155.419 315.73 155.702C315.388 155.982 314.956 156.122 314.431 156.122C313.741 156.122 313.199 155.875 312.805 155.38C312.333 154.784 312.097 153.814 312.097 152.47ZM313.001 152.47C313.001 153.645 313.138 154.428 313.411 154.818C313.688 155.206 314.028 155.399 314.431 155.399C314.835 155.399 315.174 155.204 315.447 154.813C315.724 154.423 315.862 153.642 315.862 152.47C315.862 151.291 315.724 150.508 315.447 150.121C315.174 149.734 314.832 149.54 314.422 149.54C314.018 149.54 313.696 149.711 313.455 150.053C313.152 150.489 313.001 151.295 313.001 152.47ZM318.214 152.47C318.214 151.623 318.3 150.943 318.473 150.429C318.648 149.911 318.907 149.512 319.249 149.232C319.594 148.952 320.027 148.812 320.548 148.812C320.932 148.812 321.269 148.891 321.559 149.047C321.848 149.2 322.088 149.423 322.276 149.716C322.465 150.006 322.613 150.36 322.721 150.78C322.828 151.197 322.882 151.76 322.882 152.47C322.882 153.31 322.796 153.988 322.623 154.506C322.451 155.02 322.192 155.419 321.847 155.702C321.505 155.982 321.072 156.122 320.548 156.122C319.858 156.122 319.316 155.875 318.922 155.38C318.45 154.784 318.214 153.814 318.214 152.47ZM319.117 152.47C319.117 153.645 319.254 154.428 319.527 154.818C319.804 155.206 320.144 155.399 320.548 155.399C320.951 155.399 321.29 155.204 321.563 154.813C321.84 154.423 321.979 153.642 321.979 152.47C321.979 151.291 321.84 150.508 321.563 150.121C321.29 149.734 320.948 149.54 320.538 149.54C320.134 149.54 319.812 149.711 319.571 150.053C319.269 150.489 319.117 151.295 319.117 152.47ZM324.33 152.47C324.33 151.623 324.417 150.943 324.589 150.429C324.765 149.911 325.024 149.512 325.365 149.232C325.71 148.952 326.143 148.812 326.664 148.812C327.048 148.812 327.385 148.891 327.675 149.047C327.965 149.2 328.204 149.423 328.393 149.716C328.582 150.006 328.73 150.36 328.837 150.78C328.945 151.197 328.998 151.76 328.998 152.47C328.998 153.31 328.912 153.988 328.739 154.506C328.567 155.02 328.308 155.419 327.963 155.702C327.621 155.982 327.188 156.122 326.664 156.122C325.974 156.122 325.432 155.875 325.038 155.38C324.566 154.784 324.33 153.814 324.33 152.47ZM325.234 152.47C325.234 153.645 325.37 154.428 325.644 154.818C325.92 155.206 326.261 155.399 326.664 155.399C327.068 155.399 327.406 155.204 327.68 154.813C327.957 154.423 328.095 153.642 328.095 152.47C328.095 151.291 327.957 150.508 327.68 150.121C327.406 149.734 327.065 149.54 326.654 149.54C326.251 149.54 325.929 149.711 325.688 150.053C325.385 150.489 325.234 151.295 325.234 152.47Z" fill="#ECECEC"/>
<path d="M279.034 206.155V207H274.303C274.296 206.788 274.33 206.585 274.405 206.39C274.526 206.067 274.718 205.75 274.981 205.438C275.248 205.125 275.632 204.764 276.134 204.354C276.912 203.715 277.438 203.211 277.711 202.84C277.984 202.465 278.121 202.112 278.121 201.78C278.121 201.432 277.996 201.139 277.745 200.901C277.498 200.66 277.174 200.54 276.773 200.54C276.35 200.54 276.012 200.667 275.758 200.921C275.504 201.175 275.375 201.526 275.372 201.976L274.469 201.883C274.531 201.209 274.763 200.696 275.167 200.345C275.571 199.99 276.113 199.812 276.793 199.812C277.48 199.812 278.023 200.003 278.424 200.384C278.824 200.765 279.024 201.237 279.024 201.8C279.024 202.086 278.966 202.368 278.849 202.645C278.731 202.921 278.536 203.213 278.263 203.519C277.993 203.825 277.542 204.244 276.91 204.778C276.383 205.221 276.044 205.522 275.895 205.682C275.745 205.838 275.621 205.996 275.523 206.155H279.034ZM280.531 203.47C280.531 202.623 280.618 201.943 280.79 201.429C280.966 200.911 281.225 200.512 281.567 200.232C281.912 199.952 282.345 199.812 282.865 199.812C283.25 199.812 283.586 199.891 283.876 200.047C284.166 200.2 284.405 200.423 284.594 200.716C284.783 201.006 284.931 201.36 285.038 201.78C285.146 202.197 285.199 202.76 285.199 203.47C285.199 204.31 285.113 204.988 284.941 205.506C284.768 206.02 284.509 206.419 284.164 206.702C283.822 206.982 283.39 207.122 282.865 207.122C282.175 207.122 281.633 206.875 281.239 206.38C280.767 205.784 280.531 204.814 280.531 203.47ZM281.435 203.47C281.435 204.645 281.571 205.428 281.845 205.818C282.122 206.206 282.462 206.399 282.865 206.399C283.269 206.399 283.608 206.204 283.881 205.813C284.158 205.423 284.296 204.642 284.296 203.47C284.296 202.291 284.158 201.508 283.881 201.121C283.608 200.734 283.266 200.54 282.856 200.54C282.452 200.54 282.13 200.711 281.889 201.053C281.586 201.489 281.435 202.295 281.435 203.47ZM291.267 206.155V207H286.536C286.529 206.788 286.563 206.585 286.638 206.39C286.759 206.067 286.951 205.75 287.214 205.438C287.481 205.125 287.865 204.764 288.367 204.354C289.145 203.715 289.67 203.211 289.944 202.84C290.217 202.465 290.354 202.112 290.354 201.78C290.354 201.432 290.229 201.139 289.978 200.901C289.731 200.66 289.407 200.54 289.006 200.54C288.583 200.54 288.245 200.667 287.991 200.921C287.737 201.175 287.608 201.526 287.605 201.976L286.702 201.883C286.763 201.209 286.996 200.696 287.4 200.345C287.803 199.99 288.345 199.812 289.026 199.812C289.713 199.812 290.256 200.003 290.657 200.384C291.057 200.765 291.257 201.237 291.257 201.8C291.257 202.086 291.199 202.368 291.081 202.645C290.964 202.921 290.769 203.213 290.496 203.519C290.225 203.825 289.774 204.244 289.143 204.778C288.616 205.221 288.277 205.522 288.127 205.682C287.978 205.838 287.854 205.996 287.756 206.155H291.267ZM297.383 206.155V207H292.652C292.645 206.788 292.68 206.585 292.754 206.39C292.875 206.067 293.067 205.75 293.331 205.438C293.598 205.125 293.982 204.764 294.483 204.354C295.261 203.715 295.787 203.211 296.06 202.84C296.334 202.465 296.47 202.112 296.47 201.78C296.47 201.432 296.345 201.139 296.094 200.901C295.847 200.66 295.523 200.54 295.123 200.54C294.699 200.54 294.361 200.667 294.107 200.921C293.853 201.175 293.725 201.526 293.721 201.976L292.818 201.883C292.88 201.209 293.113 200.696 293.516 200.345C293.92 199.99 294.462 199.812 295.142 199.812C295.829 199.812 296.373 200.003 296.773 200.384C297.173 200.765 297.374 201.237 297.374 201.8C297.374 202.086 297.315 202.368 297.198 202.645C297.081 202.921 296.885 203.213 296.612 203.519C296.342 203.825 295.891 204.244 295.259 204.778C294.732 205.221 294.393 205.522 294.244 205.682C294.094 205.838 293.97 205.996 293.873 206.155H297.383Z" fill="#ECECEC"/>
<path d="M228.034 206.155V207H223.303C223.296 206.788 223.33 206.585 223.405 206.39C223.526 206.067 223.718 205.75 223.981 205.438C224.248 205.125 224.632 204.764 225.134 204.354C225.912 203.715 226.438 203.211 226.711 202.84C226.984 202.465 227.121 202.112 227.121 201.78C227.121 201.432 226.996 201.139 226.745 200.901C226.498 200.66 226.174 200.54 225.773 200.54C225.35 200.54 225.012 200.667 224.758 200.921C224.504 201.175 224.375 201.526 224.372 201.976L223.469 201.883C223.531 201.209 223.763 200.696 224.167 200.345C224.571 199.99 225.113 199.812 225.793 199.812C226.48 199.812 227.023 200.003 227.424 200.384C227.824 200.765 228.024 201.237 228.024 201.8C228.024 202.086 227.966 202.368 227.849 202.645C227.731 202.921 227.536 203.213 227.263 203.519C226.993 203.825 226.542 204.244 225.91 204.778C225.383 205.221 225.044 205.522 224.895 205.682C224.745 205.838 224.621 205.996 224.523 206.155H228.034ZM229.531 203.47C229.531 202.623 229.618 201.943 229.79 201.429C229.966 200.911 230.225 200.512 230.567 200.232C230.912 199.952 231.345 199.812 231.865 199.812C232.25 199.812 232.586 199.891 232.876 200.047C233.166 200.2 233.405 200.423 233.594 200.716C233.783 201.006 233.931 201.36 234.038 201.78C234.146 202.197 234.199 202.76 234.199 203.47C234.199 204.31 234.113 204.988 233.941 205.506C233.768 206.02 233.509 206.419 233.164 206.702C232.822 206.982 232.39 207.122 231.865 207.122C231.175 207.122 230.633 206.875 230.239 206.38C229.767 205.784 229.531 204.814 229.531 203.47ZM230.435 203.47C230.435 204.645 230.571 205.428 230.845 205.818C231.122 206.206 231.462 206.399 231.865 206.399C232.269 206.399 232.608 206.204 232.881 205.813C233.158 205.423 233.296 204.642 233.296 203.47C233.296 202.291 233.158 201.508 232.881 201.121C232.608 200.734 232.266 200.54 231.856 200.54C231.452 200.54 231.13 200.711 230.889 201.053C230.586 201.489 230.435 202.295 230.435 203.47ZM238.958 207H238.079V201.399C237.868 201.601 237.59 201.803 237.245 202.005C236.903 202.207 236.595 202.358 236.322 202.459V201.609C236.813 201.378 237.243 201.098 237.611 200.77C237.979 200.441 238.239 200.122 238.392 199.812H238.958V207ZM241.896 205.345L242.741 205.267C242.812 205.664 242.949 205.952 243.151 206.131C243.353 206.31 243.612 206.399 243.927 206.399C244.198 206.399 244.434 206.338 244.635 206.214C244.84 206.09 245.008 205.926 245.138 205.721C245.268 205.512 245.378 205.232 245.465 204.881C245.553 204.529 245.597 204.171 245.597 203.807C245.597 203.768 245.596 203.709 245.592 203.631C245.417 203.911 245.176 204.139 244.87 204.314C244.567 204.487 244.238 204.573 243.883 204.573C243.291 204.573 242.79 204.358 242.379 203.929C241.969 203.499 241.764 202.933 241.764 202.229C241.764 201.504 241.977 200.919 242.404 200.477C242.834 200.034 243.371 199.812 244.015 199.812C244.481 199.812 244.906 199.938 245.29 200.188C245.677 200.439 245.97 200.797 246.169 201.263C246.37 201.725 246.471 202.396 246.471 203.274C246.471 204.189 246.372 204.918 246.173 205.462C245.975 206.002 245.679 206.414 245.285 206.697C244.894 206.98 244.435 207.122 243.908 207.122C243.348 207.122 242.891 206.967 242.536 206.658C242.181 206.346 241.968 205.908 241.896 205.345ZM245.495 202.186C245.495 201.681 245.36 201.281 245.089 200.984C244.823 200.688 244.5 200.54 244.123 200.54C243.732 200.54 243.392 200.7 243.102 201.019C242.812 201.338 242.668 201.751 242.668 202.259C242.668 202.715 242.804 203.086 243.078 203.372C243.354 203.655 243.695 203.797 244.098 203.797C244.505 203.797 244.839 203.655 245.099 203.372C245.363 203.086 245.495 202.69 245.495 202.186Z" fill="#ECECEC"/>
<path d="M177.034 206.155V207H172.303C172.296 206.788 172.33 206.585 172.405 206.39C172.526 206.067 172.718 205.75 172.981 205.438C173.248 205.125 173.632 204.764 174.134 204.354C174.912 203.715 175.438 203.211 175.711 202.84C175.984 202.465 176.121 202.112 176.121 201.78C176.121 201.432 175.996 201.139 175.745 200.901C175.498 200.66 175.174 200.54 174.773 200.54C174.35 200.54 174.012 200.667 173.758 200.921C173.504 201.175 173.375 201.526 173.372 201.976L172.469 201.883C172.531 201.209 172.763 200.696 173.167 200.345C173.571 199.99 174.113 199.812 174.793 199.812C175.48 199.812 176.023 200.003 176.424 200.384C176.824 200.765 177.024 201.237 177.024 201.8C177.024 202.086 176.966 202.368 176.849 202.645C176.731 202.921 176.536 203.213 176.263 203.519C175.993 203.825 175.542 204.244 174.91 204.778C174.383 205.221 174.044 205.522 173.895 205.682C173.745 205.838 173.621 205.996 173.523 206.155H177.034ZM178.531 203.47C178.531 202.623 178.618 201.943 178.79 201.429C178.966 200.911 179.225 200.512 179.567 200.232C179.912 199.952 180.345 199.812 180.865 199.812C181.25 199.812 181.586 199.891 181.876 200.047C182.166 200.2 182.405 200.423 182.594 200.716C182.783 201.006 182.931 201.36 183.038 201.78C183.146 202.197 183.199 202.76 183.199 203.47C183.199 204.31 183.113 204.988 182.941 205.506C182.768 206.02 182.509 206.419 182.164 206.702C181.822 206.982 181.39 207.122 180.865 207.122C180.175 207.122 179.633 206.875 179.239 206.38C178.767 205.784 178.531 204.814 178.531 203.47ZM179.435 203.47C179.435 204.645 179.571 205.428 179.845 205.818C180.122 206.206 180.462 206.399 180.865 206.399C181.269 206.399 181.608 206.204 181.881 205.813C182.158 205.423 182.296 204.642 182.296 203.47C182.296 202.291 182.158 201.508 181.881 201.121C181.608 200.734 181.266 200.54 180.856 200.54C180.452 200.54 180.13 200.711 179.889 201.053C179.586 201.489 179.435 202.295 179.435 203.47ZM187.958 207H187.079V201.399C186.868 201.601 186.59 201.803 186.245 202.005C185.903 202.207 185.595 202.358 185.322 202.459V201.609C185.813 201.378 186.243 201.098 186.611 200.77C186.979 200.441 187.239 200.122 187.392 199.812H187.958V207ZM192.117 203.118C191.752 202.985 191.482 202.794 191.306 202.547C191.13 202.299 191.043 202.003 191.043 201.658C191.043 201.137 191.23 200.7 191.604 200.345C191.978 199.99 192.476 199.812 193.098 199.812C193.723 199.812 194.226 199.995 194.607 200.359C194.988 200.721 195.178 201.162 195.178 201.683C195.178 202.015 195.09 202.304 194.915 202.552C194.742 202.796 194.478 202.985 194.124 203.118C194.563 203.261 194.897 203.493 195.125 203.812C195.356 204.131 195.471 204.511 195.471 204.954C195.471 205.566 195.255 206.08 194.822 206.497C194.389 206.914 193.819 207.122 193.113 207.122C192.407 207.122 191.837 206.914 191.404 206.497C190.971 206.077 190.754 205.555 190.754 204.93C190.754 204.464 190.872 204.075 191.106 203.763C191.344 203.447 191.681 203.232 192.117 203.118ZM191.941 201.629C191.941 201.967 192.05 202.244 192.268 202.459C192.486 202.674 192.769 202.781 193.118 202.781C193.456 202.781 193.733 202.675 193.948 202.464C194.166 202.249 194.275 201.987 194.275 201.678C194.275 201.355 194.163 201.085 193.938 200.867C193.717 200.646 193.44 200.535 193.108 200.535C192.773 200.535 192.494 200.643 192.273 200.857C192.052 201.072 191.941 201.329 191.941 201.629ZM191.658 204.935C191.658 205.185 191.716 205.428 191.834 205.662C191.954 205.896 192.131 206.079 192.366 206.209C192.6 206.336 192.852 206.399 193.123 206.399C193.543 206.399 193.889 206.264 194.163 205.994C194.436 205.724 194.573 205.381 194.573 204.964C194.573 204.541 194.431 204.191 194.148 203.914C193.868 203.637 193.517 203.499 193.093 203.499C192.68 203.499 192.337 203.636 192.063 203.909C191.793 204.183 191.658 204.524 191.658 204.935Z" fill="#ECECEC"/>
<path d="M126.034 206.155V207H121.303C121.296 206.788 121.33 206.585 121.405 206.39C121.526 206.067 121.718 205.75 121.981 205.438C122.248 205.125 122.632 204.764 123.134 204.354C123.912 203.715 124.438 203.211 124.711 202.84C124.984 202.465 125.121 202.112 125.121 201.78C125.121 201.432 124.996 201.139 124.745 200.901C124.498 200.66 124.174 200.54 123.773 200.54C123.35 200.54 123.012 200.667 122.758 200.921C122.504 201.175 122.375 201.526 122.372 201.976L121.469 201.883C121.531 201.209 121.763 200.696 122.167 200.345C122.571 199.99 123.113 199.812 123.793 199.812C124.48 199.812 125.023 200.003 125.424 200.384C125.824 200.765 126.024 201.237 126.024 201.8C126.024 202.086 125.966 202.368 125.849 202.645C125.731 202.921 125.536 203.213 125.263 203.519C124.993 203.825 124.542 204.244 123.91 204.778C123.383 205.221 123.044 205.522 122.895 205.682C122.745 205.838 122.621 205.996 122.523 206.155H126.034ZM127.531 203.47C127.531 202.623 127.618 201.943 127.79 201.429C127.966 200.911 128.225 200.512 128.567 200.232C128.912 199.952 129.345 199.812 129.865 199.812C130.25 199.812 130.586 199.891 130.876 200.047C131.166 200.2 131.405 200.423 131.594 200.716C131.783 201.006 131.931 201.36 132.038 201.78C132.146 202.197 132.199 202.76 132.199 203.47C132.199 204.31 132.113 204.988 131.941 205.506C131.768 206.02 131.509 206.419 131.164 206.702C130.822 206.982 130.39 207.122 129.865 207.122C129.175 207.122 128.633 206.875 128.239 206.38C127.767 205.784 127.531 204.814 127.531 203.47ZM128.435 203.47C128.435 204.645 128.571 205.428 128.845 205.818C129.122 206.206 129.462 206.399 129.865 206.399C130.269 206.399 130.608 206.204 130.881 205.813C131.158 205.423 131.296 204.642 131.296 203.47C131.296 202.291 131.158 201.508 130.881 201.121C130.608 200.734 130.266 200.54 129.856 200.54C129.452 200.54 129.13 200.711 128.889 201.053C128.586 201.489 128.435 202.295 128.435 203.47ZM136.958 207H136.079V201.399C135.868 201.601 135.59 201.803 135.245 202.005C134.903 202.207 134.595 202.358 134.322 202.459V201.609C134.813 201.378 135.243 201.098 135.611 200.77C135.979 200.441 136.239 200.122 136.392 199.812H136.958V207ZM139.823 200.779V199.935H144.457V200.618C144.001 201.103 143.548 201.748 143.099 202.552C142.653 203.356 142.308 204.183 142.064 205.032C141.888 205.631 141.776 206.287 141.727 207H140.824C140.834 206.437 140.944 205.757 141.156 204.959C141.367 204.161 141.67 203.393 142.064 202.654C142.461 201.912 142.883 201.287 143.329 200.779H139.823Z" fill="#ECECEC"/>
<path d="M75.0342 206.155V207H70.3027C70.2962 206.788 70.3304 206.585 70.4053 206.39C70.5257 206.067 70.7178 205.75 70.9814 205.438C71.2484 205.125 71.6325 204.764 72.1338 204.354C72.9118 203.715 73.4375 203.211 73.7109 202.84C73.9844 202.465 74.1211 202.112 74.1211 201.78C74.1211 201.432 73.9958 201.139 73.7451 200.901C73.4977 200.66 73.1738 200.54 72.7734 200.54C72.3503 200.54 72.0117 200.667 71.7578 200.921C71.5039 201.175 71.3753 201.526 71.3721 201.976L70.4688 201.883C70.5306 201.209 70.7633 200.696 71.167 200.345C71.5706 199.99 72.1126 199.812 72.793 199.812C73.4798 199.812 74.0234 200.003 74.4238 200.384C74.8242 200.765 75.0244 201.237 75.0244 201.8C75.0244 202.086 74.9658 202.368 74.8486 202.645C74.7314 202.921 74.5361 203.213 74.2627 203.519C73.9925 203.825 73.5417 204.244 72.9102 204.778C72.3828 205.221 72.0443 205.522 71.8945 205.682C71.7448 205.838 71.6211 205.996 71.5234 206.155H75.0342ZM76.5314 203.47C76.5314 202.623 76.6177 201.943 76.7902 201.429C76.966 200.911 77.2248 200.512 77.5666 200.232C77.9117 199.952 78.3446 199.812 78.8654 199.812C79.2495 199.812 79.5865 199.891 79.8762 200.047C80.1659 200.2 80.4051 200.423 80.5939 200.716C80.7827 201.006 80.9309 201.36 81.0383 201.78C81.1457 202.197 81.1994 202.76 81.1994 203.47C81.1994 204.31 81.1132 204.988 80.9406 205.506C80.7681 206.02 80.5093 206.419 80.1643 206.702C79.8225 206.982 79.3895 207.122 78.8654 207.122C78.1753 207.122 77.6333 206.875 77.2395 206.38C76.7674 205.784 76.5314 204.814 76.5314 203.47ZM77.4348 203.47C77.4348 204.645 77.5715 205.428 77.8449 205.818C78.1216 206.206 78.4618 206.399 78.8654 206.399C79.2691 206.399 79.6076 206.204 79.8811 205.813C80.1577 205.423 80.2961 204.642 80.2961 203.47C80.2961 202.291 80.1577 201.508 79.8811 201.121C79.6076 200.734 79.2658 200.54 78.8557 200.54C78.452 200.54 78.1298 200.711 77.8889 201.053C77.5861 201.489 77.4348 202.295 77.4348 203.47ZM85.9584 207H85.0795V201.399C84.8679 201.601 84.5896 201.803 84.2445 202.005C83.9027 202.207 83.5951 202.358 83.3217 202.459V201.609C83.8132 201.378 84.2429 201.098 84.6107 200.77C84.9786 200.441 85.239 200.122 85.392 199.812H85.9584V207ZM93.3248 201.595L92.4508 201.663C92.3727 201.318 92.262 201.067 92.1187 200.911C91.8811 200.66 91.5882 200.535 91.2398 200.535C90.9599 200.535 90.7141 200.613 90.5025 200.77C90.2258 200.971 90.0077 201.266 89.8482 201.653C89.6887 202.041 89.6057 202.592 89.5992 203.309C89.8108 202.986 90.0696 202.747 90.3756 202.591C90.6816 202.435 91.0022 202.356 91.3375 202.356C91.9234 202.356 92.4215 202.573 92.8316 203.006C93.2451 203.436 93.4518 203.992 93.4518 204.676C93.4518 205.125 93.3541 205.543 93.1588 205.931C92.9667 206.315 92.7014 206.609 92.3629 206.814C92.0243 207.02 91.6402 207.122 91.2105 207.122C90.4781 207.122 89.8808 206.854 89.4186 206.316C88.9563 205.776 88.7252 204.887 88.7252 203.65C88.7252 202.267 88.9807 201.261 89.4918 200.633C89.9378 200.086 90.5383 199.812 91.2936 199.812C91.8567 199.812 92.3173 199.97 92.6754 200.286C93.0367 200.602 93.2532 201.038 93.3248 201.595ZM89.7359 204.681C89.7359 204.983 89.7994 205.273 89.9264 205.55C90.0566 205.826 90.2372 206.038 90.4684 206.185C90.6995 206.328 90.942 206.399 91.1959 206.399C91.567 206.399 91.886 206.25 92.1529 205.95C92.4199 205.651 92.5533 205.244 92.5533 204.729C92.5533 204.235 92.4215 203.846 92.1578 203.562C91.8941 203.276 91.5621 203.133 91.1617 203.133C90.7646 203.133 90.4277 203.276 90.151 203.562C89.8743 203.846 89.7359 204.218 89.7359 204.681Z" fill="#ECECEC"/>
<path d="M24.0342 206.155V207H19.3027C19.2962 206.788 19.3304 206.585 19.4053 206.39C19.5257 206.067 19.7178 205.75 19.9814 205.438C20.2484 205.125 20.6325 204.764 21.1338 204.354C21.9118 203.715 22.4375 203.211 22.7109 202.84C22.9844 202.465 23.1211 202.112 23.1211 201.78C23.1211 201.432 22.9958 201.139 22.7451 200.901C22.4977 200.66 22.1738 200.54 21.7734 200.54C21.3503 200.54 21.0117 200.667 20.7578 200.921C20.5039 201.175 20.3753 201.526 20.3721 201.976L19.4688 201.883C19.5306 201.209 19.7633 200.696 20.167 200.345C20.5706 199.99 21.1126 199.812 21.793 199.812C22.4798 199.812 23.0234 200.003 23.4238 200.384C23.8242 200.765 24.0244 201.237 24.0244 201.8C24.0244 202.086 23.9658 202.368 23.8486 202.645C23.7314 202.921 23.5361 203.213 23.2627 203.519C22.9925 203.825 22.5417 204.244 21.9102 204.778C21.3828 205.221 21.0443 205.522 20.8945 205.682C20.7448 205.838 20.6211 205.996 20.5234 206.155H24.0342ZM25.5314 203.47C25.5314 202.623 25.6177 201.943 25.7902 201.429C25.966 200.911 26.2248 200.512 26.5666 200.232C26.9117 199.952 27.3446 199.812 27.8654 199.812C28.2495 199.812 28.5865 199.891 28.8762 200.047C29.1659 200.2 29.4051 200.423 29.5939 200.716C29.7827 201.006 29.9309 201.36 30.0383 201.78C30.1457 202.197 30.1994 202.76 30.1994 203.47C30.1994 204.31 30.1132 204.988 29.9406 205.506C29.7681 206.02 29.5093 206.419 29.1643 206.702C28.8225 206.982 28.3895 207.122 27.8654 207.122C27.1753 207.122 26.6333 206.875 26.2395 206.38C25.7674 205.784 25.5314 204.814 25.5314 203.47ZM26.4348 203.47C26.4348 204.645 26.5715 205.428 26.8449 205.818C27.1216 206.206 27.4618 206.399 27.8654 206.399C28.2691 206.399 28.6076 206.204 28.8811 205.813C29.1577 205.423 29.2961 204.642 29.2961 203.47C29.2961 202.291 29.1577 201.508 28.8811 201.121C28.6076 200.734 28.2658 200.54 27.8557 200.54C27.452 200.54 27.1298 200.711 26.8889 201.053C26.5861 201.489 26.4348 202.295 26.4348 203.47ZM34.9584 207H34.0795V201.399C33.8679 201.601 33.5896 201.803 33.2445 202.005C32.9027 202.207 32.5951 202.358 32.3217 202.459V201.609C32.8132 201.378 33.2429 201.098 33.6107 200.77C33.9786 200.441 34.239 200.122 34.392 199.812H34.9584V207ZM37.7643 205.125L38.6871 205.047C38.7555 205.496 38.9133 205.835 39.1607 206.062C39.4114 206.287 39.7125 206.399 40.0641 206.399C40.4872 206.399 40.8453 206.24 41.1383 205.921C41.4312 205.602 41.5777 205.179 41.5777 204.651C41.5777 204.15 41.4361 203.755 41.1529 203.465C40.873 203.175 40.5051 203.03 40.0494 203.03C39.7662 203.03 39.5107 203.095 39.2828 203.226C39.0549 203.353 38.8759 203.519 38.7457 203.724L37.9205 203.616L38.6139 199.939H42.1734V200.779H39.317L38.9312 202.703C39.3609 202.404 39.8118 202.254 40.2838 202.254C40.9088 202.254 41.4361 202.47 41.8658 202.903C42.2955 203.336 42.5104 203.893 42.5104 204.573C42.5104 205.221 42.3215 205.781 41.9439 206.253C41.485 206.832 40.8583 207.122 40.0641 207.122C39.413 207.122 38.8808 206.94 38.4674 206.575C38.0572 206.211 37.8229 205.727 37.7643 205.125Z" fill="#ECECEC"/>
<path d="M294.768 192.118C294.403 191.985 294.133 191.794 293.957 191.547C293.781 191.299 293.693 191.003 293.693 190.658C293.693 190.137 293.881 189.7 294.255 189.345C294.629 188.99 295.127 188.812 295.749 188.812C296.374 188.812 296.877 188.995 297.258 189.359C297.639 189.721 297.829 190.162 297.829 190.683C297.829 191.015 297.741 191.304 297.565 191.552C297.393 191.796 297.129 191.985 296.774 192.118C297.214 192.261 297.548 192.493 297.775 192.812C298.007 193.131 298.122 193.511 298.122 193.954C298.122 194.566 297.906 195.08 297.473 195.497C297.04 195.914 296.47 196.122 295.764 196.122C295.057 196.122 294.488 195.914 294.055 195.497C293.622 195.077 293.405 194.555 293.405 193.93C293.405 193.464 293.522 193.075 293.757 192.763C293.994 192.447 294.331 192.232 294.768 192.118ZM294.592 190.629C294.592 190.967 294.701 191.244 294.919 191.459C295.137 191.674 295.42 191.781 295.769 191.781C296.107 191.781 296.384 191.675 296.599 191.464C296.817 191.249 296.926 190.987 296.926 190.678C296.926 190.355 296.813 190.085 296.589 189.867C296.368 189.646 296.091 189.535 295.759 189.535C295.424 189.535 295.145 189.643 294.924 189.857C294.702 190.072 294.592 190.329 294.592 190.629ZM294.309 193.935C294.309 194.185 294.367 194.428 294.484 194.662C294.605 194.896 294.782 195.079 295.017 195.209C295.251 195.336 295.503 195.399 295.773 195.399C296.193 195.399 296.54 195.264 296.813 194.994C297.087 194.724 297.224 194.381 297.224 193.964C297.224 193.541 297.082 193.191 296.799 192.914C296.519 192.637 296.167 192.499 295.744 192.499C295.331 192.499 294.987 192.636 294.714 192.909C294.444 193.183 294.309 193.524 294.309 193.935ZM299.531 192.47C299.531 191.623 299.618 190.943 299.79 190.429C299.966 189.911 300.225 189.512 300.567 189.232C300.912 188.952 301.345 188.812 301.865 188.812C302.25 188.812 302.586 188.891 302.876 189.047C303.166 189.2 303.405 189.423 303.594 189.716C303.783 190.006 303.931 190.36 304.038 190.78C304.146 191.197 304.199 191.76 304.199 192.47C304.199 193.31 304.113 193.988 303.941 194.506C303.768 195.02 303.509 195.419 303.164 195.702C302.822 195.982 302.39 196.122 301.865 196.122C301.175 196.122 300.633 195.875 300.239 195.38C299.767 194.784 299.531 193.814 299.531 192.47ZM300.435 192.47C300.435 193.645 300.571 194.428 300.845 194.818C301.122 195.206 301.462 195.399 301.865 195.399C302.269 195.399 302.608 195.204 302.881 194.813C303.158 194.423 303.296 193.642 303.296 192.47C303.296 191.291 303.158 190.508 302.881 190.121C302.608 189.734 302.266 189.54 301.856 189.54C301.452 189.54 301.13 189.711 300.889 190.053C300.586 190.489 300.435 191.295 300.435 192.47ZM308.981 192.47C308.981 191.623 309.067 190.943 309.24 190.429C309.416 189.911 309.674 189.512 310.016 189.232C310.361 188.952 310.794 188.812 311.315 188.812C311.699 188.812 312.036 188.891 312.326 189.047C312.615 189.2 312.855 189.423 313.044 189.716C313.232 190.006 313.38 190.36 313.488 190.78C313.595 191.197 313.649 191.76 313.649 192.47C313.649 193.31 313.563 193.988 313.39 194.506C313.218 195.02 312.959 195.419 312.614 195.702C312.272 195.982 311.839 196.122 311.315 196.122C310.625 196.122 310.083 195.875 309.689 195.38C309.217 194.784 308.981 193.814 308.981 192.47ZM309.884 192.47C309.884 193.645 310.021 194.428 310.295 194.818C310.571 195.206 310.911 195.399 311.315 195.399C311.719 195.399 312.057 195.204 312.331 194.813C312.607 194.423 312.746 193.642 312.746 192.47C312.746 191.291 312.607 190.508 312.331 190.121C312.057 189.734 311.715 189.54 311.305 189.54C310.902 189.54 310.579 189.711 310.338 190.053C310.036 190.489 309.884 191.295 309.884 192.47ZM315.097 192.47C315.097 191.623 315.184 190.943 315.356 190.429C315.532 189.911 315.791 189.512 316.133 189.232C316.478 188.952 316.911 188.812 317.431 188.812C317.816 188.812 318.152 188.891 318.442 189.047C318.732 189.2 318.971 189.423 319.16 189.716C319.349 190.006 319.497 190.36 319.604 190.78C319.712 191.197 319.765 191.76 319.765 192.47C319.765 193.31 319.679 193.988 319.507 194.506C319.334 195.02 319.075 195.419 318.73 195.702C318.388 195.982 317.956 196.122 317.431 196.122C316.741 196.122 316.199 195.875 315.805 195.38C315.333 194.784 315.097 193.814 315.097 192.47ZM316.001 192.47C316.001 193.645 316.138 194.428 316.411 194.818C316.688 195.206 317.028 195.399 317.431 195.399C317.835 195.399 318.174 195.204 318.447 194.813C318.724 194.423 318.862 193.642 318.862 192.47C318.862 191.291 318.724 190.508 318.447 190.121C318.174 189.734 317.832 189.54 317.422 189.54C317.018 189.54 316.696 189.711 316.455 190.053C316.152 190.489 316.001 191.295 316.001 192.47ZM321.214 192.47C321.214 191.623 321.3 190.943 321.473 190.429C321.648 189.911 321.907 189.512 322.249 189.232C322.594 188.952 323.027 188.812 323.548 188.812C323.932 188.812 324.269 188.891 324.559 189.047C324.848 189.2 325.088 189.423 325.276 189.716C325.465 190.006 325.613 190.36 325.721 190.78C325.828 191.197 325.882 191.76 325.882 192.47C325.882 193.31 325.796 193.988 325.623 194.506C325.451 195.02 325.192 195.419 324.847 195.702C324.505 195.982 324.072 196.122 323.548 196.122C322.858 196.122 322.316 195.875 321.922 195.38C321.45 194.784 321.214 193.814 321.214 192.47ZM322.117 192.47C322.117 193.645 322.254 194.428 322.527 194.818C322.804 195.206 323.144 195.399 323.548 195.399C323.951 195.399 324.29 195.204 324.563 194.813C324.84 194.423 324.979 193.642 324.979 192.47C324.979 191.291 324.84 190.508 324.563 190.121C324.29 189.734 323.948 189.54 323.538 189.54C323.134 189.54 322.812 189.711 322.571 190.053C322.269 190.489 322.117 191.295 322.117 192.47Z" fill="#ECECEC"/>
<rect width="4.28059" height="61.9937" transform="matrix(0.546818 0.837252 -0.838719 0.544564 75.311 142.823)" fill="#D36FF5"/>
<rect width="4.27949" height="55.5549" transform="matrix(0.458537 0.888675 -0.88977 0.45641 126.544 115.924)" fill="#D36FF5"/>
<rect width="4.27728" height="51.1114" transform="matrix(0.1858 0.982587 -0.982786 0.184748 178.623 106.742)" fill="url(#paint0_linear_2023_7088)"/>
<rect width="4.28115" height="59.136" transform="matrix(0.585285 0.810827 -0.812456 0.583022 227.462 71.6641)" fill="#DD5F4D"/>
<rect width="4.28282" height="62.0422" transform="matrix(0.68942 0.724361 -0.726383 0.68729 274.896 26.6367)" fill="#DD5F4D"/>
<g filter="url(#filter0_d_2023_7088)">
<ellipse cx="26.6597" cy="178.586" rx="7.65972" ry="7.63723" fill="white"/>
</g>
<ellipse cx="26.6095" cy="178.536" rx="3.98305" ry="3.97136" fill="#C348EE"/>
<g filter="url(#filter1_d_2023_7088)">
<ellipse cx="77.5972" cy="144.614" rx="7.65972" ry="7.63723" fill="white"/>
</g>
<ellipse cx="77.547" cy="144.563" rx="3.98305" ry="3.97136" fill="#C348EE"/>
<g filter="url(#filter2_d_2023_7088)">
<ellipse cx="127.768" cy="118.998" rx="7.65972" ry="7.63723" fill="white"/>
</g>
<ellipse cx="127.717" cy="118.947" rx="3.98305" ry="3.97136" fill="#C348EE"/>
<g filter="url(#filter3_d_2023_7088)">
<ellipse cx="179.476" cy="107.337" rx="7.65972" ry="7.63723" fill="white"/>
</g>
<ellipse cx="179.426" cy="107.287" rx="3.98305" ry="3.97136" fill="#EF5843"/>
<g filter="url(#filter4_d_2023_7088)">
<ellipse cx="228.876" cy="71.7144" rx="7.65972" ry="7.63723" fill="white"/>
</g>
<ellipse cx="228.826" cy="71.6637" rx="3.98305" ry="3.97136" fill="#EF5843"/>
<g filter="url(#filter5_d_2023_7088)">
<ellipse cx="277.898" cy="26.6372" rx="7.65972" ry="7.63723" fill="white"/>
</g>
<ellipse cx="277.848" cy="26.5866" rx="3.98305" ry="3.97136" fill="#EF5843"/>
<defs>
<filter id="filter0_d_2023_7088" x="0" y="151.949" width="53.3193" height="53.2744" filterUnits="userSpaceOnUse" color-interpolation-filters="sRGB">
<feFlood flood-opacity="0" result="BackgroundImageFix"/>
<feColorMatrix in="SourceAlpha" type="matrix" values="0 0 0 0 0 0 0 0 0 0 0 0 0 0 0 0 0 0 127 0" result="hardAlpha"/>
<feOffset/>
<feGaussianBlur stdDeviation="9.5"/>
<feColorMatrix type="matrix" values="0 0 0 0 0.764706 0 0 0 0 0.282353 0 0 0 0 0.933333 0 0 0 0.5 0"/>
<feBlend mode="normal" in2="BackgroundImageFix" result="effect1_dropShadow_2023_7088"/>
<feBlend mode="normal" in="SourceGraphic" in2="effect1_dropShadow_2023_7088" result="shape"/>
</filter>
<filter id="filter1_d_2023_7088" x="50.9375" y="117.977" width="53.3193" height="53.2744" filterUnits="userSpaceOnUse" color-interpolation-filters="sRGB">
<feFlood flood-opacity="0" result="BackgroundImageFix"/>
<feColorMatrix in="SourceAlpha" type="matrix" values="0 0 0 0 0 0 0 0 0 0 0 0 0 0 0 0 0 0 127 0" result="hardAlpha"/>
<feOffset/>
<feGaussianBlur stdDeviation="9.5"/>
<feColorMatrix type="matrix" values="0 0 0 0 0.764706 0 0 0 0 0.282353 0 0 0 0 0.933333 0 0 0 0.5 0"/>
<feBlend mode="normal" in2="BackgroundImageFix" result="effect1_dropShadow_2023_7088"/>
<feBlend mode="normal" in="SourceGraphic" in2="effect1_dropShadow_2023_7088" result="shape"/>
</filter>
<filter id="filter2_d_2023_7088" x="101.108" y="92.3604" width="53.3193" height="53.2744" filterUnits="userSpaceOnUse" color-interpolation-filters="sRGB">
<feFlood flood-opacity="0" result="BackgroundImageFix"/>
<feColorMatrix in="SourceAlpha" type="matrix" values="0 0 0 0 0 0 0 0 0 0 0 0 0 0 0 0 0 0 127 0" result="hardAlpha"/>
<feOffset/>
<feGaussianBlur stdDeviation="9.5"/>
<feColorMatrix type="matrix" values="0 0 0 0 0.764706 0 0 0 0 0.282353 0 0 0 0 0.933333 0 0 0 0.5 0"/>
<feBlend mode="normal" in2="BackgroundImageFix" result="effect1_dropShadow_2023_7088"/>
<feBlend mode="normal" in="SourceGraphic" in2="effect1_dropShadow_2023_7088" result="shape"/>
</filter>
<filter id="filter3_d_2023_7088" x="152.816" y="80.7002" width="53.3193" height="53.2744" filterUnits="userSpaceOnUse" color-interpolation-filters="sRGB">
<feFlood flood-opacity="0" result="BackgroundImageFix"/>
<feColorMatrix in="SourceAlpha" type="matrix" values="0 0 0 0 0 0 0 0 0 0 0 0 0 0 0 0 0 0 127 0" result="hardAlpha"/>
<feOffset/>
<feGaussianBlur stdDeviation="9.5"/>
<feColorMatrix type="matrix" values="0 0 0 0 0.937255 0 0 0 0 0.345098 0 0 0 0 0.262745 0 0 0 0.5 0"/>
<feBlend mode="normal" in2="BackgroundImageFix" result="effect1_dropShadow_2023_7088"/>
<feBlend mode="normal" in="SourceGraphic" in2="effect1_dropShadow_2023_7088" result="shape"/>
</filter>
<filter id="filter4_d_2023_7088" x="202.216" y="45.0771" width="53.3193" height="53.2744" filterUnits="userSpaceOnUse" color-interpolation-filters="sRGB">
<feFlood flood-opacity="0" result="BackgroundImageFix"/>
<feColorMatrix in="SourceAlpha" type="matrix" values="0 0 0 0 0 0 0 0 0 0 0 0 0 0 0 0 0 0 127 0" result="hardAlpha"/>
<feOffset/>
<feGaussianBlur stdDeviation="9.5"/>
<feColorMatrix type="matrix" values="0 0 0 0 0.937255 0 0 0 0 0.345098 0 0 0 0 0.262745 0 0 0 0.5 0"/>
<feBlend mode="normal" in2="BackgroundImageFix" result="effect1_dropShadow_2023_7088"/>
<feBlend mode="normal" in="SourceGraphic" in2="effect1_dropShadow_2023_7088" result="shape"/>
</filter>
<filter id="filter5_d_2023_7088" x="251.238" y="0" width="53.3193" height="53.2744" filterUnits="userSpaceOnUse" color-interpolation-filters="sRGB">
<feFlood flood-opacity="0" result="BackgroundImageFix"/>
<feColorMatrix in="SourceAlpha" type="matrix" values="0 0 0 0 0 0 0 0 0 0 0 0 0 0 0 0 0 0 127 0" result="hardAlpha"/>
<feOffset/>
<feGaussianBlur stdDeviation="9.5"/>
<feColorMatrix type="matrix" values="0 0 0 0 0.937255 0 0 0 0 0.345098 0 0 0 0 0.262745 0 0 0 0.5 0"/>
<feBlend mode="normal" in2="BackgroundImageFix" result="effect1_dropShadow_2023_7088"/>
<feBlend mode="normal" in="SourceGraphic" in2="effect1_dropShadow_2023_7088" result="shape"/>
</filter>
<linearGradient id="paint0_linear_2023_7088" x1="2.13864" y1="0" x2="2.13864" y2="51.1114" gradientUnits="userSpaceOnUse">
<stop stop-color="#DD5F4D"/>
<stop offset="1" stop-color="#D36FF5"/>
</linearGradient>
</defs>
</svg>
