<svg width="20" height="20" viewBox="0 0 20 20" fill="none" xmlns="http://www.w3.org/2000/svg">
<path d="M19.6774 18.0645H19.3548V6.77419C19.3548 6.59573 19.2107 6.45161 19.0323 6.45161H18.7097V3.54839C18.7097 3.36993 18.5656 3.22581 18.3871 3.22581H17.9602L16.7514 0.202873C16.7019 0.0803302 16.5836 0 16.4516 0C16.3196 0 16.2013 0.0803302 16.1519 0.202873L14.943 3.22581H14.5161C14.3377 3.22581 14.1935 3.36993 14.1935 3.54839V6.45161H13.871C13.6925 6.45161 13.5484 6.59573 13.5484 6.77419V8.7522L10.3226 6.60156V5.16129H12.5806C12.6997 5.16129 12.809 5.09577 12.8651 4.99102C12.9213 4.88612 12.9149 4.75869 12.849 4.65994L12.3233 3.87097L12.849 3.08231C12.9149 2.98324 12.9213 2.85613 12.8651 2.75123C12.809 2.64648 12.6997 2.58065 12.5806 2.58065H10.3226V1.93548H9.67742V6.60156L6.45161 8.7522V6.77419C6.45161 6.59573 6.30749 6.45161 6.12903 6.45161H5.80645V3.54839C5.80645 3.36993 5.66233 3.22581 5.48387 3.22581H5.05702L3.84813 0.202873C3.79867 0.0803302 3.68038 0 3.54839 0C3.41639 0 3.2981 0.0803302 3.24865 0.202873L2.03976 3.22581H1.6129C1.43444 3.22581 1.29032 3.36993 1.29032 3.54839V6.45161H0.967742C0.789283 6.45161 0.645161 6.59573 0.645161 6.77419V18.0645H0.322581C0.144122 18.0645 0 18.2086 0 18.3871V19.6774C0 19.8559 0.144122 20 0.322581 20H19.6774C19.8559 20 20 19.8559 20 19.6774V18.3871C20 18.2086 19.8559 18.0645 19.6774 18.0645ZM18.0645 6.45161H17.4194V3.87097H18.0645V6.45161ZM16.129 4.51613H16.7742V6.45161H16.129V4.51613ZM16.4516 1.19093L17.2655 3.22581H17.0968C16.9183 3.22581 16.7742 3.36993 16.7742 3.54839V3.87097H16.129V3.54839C16.129 3.36993 15.9849 3.22581 15.8065 3.22581H15.6378L16.4516 1.19093ZM14.8387 3.87097H15.4839V6.45161H14.8387V3.87097ZM14.1935 7.09677H18.7097V18.0645H14.1935V7.09677ZM12.9032 18.0645V15.8065C12.9032 15.628 12.7591 15.4839 12.5806 15.4839H11.2903C11.1119 15.4839 10.9677 15.628 10.9677 15.8065V18.0645H9.03226V15.8065C9.03226 15.628 8.88814 15.4839 8.70968 15.4839H7.41935C7.2409 15.4839 7.09677 15.628 7.09677 15.8065V18.0645H6.45161V12.9032H13.5484V18.0645H12.9032ZM12.2581 18.0645H11.6129V16.129H12.2581V18.0645ZM8.3871 18.0645H7.74194V16.129H8.3871V18.0645ZM13.5484 12.2581H6.45161V10.9677H13.5484V12.2581ZM11.978 3.22581L11.6671 3.69188C11.5948 3.80025 11.5948 3.94122 11.6671 4.04974L11.978 4.51613H10.3226V3.22581H11.978ZM10 7.16198L13.5484 9.52747V10.3226H6.45161V9.52747L10 7.16198ZM5.16129 6.45161H4.51613V3.87097H5.16129V6.45161ZM3.22581 4.51613H3.87097V6.45161H3.22581V4.51613ZM3.54839 1.19093L4.36224 3.22581H4.19355C4.01509 3.22581 3.87097 3.36993 3.87097 3.54839V3.87097H3.22581V3.54839C3.22581 3.36993 3.08168 3.22581 2.90323 3.22581H2.73453L3.54839 1.19093ZM1.93548 3.87097H2.58065V6.45161H1.93548V3.87097ZM1.29032 7.09677H5.80645V18.0645H1.29032V7.09677ZM19.3548 19.3548H0.645161V18.7097H19.3548V19.3548Z" fill="white"/>
<path d="M2.25813 9.6773H3.54845C3.72691 9.6773 3.87103 9.53318 3.87103 9.35472V8.0644C3.87103 7.88594 3.72691 7.74182 3.54845 7.74182H2.25813C2.07967 7.74182 1.93555 7.88594 1.93555 8.0644V9.35472C1.93555 9.53318 2.07967 9.6773 2.25813 9.6773ZM2.58071 8.38698H3.22587V9.03214H2.58071V8.38698Z" fill="white"/>
<path d="M4.83825 10.3228H3.54792C3.36946 10.3228 3.22534 10.4669 3.22534 10.6453V11.9357C3.22534 12.1141 3.36946 12.2582 3.54792 12.2582H4.83825C5.0167 12.2582 5.16083 12.1141 5.16083 11.9357V10.6453C5.16083 10.4669 5.0167 10.3228 4.83825 10.3228ZM4.51566 11.6131H3.8705V10.9679H4.51566V11.6131Z" fill="white"/>
<path d="M4.51636 7.74182H5.16152V9.6773H4.51636V7.74182Z" fill="white"/>
<path d="M1.93555 10.3228H2.58071V12.2582H1.93555V10.3228Z" fill="white"/>
<path d="M2.25813 14.8387H3.54845C3.72691 14.8387 3.87103 14.6946 3.87103 14.5161V13.2258C3.87103 13.0473 3.72691 12.9032 3.54845 12.9032H2.25813C2.07967 12.9032 1.93555 13.0473 1.93555 13.2258V14.5161C1.93555 14.6946 2.07967 14.8387 2.25813 14.8387ZM2.58071 13.5484H3.22587V14.1935H2.58071V13.5484Z" fill="white"/>
<path d="M4.83825 15.4841H3.54792C3.36946 15.4841 3.22534 15.6283 3.22534 15.8067V17.097C3.22534 17.2755 3.36946 17.4196 3.54792 17.4196H4.83825C5.0167 17.4196 5.16083 17.2755 5.16083 17.097V15.8067C5.16083 15.6283 5.0167 15.4841 4.83825 15.4841ZM4.51566 16.7745H3.8705V16.1293H4.51566V16.7745Z" fill="white"/>
<path d="M4.51636 12.9032H5.16152V14.8387H4.51636V12.9032Z" fill="white"/>
<path d="M1.93555 15.4841H2.58071V17.4196H1.93555V15.4841Z" fill="white"/>
<path d="M15.1617 9.6773H16.452C16.6305 9.6773 16.7746 9.53318 16.7746 9.35472V8.0644C16.7746 7.88594 16.6305 7.74182 16.452 7.74182H15.1617C14.9832 7.74182 14.8391 7.88594 14.8391 8.0644V9.35472C14.8391 9.53318 14.9832 9.6773 15.1617 9.6773ZM15.4843 8.38698H16.1294V9.03214H15.4843V8.38698Z" fill="white"/>
<path d="M17.7421 10.3228H16.4517C16.2733 10.3228 16.1292 10.4669 16.1292 10.6453V11.9357C16.1292 12.1141 16.2733 12.2582 16.4517 12.2582H17.7421C17.9205 12.2582 18.0646 12.1141 18.0646 11.9357V10.6453C18.0646 10.4669 17.9205 10.3228 17.7421 10.3228ZM17.4195 11.6131H16.7743V10.9679H17.4195V11.6131Z" fill="white"/>
<path d="M17.4189 7.74182H18.0641V9.6773H17.4189V7.74182Z" fill="white"/>
<path d="M14.8391 10.3228H15.4843V12.2582H14.8391V10.3228Z" fill="white"/>
<path d="M15.1617 14.8387H16.452C16.6305 14.8387 16.7746 14.6946 16.7746 14.5161V13.2258C16.7746 13.0473 16.6305 12.9032 16.452 12.9032H15.1617C14.9832 12.9032 14.8391 13.0473 14.8391 13.2258V14.5161C14.8391 14.6946 14.9832 14.8387 15.1617 14.8387ZM15.4843 13.5484H16.1294V14.1935H15.4843V13.5484Z" fill="white"/>
<path d="M17.7421 15.4841H16.4517C16.2733 15.4841 16.1292 15.6283 16.1292 15.8067V17.097C16.1292 17.2755 16.2733 17.4196 16.4517 17.4196H17.7421C17.9205 17.4196 18.0646 17.2755 18.0646 17.097V15.8067C18.0646 15.6283 17.9205 15.4841 17.7421 15.4841ZM17.4195 16.7745H16.7743V16.1293H17.4195V16.7745Z" fill="white"/>
<path d="M17.4189 12.9032H18.0641V14.8387H17.4189V12.9032Z" fill="white"/>
<path d="M14.8391 15.4841H15.4843V17.4196H14.8391V15.4841Z" fill="white"/>
<path d="M9.99948 9.6773C10.533 9.6773 10.9672 9.24305 10.9672 8.70956C10.9672 8.17608 10.533 7.74182 9.99948 7.74182C9.46599 7.74182 9.03174 8.17608 9.03174 8.70956C9.03174 9.24305 9.46599 9.6773 9.99948 9.6773ZM9.99948 8.38698C10.1775 8.38698 10.3221 8.53158 10.3221 8.70956C10.3221 8.88755 10.1775 9.03214 9.99948 9.03214C9.82149 9.03214 9.6769 8.88755 9.6769 8.70956C9.6769 8.53158 9.82149 8.38698 9.99948 8.38698Z" fill="white"/>
<path d="M7.09619 13.5481H7.74135V14.8384H7.09619V13.5481Z" fill="white"/>
<path d="M8.38721 13.5481H9.03237V14.8384H8.38721V13.5481Z" fill="white"/>
<path d="M10.9683 13.5481H11.6134V14.8384H10.9683V13.5481Z" fill="white"/>
<path d="M12.2583 13.5481H12.9035V14.8384H12.2583V13.5481Z" fill="white"/>
<path d="M9.67725 13.5481H10.3224V14.8384H9.67725V13.5481Z" fill="white"/>
</svg>
