<svg width="20" height="20" viewBox="0 0 20 20" fill="none" xmlns="http://www.w3.org/2000/svg">
<path d="M18.2422 0H9.96094C8.99168 0 8.20312 0.788555 8.20312 1.75781V5.75645L7.68816 5.24152C7.35613 4.90945 6.91473 4.72656 6.44531 4.72656H5.27344C5.02504 4.72656 3.17809 4.72656 2.92969 4.72656C1.31426 4.72656 0 6.04082 0 7.65625C0 7.98941 0 10.6906 0 11.1719C0 12.1411 0.788555 12.9297 1.75781 12.9297C1.96316 12.9297 2.16043 12.8943 2.34375 12.8293V18.2422C2.34375 19.2114 3.1323 20 4.10156 20C4.55137 20 4.96223 19.8302 5.27344 19.5513C5.58465 19.8302 5.99551 20 6.44531 20C7.41457 20 8.20312 19.2114 8.20312 18.2422V10.4861C8.65113 10.6441 9.14742 10.6137 9.57523 10.4005L11.5481 9.41406H18.2422C19.2114 9.41406 20 8.62551 20 7.65625V1.75781C20 0.788555 19.2114 0 18.2422 0ZM11.3949 8.18043L9.05184 9.35195C8.83203 9.46148 8.55902 9.42656 8.37477 9.24234L8.03156 8.8991C7.66922 8.53676 7.03285 8.7832 7.03129 9.3116C7.03129 9.31219 7.03121 9.31273 7.03121 9.31332V18.2422C7.03121 18.5653 6.76836 18.8281 6.44527 18.8281C6.12219 18.8281 5.85934 18.5653 5.85934 18.2422V12.3438C5.85934 12.0202 5.59699 11.7578 5.2734 11.7578C4.9498 11.7578 4.68746 12.0202 4.68746 12.3438V18.2422C4.68746 18.5653 4.42461 18.8281 4.10152 18.8281C3.77844 18.8281 3.51559 18.5653 3.51559 18.2422V11.1719C3.51559 10.7301 3.51559 8.01734 3.51559 7.65625C3.51559 7.33266 3.25324 7.07031 2.92965 7.07031C2.60605 7.07031 2.34371 7.33266 2.34371 7.65625C2.34371 7.98941 2.34371 10.6906 2.34371 11.1719C2.34371 11.495 2.08086 11.7578 1.75777 11.7578C1.43469 11.7578 1.17184 11.495 1.17184 11.1719C1.17188 10.7301 1.17188 8.01734 1.17188 7.65625C1.17188 6.68699 1.96043 5.89844 2.92969 5.89844C3.37148 5.89844 6.08422 5.89844 6.44531 5.89844C6.60172 5.89844 6.74883 5.95941 6.85953 6.07016L8.6059 7.81652C8.78418 7.99484 9.05668 8.03902 9.28223 7.92629L10.8709 7.13195C11.1616 6.98645 11.5121 7.10406 11.657 7.39414C11.8019 7.68402 11.6848 8.03551 11.3949 8.18043ZM18.8281 7.65625C18.8281 7.97934 18.5653 8.24219 18.2422 8.24219H12.7898C12.7934 8.23215 12.7973 8.2223 12.8006 8.21219C12.885 7.95906 12.9103 7.69586 12.878 7.43875L16.0823 5.8366C16.3718 5.69188 16.4891 5.33992 16.3444 5.05047C16.1996 4.76102 15.8477 4.64367 15.5582 4.78844L12.3541 6.39051C11.8408 5.89395 11.0411 5.73633 10.3466 6.08391L9.375 6.56973V1.75781C9.375 1.43473 9.63785 1.17188 9.96094 1.17188H18.2422C18.5653 1.17188 18.8281 1.43473 18.8281 1.75781V7.65625Z" fill="white"/>
<path d="M5.2749 0C3.97186 0 2.93115 1.09398 2.93115 2.38281C2.93115 3.67516 3.98256 4.72656 5.2749 4.72656C6.56725 4.72656 7.61865 3.67516 7.61865 2.38281C7.61865 1.09297 6.57662 0 5.2749 0ZM5.2749 3.55469C4.62873 3.55469 4.10303 3.02898 4.10303 2.38281C4.10303 1.72641 4.63967 1.17188 5.2749 1.17188C5.91014 1.17188 6.44678 1.72641 6.44678 2.38281C6.44678 3.02898 5.92108 3.55469 5.2749 3.55469Z" fill="white"/>
</svg>
