<svg width="20" height="20" viewBox="0 0 20 20" fill="none" xmlns="http://www.w3.org/2000/svg">
<path d="M20 13.6714C20 12.9086 19.5087 12.2643 18.8281 12.0216V5.95148L20 5.46832L10 1.45605L0 5.46832L10 9.48063L17.6562 6.42203V12.0216C16.9757 12.2643 16.4844 12.9086 16.4844 13.6714C16.4844 14.3699 16.8969 14.9694 17.4883 15.2527L16.5147 18.1736L17.6259 18.5443L18.2422 16.6955L18.8584 18.5443L19.9696 18.1736L18.9961 15.2527C19.5875 14.9695 20 14.3699 20 13.6714Z" fill="white"/>
<path d="M10.0007 10.7426L4.72729 8.62512V10.155C4.72729 11.8252 6.99437 13.0847 10.0007 13.0847C13.0071 13.0847 15.2742 11.8252 15.2742 10.155V8.62512L10.0007 10.7426Z" fill="white"/>
</svg>
