<svg width="20" height="20" viewBox="0 0 20 20" fill="none" xmlns="http://www.w3.org/2000/svg">
<path d="M2.92969 20H17.0703C18.6857 20 20 18.6857 20 17.0703C20 16.7467 19.7377 16.4844 19.4141 16.4844H18.8281V6.52344C18.8281 6.19984 18.5658 5.9375 18.2422 5.9375H13.3077L10.5249 0.325625C10.4261 0.126172 10.2227 0 10 0C9.77734 0 9.57395 0.126172 9.47508 0.325625L6.6923 5.9375H1.75781C1.43422 5.9375 1.17188 6.19984 1.17188 6.52344V16.4844H0.585938C0.262344 16.4844 0 16.7467 0 17.0703C0 18.6857 1.31426 20 2.92969 20ZM17.0703 18.8281H2.92969C2.16578 18.8281 1.5141 18.3383 1.27227 17.6559H18.7277C18.4859 18.3383 17.8342 18.8281 17.0703 18.8281ZM10 1.90488C10.0924 2.09262 13.5057 8.97469 13.5991 9.16301L10.5859 8.40969V6.52344C10.5859 6.19984 10.3236 5.9375 10 5.9375C9.67641 5.9375 9.41406 6.19984 9.41406 6.52344V8.40969L6.40094 9.16297C6.69629 8.56734 9.61117 2.69504 10 1.90488ZM2.34375 7.10938H6.11121L4.78754 9.77875C4.68602 9.98344 4.71277 10.2285 4.85602 10.4064C4.99926 10.5845 5.23293 10.6629 5.45457 10.6075L9.41406 9.61762V11.2109C9.41406 12.1802 10.2026 12.9688 11.1719 12.9688H13.5156C13.8387 12.9688 14.1016 13.2316 14.1016 13.5547C14.1016 13.8778 13.8387 14.1406 13.5156 14.1406H5.3125C4.98891 14.1406 4.72656 14.403 4.72656 14.7266C4.72656 15.0502 4.98891 15.3125 5.3125 15.3125H13.5156C14.4849 15.3125 15.2734 14.5239 15.2734 13.5547C15.2734 12.5854 14.4849 11.7969 13.5156 11.7969H11.1719C10.8488 11.7969 10.5859 11.534 10.5859 11.2109V9.61762L14.5454 10.6075C14.7698 10.6636 15.0025 10.5822 15.1439 10.4064C15.2872 10.2285 15.3139 9.98344 15.2124 9.77875L13.8888 7.10938H17.6562V16.4844H2.34375V7.10938Z" fill="white"/>
</svg>
