<svg width="166" height="166" viewBox="0 0 166 166" fill="none" xmlns="http://www.w3.org/2000/svg">
<path d="M108.938 88.1875H83C81.6242 88.1875 80.3047 87.641 79.3319 86.6681C78.359 85.6953 77.8125 84.3758 77.8125 83V46.6875C77.8125 45.3117 78.359 43.9922 79.3319 43.0194C80.3047 42.0465 81.6242 41.5 83 41.5C84.3758 41.5 85.6953 42.0465 86.6681 43.0194C87.641 43.9922 88.1875 45.3117 88.1875 46.6875V77.8125H108.938C110.313 77.8125 111.633 78.359 112.606 79.3319C113.578 80.3047 114.125 81.6242 114.125 83C114.125 84.3758 113.578 85.6953 112.606 86.6681C111.633 87.641 110.313 88.1875 108.938 88.1875Z" fill="white"/>
<path d="M127.094 127.094C118.699 135.503 108.074 141.333 96.4725 143.898C84.8709 146.462 72.7778 145.652 61.6216 141.564C50.4653 137.477 40.712 130.282 33.5135 120.829C26.315 111.376 21.9721 100.061 20.9978 88.2193C20.0234 76.3778 22.4583 64.5048 28.0149 54.0026C33.5714 43.5004 42.0175 34.8078 52.3556 28.9514C62.6936 23.0951 74.4917 20.3197 86.3563 20.953C98.221 21.5864 109.657 25.602 119.312 32.5256V25.9375C119.312 24.5617 119.859 23.2422 120.832 22.2694C121.805 21.2965 123.124 20.75 124.5 20.75C125.876 20.75 127.195 21.2965 128.168 22.2694C129.141 23.2422 129.687 24.5617 129.687 25.9375V46.6875C129.687 48.0633 129.141 49.3828 128.168 50.3556C127.195 51.3285 125.876 51.875 124.5 51.875H108.937C107.562 51.875 106.242 51.3285 105.269 50.3556C104.296 49.3828 103.75 48.0633 103.75 46.6875C103.75 45.3117 104.296 43.9922 105.269 43.0194C106.242 42.0465 107.562 41.5 108.937 41.5H114.125C104.284 34.1189 92.14 30.4752 79.861 31.2193C67.5821 31.9634 55.9671 37.0469 47.0894 45.5625C38.2117 54.078 32.6491 65.4713 31.3945 77.7086C30.1399 89.946 33.2749 102.231 40.24 112.371C47.2051 122.511 57.5469 129.845 69.4194 133.065C81.292 136.286 93.9225 135.182 105.057 129.951C116.191 124.72 125.104 115.703 130.204 104.509C135.305 93.315 136.262 80.6724 132.904 68.8381C132.66 68.1674 132.557 67.4535 132.602 66.7413C132.647 66.029 132.838 65.3337 133.164 64.6988C133.49 64.0639 133.943 63.503 134.496 63.0512C135.048 62.5995 135.688 62.2666 136.375 62.0734C137.062 61.8802 137.781 61.8308 138.488 61.9283C139.195 62.0259 139.875 62.2682 140.484 62.6402C141.093 63.0122 141.618 63.5059 142.028 64.0903C142.437 64.6748 142.722 65.3374 142.864 66.0369C145.91 76.6963 146.055 87.976 143.282 98.71C140.51 109.444 134.921 119.243 127.094 127.094Z" fill="white"/>
</svg>
