<svg width="80" height="78" viewBox="0 0 80 78" fill="none" xmlns="http://www.w3.org/2000/svg">
<path fill-rule="evenodd" clip-rule="evenodd" d="M24.081 26.2406C21.1044 26.9489 19.1764 28.9774 18.7211 31.88C18.601 32.646 18.6021 45.3452 18.7224 46.1641C19.1589 49.1352 21.2593 51.2228 24.4448 51.8525C25.2688 52.0154 54.723 52.0164 55.555 51.8536C58.382 51.3007 60.354 49.6037 61.0971 47.0843C61.3435 46.2494 61.3668 45.5472 61.3651 38.9999C61.3631 31.6698 61.3661 31.7241 60.8871 30.2657C60.808 30.0246 60.2051 28.9692 60.0843 28.8601C60.0604 28.8386 59.9305 28.6856 59.7955 28.5204C59.0305 27.5838 57.7944 26.7758 56.5671 26.41C55.3052 26.0338 56.0686 26.05 39.9305 26.0564L24.8295 26.0624L24.081 26.2406ZM43.6831 28.8271C44.2983 29.1791 44.4323 29.7574 44.1246 30.7332C43.4276 32.9445 42.2802 36.5909 42.215 36.8015C42.1719 36.941 42.1003 37.1693 42.056 37.3088C42.0116 37.4483 41.9325 37.7029 41.8802 37.8746C41.8279 38.0463 41.7488 38.301 41.7044 38.4405C41.6601 38.58 41.5875 38.8083 41.5432 38.9478C41.4988 39.0873 41.4219 39.3332 41.3723 39.4941C41.3225 39.6551 41.2413 39.9185 41.1915 40.0795C41.0529 40.5296 40.9379 40.8955 40.8546 41.1527C40.7582 41.45 40.649 41.8102 40.4758 42.4014C40.4003 42.659 40.3052 42.9575 40.2647 43.0648C40.2238 43.1722 40.1482 43.4004 40.0961 43.5721C39.8527 44.3753 39.0393 46.9821 38.8905 47.4355C38.7989 47.7146 38.6747 48.1185 38.6143 48.3331C38.2243 49.7171 36.1896 49.8123 35.7483 48.4671C35.6392 48.1344 35.6415 48.1204 35.9904 46.9868C36.0334 46.8472 36.1035 46.619 36.1464 46.4794C36.1894 46.3399 36.2868 46.0151 36.3629 45.7575C36.4389 45.4999 36.5759 45.0609 36.6673 44.7819C36.7588 44.5029 37.0457 43.5897 37.3047 42.7526C37.86 40.9589 37.894 40.8504 38.1228 40.138C38.2194 39.8375 38.3395 39.4512 38.3897 39.2795C38.4401 39.1078 38.5109 38.8795 38.547 38.7722C38.5831 38.6649 38.66 38.419 38.7179 38.2259C38.7758 38.0327 38.8527 37.7868 38.8888 37.6795C38.9249 37.5722 39.0019 37.3263 39.0598 37.1332C39.1177 36.94 39.1946 36.6942 39.2307 36.5868C39.2668 36.4795 39.3437 36.2337 39.4016 36.0405C39.4595 35.8473 39.5365 35.6015 39.5726 35.4942C39.6087 35.3869 39.6856 35.141 39.7435 34.9478C39.8014 34.7547 39.8783 34.5088 39.9144 34.4015C39.9506 34.2942 40.0285 34.0483 40.0877 33.8552C40.1471 33.662 40.2431 33.3635 40.3014 33.1918C40.3597 33.02 40.6484 32.0989 40.9428 31.1445C41.2373 30.1902 41.5477 29.3053 41.6323 29.1781C42.0351 28.5735 42.9626 28.4148 43.6831 28.8271ZM32.1279 31.3637C32.8356 31.7576 33.08 32.3875 32.7798 33.0437C32.6989 33.2204 31.5446 34.3338 29.5748 36.1351C27.8815 37.6836 26.4961 38.9806 26.4961 39.0175C26.4961 39.0541 27.8836 40.3509 29.5795 41.8992C32.6598 44.7111 32.9061 44.9764 32.9061 45.4843C32.9061 46.4357 31.6854 47.1352 30.7865 46.6991C30.4297 46.5259 23.097 39.7765 22.9957 39.5281C22.8814 39.2467 22.8814 38.7659 22.996 38.4846C23.1064 38.2128 30.1549 31.7389 30.6793 31.4273C31.1506 31.1473 31.6963 31.1233 32.1279 31.3637ZM49.1558 31.3139C49.4571 31.4316 56.8252 38.1217 56.999 38.4354C57.1325 38.6766 57.116 39.3654 56.9708 39.6151C56.8227 39.8695 49.4374 46.6024 49.1719 46.7249C48.2603 47.1458 47.1358 46.4851 47.1371 45.5294C47.1379 44.9038 46.9604 45.0978 50.4686 41.8875C52.138 40.3599 53.5038 39.0655 53.5038 39.011C53.5038 38.9566 52.1564 37.6815 50.5096 36.1775C47.0508 33.0185 47.1392 33.1145 47.1392 32.5221C47.1392 31.55 48.1732 30.9305 49.1558 31.3139Z" fill="#43DB93"/>
<path fill-rule="evenodd" clip-rule="evenodd" d="M29.2311 0.0358164C29.0196 0.054743 28.81 0.103133 28.7653 0.143327C28.7206 0.183522 28.5764 0.216498 28.4448 0.216498C28.3132 0.216498 28.2055 0.251619 28.2055 0.294546C28.2055 0.337472 28.1093 0.372593 27.9918 0.372593C27.8743 0.372593 27.7782 0.407715 27.7782 0.450641C27.7782 0.493568 27.7012 0.528689 27.6072 0.528689C27.5132 0.528689 27.4363 0.563811 27.4363 0.606737C27.4363 0.649664 27.3497 0.685566 27.244 0.686541C27.1382 0.687517 26.9555 0.75698 26.838 0.840881C26.7205 0.924783 26.5763 0.994246 26.5175 0.995221C26.4587 0.996197 26.4107 1.0321 26.4107 1.07503C26.4107 1.11795 26.3338 1.15307 26.2397 1.15307C26.1457 1.15307 26.0688 1.18819 26.0688 1.23112C26.0688 1.27405 26.0184 1.30917 25.9566 1.30917C25.8951 1.30917 25.7665 1.37571 25.671 1.45688C25.5754 1.53824 25.3855 1.66 25.2487 1.72751C25.0105 1.84536 24.2958 2.40184 24.3827 2.40184C24.406 2.40184 24.1988 2.61101 23.9221 2.86681C23.6456 3.12242 23.4193 3.36866 23.4193 3.41373C23.4193 3.459 23.3039 3.60612 23.1629 3.74095C23.0219 3.87578 22.9065 4.03343 22.9065 4.09139C22.9065 4.14953 22.868 4.19695 22.821 4.19695C22.774 4.19695 22.7356 4.26719 22.7356 4.35304C22.7356 4.43889 22.6971 4.50914 22.6501 4.50914C22.6031 4.50914 22.5646 4.57938 22.5646 4.66523C22.5646 4.75109 22.5262 4.82133 22.4792 4.82133C22.4322 4.82133 22.3937 4.87401 22.3937 4.9384C22.3937 5.03538 22.2149 5.05742 21.3467 5.06699C20.1686 5.08006 20.0942 5.08455 19.9151 5.15342C19.8446 5.18054 19.6523 5.2223 19.4878 5.24591C18.8445 5.33859 18.6293 5.38835 18.5842 5.45469C18.5586 5.49274 18.4684 5.52376 18.3838 5.52376C18.2146 5.52376 17.2043 5.97332 17.0244 6.12863C16.9625 6.18229 16.8819 6.22619 16.8456 6.22619C16.8093 6.22619 16.6676 6.314 16.5311 6.42131C16.3945 6.52843 16.2535 6.61624 16.2176 6.61643C15.8377 6.61682 13.6333 9.13055 13.548 9.6603C13.5446 9.68177 13.4921 9.78108 13.4314 9.88099C13.3707 9.98089 13.3421 10.1126 13.3677 10.1737C13.3933 10.2347 13.3771 10.2847 13.3314 10.2847C13.2859 10.2847 13.2487 10.3901 13.2487 10.5188C13.2487 10.6476 13.2102 10.753 13.1632 10.753C13.1162 10.753 13.0777 10.8935 13.0777 11.0652C13.0777 11.2369 13.0393 11.3774 12.9923 11.3774C12.9434 11.3774 12.9068 11.6115 12.9068 11.9237C12.9068 12.2359 12.8703 12.47 12.8213 12.47C12.7731 12.47 12.7359 12.6911 12.7359 12.9773C12.7359 13.2636 12.7731 13.4847 12.8213 13.4847C12.8707 13.4847 12.9068 13.7319 12.9068 14.07C12.9068 14.4082 12.9429 14.6554 12.9923 14.6554C13.0393 14.6554 13.0777 14.7959 13.0777 14.9676C13.0777 15.1393 13.1162 15.2798 13.1632 15.2798C13.2102 15.2798 13.2487 15.3547 13.2487 15.4464C13.2487 15.694 13.4352 16.2163 13.5237 16.2163C13.566 16.2163 13.5754 16.2536 13.5444 16.2993C13.5136 16.3449 13.5557 16.4503 13.6382 16.5334C13.7205 16.6165 13.7602 16.6846 13.7262 16.6846C13.6923 16.6846 13.7465 16.79 13.847 16.9188C13.9474 17.0475 14.0799 17.1529 14.1416 17.1529C14.2031 17.1529 14.4352 17.3471 14.6572 17.5845C15.3907 18.3685 16.1892 18.4481 16.8518 17.8032C17.3862 17.2833 17.3612 16.8234 16.7528 15.9822C13.9683 12.1315 17.4287 7.12453 22.3922 7.82247C22.9202 7.89681 23.4847 7.93486 23.6469 7.90696C23.9652 7.85252 24.6159 7.32589 24.6159 7.12277C24.6159 7.05779 24.65 6.94365 24.6919 6.86911C24.7338 6.79458 24.8575 6.5579 24.9669 6.34326C25.7957 4.71694 27.441 3.39988 29.3467 2.83754C30.2405 2.57374 31.8443 2.47774 32.6333 2.64086C33.5699 2.83423 33.8318 2.90759 34.3468 3.12008C36.0858 3.83773 38.2052 5.93293 38.2052 6.93487C38.2052 7.01214 38.2394 7.09487 38.2812 7.11848C38.371 7.16901 38.4238 7.43262 38.5928 8.673C38.7646 9.93523 39.0883 10.3122 40 10.3122C40.8978 10.3122 41.2613 9.90752 41.3747 8.78187C41.6371 6.17936 43.1465 4.1669 45.6114 3.13354C49.1085 1.6676 53.4895 3.15813 55.0448 6.34326C55.1497 6.5579 55.269 6.79458 55.3098 6.86911C55.3506 6.94365 55.3841 7.05779 55.3841 7.12277C55.3841 7.70364 56.3589 8.00842 57.6089 7.81818C58.514 7.68042 59.1917 7.71749 60.0849 7.9532C60.3656 8.02735 60.4923 8.07183 61.025 8.28295C64.1435 9.51962 65.2073 13.3676 63.1801 16.0772C62.4202 17.0928 62.9606 18.2456 64.1965 18.2456C66.0516 18.2456 69.3632 20.0056 70.7315 21.7187C70.8687 21.8904 71.0027 22.0485 71.0294 22.0699C71.142 22.1605 71.727 23.1033 71.9326 23.5251C72.7988 25.3023 73.0054 27.2174 72.5674 29.4049C72.4443 30.0199 72.5558 30.296 73.1669 30.8894C76.0393 33.6774 76.4557 37.4148 74.2633 40.7234C74.1637 40.8736 74.0577 41.0141 74.0278 41.0356C73.6188 41.3287 73.375 41.8018 73.375 42.3019V42.827L74.2917 43.6488C75.8886 45.081 76.557 46.2043 77.0006 48.2025C77.2145 49.1655 77.0232 51.1816 76.6572 51.8248C76.6147 51.8993 76.5801 52.0013 76.5801 52.0517C76.5801 52.237 75.7989 53.5765 75.426 54.0306C74.5545 55.0918 73.4103 55.9564 72.1785 56.4848C71.8494 56.6259 71.5134 56.7724 71.4317 56.8103C71.3501 56.8483 71.2311 56.8793 71.1672 56.8793C70.355 56.8793 69.991 57.517 69.9531 59.0063C69.8476 63.1511 66.8199 66.5216 62.3925 67.4232C61.5919 67.5862 61.4102 67.7741 61.0609 68.8004C58.3069 76.8924 46.334 77.8819 42.4008 70.3426C41.7478 69.0909 41.5121 68.2607 41.3754 66.7294C41.2705 65.5573 40.8692 65.0744 40 65.0744C39.0925 65.0744 38.743 65.5323 38.5896 66.9214C38.127 71.1096 35.2046 74.3469 31.1114 75.2054C29.9554 75.4477 29.7289 75.4665 28.3764 75.4321C25.2278 75.3521 22.8736 74.3207 20.8495 72.1348C20.0893 71.3137 18.975 69.3631 18.975 68.8533C18.975 68.2498 18.1992 67.4158 17.6377 67.4158C17.5315 67.4158 17.3563 67.3844 17.2483 67.346C17.1402 67.3075 16.8789 67.2306 16.6674 67.1752C16.4559 67.1198 16.0413 66.9756 15.7465 66.8548C15.4514 66.7341 15.1905 66.6353 15.1664 66.6353C14.5892 66.6353 12.0667 64.4533 11.3748 63.3554C10.4436 61.8781 10.084 60.6986 10.0785 59.1037C10.0727 57.4887 9.89473 57.205 8.63344 56.8021C5.16731 55.6946 2.74089 52.4212 2.93447 49.1136C3.0678 46.8371 3.86008 45.299 5.78225 43.5843C6.74076 42.7292 6.94802 42.0479 6.41001 41.5207C4.54147 39.6891 3.8603 36.4516 4.80557 33.8942C5.20021 32.8267 5.8425 31.8815 6.8132 30.9401C7.44929 30.3233 7.56852 30.0195 7.43668 29.3524C7.179 28.0482 7.13968 26.3146 7.35207 25.6211C7.3916 25.4923 7.47023 25.1973 7.52707 24.9655C7.62578 24.562 7.85441 23.996 8.22405 23.2407C8.58772 22.4971 9.36205 21.5519 10.3024 20.7041C11.5069 19.6181 11.6844 19.2612 11.3517 18.5947C11.2725 18.4358 11.2727 18.3564 11.3526 18.2397C11.437 18.1164 11.4323 18.0895 11.3263 18.0895C11.2556 18.0895 11.1975 18.0544 11.1975 18.0114C11.1975 17.9685 11.1205 17.9334 11.0265 17.9334C10.9325 17.9334 10.8556 17.8983 10.8556 17.8553C10.8556 17.8095 10.5565 17.7773 10.1291 17.7773C9.70179 17.7773 9.40265 17.8095 9.40265 17.8553C9.40265 17.8983 9.32872 17.9334 9.23855 17.9334C9.07232 17.9334 6.92409 19.8122 6.92409 19.9576C6.92409 19.9993 6.82794 20.1215 6.71042 20.2288C6.59291 20.3361 6.49676 20.4781 6.49676 20.5445C6.49676 20.6108 6.45595 20.6651 6.40616 20.6651C6.35638 20.6651 6.33949 20.7002 6.36855 20.7431C6.39761 20.786 6.38073 20.8212 6.33095 20.8212C6.28116 20.8212 6.24035 20.8672 6.24035 20.9236C6.24035 20.9798 6.16343 21.1014 6.06942 21.1935C5.9754 21.2856 5.89848 21.3976 5.89848 21.4422C5.89848 21.4869 5.86002 21.5236 5.81302 21.5236C5.76601 21.5236 5.72755 21.5938 5.72755 21.6797C5.72755 21.7655 5.68909 21.8358 5.64208 21.8358C5.59507 21.8358 5.55661 21.906 5.55661 21.9919C5.55661 22.0777 5.51815 22.148 5.47115 22.148C5.42414 22.148 5.38568 22.2182 5.38568 22.3041C5.38568 22.3899 5.34722 22.4602 5.30021 22.4602C5.2532 22.4602 5.21474 22.5655 5.21474 22.6943C5.21474 22.8231 5.17628 22.9285 5.12928 22.9285C5.08227 22.9285 5.04381 22.9987 5.04381 23.0846C5.04381 23.1704 5.00535 23.2407 4.95834 23.2407C4.91133 23.2407 4.87287 23.3439 4.87287 23.4701C4.87287 23.5964 4.83441 23.7214 4.78741 23.748C4.7404 23.7745 4.70194 23.9171 4.70194 24.0648C4.70194 24.2125 4.66348 24.3333 4.61647 24.3333C4.56946 24.3333 4.531 24.4914 4.531 24.6845C4.531 24.8777 4.49254 25.0358 4.44554 25.0358C4.39661 25.0358 4.36007 25.2699 4.36007 25.5821C4.36007 25.8943 4.32353 26.1284 4.2746 26.1284C4.15943 26.1284 4.15943 28.3659 4.2746 28.4308C4.44233 28.5255 4.37588 29.2835 4.18913 29.4064C4.09512 29.4683 4.0182 29.5571 4.0182 29.6035C4.0182 29.6502 3.8853 29.8207 3.7227 29.9828C3.56009 30.1448 3.40369 30.3448 3.37506 30.4273C3.34643 30.5097 3.28959 30.5772 3.24899 30.5772C3.2084 30.5772 3.14857 30.6562 3.11652 30.7528C3.08425 30.8494 2.99879 30.9898 2.92657 31.065C2.85435 31.1401 2.82315 31.2015 2.85734 31.2015C2.89131 31.2015 2.85691 31.2585 2.78084 31.328C2.70456 31.3976 2.62017 31.5557 2.59303 31.6792C2.56611 31.8029 2.51034 31.904 2.4691 31.904C2.42786 31.904 2.39432 31.9742 2.39432 32.0601C2.39432 32.1459 2.35586 32.2162 2.30885 32.2162C2.26184 32.2162 2.22338 32.3215 2.22338 32.4503C2.22338 32.5791 2.18492 32.6845 2.13791 32.6845C2.09091 32.6845 2.05245 32.7526 2.05245 32.8359C2.05245 32.9192 2.01399 33.0091 1.96698 33.0357C1.91997 33.0622 1.88151 33.2048 1.88151 33.3526C1.88151 33.5003 1.84305 33.621 1.79605 33.621C1.74904 33.621 1.71058 33.7615 1.71058 33.9332C1.71058 34.1049 1.67212 34.2454 1.62511 34.2454C1.57682 34.2454 1.53964 34.4665 1.53964 34.7527C1.53964 35.039 1.50246 35.26 1.45418 35.26C1.40119 35.26 1.36871 35.6893 1.36871 36.3917C1.36871 37.0942 1.40119 37.5234 1.45418 37.5234C1.50311 37.5234 1.53964 37.7576 1.53964 38.0698C1.53964 38.382 1.57618 38.6161 1.62511 38.6161C1.67212 38.6161 1.71058 38.7566 1.71058 38.9283C1.71058 39.1 1.74904 39.2405 1.79605 39.2405C1.84305 39.2405 1.88151 39.3437 1.88151 39.47C1.88151 39.5962 1.91997 39.7213 1.96698 39.7478C2.01399 39.7743 2.05245 39.8819 2.05245 39.9866C2.05245 40.0914 2.09091 40.1771 2.13791 40.1771C2.18492 40.1771 2.22338 40.2649 2.22338 40.3722C2.22338 40.4795 2.26184 40.5673 2.30885 40.5673C2.35586 40.5673 2.39432 40.6376 2.39432 40.7234C2.39432 40.8093 2.43278 40.8795 2.47978 40.8795C2.52679 40.8795 2.56525 40.9334 2.56525 40.9991C2.56525 41.1474 2.98319 41.9146 3.10177 41.9839C3.15348 42.0141 3.10605 42.116 2.98362 42.2366C2.47038 42.7433 2.39432 42.8307 2.39432 42.9136C2.39432 42.9624 2.27894 43.1006 2.13791 43.2209C1.99689 43.3413 1.88151 43.483 1.88151 43.5359C1.88151 43.5885 1.81122 43.6886 1.72553 43.7581C1.63964 43.8276 1.51486 43.9985 1.44819 44.138C1.38153 44.2775 1.29798 44.3917 1.2623 44.3917C1.22683 44.3917 1.19777 44.4619 1.19777 44.5478C1.19777 44.6336 1.15931 44.7039 1.11231 44.7039C1.0653 44.7039 1.02684 44.7741 1.02684 44.8599C1.02684 44.9458 0.988378 45.016 0.941371 45.016C0.894364 45.016 0.855903 45.0841 0.855903 45.1675C0.855903 45.2508 0.817443 45.3407 0.770436 45.3673C0.723429 45.3938 0.684968 45.5013 0.684968 45.6061C0.684968 45.7109 0.646508 45.7965 0.599501 45.7965C0.552494 45.7965 0.514033 45.9019 0.514033 46.0307C0.514033 46.1594 0.475573 46.2648 0.428566 46.2648C0.381559 46.2648 0.343098 46.4053 0.343098 46.577C0.343098 46.7487 0.304638 46.8892 0.257631 46.8892C0.210624 46.8892 0.172164 47.0451 0.172164 47.2357C0.172164 47.4264 0.133703 47.6041 0.0866961 47.6306C-0.0288987 47.696 -0.0288987 51.0774 0.0866961 51.1428C0.133703 51.1693 0.172164 51.345 0.172164 51.5331C0.172164 51.7211 0.210624 51.8968 0.257631 51.9233C0.304638 51.9498 0.343098 52.0925 0.343098 52.2402C0.343098 52.3879 0.381559 52.5087 0.428566 52.5087C0.475573 52.5087 0.514033 52.614 0.514033 52.7428C0.514033 52.8716 0.552494 52.9769 0.599501 52.9769C0.646508 52.9769 0.684968 53.0647 0.684968 53.1721C0.684968 53.2794 0.723429 53.3672 0.770436 53.3672C0.817443 53.3672 0.855903 53.4374 0.855903 53.5233C0.855903 53.6091 0.894364 53.6794 0.941371 53.6794C0.988378 53.6794 1.02684 53.7496 1.02684 53.8355C1.02684 53.9213 1.0653 53.9916 1.11231 53.9916C1.15931 53.9916 1.19777 54.0618 1.19777 54.1477C1.19777 54.2335 1.23623 54.3038 1.28324 54.3038C1.33025 54.3038 1.36871 54.374 1.36871 54.4599C1.36871 54.5457 1.40717 54.6159 1.45418 54.6159C1.50118 54.6159 1.53964 54.6862 1.53964 54.772C1.53964 54.8579 1.57169 54.9281 1.61058 54.9281C1.64968 54.9281 1.736 55.0247 1.80246 55.1428C1.86869 55.2608 1.9907 55.4142 2.07317 55.4836C2.15586 55.5531 2.22338 55.6544 2.22338 55.7086C2.22338 55.7629 2.2909 55.8641 2.37338 55.9336C2.45585 56.0031 2.67657 56.2354 2.86396 56.4501C3.29878 56.948 3.47762 57.1111 3.84726 57.3463C4.01179 57.451 4.24832 57.6346 4.37289 57.7544C4.49767 57.8741 4.65258 57.972 4.71732 57.972C4.78206 57.972 4.89061 58.0423 4.95834 58.1281C5.02607 58.214 5.14146 58.2842 5.21474 58.2842C5.28803 58.2842 5.40341 58.3544 5.47115 58.4403C5.53888 58.5261 5.66281 58.5964 5.74635 58.5964C5.83011 58.5964 5.89848 58.6315 5.89848 58.6744C5.89848 58.7174 5.9722 58.7525 6.06237 58.7525C6.15232 58.7525 6.23886 58.7788 6.25467 58.811C6.27027 58.8432 6.43693 58.9414 6.62496 59.0292C6.94247 59.1773 6.97153 59.219 7.03349 59.6145C7.07024 59.8487 7.13691 60.2686 7.18156 60.5476C7.22622 60.8266 7.28669 61.2217 7.31575 61.4256C7.34481 61.6295 7.40314 61.7964 7.44544 61.7964C7.48775 61.7964 7.52236 61.8996 7.52236 62.0258C7.52236 62.1521 7.56083 62.2771 7.60783 62.3037C7.65484 62.3302 7.6933 62.4553 7.6933 62.5815C7.6933 62.7078 7.73176 62.811 7.77877 62.811C7.82577 62.811 7.86423 62.8791 7.86423 62.9624C7.86423 63.0457 7.9027 63.1357 7.9497 63.1622C7.99671 63.1887 8.03517 63.2962 8.03517 63.401C8.03517 63.5058 8.07363 63.5915 8.12064 63.5915C8.16764 63.5915 8.2061 63.6617 8.2061 63.7476C8.2061 63.8334 8.24456 63.9037 8.29157 63.9037C8.33858 63.9037 8.37704 63.9739 8.37704 64.0598C8.37704 64.1456 8.4155 64.2159 8.46251 64.2159C8.50951 64.2159 8.54797 64.2783 8.54797 64.3548C8.54797 64.4311 8.6249 64.5442 8.71891 64.6061C8.81292 64.6679 8.88984 64.7811 8.88984 64.8574C8.88984 64.9339 8.9283 64.9963 8.97531 64.9963C9.02232 64.9963 9.06078 65.0437 9.06078 65.1019C9.06078 65.1598 9.17616 65.3175 9.31718 65.4523C9.4582 65.5872 9.57358 65.7349 9.57358 65.7807C9.57358 65.9778 11.859 68.0402 12.0774 68.0402C12.1368 68.0402 12.2408 68.1104 12.3085 68.1963C12.3763 68.2822 12.4917 68.3524 12.5649 68.3524C12.6382 68.3524 12.7536 68.4226 12.8213 68.5085C12.8891 68.5943 13.013 68.6646 13.0966 68.6646C13.1803 68.6646 13.2487 68.6931 13.2487 68.728C13.2487 68.7629 13.3833 68.8398 13.5478 68.8987C13.7123 68.9577 13.847 69.0345 13.847 69.0695C13.847 69.1044 13.9239 69.1329 14.0179 69.1329C14.1119 69.1329 14.1888 69.168 14.1888 69.2109C14.1888 69.2538 14.2581 69.289 14.3427 69.289C14.4273 69.289 14.533 69.32 14.5777 69.3578C14.6224 69.3959 14.9089 69.5036 15.2144 69.5975C16.1225 69.8765 16.24 69.927 16.24 70.04C16.24 70.0991 16.2785 70.1475 16.3255 70.1475C16.3725 70.1475 16.411 70.2529 16.411 70.3816C16.411 70.5104 16.4494 70.6158 16.4964 70.6158C16.5435 70.6158 16.5819 70.686 16.5819 70.7719C16.5819 70.8577 16.6204 70.928 16.6674 70.928C16.7144 70.928 16.7528 71.0333 16.7528 71.1621C16.7528 71.2909 16.7913 71.3963 16.8383 71.3963C16.8853 71.3963 16.9238 71.4665 16.9238 71.5524C16.9238 71.6382 16.9687 71.7085 17.0236 71.7085C17.0783 71.7085 17.0984 71.7313 17.0678 71.759C17.0206 71.8021 17.309 72.3726 17.4368 72.4889C17.4603 72.5104 17.534 72.6245 17.6007 72.7426C17.6674 72.8606 17.7539 72.9572 17.793 72.9572C17.8319 72.9572 17.8639 73.0021 17.8639 73.0571C17.8639 73.112 17.9408 73.2076 18.0349 73.2694C18.1289 73.3313 18.2058 73.4251 18.2058 73.478C18.2058 73.6844 21.0314 76.1572 21.2672 76.1572C21.3113 76.1572 21.395 76.2099 21.4536 76.2743C21.5121 76.3387 21.6322 76.3913 21.7204 76.3913C21.8087 76.3913 21.8809 76.4265 21.8809 76.4694C21.8809 76.5123 21.9313 76.5474 21.9931 76.5474C22.0546 76.5474 22.1877 76.6177 22.2886 76.7035C22.3894 76.7894 22.5313 76.8596 22.6037 76.8596C22.6762 76.8596 22.7356 76.8947 22.7356 76.9377C22.7356 76.9806 22.8125 77.0157 22.9065 77.0157C23.0005 77.0157 23.0774 77.0508 23.0774 77.0938C23.0774 77.1367 23.1928 77.1718 23.3338 77.1718C23.4749 77.1718 23.5902 77.2069 23.5902 77.2499C23.5902 77.2928 23.6672 77.3279 23.7612 77.3279C23.8552 77.3279 23.9321 77.363 23.9321 77.406C23.9321 77.4489 24.0283 77.484 24.1458 77.484C24.2633 77.484 24.3595 77.5191 24.3595 77.5621C24.3595 77.605 24.4725 77.6401 24.6107 77.6401C24.749 77.6401 24.8859 77.6752 24.915 77.7181C24.944 77.7611 25.097 77.7962 25.2547 77.7962C25.4126 77.7962 25.5577 77.8401 25.5774 77.8938C25.6049 77.9693 26.2758 77.9913 28.5474 77.9913C30.8189 77.9913 31.4898 77.9693 31.5174 77.8938C31.5377 77.8378 31.696 77.7962 31.8876 77.7962C32.0718 77.7962 32.2225 77.7611 32.2225 77.7181C32.2225 77.6752 32.3378 77.6401 32.4789 77.6401C32.6199 77.6401 32.7353 77.605 32.7353 77.5621C32.7353 77.5191 32.8506 77.484 32.9917 77.484C33.1327 77.484 33.2481 77.4489 33.2481 77.406C33.2481 77.363 33.3419 77.3279 33.4566 77.3279C33.5714 77.3279 33.6891 77.2928 33.7181 77.2499C33.7472 77.2069 33.8457 77.1718 33.9369 77.1718C34.0282 77.1718 34.1027 77.1367 34.1027 77.0938C34.1027 77.0508 34.1797 77.0157 34.2737 77.0157C34.3677 77.0157 34.4446 76.9806 34.4446 76.9377C34.4446 76.8947 34.5023 76.8596 34.5728 76.8596C34.6433 76.8596 34.701 76.8245 34.701 76.7816C34.701 76.7386 34.7779 76.7035 34.872 76.7035C34.966 76.7035 35.0429 76.6684 35.0429 76.6255C35.0429 76.5826 35.1198 76.5474 35.2138 76.5474C35.3078 76.5474 35.3848 76.5176 35.3848 76.4813C35.3848 76.4448 35.5386 76.3517 35.7266 76.2743C35.9147 76.1968 36.0685 76.1061 36.0685 76.0725C36.0685 76.0389 36.1473 75.9888 36.2437 75.9609C36.3401 75.933 36.5503 75.79 36.711 75.6434C36.8715 75.4967 37.0362 75.3767 37.0768 75.3767C37.1864 75.3767 38.5471 74.0733 38.5471 73.9683C38.5471 73.919 38.655 73.7853 38.7866 73.6714C38.9184 73.5576 39.1567 73.2889 39.3158 73.0743C39.4752 72.8597 39.6366 72.6723 39.6746 72.6581C39.7126 72.6437 39.7436 72.5646 39.7436 72.4825C39.7436 72.4002 39.7821 72.3328 39.8291 72.3328C39.8761 72.3328 39.9145 72.2802 39.9145 72.2158C39.9145 72.1514 39.953 72.0987 40 72.0987C40.047 72.0987 40.0855 72.1514 40.0855 72.2158C40.0855 72.2802 40.1239 72.3328 40.1709 72.3328C40.2179 72.3328 40.2564 72.4002 40.2564 72.4825C40.2564 72.5646 40.2874 72.6437 40.3254 72.6581C40.3634 72.6723 40.5248 72.8597 40.6842 73.0743C40.8433 73.2889 41.0816 73.5576 41.2134 73.6714C41.345 73.7853 41.4529 73.9168 41.4529 73.9638C41.4529 74.0659 42.817 75.3767 42.9232 75.3767C42.9638 75.3767 43.1285 75.4967 43.289 75.6434C43.4497 75.79 43.6599 75.933 43.7563 75.9609C43.8527 75.9888 43.9315 76.0389 43.9315 76.0725C43.9315 76.1061 44.0853 76.1968 44.2734 76.2743C44.4614 76.3517 44.6152 76.4448 44.6152 76.4813C44.6152 76.5176 44.6922 76.5474 44.7862 76.5474C44.8802 76.5474 44.9571 76.5826 44.9571 76.6255C44.9571 76.6684 45.034 76.7035 45.128 76.7035C45.2221 76.7035 45.299 76.7386 45.299 76.7816C45.299 76.8245 45.3567 76.8596 45.4272 76.8596C45.4977 76.8596 45.5554 76.8947 45.5554 76.9377C45.5554 76.9806 45.6323 77.0157 45.7263 77.0157C45.8203 77.0157 45.8973 77.0508 45.8973 77.0938C45.8973 77.1367 45.9718 77.1718 46.0631 77.1718C46.1543 77.1718 46.2528 77.2069 46.2819 77.2499C46.3109 77.2928 46.4286 77.3279 46.5434 77.3279C46.6581 77.3279 46.7519 77.363 46.7519 77.406C46.7519 77.4489 46.8457 77.484 46.9605 77.484C47.0752 77.484 47.1929 77.5191 47.222 77.5621C47.2511 77.605 47.388 77.6401 47.5263 77.6401C47.6645 77.6401 47.7775 77.6752 47.7775 77.7181C47.7775 77.7611 47.9045 77.7962 48.0596 77.7962C48.2147 77.7962 48.3897 77.8401 48.4485 77.8938C48.6036 78.0354 54.3709 78.0354 54.4226 77.8938C54.4423 77.8401 54.5874 77.7962 54.7453 77.7962C54.903 77.7962 55.0559 77.7611 55.085 77.7181C55.1141 77.6752 55.251 77.6401 55.3893 77.6401C55.5275 77.6401 55.6405 77.605 55.6405 77.5621C55.6405 77.5191 55.7367 77.484 55.8542 77.484C55.9717 77.484 56.0679 77.4489 56.0679 77.406C56.0679 77.363 56.1425 77.3279 56.2337 77.3279C56.3249 77.3279 56.4234 77.2928 56.4525 77.2499C56.4815 77.2069 56.5993 77.1718 56.714 77.1718C56.8288 77.1718 56.9226 77.1367 56.9226 77.0938C56.9226 77.0508 56.9995 77.0157 57.0935 77.0157C57.1875 77.0157 57.2644 76.9806 57.2644 76.9377C57.2644 76.8947 57.3413 76.8596 57.4354 76.8596C57.5294 76.8596 57.6063 76.8245 57.6063 76.7816C57.6063 76.7386 57.664 76.7035 57.7345 76.7035C57.805 76.7035 57.8627 76.6684 57.8627 76.6255C57.8627 76.5826 57.9204 76.5474 57.9909 76.5474C58.0614 76.5474 58.1191 76.5123 58.1191 76.4694C58.1191 76.4265 58.1932 76.3913 58.2838 76.3913C58.3746 76.3913 58.5065 76.3387 58.577 76.2743C58.6475 76.2099 58.7368 76.1566 58.7753 76.1558C58.9725 76.1517 61.7942 73.6766 61.7942 73.5077C61.7942 73.4616 61.9017 73.3213 62.0333 73.1957C62.1647 73.0702 62.3279 72.8684 62.3963 72.7477C62.4645 72.6269 62.5412 72.5104 62.5664 72.4889C62.6942 72.3804 63.2471 71.3131 63.2471 71.1748C63.2471 71.087 63.2856 70.9935 63.3326 70.967C63.3796 70.9405 63.4181 70.8505 63.4181 70.7672C63.4181 70.6839 63.4565 70.6158 63.5036 70.6158C63.5506 70.6158 63.589 70.5104 63.589 70.3816C63.589 70.2529 63.6275 70.1475 63.6745 70.1475C63.7215 70.1475 63.76 70.1005 63.76 70.0429C63.76 69.9253 64.1112 69.7573 64.3572 69.7573C64.4463 69.7573 64.5381 69.7292 64.5614 69.6946C64.5847 69.6603 64.7986 69.5836 65.0366 69.5245C65.2746 69.4654 65.4693 69.3881 65.4693 69.353C65.4693 69.3176 65.5234 69.289 65.5894 69.289C65.7317 69.289 66.4396 68.9635 66.4806 68.8792C66.4964 68.847 66.5637 68.8207 66.6302 68.8207C66.6968 68.8207 66.7513 68.7856 66.7513 68.7426C66.7513 68.6997 66.8282 68.6646 66.9222 68.6646C67.0163 68.6646 67.0932 68.6353 67.0932 68.5998C67.0932 68.5641 67.1989 68.4853 67.3282 68.4246C67.4575 68.3641 67.6254 68.2527 67.7015 68.1774C67.7776 68.1019 67.8863 68.0402 67.9432 68.0402C68.0002 68.0402 68.188 67.9085 68.3605 67.7475C68.5331 67.5865 68.7705 67.4076 68.888 67.3497C69.0055 67.2919 69.3324 67 69.6145 66.7011C69.8965 66.4022 70.1946 66.091 70.2768 66.0094C70.3591 65.928 70.4264 65.8213 70.4264 65.7723C70.4264 65.7233 70.5418 65.585 70.6828 65.4646C70.8238 65.3442 70.9392 65.1897 70.9392 65.1212C70.9392 65.0525 70.9777 64.9963 71.0247 64.9963C71.0717 64.9963 71.1102 64.9339 71.1102 64.8574C71.1102 64.7811 71.1871 64.6679 71.2811 64.6061C71.3751 64.5442 71.452 64.4311 71.452 64.3548C71.452 64.2783 71.4905 64.2159 71.5375 64.2159C71.5845 64.2159 71.623 64.1456 71.623 64.0598C71.623 63.9739 71.6614 63.9037 71.7084 63.9037C71.7554 63.9037 71.7939 63.8334 71.7939 63.7476C71.7939 63.6617 71.8324 63.5915 71.8794 63.5915C71.9264 63.5915 71.9648 63.5222 71.9648 63.4377C71.9648 63.3532 72.0417 63.1589 72.1358 63.0061C72.2298 62.8533 72.3067 62.6436 72.3067 62.54C72.3067 62.4365 72.3452 62.3302 72.3922 62.3037C72.4392 62.2771 72.4776 62.1521 72.4776 62.0258C72.4776 61.8996 72.5161 61.7964 72.5631 61.7964C72.6101 61.7964 72.6486 61.658 72.6486 61.4888C72.6486 61.3197 72.687 61.1595 72.734 61.1329C72.781 61.1064 72.8195 60.8479 72.8195 60.5585C72.8195 60.2692 72.8556 59.9991 72.8996 59.9583C72.9436 59.9175 72.9917 59.7271 73.0065 59.5349C73.0325 59.1937 73.0445 59.1806 73.546 58.9496C73.828 58.8198 74.0716 58.6871 74.0872 58.6549C74.103 58.6227 74.181 58.5964 74.2607 58.5964C74.3404 58.5964 74.4611 58.5261 74.5289 58.4403C74.5966 58.3544 74.712 58.2842 74.7852 58.2842C74.8585 58.2842 74.9739 58.214 75.0417 58.1281C75.1094 58.0423 75.2179 57.972 75.2827 57.972C75.3474 57.972 75.5081 57.8666 75.6399 57.7379C75.7718 57.6091 75.9021 57.5037 75.9297 57.5037C76.0579 57.5037 77.348 56.3541 77.3489 56.239C77.3491 56.2087 77.4454 56.0961 77.5629 55.9888C77.6805 55.8815 77.7766 55.7658 77.7768 55.7316C77.7768 55.6975 77.8922 55.5467 78.033 55.3964C78.1738 55.2462 78.2892 55.0794 78.2892 55.0257C78.2894 54.972 78.3279 54.9281 78.3749 54.9281C78.4219 54.9281 78.4604 54.8579 78.4604 54.772C78.4604 54.6862 78.4988 54.6159 78.5458 54.6159C78.5928 54.6159 78.6313 54.5457 78.6313 54.4599C78.6313 54.374 78.6601 54.3036 78.6954 54.3032C78.7721 54.3024 78.9732 53.9244 78.9732 53.7808C78.9732 53.725 79.0116 53.6794 79.0586 53.6794C79.1056 53.6794 79.1441 53.6091 79.1441 53.5233C79.1441 53.4374 79.1826 53.3672 79.2296 53.3672C79.2766 53.3672 79.315 53.2794 79.315 53.1721C79.315 53.0647 79.3535 52.9769 79.4005 52.9769C79.4475 52.9769 79.486 52.8716 79.486 52.7428C79.486 52.614 79.5244 52.5087 79.5714 52.5087C79.6184 52.5087 79.6569 52.3879 79.6569 52.2402C79.6569 52.0925 79.6954 51.9498 79.7424 51.9233C79.7894 51.8968 79.8278 51.7211 79.8278 51.5331C79.8278 51.345 79.8663 51.1693 79.9133 51.1428C80.0289 51.0774 80.0289 47.696 79.9133 47.6306C79.8663 47.6041 79.8278 47.4264 79.8278 47.2357C79.8278 47.0451 79.7894 46.8892 79.7424 46.8892C79.6954 46.8892 79.6569 46.7487 79.6569 46.577C79.6569 46.4053 79.6184 46.2648 79.5714 46.2648C79.5244 46.2648 79.486 46.1594 79.486 46.0307C79.486 45.9019 79.4475 45.7965 79.4005 45.7965C79.3535 45.7965 79.315 45.7109 79.315 45.6061C79.315 45.5013 79.2766 45.3938 79.2296 45.3673C79.1826 45.3407 79.1441 45.2508 79.1441 45.1675C79.1441 45.0841 79.1056 45.016 79.0586 45.016C79.0116 45.016 78.9732 44.9458 78.9732 44.8599C78.9732 44.7741 78.9347 44.7039 78.8877 44.7039C78.8407 44.7039 78.8022 44.6336 78.8022 44.5478C78.8022 44.4619 78.7732 44.3917 78.7377 44.3917C78.702 44.3917 78.6185 44.2775 78.5518 44.138C78.4851 43.9985 78.3604 43.8276 78.2745 43.7581C78.1888 43.6886 78.1185 43.5885 78.1185 43.5359C78.1185 43.483 78.0031 43.3413 77.8621 43.2209C77.7211 43.1006 77.6057 42.964 77.6057 42.9171C77.6057 42.8301 77.3826 42.5685 77.0164 42.226C76.8959 42.1134 76.8469 42.0137 76.8974 41.9839C77.0268 41.9074 77.4347 41.1734 77.4347 41.0167C77.4347 40.9412 77.4732 40.8795 77.5202 40.8795C77.5672 40.8795 77.6057 40.8093 77.6057 40.7234C77.6057 40.6376 77.6441 40.5673 77.6911 40.5673C77.7382 40.5673 77.7766 40.4795 77.7766 40.3722C77.7766 40.2649 77.8151 40.1771 77.8621 40.1771C77.9091 40.1771 77.9475 40.0717 77.9475 39.9429C77.9475 39.8141 77.986 39.7088 78.033 39.7088C78.08 39.7088 78.1185 39.6034 78.1185 39.4746C78.1185 39.3459 78.1569 39.2405 78.2039 39.2405C78.251 39.2405 78.2894 39.1021 78.2894 38.933C78.2894 38.7638 78.3279 38.6036 78.3749 38.5771C78.4219 38.5505 78.4604 38.3026 78.4604 38.0261C78.4604 37.7429 78.4977 37.5234 78.5458 37.5234C78.5988 37.5234 78.6313 37.0942 78.6313 36.3917C78.6313 35.6893 78.5988 35.26 78.5458 35.26C78.4975 35.26 78.4604 35.039 78.4604 34.7527C78.4604 34.4665 78.4232 34.2454 78.3749 34.2454C78.3279 34.2454 78.2894 34.1049 78.2894 33.9332C78.2894 33.7615 78.251 33.621 78.2039 33.621C78.1569 33.621 78.1185 33.5178 78.1185 33.3916C78.1185 33.2653 78.08 33.1403 78.033 33.1137C77.986 33.0872 77.9475 32.9797 77.9475 32.8749C77.9475 32.7701 77.9091 32.6845 77.8621 32.6845C77.8151 32.6845 77.7766 32.5791 77.7766 32.4503C77.7766 32.3215 77.7382 32.2162 77.6911 32.2162C77.6441 32.2162 77.6057 32.1459 77.6057 32.0601C77.6057 31.9742 77.5721 31.904 77.5309 31.904C77.4897 31.904 77.4343 31.8041 77.4076 31.6821C77.36 31.4654 76.8995 30.7184 76.6869 30.513C76.6282 30.4564 76.5801 30.3817 76.5801 30.3473C76.5801 30.3128 76.4455 30.1504 76.2809 29.9863C76.1164 29.8222 75.9818 29.6502 75.9818 29.6035C75.9818 29.5571 75.9049 29.4683 75.8109 29.4064C75.6241 29.2835 75.5577 28.5255 75.7254 28.4308C75.776 28.4024 75.8109 27.9228 75.8109 27.2554C75.8109 26.5561 75.7784 26.1284 75.7254 26.1284C75.6765 26.1284 75.6399 25.8943 75.6399 25.5821C75.6399 25.2699 75.6034 25.0358 75.5545 25.0358C75.5075 25.0358 75.469 24.8777 75.469 24.6845C75.469 24.4914 75.4305 24.3333 75.3835 24.3333C75.3365 24.3333 75.2981 24.228 75.2981 24.0992C75.2981 23.9704 75.2596 23.865 75.2126 23.865C75.1656 23.865 75.1271 23.7443 75.1271 23.5966C75.1271 23.4488 75.0887 23.3062 75.0417 23.2797C74.9947 23.2531 74.9562 23.1632 74.9562 23.0799C74.9562 22.9966 74.9177 22.9285 74.8707 22.9285C74.8237 22.9285 74.7852 22.8231 74.7852 22.6943C74.7852 22.5655 74.7468 22.4602 74.6998 22.4602C74.6528 22.4602 74.6143 22.3899 74.6143 22.3041C74.6143 22.2182 74.5759 22.148 74.5289 22.148C74.4818 22.148 74.4434 22.0777 74.4434 21.9919C74.4434 21.906 74.4049 21.8358 74.3579 21.8358C74.3109 21.8358 74.2724 21.7655 74.2724 21.6797C74.2724 21.5938 74.234 21.5236 74.187 21.5236C74.14 21.5236 74.1015 21.4709 74.1015 21.4065C74.1015 21.3421 74.0705 21.2895 74.0325 21.2895C73.9945 21.2895 73.8955 21.149 73.8126 20.9773C73.7297 20.8056 73.6261 20.6651 73.5825 20.6651C73.5389 20.6651 73.5032 20.6212 73.503 20.5675C73.503 20.5139 73.3876 20.347 73.2468 20.1968C73.106 20.0465 72.9907 19.8951 72.9907 19.8604C72.9902 19.7572 70.9313 17.9334 70.8149 17.9334C70.7563 17.9334 70.5875 17.828 70.4399 17.6992C70.2922 17.5705 70.1328 17.4651 70.0854 17.4651C70.038 17.4651 69.9991 17.43 69.9991 17.3871C69.9991 17.3441 69.9487 17.309 69.8869 17.309C69.8254 17.309 69.6922 17.2388 69.5914 17.1529C69.4905 17.0671 69.3487 16.9968 69.2762 16.9968C69.2038 16.9968 69.1444 16.9617 69.1444 16.9188C69.1444 16.8758 69.0675 16.8407 68.9735 16.8407C68.8795 16.8407 68.8025 16.8056 68.8025 16.7627C68.8025 16.7197 68.7256 16.6846 68.6316 16.6846C68.5376 16.6846 68.4607 16.6495 68.4607 16.6066C68.4607 16.5636 68.3837 16.5285 68.2897 16.5285C68.1957 16.5285 68.1188 16.4934 68.1188 16.4505C68.1188 16.4076 68.0442 16.3724 67.953 16.3724C67.8617 16.3724 67.7632 16.3373 67.7342 16.2944C67.7051 16.2515 67.5874 16.2163 67.4727 16.2163C67.3579 16.2163 67.2641 16.1812 67.2641 16.1383C67.2641 16.0954 67.1528 16.0602 67.0169 16.0602C66.8808 16.0602 66.752 16.0163 66.7306 15.9627C66.6705 15.8122 66.7605 15.2798 66.8462 15.2798C66.8881 15.2798 66.9222 15.1393 66.9222 14.9676C66.9222 14.7959 66.9607 14.6554 67.0077 14.6554C67.0566 14.6554 67.0932 14.4212 67.0932 14.109C67.0932 13.7968 67.1297 13.5627 67.1786 13.5627C67.2274 13.5627 67.2641 13.3301 67.2641 13.0211C67.2641 12.7231 67.2257 12.4575 67.1786 12.431C67.1316 12.4045 67.0932 12.1214 67.0932 11.8019C67.0932 11.4669 67.0571 11.2213 67.0077 11.2213C66.9607 11.2213 66.9222 11.1005 66.9222 10.9528C66.9222 10.8051 66.8889 10.6654 66.8481 10.6421C66.8071 10.6191 66.7492 10.4595 66.7191 10.2874C66.6889 10.1153 66.5876 9.85016 66.4941 9.69796C66.4005 9.54596 66.324 9.36977 66.324 9.30675C66.324 9.24372 66.2928 9.19202 66.2545 9.19202C66.2163 9.19202 66.1321 9.06909 66.0676 8.91885C66.003 8.76861 65.9272 8.64568 65.8992 8.64568C65.871 8.64568 65.7787 8.53836 65.6939 8.40724C65.5259 8.14793 63.8935 6.61663 63.7843 6.61624C63.7473 6.61624 63.5826 6.51087 63.4181 6.38229C63.2536 6.2537 63.0741 6.14834 63.0192 6.14834C62.9645 6.14814 62.9068 6.1218 62.891 6.08961C62.844 5.99302 61.7827 5.52376 61.6113 5.52376C61.5239 5.52376 61.4523 5.48864 61.4523 5.44571C61.4523 5.40279 61.3393 5.36766 61.2011 5.36766C61.0628 5.36766 60.9258 5.33254 60.8968 5.28962C60.8677 5.24669 60.6947 5.21157 60.5122 5.21157C60.3297 5.21157 60.156 5.17547 60.1263 5.13157C60.0964 5.08747 59.9883 5.05781 59.8861 5.06562C59.7838 5.07342 59.2364 5.0742 58.6693 5.06757L57.6381 5.05547L57.5208 4.78231C57.4563 4.63206 57.3721 4.50914 57.3339 4.50914C57.2956 4.50914 57.2644 4.43889 57.2644 4.35304C57.2644 4.26719 57.226 4.19695 57.179 4.19695C57.132 4.19695 57.0935 4.14953 57.0935 4.09139C57.0935 4.03343 56.9781 3.87578 56.8371 3.74095C56.6961 3.60612 56.5807 3.45939 56.5807 3.41451C56.5807 3.36983 56.4557 3.21452 56.3029 3.06954C56.1501 2.92457 55.7961 2.58916 55.5162 2.32438C55.2363 2.0596 54.8938 1.78936 54.7551 1.7238C54.6164 1.65843 54.4246 1.53824 54.329 1.45688C54.2335 1.37571 54.1049 1.30917 54.0434 1.30917C53.9816 1.30917 53.9312 1.27405 53.9312 1.23112C53.9312 1.18819 53.8543 1.15307 53.7603 1.15307C53.6662 1.15307 53.5893 1.11795 53.5893 1.07503C53.5893 1.0321 53.5413 0.996197 53.4825 0.995221C53.4237 0.994246 53.2795 0.924783 53.162 0.840881C53.0445 0.75698 52.8618 0.687517 52.756 0.686541C52.6503 0.685566 52.5637 0.649664 52.5637 0.606737C52.5637 0.563811 52.4868 0.528689 52.3928 0.528689C52.2988 0.528689 52.2218 0.493568 52.2218 0.450641C52.2218 0.407715 52.1257 0.372593 52.0082 0.372593C51.8907 0.372593 51.7945 0.337472 51.7945 0.294546C51.7945 0.251619 51.6868 0.216498 51.5552 0.216498C51.4236 0.216498 51.2678 0.172595 51.2091 0.118937C51.0544 -0.0223294 45.9701 -0.0223294 45.9186 0.118937C45.899 0.172595 45.7896 0.216498 45.6753 0.216498C45.5612 0.216498 45.3913 0.251619 45.2979 0.294546C45.2045 0.337472 45.0516 0.407715 44.9582 0.450641C44.8648 0.493568 44.711 0.528689 44.6163 0.528689C44.5217 0.528689 44.4443 0.563811 44.4443 0.606737C44.4443 0.649664 44.3674 0.684785 44.2734 0.684785C44.1794 0.684785 44.1024 0.719907 44.1024 0.762833C44.1024 0.80576 44.0255 0.840881 43.9315 0.840881C43.8375 0.840881 43.7606 0.876003 43.7606 0.918929C43.7606 0.961856 43.6836 0.996977 43.5896 0.996977C43.4956 0.996977 43.4187 1.0321 43.4187 1.07503C43.4187 1.11795 43.3683 1.15307 43.3065 1.15307C43.245 1.15307 43.1119 1.22332 43.011 1.30917C42.9102 1.39502 42.7916 1.46527 42.7476 1.46527C42.7035 1.46527 42.5442 1.57063 42.3931 1.69941C42.242 1.82819 42.0914 1.93355 42.0578 1.93355C41.957 1.93355 40.9906 2.81198 40.7698 3.10427C40.6564 3.25452 40.4944 3.43422 40.41 3.50368C40.3256 3.57315 40.2551 3.66095 40.2536 3.6988C40.2404 4.03402 39.7436 4.06095 39.7436 3.72651C39.7436 3.67636 39.6282 3.53685 39.4872 3.41647C39.3462 3.29608 39.2308 3.16027 39.2308 3.11461C39.2308 3.01979 38.0518 1.93355 37.949 1.93355C37.9118 1.93355 37.758 1.82819 37.6069 1.69941C37.4558 1.57063 37.2965 1.46527 37.2524 1.46527C37.2084 1.46527 37.0898 1.39502 36.989 1.30917C36.8881 1.22332 36.755 1.15307 36.6935 1.15307C36.6317 1.15307 36.5813 1.11795 36.5813 1.07503C36.5813 1.0321 36.5044 0.996977 36.4104 0.996977C36.3163 0.996977 36.2394 0.961856 36.2394 0.918929C36.2394 0.876003 36.1625 0.840881 36.0685 0.840881C35.9745 0.840881 35.8976 0.80576 35.8976 0.762833C35.8976 0.719907 35.8206 0.684785 35.7266 0.684785C35.6326 0.684785 35.5557 0.649664 35.5557 0.606737C35.5557 0.563811 35.4783 0.528689 35.3837 0.528689C35.289 0.528689 35.1352 0.493568 35.0418 0.450641C34.9484 0.407715 34.7955 0.337472 34.7021 0.294546C34.6087 0.251619 34.4433 0.216498 34.3346 0.216498C34.2258 0.216498 34.0891 0.172791 34.0305 0.119328C33.9237 0.0217678 30.1247 -0.0443779 29.2311 0.0358164ZM25.0344 11.9434C23.8251 12.6751 24.475 14.2651 25.9833 14.2651C26.137 14.2651 26.4209 14.303 26.6145 14.3494C26.8079 14.3957 27.1201 14.4704 27.3081 14.5155C27.6365 14.5943 27.8997 14.6872 28.5474 14.9525C29.5864 15.3785 30.8347 16.3783 31.6069 17.4031C32.4011 18.4573 33.8363 18.3289 34.1938 17.1716C34.5589 15.9888 31.7199 13.3967 28.9745 12.4062C28.401 12.1992 27.9967 12.0954 26.7788 11.8421C26.1154 11.7042 25.3571 11.7481 25.0344 11.9434ZM53.162 11.8576C50.7435 12.3174 49.0108 13.1336 47.488 14.5299C45.6686 16.198 45.3272 17.2419 46.3806 17.9168C47.0722 18.3599 47.7934 18.1357 48.5228 17.2507C49.638 15.8977 50.8458 15.0792 52.4355 14.5996C53.1631 14.3803 53.7175 14.2651 54.0479 14.2651C54.9681 14.2651 55.7529 13.5451 55.6059 12.8357C55.4181 11.9276 54.5726 11.5891 53.162 11.8576ZM24.0456 23.5835C23.7554 23.6311 23.4894 23.6963 23.4544 23.7285C23.4195 23.7606 23.3108 23.7876 23.2127 23.7882C23.0155 23.7895 22.43 23.9618 22.3384 24.0457C22.3061 24.0752 22.2302 24.0992 22.1696 24.0992C22.0563 24.0992 20.9651 24.5538 20.8126 24.6646C20.7655 24.6988 20.4942 24.8613 20.2096 25.0258C18.7568 25.8652 16.4964 28.4978 16.4964 29.3501C16.4964 29.4189 16.458 29.497 16.411 29.5235C16.364 29.5501 16.3255 29.6554 16.3255 29.7577C16.3255 29.8599 16.2913 29.9629 16.2494 29.9865C16.2078 30.0101 16.149 30.1614 16.1193 30.3227C16.0896 30.4841 16.018 30.8796 15.9604 31.2015C15.8136 32.0209 15.8104 45.9649 15.9567 46.8111C16.0809 47.529 16.1473 47.818 16.2347 48.0209C16.2717 48.1067 16.3497 48.3175 16.4084 48.4892C17.4199 51.4544 20.5431 53.8378 24.2313 54.4589C25.0026 54.5886 55.6089 54.5244 56.1961 54.3918C56.4311 54.3385 56.7488 54.2757 56.902 54.2519C57.0552 54.228 57.2016 54.1771 57.2275 54.1391C57.2533 54.1008 57.3497 54.0696 57.4416 54.0696C57.5334 54.0696 57.6753 54.0382 57.7569 53.9998C57.8386 53.9613 58.1747 53.8134 58.5037 53.671C61.5384 52.3576 63.5698 49.7865 64.0941 46.5951C64.223 45.811 64.223 32.2017 64.0941 31.4175C63.4192 27.3087 60.3295 24.3581 55.8969 23.5891C55.0658 23.4449 24.9248 23.4397 24.0456 23.5835ZM54.9256 25.9721C56.9159 26.1636 58.7736 27.0872 59.8716 28.4308C60.0118 28.6026 60.1494 28.7606 60.1772 28.7821C60.5387 29.0609 61.2258 30.6732 61.3673 31.5742C61.5451 32.7061 61.4399 46.4997 61.2489 47.1233C61.0842 47.6613 60.428 48.9821 60.2361 49.1623C60.1733 49.2215 60.0284 49.3926 59.9141 49.5428C59.0772 50.6431 57.6003 51.4911 55.6833 51.9721C55.0497 52.1311 24.9547 52.1319 24.3167 51.973C23.217 51.6991 22.1469 51.2685 21.7023 50.9208C21.6115 50.8497 21.5087 50.7914 21.4739 50.7912C20.9322 50.7877 19.2667 48.5986 18.8316 47.3185L18.593 46.616V39.0063V31.3967L18.8214 30.7294C19.2863 29.3713 20.1991 28.1245 21.2548 27.4055C21.4348 27.2831 21.601 27.1604 21.6245 27.1331C21.6756 27.0734 22.2283 26.7819 22.6621 26.5858C23.2559 26.3175 24.2932 26.0414 24.9443 25.9784C25.8953 25.8863 53.9733 25.8804 54.9256 25.9721ZM42.2527 28.8123C41.7711 29.0566 41.6121 29.32 41.282 30.4211C41.2241 30.6142 41.1472 30.8601 41.1111 30.9674C41.075 31.0747 41.0038 31.303 40.9532 31.4747C40.9023 31.6464 40.7827 32.0328 40.6872 32.3332C40.5239 32.8464 39.9053 34.8374 39.7353 35.3966C39.6927 35.5361 39.6197 35.7732 39.5727 35.9235C39.5257 36.0737 39.4466 36.3283 39.3968 36.4893C39.3472 36.6503 39.2725 36.8873 39.2308 37.0161C39.1342 37.3143 39.0101 37.7113 38.8889 38.1088C38.8366 38.2805 38.7543 38.5439 38.7062 38.6942C38.6579 38.8444 38.5979 39.0643 38.5729 39.1829C38.5479 39.3016 38.4934 39.4177 38.4518 39.4413C38.4101 39.4647 38.3761 39.5851 38.3761 39.7088C38.3761 39.8325 38.3377 39.9554 38.2906 39.9819C38.2436 40.0085 38.2052 40.1047 38.2052 40.1956C38.2052 40.3515 38.0941 40.7244 37.9434 41.0746C37.9065 41.1605 37.8567 41.3185 37.833 41.4258C37.8093 41.5331 37.7486 41.7527 37.6984 41.9136C37.6481 42.0746 37.5684 42.3292 37.5214 42.4795C37.4294 42.7737 37.2984 43.1973 37.1836 43.5722C37.1443 43.7009 36.8343 44.6843 36.4948 45.7575C35.6805 48.3305 35.6771 48.7241 36.4651 49.1487C37.2088 49.5495 38.4616 49.0726 38.4616 48.3889C38.4616 48.2989 38.5 48.2035 38.5471 48.177C38.5941 48.1505 38.6325 48.0543 38.6325 47.9633C38.6325 47.7875 38.7746 47.3304 38.8994 47.1048C38.9406 47.0303 38.9744 46.8831 38.9744 46.7778C38.9744 46.6724 39.0129 46.5645 39.0599 46.538C39.1069 46.5114 39.1453 46.4152 39.1453 46.3243C39.1453 46.1684 39.2564 45.7955 39.4071 45.4453C39.444 45.3595 39.4938 45.2014 39.5175 45.0941C39.5413 44.9868 39.6041 44.7585 39.6571 44.5868C39.7526 44.2767 39.7763 44.201 40.0342 43.377C40.1079 43.1409 40.2436 42.7019 40.3352 42.4014C40.4269 42.101 40.601 41.539 40.722 41.1527C40.8429 40.7663 40.9795 40.3273 41.0254 40.1771C41.0711 40.0268 41.1861 39.6785 41.2807 39.4032C41.3754 39.1279 41.4529 38.8401 41.4529 38.764C41.4529 38.6877 41.4914 38.6036 41.5384 38.5771C41.5854 38.5505 41.6239 38.4276 41.6239 38.3039C41.6239 38.1802 41.6623 38.0573 41.7093 38.0308C41.7564 38.0042 41.7948 37.8813 41.7948 37.7576C41.7948 37.6339 41.8333 37.5109 41.8803 37.4844C41.9273 37.4579 41.9657 37.35 41.9657 37.2446C41.9657 37.1392 41.9995 36.9921 42.0407 36.9176C42.1557 36.7096 42.3076 36.2401 42.3076 36.0924C42.3076 36.0198 42.3414 35.8995 42.3826 35.8249C42.4976 35.6169 42.6495 35.1475 42.6495 34.9998C42.6495 34.9272 42.6841 34.8068 42.7266 34.7322C42.7691 34.6577 42.8456 34.4562 42.8967 34.2844C42.9478 34.1127 43.0886 33.6562 43.2095 33.2698C44.2484 29.9528 44.2618 29.8905 44.048 29.4022C43.7924 28.8191 42.8495 28.5093 42.2527 28.8123ZM30.9404 31.3766C30.6009 31.5139 23.2554 38.2267 23.1148 38.5281C22.9591 38.862 22.9591 39.1511 23.115 39.4846C23.2655 39.8058 30.6176 46.5081 30.9659 46.6416C31.575 46.8748 32.334 46.5873 32.6417 46.0071C33.0549 45.2274 33.0288 45.194 29.4328 41.9175C27.7175 40.3546 26.3263 39.0442 26.341 39.0054C26.3558 38.9667 27.7735 37.6429 29.4911 36.0634C32.9113 32.9186 32.9662 32.854 32.7419 32.2357C32.4748 31.4993 31.6315 31.0972 30.9404 31.3766ZM47.9485 31.4478C47.3998 31.7311 47.1442 32.3038 47.3023 32.8944C47.3421 33.0423 48.3899 34.0554 50.5181 36.0029C52.2543 37.5919 53.6748 38.9443 53.6748 39.0081C53.6748 39.0719 52.2547 40.4208 50.5189 42.0053C47.0853 45.1399 47.0705 45.1573 47.2686 45.8125C47.4887 46.5403 48.4275 46.967 49.082 46.6367C49.3668 46.4931 56.7426 39.7821 56.8854 39.5371C57.32 38.7902 57.2717 38.7316 53.0156 34.8643C48.7739 31.0101 48.7835 31.0166 47.9485 31.4478ZM19.21 60.1616C18.6242 60.6026 18.5378 61.2959 18.994 61.8941C19.2265 62.1989 19.3613 62.2475 20.445 62.4172C22.7862 62.7839 24.6582 63.955 26.1271 65.9719C26.4577 66.4258 26.6746 66.7938 27.2696 67.9095C27.9732 69.2287 29.6413 69.1824 29.9529 67.8351C30.0541 67.3967 29.3463 65.8375 28.6228 64.9062C28.5343 64.7922 28.4619 64.6785 28.4619 64.6535C28.4619 64.6283 28.4063 64.546 28.3384 64.4705C27.9752 64.0656 27.4363 63.3647 27.4363 63.2966C27.4363 63.0047 29.5065 62.4884 31.1383 62.3735C32.4601 62.2805 33.1453 61.5302 32.7139 60.6489C32.4024 60.0122 32.0881 59.9 30.7537 59.9488C29.545 59.9931 28.7159 60.1238 27.7354 60.4245C27.1145 60.6149 27.054 60.6389 26.0656 61.0867L25.1652 61.4947L24.6127 61.1942C23.6614 60.6764 22.9153 60.3843 22.0091 60.1743C20.4765 59.8194 19.6696 59.8157 19.21 60.1616ZM47.907 60.0221C47.1703 60.4399 46.9746 61.3134 47.4921 61.875C47.8162 62.2268 48.0765 62.3175 48.9313 62.3768C50.271 62.4697 51.3821 62.707 52.2601 63.0875C52.6272 63.2465 52.6379 63.3517 52.3212 63.6863C51.3041 64.7612 50.0847 66.9181 50.0854 67.6412C50.0864 68.7378 51.4862 69.2511 52.3605 68.4755C52.5193 68.3346 52.6492 68.1912 52.6492 68.1567C52.6492 68.0061 53.5705 66.3893 53.9543 65.8666C54.7995 64.7148 56.1192 63.6225 57.3072 63.091C58.2894 62.6514 58.5445 62.5749 59.555 62.417C60.638 62.2477 60.7726 62.1991 61.0075 61.8941C61.9775 60.6334 60.7229 59.5905 58.74 60.0093C57.1854 60.3374 56.5345 60.5681 55.3912 61.1969L54.8427 61.4984L53.9382 61.0885C52.946 60.6387 52.8859 60.6149 52.2646 60.4245C51.2514 60.1138 50.4416 59.9905 49.1878 59.9562C48.4038 59.9347 48.0267 59.954 47.907 60.0221Z" fill="#343435"/>
<path fill-rule="evenodd" clip-rule="evenodd" d="M30.3849 2.64552C30.1968 2.68474 29.8507 2.75557 29.6157 2.80298C27.5196 3.22503 25.3871 5.04647 24.6996 7.00216C24.4165 7.80742 23.878 8.0242 22.5567 7.86439C18.7985 7.41015 15.7958 9.71881 15.8186 13.0448C15.8221 13.5229 15.8509 13.9742 15.8827 14.0477C15.9148 14.1213 15.9451 13.6647 15.9505 13.0331C15.9592 11.9783 15.9791 11.8404 16.1941 11.3385C16.3227 11.038 16.4479 10.7307 16.4723 10.6556C16.4964 10.5805 16.5502 10.519 16.5919 10.519C16.6334 10.519 16.6673 10.473 16.6673 10.4166C16.6673 10.3604 16.7443 10.2388 16.8383 10.1467C16.9323 10.0546 17.0101 9.9514 17.0111 9.91745C17.0139 9.82828 17.8534 9.09853 18.2057 8.87882C18.3703 8.77638 18.5241 8.67258 18.5476 8.64858C18.5711 8.62439 18.7827 8.52234 19.0177 8.42166C19.2527 8.32097 19.5119 8.20722 19.5935 8.16898C19.6751 8.13073 19.8309 8.09951 19.9397 8.09951C20.0484 8.09951 20.1777 8.06264 20.2273 8.01737C20.3486 7.90654 22.5821 7.90478 22.8082 8.01522C23.444 8.32585 24.4991 7.84117 24.7741 7.11221C26.5209 2.47967 32.8044 1.19558 36.5415 4.70755C37.0654 5.20003 37.7778 6.12548 37.7778 6.31378C37.7778 6.3489 37.8547 6.50285 37.9487 6.65563C38.0427 6.8084 38.1197 7.0006 38.1197 7.08274C38.1197 7.16469 38.1541 7.25113 38.1962 7.27494C38.2932 7.32977 38.3767 7.81054 38.4273 8.60683C38.4652 9.20292 38.4949 9.3157 38.7384 9.78789C39.0615 10.4142 40.2326 10.6361 40.8706 10.1918C41.3012 9.89169 41.4837 9.49774 41.5499 8.7239C41.6262 7.83454 41.7163 7.3243 41.8061 7.27357C41.8469 7.25055 41.8802 7.16469 41.8802 7.08274C41.8802 7.0006 41.9572 6.8084 42.0512 6.65563C42.1452 6.50285 42.2221 6.34129 42.2221 6.29661C42.2221 6.25192 42.3375 6.06227 42.4785 5.87515C42.6195 5.68803 42.7349 5.51515 42.7349 5.49095C42.7349 5.33701 43.9223 4.2375 44.487 3.86853C46.825 2.34113 50.6154 2.36806 52.7284 3.92687C53.91 4.79867 54.7465 5.83066 55.1602 6.92684C55.4993 7.82595 56.4915 8.35746 57.1917 8.01522C57.4178 7.90478 59.6513 7.90654 59.7726 8.01737C59.8222 8.06264 59.9515 8.09951 60.0602 8.09951C60.169 8.09951 60.3248 8.13151 60.4064 8.17073C60.488 8.20995 60.7664 8.33151 61.0249 8.44097C61.7679 8.75512 62.9539 9.72018 63.2469 10.249C63.3174 10.376 63.3943 10.4975 63.418 10.519C63.4418 10.5405 63.5135 10.6634 63.5776 10.7922C63.642 10.9209 63.7283 11.0874 63.7699 11.1619C63.8114 11.2365 63.8454 11.366 63.8454 11.4499C63.8454 11.5338 63.8894 11.6273 63.9432 11.6577C64.2131 11.8101 63.5864 10.4669 63.1443 9.94554C61.7117 8.2558 59.6111 7.51415 57.3071 7.8841C56.2206 8.05873 55.7452 7.86986 55.3894 7.12255C54.2365 4.70052 52.535 3.23244 50.3842 2.80376C50.1492 2.75693 49.7764 2.68259 49.5559 2.6383C48.8136 2.48981 47.7309 2.56669 46.478 2.85703C43.7667 3.48512 41.6522 5.97329 41.4102 8.82009C41.2266 10.9812 38.788 10.9317 38.5938 8.76292C38.2468 4.89057 34.1732 1.85509 30.3849 2.64552ZM24.8981 11.8677C24.0366 12.4142 24.0801 13.6604 24.9778 14.1475C25.235 14.2872 25.4728 14.3344 26.6046 14.4706C26.829 14.4975 27.0333 14.5502 27.0585 14.5876C27.0837 14.6249 27.1988 14.6555 27.3142 14.6555C27.4296 14.6555 27.6003 14.6907 27.6937 14.7336C27.7871 14.7765 27.9401 14.8468 28.0334 14.8897C28.1268 14.9326 28.2582 14.9677 28.3253 14.9677C28.3926 14.9677 28.4603 14.9941 28.4762 15.0263C28.4918 15.0585 28.6776 15.1689 28.8892 15.2717C29.7218 15.6762 30.9316 16.6873 31.5139 17.4653C32.4771 18.7523 34.3591 18.3929 34.3591 16.9221C34.3591 16.2005 33.0091 14.559 31.6602 13.6409C30.7725 13.0366 29.5847 12.4359 28.8892 12.2394C28.6776 12.1797 28.468 12.1018 28.4234 12.0663C28.3787 12.031 28.2368 12.0019 28.108 12.0019C27.9792 12.0019 27.8525 11.9705 27.8264 11.9321C27.6614 11.6882 25.2641 11.6355 24.8981 11.8677ZM52.9483 11.7678C52.8543 11.8046 52.6547 11.8372 52.5047 11.8404C52.3547 11.8433 52.2081 11.8809 52.1791 11.9239C52.15 11.9668 52.0318 12.0019 51.9165 12.0019C51.8011 12.0019 51.64 12.0343 51.5584 12.0737C51.4767 12.1131 51.1791 12.2253 50.897 12.3227C48.9467 12.9966 46.7703 14.6753 45.8201 16.2384C45.6303 16.5507 45.5703 17.2602 45.7263 17.3482C45.7733 17.3747 45.8126 17.4559 45.8137 17.5285C45.8162 17.7221 46.3465 18.1059 46.7688 18.2198C47.4367 18.3997 48.1027 18.0616 48.7157 17.2311C49.0552 16.7712 50.4097 15.5921 50.5986 15.5921C50.6451 15.5921 50.6836 15.5658 50.684 15.5336C50.6844 15.5014 50.771 15.4358 50.8763 15.388C51.2487 15.2191 52.181 14.7929 52.3276 14.7246C52.4092 14.6866 52.5649 14.6555 52.6737 14.6555C52.7825 14.6555 52.9079 14.6239 52.9525 14.5855C53.032 14.5168 53.2389 14.4825 54.1875 14.3806C55.4807 14.2417 56.1106 13.2989 55.5505 12.341C55.2099 11.7584 53.7767 11.4427 52.9483 11.7678ZM27.4471 11.9574C30.0686 12.5004 32.4269 13.9642 33.8692 15.9437C34.5751 16.9125 34.2147 17.9829 33.1324 18.131C32.4164 18.2292 32.0953 18.0409 31.2637 17.036C30.5428 16.1648 29.7199 15.5359 28.6755 15.0577C27.6946 14.6085 27.0741 14.4436 25.5559 14.229C24.3436 14.0577 23.9654 12.7738 24.9051 12.0203C25.3124 11.6938 26.0831 11.6747 27.4471 11.9574ZM55.1743 12.102C55.9554 12.8152 55.6106 14.0807 54.5982 14.2165C52.5622 14.4895 51.8378 14.7143 50.5979 15.4579C49.7766 15.9506 49.1742 16.4846 48.539 17.2836C47.1004 19.0932 44.8423 17.7962 46.1658 15.9205C47.7839 13.6269 51.2859 11.7945 54.092 11.7732L54.8083 11.7678L55.1743 12.102ZM64.0349 12.0019C64.0358 12.1522 64.0659 12.3804 64.1018 12.5092C64.1637 12.7321 64.1672 12.7281 64.1687 12.4312C64.1695 12.2595 64.1394 12.0312 64.1018 11.9239C64.04 11.7479 64.0334 11.7555 64.0349 12.0019ZM64.0614 13.7336C64.0268 13.9348 64.0167 14.1455 64.039 14.2019C64.0612 14.2583 64.1075 14.1396 64.1422 13.9385C64.1768 13.7373 64.1868 13.5266 64.1646 13.4702C64.1424 13.4138 64.096 13.5324 64.0614 13.7336ZM15.9849 14.3652C15.9827 14.5857 16.3979 15.4265 16.743 15.8998C17.3404 16.7201 17.3994 17.0481 17.0483 17.5952C16.478 18.4836 15.3481 18.451 14.5753 17.5238C14.4054 17.3199 14.2279 17.1531 14.1809 17.1531C14.1074 17.1531 14.4563 17.6118 14.755 17.908C15.6483 18.7933 17.3511 18.1667 17.3511 16.9529C17.3511 16.6561 17.119 16.1148 16.9353 15.9824C16.7934 15.8803 16.1616 14.741 16.1558 14.5775C16.1496 14.391 15.9866 14.1886 15.9849 14.3652ZM63.9078 14.3906C63.8734 14.4218 63.8454 14.5108 63.8454 14.5882C63.8454 14.6655 63.7684 14.854 63.6744 15.0068C63.5804 15.1595 63.5035 15.3363 63.5035 15.3993C63.5035 15.4624 63.465 15.5141 63.418 15.5141C63.371 15.5141 63.3326 15.558 63.3326 15.6116C63.3324 15.6653 63.233 15.8146 63.1114 15.9433C62.2196 16.8881 62.6807 18.1127 64.0148 18.3425C65.7169 18.6356 65.8626 18.6772 67.1786 19.2411C71.0785 20.9127 73.3519 25.103 72.4819 29.0164C72.2787 29.9303 72.3466 30.2749 72.8199 30.7338C73.7985 31.6827 74.3339 32.3361 74.4985 32.7822C74.526 32.8573 74.5826 32.9188 74.6243 32.9188C74.6658 32.9188 74.6997 32.982 74.6997 33.0593C74.6997 33.1365 74.7344 33.2331 74.7769 33.2739C75.0668 33.5527 75.5514 35.5531 75.5514 36.47C75.5512 37.725 74.9824 39.4795 74.2564 40.4645C74.1241 40.644 74.016 40.811 74.016 40.836C74.016 40.8607 73.9098 40.9825 73.7801 41.1064C72.9641 41.8863 72.9912 42.8638 73.8451 43.4463C74.6465 43.9928 75.7251 45.2566 76.1512 46.1479C76.2537 46.3625 76.373 46.5992 76.4161 46.6738C76.4593 46.7483 76.4946 46.8778 76.4946 46.9618C76.4946 47.0457 76.5287 47.1337 76.5706 47.1573C76.6565 47.2057 76.6928 47.3729 76.8668 48.5249C77.3706 51.8604 75.1839 55.2415 71.6656 56.5669C71.5246 56.6202 71.3424 56.6945 71.2607 56.7326C71.1791 56.7704 71.0535 56.8015 70.9813 56.8015C70.249 56.8015 69.8819 57.4643 69.814 58.9088C69.7497 60.2756 69.6822 60.6641 69.3305 61.6921C68.5162 64.0724 66.0239 66.2827 63.2411 67.0931C63.0732 67.1418 62.8544 67.1818 62.7546 67.1818C62.655 67.1818 62.5497 67.217 62.5206 67.2599C62.4916 67.3028 62.3734 67.3379 62.258 67.3379C61.6194 67.3379 61.2412 67.7697 60.857 68.9379C60.6517 69.5619 60.6341 69.6021 60.2485 70.3428C59.9848 70.8495 59.5735 71.4702 59.3624 71.6807C59.3132 71.7299 59.1103 71.9594 58.9118 72.1906C57.3082 74.0581 54.2205 75.3769 51.4522 75.3769C49.0183 75.3769 46.5032 74.4864 44.7141 72.991C44.2199 72.5779 43.0768 71.3305 43.0768 71.2042C43.0768 71.1752 42.9697 71.0046 42.8392 70.8251C42.6112 70.5121 42.5063 70.3241 42.2975 69.855C42.2452 69.7369 42.1683 69.5793 42.1266 69.5047C42.0851 69.4302 42.0512 69.3007 42.0512 69.2168C42.0512 69.1328 42.017 69.0448 41.9751 69.0212C41.9334 68.9976 41.8772 68.864 41.8505 68.7241C41.8238 68.5842 41.7578 68.2765 41.7037 68.0404C41.6497 67.8043 41.5879 67.2599 41.5663 66.8306C41.545 66.4014 41.4914 66.0168 41.4473 65.976C41.4033 65.9352 41.3674 65.8427 41.3674 65.7705C41.3674 65.5707 40.7375 65.0939 40.3467 64.9977C39.2419 64.7261 38.5094 65.4847 38.4261 66.9867C38.4047 67.3731 38.3476 67.8648 38.2994 68.0794C38.2511 68.294 38.1865 68.5842 38.1558 68.7243C38.125 68.8644 38.066 68.998 38.0244 69.0216C37.9827 69.045 37.9487 69.1328 37.9487 69.2168C37.9487 69.3007 37.9148 69.4302 37.8733 69.5047C37.8316 69.5793 37.7603 69.7282 37.7143 69.8355C37.6385 70.0132 37.4519 70.3613 37.1144 70.9549C35.4783 73.8313 31.0201 75.8067 27.3309 75.2899C25.748 75.068 23.5554 74.2916 22.89 73.7172C22.8285 73.6641 22.6368 73.5244 22.4639 73.4066C22.0437 73.1199 21.2003 72.3521 20.8911 71.9746C20.754 71.807 20.5743 71.6017 20.492 71.5184C20.4097 71.4351 20.3424 71.3209 20.3424 71.2647C20.3424 71.2083 20.3136 71.1621 20.2783 71.1617C20.2431 71.1613 20.1713 71.0823 20.1189 70.9861C20.0666 70.8899 19.9072 70.6003 19.7647 70.3428C19.4576 69.7875 19.1459 69.0761 19.1459 68.9303C19.1459 68.4462 18.6128 67.638 18.1825 67.4698C17.7455 67.2989 17.3115 67.1818 17.115 67.1818C17.0154 67.1818 16.9101 67.1467 16.881 67.1038C16.8519 67.0609 16.7246 67.0275 16.5981 67.0298C16.2932 67.0351 16.6925 67.1801 17.5647 67.3803C18.401 67.5725 18.7047 67.8685 18.9707 68.7508C19.9754 72.0819 22.9603 74.612 26.6976 75.2998C27.6123 75.4682 29.4612 75.5135 30.112 75.3833C30.309 75.3439 30.7011 75.2672 30.9831 75.2126C33.2771 74.7697 36.0994 72.878 37.1744 71.0628C38.1214 69.464 38.4754 68.3752 38.5944 66.6948C38.75 64.5007 41.2356 64.4322 41.4052 66.6174C41.7369 70.8915 44.8601 74.4184 49.0168 75.2128C49.2518 75.2577 49.6246 75.3304 49.8452 75.3747C50.5334 75.5123 52.3626 75.4729 53.3023 75.2998C57.1919 74.5839 60.0483 72.0954 61.1243 68.4847C61.2942 67.9145 61.6271 67.5967 62.2057 67.4519C64.6605 66.838 65.8098 66.2605 67.2837 64.9005C68.9862 63.3296 69.9133 61.2375 69.9136 58.9665C69.9136 57.6001 70.1841 57.0984 71.0246 56.9053C71.2492 56.8536 72.2351 56.4684 72.5107 56.3246C72.5994 56.2783 72.8083 56.1704 72.9752 56.085C77.8122 53.604 78.4389 47.2944 74.2143 43.6113C73.0237 42.5735 72.9964 42.2693 73.9803 41.0163C76.454 37.8657 76.1471 33.895 73.2038 30.9674C72.4323 30.2 72.3297 29.7922 72.6605 28.8062C73.0494 27.6462 72.5898 24.7836 71.7731 23.2798C70.3223 20.6085 66.6927 18.2458 64.0398 18.2458C63.6593 18.2458 63.111 17.8924 62.9133 17.5197C62.6277 16.981 62.6999 16.6493 63.271 15.8754C63.7383 15.2425 64.2295 14.0967 63.9078 14.3906ZM11.2897 18.3667C11.2861 18.4547 11.3269 18.5669 11.3805 18.6159C11.7506 18.9538 11.4574 19.7271 10.719 20.3605C9.23893 21.6297 8.52015 22.5606 7.86269 24.0603C7.68834 24.4578 7.52744 25.0037 7.35629 25.7774C7.22831 26.3559 7.2766 28.5243 7.43407 29.262C7.6003 30.0415 7.5283 30.2328 6.78772 30.9806C4.51792 33.2723 3.80747 36.1129 4.80958 38.8894C5.05166 39.5601 5.60913 40.5144 6.11488 41.1241C7.0281 42.2248 6.97148 42.5628 5.67814 43.7284C4.01943 45.2232 3.28975 46.5419 2.98891 48.5879C2.88165 49.3172 2.9701 50.6162 3.16839 51.221C4.1346 54.1679 5.69481 55.6941 8.98915 56.9144C9.95023 57.2705 10.0863 57.515 10.0863 58.8853C10.0863 61.745 11.5547 64.3672 14.0606 65.9836C14.8783 66.511 16.3255 67.1303 16.3255 66.953C16.3255 66.9071 16.2673 66.8696 16.1962 66.8696C16.125 66.8696 16 66.839 15.9184 66.8014C15.8368 66.7639 15.6161 66.6638 15.4281 66.5793C13.2922 65.618 11.5775 63.9007 10.7694 61.9136C10.7344 61.8277 10.6626 61.6594 10.6098 61.5392C10.5568 61.4192 10.5137 61.2418 10.5137 61.145C10.5137 61.0484 10.4788 60.9359 10.4365 60.8951C10.3256 60.7885 10.2539 60.2057 10.1874 58.8697C10.1177 57.4707 9.74148 56.8015 9.02483 56.8015C8.95603 56.8015 8.87612 56.7663 8.84706 56.7234C8.818 56.6805 8.71907 56.6454 8.6272 56.6454C8.53532 56.6454 8.38383 56.6102 8.29045 56.5673C7.31463 56.1187 6.98323 55.94 6.41572 55.5558C5.35764 54.8395 4.41899 53.7785 3.88973 52.7004C3.76431 52.4448 3.62649 52.1746 3.58355 52.1C3.5406 52.0255 3.50534 51.8959 3.50534 51.812C3.50534 51.7281 3.46688 51.6378 3.41988 51.6113C3.37287 51.5847 3.33441 51.4885 3.33441 51.3976C3.33441 51.3065 3.29873 51.1242 3.25492 50.9923C2.97139 50.1366 3.09831 47.344 3.42928 47.1573C3.47116 47.1337 3.50534 47.0457 3.50534 46.9618C3.50534 46.8778 3.53953 46.7483 3.58141 46.6738C3.62329 46.5992 3.74679 46.3625 3.85597 46.1479C4.34634 45.184 5.20636 44.1678 6.09437 43.5034C6.96507 42.8519 7.05801 41.9304 6.32598 41.2094C4.21002 39.1257 3.92798 34.8608 5.74352 32.3974C5.87578 32.2179 5.9839 32.0364 5.9839 31.9941C5.9839 31.9518 6.01275 31.9055 6.048 31.8911C6.08326 31.8768 6.22278 31.7422 6.35803 31.592C6.49329 31.4417 6.792 31.1319 7.0219 30.9032C7.73919 30.1902 7.79282 29.8784 7.42745 28.5481C6.7905 26.2297 8.11567 22.8303 10.484 20.7062C11.4758 19.8165 11.6262 19.6069 11.6226 19.1187C11.6201 18.8042 11.3019 18.0854 11.2897 18.3667ZM24.7013 23.3694C24.0039 23.434 23.0626 23.6274 22.5646 23.8084C22.4471 23.8512 22.274 23.912 22.18 23.9438C22.0255 23.9959 21.4657 24.2215 20.9621 24.4346C20.8563 24.4794 20.7698 24.5452 20.7698 24.5809C20.7698 24.6164 20.7264 24.6457 20.6734 24.6457C20.2709 24.6457 18.719 25.8886 17.7474 26.9889C17.4966 27.273 17.0947 27.8412 17.0947 27.9118C17.0947 27.9541 17.0656 28.0004 17.0301 28.0148C16.9286 28.0558 16.44 29.0078 16.2558 29.5237C16.0975 29.9668 16.0319 30.1972 15.818 31.0606C15.7058 31.5127 15.6915 46.4821 15.8028 46.8894C15.8439 47.0396 15.9244 47.3733 15.9821 47.6308C16.0398 47.8884 16.1176 48.1693 16.155 48.2552C16.1921 48.3411 16.2691 48.5342 16.3259 48.6845C16.4705 49.0675 16.9526 49.967 17.0301 49.9982C17.0656 50.0126 17.0947 50.0589 17.0947 50.1012C17.0947 50.1842 17.5703 50.8421 17.753 51.0121C17.8139 51.0686 17.8639 51.1438 17.8639 51.1787C17.8639 51.3584 20.0905 53.2113 20.3065 53.2113C20.3328 53.2113 20.5221 53.3166 20.727 53.4454C20.9319 53.5742 21.1373 53.6795 21.183 53.6795C21.2289 53.6795 21.4334 53.7549 21.6377 53.8468C21.842 53.9387 22.0956 54.044 22.2014 54.0809C22.3071 54.1178 22.4802 54.1789 22.586 54.2169C22.6917 54.2549 22.9321 54.3223 23.1201 54.3666C23.3082 54.4107 23.6158 54.4928 23.8039 54.5488C24.2639 54.6862 54.1771 54.7465 55.4063 54.6126C56.6593 54.4762 56.8351 54.4479 56.8853 54.3738C56.9114 54.3353 57.0242 54.3039 57.1362 54.3039C57.2481 54.3039 57.3588 54.2758 57.3821 54.2413C57.4054 54.207 57.6193 54.1303 57.8573 54.0711C58.0953 54.012 58.29 53.9348 58.29 53.8996C58.29 53.8643 58.3466 53.8356 58.4158 53.8356C58.4851 53.8356 58.7062 53.7463 58.9073 53.637C59.1083 53.5279 59.3402 53.4185 59.4224 53.3939C59.5047 53.3693 59.572 53.3182 59.572 53.2801C59.572 53.2423 59.6224 53.2113 59.6842 53.2113C59.7457 53.2113 59.8707 53.1498 59.9619 53.0747C60.0532 52.9995 60.2816 52.8356 60.4694 52.7104C61.2544 52.1875 62.9052 50.4204 62.9052 50.1032C62.9052 50.0599 62.9343 50.0126 62.9698 49.9982C63.0473 49.967 63.5294 49.0675 63.674 48.6845C63.7308 48.5342 63.8088 48.3411 63.8475 48.2552C63.8862 48.1693 63.942 47.9937 63.9714 47.865C64.0007 47.7362 64.0706 47.4552 64.1263 47.2406C64.2716 46.6823 64.2716 31.3307 64.1263 30.7725C64.0706 30.5578 64.0007 30.2768 63.9714 30.1481C63.9187 29.917 63.812 29.653 63.6644 29.3881C63.6229 29.3135 63.589 29.2045 63.589 29.1455C63.589 29.0164 63.0604 28.0517 62.9693 28.0148C62.9341 28.0004 62.9052 27.9549 62.9052 27.9137C62.9052 27.6016 61.2563 25.8359 60.4694 25.3054C60.2816 25.1786 60.0532 25.0135 59.9619 24.9384C59.8707 24.8632 59.7457 24.8018 59.6842 24.8018C59.6224 24.8018 59.5718 24.7754 59.5714 24.7432C59.5709 24.7111 59.4844 24.6461 59.3791 24.5989C59.2737 24.5514 59.0336 24.4406 58.8455 24.3522C58.3368 24.1134 57.7054 23.8652 57.606 23.8652C57.558 23.8652 57.4518 23.8336 57.3701 23.7948C57.2885 23.7559 57.0678 23.6888 56.8798 23.6453C56.6917 23.6018 56.3841 23.5202 56.196 23.4642C55.8794 23.3696 25.6797 23.2787 24.7013 23.3694ZM55.914 23.5556C58.5714 24.0283 60.6207 25.1821 62.1864 27.0862C63.2294 28.3549 63.7556 29.5178 64.099 31.3123C64.2212 31.952 64.2197 46.1813 64.0973 46.7467C63.887 47.7175 63.8206 47.9672 63.6546 48.4113C62.4988 51.5026 59.6983 53.7404 56.1362 54.419C55.2164 54.5943 24.7882 54.5995 23.9321 54.4245C22.3031 54.0918 21.3839 53.7428 20.2074 53.0107C17.8355 51.5344 16.3834 49.413 15.9045 46.7243C15.7776 46.0113 15.7776 32.0017 15.9045 31.2887C16.5896 27.4429 19.5807 24.4765 23.5902 23.6668C23.9427 23.5956 24.2697 23.5261 24.3167 23.5122C24.5615 23.4406 55.5059 23.483 55.914 23.5556ZM19.7215 59.7919C19.0559 59.9357 18.46 60.6654 18.5737 61.1977C18.603 61.3353 18.6119 61.3265 18.6215 61.1519C18.6412 60.7878 18.957 60.2863 19.2963 60.081C20.1159 59.5845 23.2485 60.25 24.7803 61.2459C25.1149 61.4635 25.2019 61.4527 25.9632 61.0998C26.9753 60.6303 27.8535 60.3302 28.7182 60.1579C28.9768 60.1064 29.3424 60.0305 29.5304 59.9891C31.4451 59.5683 32.8207 60.0564 32.8207 61.1567C32.8207 61.9899 32.3303 62.3122 30.8857 62.4291C29.8998 62.5089 28.64 62.7456 28.3779 62.9003C28.2279 62.9887 28.4554 62.9571 29.0174 62.8113C29.6319 62.6521 30.7156 62.5021 31.2643 62.5005C32.4015 62.4972 33.1042 61.8039 32.9373 60.8506C32.7555 59.8125 31.341 59.5128 28.9319 60.0014C28.6969 60.049 28.3792 60.1076 28.226 60.1314C28.0728 60.1552 27.9264 60.2061 27.9005 60.2442C27.8747 60.2824 27.7783 60.3136 27.6864 60.3136C27.5946 60.3136 27.4527 60.3446 27.3711 60.3825C27.2894 60.4205 27.1264 60.4863 27.0089 60.5288C26.5991 60.6769 25.9391 60.971 25.7269 61.1C25.2852 61.3682 25.1686 61.3569 24.4915 60.9817C24.1383 60.786 23.8293 60.6258 23.8043 60.6258C23.7537 60.6258 23.0291 60.3396 22.8007 60.2291C22.7191 60.1897 22.558 60.1575 22.4426 60.1575C22.3272 60.1575 22.209 60.1224 22.18 60.0795C22.1509 60.0365 22.0456 60.0014 21.946 60.0014C21.8462 60.0014 21.6467 59.9685 21.5022 59.9283C21.0454 59.801 20.0371 59.7238 19.7215 59.7919ZM48.2476 59.7891C46.3686 60.204 46.8066 62.4945 48.7659 62.5005C49.2886 62.5021 50.3802 62.6553 50.9825 62.8113C51.596 62.9706 51.7957 62.9873 51.4953 62.8547C51.0923 62.6767 50.1281 62.5042 49.0836 62.4235C47.704 62.3169 47.1792 61.9606 47.1792 61.131C47.1792 60.0364 48.5198 59.5846 50.5317 60.0012C50.7795 60.0527 51.1556 60.131 51.3671 60.1753C52.1391 60.3372 53.0532 60.6438 53.8884 61.0209C54.8606 61.4599 54.8843 61.464 55.2196 61.2459C56.6903 60.2896 59.8427 59.594 60.6769 60.0416C61.961 60.7304 61.3854 62.2155 59.7536 62.4235C57.4618 62.7153 55.5486 63.833 54.1307 65.7081C53.523 66.5116 53.3632 66.7717 52.7822 67.902C52.3068 68.8267 51.5885 69.1246 50.762 68.7397C49.8274 68.3042 49.8048 67.5167 50.6827 65.982C51.2759 64.9456 51.3938 64.7707 51.9806 64.0582C52.3028 63.6668 52.5419 63.3103 52.512 63.266C52.4427 63.1637 51.8759 62.9448 51.8177 62.9979C51.7938 63.0199 51.9299 63.0993 52.1203 63.1747L52.4662 63.3114L52.0325 63.8156C51.2492 64.7259 50.358 66.1885 50.0387 67.0878C49.3717 68.9666 51.9447 69.7849 52.8634 67.9861C53.3574 67.0185 53.4632 66.8297 53.5252 66.8047C53.5604 66.7902 53.5893 66.745 53.5893 66.704C53.5893 66.193 55.7928 63.9975 56.8614 63.4439C57.6189 63.0515 57.7453 62.9959 58.119 62.891C58.3306 62.8316 58.5421 62.7589 58.5891 62.7294C58.6361 62.6997 59.0015 62.6336 59.4011 62.5823C60.6525 62.4217 61.0724 62.2219 61.3346 61.6625C61.5837 61.1308 61.3544 60.3031 60.8959 60.0791C60.7788 60.0219 60.6831 59.9489 60.6831 59.9171C60.6831 59.8498 60.0267 59.73 59.8096 59.7575C59.7288 59.7679 59.4019 59.8071 59.0831 59.8447C58.396 59.9259 58.0524 59.9895 57.8199 60.0789C57.7259 60.115 57.4663 60.1901 57.243 60.2461C57.0197 60.3019 56.837 60.3751 56.837 60.4086C56.837 60.4422 56.7774 60.4697 56.7048 60.4697C56.5197 60.4697 55.7057 60.8469 55.0702 61.2272C54.8585 61.3538 54.83 61.3472 54.0286 60.9813C53.5754 60.7747 53.1085 60.5708 52.991 60.5284C52.8735 60.4861 52.7105 60.4205 52.6288 60.3825C52.5472 60.3446 52.4053 60.3136 52.3135 60.3136C52.2216 60.3136 52.1252 60.2824 52.0994 60.2442C52.0735 60.2061 51.9271 60.1552 51.7739 60.1314C51.6207 60.1076 51.303 60.049 51.068 60.0014C50.8329 59.9536 50.2945 59.8826 49.8714 59.8436C49.4484 59.8045 48.9869 59.7595 48.8458 59.7433C48.7048 59.7271 48.4356 59.7478 48.2476 59.7891ZM18.6401 61.5159C18.6213 61.9132 19.4516 62.499 20.0335 62.499C20.3486 62.499 21.1272 62.6316 21.4108 62.7339C21.5048 62.7676 21.7163 62.8383 21.8808 62.8906C23.5308 63.4149 25.1758 64.7409 26.2852 66.4404C26.5318 66.8181 26.645 67.0238 27.1365 67.9857C27.896 69.4733 30.0857 69.2368 30.0857 67.6671C30.0857 67.0298 28.7127 64.4474 28.1264 63.9819C28.0995 63.9604 27.9563 63.8002 27.8084 63.626L27.5399 63.3091L27.8828 63.1735C28.0713 63.0988 28.2061 63.0199 28.1821 62.9979C28.1245 62.9454 27.5576 63.1633 27.4892 63.2642C27.4599 63.3075 27.5824 63.5132 27.7617 63.721C28.8501 64.9842 30.002 67.0025 29.9988 67.641C29.9941 68.5824 28.8035 69.1881 27.904 68.7067C27.5392 68.5116 27.5194 68.4827 26.8653 67.2014C25.5277 64.5815 23.025 62.7737 20.239 62.4147C19.4108 62.3079 18.9882 62.0779 18.7647 61.6127C18.6812 61.4387 18.645 61.4106 18.6401 61.5159Z" fill="#5548A7"/>
<path fill-rule="evenodd" clip-rule="evenodd" d="M21.2185 7.76501C21.3477 7.78276 21.5593 7.78276 21.6885 7.76501C21.8178 7.74706 21.712 7.73242 21.4535 7.73242C21.195 7.73242 21.0892 7.74706 21.2185 7.76501ZM58.2701 7.76559C58.4237 7.78296 58.6545 7.78257 58.7829 7.76481C58.9113 7.74706 58.7857 7.73281 58.5037 7.7332C58.2216 7.73359 58.1165 7.74823 58.2701 7.76559ZM64.2088 12.587C64.2097 12.7587 64.2272 12.8198 64.2477 12.7226C64.2682 12.6256 64.2674 12.4852 64.246 12.4104C64.2246 12.3359 64.2078 12.4153 64.2088 12.587ZM15.7558 13.0163C15.7558 13.3382 15.771 13.4699 15.7894 13.309C15.808 13.148 15.808 12.8846 15.7894 12.7236C15.771 12.5626 15.7558 12.6943 15.7558 13.0163ZM64.2071 13.4846C64.2071 13.6348 64.2246 13.6963 64.2462 13.6211C64.2676 13.546 64.2676 13.4231 64.2462 13.348C64.2246 13.2729 64.2071 13.3343 64.2071 13.4846ZM32.7149 18.1446C32.8211 18.1633 32.975 18.1626 33.0568 18.143C33.1384 18.1235 33.0514 18.1081 32.8634 18.1091C32.6754 18.1099 32.6085 18.1259 32.7149 18.1446ZM46.988 18.1446C47.0942 18.1633 47.248 18.1626 47.3298 18.143C47.4115 18.1235 47.3245 18.1081 47.1365 18.1091C46.9485 18.1099 46.8816 18.1259 46.988 18.1446ZM10.3801 20.6064L10.1291 20.8601L10.4068 20.6308C10.6658 20.4172 10.7239 20.3528 10.6579 20.3528C10.6432 20.3528 10.5182 20.4669 10.3801 20.6064ZM18.7138 26.1088L18.4194 26.4015L18.7399 26.1326C19.0382 25.8821 19.0997 25.8161 19.0344 25.8161C19.0202 25.8161 18.876 25.9478 18.7138 26.1088ZM24.9442 25.9783C24.2932 26.0413 23.2558 26.3174 22.662 26.5857C22.2283 26.7818 21.6755 27.0733 21.6244 27.133C21.6009 27.1603 21.4347 27.2831 21.2548 27.4054C19.848 28.3636 18.6121 30.45 18.6431 31.8151L18.6532 32.2551L18.7245 31.8258C19.2089 28.9158 21.2027 26.8737 24.2036 26.2134C25.2085 25.9923 54.5696 25.9523 55.6003 26.1707C57.4599 26.5646 58.8205 27.3266 59.7955 28.5203C59.9305 28.6856 60.0604 28.8386 60.0844 28.86C60.2051 28.9691 60.8081 30.0245 60.8871 30.2657C61.3662 31.724 61.3632 31.6697 61.3651 38.9998C61.3668 45.5471 61.3435 46.2493 61.0972 47.0842C60.354 49.6036 58.3821 51.3006 55.555 51.8535C54.723 52.0163 25.2688 52.0153 24.4449 51.8524C21.3315 51.2372 19.269 49.2506 18.7651 46.3818L18.6555 45.7574L18.6444 46.1974C18.6218 47.0803 19.1882 48.4214 20.0153 49.4438C20.3676 49.8793 21.3539 50.7903 21.4738 50.7911C21.5086 50.7913 21.6114 50.8497 21.7022 50.9207C22.1469 51.2684 23.2169 51.699 24.3167 51.9729C24.9547 52.1318 55.0497 52.131 55.6832 51.972C57.6003 51.491 59.0771 50.643 59.9141 49.5427C60.0284 49.3925 60.1733 49.2214 60.2361 49.1623C60.428 48.982 61.0841 47.6612 61.2489 47.1232C61.4399 46.4996 61.545 32.706 61.3672 31.5741C61.2258 30.6731 60.5386 29.0608 60.1771 28.782C60.1493 28.7605 60.0117 28.6025 59.8716 28.4308C58.7735 27.0872 56.9159 26.1635 54.9256 25.972C53.9732 25.8803 25.8953 25.8862 24.9442 25.9783ZM72.7556 26.9478C72.7564 27.1195 72.7739 27.1806 72.7945 27.0834C72.815 26.9865 72.8141 26.846 72.7927 26.7713C72.7714 26.6967 72.7545 26.7761 72.7556 26.9478ZM7.20907 27.2991C7.20907 27.621 7.22424 27.7527 7.24262 27.5917C7.26121 27.4308 7.26121 27.1673 7.24262 27.0064C7.22424 26.8454 7.20907 26.9771 7.20907 27.2991ZM72.7539 27.6893C72.7539 27.8395 72.7714 27.901 72.793 27.8259C72.8143 27.7508 72.8143 27.6278 72.793 27.5527C72.7714 27.4776 72.7539 27.5391 72.7539 27.6893ZM42.5499 28.6245C41.7503 28.7589 41.6123 28.9755 40.9429 31.1445C40.6484 32.0988 40.3598 33.02 40.3014 33.1917C40.2431 33.3634 40.1472 33.6619 40.0878 33.8551C40.0286 34.0483 39.9506 34.2941 39.9145 34.4014C39.8784 34.5087 39.8015 34.7546 39.7435 34.9478C39.6856 35.1409 39.6087 35.3868 39.5726 35.4941C39.5365 35.6014 39.4596 35.8473 39.4017 36.0404C39.3438 36.2336 39.2668 36.4795 39.2307 36.5868C39.1946 36.6941 39.1177 36.9399 39.0598 37.1331C39.0019 37.3263 38.925 37.5721 38.8889 37.6794C38.8528 37.7868 38.7758 38.0326 38.7179 38.2258C38.66 38.4189 38.5831 38.6648 38.547 38.7721C38.5109 38.8794 38.4402 39.1077 38.3897 39.2794C38.3395 39.4511 38.2194 39.8375 38.1229 40.138C37.894 40.8503 37.8601 40.9588 37.3047 42.7526C37.0458 43.5896 36.7588 44.5028 36.6674 44.7818C36.5759 45.0608 36.4389 45.4998 36.3629 45.7574C36.2868 46.015 36.1894 46.3398 36.1464 46.4794C36.1035 46.6189 36.0334 46.8471 35.9905 46.9867C35.6415 48.1203 35.6392 48.1344 35.7484 48.467C36.1896 49.8122 38.2244 49.717 38.6143 48.333C38.6748 48.1184 38.7989 47.7145 38.8906 47.4354C39.0393 46.982 39.8527 44.3752 40.0961 43.5721C40.1482 43.4004 40.2239 43.1721 40.2647 43.0648C40.3053 42.9574 40.4004 42.6589 40.4758 42.4013C40.6491 41.8101 40.7583 41.4499 40.8546 41.1526C40.938 40.8954 41.0529 40.5296 41.1916 40.0794C41.2414 39.9184 41.3226 39.655 41.3723 39.4941C41.4219 39.3331 41.4988 39.0872 41.5433 38.9477C41.5875 38.8082 41.6602 38.5799 41.7044 38.4404C41.7488 38.3009 41.8279 38.0463 41.8802 37.8746C41.9326 37.7029 42.0116 37.4482 42.0561 37.3087C42.1003 37.1692 42.1719 36.9409 42.215 36.8014C42.2802 36.5909 43.4276 32.9445 44.1246 30.7332C44.5669 29.3303 43.8738 28.4021 42.5499 28.6245ZM43.5795 28.8932C43.9028 29.0795 44.1879 29.5361 44.1879 29.8676C44.1879 30.046 43.8368 31.2668 43.2095 33.2697C43.0885 33.6561 42.9477 34.1126 42.8967 34.2844C42.8456 34.4561 42.7691 34.6576 42.7266 34.7322C42.6841 34.8067 42.6494 34.9271 42.6494 34.9997C42.6494 35.1474 42.4975 35.6168 42.3826 35.8248C42.3413 35.8994 42.3076 36.0197 42.3076 36.0923C42.3076 36.24 42.1557 36.7095 42.0407 36.9175C41.9995 36.992 41.9657 37.1391 41.9657 37.2445C41.9657 37.3499 41.9272 37.4578 41.8802 37.4843C41.8332 37.5109 41.7948 37.6338 41.7948 37.7575C41.7948 37.8812 41.7563 38.0041 41.7093 38.0307C41.6623 38.0572 41.6238 38.1801 41.6238 38.3038C41.6238 38.4275 41.5854 38.5505 41.5384 38.577C41.4914 38.6035 41.4529 38.6876 41.4529 38.7639C41.4529 38.84 41.3753 39.1278 41.2807 39.4031C41.186 39.6784 41.0711 40.0267 41.0253 40.177C40.9794 40.3272 40.8429 40.7662 40.7219 41.1526C40.601 41.5389 40.4269 42.1009 40.3352 42.4013C40.2435 42.7018 40.1078 43.1408 40.0341 43.3769C39.7762 44.2009 39.7525 44.2766 39.657 44.5867C39.604 44.7584 39.5412 44.9867 39.5175 45.094C39.4938 45.2013 39.444 45.3594 39.407 45.4452C39.2564 45.7955 39.1453 46.1683 39.1453 46.3242C39.1453 46.4152 39.1068 46.5113 39.0598 46.5379C39.0128 46.5644 38.9743 46.6723 38.9743 46.7777C38.9743 46.8831 38.9406 47.0302 38.8993 47.1047C38.7746 47.3303 38.6325 47.7874 38.6325 47.9632C38.6325 48.0542 38.594 48.1504 38.547 48.1769C38.5 48.2034 38.4615 48.2988 38.4615 48.3888C38.4615 49.0725 37.2088 49.5494 36.465 49.1486C35.677 48.724 35.6804 48.3305 36.4947 45.7574C36.8342 44.6842 37.1443 43.7008 37.1836 43.5721C37.2983 43.1972 37.4293 42.7736 37.5214 42.4794C37.5684 42.3291 37.6481 42.0745 37.6983 41.9135C37.7485 41.7526 37.8092 41.5331 37.8329 41.4257C37.8566 41.3184 37.9064 41.1604 37.9434 41.0745C38.094 40.7243 38.2051 40.3514 38.2051 40.1955C38.2051 40.1046 38.2436 40.0084 38.2906 39.9819C38.3376 39.9553 38.3761 39.8324 38.3761 39.7087C38.3761 39.585 38.41 39.4646 38.4517 39.4412C38.4934 39.4176 38.5479 39.3015 38.5729 39.1828C38.5979 39.0642 38.6579 38.8443 38.7062 38.6941C38.7543 38.5438 38.8365 38.2804 38.8889 38.1087C39.01 37.7112 39.1342 37.3142 39.2307 37.016C39.2724 36.8873 39.3472 36.6502 39.3968 36.4892C39.4465 36.3282 39.5256 36.0736 39.5726 35.9234C39.6196 35.7731 39.6927 35.536 39.7352 35.3965C39.9053 34.8373 40.5239 32.8463 40.6871 32.3332C40.7826 32.0327 40.9023 31.6463 40.9531 31.4746C41.0038 31.3029 41.0749 31.0746 41.111 30.9673C41.1471 30.86 41.2241 30.6141 41.282 30.421C41.523 29.6171 41.7332 29.1599 41.9304 29.0105C42.4074 28.6491 43.0738 28.6017 43.5795 28.8932ZM30.6793 31.4272C30.155 31.7388 23.1064 38.2127 22.996 38.4845C22.8815 38.7659 22.8815 39.2466 22.9958 39.528C23.097 39.7764 30.4297 46.5258 30.7866 46.6991C31.6855 47.1351 32.9061 46.4356 32.9061 45.4842C32.9061 44.9763 32.6598 44.711 29.5795 41.8991C27.8837 40.3508 26.4961 39.0541 26.4961 39.0174C26.4961 38.9805 27.8815 37.6835 29.5748 36.1351C31.5447 34.3337 32.6989 33.2204 32.7799 33.0436C33.3322 31.8362 31.8767 30.716 30.6793 31.4272ZM47.8606 31.3648C47.1615 31.7351 46.8963 32.6487 47.3275 33.2016C47.4309 33.3343 48.8629 34.6734 50.5097 36.1774C52.1564 37.6814 53.5038 38.9565 53.5038 39.0109C53.5038 39.0654 52.138 40.3598 50.4686 41.8874C46.9604 45.0977 47.138 44.9038 47.1371 45.5293C47.1358 46.485 48.2604 47.1457 49.1719 46.7248C49.4375 46.6023 56.8227 39.8695 56.9708 39.615C57.1161 39.3653 57.1325 38.6765 56.999 38.4353C56.8253 38.1216 49.4571 31.4315 49.1559 31.3138C48.7503 31.1556 48.2157 31.1767 47.8606 31.3648ZM32.0181 31.4403C32.4066 31.6397 32.6047 31.8573 32.7418 32.2356C32.9662 32.8539 32.9113 32.9185 29.4911 36.0633C27.7734 37.6428 26.3557 38.9666 26.341 39.0053C26.3262 39.0441 27.7174 40.3545 29.4328 41.9174C33.0288 45.1939 33.0549 45.2273 32.6416 46.007C32.3339 46.5872 31.575 46.8747 30.9658 46.6415C30.6175 46.508 23.2654 39.8057 23.115 39.4845C22.959 39.151 22.959 38.8619 23.1148 38.528C23.2554 38.2266 30.6009 31.5138 30.9404 31.3765C31.2748 31.2413 31.6761 31.2651 32.0181 31.4403ZM49.0341 31.3716C49.3319 31.4865 56.7116 38.1805 56.883 38.4913C57.0422 38.7801 57.0432 39.2656 56.8853 39.537C56.7426 39.7821 49.3668 46.493 49.0819 46.6366C48.4275 46.967 47.4886 46.5402 47.2685 45.8124C47.0705 45.1572 47.0852 45.1399 50.5189 42.0052C52.2547 40.4207 53.6747 39.0718 53.6747 39.008C53.6747 38.9442 52.2543 37.5918 50.518 36.0028C48.3899 34.0553 47.342 33.0422 47.3023 32.8943C47.0333 31.8902 48.0533 30.9935 49.0341 31.3716ZM18.5884 39.0063C18.5884 42.5477 18.5989 43.9964 18.6117 42.2257C18.6245 40.455 18.6245 37.5575 18.6117 35.7868C18.5989 34.0161 18.5884 35.4648 18.5884 39.0063ZM6.68751 42.2843C6.68751 42.4345 6.70503 42.496 6.72661 42.4209C6.74798 42.3457 6.74798 42.2228 6.72661 42.1477C6.70503 42.0726 6.68751 42.134 6.68751 42.2843ZM6.19222 43.2404L5.94116 43.494L6.21893 43.2647C6.4779 43.0511 6.53602 42.9867 6.46999 42.9867C6.45525 42.9867 6.33025 43.1008 6.19222 43.2404ZM69.9369 58.9085C69.9369 59.1017 69.9535 59.1807 69.9738 59.0841C69.9943 58.9875 69.9943 58.8295 69.9738 58.7329C69.9535 58.6363 69.9369 58.7153 69.9369 58.9085ZM30.9618 59.9011C31.091 59.9188 31.3026 59.9188 31.4318 59.9011C31.5611 59.8831 31.4553 59.8685 31.1968 59.8685C30.9383 59.8685 30.8325 59.8831 30.9618 59.9011ZM48.6123 59.9017C48.7659 59.919 48.9967 59.9186 49.1251 59.9009C49.2535 59.8831 49.1279 59.8689 48.8458 59.8693C48.5638 59.8697 48.4587 59.8843 48.6123 59.9017ZM31.1327 62.3965C31.215 62.416 31.3496 62.416 31.4318 62.3965C31.5141 62.3768 31.4468 62.3607 31.2823 62.3607C31.1177 62.3607 31.0504 62.3768 31.1327 62.3965ZM48.5681 62.3965C48.6503 62.416 48.7849 62.416 48.8672 62.3965C48.9495 62.3768 48.8822 62.3607 48.7176 62.3607C48.5531 62.3607 48.4858 62.3768 48.5681 62.3965ZM41.3873 66.7913C41.3873 66.9416 41.4048 67.003 41.4264 66.9279C41.4478 66.8528 41.4478 66.7299 41.4264 66.6548C41.4048 66.5796 41.3873 66.6411 41.3873 66.7913ZM50.0212 67.6108C50.0221 67.7826 50.0396 67.8436 50.0601 67.7465C50.0806 67.6495 50.0798 67.509 50.0584 67.4343C50.037 67.3597 50.0202 67.4391 50.0212 67.6108Z" fill="#3C785B"/>
<path fill-rule="evenodd" clip-rule="evenodd" d="M30.2569 2.78763C27.807 3.12226 25.6318 4.83795 24.7744 7.11207C24.4994 7.84104 23.4443 8.32572 22.8084 8.01509C22.5823 7.90465 20.3488 7.9064 20.2275 8.01723C20.1779 8.0625 20.0486 8.09938 19.9399 8.09938C19.8311 8.09938 19.6754 8.1306 19.5937 8.16884C19.5121 8.20708 19.2529 8.32084 19.0179 8.42152C18.7829 8.5222 18.5713 8.62425 18.5478 8.64845C18.5243 8.67245 18.3705 8.77625 18.206 8.87869C17.8536 9.09839 17.0141 9.82814 17.0113 9.91731C17.0103 9.95126 16.9325 10.0545 16.8385 10.1466C16.7445 10.2387 16.6676 10.3602 16.6676 10.4164C16.6676 10.4728 16.6336 10.5189 16.5921 10.5189C16.5505 10.5189 16.4966 10.5803 16.4725 10.6555C16.4481 10.7306 16.3233 11.0379 16.1949 11.3384C15.7257 12.4377 15.8684 14.2976 16.5011 15.3262C16.5838 15.4607 16.7032 15.6544 16.7663 15.7569C16.8295 15.8593 16.9056 15.9608 16.9355 15.9822C17.1192 16.1147 17.3513 16.656 17.3513 16.9528C17.3513 18.2448 15.5302 18.8136 14.6591 17.7937C14.1161 17.158 14.0516 17.1139 13.8102 17.2144C13.6852 17.2665 13.5076 17.309 13.4157 17.309C13.3241 17.309 13.2489 17.3442 13.2489 17.3871C13.2489 17.43 13.1335 17.4651 12.9925 17.4651C12.8514 17.4651 12.736 17.5003 12.736 17.5432C12.736 17.5861 12.6784 17.6212 12.6078 17.6212C12.5373 17.6212 12.4796 17.6564 12.4796 17.6993C12.4796 17.7422 12.4051 17.7773 12.3138 17.7773C12.2226 17.7773 12.1241 17.8124 12.095 17.8554C12.066 17.8983 11.9675 17.9334 11.8762 17.9334C11.785 17.9334 11.7104 17.9744 11.7104 18.0245C11.7104 18.0745 11.6867 18.0938 11.6574 18.0673C11.4784 17.9036 11.3564 18.2601 11.4884 18.5615C11.8215 19.3219 11.6724 19.6403 10.4842 20.7061C8.11589 22.8302 6.79072 26.2295 7.42766 28.5479C7.79304 29.8783 7.73941 30.1901 7.02212 30.903C6.79221 31.1317 6.4935 31.4416 6.35825 31.5918C6.223 31.7421 6.08347 31.8767 6.04822 31.8909C6.01296 31.9054 5.98412 31.9516 5.98412 31.994C5.98412 32.0363 5.876 32.2178 5.74374 32.3973C3.9282 34.8607 4.21024 39.1256 6.3262 41.2093C7.05823 41.9302 6.96529 42.8518 6.09459 43.5033C5.20658 44.1677 4.34656 45.1839 3.85619 46.1478C3.74701 46.3624 3.62351 46.5991 3.58163 46.6736C3.53975 46.7482 3.50556 46.8777 3.50556 46.9616C3.50556 47.0455 3.47138 47.1335 3.4295 47.1571C3.09852 47.3439 2.9716 50.1364 3.25514 50.9922C3.29894 51.1241 3.33463 51.3063 3.33463 51.3975C3.33463 51.4884 3.37309 51.5846 3.42009 51.6111C3.4671 51.6377 3.50556 51.728 3.50556 51.8119C3.50556 51.8958 3.54082 52.0254 3.58376 52.0999C3.62671 52.1744 3.76453 52.4447 3.88995 52.7003C4.41921 53.7783 5.35786 54.8394 6.41594 55.5557C6.98345 55.9399 7.31485 56.1186 8.29067 56.5672C8.38405 56.6101 8.53554 56.6452 8.62741 56.6452C8.71929 56.6452 8.81822 56.6803 8.84728 56.7233C8.87634 56.7662 8.95625 56.8013 9.02505 56.8013C9.7417 56.8013 10.118 57.4706 10.1876 58.8696C10.2541 60.2056 10.3259 60.7884 10.4368 60.8949C10.4791 60.9357 10.5139 61.0483 10.5139 61.1449C10.5139 61.2417 10.5571 61.419 10.61 61.539C10.6628 61.6592 10.7346 61.8276 10.7697 61.9135C11.5778 63.9006 13.2924 65.6178 15.4283 66.5792C15.6163 66.6637 15.837 66.7638 15.9186 66.8012C16.0003 66.8389 16.1253 66.8695 16.1964 66.8695C16.2676 66.8695 16.3257 66.9046 16.3257 66.9476C16.3257 66.9905 16.4387 67.0256 16.577 67.0256C16.7152 67.0256 16.8522 67.0607 16.8812 67.1037C16.9103 67.1466 17.0156 67.1817 17.1152 67.1817C17.3118 67.1817 17.7457 67.2988 18.1827 67.4697C18.613 67.6379 19.1461 68.4461 19.1461 68.9302C19.1461 69.0759 19.4579 69.7873 19.7649 70.3426C19.9074 70.6002 20.0668 70.8898 20.1192 70.986C20.1715 71.0821 20.2433 71.1612 20.2786 71.1616C20.3138 71.162 20.3427 71.2082 20.3427 71.2646C20.3427 71.3208 20.41 71.4349 20.4922 71.5182C20.5745 71.6016 20.7542 71.8068 20.8914 71.9744C21.2005 72.352 22.0439 73.1198 22.4642 73.4064C22.637 73.5243 22.8287 73.664 22.8902 73.7171C23.5556 74.2915 25.7483 75.0679 27.3311 75.2897C31.0203 75.8066 35.4785 73.8312 37.1146 70.9547C37.4522 70.3612 37.6387 70.0131 37.7146 69.8353C37.7605 69.728 37.8319 69.5791 37.8735 69.5046C37.915 69.4301 37.949 69.3005 37.949 69.2166C37.949 69.1327 37.9829 69.0449 38.0246 69.0215C38.0663 68.9979 38.1252 68.8642 38.156 68.7241C38.1868 68.584 38.2513 68.2939 38.2996 68.0793C38.3479 67.8646 38.4049 67.3729 38.4263 66.9866C38.5096 65.4845 39.2421 64.7259 40.347 64.9975C40.7378 65.0937 41.3676 65.5706 41.3676 65.7704C41.3676 65.8426 41.4035 65.9351 41.4476 65.9759C41.4916 66.0166 41.5452 66.4012 41.5666 66.8305C41.5882 67.2597 41.6499 67.8041 41.704 68.0402C41.758 68.2763 41.824 68.584 41.8508 68.7239C41.8775 68.8638 41.9337 68.9975 41.9753 69.0211C42.0172 69.0447 42.0514 69.1327 42.0514 69.2166C42.0514 69.3005 42.0854 69.4301 42.1268 69.5046C42.1685 69.5791 42.2454 69.7368 42.2978 69.8548C42.5065 70.3239 42.6114 70.512 42.8394 70.825C42.97 71.0045 43.077 71.175 43.077 71.2041C43.077 71.233 43.3236 71.545 43.6246 71.8974C46.5342 75.2997 51.5735 76.3248 55.8617 74.3867C57.0157 73.8651 58.2161 73.0008 58.912 72.1904C59.1105 71.9592 59.3135 71.7298 59.3626 71.6806C59.5737 71.47 59.985 70.8494 60.2487 70.3426C60.6344 69.602 60.6519 69.5618 60.8572 68.9378C61.2414 67.7696 61.6196 67.3378 62.2582 67.3378C62.3736 67.3378 62.4918 67.3027 62.5208 67.2597C62.5499 67.2168 62.6552 67.1817 62.7548 67.1817C63.2691 67.1817 64.693 66.6055 65.7259 65.9796C67.2878 65.033 68.8051 63.2282 69.3307 61.692C69.6824 60.6639 69.7499 60.2754 69.8142 58.9086C69.8822 57.4641 70.2492 56.8013 70.9815 56.8013C71.0537 56.8013 71.1793 56.7703 71.261 56.7324C71.3426 56.6944 71.5248 56.62 71.6659 56.5668C75.1841 55.2413 77.3708 51.8603 76.867 48.5247C76.6931 47.3727 76.6567 47.2055 76.5708 47.1571C76.529 47.1335 76.4948 47.0455 76.4948 46.9616C76.4948 46.8777 76.4595 46.7482 76.4164 46.6736C76.3732 46.5991 76.254 46.3624 76.1514 46.1478C75.7254 45.2565 74.6468 43.9927 73.8453 43.4461C72.9915 42.8637 72.9643 41.8862 73.7803 41.1063C73.91 40.9824 74.0162 40.8606 74.0162 40.8358C74.0162 40.8108 74.1243 40.6438 74.2566 40.4643C74.9827 39.4793 75.5514 37.7248 75.5516 36.4698C75.5516 35.5529 75.067 33.5526 74.7771 33.2738C74.7346 33.233 74.7 33.1364 74.7 33.0591C74.7 32.9819 74.666 32.9186 74.6245 32.9186C74.5829 32.9186 74.5263 32.8572 74.4987 32.7821C74.3342 32.336 73.7987 31.6826 72.8201 30.7337C72.3468 30.2748 72.2789 29.9302 72.4821 29.0162C73.3521 25.1029 71.0787 20.9125 67.1788 19.2409C65.8628 18.677 65.7171 18.6355 64.015 18.3424C62.6809 18.1125 62.2198 16.888 63.1116 15.9432C63.2332 15.8144 63.3326 15.6652 63.3328 15.6115C63.3328 15.5578 63.3713 15.5139 63.4183 15.5139C63.4653 15.5139 63.5037 15.4622 63.5037 15.3992C63.5037 15.3362 63.5806 15.1594 63.6747 15.0066C63.7687 14.8538 63.8456 14.6617 63.8456 14.5795C63.8456 14.4976 63.8841 14.4088 63.9311 14.3822C63.9781 14.3557 64.0165 14.2287 64.0165 14.1001C64.0165 13.9713 64.0605 13.7063 64.1144 13.511C64.2163 13.1411 64.0949 11.9649 63.9242 11.671C63.8811 11.5965 63.8456 11.482 63.8456 11.4164C63.8456 11.3509 63.8116 11.2363 63.7702 11.1618C63.7285 11.0873 63.6422 10.9208 63.5779 10.792C63.5138 10.6633 63.442 10.5403 63.4183 10.5189C63.3945 10.4974 63.3176 10.3758 63.2471 10.2488C62.9542 9.72005 61.7681 8.75498 61.0252 8.44084C60.7666 8.33138 60.4882 8.20982 60.4066 8.1706C60.325 8.13138 60.1692 8.09938 60.0605 8.09938C59.9517 8.09938 59.8224 8.0625 59.7729 8.01723C59.6515 7.9064 57.418 7.90465 57.192 8.01509C56.4918 8.35733 55.4995 7.82582 55.1604 6.92671C54.7467 5.83052 53.9102 4.79853 52.7286 3.92674C50.6157 2.36793 46.8252 2.341 44.4872 3.8684C43.9225 4.23737 42.7351 5.33687 42.7351 5.49082C42.7351 5.51501 42.6198 5.68789 42.4787 5.87501C42.3377 6.06213 42.2223 6.25179 42.2223 6.29647C42.2223 6.34115 42.1454 6.50271 42.0514 6.65549C41.9574 6.80827 41.8805 7.00046 41.8805 7.08261C41.8805 7.16456 41.8471 7.25041 41.8063 7.27344C41.7166 7.32417 41.6264 7.83441 41.5501 8.72376C41.4839 9.49761 41.3014 9.89156 40.8709 10.1917C40.2329 10.6359 39.0617 10.4141 38.7387 9.78775C38.4951 9.31556 38.4654 9.20278 38.4276 8.60669C38.3769 7.81041 38.2934 7.32963 38.1964 7.2748C38.1543 7.251 38.1199 7.16456 38.1199 7.08261C38.1199 7.00046 38.043 6.80827 37.949 6.65549C37.8549 6.50271 37.778 6.34876 37.778 6.31364C37.778 5.97394 36.421 4.47581 35.5933 3.90157C34.307 3.00928 32.0634 2.5408 30.2569 2.78763ZM27.4157 11.8082C27.6157 11.8379 27.8008 11.8935 27.8266 11.9319C27.8527 11.9704 27.9794 12.0018 28.1082 12.0018C28.2371 12.0018 28.3789 12.0309 28.4236 12.0662C28.4683 12.1017 28.6779 12.1795 28.8894 12.2392C29.5849 12.4357 30.7727 13.0365 31.6605 13.6408C33.0094 14.5588 34.3593 16.2004 34.3593 16.9219C34.3593 18.3927 32.4773 18.7521 31.5141 17.4651C30.9319 16.6872 29.7221 15.6761 28.8894 15.2716C28.6779 15.1688 28.492 15.0583 28.4764 15.0261C28.4606 14.9939 28.3928 14.9676 28.3255 14.9676C28.2584 14.9676 28.127 14.9325 28.0337 14.8896C27.9403 14.8466 27.7873 14.7764 27.6939 14.7335C27.6006 14.6905 27.4298 14.6554 27.3144 14.6554C27.1991 14.6554 27.0839 14.6248 27.0587 14.5875C27.0335 14.55 26.8292 14.4974 26.6049 14.4704C25.4731 14.3342 25.2352 14.287 24.978 14.1473C24.0804 13.6603 24.0368 12.4141 24.8983 11.8675C25.1822 11.6872 26.4079 11.6584 27.4157 11.8082ZM55.082 11.8652C56.3392 12.6176 55.773 14.2101 54.1878 14.3805C53.2391 14.4823 53.0322 14.5167 52.9528 14.5854C52.9081 14.6238 52.7827 14.6554 52.6739 14.6554C52.5652 14.6554 52.4094 14.6864 52.3278 14.7245C52.1812 14.7928 51.249 15.2189 50.8765 15.3879C50.7712 15.4357 50.6847 15.5013 50.6842 15.5334C50.6838 15.5656 50.6454 15.592 50.5988 15.592C50.4099 15.592 49.0554 16.7711 48.7159 17.231C48.1029 18.0614 47.4369 18.3996 46.769 18.2197C46.3468 18.1057 45.8164 17.7219 45.8139 17.5284C45.8128 17.4558 45.7735 17.3746 45.7265 17.3481C45.5705 17.2601 45.6306 16.5506 45.8203 16.2382C46.7705 14.6751 48.9469 12.9965 50.8973 12.3226C51.1793 12.2252 51.477 12.113 51.5586 12.0736C51.6402 12.0342 51.8013 12.0018 51.9167 12.0018C52.0321 12.0018 52.1502 11.9667 52.1793 11.9237C52.2083 11.8808 52.3549 11.8431 52.5049 11.8402C52.6549 11.8371 52.8545 11.8045 52.9485 11.7676C53.3425 11.6129 54.7696 11.6783 55.082 11.8652ZM56.1963 23.4641C56.3843 23.5201 56.692 23.6017 56.88 23.6452C57.068 23.6887 57.2887 23.7558 57.3704 23.7946C57.452 23.8335 57.5582 23.8651 57.6063 23.8651C57.7056 23.8651 58.337 24.1133 58.8458 24.3521C59.0338 24.4405 59.2739 24.5513 59.3793 24.5987C59.4846 24.6459 59.5712 24.7109 59.5716 24.7431C59.572 24.7753 59.6226 24.8016 59.6844 24.8016C59.7459 24.8016 59.8709 24.8631 59.9622 24.9382C60.0534 25.0134 60.2818 25.1784 60.4696 25.3053C61.2566 25.8358 62.9055 27.6014 62.9055 27.9136C62.9055 27.9548 62.9343 28.0002 62.9696 28.0147C63.0606 28.0516 63.5892 29.0162 63.5892 29.1454C63.5892 29.2043 63.6232 29.3134 63.6646 29.3879C63.8123 29.6529 63.9189 29.9169 63.9717 30.1479C64.0009 30.2767 64.0708 30.5577 64.1266 30.7723C64.2719 31.3306 64.2719 46.6822 64.1266 47.2404C64.0708 47.4551 64.0009 47.736 63.9717 47.8648C63.9422 47.9936 63.8864 48.1692 63.8477 48.2551C63.8091 48.3409 63.7311 48.5341 63.6742 48.6843C63.5296 49.0673 63.0475 49.9669 62.97 49.9981C62.9345 50.0125 62.9055 50.0597 62.9055 50.103C62.9055 50.4203 61.2546 52.1873 60.4696 52.7102C60.2818 52.8355 60.0534 52.9994 59.9622 53.0745C59.8709 53.1497 59.7459 53.2111 59.6844 53.2111C59.6226 53.2111 59.5722 53.2421 59.5722 53.28C59.5722 53.318 59.5049 53.3692 59.4227 53.3937C59.3404 53.4183 59.1086 53.5278 58.9075 53.6369C58.7064 53.7461 58.4853 53.8355 58.4161 53.8355C58.3468 53.8355 58.2902 53.8642 58.2902 53.8995C58.2902 53.9346 58.0956 54.0119 57.8575 54.071C57.6195 54.1301 57.4056 54.2068 57.3823 54.2412C57.359 54.2757 57.2484 54.3038 57.1364 54.3038C57.0244 54.3038 56.9116 54.3352 56.8856 54.3736C56.8353 54.4478 56.6595 54.4761 55.4065 54.6125C54.1773 54.7463 24.2641 54.686 23.8041 54.5487C23.6161 54.4927 23.3084 54.4105 23.1203 54.3664C22.9323 54.3221 22.6919 54.2548 22.5862 54.2168C22.4804 54.1787 22.3073 54.1176 22.2016 54.0808C22.0958 54.0439 21.8422 53.9385 21.6379 53.8466C21.4336 53.7547 21.2292 53.6794 21.1832 53.6794C21.1375 53.6794 20.9322 53.574 20.7273 53.4453C20.5223 53.3165 20.333 53.2111 20.3068 53.2111C20.0907 53.2111 17.8641 51.3582 17.8641 51.1785C17.8641 51.1436 17.8141 51.0685 17.7532 51.0119C17.5705 50.842 17.0949 50.184 17.0949 50.1011C17.0949 50.0587 17.0658 50.0125 17.0304 49.9981C16.9528 49.9669 16.4708 49.0673 16.3261 48.6843C16.2693 48.5341 16.1924 48.3409 16.1552 48.2551C16.1178 48.1692 16.04 47.8882 15.9823 47.6307C15.9246 47.3731 15.8441 47.0395 15.803 46.8892C15.6917 46.482 15.706 31.5126 15.8182 31.0605C16.0321 30.1971 16.0977 29.9667 16.256 29.5235C16.4402 29.0076 16.9289 28.0557 17.0304 28.0147C17.0658 28.0002 17.0949 27.954 17.0949 27.9117C17.0949 27.841 17.4968 27.2728 17.7476 26.9887C18.7192 25.8885 20.2711 24.6456 20.6736 24.6456C20.7266 24.6456 20.77 24.6163 20.77 24.5808C20.77 24.5451 20.8565 24.4793 20.9623 24.4344C21.4659 24.2214 22.0257 23.9958 22.1802 23.9437C22.2742 23.9119 22.4473 23.851 22.5648 23.8083C23.0629 23.6272 24.0041 23.4339 24.7015 23.3693C25.6799 23.2785 55.8796 23.3695 56.1963 23.4641ZM21.5024 59.9281C21.6469 59.9683 21.8465 60.0013 21.9462 60.0013C22.0458 60.0013 22.1511 60.0364 22.1802 60.0793C22.2093 60.1223 22.3274 60.1574 22.4428 60.1574C22.5582 60.1574 22.7193 60.1896 22.8009 60.229C23.0293 60.3394 23.7539 60.6257 23.8045 60.6257C23.8295 60.6257 24.1385 60.7859 24.4917 60.9816C25.1688 61.3568 25.2854 61.3681 25.7271 61.0998C25.9393 60.9708 26.5993 60.6768 27.0091 60.5287C27.1266 60.4862 27.2897 60.4204 27.3713 60.3824C27.4529 60.3445 27.5948 60.3135 27.6867 60.3135C27.7785 60.3135 27.8749 60.2823 27.9008 60.244C27.9266 60.206 28.073 60.155 28.2262 60.1312C28.3794 60.1074 28.6971 60.0489 28.9321 60.0013C31.3412 59.5127 32.7557 59.8124 32.9376 60.8504C33.1044 61.8038 32.4017 62.4971 31.2645 62.5004C30.9688 62.5012 30.4193 62.5515 30.0432 62.6124C29.4289 62.7115 29.2033 62.7603 28.4621 62.9554C28.3445 62.9862 28.089 63.0785 27.8941 63.1603L27.5401 63.309L27.8087 63.6258C27.9565 63.8001 28.0997 63.9603 28.1266 63.9817C28.7129 64.4473 30.0859 67.0297 30.0859 67.667C30.0859 69.2367 27.8963 69.4732 27.1367 67.9856C26.6452 67.0237 26.532 66.818 26.2854 66.4402C25.1761 64.7408 23.531 63.4147 21.8811 62.8904C21.7165 62.8381 21.505 62.7675 21.411 62.7337C21.1275 62.6315 20.3488 62.4988 20.0337 62.4988C19.372 62.4988 18.7034 61.9683 18.5938 61.3564C18.369 60.1002 19.7271 59.4335 21.5024 59.9281ZM49.8717 59.8434C50.2947 59.8825 50.8332 59.9535 51.0682 60.0013C51.3032 60.0489 51.621 60.1074 51.7742 60.1312C51.9274 60.155 52.0737 60.206 52.0996 60.244C52.1254 60.2823 52.2218 60.3135 52.3137 60.3135C52.4056 60.3135 52.5474 60.3445 52.6291 60.3824C52.7107 60.4204 52.8737 60.486 52.9912 60.5283C53.1087 60.5706 53.5756 60.7745 54.0288 60.9812C54.8303 61.347 54.8587 61.3537 55.0704 61.227C55.7059 60.8467 56.52 60.4696 56.705 60.4696C56.7776 60.4696 56.8373 60.4421 56.8373 60.4085C56.8373 60.3749 57.02 60.3018 57.2432 60.246C57.4665 60.19 57.7261 60.1148 57.8201 60.0788C58.0526 59.9894 58.3962 59.9258 59.0834 59.8446C59.4021 59.8069 59.7291 59.7677 59.8098 59.7574C60.0269 59.7299 60.6833 59.8497 60.6833 59.917C60.6833 59.9488 60.779 60.0218 60.8961 60.0789C61.3546 60.3029 61.5839 61.1306 61.3348 61.6623C61.0726 62.2218 60.6527 62.4216 59.4013 62.5821C59.0017 62.6335 58.6364 62.6996 58.5893 62.7293C58.5423 62.7587 58.3308 62.8315 58.1193 62.8908C57.7456 62.9958 57.6191 63.0514 56.8616 63.4438C55.7931 63.9973 53.5895 66.1928 53.5895 66.7038C53.5895 66.7448 53.5607 66.7901 53.5254 66.8045C53.4634 66.8295 53.3577 67.0184 52.8637 67.986C51.9449 69.7848 49.3719 68.9665 50.039 67.0877C50.3582 66.1883 51.2494 64.7257 52.0327 63.8155L52.4665 63.3113L52.1092 63.1614C51.9126 63.0791 51.6558 62.9862 51.5383 62.9554C50.7971 62.7603 50.5714 62.7115 49.9571 62.6124C49.5811 62.5515 49.0452 62.5012 48.7661 62.5004C47.7478 62.4973 47.0696 61.9572 47.0696 61.1496C47.0696 60.2801 47.8869 59.6329 48.8461 59.7431C48.9871 59.7593 49.4486 59.8044 49.8717 59.8434Z" fill="#6454DC"/>
</svg>
