<svg width="76" height="84" viewBox="0 0 76 84" fill="none" xmlns="http://www.w3.org/2000/svg">
<path fill-rule="evenodd" clip-rule="evenodd" d="M41.7531 0.0390877C41.5478 0.0592622 41.3798 0.111379 41.3798 0.154881C41.3798 0.198382 41.2636 0.234107 41.1215 0.234107C40.9794 0.234107 40.8387 0.271934 40.8088 0.318167C40.7789 0.3644 40.6579 0.402227 40.54 0.402227C40.4221 0.402227 40.3256 0.440054 40.3256 0.486287C40.3256 0.532521 40.2268 0.570348 40.106 0.570348C39.9853 0.570348 39.8864 0.608175 39.8864 0.654408C39.8864 0.700641 39.8074 0.738468 39.7107 0.738468C39.6141 0.738468 39.5351 0.776295 39.5351 0.822528C39.5351 0.868761 39.474 0.906588 39.3996 0.906588C39.3251 0.906588 39.1793 0.982242 39.0756 1.07471C38.972 1.16717 38.8352 1.24283 38.7719 1.24283C38.7085 1.24283 38.6566 1.28066 38.6566 1.32689C38.6566 1.37312 38.5921 1.41095 38.5132 1.41095C38.4344 1.41095 38.3059 1.47757 38.2277 1.55868C38.1496 1.64001 37.917 1.81591 37.7108 1.94956C37.3357 2.1925 36.9608 2.55711 36.5484 3.08038C36.4276 3.23358 36.2794 3.40969 36.219 3.47168C36.1586 3.53368 36.1092 3.62656 36.1092 3.67805C36.1092 3.72954 36.0301 3.85289 35.9335 3.95209C35.8369 4.05128 35.7578 4.1822 35.7578 4.24272C35.7578 4.30346 35.7183 4.35305 35.67 4.35305C35.6216 4.35305 35.5821 4.42871 35.5821 4.52117C35.5821 4.61364 35.5426 4.68929 35.4943 4.68929C35.446 4.68929 35.4064 4.76495 35.4064 4.85741C35.4064 4.94988 35.3669 5.02553 35.3186 5.02553C35.2703 5.02553 35.2307 5.1201 35.2307 5.23568C35.2307 5.35127 35.1912 5.44583 35.1429 5.44583C35.0946 5.44583 35.0551 5.5404 35.0551 5.65598C35.0551 5.77157 35.0155 5.86613 34.9672 5.86613C34.9189 5.86613 34.8794 5.99853 34.8794 6.16034C34.8794 6.32216 34.8398 6.45455 34.7915 6.45455C34.7432 6.45455 34.7037 6.64369 34.7037 6.87486C34.7037 7.10602 34.6642 7.29516 34.6158 7.29516C34.5638 7.29516 34.528 7.60176 34.528 8.04665C34.528 8.46002 34.4885 8.82169 34.4402 8.85027C34.3187 8.92214 34.3187 33.4921 34.4402 33.5639C34.4885 33.5925 34.528 33.7665 34.528 33.9506C34.528 34.1694 34.5891 34.348 34.7037 34.4659C34.8003 34.5651 34.8794 34.696 34.8794 34.7565C34.8794 34.8173 34.9312 34.8669 34.9947 34.8669C35.0579 34.8669 35.1947 34.9425 35.2984 35.035C35.4596 35.1787 35.6082 35.2031 36.3242 35.2031C37.2632 35.2031 37.377 35.151 37.9978 34.4382C38.1715 34.2387 38.1739 34.0817 38.2174 21.0642C38.2521 10.6838 38.2846 7.86971 38.3711 7.78691C38.4315 7.72912 38.4809 7.557 38.4809 7.40443C38.4809 7.25186 38.5205 7.12704 38.5688 7.12704C38.6171 7.12704 38.6566 7.05138 38.6566 6.95892C38.6566 6.86645 38.6962 6.7908 38.7445 6.7908C38.7928 6.7908 38.8323 6.74162 38.8323 6.68152C38.8323 6.52685 39.039 6.11979 39.1178 6.11894C39.154 6.11852 39.1837 6.04266 39.1837 5.95019C39.1837 5.85773 39.2133 5.78039 39.2496 5.7785C39.2858 5.77661 39.4736 5.56919 39.6668 5.31785C39.8601 5.0663 40.0887 4.83808 40.1748 4.81055C40.2609 4.78281 40.4212 4.67815 40.531 4.5777C40.8514 4.28454 41.698 3.84869 41.9466 3.84869C42.0212 3.84869 42.0825 3.81086 42.0825 3.76463C42.0825 3.7184 42.2011 3.68057 42.346 3.68057C42.491 3.68057 42.6096 3.64274 42.6096 3.59651C42.6096 3.54902 42.8584 3.51245 43.1805 3.51245C43.5027 3.51245 43.7515 3.47589 43.7515 3.42839C43.7515 3.38216 43.8677 3.34433 44.0098 3.34433C44.1519 3.34433 44.2926 3.38216 44.3225 3.42839C44.3524 3.47462 44.5896 3.51245 44.8496 3.51245C45.1096 3.51245 45.3468 3.55028 45.3766 3.59651C45.4065 3.64274 45.567 3.68057 45.7333 3.68057C45.8995 3.68057 46.0354 3.7184 46.0354 3.76463C46.0354 3.81086 46.1145 3.84869 46.2111 3.84869C46.3078 3.84869 46.3868 3.88652 46.3868 3.93275C46.3868 3.97898 46.4659 4.01681 46.5625 4.01681C46.6591 4.01681 46.7382 4.05464 46.7382 4.10087C46.7382 4.14711 46.8173 4.18493 46.9139 4.18493C47.0105 4.18493 47.0896 4.22276 47.0896 4.26899C47.0896 4.31523 47.139 4.35347 47.1994 4.3541C47.3399 4.35536 48.7586 5.65052 48.7586 5.77766C48.7586 5.8302 48.8376 5.9544 48.9343 6.05359C49.0309 6.15278 49.11 6.2837 49.11 6.34423C49.11 6.40496 49.1495 6.45455 49.1978 6.45455C49.2461 6.45455 49.2856 6.53063 49.2856 6.62373C49.2856 6.71682 49.3252 6.86813 49.3735 6.95997C49.4218 7.0518 49.5009 7.20227 49.5492 7.2941C49.5975 7.38594 49.637 7.57276 49.637 7.70936C49.637 7.84596 49.6765 7.98109 49.7249 8.00967C49.9636 8.15089 49.5689 8.80403 49.2417 8.8095C49.1934 8.81034 49.0201 8.92382 48.8565 9.06168C48.6929 9.19975 48.532 9.3126 48.4988 9.3126C48.3497 9.3126 47.0896 10.5958 47.0896 10.7477C47.0896 10.7996 46.971 10.9482 46.826 11.0779C46.6811 11.2075 46.5625 11.3656 46.5625 11.4292C46.5625 11.4929 46.4835 11.5997 46.3868 11.6663C46.2902 11.7329 46.2111 11.8548 46.2111 11.937C46.2111 12.0193 46.1716 12.0866 46.1233 12.0866C46.075 12.0866 46.0354 12.1622 46.0354 12.2547C46.0354 12.3472 45.9959 12.4228 45.9476 12.4228C45.8975 12.4228 45.8598 12.6733 45.8598 13.0062C45.8598 13.3271 45.8993 13.6131 45.9476 13.6417C45.9959 13.6703 46.0354 13.7491 46.0354 13.817C46.0354 13.9998 46.794 14.6924 46.9943 14.6924C47.0893 14.6924 47.1915 14.7303 47.2213 14.7765C47.2512 14.8227 47.5081 14.8606 47.7923 14.8606C48.0765 14.8606 48.3334 14.8227 48.3633 14.7765C48.3932 14.7303 48.4797 14.6924 48.5555 14.6924C48.7241 14.6924 49.637 13.7991 49.637 13.6341C49.637 13.569 49.67 13.5156 49.7099 13.5156C49.7501 13.5156 49.8391 13.4116 49.9076 13.2844C50.0371 13.0444 51.0983 12.0025 51.2134 12.0025C51.2494 12.0025 51.3937 11.908 51.534 11.7924C51.6743 11.677 51.8386 11.5824 51.899 11.5822C51.9594 11.5822 52.0088 11.5444 52.0088 11.4982C52.0088 11.4519 52.0878 11.4141 52.1845 11.4141C52.2811 11.4141 52.3602 11.3763 52.3602 11.33C52.3602 11.2838 52.4392 11.246 52.5358 11.246C52.6325 11.246 52.7115 11.2082 52.7115 11.1619C52.7115 11.1157 52.7882 11.0779 52.8819 11.0779C52.9757 11.0779 53.077 11.04 53.1068 10.9938C53.1367 10.9476 53.275 10.9097 53.4143 10.9097C53.5535 10.9097 53.6919 10.8719 53.7217 10.8257C53.7516 10.7794 53.9097 10.7416 54.0731 10.7416C54.2365 10.7416 54.3946 10.7038 54.4245 10.6576C54.4958 10.547 56.2856 10.547 56.357 10.6576C56.3869 10.7038 56.587 10.7416 56.8015 10.7416C57.0161 10.7416 57.1915 10.7794 57.1915 10.8257C57.1915 10.8719 57.3101 10.9097 57.4551 10.9097C57.6 10.9097 57.7186 10.9476 57.7186 10.9938C57.7186 11.04 57.7976 11.0779 57.8943 11.0779C57.9909 11.0779 58.07 11.1157 58.07 11.1619C58.07 11.2082 58.1391 11.2468 58.2237 11.2479C58.3082 11.2489 58.4762 11.3237 58.597 11.4141C58.7178 11.5045 58.8491 11.5793 58.8887 11.5803C59.1614 11.5875 61.1445 13.3034 61.1445 13.5322C61.1445 13.595 61.2235 13.7012 61.3202 13.7678C61.4168 13.8344 61.4958 13.9563 61.4958 14.0385C61.4958 14.1208 61.5354 14.1881 61.5837 14.1881C61.632 14.1881 61.6715 14.2606 61.6715 14.3493C61.6715 14.4377 61.7012 14.5229 61.7374 14.5384C61.8264 14.5762 62.1107 15.3866 62.1107 15.6024C62.1107 15.6976 62.1503 15.7987 62.1986 15.8273C62.2469 15.8558 62.2864 16.1017 62.2864 16.3736C62.2864 16.6456 62.326 16.8915 62.3743 16.92C62.4226 16.9486 62.4621 17.081 62.4621 17.2142C62.4621 17.3475 62.4226 17.4799 62.3743 17.5085C62.326 17.537 62.2864 17.8018 62.2864 18.0969C62.2864 18.3919 62.2469 18.6567 62.1986 18.6853C62.1503 18.7139 62.1107 18.8463 62.1107 18.9795C62.1107 19.1127 62.0734 19.2439 62.028 19.2708C61.9825 19.2977 61.9186 19.4889 61.8863 19.6959C61.8538 19.9029 61.7923 20.0723 61.7495 20.0723C61.7067 20.0723 61.6715 20.1219 61.6715 20.1826C61.6715 20.2431 61.5925 20.3741 61.4958 20.4733C61.3992 20.5725 61.3202 20.7036 61.3202 20.7647C61.3202 20.8259 61.2411 20.9303 61.1445 20.997C61.0478 21.0636 60.9688 21.1672 60.9688 21.2271C60.9688 21.3801 59.6828 22.5941 59.5207 22.5941C59.4476 22.5941 59.3876 22.6294 59.3876 22.6725C59.3876 22.7156 59.3042 22.7763 59.2023 22.8072C57.976 23.1796 57.6318 25.1815 58.6473 26.0347C58.9473 26.2866 58.9754 26.2927 59.8527 26.2927H60.7512L61.3555 25.8935C61.6878 25.6738 62.0203 25.4563 62.0943 25.4101C62.322 25.2676 63.8676 23.7775 63.8676 23.7003C63.8676 23.6604 63.9862 23.5091 64.1311 23.3639C64.2761 23.2187 64.3947 23.047 64.3947 22.982C64.3947 22.6477 64.947 22.7677 65.3609 23.1918C66.2139 24.066 66.4177 24.2911 66.5137 24.4646C66.5712 24.5685 66.6911 24.7147 66.7803 24.7895C66.8692 24.8643 66.9421 24.9789 66.9421 25.0442C66.9421 25.1094 67.0212 25.2174 67.1178 25.284C67.2144 25.3506 67.2935 25.4725 67.2935 25.5547C67.2935 25.6371 67.3256 25.7043 67.3649 25.7043C67.4042 25.7043 67.4907 25.8367 67.557 25.9985C67.6233 26.1603 67.7099 26.2927 67.7492 26.2927C67.7885 26.2927 67.8205 26.4062 67.8205 26.5449C67.8205 26.6836 67.8601 26.7971 67.9084 26.7971C67.9567 26.7971 67.9962 26.9106 67.9962 27.0493C67.9962 27.188 68.0358 27.3015 68.0841 27.3015C68.1324 27.3015 68.1719 27.4149 68.1719 27.5536C68.1719 27.6923 68.2115 27.8058 68.2598 27.8058C68.3081 27.8058 68.3476 27.9737 68.3476 28.179C68.3476 28.3844 68.3871 28.5758 68.4354 28.6044C68.4888 28.6359 68.5233 29.2498 68.5233 30.1645C68.5233 31.1138 68.4908 31.6726 68.4354 31.6726C68.3871 31.6726 68.3476 31.8428 68.3476 32.0509C68.3476 32.2589 68.3081 32.4291 68.2598 32.4291C68.2115 32.4291 68.1719 32.5403 68.1719 32.6763C68.1719 32.8122 68.1324 32.9469 68.0841 32.9755C68.0358 33.0041 67.9962 33.1199 67.9962 33.2327C67.9962 33.3456 67.9567 33.4378 67.9084 33.4378C67.8601 33.4378 67.8205 33.5324 67.8205 33.648C67.8205 33.7636 67.781 33.8581 67.7327 33.8581C67.6844 33.8581 67.6449 33.9338 67.6449 34.0263C67.6449 34.1187 67.6053 34.1944 67.557 34.1944C67.5087 34.1944 67.4692 34.27 67.4692 34.3625C67.4692 34.455 67.4362 34.5306 67.3963 34.5306C67.3561 34.5306 67.2671 34.6347 67.1986 34.7618C67.1299 34.8889 67.0047 35.0663 66.9202 35.1558C66.8356 35.2456 66.7664 35.3546 66.7664 35.3983C66.7664 35.4418 66.694 35.5387 66.6055 35.6135C66.517 35.6883 66.374 35.8535 66.2879 35.9807C66.1355 36.2057 65.888 36.2967 65.888 36.1278C65.888 36.0815 65.7916 36.0437 65.6737 36.0437C65.5557 36.0437 65.4347 36.0059 65.4049 35.9597C65.375 35.9134 65.254 35.8756 65.1361 35.8756C65.0181 35.8756 64.9217 35.8378 64.9217 35.7915C64.9217 35.7426 64.629 35.7075 64.219 35.7075C63.809 35.7075 63.5162 35.7426 63.5162 35.7915C63.5162 35.8378 63.4372 35.8756 63.3406 35.8756C63.2439 35.8756 63.1649 35.9134 63.1649 35.9597C63.1649 36.0059 63.0891 36.0437 62.9966 36.0437C62.8941 36.0437 62.7825 36.1423 62.7116 36.2959C62.6475 36.4346 62.5651 36.5481 62.5284 36.5481C62.492 36.5481 62.4621 36.6237 62.4621 36.7162C62.4621 36.8087 62.4226 36.8843 62.3743 36.8843C62.3235 36.8843 62.2864 37.1506 62.2864 37.5148C62.2864 37.879 62.3235 38.1452 62.3743 38.1452C62.4226 38.1452 62.4621 38.2036 62.4621 38.2749C62.4621 38.4123 62.5779 38.5716 62.8453 38.8026C62.9352 38.8803 63.0608 38.9911 63.1245 39.0489C63.1881 39.1067 63.2999 39.1539 63.3731 39.1539C63.4462 39.1539 63.5303 39.1918 63.5602 39.238C63.59 39.2842 63.7284 39.3221 63.8676 39.3221C64.0068 39.3221 64.1404 39.3523 64.1643 39.3895C64.1882 39.4265 64.4081 39.5091 64.6527 39.5728C64.8973 39.6364 65.0974 39.7197 65.0974 39.7575C65.0974 39.7955 65.1545 39.8264 65.2246 39.8264C65.2944 39.8264 65.5375 39.921 65.7646 40.0366C65.9919 40.1521 66.231 40.2467 66.2965 40.2467C66.3617 40.2467 66.4151 40.2845 66.4151 40.3308C66.4151 40.377 66.4853 40.4148 66.5714 40.4148C66.6573 40.4148 66.7847 40.4905 66.8543 40.583C66.9239 40.6754 67.0425 40.7511 67.1178 40.7511C67.1931 40.7511 67.3117 40.8267 67.3813 40.9192C67.451 41.0117 67.5599 41.0873 67.6233 41.0873C67.7501 41.0873 69.288 42.5413 69.7092 43.0592C69.8541 43.2374 70.0616 43.4868 70.1703 43.6133C70.2791 43.74 70.368 43.8855 70.368 43.9365C70.368 43.9876 70.4075 44.0294 70.4558 44.0294C70.5042 44.0294 70.5437 44.1051 70.5437 44.1975C70.5437 44.29 70.5786 44.3657 70.6212 44.3657C70.664 44.3657 70.7209 44.4319 70.7477 44.5128C70.7745 44.5937 70.8641 44.7734 70.9469 44.9121C71.1869 45.3143 71.2464 45.4477 71.2464 45.5835C71.2464 45.6535 71.286 45.7106 71.3343 45.7106C71.3826 45.7106 71.4221 45.8029 71.4221 45.9157C71.4221 46.0286 71.4616 46.1444 71.51 46.173C71.5583 46.2015 71.5978 46.3173 71.5978 46.4302C71.5978 46.543 71.6373 46.6353 71.6857 46.6353C71.734 46.6353 71.7735 46.7465 71.7735 46.8824C71.7735 47.0184 71.813 47.1531 71.8613 47.1817C71.9096 47.2103 71.9492 47.4017 71.9492 47.607C71.9492 47.8123 71.9887 47.9802 72.037 47.9802C72.093 47.9802 72.1249 48.651 72.1249 49.8245C72.1249 50.9635 72.0913 51.6888 72.037 51.7209C71.9887 51.7495 71.9492 51.922 71.9492 52.1042C71.9492 52.2864 71.9096 52.4354 71.8613 52.4354C71.813 52.4354 71.7735 52.5867 71.7735 52.7717C71.7735 52.9566 71.734 53.1079 71.6857 53.1079C71.6373 53.1079 71.5978 53.2214 71.5978 53.3601C71.5978 53.4988 71.5583 53.6123 71.51 53.6123C71.4616 53.6123 71.4221 53.7045 71.4221 53.8174C71.4221 53.9302 71.3826 54.046 71.3343 54.0746C71.286 54.1032 71.2464 54.2001 71.2464 54.2898C71.2464 54.3795 71.2144 54.4529 71.1751 54.4529C71.1357 54.4529 71.0492 54.5853 70.9829 54.7471C70.9166 54.9089 70.8301 55.0413 70.7907 55.0413C70.7514 55.0413 70.7194 55.1169 70.7194 55.2094C70.7194 55.3019 70.6798 55.3775 70.6315 55.3775C70.5832 55.3775 70.5437 55.4448 70.5437 55.5272C70.5437 55.6093 70.4646 55.7312 70.368 55.7978C70.2714 55.8645 70.1923 55.9725 70.1923 56.0376C70.1923 56.103 70.1194 56.2175 70.0305 56.2923C69.9413 56.3671 69.8181 56.5193 69.7564 56.6305C69.5478 57.007 68.0169 58.4878 67.8361 58.4878C67.7935 58.4878 67.6348 58.6012 67.483 58.7399C67.3313 58.8786 67.1657 58.9921 67.115 58.9921C67.0642 58.9921 66.9377 59.0678 66.8341 59.1602C66.7304 59.2527 66.5936 59.3284 66.5304 59.3284C66.4669 59.3284 66.4151 59.3662 66.4151 59.4124C66.4151 59.4586 66.336 59.4965 66.2394 59.4965C66.1427 59.4965 66.0637 59.5272 66.0637 59.5648C66.0637 59.6024 65.9253 59.6852 65.7562 59.7487C65.5871 59.8121 65.4488 59.8949 65.4488 59.9325C65.4488 59.9702 65.3302 60.0008 65.1853 60.0008C65.0403 60.0008 64.9217 60.0387 64.9217 60.0849C64.9217 60.1311 64.8427 60.169 64.746 60.169C64.6494 60.169 64.5704 60.2068 64.5704 60.253C64.5704 60.2993 64.4518 60.3371 64.3068 60.3371C64.1619 60.3371 64.0433 60.3749 64.0433 60.4211C64.0433 60.4674 63.8852 60.5052 63.6919 60.5052C63.4987 60.5052 63.3406 60.543 63.3406 60.5893C63.3406 60.6355 63.1651 60.6733 62.9505 60.6733C62.736 60.6733 62.5359 60.7112 62.506 60.7574C62.4323 60.8717 58.8605 60.8717 58.8605 60.7574C58.8605 60.7112 58.6851 60.6733 58.4705 60.6733C58.256 60.6733 58.0559 60.6355 58.026 60.5893C57.9962 60.543 57.638 60.5052 57.2302 60.5052C56.7945 60.5052 56.4888 60.5399 56.4888 60.5893C56.4888 60.6355 56.4255 60.6733 56.3482 60.6733C56.0917 60.6733 55.4347 61.4267 55.4347 61.7207C55.4347 61.8659 55.3914 62.0261 55.3387 62.0765C55.2693 62.1429 55.2693 62.2158 55.3387 62.34C55.3914 62.4344 55.4347 62.6464 55.4347 62.8114C55.4347 62.9761 55.4742 63.1111 55.5225 63.1111C55.5708 63.1111 55.6104 63.1583 55.6104 63.2161C55.6106 63.379 56.0092 63.7835 56.1697 63.7835C56.2485 63.7835 56.3131 63.8214 56.3131 63.8676C56.3131 63.9138 56.3897 63.9517 56.4835 63.9517C56.5773 63.9517 56.6759 63.9855 56.7027 64.0269C56.7512 64.1021 57.1138 64.1696 57.9382 64.2568C58.1798 64.2824 58.415 64.3377 58.4609 64.3797C58.57 64.4796 62.8409 64.4794 62.9496 64.3793C62.9955 64.3373 63.2604 64.29 63.5384 64.2742L64.0435 64.2459V64.5981C64.0433 64.7918 64.0038 64.9738 63.9555 65.0024C63.9071 65.031 63.8676 65.2414 63.8676 65.4698C63.8676 65.6982 63.8281 65.885 63.7798 65.885C63.7315 65.885 63.6919 66.0151 63.6919 66.1742C63.6919 66.3333 63.6524 66.4869 63.6041 66.5155C63.5558 66.5441 63.5162 66.6576 63.5162 66.7677C63.5162 66.8778 63.4767 66.9913 63.4284 67.0199C63.3801 67.0484 63.3406 67.1453 63.3406 67.2351C63.3406 67.3248 63.301 67.3981 63.2527 67.3981C63.2044 67.3981 63.1649 67.4738 63.1649 67.5663C63.1649 67.6587 63.1253 67.7344 63.077 67.7344C63.0287 67.7344 62.9892 67.81 62.9892 67.9025C62.9892 67.995 62.9496 68.0706 62.9013 68.0706C62.853 68.0706 62.8135 68.1463 62.8135 68.2387C62.8135 68.3312 62.774 68.4069 62.7256 68.4069C62.6773 68.4069 62.6378 68.4577 62.6378 68.5199C62.6378 68.5821 62.5588 68.7015 62.4621 68.7851C62.3655 68.8688 62.2864 68.9791 62.2864 69.0302C62.2864 69.0812 62.1876 69.225 62.0668 69.3498C61.946 69.4744 61.8472 69.6165 61.8472 69.6656C61.8472 69.7722 60.7419 70.8446 60.6321 70.8446C60.59 70.8446 60.4316 70.9581 60.2799 71.0968C60.1281 71.2355 59.9643 71.349 59.9155 71.349C59.8668 71.349 59.8268 71.3868 59.8268 71.433C59.8268 71.4792 59.7675 71.5171 59.6951 71.5171C59.6226 71.5171 59.5633 71.5549 59.5633 71.6011C59.5633 71.6474 59.4842 71.6852 59.3876 71.6852C59.291 71.6852 59.2119 71.7136 59.2119 71.7485C59.2119 71.8035 58.5722 72.1076 57.8943 72.3747C57.7735 72.4224 57.6059 72.4947 57.522 72.5357C57.4381 72.5764 57.2726 72.6099 57.154 72.6099C57.0354 72.6099 56.9139 72.6477 56.8841 72.6939C56.8542 72.7402 56.6739 72.778 56.4835 72.778C56.2931 72.778 56.1374 72.8158 56.1374 72.862C56.1374 72.9106 55.8592 72.9461 55.4786 72.9461C55.098 72.9461 54.8198 72.9816 54.8198 73.0302C54.8198 73.1399 54.056 73.1399 53.9853 73.0302C53.9554 72.9839 53.6589 72.9461 53.3264 72.9461C52.9939 72.9461 52.6975 72.9083 52.6676 72.862C52.6377 72.8158 52.4377 72.778 52.2231 72.778C52.0086 72.778 51.8331 72.7402 51.8331 72.6939C51.8331 72.6477 51.6552 72.6099 51.4378 72.6099C51.2204 72.6099 51.0425 72.6477 51.0425 72.6939C51.0425 72.7402 50.9239 72.778 50.779 72.778C50.634 72.778 50.5154 72.8158 50.5154 72.862C50.5154 72.9083 50.4544 72.9461 50.3797 72.9461C50.204 72.9461 49.8127 73.3206 49.8127 73.4887C49.8127 73.5602 49.7732 73.6186 49.7249 73.6186C49.6765 73.6186 49.637 73.7297 49.637 73.8657C49.637 74.0017 49.5975 74.1364 49.5492 74.165C49.5009 74.1936 49.4613 74.3472 49.4613 74.5062C49.4613 74.6653 49.5009 74.7954 49.5492 74.7954C49.5975 74.7954 49.637 74.91 49.637 75.0499C49.637 75.3279 50.3029 76.0563 50.557 76.0563C50.6307 76.0563 50.6911 76.0941 50.6911 76.1404C50.6911 76.1866 50.8097 76.2244 50.9547 76.2244C51.0996 76.2244 51.2182 76.2623 51.2182 76.3085C51.2182 76.3547 51.3937 76.3926 51.6082 76.3926C51.8228 76.3926 52.0228 76.4304 52.0527 76.4766C52.0826 76.5229 52.4012 76.5607 52.7607 76.5607C53.3556 76.5607 53.4143 76.5758 53.4143 76.7288C53.4143 76.8213 53.3813 76.8969 53.3414 76.8969C53.3012 76.8969 53.2122 77.0003 53.1437 77.1266C53.075 77.2529 52.9103 77.4666 52.7774 77.6013C52.6446 77.7363 52.5358 77.8798 52.5358 77.9203C52.5358 78.1009 51.7215 78.7755 50.8793 79.2926C50.804 79.3389 50.6911 79.4215 50.6285 79.4763C50.5657 79.5309 50.4355 79.5999 50.3393 79.6291C50.2429 79.6583 50.1641 79.7176 50.1641 79.7606C50.1641 79.8037 50.0874 79.839 49.9937 79.839C49.8999 79.839 49.7986 79.8769 49.7688 79.9231C49.7389 79.9693 49.6179 80.0071 49.5 80.0071C49.3821 80.0071 49.2856 80.045 49.2856 80.0912C49.2856 80.1374 49.1892 80.1753 49.0713 80.1753C48.9534 80.1753 48.8324 80.2131 48.8025 80.2593C48.7726 80.3056 48.6343 80.3434 48.4951 80.3434C48.3558 80.3434 48.2175 80.3812 48.1876 80.4274C48.1577 80.4737 47.8984 80.5115 47.6114 80.5115C47.3221 80.5115 47.0896 80.5489 47.0896 80.5956C47.0896 80.6437 46.826 80.6796 46.4747 80.6796C46.1233 80.6796 45.8598 80.6437 45.8598 80.5956C45.8598 80.5489 45.6254 80.5115 45.3327 80.5115C45.04 80.5115 44.8056 80.4741 44.8056 80.4274C44.8056 80.3812 44.6475 80.3434 44.4543 80.3434C44.261 80.3434 44.1029 80.3056 44.1029 80.2593C44.1029 80.2131 43.9843 80.1753 43.8394 80.1753C43.6944 80.1753 43.5758 80.1374 43.5758 80.0912C43.5758 80.045 43.477 80.0071 43.3562 80.0071C43.2355 80.0071 43.1366 79.9693 43.1366 79.9231C43.1366 79.8769 43.0576 79.839 42.9609 79.839C42.8643 79.839 42.7853 79.8012 42.7853 79.755C42.7853 79.7087 42.7062 79.6709 42.6096 79.6709C42.5129 79.6709 42.4339 79.6331 42.4339 79.5868C42.4339 79.5406 42.3821 79.5028 42.3186 79.5028C42.2553 79.5028 42.1269 79.4366 42.0331 79.3557C41.9395 79.2748 41.7476 79.1518 41.6068 79.0825C41.1883 78.8763 39.7944 77.5009 39.6084 77.1102C39.5526 76.993 39.4736 76.8969 39.4332 76.8969C39.3925 76.8969 39.3594 76.8213 39.3594 76.7288C39.3594 76.6363 39.3297 76.5605 39.2935 76.5601C39.2146 76.5592 39.008 76.1521 39.008 75.9975C39.008 75.9374 38.9685 75.8882 38.9202 75.8882C38.8718 75.8882 38.8323 75.8149 38.8323 75.7251C38.8323 75.6354 38.7928 75.5385 38.7445 75.5099C38.6962 75.4813 38.6566 75.3466 38.6566 75.2107C38.6566 75.0747 38.6171 74.9635 38.5688 74.9635C38.5205 74.9635 38.4809 74.8154 38.4809 74.6342C38.4809 74.4457 38.4342 74.2902 38.3711 74.27C38.2842 74.2423 38.2521 71.4654 38.2174 60.9104C38.179 49.2353 38.1572 47.5662 38.0417 47.4278C37.7338 47.0589 37.3352 46.7193 37.2101 46.7193C37.1361 46.7193 37.0755 46.6815 37.0755 46.6353C37.0755 46.5859 36.768 46.5512 36.3288 46.5512C35.8896 46.5512 35.5821 46.5859 35.5821 46.6353C35.5821 46.6815 35.5217 46.7193 35.4479 46.7193C35.1471 46.7193 34.528 47.4498 34.528 47.805C34.528 47.9884 34.4885 48.1618 34.4402 48.1904C34.3187 48.2623 34.3187 72.8322 34.4402 72.9041C34.4896 72.9333 34.528 73.3376 34.528 73.8287C34.528 74.3198 34.5664 74.7242 34.6158 74.7534C34.6642 74.782 34.7037 74.9734 34.7037 75.1787C34.7037 75.384 34.7432 75.552 34.7915 75.552C34.8398 75.552 34.8794 75.7033 34.8794 75.8882C34.8794 76.0731 34.9189 76.2244 34.9672 76.2244C35.0155 76.2244 35.0551 76.3379 35.0551 76.4766C35.0551 76.6153 35.0946 76.7288 35.1429 76.7288C35.1912 76.7288 35.2307 76.8423 35.2307 76.981C35.2307 77.1197 35.2703 77.2332 35.3186 77.2332C35.3669 77.2332 35.4064 77.3088 35.4064 77.4013C35.4064 77.4937 35.446 77.5694 35.4943 77.5694C35.5426 77.5694 35.5821 77.6427 35.5821 77.7325C35.5821 77.8222 35.6216 77.9191 35.67 77.9477C35.7183 77.9762 35.7578 78.0731 35.7578 78.1629C35.7578 78.2526 35.7973 78.3259 35.8456 78.3259C35.894 78.3259 35.9335 78.3827 35.9335 78.452C35.9335 78.5214 35.9649 78.5781 36.0033 78.5781C36.0418 78.5781 36.1465 78.7483 36.2361 78.9564C36.3259 79.1644 36.4261 79.3347 36.459 79.3347C36.4917 79.3347 36.5747 79.4374 36.6433 79.5629C36.9525 80.1288 38.9588 82.0246 39.2487 82.0246C39.3095 82.0246 39.3594 82.0618 39.3594 82.107C39.3594 82.1524 39.4681 82.2152 39.6009 82.2465C39.7338 82.278 39.9064 82.3732 39.9846 82.4583C40.0628 82.5434 40.1715 82.613 40.2262 82.613C40.2808 82.613 40.3256 82.6508 40.3256 82.6971C40.3256 82.7433 40.4047 82.7811 40.5013 82.7811C40.598 82.7811 40.677 82.819 40.677 82.8652C40.677 82.9114 40.7561 82.9492 40.8527 82.9492C40.9493 82.9492 41.0284 82.9871 41.0284 83.0333C41.0284 83.0795 41.1074 83.1174 41.2041 83.1174C41.3007 83.1174 41.3798 83.1552 41.3798 83.2014C41.3798 83.2477 41.4984 83.2855 41.6433 83.2855C41.7882 83.2855 41.9068 83.3233 41.9068 83.3695C41.9068 83.4158 41.9859 83.4536 42.0825 83.4536C42.1791 83.4536 42.2582 83.4914 42.2582 83.5377C42.2582 83.5839 42.3744 83.6217 42.5165 83.6217C42.6585 83.6217 42.7993 83.6596 42.8292 83.7058C42.859 83.752 43.0163 83.7898 43.1784 83.7898C43.3406 83.7898 43.4898 83.8371 43.51 83.8949C43.5383 83.9762 44.2103 84 46.4747 84C48.739 84 49.411 83.9762 49.4394 83.8949C49.4596 83.8371 49.6087 83.7898 49.771 83.7898C49.9331 83.7898 50.0903 83.752 50.1202 83.7058C50.15 83.6596 50.271 83.6217 50.389 83.6217C50.5069 83.6217 50.6033 83.5839 50.6033 83.5377C50.6033 83.4914 50.6799 83.4536 50.7737 83.4536C50.8675 83.4536 50.9687 83.4158 50.9986 83.3695C51.0285 83.3233 51.1495 83.2855 51.2674 83.2855C51.3853 83.2855 51.4817 83.2477 51.4817 83.2014C51.4817 83.1552 51.5608 83.1174 51.6574 83.1174C51.754 83.1174 51.8331 83.0795 51.8331 83.0333C51.8331 82.9871 51.9122 82.9492 52.0088 82.9492C52.1054 82.9492 52.1845 82.9114 52.1845 82.8652C52.1845 82.819 52.2635 82.7811 52.3602 82.7811C52.4568 82.7811 52.5358 82.7433 52.5358 82.6971C52.5358 82.6508 52.5951 82.613 52.6676 82.613C52.7401 82.613 52.7994 82.5752 52.7994 82.5289C52.7994 82.4827 52.8587 82.4449 52.9311 82.4449C53.0036 82.4449 53.0629 82.4071 53.0629 82.3608C53.0629 82.3146 53.1156 82.2768 53.1802 82.2768C53.4523 82.2768 55.6104 80.4026 55.6104 80.1664C55.6104 80.116 55.7289 79.9687 55.8739 79.839C56.0188 79.7094 56.1374 79.5513 56.1374 79.4877C56.1374 79.424 56.2165 79.3172 56.3131 79.2506C56.4097 79.184 56.4888 79.0795 56.4888 79.0184C56.4888 78.9572 56.5678 78.8261 56.6645 78.7269C56.7611 78.6277 56.8402 78.4968 56.8402 78.4363C56.8402 78.3755 56.87 78.3259 56.9065 78.3259C56.9432 78.3259 57.0246 78.203 57.0881 78.0527C57.1513 77.9025 57.2401 77.7138 57.2851 77.6335C57.3303 77.5532 57.3672 77.4303 57.3672 77.3603C57.3672 77.2903 57.4067 77.2332 57.4551 77.2332C57.5034 77.2332 57.5429 77.1651 57.5429 77.0819C57.5429 76.9986 57.5791 76.8946 57.6233 76.8507C57.6676 76.8068 57.717 76.6763 57.7331 76.5607C57.7498 76.4411 57.8477 76.3148 57.9602 76.2675C58.0689 76.2219 58.1578 76.1557 58.1578 76.1204C58.1578 76.0851 58.2764 76.0563 58.4213 76.0563C58.5663 76.0563 58.6849 76.0185 58.6849 75.9723C58.6849 75.926 58.8035 75.8882 58.9484 75.8882C59.0933 75.8882 59.2119 75.8504 59.2119 75.8041C59.2119 75.7579 59.3305 75.7201 59.4755 75.7201C59.6204 75.7201 59.739 75.6823 59.739 75.636C59.739 75.5898 59.818 75.552 59.9147 75.552C60.0113 75.552 60.0904 75.5188 60.0904 75.4784C60.0904 75.4381 60.2127 75.3815 60.3624 75.3527C60.512 75.3242 60.7986 75.1966 60.9993 75.069C61.1998 74.9417 61.4669 74.7868 61.5923 74.725C61.7179 74.6632 61.9315 74.5214 62.0673 74.4098C62.2028 74.2982 62.3457 74.207 62.385 74.207C62.4241 74.207 62.586 74.0834 62.7448 73.9323C62.9033 73.7814 63.1715 73.5646 63.3406 73.4505C63.7271 73.1899 64.0892 72.8425 64.4801 72.3577C64.6477 72.1496 64.8457 71.9227 64.9202 71.8533C65.1688 71.6215 65.5366 71.1094 65.5366 70.9949C65.5366 70.9326 65.6157 70.8271 65.7123 70.7605C65.8089 70.6939 65.888 70.572 65.888 70.4899C65.888 70.4075 65.9275 70.3402 65.9758 70.3402C66.0242 70.3402 66.0637 70.2646 66.0637 70.1721C66.0637 70.0796 66.096 70.004 66.1353 70.004C66.2376 70.004 66.5907 69.346 66.5907 69.1554C66.5907 69.0674 66.6303 68.9953 66.6786 68.9953C66.7269 68.9953 66.7664 68.9196 66.7664 68.8272C66.7664 68.7347 66.806 68.659 66.8543 68.659C66.9026 68.659 66.9421 68.5668 66.9421 68.4539C66.9421 68.3411 66.9817 68.2253 67.03 68.1967C67.0783 68.1681 67.1178 68.0523 67.1178 67.9395C67.1178 67.8266 67.1573 67.7344 67.2056 67.7344C67.254 67.7344 67.2935 67.6232 67.2935 67.4872C67.2935 67.3513 67.3288 67.2191 67.3721 67.1934C67.4154 67.168 67.4734 67.0049 67.5012 66.8314C67.5291 66.6576 67.5968 66.2696 67.6517 65.9691C67.7066 65.6686 67.7689 64.8269 67.7902 64.0988C67.8267 62.8543 67.8392 62.7748 68.0004 62.7748C68.0948 62.7748 68.1719 62.737 68.1719 62.6908C68.1719 62.6445 68.251 62.6067 68.3476 62.6067C68.4442 62.6067 68.5233 62.5689 68.5233 62.5226C68.5233 62.4764 68.5826 62.4386 68.6551 62.4386C68.7275 62.4386 68.7868 62.4008 68.7868 62.3545C68.7868 62.3083 68.8461 62.2705 68.9186 62.2705C68.9911 62.2705 69.0504 62.2326 69.0504 62.1864C69.0504 62.1402 69.1009 62.1023 69.1628 62.1023C69.2245 62.1023 69.3321 62.0267 69.4017 61.9342C69.4713 61.8418 69.5829 61.7661 69.6494 61.7661C69.716 61.7661 69.8756 61.6583 70.0046 61.5263C70.1332 61.3946 70.3629 61.2252 70.5151 61.1497C70.9293 60.9448 72.2825 59.6299 72.7398 58.9883C72.8122 58.8866 72.9209 58.754 72.9813 58.6937C73.0417 58.6332 73.0911 58.5327 73.0911 58.4703C73.0911 58.4079 73.1702 58.3022 73.2668 58.2356C73.3634 58.169 73.4425 58.0561 73.4425 57.9851C73.4425 57.9138 73.5216 57.8086 73.6182 57.7508C73.7148 57.693 73.7939 57.5894 73.7939 57.5204C73.7939 57.4513 73.8334 57.395 73.8817 57.395C73.93 57.395 73.9696 57.3193 73.9696 57.2269C73.9696 57.1344 74.003 57.0587 74.0436 57.0587C74.0844 57.0587 74.2072 56.8791 74.3168 56.6595C74.4264 56.4398 74.5511 56.1944 74.5941 56.1141C74.6372 56.0338 74.6723 55.9109 74.6723 55.8409C74.6723 55.7709 74.7118 55.7138 74.7602 55.7138C74.8085 55.7138 74.848 55.6381 74.848 55.5457C74.848 55.4532 74.8875 55.3775 74.9358 55.3775C74.9842 55.3775 75.0237 55.2641 75.0237 55.1254C75.0237 54.9867 75.0632 54.8732 75.1115 54.8732C75.1598 54.8732 75.1994 54.7597 75.1994 54.621C75.1994 54.4823 75.2389 54.3688 75.2872 54.3688C75.3355 54.3688 75.3751 54.2766 75.3751 54.1637C75.3751 54.0509 75.4146 53.9351 75.4629 53.9065C75.5112 53.8779 75.5507 53.7318 75.5507 53.582C75.5507 53.4322 75.5865 53.2737 75.63 53.2298C75.6737 53.1859 75.7341 52.9608 75.7642 52.7296C75.7943 52.4985 75.8613 52.0067 75.9127 51.6369C76.0734 50.4833 75.997 47.3918 75.8077 47.3918C75.7629 47.3918 75.7264 47.2027 75.7264 46.9715C75.7264 46.7404 75.6869 46.5512 75.6386 46.5512C75.5903 46.5512 75.5507 46.3999 75.5507 46.215C75.5507 46.0301 75.5112 45.8787 75.4629 45.8787C75.4146 45.8787 75.3751 45.7648 75.3751 45.6255C75.3751 45.4862 75.3355 45.2971 75.2872 45.2052C75.2389 45.1134 75.1598 44.9629 75.1115 44.8711C75.0632 44.7792 75.0237 44.6279 75.0237 44.5348C75.0237 44.4417 74.9842 44.3657 74.9358 44.3657C74.8875 44.3657 74.848 44.2711 74.848 44.1555C74.848 44.0399 74.8085 43.9454 74.7602 43.9454C74.7118 43.9454 74.6723 43.8697 74.6723 43.7772C74.6723 43.6848 74.6328 43.6091 74.5845 43.6091C74.5362 43.6091 74.4966 43.5335 74.4966 43.441C74.4966 43.3485 74.4571 43.2729 74.4088 43.2729C74.3605 43.2729 74.3209 43.1972 74.3209 43.1048C74.3209 43.0123 74.2814 42.9366 74.2331 42.9366C74.1848 42.9366 74.1453 42.8782 74.1453 42.807C74.1453 42.7357 74.0662 42.5962 73.9696 42.497C73.8729 42.3978 73.7939 42.2669 73.7939 42.2064C73.7939 42.1456 73.7543 42.096 73.706 42.096C73.6577 42.096 73.6182 42.0288 73.6182 41.9464C73.6182 41.8642 73.5391 41.7424 73.4425 41.6757C73.3459 41.6091 73.2668 41.5133 73.2668 41.4629C73.2668 41.4124 73.1976 41.2979 73.1131 41.2082C73.0285 41.1184 72.8414 40.8938 72.6974 40.709C72.3807 40.3026 70.3939 38.3974 70.2867 38.3974C69.7863 38.3974 69.6273 37.7457 70.0386 37.3796C70.1231 37.3044 70.1923 37.1949 70.1923 37.1365C70.1923 37.0781 70.2646 36.969 70.3526 36.8942C70.4409 36.8194 70.5692 36.6353 70.6377 36.485C70.7062 36.3348 70.7921 36.2118 70.8287 36.2118C70.8652 36.2118 70.8951 36.1362 70.8951 36.0437C70.8951 35.9512 70.9346 35.8756 70.9829 35.8756C71.0312 35.8756 71.0707 35.7999 71.0707 35.7075C71.0707 35.615 71.1103 35.5393 71.1586 35.5393C71.2069 35.5393 71.2464 35.4637 71.2464 35.3712C71.2464 35.2788 71.286 35.2031 71.3343 35.2031C71.3826 35.2031 71.4221 35.0896 71.4221 34.9509C71.4221 34.8122 71.4616 34.6987 71.51 34.6987C71.5583 34.6987 71.5978 34.6065 71.5978 34.4936C71.5978 34.3808 71.6373 34.265 71.6857 34.2364C71.734 34.2078 71.7735 34.0731 71.7735 33.9372C71.7735 33.8012 71.813 33.69 71.8613 33.69C71.9096 33.69 71.9492 33.5652 71.9492 33.4126C71.9492 33.2601 71.985 33.0993 72.0285 33.0554C72.23 32.8526 72.4027 28.3743 72.216 28.1957C72.1659 28.1477 72.1249 27.9292 72.1249 27.71C72.1249 27.4908 72.0853 27.288 72.037 27.2594C71.9887 27.2309 71.9492 27.0795 71.9492 26.9232C71.9492 26.7668 71.9096 26.6155 71.8613 26.587C71.813 26.5584 71.7735 26.4237 71.7735 26.2877C71.7735 26.1517 71.734 26.0406 71.6857 26.0406C71.6373 26.0406 71.5978 25.9271 71.5978 25.7884C71.5978 25.6497 71.5655 25.5362 71.5258 25.5362C71.4862 25.5362 71.4002 25.3471 71.3343 25.1159C71.2684 24.8847 71.1823 24.6956 71.1428 24.6956C71.103 24.6956 71.0707 24.6199 71.0707 24.5275C71.0707 24.435 71.0312 24.3594 70.9829 24.3594C70.9346 24.3594 70.8951 24.2837 70.8951 24.1912C70.8951 24.0988 70.8555 24.0231 70.8072 24.0231C70.7589 24.0231 70.7194 23.9475 70.7194 23.855C70.7194 23.7625 70.6798 23.6869 70.6315 23.6869C70.5832 23.6869 70.5437 23.6373 70.5437 23.5765C70.5437 23.516 70.4646 23.3851 70.368 23.2859C70.2714 23.1867 70.1923 23.0745 70.1923 23.0365C70.1923 22.9984 70.1133 22.9129 70.0166 22.8463C69.92 22.7797 69.8409 22.6763 69.8409 22.6168C69.8409 22.5573 69.7224 22.3898 69.5774 22.2446C69.4325 22.0994 69.3139 21.9487 69.3139 21.9098C69.3139 21.752 67.9538 20.3976 67.4692 20.0727C67.3001 19.9594 67.0851 19.7995 66.9915 19.7173C66.8978 19.6352 66.7693 19.5679 66.706 19.5679C66.6426 19.5679 66.5907 19.5339 66.5907 19.4921C66.5907 19.4505 66.4722 19.3767 66.3272 19.3284C66.0529 19.2369 65.9053 17.9903 66.1515 17.8447C66.1998 17.8161 66.2394 17.5112 66.2394 17.1672C66.2394 16.8063 66.2023 16.5418 66.1515 16.5418C66.1004 16.5418 66.0637 16.2616 66.0637 15.8693C66.0637 15.4769 66.027 15.1968 65.9758 15.1968C65.9275 15.1968 65.888 15.0455 65.888 14.8606C65.888 14.6756 65.8485 14.5243 65.8002 14.5243C65.7518 14.5243 65.7123 14.4108 65.7123 14.2721C65.7123 14.1334 65.6728 14.02 65.6245 14.02C65.5762 14.02 65.5366 13.9187 65.5366 13.7951C65.5366 13.5711 64.9461 12.3219 64.815 12.2688C64.777 12.2532 64.746 12.1681 64.746 12.0796C64.746 11.991 64.7131 11.9185 64.6731 11.9185C64.6329 11.9185 64.5442 11.8144 64.4759 11.6873C64.4078 11.5602 64.2824 11.395 64.1977 11.3202C64.1127 11.2453 64.0433 11.1403 64.0433 11.0863C64.0433 10.8299 61.5323 8.64012 61.2385 8.64012C61.1869 8.64012 61.1445 8.60229 61.1445 8.55606C61.1445 8.50982 61.0852 8.472 61.0127 8.472C60.9402 8.472 60.8809 8.43417 60.8809 8.38794C60.8809 8.3417 60.8216 8.30388 60.7492 8.30388C60.6767 8.30388 60.6174 8.26605 60.6174 8.21982C60.6174 8.17358 60.5384 8.13576 60.4417 8.13576C60.3451 8.13576 60.266 8.09793 60.266 8.0517C60.266 8.00546 60.187 7.96764 60.0904 7.96764C59.9937 7.96764 59.9147 7.92981 59.9147 7.88358C59.9147 7.83734 59.8183 7.79952 59.7003 7.79952C59.5824 7.79952 59.4614 7.76169 59.4315 7.71546C59.4017 7.66922 59.3004 7.6314 59.2067 7.6314C59.1129 7.6314 59.0362 7.59357 59.0362 7.54734C59.0362 7.5011 58.9176 7.46328 58.7727 7.46328C58.6278 7.46328 58.5092 7.42545 58.5092 7.37922C58.5092 7.33298 58.3732 7.29516 58.207 7.29516C58.0408 7.29516 57.8802 7.25733 57.8504 7.2111C57.8205 7.16486 57.6228 7.12704 57.4111 7.12704C57.1994 7.12704 57.0018 7.08921 56.9719 7.04297C56.9392 6.99254 56.3432 6.95892 55.4786 6.95892C54.614 6.95892 54.018 6.99254 53.9853 7.04297C53.8625 7.23316 53.4143 7.13817 53.4143 6.92193C53.4143 6.80908 53.3747 6.69329 53.3264 6.6647C53.2781 6.63612 53.2386 6.50142 53.2386 6.36545C53.2386 6.22948 53.1991 6.11831 53.1507 6.11831C53.1024 6.11831 53.0629 6.02606 53.0629 5.91321C53.0629 5.80036 53.0234 5.68456 52.9751 5.65598C52.9267 5.6274 52.8872 5.51161 52.8872 5.39876C52.8872 5.28591 52.8477 5.19365 52.7994 5.19365C52.7511 5.19365 52.7115 5.118 52.7115 5.02553C52.7115 4.93307 52.672 4.85741 52.6237 4.85741C52.5754 4.85741 52.5358 4.78176 52.5358 4.68929C52.5358 4.59683 52.4963 4.52117 52.448 4.52117C52.3997 4.52117 52.3602 4.44552 52.3602 4.35305C52.3602 4.26059 52.3272 4.18493 52.2872 4.18493C52.2471 4.18493 52.1583 4.08091 52.09 3.95377C52.022 3.82663 51.8966 3.66145 51.8118 3.58663C51.7268 3.51182 51.6574 3.40717 51.6574 3.354C51.6574 3.2071 49.9636 1.57991 49.8101 1.57949C49.7363 1.57928 49.6188 1.50341 49.5492 1.41095C49.4796 1.31848 49.361 1.24283 49.2856 1.24283C49.2103 1.24283 49.0917 1.16717 49.0221 1.07471C48.9525 0.982242 48.8251 0.906588 48.7393 0.906588C48.6532 0.906588 48.5829 0.868761 48.5829 0.822528C48.5829 0.776295 48.5038 0.738468 48.4072 0.738468C48.3106 0.738468 48.2315 0.700641 48.2315 0.654408C48.2315 0.608175 48.1129 0.570348 47.968 0.570348C47.8231 0.570348 47.7045 0.532521 47.7045 0.486287C47.7045 0.440054 47.6254 0.402227 47.5288 0.402227C47.4322 0.402227 47.3531 0.3644 47.3531 0.318167C47.3531 0.271934 47.218 0.234107 47.0529 0.234107C46.888 0.234107 46.7364 0.187034 46.7165 0.129452C46.6798 0.0245874 42.6491 -0.0487551 41.7531 0.0390877ZM8.43859 7.37922C8.43859 7.42545 8.32 7.46328 8.17506 7.46328C8.03012 7.46328 7.91153 7.5011 7.91153 7.54734C7.91153 7.59357 7.85048 7.6314 7.77582 7.6314C7.60364 7.6314 7.20879 8.00441 7.20879 8.16686C7.20879 8.23453 7.15938 8.30556 7.09898 8.32489C6.95141 8.37197 6.8886 20.7357 7.03332 21.2496C7.38711 22.5075 9.27683 22.8732 10.284 21.879L10.5907 21.5759V14.9129C10.5907 8.67921 10.5809 8.24041 10.437 8.10276C10.3525 8.02186 10.2833 7.92056 10.2833 7.87748C10.2833 7.83461 10.2328 7.79952 10.1709 7.79952C10.1091 7.79952 10.0015 7.72386 9.93192 7.6314C9.8588 7.5341 9.70463 7.46328 9.56628 7.46328C9.43495 7.46328 9.30297 7.42545 9.2731 7.37922C9.24323 7.33298 9.04317 7.29516 8.82861 7.29516C8.61406 7.29516 8.43859 7.33298 8.43859 7.37922ZM18.848 7.37922C18.8181 7.42545 18.5192 7.46328 18.1839 7.46328C17.836 7.46328 17.5743 7.49942 17.5743 7.54734C17.5743 7.59357 17.4557 7.6314 17.3107 7.6314C17.1658 7.6314 17.0472 7.66922 17.0472 7.71546C17.0472 7.76169 16.9682 7.79952 16.8715 7.79952C16.7749 7.79952 16.6958 7.83734 16.6958 7.88358C16.6958 7.92981 16.6168 7.96764 16.5202 7.96764C16.4235 7.96764 16.3445 8.00546 16.3445 8.0517C16.3445 8.09793 16.2869 8.13576 16.2164 8.13576C15.9845 8.13576 14.637 9.49417 14.4655 9.90102C14.3779 10.1091 14.2705 10.3451 14.2272 10.4253C14.184 10.5056 14.1484 10.6853 14.1484 10.8246C14.1484 10.964 14.1089 11.0779 14.0606 11.0779C14.0122 11.0779 13.9727 11.2836 13.9727 11.5351C13.9727 11.7867 13.9332 12.016 13.8849 12.0446C13.8291 12.0775 13.797 13.1382 13.797 14.9497C13.797 16.7956 13.828 17.8027 13.8849 17.8027C13.9336 17.8027 13.9727 18.0269 13.9727 18.307C13.9727 18.5872 14.0118 18.8114 14.0606 18.8114C14.1089 18.8114 14.1484 18.8854 14.1484 18.9755C14.1484 19.0659 14.1835 19.2266 14.2266 19.3328C14.4787 19.9546 14.6223 20.2404 14.6829 20.2404C14.7207 20.2404 14.7767 20.3163 14.8072 20.409C14.8806 20.6296 15.6843 21.4173 15.8363 21.4173C15.9011 21.4173 16.0113 21.4929 16.0809 21.5854C16.1506 21.6778 16.2779 21.7535 16.3638 21.7535C16.4499 21.7535 16.5202 21.7913 16.5202 21.8376C16.5202 21.8838 16.5992 21.9216 16.6958 21.9216C16.7925 21.9216 16.8715 21.9502 16.8715 21.9853C16.8715 22.0614 17.5 22.2579 17.7434 22.2579C17.838 22.2579 17.9397 22.2957 17.9696 22.3419C18.001 22.3905 18.4736 22.426 19.0885 22.426C20.0651 22.426 20.5258 22.3604 20.9332 22.1635C21.0171 22.1229 21.1653 22.0897 21.2626 22.0897C21.3599 22.0897 21.4394 22.0519 21.4394 22.0057C21.4394 21.9594 21.5184 21.9216 21.6151 21.9216C21.7117 21.9216 21.7907 21.8838 21.7907 21.8376C21.7907 21.7913 21.8518 21.7535 21.9265 21.7535C22.0011 21.7535 22.161 21.6589 22.2818 21.5433C22.4026 21.4278 22.535 21.3332 22.5761 21.3332C22.6813 21.3332 23.1962 20.862 23.1962 20.7656C23.1962 20.7217 23.3148 20.567 23.4598 20.4218C23.6047 20.2766 23.7233 20.1009 23.7233 20.0311C23.7233 19.9613 23.7628 19.9042 23.8111 19.9042C23.8595 19.9042 23.899 19.8285 23.899 19.7361C23.899 19.6436 23.9299 19.5679 23.9677 19.5679C24.0055 19.5679 24.0872 19.3883 24.1491 19.1686C24.2113 18.949 24.2989 18.7036 24.3441 18.6233C24.4588 18.4193 24.4531 11.246 24.3382 11.246C24.2899 11.246 24.2504 11.1159 24.2504 10.9568C24.2504 10.7977 24.2108 10.6441 24.1625 10.6155C24.1142 10.5869 24.0747 10.4901 24.0747 10.4003C24.0747 10.3106 24.0351 10.2373 23.9868 10.2373C23.9385 10.2373 23.899 10.1616 23.899 10.0691C23.899 9.97667 23.8595 9.90102 23.8111 9.90102C23.7628 9.90102 23.7233 9.82537 23.7233 9.7329C23.7233 9.64043 23.6838 9.56478 23.6355 9.56478C23.5871 9.56478 23.5476 9.52107 23.5476 9.46769C23.5476 9.33487 22.4388 8.30388 22.2958 8.30388C22.2326 8.30388 22.1239 8.22822 22.0543 8.13576C21.9847 8.04329 21.8573 7.96764 21.7714 7.96764C21.6853 7.96764 21.6151 7.92981 21.6151 7.88358C21.6151 7.83734 21.5162 7.79952 21.3955 7.79952C21.2747 7.79952 21.1758 7.76169 21.1758 7.71546C21.1758 7.66922 21.0573 7.6314 20.9123 7.6314C20.7674 7.6314 20.6488 7.59357 20.6488 7.54734C20.6488 7.49921 20.3853 7.46328 20.0339 7.46328C19.6825 7.46328 19.419 7.42734 19.419 7.37922C19.419 7.33298 19.3028 7.29516 19.1607 7.29516C19.0186 7.29516 18.8779 7.33298 18.848 7.37922ZM29.0817 7.37922C29.0817 7.42545 28.9631 7.46328 28.8182 7.46328C28.6733 7.46328 28.5547 7.5011 28.5547 7.54734C28.5547 7.59357 28.4936 7.6314 28.419 7.6314C28.2433 7.6314 27.8519 8.00588 27.8519 8.174C27.8519 8.24545 27.8124 8.30388 27.7641 8.30388C27.7158 8.30388 27.6762 8.45518 27.6762 8.64012C27.6762 8.82505 27.6367 8.97636 27.5884 8.97636C27.4672 8.97636 27.4672 20.7992 27.5884 20.8709C27.6367 20.8994 27.6762 21.047 27.6762 21.1987C27.6762 21.4832 28.1813 22.0826 28.6216 22.3209C28.8549 22.4472 30.2237 22.4651 30.2237 22.3419C30.2237 22.2957 30.2843 22.2579 30.3583 22.2579C30.5331 22.2579 31.1021 21.7134 31.1021 21.5461C31.1021 21.4753 31.1416 21.4173 31.19 21.4173C31.2477 21.4173 31.2778 19.1756 31.2778 14.8606C31.2778 11.2544 31.2479 8.30388 31.2115 8.30388C31.1748 8.30388 31.0936 8.1925 31.0305 8.05653C30.9677 7.92056 30.7999 7.76001 30.6579 7.69991C30.5158 7.63959 30.3994 7.56184 30.3994 7.52674C30.3994 7.49186 30.2808 7.46328 30.1358 7.46328C29.9909 7.46328 29.8723 7.42545 29.8723 7.37922C29.8723 7.33298 29.6944 7.29516 29.477 7.29516C29.2596 7.29516 29.0817 7.33298 29.0817 7.37922ZM19.419 10.9938C19.419 11.04 19.498 11.0779 19.5947 11.0779C19.6913 11.0779 19.7704 11.1157 19.7704 11.1619C19.7704 11.2082 19.8314 11.246 19.9061 11.246C20.0818 11.246 20.4731 11.6205 20.4731 11.7886C20.4731 11.86 20.5126 11.9185 20.5609 11.9185C20.6178 11.9185 20.6488 12.9652 20.6488 14.8908V17.8634L20.2693 18.2532C20.0607 18.4678 19.8433 18.6433 19.7862 18.6433C19.7291 18.6433 19.6825 18.6811 19.6825 18.7273C19.6825 18.7748 19.4337 18.8114 19.1115 18.8114C18.7975 18.8114 18.5406 18.7828 18.5406 18.7479C18.5406 18.7128 18.4253 18.6355 18.284 18.5756C18.1327 18.5115 17.9834 18.3568 17.9195 18.198C17.86 18.0498 17.7587 17.7964 17.6942 17.6345C17.5587 17.2947 17.5189 12.4436 17.6496 12.1906C18.0664 11.3824 18.2535 11.1789 18.6493 11.1033C18.7828 11.0777 18.8919 11.0236 18.8919 10.9833C18.8919 10.9429 19.0105 10.9097 19.1555 10.9097C19.3004 10.9097 19.419 10.9476 19.419 10.9938ZM41.7311 17.2142C41.7311 17.2605 41.6666 17.2983 41.5877 17.2983C41.4044 17.2983 40.677 17.9903 40.677 18.165C40.677 18.2377 40.6375 18.3205 40.5892 18.3491C40.4813 18.4127 40.471 19.3998 40.5782 19.3998C40.6206 19.3998 40.6779 19.5093 40.706 19.6434C40.755 19.8781 41.7193 20.9129 41.889 20.9129C41.9327 20.9129 42.0926 21.0264 42.2444 21.1651C42.3961 21.3038 42.5797 21.4173 42.6526 21.4173C42.7255 21.4173 42.7853 21.4551 42.7853 21.5013C42.7853 21.5475 42.8643 21.5854 42.9609 21.5854C43.0576 21.5854 43.1366 21.6232 43.1366 21.6694C43.1366 21.7157 43.2157 21.7535 43.3123 21.7535C43.4089 21.7535 43.488 21.7821 43.488 21.817C43.488 21.8521 43.6165 21.93 43.7735 21.9908C43.9305 22.0513 44.1277 22.1362 44.2116 22.1793C44.2955 22.2225 44.4413 22.2579 44.5357 22.2579C44.6302 22.2579 44.7292 22.2917 44.756 22.3331C44.9627 22.6531 48.2974 22.7784 49.3955 22.5073C50.1759 22.3146 50.4766 22.2242 50.555 22.1591C50.6009 22.121 50.7096 22.0897 50.7965 22.0897C50.8835 22.0897 50.9547 22.0519 50.9547 22.0057C50.9547 21.9594 51.0184 21.9216 51.0965 21.9216C51.2531 21.9216 51.9477 21.5801 51.9941 21.4803C52.0103 21.4456 52.0905 21.4173 52.1724 21.4173C52.2543 21.4173 52.3784 21.3416 52.448 21.2491C52.5176 21.1567 52.6259 21.081 52.6885 21.081C52.8839 21.081 54.0667 19.8781 54.1829 19.5612C54.3138 19.204 54.3296 18.307 54.2049 18.307C54.1565 18.307 54.117 18.2314 54.117 18.1389C54.117 18.0464 54.0869 17.9708 54.05 17.9708C54.0131 17.9708 53.944 17.8888 53.8963 17.7886C53.8487 17.6883 53.7327 17.5654 53.6387 17.5154C53.5447 17.4654 53.389 17.3582 53.2926 17.2773C52.9797 17.0144 51.3098 17.1203 51.3067 17.4034C51.3063 17.4381 51.2667 17.4664 51.2186 17.4664C51.1705 17.4664 50.9294 17.6556 50.6826 17.8867C50.436 18.1179 50.1788 18.307 50.1112 18.307C50.0437 18.307 49.9884 18.3449 49.9884 18.3911C49.9884 18.4373 49.9093 18.4751 49.8127 18.4751C49.7161 18.4751 49.637 18.513 49.637 18.5592C49.637 18.6054 49.558 18.6433 49.4613 18.6433C49.3647 18.6433 49.2856 18.6811 49.2856 18.7273C49.2856 18.7736 49.1671 18.8114 49.0221 18.8114C48.8772 18.8114 48.7586 18.8492 48.7586 18.8955C48.7586 18.9417 48.5609 18.9795 48.3194 18.9795C48.0778 18.9795 47.8802 19.0173 47.8802 19.0636C47.8802 19.1098 47.6849 19.1476 47.4462 19.1476C47.2075 19.1476 46.9877 19.1098 46.9578 19.0636C46.9279 19.0173 46.7081 18.9795 46.4694 18.9795C46.2307 18.9795 46.0354 18.9417 46.0354 18.8955C46.0354 18.8492 45.9169 18.8114 45.7719 18.8114C45.627 18.8114 45.5084 18.7736 45.5084 18.7273C45.5084 18.6811 45.4293 18.6433 45.3327 18.6433C45.2361 18.6433 45.157 18.6054 45.157 18.5592C45.157 18.513 45.0867 18.4751 45.0007 18.4751C44.9148 18.4751 44.7874 18.3995 44.7178 18.307C44.6482 18.2146 44.5408 18.1389 44.4793 18.1389C44.4176 18.1389 44.1655 17.9498 43.9187 17.7186C43.672 17.4874 43.4149 17.2983 43.3472 17.2983C43.2798 17.2983 43.2245 17.2605 43.2245 17.2142C43.2245 17.1649 42.917 17.1302 42.4778 17.1302C42.0386 17.1302 41.7311 17.1649 41.7311 17.2142ZM1.80643 25.4521C1.77657 25.4984 1.59627 25.5362 1.40587 25.5362C1.21547 25.5362 1.05977 25.574 1.05977 25.6203C1.05977 25.6665 0.998717 25.7043 0.924051 25.7043C0.748364 25.7043 0.357023 26.0788 0.357023 26.2469C0.357023 26.3184 0.317494 26.3768 0.26918 26.3768C0.220866 26.3768 0.181337 26.4691 0.181337 26.5819C0.181337 26.6948 0.141808 26.8106 0.0934938 26.8391C-0.0459571 26.9215 -0.0224591 38.8614 0.11787 39.238C0.299047 39.7241 0.557964 40.0752 0.816003 40.1845C0.949964 40.2413 1.05977 40.3163 1.05977 40.3514C1.05977 40.3863 1.45506 40.4148 1.9382 40.4148C2.46526 40.4148 2.81663 40.3812 2.81663 40.3308C2.81663 40.2845 2.88163 40.2467 2.96091 40.2467C3.1388 40.2467 3.60722 39.7903 3.60722 39.6171C3.60722 39.5473 3.64675 39.4902 3.69506 39.4902C3.75282 39.4902 3.78291 37.2903 3.78291 33.0585C3.78291 26.2362 3.79828 26.4949 3.36565 26.0624C3.25694 25.9538 3.168 25.8287 3.168 25.7846C3.168 25.7405 3.10871 25.7043 3.03624 25.7043C2.96377 25.7043 2.90447 25.6665 2.90447 25.6203C2.90447 25.574 2.72901 25.5362 2.51445 25.5362C2.29989 25.5362 2.09983 25.4984 2.06996 25.4521C2.0401 25.4059 1.9808 25.3681 1.9382 25.3681C1.8956 25.3681 1.8363 25.4059 1.80643 25.4521ZM11.9084 25.4521C11.8785 25.4984 11.6192 25.5362 11.3321 25.5362C11.0429 25.5362 10.8104 25.5736 10.8104 25.6203C10.8104 25.6665 10.7139 25.7043 10.596 25.7043C10.4781 25.7043 10.3571 25.7421 10.3272 25.7884C10.2974 25.8346 10.1763 25.8724 10.0584 25.8724C9.94049 25.8724 9.84408 25.9103 9.84408 25.9565C9.84408 26.0027 9.76502 26.0406 9.6684 26.0406C9.57177 26.0406 9.49271 26.0738 9.49271 26.1143C9.49271 26.1551 9.37368 26.2354 9.22852 26.2929C8.90723 26.4203 7.91153 27.3445 7.91153 27.5152C7.91153 27.5826 7.87661 27.6377 7.83401 27.6377C7.74419 27.6377 7.37876 28.3316 7.1484 28.9406C6.94526 29.4771 6.90046 36.5388 7.09898 36.7288C7.15938 36.7866 7.20879 36.9398 7.20879 37.0692C7.20879 37.1987 7.24832 37.3046 7.29663 37.3046C7.34494 37.3046 7.38447 37.3767 7.38447 37.4647C7.38447 37.6554 7.7376 38.3133 7.83994 38.3133C7.87925 38.3133 7.91153 38.373 7.91153 38.4459C7.91153 38.6069 9.02495 39.6583 9.19536 39.6583C9.26234 39.6583 9.31702 39.6886 9.31702 39.7255C9.31702 39.8405 10.1037 40.1654 10.511 40.2188C10.7241 40.2467 10.8982 40.3022 10.8982 40.3421C10.8982 40.3821 11.5109 40.4148 12.2598 40.4148C13.0086 40.4148 13.6213 40.3823 13.6213 40.3425C13.6213 40.3026 13.8286 40.2467 14.0821 40.2179C14.3353 40.1891 14.556 40.1271 14.5725 40.0801C14.5889 40.033 14.6781 39.9945 14.7705 39.9945C14.8632 39.9945 14.939 39.9567 14.939 39.9105C14.939 39.8642 15.0093 39.8264 15.0953 39.8264C15.1812 39.8264 15.3086 39.7508 15.3782 39.6583C15.4478 39.5658 15.5523 39.4902 15.6103 39.4902C15.7476 39.4902 16.5202 38.7509 16.5202 38.6195C16.5202 38.564 16.5992 38.464 16.6958 38.3974C16.7925 38.3308 16.8715 38.2089 16.8715 38.1267C16.8715 38.0443 16.9111 37.9771 16.9594 37.9771C17.0077 37.9771 17.0472 37.9014 17.0472 37.809C17.0472 37.7165 17.0782 37.6409 17.116 37.6409C17.1537 37.6409 17.2343 37.4612 17.2952 37.2416C17.3558 37.022 17.4436 36.7261 17.4899 36.5842C17.6059 36.2289 17.6026 29.3189 17.4864 29.3189C17.4381 29.3189 17.3986 29.2426 17.3986 29.1495C17.3986 28.9127 17.1941 28.3102 17.1138 28.3102C17.0771 28.3102 17.0472 28.2345 17.0472 28.1421C17.0472 28.0496 17.0077 27.9739 16.9594 27.9739C16.9111 27.9739 16.8715 27.9243 16.8715 27.8636C16.8715 27.8031 16.7993 27.6791 16.7108 27.5883C16.6223 27.4975 16.478 27.3179 16.3897 27.189C16.1921 26.9003 15.2662 26.2087 15.0773 26.2087C15.0014 26.2087 14.939 26.1709 14.939 26.1246C14.939 26.0784 14.8599 26.0406 14.7633 26.0406C14.6667 26.0406 14.5876 26.0027 14.5876 25.9565C14.5876 25.9103 14.5086 25.8724 14.4119 25.8724C14.3153 25.8724 14.2362 25.8346 14.2362 25.7884C14.2362 25.7421 14.1398 25.7043 14.0219 25.7043C13.904 25.7043 13.783 25.6665 13.7531 25.6203C13.7232 25.574 13.4441 25.5362 13.1329 25.5362C12.8143 25.5362 12.5672 25.4994 12.5672 25.4521C12.5672 25.4059 12.4313 25.3681 12.265 25.3681C12.0988 25.3681 11.9383 25.4059 11.9084 25.4521ZM25.6558 25.4521C25.6558 25.4988 25.4215 25.5362 25.1288 25.5362C24.836 25.5362 24.6017 25.5736 24.6017 25.6203C24.6017 25.6665 24.4831 25.7043 24.3382 25.7043C24.1933 25.7043 24.0747 25.7421 24.0747 25.7884C24.0747 25.8346 23.9561 25.8724 23.8111 25.8724C23.6662 25.8724 23.5476 25.9103 23.5476 25.9565C23.5476 26.0027 23.4883 26.0406 23.4158 26.0406C23.3434 26.0406 23.2841 26.0691 23.2841 26.104C23.2841 26.1391 23.1556 26.2217 22.9986 26.2877C22.6301 26.4428 21.7719 27.2641 21.6098 27.6167C21.5408 27.7669 21.4545 27.8899 21.4179 27.8899C21.3814 27.8899 21.3515 27.9466 21.3515 28.016C21.3515 28.0853 21.312 28.1421 21.2637 28.1421C21.2154 28.1421 21.1758 28.2555 21.1758 28.3942C21.1758 28.5329 21.1363 28.6464 21.088 28.6464C21.0397 28.6464 21.0002 28.7599 21.0002 28.8986C21.0002 29.0373 20.9606 29.1508 20.9123 29.1508C20.864 29.1508 20.8245 29.3376 20.8245 29.566C20.8245 29.7945 20.7849 30.0048 20.7366 30.0334C20.6808 30.0664 20.6488 31.1115 20.6488 32.8915C20.6488 34.6714 20.6808 35.7165 20.7366 35.7495C20.7849 35.7781 20.8245 36.0263 20.8245 36.3009C20.8245 36.5777 20.8636 36.8003 20.9123 36.8003C20.9606 36.8003 21.0002 36.9137 21.0002 37.0524C21.0002 37.1911 21.0397 37.3046 21.088 37.3046C21.1363 37.3046 21.1758 37.4181 21.1758 37.5568C21.1758 37.6955 21.2154 37.809 21.2637 37.809C21.312 37.809 21.3515 37.8846 21.3515 37.9771C21.3515 38.0696 21.3862 38.1452 21.4286 38.1452C21.4712 38.1452 21.5558 38.2606 21.6168 38.4014C21.7455 38.6987 22.7265 39.6583 22.9017 39.6583C22.9672 39.6583 23.0206 39.6961 23.0206 39.7424C23.0206 39.7886 23.0996 39.8264 23.1962 39.8264C23.2929 39.8264 23.3721 39.8548 23.3726 39.8895C23.3737 39.9912 23.8252 40.1654 24.2284 40.2194C24.4337 40.2469 24.6017 40.3022 24.6017 40.3421C24.6017 40.3821 25.2144 40.4148 25.9633 40.4148C26.8125 40.4148 27.3249 40.3831 27.3249 40.3308C27.3249 40.2845 27.4691 40.2467 27.6455 40.2467C27.9795 40.2467 28.8254 39.8985 29.1202 39.6396C29.2139 39.5574 29.3237 39.4902 29.3641 39.4902C29.4794 39.4902 30.1662 38.799 30.3045 38.5434C30.373 38.4169 30.462 38.3133 30.5021 38.3133C30.5421 38.3133 30.5751 38.2377 30.5751 38.1452C30.5751 38.0527 30.6146 37.9771 30.6629 37.9771C30.7112 37.9771 30.7507 37.9014 30.7507 37.809C30.7507 37.7165 30.7903 37.6409 30.8386 37.6409C30.8869 37.6409 30.9264 37.5652 30.9264 37.4727C30.9264 37.3803 30.966 37.3046 31.0143 37.3046C31.0626 37.3046 31.1021 37.1745 31.1021 37.0154C31.1021 36.8564 31.1416 36.7027 31.19 36.6742C31.2464 36.6408 31.2778 35.3019 31.2778 32.9335C31.2778 30.5651 31.2464 29.2262 31.19 29.1928C31.1416 29.1642 31.1021 29.0295 31.1021 28.8936C31.1021 28.7576 31.0626 28.6464 31.0143 28.6464C30.966 28.6464 30.9264 28.5708 30.9264 28.4783C30.9264 28.3858 30.8869 28.3102 30.8386 28.3102C30.7903 28.3102 30.7507 28.2345 30.7507 28.1421C30.7507 28.0496 30.7112 27.9739 30.6629 27.9739C30.6146 27.9739 30.5751 27.9067 30.5751 27.8243C30.5751 27.7421 30.496 27.6203 30.3994 27.5536C30.3027 27.487 30.2237 27.3935 30.2237 27.346C30.2232 27.1371 29.0767 26.2087 28.8191 26.2087C28.7703 26.2087 28.7301 26.1803 28.7297 26.1456C28.7288 26.0702 28.3034 25.8724 28.1418 25.8724C28.079 25.8724 28.0276 25.8346 28.0276 25.7884C28.0276 25.7421 27.909 25.7043 27.7641 25.7043C27.6191 25.7043 27.5006 25.6665 27.5006 25.6203C27.5006 25.573 27.2535 25.5362 26.9348 25.5362C26.6237 25.5362 26.3445 25.4984 26.3147 25.4521C26.2848 25.4059 26.1243 25.3681 25.958 25.3681C25.7918 25.3681 25.6558 25.4059 25.6558 25.4521ZM12.6726 29.1508C12.8079 29.1508 12.9186 29.184 12.9186 29.2245C12.9186 29.2653 13.0372 29.3456 13.1821 29.403C13.3271 29.4603 13.4457 29.5511 13.4457 29.6047C13.4457 29.6583 13.5247 29.7566 13.6213 29.8233C13.7913 29.9405 13.797 30.0408 13.797 32.9362C13.797 35.8117 13.7902 35.9351 13.6213 36.1084C13.5247 36.2076 13.4457 36.3472 13.4457 36.4184C13.4457 36.4901 13.3703 36.5481 13.2772 36.5481C13.1848 36.5481 13.0949 36.588 13.078 36.6368C12.9039 37.1369 10.986 36.7124 10.986 36.1736C10.986 36.1021 10.9465 36.0437 10.8982 36.0437C10.8499 36.0437 10.8104 35.9302 10.8104 35.7915C10.8104 35.6528 10.7708 35.5393 10.7225 35.5393C10.6659 35.5393 10.6347 34.6006 10.6347 32.8915C10.6347 31.1823 10.6659 30.2436 10.7225 30.2436C10.7708 30.2436 10.8104 30.1679 10.8104 30.0754C10.8104 29.983 10.8499 29.9073 10.8982 29.9073C10.9465 29.9073 10.986 29.8678 10.986 29.8195C10.986 29.6131 11.6497 29.1508 11.9459 29.1508C12.0404 29.1508 12.1443 29.1096 12.1768 29.0594C12.2191 28.9936 12.2624 28.9936 12.3311 29.0594C12.3836 29.1096 12.5374 29.1508 12.6726 29.1508ZM26.139 29.0667C26.1688 29.113 26.2705 29.1508 26.365 29.1508C26.6612 29.1508 27.3249 29.6131 27.3249 29.8195C27.3249 29.8678 27.3644 29.9073 27.4127 29.9073C27.4696 29.9073 27.5006 30.986 27.5006 32.9755C27.5006 34.965 27.4696 36.0437 27.4127 36.0437C27.3644 36.0437 27.3249 36.0952 27.3249 36.1582C27.3249 36.5834 26.3285 36.9539 25.6034 36.7984C25.0572 36.6813 24.6017 36.2072 24.6017 35.7556C24.6017 35.6421 24.5622 35.5259 24.5139 35.4973C24.4585 35.4645 24.426 34.5174 24.426 32.9335C24.426 31.3496 24.4585 30.4024 24.5139 30.3697C24.5622 30.3411 24.6017 30.2253 24.6017 30.1124C24.6017 29.9996 24.6413 29.9073 24.6896 29.9073C24.7379 29.9073 24.7774 29.8626 24.7774 29.8077C24.7774 29.669 25.1345 29.3189 25.2759 29.3189C25.3398 29.3189 25.3923 29.2811 25.3923 29.2348C25.3923 29.1886 25.5109 29.1508 25.6558 29.1508C25.8008 29.1508 25.9194 29.113 25.9194 29.0667C25.9194 29.0205 25.9565 28.9827 26.0019 28.9827C26.0474 28.9827 26.1091 29.0205 26.139 29.0667ZM53.59 31.0001C53.59 31.0463 53.5298 31.0842 53.4562 31.0842C53.3078 31.0842 52.3602 31.9552 52.3602 32.0918C52.3602 32.1395 52.2416 32.2972 52.0966 32.4424C51.9517 32.5876 51.8331 32.7574 51.8331 32.8198C51.8331 32.8824 51.7936 32.9335 51.7453 32.9335C51.6969 32.9335 51.6574 33.0091 51.6574 33.1016C51.6574 33.1941 51.6271 33.2697 51.5902 33.2697C51.4352 33.2697 50.8668 34.7036 50.8668 35.0949C50.8668 35.2468 50.8273 35.3712 50.779 35.3712C50.7302 35.3712 50.6911 35.5955 50.6911 35.8756C50.6911 36.1557 50.6521 36.38 50.6033 36.38C50.5495 36.38 50.5154 36.7862 50.5154 37.4307C50.5154 38.0752 50.5495 38.4815 50.6033 38.4815C50.6516 38.4815 50.6911 38.6872 50.6911 38.9387C50.6911 39.1903 50.725 39.4162 50.7665 39.4408C50.8077 39.4652 50.8648 39.6726 50.8932 39.9016C50.9215 40.1305 50.9865 40.3966 51.0377 40.4924C51.0886 40.5884 51.1699 40.7423 51.2182 40.8341C51.2665 40.9259 51.306 41.0583 51.306 41.1283C51.306 41.1983 51.3456 41.2554 51.3939 41.2554C51.4422 41.2554 51.4817 41.3311 51.4817 41.4236C51.4817 41.516 51.5213 41.5917 51.5696 41.5917C51.6179 41.5917 51.6574 41.6673 51.6574 41.7598C51.6574 41.8523 51.6904 41.9279 51.7303 41.9279C51.7705 41.9279 51.8592 42.0319 51.9275 42.1591C51.9956 42.2862 52.121 42.4514 52.2058 42.5262C52.2908 42.601 52.3602 42.6864 52.3602 42.716C52.3602 42.8158 52.84 43.2914 53.2294 43.5776C54.1124 44.2268 56.1374 43.781 56.1374 42.9373C56.1374 42.8446 56.1769 42.7685 56.2253 42.7685C56.2764 42.7685 56.3131 42.4884 56.3131 42.096C56.3131 41.7037 56.2764 41.4236 56.2253 41.4236C56.1769 41.4236 56.1374 41.3639 56.1374 41.291C56.1374 41.2178 55.9793 41.0129 55.786 40.8351C55.5928 40.6573 55.4347 40.4852 55.4347 40.4522C55.4347 40.4195 55.3653 40.3314 55.2803 40.2566C55.1955 40.1818 55.0701 40.0166 55.002 39.8895C54.9337 39.7623 54.845 39.6583 54.8048 39.6583C54.7649 39.6583 54.7319 39.5826 54.7319 39.4902C54.7319 39.3977 54.6985 39.3221 54.6575 39.3221C54.5428 39.3221 54.3507 38.0933 54.3553 37.3887C54.3599 36.6687 54.5439 35.5393 54.6564 35.5393C54.6979 35.5393 54.7319 35.4637 54.7319 35.3712C54.7319 35.2788 54.7715 35.2031 54.8198 35.2031C54.8681 35.2031 54.9076 35.1359 54.9076 35.0535C54.9076 34.9713 54.9867 34.8494 55.0833 34.7828C55.1799 34.7162 55.259 34.617 55.259 34.5626C55.259 34.5081 55.4566 34.2705 55.6982 34.0345C55.9398 33.7983 56.1374 33.5486 56.1374 33.4795C56.1374 33.4103 56.1769 33.3538 56.2253 33.3538C56.2764 33.3538 56.3131 33.0753 56.3131 32.6863C56.3131 32.3192 56.2736 31.9954 56.2253 31.9668C56.1769 31.9382 56.1374 31.859 56.1374 31.7909C56.1374 31.6274 55.5658 31.0842 55.3936 31.0842C55.3196 31.0842 55.259 31.0463 55.259 31.0001C55.259 30.9499 54.9223 30.916 54.4245 30.916C53.9266 30.916 53.59 30.9499 53.59 31.0001ZM35.5821 39.238C35.5821 39.2842 35.5189 39.3221 35.4416 39.3221C35.3645 39.3221 35.1273 39.4984 34.9145 39.7138L34.528 40.1053V40.894C34.528 41.5667 34.5539 41.7094 34.7037 41.8632C34.8003 41.9624 34.8794 42.0902 34.8794 42.1469C34.8794 42.2036 34.998 42.3003 35.1429 42.3617C35.2878 42.423 35.4064 42.5018 35.4064 42.5369C35.4064 42.5718 35.5645 42.6004 35.7578 42.6004C35.9511 42.6004 36.1092 42.6382 36.1092 42.6845C36.1092 42.7307 36.2056 42.7685 36.3235 42.7685C36.4414 42.7685 36.5624 42.7307 36.5923 42.6845C36.6222 42.6382 36.7645 42.6004 36.9085 42.6004C37.0528 42.6004 37.2555 42.5247 37.3592 42.4323C37.4628 42.3398 37.5997 42.2642 37.6629 42.2642C37.7264 42.2642 37.7782 42.2146 37.7782 42.1538C37.7782 42.0933 37.8573 41.9624 37.9539 41.8632C38.1564 41.6554 38.2113 40.3818 38.0316 40.0607C37.8801 39.7894 37.3601 39.3221 37.2101 39.3221C37.1361 39.3221 37.0755 39.2842 37.0755 39.238C37.0755 39.1886 36.768 39.1539 36.3288 39.1539C35.8896 39.1539 35.5821 39.1886 35.5821 39.238ZM4.04643 43.6818C4.04643 43.7218 3.87229 43.7772 3.65927 43.8052C3.25189 43.8586 2.46526 44.1835 2.46526 44.2984C2.46526 44.3354 2.41058 44.3657 2.3436 44.3657C2.1846 44.3657 1.05977 45.4118 1.05977 45.5595C1.05977 45.6222 0.980709 45.7281 0.884082 45.7947C0.787454 45.8613 0.708396 45.9832 0.708396 46.0654C0.708396 46.1477 0.668866 46.215 0.620553 46.215C0.572239 46.215 0.532709 46.3072 0.532709 46.4201C0.532709 46.5329 0.49318 46.6487 0.444866 46.6773C0.396552 46.7059 0.357023 46.8194 0.357023 46.9295C0.357023 47.0396 0.317494 47.1531 0.26918 47.1817C0.220866 47.2103 0.181337 47.3994 0.181337 47.602C0.181337 47.8046 0.141808 47.9937 0.0934938 48.0223C0.0377134 48.0553 0.00565036 49.1562 0.00565036 51.0484C0.00565036 52.9406 0.0377134 54.0416 0.0934938 54.0746C0.141808 54.1032 0.181337 54.2635 0.181337 54.4308C0.181337 54.7286 0.301902 55.1903 0.455627 55.4816C0.498011 55.5618 0.532709 55.6848 0.532709 55.7548C0.532709 55.8247 0.572239 55.8819 0.620553 55.8819C0.668866 55.8819 0.708396 55.9575 0.708396 56.05C0.708396 56.1425 0.741337 56.2181 0.781306 56.2181C0.821494 56.2181 0.910435 56.3222 0.978952 56.4493C1.15749 56.7801 2.18614 57.7243 2.43276 57.7835C2.54717 57.8111 2.64094 57.8672 2.64094 57.9084C2.64094 57.9498 2.72 57.9834 2.81663 57.9834C2.91326 57.9834 2.99232 58.0212 2.99232 58.0675C2.99232 58.1137 3.07138 58.1515 3.168 58.1515C3.26463 58.1515 3.34369 58.1893 3.34369 58.2356C3.34369 58.2818 3.48204 58.3196 3.65114 58.3196C3.82024 58.3196 3.95859 58.3575 3.95859 58.4037C3.95859 58.4564 4.50036 58.4878 5.408 58.4878C6.31564 58.4878 6.85742 58.4564 6.85742 58.4037C6.85742 58.3575 6.976 58.3196 7.12094 58.3196C7.26589 58.3196 7.38447 58.2818 7.38447 58.2356C7.38447 58.1893 7.47583 58.1515 7.58761 58.1515C7.69917 58.1515 7.87552 58.0759 7.97917 57.9834C8.08283 57.8909 8.22052 57.8153 8.28531 57.8153C8.48251 57.8153 9.6684 56.8654 9.6684 56.7076C9.6684 56.6655 9.74745 56.5502 9.84408 56.451C9.94071 56.3518 10.0198 56.2209 10.0198 56.1603C10.0198 56.0996 10.0593 56.05 10.1076 56.05C10.1559 56.05 10.1955 55.9767 10.1955 55.8869C10.1955 55.7972 10.235 55.7003 10.2833 55.6717C10.3316 55.6432 10.3711 55.5305 10.3711 55.4217C10.3711 55.3126 10.4206 55.2077 10.4809 55.1884C10.5668 55.1611 10.5907 54.2696 10.5907 51.1088C10.5907 47.9851 10.5657 47.04 10.4809 46.9589C10.4206 46.9011 10.3711 46.8057 10.3711 46.7471C10.3711 46.5458 9.92929 45.7157 9.711 45.5068C9.59087 45.392 9.49271 45.2605 9.49271 45.2149C9.49271 45.1691 9.33305 45.0066 9.13804 44.8538C8.94281 44.7009 8.67599 44.4907 8.5451 44.3867C8.41399 44.2829 8.25741 44.1978 8.19702 44.1975C8.13663 44.1975 8.08722 44.1597 8.08722 44.1135C8.08722 44.0672 8.03254 44.0294 7.96556 44.0294C7.89858 44.0294 7.73058 43.9729 7.59222 43.9038C7.45387 43.8348 7.19232 43.7781 7.01114 43.7777C6.82996 43.7775 6.68173 43.7394 6.68173 43.6932C6.68173 43.6409 6.18388 43.6091 5.36408 43.6091C4.63938 43.6091 4.04643 43.6419 4.04643 43.6818ZM14.6315 43.7978C14.4866 43.8987 14.3375 44.028 14.3001 44.0853C14.2628 44.1425 14.1739 44.2452 14.1025 44.3135C14.0311 44.3818 13.9727 44.5327 13.9727 44.6489C13.9727 44.7652 13.9332 44.8835 13.8849 44.9121C13.8275 44.9459 13.797 47.0844 13.797 51.0535C13.797 55.0571 13.8271 57.1428 13.8849 57.1428C13.9332 57.1428 13.9727 57.2752 13.9727 57.437C13.9727 57.5988 14.0122 57.7312 14.0606 57.7312C14.1089 57.7312 14.1484 57.7707 14.1484 57.8191C14.1484 57.9332 14.5523 58.3196 14.6715 58.3196C14.722 58.3196 14.7633 58.3575 14.7633 58.4037C14.7633 58.4499 14.9214 58.4878 15.1147 58.4878C15.3079 58.4878 15.466 58.5256 15.466 58.5718C15.466 58.618 15.5846 58.6559 15.7296 58.6559C15.8745 58.6559 15.9931 58.618 15.9931 58.5718C15.9931 58.5256 16.1424 58.4878 16.3251 58.4878C16.5564 58.4878 16.6954 58.4367 16.7837 58.3196C16.8533 58.2272 16.9609 58.1515 17.0226 58.1515C17.0846 58.1515 17.1351 58.1164 17.1351 58.0736C17.1351 58.0305 17.1845 57.9439 17.2449 57.8811C17.5756 57.5366 17.5743 57.5656 17.5743 51.0484C17.5743 46.1257 17.5497 44.6574 17.4645 44.5117C17.269 44.1769 16.8412 43.7772 16.6787 43.7772C16.5915 43.7772 16.5202 43.7394 16.5202 43.6932C16.5202 43.5097 14.9179 43.5986 14.6315 43.7978ZM24.6017 43.6932C24.6017 43.7394 24.493 43.7775 24.3602 43.7777C24.2273 43.7781 24.0053 43.8348 23.8669 43.9038C23.7286 43.9729 23.5606 44.0294 23.4936 44.0294C23.4266 44.0294 23.3719 44.0672 23.3719 44.1135C23.3719 44.1597 23.3201 44.1975 23.2566 44.1975C23.1934 44.1975 23.0566 44.2732 22.9529 44.3657C22.8493 44.4581 22.7313 44.5338 22.6911 44.5338C22.5196 44.5338 21.5272 45.6808 21.5272 45.879C21.5272 45.929 21.4482 46.0511 21.3515 46.1503C21.2549 46.2495 21.1758 46.4182 21.1758 46.525C21.1758 46.6319 21.1363 46.7193 21.088 46.7193C21.0397 46.7193 21.0002 46.8328 21.0002 46.9715C21.0002 47.1102 20.9606 47.2237 20.9123 47.2237C20.864 47.2237 20.8245 47.4105 20.8245 47.639C20.8245 47.8674 20.7849 48.0778 20.7366 48.1063C20.6808 48.1393 20.6488 49.2 20.6488 51.0115C20.6488 52.8574 20.6798 53.8645 20.7366 53.8645C20.7854 53.8645 20.8245 54.0887 20.8245 54.3688C20.8245 54.6489 20.8636 54.8732 20.9123 54.8732C20.9606 54.8732 21.0002 54.9867 21.0002 55.1254C21.0002 55.2641 21.0397 55.3775 21.088 55.3775C21.1363 55.3775 21.1758 55.491 21.1758 55.6297C21.1758 55.7684 21.2154 55.8819 21.2637 55.8819C21.312 55.8819 21.3515 55.9575 21.3515 56.05C21.3515 56.1425 21.3862 56.2181 21.4286 56.2181C21.4712 56.2181 21.5553 56.3325 21.6159 56.4722C21.7578 56.8 22.5881 57.5946 22.9307 57.7304C23.0768 57.7884 23.1962 57.8689 23.1962 57.9096C23.1962 57.9502 23.2753 57.9834 23.3719 57.9834C23.4685 57.9834 23.5476 58.0212 23.5476 58.0675C23.5476 58.1137 23.644 58.1515 23.7619 58.1515C23.8799 58.1515 24.0009 58.1893 24.0307 58.2356C24.0606 58.2818 24.2014 58.3196 24.3435 58.3196C24.4856 58.3196 24.6017 58.3575 24.6017 58.4037C24.6017 58.4564 25.1435 58.4878 26.0511 58.4878C26.9588 58.4878 27.5006 58.4564 27.5006 58.4037C27.5006 58.3575 27.6191 58.3196 27.7641 58.3196C27.909 58.3196 28.0276 58.2818 28.0276 58.2356C28.0276 58.1893 28.1264 58.1515 28.2472 58.1515C28.368 58.1515 28.4668 58.1137 28.4668 58.0675C28.4668 58.0212 28.5459 57.9834 28.6425 57.9834C28.7391 57.9834 28.8182 57.9502 28.8182 57.9096C28.8182 57.8689 28.9372 57.7886 29.0824 57.731C29.4037 57.6037 30.3994 56.6794 30.3994 56.5088C30.3994 56.4413 30.4389 56.3863 30.4872 56.3863C30.5355 56.3863 30.5751 56.3106 30.5751 56.2181C30.5751 56.1257 30.6146 56.05 30.6629 56.05C30.7112 56.05 30.7507 55.9744 30.7507 55.8819C30.7507 55.7894 30.7903 55.7138 30.8386 55.7138C30.8869 55.7138 30.9264 55.6381 30.9264 55.5457C30.9264 55.4532 30.966 55.3775 31.0143 55.3775C31.0626 55.3775 31.1021 55.2475 31.1021 55.0884C31.1021 54.9293 31.1416 54.7757 31.19 54.7471C31.2464 54.7137 31.2778 53.3748 31.2778 51.0064C31.2778 48.638 31.2464 47.2991 31.19 47.2657C31.1416 47.2372 31.1021 47.1024 31.1021 46.9665C31.1021 46.8305 31.0626 46.7193 31.0143 46.7193C30.966 46.7193 30.9264 46.6437 30.9264 46.5512C30.9264 46.4588 30.8869 46.3831 30.8386 46.3831C30.7903 46.3831 30.7507 46.3074 30.7507 46.215C30.7507 46.1225 30.7112 46.0469 30.6629 46.0469C30.6146 46.0469 30.5751 45.9884 30.5751 45.917C30.5751 45.8455 30.4791 45.6953 30.3618 45.5831C30.2446 45.4708 30.0812 45.2695 29.9986 45.1359C29.916 45.0022 29.7452 44.8343 29.6189 44.7626C29.4926 44.691 29.2706 44.5346 29.1256 44.415C28.7883 44.1368 27.9975 43.7772 27.723 43.7772C27.6064 43.7772 27.4865 43.7394 27.4566 43.6932C27.4241 43.6427 26.8408 43.6091 26.0019 43.6091C25.127 43.6091 24.6017 43.6406 24.6017 43.6932ZM6.41095 47.5534C6.60816 47.7346 6.76957 47.9426 6.76957 48.0158C6.76957 48.0887 6.8091 48.1484 6.85742 48.1484C6.99577 48.1484 6.97491 53.7699 6.83545 54.0572C6.77506 54.1816 6.696 54.2837 6.65977 54.2841C6.62353 54.2845 6.59389 54.3383 6.59389 54.4037C6.59389 54.4693 6.4753 54.5731 6.33036 54.6344C6.18541 54.6958 6.06683 54.7746 6.06683 54.8097C6.06683 54.8446 5.95153 54.8732 5.81054 54.8732C5.66978 54.8732 5.53933 54.9163 5.5211 54.9686C5.49694 55.0381 5.44094 55.0394 5.31621 54.9738C5.22178 54.924 5.03467 54.8612 4.90071 54.8341C4.55153 54.7635 3.95859 54.2265 3.95859 53.9807C3.95859 53.8705 3.91906 53.7804 3.87075 53.7804C3.81409 53.7804 3.78291 52.8137 3.78291 51.0484C3.78291 49.2832 3.81409 48.3165 3.87075 48.3165C3.91906 48.3165 3.95859 48.2408 3.95859 48.1484C3.95859 48.0559 3.99812 47.9802 4.04643 47.9802C4.09475 47.9802 4.13428 47.9218 4.13428 47.8504C4.13428 47.184 5.77629 46.9698 6.41095 47.5534ZM26.836 47.3708C27.0058 47.4517 27.1459 47.5757 27.147 47.6465C27.1483 47.7171 27.2282 47.8296 27.3249 47.8962C27.5236 48.0332 27.6095 54.1166 27.4127 54.1166C27.3644 54.1166 27.3249 54.1561 27.3249 54.2045C27.3249 54.4058 26.6627 54.8732 26.3773 54.8732C26.2896 54.8732 26.1706 54.9186 26.1126 54.974C26.0307 55.0524 25.9837 55.0524 25.9018 54.974C25.8438 54.9186 25.7044 54.8732 25.5919 54.8732C25.2781 54.8732 24.6017 54.1858 24.6017 53.8668C24.6017 53.7268 24.5622 53.6123 24.5139 53.6123C24.4572 53.6123 24.426 52.7034 24.426 51.0535C24.426 49.4381 24.4585 48.4754 24.5139 48.4426C24.5622 48.414 24.6017 48.2982 24.6017 48.1854C24.6017 48.0725 24.6413 47.9802 24.6896 47.9802C24.7379 47.9802 24.7774 47.9218 24.7774 47.8504C24.7774 47.316 26.0823 47.0119 26.836 47.3708ZM49.9884 53.3601C49.9884 53.4063 49.8698 53.4442 49.7249 53.4442C49.5799 53.4442 49.4613 53.482 49.4613 53.5282C49.4613 53.5744 49.3823 53.6123 49.2856 53.6123C49.189 53.6123 49.11 53.6501 49.11 53.6963C49.11 53.7426 49.0309 53.7804 48.9343 53.7804C48.8376 53.7804 48.7586 53.8182 48.7586 53.8645C48.7586 53.9107 48.6795 53.9485 48.5829 53.9485C48.4863 53.9485 48.4072 53.9863 48.4072 54.0326C48.4072 54.0788 48.3282 54.1166 48.2315 54.1166C48.1349 54.1166 48.0558 54.1463 48.0558 54.1826C48.0558 54.2188 47.9274 54.3196 47.7704 54.4064C47.4091 54.6061 46.0354 55.9496 46.0354 56.1032C46.0354 56.1664 45.9959 56.2181 45.9476 56.2181C45.8993 56.2181 45.8598 56.2677 45.8598 56.3285C45.8598 56.389 45.7807 56.5199 45.6841 56.6191C45.5875 56.7183 45.5084 56.8578 45.5084 56.9291C45.5084 57.0003 45.4689 57.0587 45.4206 57.0587C45.3722 57.0587 45.3327 57.1321 45.3327 57.2218C45.3327 57.3116 45.2932 57.4084 45.2449 57.437C45.1965 57.4656 45.157 57.5814 45.157 57.6942C45.157 57.8071 45.1175 57.8993 45.0692 57.8993C45.0209 57.8993 44.9813 58.0105 44.9813 58.1465C44.9813 58.2824 44.9418 58.4172 44.8935 58.4457C44.8452 58.4743 44.8056 58.6847 44.8056 58.9131C44.8056 59.1415 44.7661 59.3284 44.7178 59.3284C44.6647 59.3284 44.63 59.6909 44.63 60.248C44.63 60.7706 44.6679 61.1903 44.7178 61.2197C44.7661 61.2483 44.8056 61.4587 44.8056 61.6871C44.8056 61.9155 44.8452 62.1023 44.8935 62.1023C44.9418 62.1023 44.9813 62.2158 44.9813 62.3545C44.9813 62.4932 45.0114 62.6067 45.0483 62.6067C45.0852 62.6067 45.1544 62.6887 45.202 62.7889C45.2497 62.8891 45.3656 63.0121 45.4596 63.0621C45.5536 63.1121 45.7093 63.2193 45.8057 63.3002C46.0036 63.4666 47.5288 63.5223 47.5288 63.3632C47.5288 63.317 47.5894 63.2792 47.6634 63.2792C47.8382 63.2792 48.4072 62.7347 48.4072 62.5674C48.4072 62.4966 48.4467 62.4386 48.4951 62.4386C48.5475 62.4386 48.5829 62.1164 48.5829 61.64C48.5829 61.1636 48.5475 60.8414 48.4951 60.8414C48.4463 60.8414 48.4072 60.6189 48.4072 60.3421C48.4072 60.0675 48.4467 59.8193 48.4951 59.7907C48.5434 59.7621 48.5829 59.6085 48.5829 59.4494C48.5829 59.2903 48.6224 59.1602 48.6707 59.1602C48.7191 59.1602 48.7586 59.1111 48.7586 59.051C48.7586 58.8963 48.9652 58.4892 49.0441 58.4884C49.0803 58.488 49.11 58.4266 49.11 58.352C49.11 58.0298 50.687 56.8906 51.133 56.8906C51.2281 56.8906 51.306 56.8528 51.306 56.8066C51.306 56.7603 51.3658 56.7225 51.4389 56.7225C51.7475 56.7225 52.2464 56.323 52.4364 55.9239C52.5022 55.7852 52.5912 55.606 52.634 55.5257C52.7403 55.3258 52.7322 54.621 52.6237 54.621C52.5754 54.621 52.5358 54.5254 52.5358 54.4085C52.5358 54.1713 51.8423 53.4442 51.6159 53.4442C51.5421 53.4442 51.4817 53.4063 51.4817 53.3601C51.4817 53.3107 51.1743 53.276 50.7351 53.276C50.2958 53.276 49.9884 53.3107 49.9884 53.3601ZM11.03 61.682C11.0001 61.7283 10.8617 61.7661 10.7225 61.7661C10.5833 61.7661 10.4449 61.8039 10.4151 61.8502C10.3852 61.8964 10.284 61.9342 10.1902 61.9342C10.0964 61.9342 10.0198 61.9721 10.0198 62.0183C10.0198 62.0645 9.94071 62.1023 9.84408 62.1023C9.74745 62.1023 9.6684 62.1402 9.6684 62.1864C9.6684 62.2326 9.59812 62.2705 9.51203 62.2705C9.42617 62.2705 9.2988 62.3461 9.22918 62.4386C9.15956 62.5311 9.05503 62.6067 8.99705 62.6067C8.8598 62.6067 8.08722 63.346 8.08722 63.4774C8.08722 63.5328 8.00816 63.6329 7.91153 63.6995C7.81491 63.7661 7.73585 63.8718 7.73585 63.9342C7.73585 63.9966 7.67458 64.1063 7.59969 64.178C7.52502 64.2497 7.44091 64.4171 7.41302 64.5502C7.38535 64.6834 7.3366 64.7923 7.30476 64.7923C6.91451 64.7923 6.81218 72.1469 7.18749 73.218C7.36712 73.7308 7.45343 73.9071 7.83731 74.5495C7.90231 74.6582 8.11357 74.8896 8.30683 75.0638C8.50008 75.238 8.78557 75.4948 8.94127 75.6343C9.09676 75.7741 9.28452 75.8882 9.35853 75.8882C9.43232 75.8882 9.49271 75.926 9.49271 75.9723C9.49271 76.0185 9.57177 76.0563 9.6684 76.0563C9.76502 76.0563 9.84408 76.0941 9.84408 76.1404C9.84408 76.1866 9.92314 76.2244 10.0198 76.2244C10.1164 76.2244 10.1955 76.2623 10.1955 76.3085C10.1955 76.3547 10.314 76.3926 10.459 76.3926C10.6039 76.3926 10.7225 76.4304 10.7225 76.4766C10.7225 76.5229 10.9375 76.5607 11.2004 76.5607C11.4633 76.5607 11.7028 76.5985 11.7327 76.6447C11.7626 76.691 12.0022 76.7288 12.265 76.7288C12.5279 76.7288 12.7429 76.691 12.7429 76.6447C12.7429 76.5981 12.9772 76.5607 13.27 76.5607C13.5627 76.5607 13.797 76.5233 13.797 76.4766C13.797 76.4304 13.8934 76.3926 14.0114 76.3926C14.1293 76.3926 14.2503 76.3547 14.2802 76.3085C14.31 76.2623 14.431 76.2244 14.549 76.2244C14.6669 76.2244 14.7633 76.1866 14.7633 76.1404C14.7633 76.0941 14.8336 76.0563 14.9197 76.0563C15.0055 76.0563 15.1329 75.9807 15.2025 75.8882C15.2721 75.7957 15.3835 75.7201 15.4496 75.7201C15.6703 75.7201 16.8715 74.4766 16.8715 74.248C16.8715 74.1793 16.9111 74.1229 16.9594 74.1229C17.0077 74.1229 17.0472 74.0473 17.0472 73.9548C17.0472 73.8624 17.0771 73.7867 17.1138 73.7867C17.1933 73.7867 17.3986 73.1852 17.3986 72.9524C17.3986 72.8618 17.4381 72.7645 17.4864 72.7359C17.5429 72.7025 17.5743 71.3918 17.5743 69.0793C17.5743 66.7668 17.5429 65.4561 17.4864 65.4227C17.4381 65.3941 17.3986 65.2807 17.3986 65.1705C17.3986 65.0604 17.3591 64.9469 17.3107 64.9184C17.2624 64.8898 17.2229 64.774 17.2229 64.6611C17.2229 64.5483 17.1834 64.456 17.1351 64.456C17.0867 64.456 17.0472 64.3804 17.0472 64.2879C17.0472 64.1954 17.0143 64.1198 16.9743 64.1198C16.9341 64.1198 16.8452 64.0158 16.7767 63.8886C16.6152 63.5892 15.4935 62.5157 15.1806 62.3612C15.0477 62.2957 14.939 62.2106 14.939 62.1721C14.939 62.1339 14.8599 62.1023 14.7633 62.1023C14.6667 62.1023 14.5876 62.0645 14.5876 62.0183C14.5876 61.9721 14.5081 61.9342 14.4108 61.9342C14.3135 61.9342 14.1653 61.901 14.0814 61.8605C13.6712 61.6623 13.2089 61.598 12.1928 61.598C11.5485 61.598 11.0616 61.6333 11.03 61.682ZM21.753 61.7081C21.2639 61.9971 20.8245 62.5208 20.8245 62.8145C20.8245 62.9776 20.7849 63.1111 20.7366 63.1111C20.6789 63.1111 20.6488 65.1705 20.6488 69.1214C20.6488 73.0722 20.6789 75.1317 20.7366 75.1317C20.7849 75.1317 20.8245 75.2641 20.8245 75.4259C20.8245 75.5877 20.864 75.7201 20.9123 75.7201C20.9606 75.7201 21.0002 75.7785 21.0002 75.85C21.0002 76.0952 21.6322 76.5607 21.9653 76.5607C22.0626 76.5607 22.1421 76.5985 22.1421 76.6447C22.1421 76.691 22.3398 76.7288 22.5813 76.7288C22.8229 76.7288 23.0206 76.691 23.0206 76.6447C23.0206 76.5985 23.1391 76.5607 23.2841 76.5607C23.429 76.5607 23.5476 76.5321 23.5476 76.4972C23.5476 76.4621 23.6563 76.3873 23.7892 76.3308C23.9234 76.2738 24.1188 76.0685 24.2286 75.8691L24.4265 75.5099L24.4263 69.0583C24.426 64.8135 24.396 62.6067 24.3382 62.6067C24.2899 62.6067 24.2504 62.5487 24.2504 62.4779C24.2504 62.3131 23.6827 61.7661 23.5118 61.7661C23.4407 61.7661 23.3579 61.7283 23.328 61.682C23.2522 61.5648 21.9594 61.586 21.753 61.7081ZM28.7304 61.682C28.7304 61.7283 28.6697 61.7661 28.5957 61.7661C28.4451 61.7661 27.8519 62.3003 27.8519 62.4359C27.8519 62.4836 27.8124 62.5226 27.7641 62.5226C27.7158 62.5226 27.6762 62.6527 27.6762 62.8118C27.6762 62.9709 27.6367 63.1245 27.5884 63.1531C27.5311 63.1869 27.5006 65.2695 27.5006 69.1264C27.5006 73.0178 27.5306 75.0476 27.5884 75.0476C27.6367 75.0476 27.6762 75.1989 27.6762 75.3838C27.6762 75.5688 27.7158 75.7201 27.7641 75.7201C27.8124 75.7201 27.8519 75.7785 27.8519 75.85C27.8519 76.0181 28.2433 76.3926 28.419 76.3926C28.4936 76.3926 28.5547 76.4304 28.5547 76.4766C28.5547 76.5229 28.6733 76.5607 28.8182 76.5607C28.9631 76.5607 29.0817 76.5985 29.0817 76.6447C29.0817 76.691 29.2596 76.7288 29.477 76.7288C29.6944 76.7288 29.8723 76.691 29.8723 76.6447C29.8723 76.5985 29.9909 76.5607 30.1358 76.5607C30.2808 76.5607 30.3994 76.5229 30.3994 76.4766C30.3994 76.4304 30.4639 76.3926 30.5428 76.3926C30.7033 76.3926 31.1019 75.988 31.1021 75.8252C31.1021 75.7674 31.1416 75.7201 31.19 75.7201C31.2477 75.7201 31.2778 73.4784 31.2778 69.1634C31.2778 64.8484 31.2477 62.6067 31.19 62.6067C31.1416 62.6067 31.1021 62.5487 31.1021 62.4779C31.1021 62.3106 30.5331 61.7661 30.3583 61.7661C30.2843 61.7661 30.2237 61.7283 30.2237 61.682C30.2237 61.6327 29.9162 61.598 29.477 61.598C29.0378 61.598 28.7304 61.6327 28.7304 61.682ZM12.7429 65.2966C12.7429 65.3429 12.8035 65.3807 12.8775 65.3807C13.0523 65.3807 13.6213 65.9252 13.6213 66.0925C13.6213 66.1633 13.6609 66.2213 13.7092 66.2213C13.7661 66.2213 13.797 67.258 13.797 69.1634C13.797 71.0688 13.7661 72.1055 13.7092 72.1055C13.6609 72.1055 13.6213 72.1639 13.6213 72.2354C13.6213 72.4029 13.2987 72.7042 12.9625 72.8509C12.8176 72.9139 12.6302 72.9991 12.5464 73.04C12.341 73.1401 12.0402 73.1342 12.0402 73.0302C12.0402 72.9839 11.9402 72.9461 11.8181 72.9461C11.5155 72.9461 10.8104 72.2713 10.8104 71.9817C10.8104 71.8649 10.7708 71.7693 10.7225 71.7693C10.6659 71.7693 10.6347 70.8446 10.6347 69.1634C10.6347 67.4822 10.6659 66.5575 10.7225 66.5575C10.7708 66.5575 10.8104 66.444 10.8104 66.3054C10.8104 66.1666 10.8499 66.0532 10.8982 66.0532C10.9465 66.0532 10.986 65.9914 10.986 65.9159C10.986 65.7623 11.4088 65.3809 11.579 65.3807C11.6394 65.3807 11.6888 65.3429 11.6888 65.2966C11.6888 65.25 11.9231 65.2126 12.2158 65.2126C12.5086 65.2126 12.7429 65.25 12.7429 65.2966Z" fill="white"/>
</svg>
