<svg width="278" height="253" viewBox="0 0 278 253" fill="none" xmlns="http://www.w3.org/2000/svg">
<g clip-path="url(#clip0_1017_2585)">
<path d="M32.3622 202.88C14.9757 178.041 -24.7939 105.361 55.3699 83.6445C135.534 61.9283 109.871 -0.105533 168.433 0.807831C226.994 1.7212 284.469 50.9679 277.409 97.6994C270.348 144.431 206.091 140.716 188.127 188.995C170.164 237.274 62.9531 246.571 32.3622 202.88Z" fill="#79D900"/>
<path opacity="0.7" d="M32.3622 203.118C14.9757 178.28 -24.7939 105.599 55.3699 83.8831C135.534 62.1669 109.871 0.133069 168.433 1.03962C226.994 1.94617 284.469 51.2065 277.409 97.938C270.348 144.67 206.125 140.955 188.127 189.227C170.13 237.499 62.9531 246.81 32.3622 203.118Z" fill="white"/>
<path d="M232.135 91.0675C234.998 90.3915 237.597 88.8781 239.603 86.7188L244.389 88.3479L246.772 84.1969L242.984 80.8501C243.835 78.0186 243.835 74.9979 242.984 72.1663L246.772 68.8196L244.389 64.6618L239.603 66.2908C237.598 64.1312 234.998 62.6197 232.135 61.9489L231.144 56.9731H228.754" stroke="#263238" stroke-miterlimit="10"/>
<path d="M226.348 56.9731L225.357 61.9489C222.494 62.6212 219.895 64.1325 217.889 66.2908L213.137 64.6618L210.754 68.8196L214.542 72.1663C213.691 74.9979 213.691 78.0186 214.542 80.8501L210.734 84.1969L213.117 88.3479L217.869 86.7188C219.876 88.8768 222.475 90.3899 225.337 91.0676L226.328 96.0365H231.08L232.072 91.0676" stroke="#263238" stroke-miterlimit="10"/>
<path d="M228.448 84.5036C219.935 83.9038 218.339 71.4575 226.846 69.2695" stroke="#263238" stroke-miterlimit="10"/>
<path d="M233.818 70.9873C238.054 74.8793 236.717 82.4862 231.103 84.2039" stroke="#263238" stroke-miterlimit="10"/>
<path d="M229.743 69.0986C230.483 69.1868 231.207 69.3867 231.888 69.6917" stroke="#263238" stroke-miterlimit="10"/>
<path d="M257.499 94.8511L258.503 93.6446C260.375 94.1596 262.356 94.1098 264.199 93.5015L266.453 95.9484" stroke="#263238" stroke-miterlimit="10"/>
<path d="M253.785 75.9634L254.226 77.1562C252.847 78.5249 251.902 80.2728 251.511 82.1797L248.272 82.9227L248.347 86.0786L251.626 86.6511C251.871 87.5876 252.251 88.4831 252.753 89.3094C253.256 90.1356 253.878 90.8822 254.6 91.5247L253.615 94.7146L256.378 96.221" stroke="#263238" stroke-miterlimit="10"/>
<path d="M266.451 95.9474L269.119 94.2979L267.979 91.1624C269.356 89.7923 270.301 88.045 270.694 86.1389L273.933 85.4028L273.851 82.2469L270.579 81.6744C270.089 79.7905 269.055 78.0945 267.605 76.8008L268.59 73.6109L265.827 72.1045L263.688 74.6674C261.82 74.1455 259.839 74.1953 257.999 74.8105L255.738 72.3635L253.057 74.013" stroke="#263238" stroke-miterlimit="10"/>
<path d="M266.053 82.997C266.983 86.9095 263.277 90.6788 259.359 89.0907C255.625 87.5707 255.082 82.07 258.551 79.957" stroke="#263238" stroke-miterlimit="10"/>
<path d="M262.848 79.48C263.629 79.7581 264.328 80.2265 264.884 80.8432" stroke="#263238" stroke-miterlimit="10"/>
<path d="M47.6781 160.483L52.7834 165.602C52.5667 166.517 52.587 167.472 52.8422 168.377C53.0973 169.282 53.579 170.106 54.2412 170.771C54.9035 171.436 55.7242 171.919 56.6253 172.175C57.5264 172.432 58.4779 172.452 59.389 172.234L56.1846 169.024L57.0536 165.766L60.2919 164.893L63.4963 168.111C63.713 167.196 63.6927 166.241 63.4375 165.336C63.1824 164.431 62.7007 163.607 62.0385 162.942C61.3762 162.277 60.5555 161.794 59.6544 161.537C58.7533 161.281 57.8018 161.261 56.8907 161.478L52.1927 156.762" stroke="#263238" stroke-miterlimit="10"/>
<path d="M44.733 149.291L40.0554 144.595C40.263 143.682 40.2358 142.731 39.9764 141.831C39.717 140.931 39.2339 140.113 38.5726 139.452C37.9113 138.792 37.0935 138.311 36.1961 138.055C35.2988 137.799 34.3513 137.777 33.443 137.99L36.6473 141.207L35.7783 144.459L32.54 145.331L29.3357 142.08C29.1211 142.995 29.143 143.95 29.3993 144.855C29.6556 145.76 30.1378 146.583 30.8001 147.248C31.4624 147.913 32.283 148.397 33.1839 148.655C34.0848 148.912 35.0363 148.934 35.9481 148.719L40.6256 153.415" stroke="#263238" stroke-miterlimit="10"/>
<path d="M49.9868 154.233L56.511 147.682C56.8332 147.361 57.2016 147.09 57.604 146.878L58.9143 146.196L63.6665 140.743L60.6998 137.812L55.2686 142.584L54.5897 143.899C54.383 144.306 54.1125 144.676 53.7886 144.997L48.6155 150.197" stroke="#263238" stroke-miterlimit="10"/>
<path d="M32.6203 171.39C33.0632 171.672 33.5917 171.788 34.1115 171.715C34.6313 171.643 35.1086 171.387 35.4581 170.994L46.7617 159.645C47.0316 159.401 47.2355 159.093 47.3543 158.748C47.473 158.404 47.5027 158.035 47.4406 157.675L49.4026 155.706L49.5248 155.821C49.5917 155.89 49.6715 155.944 49.7595 155.981C49.8475 156.018 49.942 156.037 50.0373 156.037C50.1327 156.037 50.2272 156.018 50.3152 155.981C50.4032 155.944 50.483 155.89 50.5499 155.821C50.6839 155.684 50.7588 155.499 50.7588 155.307C50.7588 155.114 50.6839 154.93 50.5499 154.792L46.6802 150.907C46.5434 150.771 46.3581 150.694 46.1653 150.695C45.9724 150.695 45.7876 150.773 45.6517 150.91C45.5158 151.048 45.4397 151.234 45.4404 151.427C45.441 151.621 45.5182 151.807 45.6551 151.943L45.7773 152.059L43.8153 154.029C43.4575 153.966 43.0896 153.995 42.7464 154.115C42.4031 154.234 42.0957 154.439 41.8533 154.71L30.5633 166.107C30.3034 166.339 30.1025 166.631 29.9773 166.957C29.8522 167.283 29.8063 167.634 29.8437 167.981" stroke="#263238" stroke-miterlimit="10"/>
<path d="M30.2997 169.18C30.5647 169.605 30.8792 169.996 31.2366 170.346C31.6346 170.767 32.0921 171.128 32.5943 171.416" stroke="#263238" stroke-miterlimit="10"/>
<path d="M33.7756 167.974L35.7512 165.991" stroke="#263238" stroke-miterlimit="10"/>
<path d="M38.4193 163.312L46.7697 154.75" stroke="#263238" stroke-miterlimit="10"/>
<path d="M220.621 18.5435H39.6279V136.599H220.621V18.5435Z" fill="white"/>
<path d="M220.621 18.5435H39.6279V136.599H58.7659H89.1057H220.621V18.5435Z" fill="#BFBFBF"/>
<path d="M220.621 18.5435H39.6279V33.9889H220.621V18.5435Z" fill="white"/>
<path d="M220.621 18.5435H39.6279V33.9889H220.621V18.5435Z" fill="#757575"/>
<path d="M215.075 21.0044H208.15C207.168 21.0044 206.371 21.8039 206.371 22.7902V29.7427C206.371 30.729 207.168 31.5285 208.15 31.5285H215.075C216.057 31.5285 216.853 30.729 216.853 29.7427V22.7902C216.853 21.8039 216.057 21.0044 215.075 21.0044Z" fill="white"/>
<path d="M202.217 21.0044H195.319C194.329 21.0044 193.527 21.81 193.527 22.8039V29.7291C193.527 30.7229 194.329 31.5285 195.319 31.5285H202.217C203.207 31.5285 204.009 30.7229 204.009 29.7291V22.8039C204.009 21.81 203.207 21.0044 202.217 21.0044Z" fill="white"/>
<path d="M189.378 21.0044H182.453C181.471 21.0044 180.674 21.8039 180.674 22.7902V29.7427C180.674 30.729 181.471 31.5285 182.453 31.5285H189.378C190.36 31.5285 191.156 30.729 191.156 29.7427V22.7902C191.156 21.8039 190.36 21.0044 189.378 21.0044Z" fill="white"/>
<path d="M210.287 40.8047H49.9597C48.0025 40.8047 46.4159 42.3977 46.4159 44.3627V126.225C46.4159 128.19 48.0025 129.783 49.9597 129.783H210.287C212.244 129.783 213.831 128.19 213.831 126.225V44.3627C213.831 42.3977 212.244 40.8047 210.287 40.8047Z" fill="#263238" stroke="#263238" stroke-linecap="round" stroke-linejoin="round"/>
<path d="M209.366 28.5225L213.86 24.0034" stroke="#263238" stroke-linecap="round" stroke-linejoin="round"/>
<path d="M209.366 24.0034L213.86 28.5225" stroke="#263238" stroke-linecap="round" stroke-linejoin="round"/>
<path d="M201.76 25.2979H195.765V29.2717H201.76V25.2979Z" stroke="#263238" stroke-linecap="round" stroke-linejoin="round"/>
<path d="M188.915 29.272H182.921" stroke="#263238" stroke-linecap="round" stroke-linejoin="round"/>
<path d="M203.308 101.291H191.407C191.047 101.291 190.702 101.148 190.447 100.892C190.192 100.636 190.049 100.29 190.049 99.9282C190.049 99.5666 190.192 99.2199 190.447 98.9642C190.702 98.7086 191.047 98.5649 191.407 98.5649H203.308C203.668 98.5649 204.014 98.7086 204.268 98.9642C204.523 99.2199 204.666 99.5666 204.666 99.9282C204.666 100.29 204.523 100.636 204.268 100.892C204.014 101.148 203.668 101.291 203.308 101.291Z" fill="#757575"/>
<path d="M203.309 110.725H170.091C169.731 110.725 169.385 110.581 169.131 110.326C168.876 110.07 168.733 109.723 168.733 109.362C168.733 109 168.876 108.653 169.131 108.398C169.385 108.142 169.731 107.999 170.091 107.999H203.309C203.669 107.999 204.015 108.142 204.269 108.398C204.524 108.653 204.667 109 204.667 109.362C204.667 109.723 204.524 110.07 204.269 110.326C204.015 110.581 203.669 110.725 203.309 110.725Z" fill="#757575"/>
<path d="M203.307 120.152H130.122C129.762 120.152 129.417 120.009 129.162 119.753C128.908 119.497 128.765 119.151 128.765 118.789C128.765 118.427 128.908 118.081 129.162 117.825C129.417 117.569 129.762 117.426 130.122 117.426H203.307C203.667 117.426 204.013 117.569 204.267 117.825C204.522 118.081 204.665 118.427 204.665 118.789C204.665 119.151 204.522 119.497 204.267 119.753C204.013 120.009 203.667 120.152 203.307 120.152Z" fill="#757575"/>
<path d="M58.9773 91.8651H53.4308C53.0707 91.8651 52.7253 91.7215 52.4707 91.4659C52.216 91.2102 52.073 90.8635 52.073 90.5019C52.073 90.1404 52.216 89.7936 52.4707 89.538C52.7253 89.2823 53.0707 89.1387 53.4308 89.1387H58.9773C59.3374 89.1387 59.6828 89.2823 59.9374 89.538C60.1921 89.7936 60.3351 90.1404 60.3351 90.5019C60.3351 90.8635 60.1921 91.2102 59.9374 91.4659C59.6828 91.7215 59.3374 91.8651 58.9773 91.8651Z" fill="#BFBFBF"/>
<path d="M58.9773 101.291H53.4308C53.0707 101.291 52.7253 101.148 52.4707 100.892C52.216 100.636 52.073 100.29 52.073 99.9282C52.073 99.5666 52.216 99.2199 52.4707 98.9642C52.7253 98.7086 53.0707 98.5649 53.4308 98.5649H58.9773C59.3374 98.5649 59.6828 98.7086 59.9374 98.9642C60.1921 99.2199 60.3351 99.5666 60.3351 99.9282C60.3351 100.29 60.1921 100.636 59.9374 100.892C59.6828 101.148 59.3374 101.291 58.9773 101.291Z" fill="#BFBFBF"/>
<path d="M58.9773 110.725H53.4308C53.0707 110.725 52.7253 110.581 52.4707 110.326C52.216 110.07 52.073 109.723 52.073 109.362C52.073 109 52.216 108.653 52.4707 108.398C52.7253 108.142 53.0707 107.999 53.4308 107.999H58.9773C59.3374 107.999 59.6828 108.142 59.9374 108.398C60.1921 108.653 60.3351 109 60.3351 109.362C60.3351 109.723 60.1921 110.07 59.9374 110.326C59.6828 110.581 59.3374 110.725 58.9773 110.725Z" fill="#BFBFBF"/>
<path d="M58.9773 120.152H53.4308C53.0707 120.152 52.7253 120.009 52.4707 119.753C52.216 119.497 52.073 119.151 52.073 118.789C52.073 118.427 52.216 118.081 52.4707 117.825C52.7253 117.569 53.0707 117.426 53.4308 117.426H58.9773C59.3374 117.426 59.6828 117.569 59.9374 117.825C60.1921 118.081 60.3351 118.427 60.3351 118.789C60.3351 119.151 60.1921 119.497 59.9374 119.753C59.6828 120.009 59.3374 120.152 58.9773 120.152Z" fill="#BFBFBF"/>
<g opacity="0.7">
<path opacity="0.7" d="M58.9773 91.8651H53.4308C53.0707 91.8651 52.7253 91.7215 52.4707 91.4659C52.216 91.2102 52.073 90.8635 52.073 90.5019C52.073 90.1404 52.216 89.7936 52.4707 89.538C52.7253 89.2823 53.0707 89.1387 53.4308 89.1387H58.9773C59.3374 89.1387 59.6828 89.2823 59.9374 89.538C60.1921 89.7936 60.3351 90.1404 60.3351 90.5019C60.3351 90.8635 60.1921 91.2102 59.9374 91.4659C59.6828 91.7215 59.3374 91.8651 58.9773 91.8651Z" fill="#BFBFBF"/>
</g>
<g opacity="0.7">
<path opacity="0.7" d="M58.9773 101.291H53.4308C53.0707 101.291 52.7253 101.148 52.4707 100.892C52.216 100.636 52.073 100.29 52.073 99.9282C52.073 99.5666 52.216 99.2199 52.4707 98.9642C52.7253 98.7086 53.0707 98.5649 53.4308 98.5649H58.9773C59.3374 98.5649 59.6828 98.7086 59.9374 98.9642C60.1921 99.2199 60.3351 99.5666 60.3351 99.9282C60.3351 100.29 60.1921 100.636 59.9374 100.892C59.6828 101.148 59.3374 101.291 58.9773 101.291Z" fill="#BFBFBF"/>
</g>
<g opacity="0.7">
<path opacity="0.7" d="M58.9773 110.725H53.4308C53.0707 110.725 52.7253 110.581 52.4707 110.326C52.216 110.07 52.073 109.723 52.073 109.362C52.073 109 52.216 108.653 52.4707 108.398C52.7253 108.142 53.0707 107.999 53.4308 107.999H58.9773C59.3374 107.999 59.6828 108.142 59.9374 108.398C60.1921 108.653 60.3351 109 60.3351 109.362C60.3351 109.723 60.1921 110.07 59.9374 110.326C59.6828 110.581 59.3374 110.725 58.9773 110.725Z" fill="#BFBFBF"/>
</g>
<g opacity="0.7">
<path opacity="0.7" d="M58.9773 120.152H53.4308C53.0707 120.152 52.7253 120.009 52.4707 119.753C52.216 119.497 52.073 119.151 52.073 118.789C52.073 118.427 52.216 118.081 52.4707 117.825C52.7253 117.569 53.0707 117.426 53.4308 117.426H58.9773C59.3374 117.426 59.6828 117.569 59.9374 117.825C60.1921 118.081 60.3351 118.427 60.3351 118.789C60.3351 119.151 60.1921 119.497 59.9374 119.753C59.6828 120.009 59.3374 120.152 58.9773 120.152Z" fill="#BFBFBF"/>
</g>
<path d="M170.092 82.4311H53.4308C53.0707 82.4311 52.7253 82.2874 52.4707 82.0318C52.216 81.7761 52.073 81.4294 52.073 81.0678C52.073 80.7063 52.216 80.3595 52.4707 80.1039C52.7253 79.8482 53.0707 79.7046 53.4308 79.7046H170.092C170.452 79.7046 170.797 79.8482 171.052 80.1039C171.307 80.3595 171.45 80.7063 171.45 81.0678C171.45 81.4294 171.307 81.7761 171.052 82.0318C170.797 82.2874 170.452 82.4311 170.092 82.4311Z" fill="#BFBFBF"/>
<path d="M203.308 63.578H191.407C191.047 63.578 190.702 63.4344 190.447 63.1787C190.192 62.9231 190.049 62.5763 190.049 62.2148C190.049 61.8532 190.192 61.5065 190.447 61.2508C190.702 60.9952 191.047 60.8516 191.407 60.8516H203.308C203.668 60.8516 204.014 60.9952 204.268 61.2508C204.523 61.5065 204.666 61.8532 204.666 62.2148C204.666 62.5763 204.523 62.9231 204.268 63.1787C204.014 63.4344 203.668 63.578 203.308 63.578Z" fill="#BFBFBF"/>
<path d="M186.431 63.578H175.067C174.707 63.578 174.361 63.4344 174.107 63.1787C173.852 62.9231 173.709 62.5763 173.709 62.2148C173.709 61.8532 173.852 61.5065 174.107 61.2508C174.361 60.9952 174.707 60.8516 175.067 60.8516H186.431C186.791 60.8516 187.137 60.9952 187.391 61.2508C187.646 61.5065 187.789 61.8532 187.789 62.2148C187.789 62.5763 187.646 62.9231 187.391 63.1787C187.137 63.4344 186.791 63.578 186.431 63.578Z" fill="#BFBFBF"/>
<path d="M170.092 63.578H53.4308C53.0707 63.578 52.7253 63.4344 52.4707 63.1787C52.216 62.9231 52.073 62.5763 52.073 62.2148C52.073 61.8532 52.216 61.5065 52.4707 61.2508C52.7253 60.9952 53.0707 60.8516 53.4308 60.8516H170.092C170.452 60.8516 170.797 60.9952 171.052 61.2508C171.307 61.5065 171.45 61.8532 171.45 62.2148C171.45 62.5763 171.307 62.9231 171.052 63.1787C170.797 63.4344 170.452 63.578 170.092 63.578Z" fill="#BFBFBF"/>
<path d="M203.308 91.8651H191.407C191.047 91.8651 190.702 91.7215 190.447 91.4659C190.192 91.2102 190.049 90.8635 190.049 90.5019C190.049 90.1404 190.192 89.7936 190.447 89.538C190.702 89.2823 191.047 89.1387 191.407 89.1387H203.308C203.668 89.1387 204.014 89.2823 204.268 89.538C204.523 89.7936 204.666 90.1404 204.666 90.5019C204.666 90.8635 204.523 91.2102 204.268 91.4659C204.014 91.7215 203.668 91.8651 203.308 91.8651Z" fill="#999999"/>
<path d="M186.432 91.8651H65.0867C64.7266 91.8651 64.3812 91.7215 64.1266 91.4659C63.8719 91.2102 63.7289 90.8635 63.7289 90.5019C63.7289 90.1404 63.8719 89.7936 64.1266 89.538C64.3812 89.2823 64.7266 89.1387 65.0867 89.1387H186.432C186.792 89.1387 187.138 89.2823 187.392 89.538C187.647 89.7936 187.79 90.1404 187.79 90.5019C187.79 90.8635 187.647 91.2102 187.392 91.4659C187.138 91.7215 186.792 91.8651 186.432 91.8651Z" fill="#999999"/>
<path d="M99.9343 101.291H65.0867C64.7266 101.291 64.3812 101.148 64.1266 100.892C63.8719 100.636 63.7289 100.29 63.7289 99.9282C63.7289 99.5666 63.8719 99.2199 64.1266 98.9642C64.3812 98.7086 64.7266 98.5649 65.0867 98.5649H99.9343C100.294 98.5649 100.64 98.7086 100.894 98.9642C101.149 99.2199 101.292 99.5666 101.292 99.9282C101.292 100.29 101.149 100.636 100.894 100.892C100.64 101.148 100.294 101.291 99.9343 101.291Z" fill="#999999"/>
<path d="M99.9343 110.725H65.0867C64.7266 110.725 64.3812 110.581 64.1266 110.326C63.8719 110.07 63.7289 109.723 63.7289 109.362C63.7289 109 63.8719 108.653 64.1266 108.398C64.3812 108.142 64.7266 107.999 65.0867 107.999H99.9343C100.294 107.999 100.64 108.142 100.894 108.398C101.149 108.653 101.292 109 101.292 109.362C101.292 109.723 101.149 110.07 100.894 110.326C100.64 110.581 100.294 110.725 99.9343 110.725Z" fill="#999999"/>
<path d="M99.9343 120.152H65.0867C64.7266 120.152 64.3812 120.009 64.1266 119.753C63.8719 119.497 63.7289 119.151 63.7289 118.789C63.7289 118.427 63.8719 118.081 64.1266 117.825C64.3812 117.569 64.7266 117.426 65.0867 117.426H99.9343C100.294 117.426 100.64 117.569 100.894 117.825C101.149 118.081 101.292 118.427 101.292 118.789C101.292 119.151 101.149 119.497 100.894 119.753C100.64 120.009 100.294 120.152 99.9343 120.152Z" fill="#999999"/>
<path d="M77.0486 241.078C77.0486 241.078 73.4912 247.212 74.8897 247.451C76.2882 247.689 79.2278 242.352 79.2278 242.352L87.2727 240.233L81.2102 239.605L77.0486 241.078Z" fill="white" stroke="#263238" stroke-linecap="round" stroke-linejoin="round"/>
<path opacity="0.3" d="M77.0486 241.078C77.0486 241.078 73.4912 247.212 74.8897 247.451C76.2882 247.689 79.2278 242.352 79.2278 242.352L87.2727 240.233L81.2102 239.605L77.0486 241.078Z" fill="black" stroke="#263238" stroke-linecap="round" stroke-linejoin="round"/>
<path d="M79.7565 236.879C79.7565 236.879 74.7734 235.693 73.402 238.037C72.0307 240.382 67.9709 247.341 69.5052 248.132C71.0395 248.923 72.3361 246.36 72.3361 246.36L79.7565 236.879Z" fill="white" stroke="#263238" stroke-linecap="round" stroke-linejoin="round"/>
<path d="M100.139 244.009C96.8704 245.143 93.3871 245.512 89.9552 245.086L84.2865 246.981C84.2865 246.981 79.3034 249.442 76.9816 248.201C74.6598 246.96 82.8879 244.22 82.8879 244.22C82.8879 244.22 88.4209 241.814 86.7712 241.235C85.1215 240.656 78.8757 240.771 77.6537 241.712C76.4317 242.653 73.2069 248.78 70.8648 248.426C68.5226 248.072 71.8424 244.745 72.6774 243.464C73.5124 242.182 75.393 237.07 79.1676 236.852C82.9423 236.634 95.7123 237.295 95.7123 237.295L110.709 235.687L114.246 244.254L100.139 244.009Z" fill="white" stroke="#263238" stroke-linecap="round" stroke-linejoin="round"/>
<path d="M107.964 246.128C108.382 246.429 108.885 246.588 109.4 246.581C109.914 246.573 110.413 246.4 110.822 246.087C111.274 246.281 111.773 246.336 112.256 246.246C112.739 246.156 113.185 245.926 113.538 245.583C114.631 244.376 114.726 233.791 111.698 232.598C110.822 232.257 108.636 232.291 108.303 233.518C108.07 233.423 107.818 233.385 107.567 233.406C107.316 233.427 107.074 233.507 106.859 233.64C106.645 233.773 106.465 233.954 106.334 234.17C106.203 234.386 106.124 234.63 106.104 234.882C105.805 236.79 107.692 238.569 107.061 244.056C107.006 244.452 107.062 244.854 107.221 245.22C107.38 245.586 107.638 245.9 107.964 246.128Z" fill="#79D900" stroke="#263238" stroke-linecap="round" stroke-linejoin="round"/>
<path opacity="0.3" d="M107.964 246.128C108.382 246.429 108.885 246.588 109.4 246.581C109.914 246.573 110.413 246.4 110.822 246.087C111.274 246.281 111.773 246.336 112.256 246.246C112.739 246.156 113.185 245.926 113.538 245.583C114.631 244.376 114.726 233.791 111.698 232.598C110.822 232.257 108.636 232.291 108.303 233.518C108.07 233.423 107.818 233.385 107.567 233.406C107.316 233.427 107.074 233.507 106.859 233.64C106.645 233.773 106.465 233.954 106.334 234.17C106.203 234.386 106.124 234.63 106.104 234.882C105.805 236.79 107.692 238.569 107.061 244.056C107.006 244.452 107.062 244.854 107.221 245.22C107.38 245.586 107.638 245.9 107.964 246.128Z" fill="black" stroke="#263238" stroke-linecap="round" stroke-linejoin="round"/>
<path d="M111.426 243.641C111.422 240.757 110.812 237.907 109.634 235.277" stroke="#263238" stroke-linecap="round" stroke-linejoin="round"/>
<path d="M182.799 239.817C182.297 243.695 181.727 247.894 181.075 252.454H122.799L123.077 244.915C119.594 245.761 112.826 245.243 112.826 245.243V234.098C116.94 231.76 117.578 232.415 117.578 232.415C117.578 232.415 117.788 205.218 120.253 198.429C121.193 195.873 122.871 193.656 125.073 192.063C125.659 191.625 126.274 191.226 126.913 190.87L127.001 190.816C127.68 190.454 128.501 190.073 129.438 189.677L129.696 189.575C138.821 185.833 158.732 181.491 177.287 189.452C178.583 190.011 189.174 195.089 190.077 202.403C190.566 206.609 187.728 227.425 182.799 239.817Z" fill="#79D900"/>
<path opacity="0.2" d="M173.567 206.288L167.756 233.368C166.853 232.652 164.253 232.605 160.967 232.918C161.681 232.13 162.274 231.238 162.725 230.274C171.49 211.188 173.397 206.669 173.567 206.288Z" fill="black"/>
<path opacity="0.2" d="M184.186 236.041C182.77 241.432 181.731 246.917 181.076 252.454H122.8L123.336 243.77C126.968 243.252 133.343 242.72 139.962 241.541C140.47 243.62 140.523 245.785 140.119 247.887C140.119 247.887 166.921 251.227 175.917 249.053C178.483 248.432 180.805 244.833 182.794 239.878C183.276 238.672 183.738 237.383 184.186 236.041Z" fill="black"/>
<path opacity="0.3" d="M118.251 232.925C118.251 232.925 116.941 231.76 112.82 234.098V245.242C112.82 245.242 119.609 245.004 122.27 243.552C124.565 244.976 124.157 218.891 124.565 204.843C121.238 205.763 120.973 212.116 120.457 218.093C120.031 223.079 119.294 228.032 118.251 232.925Z" fill="black"/>
<path d="M182.799 239.817C182.297 243.695 181.727 247.894 181.075 252.454H122.799L123.077 244.915C119.594 245.761 112.826 245.243 112.826 245.243V234.098C116.94 231.76 117.578 232.415 117.578 232.415C117.578 232.415 117.788 205.218 120.253 198.429C121.193 195.873 122.871 193.656 125.073 192.063V192.063C125.659 191.625 126.274 191.226 126.913 190.87L127.001 190.816C127.68 190.454 128.501 190.073 129.438 189.677L129.696 189.575C138.821 185.833 158.732 181.491 177.287 189.452C178.583 190.011 189.174 195.089 190.077 202.403C190.566 206.609 187.728 227.425 182.799 239.817Z" stroke="#263238" stroke-linecap="round" stroke-linejoin="round"/>
<path d="M190.051 202.424C190.051 202.587 190.091 202.778 190.098 202.99C190.397 208.224 187.559 227.978 182.793 239.879C180.804 244.834 178.482 248.433 175.916 249.053C166.921 251.227 140.118 247.888 140.118 247.888C140.818 244.195 140.102 240.372 138.115 237.186C138.115 237.186 164.429 230.724 167.756 233.369L173.581 206.261" stroke="#263238" stroke-linecap="round" stroke-linejoin="round"/>
<path d="M169.589 234.848C171.465 235.753 173.073 237.135 174.253 238.856" stroke="#263238" stroke-linecap="round" stroke-linejoin="round"/>
<path d="M102.553 235.816C102.553 235.816 100.096 235.298 99.0977 236.423C98.0997 237.547 93.8227 243.995 95.2687 245.222C96.7148 246.449 99.6544 239.708 99.6544 239.708L102.553 235.816Z" fill="white" stroke="#263238" stroke-linecap="round" stroke-linejoin="round"/>
<path d="M107.482 235.7C107.482 235.7 102.051 234.527 100.809 236.197C99.5663 237.867 92.7163 246.51 96.9933 246.783L103.782 239.094L107.482 235.7Z" fill="white" stroke="#263238" stroke-linecap="round" stroke-linejoin="round"/>
<path d="M119.797 244.888C119.797 244.888 114.196 246.115 111.922 246.565C109.647 247.015 105.425 249.973 102.926 248.794C100.428 247.614 111.073 243.273 111.073 243.273L114.739 241.793L119.797 244.888Z" fill="#BFBFBF" stroke="#263238" stroke-linecap="round" stroke-linejoin="round"/>
<path d="M124.331 211.243C124.412 209.11 124.487 206.976 124.569 204.843" stroke="#263238" stroke-linecap="round" stroke-linejoin="round"/>
<path d="M122.8 252.454C123.839 239.551 124.226 214.147 124.226 214.147" stroke="#263238" stroke-linecap="round" stroke-linejoin="round"/>
<path d="M140.131 237.929H120.803C120.803 237.929 105.813 233.41 103.321 236.92C100.83 240.43 95.4938 245.781 96.9942 246.783C98.4945 247.785 104.829 240.519 104.829 240.519L110.328 240.567C110.328 240.567 105.664 242.612 104.666 243.607C103.668 244.602 101.502 247.451 102.629 247.955C103.756 248.46 107.463 244.779 107.463 244.779C107.463 244.779 112.955 243.416 114.286 244.097C118.555 246.291 123.495 246.779 128.108 245.461L142.847 247.301L140.131 237.929Z" fill="white" stroke="#263238" stroke-linecap="round" stroke-linejoin="round"/>
<path d="M171.563 215.647C171.03 212.542 171.01 209.372 171.502 206.261" stroke="#263238" stroke-linecap="round" stroke-linejoin="round"/>
<path d="M175.941 199.39C175.941 199.39 185.31 186.999 190.049 202.424" stroke="#263238" stroke-linecap="round" stroke-linejoin="round"/>
<path d="M136.153 236.395C136.485 235.999 136.934 235.72 137.434 235.597C137.935 235.475 138.461 235.515 138.937 235.713C139.326 235.412 139.796 235.233 140.286 235.199C140.777 235.165 141.266 235.278 141.693 235.523C143.051 236.422 145.766 246.647 143.126 248.562C142.365 249.107 140.24 249.618 139.589 248.521C139.385 248.672 139.148 248.772 138.899 248.813C138.649 248.855 138.393 248.837 138.151 248.761C137.91 248.684 137.69 248.552 137.509 248.374C137.328 248.196 137.192 247.978 137.111 247.737C136.35 245.958 137.742 243.77 135.753 238.61C135.612 238.24 135.575 237.837 135.645 237.447C135.716 237.056 135.892 236.692 136.153 236.395Z" fill="#79D900"/>
<path opacity="0.3" d="M136.153 236.395C136.485 235.999 136.934 235.72 137.434 235.597C137.935 235.475 138.461 235.515 138.937 235.713C139.326 235.412 139.796 235.233 140.286 235.199C140.777 235.165 141.266 235.278 141.693 235.523C143.051 236.422 145.766 246.647 143.126 248.562C142.365 249.107 140.24 249.618 139.589 248.521C139.385 248.672 139.148 248.772 138.899 248.813C138.649 248.855 138.393 248.837 138.151 248.761C137.91 248.684 137.69 248.552 137.509 248.374C137.328 248.196 137.192 247.978 137.111 247.737C136.35 245.958 137.742 243.77 135.753 238.61C135.612 238.24 135.575 237.837 135.645 237.447C135.716 237.056 135.892 236.692 136.153 236.395Z" fill="black"/>
<path d="M136.153 236.395C136.485 235.999 136.934 235.72 137.434 235.597C137.935 235.475 138.461 235.515 138.937 235.713C139.326 235.412 139.796 235.233 140.286 235.199C140.777 235.165 141.266 235.278 141.693 235.523C143.051 236.422 145.766 246.647 143.126 248.562C142.365 249.107 140.24 249.618 139.589 248.521C139.385 248.672 139.148 248.772 138.899 248.813C138.649 248.855 138.393 248.837 138.151 248.761C137.91 248.684 137.69 248.552 137.509 248.374C137.328 248.196 137.192 247.978 137.111 247.737C136.35 245.958 137.742 243.77 135.753 238.61C135.612 238.24 135.575 237.837 135.645 237.447C135.716 237.056 135.892 236.692 136.153 236.395V236.395Z" stroke="#263238" stroke-linecap="round" stroke-linejoin="round"/>
<path d="M140.445 241.705C140.685 243.285 140.703 244.891 140.5 246.476" stroke="#263238" stroke-linecap="round" stroke-linejoin="round"/>
<path d="M148.957 211.094C148.944 211.356 148.853 211.609 148.696 211.82C148.539 212.03 148.323 212.189 148.076 212.277C147.829 212.364 147.562 212.376 147.308 212.311C147.054 212.246 146.825 212.107 146.65 211.911C146.475 211.716 146.362 211.472 146.325 211.212C146.288 210.951 146.329 210.686 146.442 210.449C146.555 210.212 146.736 210.014 146.961 209.88C147.187 209.746 147.447 209.682 147.708 209.696C148.055 209.724 148.378 209.885 148.611 210.145C148.843 210.405 148.967 210.744 148.957 211.094Z" fill="white" stroke="#263238" stroke-linecap="round" stroke-linejoin="round"/>
<path d="M147.979 231.679C147.962 231.939 147.869 232.189 147.712 232.396C147.554 232.604 147.339 232.76 147.093 232.845C146.847 232.93 146.582 232.94 146.33 232.874C146.079 232.808 145.852 232.668 145.68 232.473C145.507 232.278 145.396 232.036 145.36 231.777C145.324 231.519 145.365 231.255 145.478 231.02C145.591 230.785 145.771 230.589 145.995 230.456C146.219 230.323 146.477 230.26 146.736 230.274C147.086 230.296 147.414 230.455 147.647 230.718C147.88 230.982 147.999 231.327 147.979 231.679Z" fill="white" stroke="#263238" stroke-linecap="round" stroke-linejoin="round"/>
<path d="M160.104 185.887L159.14 172.152L144.978 175.479L144.204 186.473C143.315 186.582 142.466 186.712 141.631 186.834L145.094 195.171L151.883 196.063L162.704 186.051C161.856 185.982 160.959 185.928 160.104 185.887Z" fill="white"/>
<path d="M144.767 180.305C144.862 190.079 156.233 187.08 159.383 177.319L159.132 172.152L144.977 175.479L144.767 180.305Z" fill="#263238"/>
<path d="M160.104 185.887L159.14 172.152L144.978 175.479L144.204 186.473C143.315 186.582 142.466 186.712 141.631 186.834L145.094 195.171L151.883 196.063L162.704 186.051C161.856 185.982 160.959 185.928 160.104 185.887Z" stroke="#263238" stroke-linecap="round" stroke-linejoin="round"/>
<path d="M136.099 160.559C136.099 160.559 130.925 151.576 130.165 146.838C127.796 132.204 138.312 137.139 138.312 137.139C138.312 137.139 145.78 130.452 155.019 131.625C164.259 132.797 166.73 136.757 172.969 139.191C172.969 139.191 168.285 163.047 162.29 168.405C156.296 173.762 136.099 160.559 136.099 160.559Z" fill="#263238" stroke="#263238" stroke-linecap="round" stroke-linejoin="round"/>
<path d="M138.821 139.313C138.821 139.313 136.493 133.628 142.399 129.286" stroke="#263238" stroke-linecap="round" stroke-linejoin="round"/>
<path d="M148.993 135.898C155.91 132.83 158.999 137.942 166.719 139.306" stroke="#BFBFBF" stroke-miterlimit="10"/>
<path d="M143.648 139.313C144.277 138.519 145.037 137.838 145.895 137.302" stroke="#BFBFBF" stroke-miterlimit="10"/>
<path d="M150.75 141.542C150.75 141.542 153.743 138.659 159.684 142.408C161.476 143.593 163.495 144.391 165.61 144.753" stroke="#BFBFBF" stroke-miterlimit="10"/>
<path d="M159.899 147.785C151.29 148.01 142.397 144.104 142.397 144.104C134.372 148.964 135.567 156.864 135.567 156.864C137.4 175.745 139.878 180.775 148.663 180.775C157.448 180.775 164.59 171.233 165.167 157.635C161.854 157.791 159.899 147.785 159.899 147.785Z" fill="white" stroke="#263238" stroke-linecap="round" stroke-linejoin="round"/>
<path d="M164.429 156.864C164.626 156.571 164.887 156.328 165.194 156.154C165.5 155.981 165.842 155.88 166.194 155.862C167.755 155.862 168.909 157.907 168.359 160.463C167.809 163.019 167.09 165.057 165.528 165.057C165.172 165.044 164.827 164.922 164.541 164.708C164.255 164.493 164.04 164.197 163.926 163.857" fill="white"/>
<path d="M164.429 156.864C164.626 156.571 164.887 156.328 165.194 156.154C165.5 155.981 165.842 155.88 166.194 155.862C167.755 155.862 168.909 157.907 168.359 160.463C167.809 163.019 167.09 165.057 165.528 165.057C165.172 165.044 164.827 164.922 164.541 164.708C164.255 164.493 164.04 164.197 163.926 163.857" stroke="#263238" stroke-linecap="round" stroke-linejoin="round"/>
<path d="M147.316 166.135C147.316 166.135 148.368 167.58 146.352 168.664C144.335 169.747 142.733 169.727 142.217 168.486C141.701 167.246 143.942 156.899 143.942 156.899" stroke="#263238" stroke-linecap="round" stroke-linejoin="round"/>
<path d="M143.601 158.554C142.515 158.002 138.17 156.094 134.042 158.698L134.307 162.706C134.307 162.706 135.828 163.544 139.317 163.544C140.459 163.565 141.599 163.446 142.712 163.189" stroke="#263238" stroke-linecap="round" stroke-linejoin="round"/>
<path d="M147.205 158.698L148.468 162.876C148.468 162.876 148.984 163.558 152.48 163.558C155.976 163.558 157.123 162.719 157.123 162.719L157.022 158.711C157.022 158.711 151.95 155.712 147.205 158.698Z" stroke="#263238" stroke-linecap="round" stroke-linejoin="round"/>
<path d="M143.878 158.698H147.205" stroke="#263238" stroke-linecap="round" stroke-linejoin="round"/>
<path d="M144.583 172.453C146.401 172.973 148.334 172.914 150.116 172.283C151.488 171.763 152.682 170.86 153.558 169.679" stroke="#263238" stroke-linecap="round" stroke-linejoin="round"/>
<path d="M150.118 154.745C154.483 152.938 156.411 155.106 156.411 155.106" stroke="#263238" stroke-linecap="round" stroke-linejoin="round"/>
<path d="M138.596 154.567C139.347 154.207 140.183 154.066 141.009 154.161C141.835 154.257 142.618 154.584 143.267 155.106" stroke="#263238" stroke-linecap="round" stroke-linejoin="round"/>
<path d="M151.856 157.792C152.263 157.792 152.535 158.474 152.535 159.271C152.535 160.069 152.195 160.743 151.802 160.743C151.408 160.743 151.123 160.062 151.123 159.271C151.123 158.48 151.455 157.792 151.856 157.792Z" fill="#263238"/>
<path d="M141.015 157.608C141.416 157.608 141.694 158.29 141.694 159.087C141.694 159.885 141.355 160.559 140.961 160.559C140.567 160.559 140.282 159.878 140.282 159.087C140.282 158.296 140.622 157.608 141.015 157.608Z" fill="#263238"/>
<path d="M133.777 150.083C133.917 150.887 134.145 151.673 134.456 152.427" stroke="#BFBFBF" stroke-miterlimit="10"/>
<path d="M138.983 141.078C134.692 139.92 132.995 142.51 133.314 146.599" stroke="#BFBFBF" stroke-miterlimit="10"/>
<path d="M143.524 185.833L148.752 195.28L161.305 185.335L165.168 185.881L157.021 200.297C156.947 200.427 156.847 200.54 156.728 200.63C156.61 200.721 156.474 200.786 156.329 200.822C156.185 200.858 156.034 200.865 155.887 200.841C155.74 200.818 155.599 200.765 155.473 200.685L148.528 196.282L143.097 199.608C142.938 199.706 142.757 199.762 142.571 199.77C142.385 199.779 142.2 199.74 142.033 199.658C141.866 199.576 141.722 199.453 141.615 199.3C141.507 199.147 141.44 198.969 141.42 198.784L140.062 186.474L143.524 185.833Z" fill="#79D900"/>
<path opacity="0.3" d="M143.063 185.771L148.752 195.28L161.528 185.158L165.371 185.771L157.041 200.296C156.967 200.426 156.867 200.54 156.749 200.63C156.63 200.72 156.494 200.785 156.349 200.822C156.205 200.858 156.055 200.864 155.907 200.841C155.76 200.817 155.619 200.764 155.493 200.685L148.548 196.282L143.117 199.608C142.958 199.705 142.777 199.761 142.591 199.77C142.405 199.779 142.22 199.74 142.053 199.658C141.886 199.575 141.742 199.452 141.635 199.299C141.528 199.147 141.461 198.969 141.44 198.783L140.082 186.473L143.063 185.771Z" fill="black"/>
<path d="M143.524 185.833L148.752 195.28L161.305 185.335L165.168 185.881L157.021 200.297C156.947 200.427 156.847 200.54 156.728 200.63C156.61 200.721 156.474 200.786 156.329 200.822C156.185 200.858 156.034 200.865 155.887 200.841C155.74 200.818 155.599 200.765 155.473 200.685L148.528 196.282L143.097 199.608C142.938 199.706 142.757 199.762 142.571 199.77C142.385 199.779 142.2 199.74 142.033 199.658C141.866 199.576 141.722 199.453 141.615 199.3C141.507 199.147 141.44 198.969 141.42 198.784L140.062 186.474L143.524 185.833Z" stroke="#263238" stroke-linecap="round" stroke-linejoin="round"/>
<path d="M65.6902 247.88H99.7978V252.447H65.6902C65.3301 252.447 64.9847 252.303 64.7301 252.047C64.4754 251.792 64.3324 251.445 64.3324 251.084V249.202C64.343 248.848 64.4907 248.511 64.7442 248.265C64.9977 248.018 65.337 247.88 65.6902 247.88Z" fill="#263238" stroke="#263238" stroke-linecap="round" stroke-linejoin="round"/>
<path d="M129.195 252.454H99.8264V247.887L129.27 249.83C129.505 249.847 129.726 249.953 129.887 250.126C130.048 250.299 130.138 250.527 130.139 250.764V251.52C130.139 251.644 130.115 251.767 130.067 251.881C130.019 251.995 129.95 252.098 129.862 252.185C129.774 252.272 129.67 252.341 129.555 252.387C129.441 252.433 129.319 252.456 129.195 252.454Z" fill="#79D900" stroke="#263238" stroke-linecap="round" stroke-linejoin="round"/>
<path d="M157.04 159.373L164.427 156.864L163.551 157.975" stroke="#263238" stroke-linecap="round" stroke-linejoin="round"/>
<path d="M204.354 167.907C204.354 167.907 195.848 141.828 217.253 140.001C238.659 138.175 241.164 158.187 243.126 168.22C244.66 176.066 259.27 190.414 247.959 201.122C236.16 212.307 207.416 208.572 205.759 192.677C204.103 176.781 205.603 173.523 204.354 167.907Z" fill="#263238" stroke="#263238" stroke-linecap="round" stroke-linejoin="round"/>
<path d="M229.309 172.071C229.309 172.071 228.379 183.659 234.32 193.576C234.32 193.576 226.316 196.2 217.965 193.706C218.311 190.636 218.142 187.53 217.463 184.518L217.178 183.257L223.247 177.988L229.309 172.071Z" fill="white"/>
<path d="M214.617 180.775C215.724 186.998 216.736 188.355 221.99 187.244C225.88 186.419 229.2 180.557 229.39 176.297C229.199 174.363 229.106 172.42 229.112 170.476L223.246 177.974L214.617 180.775Z" fill="#263238"/>
<path d="M229.309 172.071C229.309 172.071 228.379 183.659 234.32 193.576C234.32 193.576 226.316 196.2 217.965 193.706C218.311 190.636 218.142 187.53 217.463 184.518L217.178 183.257L223.247 177.988L229.309 172.071Z" stroke="#263238" stroke-linecap="round" stroke-linejoin="round"/>
<path d="M169.749 238.236C169.749 238.236 157.902 232.783 157.237 237.295C156.572 241.808 159.471 248.774 170.319 245.345L193.083 248.358C193.083 248.358 196.979 240.567 192.818 236.321C192.811 236.321 172.757 239.449 169.749 238.236Z" fill="white" stroke="#263238" stroke-linecap="round" stroke-linejoin="round"/>
<path d="M151.494 243.116C151.494 243.116 149.62 243.723 149.342 244.97C149.063 246.218 148.459 247.983 149.179 247.99C149.898 247.997 150.774 245.509 150.774 245.509L152.6 245.032L151.494 243.116Z" fill="white" stroke="#263238" stroke-linecap="round" stroke-linejoin="round"/>
<path d="M163.906 231.277L151.59 232.572L153.428 250.184L165.743 248.889L163.906 231.277Z" fill="white" stroke="#263238" stroke-linecap="round" stroke-linejoin="round"/>
<path d="M151.583 232.571L149.747 232.765L151.584 250.377L153.421 250.184L151.583 232.571Z" fill="#79D900" stroke="#263238" stroke-linecap="round" stroke-linejoin="round"/>
<path d="M160.592 228.727C159.888 228.809 159.244 229.165 158.797 229.718C158.351 230.27 158.137 230.977 158.202 231.685C158.212 231.747 158.226 231.809 158.243 231.869L158.861 231.808L159.539 231.74C159.524 231.677 159.513 231.613 159.505 231.549C159.479 231.305 159.517 231.058 159.616 230.833C159.715 230.609 159.871 230.414 160.069 230.27C160.267 230.125 160.499 230.035 160.742 230.009C160.985 229.983 161.231 230.022 161.454 230.122C161.678 230.221 161.871 230.378 162.015 230.577C162.159 230.776 162.248 231.009 162.273 231.253C162.299 231.497 162.26 231.744 162.16 231.968C162.06 232.193 161.903 232.386 161.705 232.53C161.784 232.75 161.924 232.942 162.108 233.084C162.292 233.227 162.512 233.314 162.744 233.335C163.146 232.947 163.417 232.443 163.52 231.893C163.623 231.343 163.552 230.774 163.317 230.267C163.082 229.759 162.695 229.338 162.21 229.062C161.725 228.786 161.166 228.669 160.612 228.727H160.592Z" fill="white" stroke="#263238" stroke-linecap="round" stroke-linejoin="round"/>
<path d="M153.907 236.225L158.144 235.775" stroke="#263238" stroke-linecap="round" stroke-linejoin="round"/>
<path d="M154.109 238.161L162.344 237.295" stroke="#263238" stroke-linecap="round" stroke-linejoin="round"/>
<path d="M154.311 240.103L158.425 239.674" stroke="#263238" stroke-linecap="round" stroke-linejoin="round"/>
<path d="M154.517 242.046L161.394 241.323" stroke="#263238" stroke-linecap="round" stroke-linejoin="round"/>
<path d="M154.721 243.989L158.835 243.552" stroke="#263238" stroke-linecap="round" stroke-linejoin="round"/>
<path d="M154.918 245.924L163.955 244.977" stroke="#263238" stroke-linecap="round" stroke-linejoin="round"/>
<path d="M155.12 247.867L159.357 247.424" stroke="#263238" stroke-linecap="round" stroke-linejoin="round"/>
<path d="M158.31 228.966C157.607 229.05 156.965 229.406 156.52 229.959C156.075 230.511 155.862 231.216 155.927 231.924C155.935 231.988 155.946 232.052 155.961 232.115L156.586 232.047L157.264 231.979C157.244 231.917 157.23 231.853 157.224 231.788C157.21 231.431 157.332 231.083 157.565 230.813C157.798 230.544 158.125 230.374 158.478 230.337C158.832 230.301 159.186 230.401 159.469 230.617C159.751 230.833 159.941 231.15 160 231.501C160.027 231.745 159.987 231.992 159.885 232.215C159.784 232.438 159.624 232.63 159.423 232.769C159.502 232.989 159.642 233.181 159.826 233.323C160.01 233.466 160.231 233.552 160.462 233.574C160.864 233.186 161.135 232.682 161.238 232.132C161.341 231.582 161.27 231.013 161.035 230.505C160.8 229.998 160.413 229.577 159.928 229.301C159.443 229.025 158.885 228.907 158.33 228.966H158.31Z" fill="white" stroke="#263238" stroke-linecap="round" stroke-linejoin="round"/>
<path d="M156.031 229.204C155.328 229.288 154.686 229.644 154.241 230.197C153.795 230.75 153.583 231.455 153.648 232.162C153.648 232.23 153.648 232.285 153.648 232.353L154.273 232.285L154.951 232.217C154.935 232.156 154.921 232.095 154.911 232.033C154.883 231.787 154.92 231.538 155.019 231.312C155.118 231.085 155.274 230.889 155.473 230.743C155.671 230.596 155.905 230.505 156.149 230.479C156.394 230.452 156.642 230.491 156.867 230.591C157.092 230.691 157.287 230.849 157.432 231.049C157.576 231.249 157.666 231.484 157.691 231.73C157.717 231.976 157.677 232.224 157.576 232.45C157.475 232.675 157.317 232.87 157.117 233.014C157.194 233.233 157.332 233.425 157.515 233.567C157.699 233.708 157.919 233.793 158.149 233.812C158.446 233.532 158.674 233.187 158.815 232.804C158.957 232.421 159.008 232.01 158.964 231.603C158.882 230.899 158.529 230.255 157.982 229.807C157.434 229.359 156.735 229.143 156.031 229.204Z" fill="white" stroke="#263238" stroke-linecap="round" stroke-linejoin="round"/>
<path d="M153.757 229.443C153.053 229.526 152.409 229.881 151.962 230.434C151.516 230.987 151.302 231.693 151.367 232.401C151.377 232.466 151.39 232.529 151.408 232.592L152.026 232.524L152.705 232.456C152.69 232.395 152.679 232.334 152.671 232.272C152.644 232.028 152.683 231.781 152.781 231.556C152.88 231.332 153.037 231.137 153.234 230.993C153.432 230.848 153.664 230.758 153.907 230.732C154.15 230.706 154.396 230.745 154.62 230.845C154.843 230.944 155.036 231.101 155.18 231.3C155.324 231.499 155.413 231.732 155.439 231.976C155.464 232.22 155.425 232.467 155.325 232.691C155.225 232.916 155.068 233.109 154.87 233.253C154.95 233.472 155.09 233.663 155.274 233.804C155.458 233.946 155.678 234.031 155.909 234.051C156.203 233.769 156.43 233.424 156.571 233.041C156.712 232.659 156.764 232.249 156.724 231.842C156.642 231.132 156.285 230.482 155.73 230.033C155.175 229.584 154.466 229.372 153.757 229.443Z" fill="white" stroke="#263238" stroke-linecap="round" stroke-linejoin="round"/>
<path d="M150.368 232.51C150.339 232.264 150.376 232.015 150.474 231.788C150.573 231.56 150.729 231.363 150.928 231.217C151.127 231.07 151.361 230.978 151.606 230.952C151.851 230.925 152.099 230.964 152.325 231.064C152.55 231.165 152.745 231.324 152.89 231.525C153.035 231.725 153.124 231.961 153.148 232.207C153.173 232.454 153.132 232.703 153.03 232.928C152.928 233.154 152.769 233.348 152.567 233.492C152.647 233.71 152.787 233.901 152.971 234.043C153.155 234.184 153.375 234.27 153.606 234.289C153.992 233.919 154.258 233.44 154.371 232.916C154.483 232.392 154.437 231.846 154.238 231.349C154.039 230.851 153.697 230.425 153.254 230.125C152.812 229.825 152.29 229.664 151.756 229.664C151.222 229.664 150.7 229.825 150.258 230.125C149.816 230.425 149.473 230.851 149.274 231.349C149.075 231.846 149.029 232.392 149.142 232.916C149.254 233.44 149.52 233.919 149.906 234.289L149.75 232.756L150.429 232.687C150.402 232.631 150.382 232.571 150.368 232.51Z" fill="white" stroke="#263238" stroke-linecap="round" stroke-linejoin="round"/>
<path d="M148.325 237.506C148.441 237.763 148.574 238.011 148.726 238.249C148.595 238.719 148.571 239.212 148.655 239.692C148.74 240.172 148.931 240.627 149.215 241.023C149.215 241.023 149.269 242.966 149.955 243.273C150.64 243.579 151.733 243.954 151.713 243.409C151.693 242.864 151.373 241.235 150.138 240.873C150.138 240.873 151.557 241.153 151.401 240.362C151.244 239.571 150.973 238.426 150.104 238.099L149.636 237.895C149.636 237.895 150.762 238.099 150.667 237.247C150.572 236.395 150.477 235.393 149.832 235.154C149.683 235.1 149.513 235.052 149.337 235.005C148.386 234.78 147.775 236.279 148.325 237.506Z" fill="white" stroke="#263238" stroke-linecap="round" stroke-linejoin="round"/>
<path d="M168.421 238.086C168.421 238.086 167.097 235.141 164.931 233.608C162.766 232.074 161.951 229.089 161.068 229.811C160.186 230.534 160.987 233.703 162.358 234.787C163.73 235.871 162.195 238.29 165.57 241.276" fill="white"/>
<path d="M168.421 238.086C168.421 238.086 167.097 235.141 164.931 233.608C162.766 232.074 161.951 229.089 161.068 229.811C160.186 230.534 160.987 233.703 162.358 234.787C163.73 235.871 162.195 238.29 165.57 241.276" stroke="#263238" stroke-linecap="round" stroke-linejoin="round"/>
<path d="M248.169 246.681C247.87 248.535 247.551 250.459 247.211 252.454H200.653C200.578 251.827 201.019 250.566 201.44 248.364C196.253 250.13 187.183 247.39 187.183 247.39C188.31 244.411 187.53 236.845 187.53 236.845L192.812 235.721C192.812 235.721 195.004 212.668 196.674 206.063C198.446 199.056 208.141 191.409 240.748 193.665C240.748 193.665 255.792 193.379 258.128 203.392C260.327 212.736 248.793 246.251 248.169 246.681Z" fill="#79D900"/>
<path opacity="0.2" d="M201.444 248.372C197.839 249.599 192.374 248.652 189.373 247.957C190.154 247.357 190.642 246.13 190.826 244.549C193.27 244.167 195.714 240.268 197.323 222.546C197.703 218.388 198.518 215.778 199.563 214.019C198.509 218.007 198.467 222.197 199.441 226.206C200.025 228.585 201.858 234.311 202.021 236.683C202.347 240.588 202.153 244.519 201.444 248.372Z" fill="black"/>
<path opacity="0.2" d="M248.164 246.689C247.874 248.543 247.557 250.465 247.213 252.455H200.655C201.49 249.892 203.54 237.691 200.655 230.275C200.539 229.975 210.655 225.708 217.43 227.453C246.147 234.849 236.256 211.02 244.457 206.685L237.383 234.542L233.52 235.776C241.884 236.294 239.467 248.883 239.467 248.883C242.539 249.293 245.65 248.508 248.164 246.689Z" fill="black"/>
<path d="M248.169 246.681C247.87 248.535 247.551 250.459 247.211 252.454H200.653C200.578 251.827 201.019 250.566 201.44 248.365C196.253 250.13 187.183 247.39 187.183 247.39C188.31 244.411 187.53 236.845 187.53 236.845L192.812 235.721C192.812 235.721 195.004 212.668 196.674 206.063C198.446 199.056 208.141 191.409 240.748 193.665C240.748 193.665 255.792 193.379 258.128 203.392C260.327 212.736 248.793 246.251 248.169 246.681Z" stroke="#263238" stroke-linecap="round" stroke-linejoin="round"/>
<path d="M188.4 235.55C188.4 235.55 190.165 236.498 190.742 240.662C191.319 244.827 190.43 248.412 188.129 248.358C185.827 248.303 185.413 247.397 185.888 246.538C186.363 245.679 187.368 244.527 186.601 240.962C185.637 236.498 183.655 236.907 183.655 236.907C183.655 236.907 186.296 234.364 188.4 235.55Z" fill="#79D900" stroke="#263238" stroke-linecap="round" stroke-linejoin="round"/>
<path opacity="0.2" d="M190.824 244.575C190.64 246.129 190.145 247.356 189.371 247.983C189.017 248.261 188.577 248.403 188.129 248.385C185.82 248.331 185.413 247.424 185.888 246.565C186.363 245.706 187.368 244.555 186.601 240.99C185.637 236.525 183.655 236.934 183.655 236.934C183.655 236.934 186.302 234.392 188.407 235.571C188.407 235.571 190.172 236.518 190.749 240.683C190.933 241.972 190.958 243.279 190.824 244.575Z" fill="black"/>
<path d="M232.751 185.335C232.751 185.335 221.047 188.9 215.724 186.999L214.617 194.135C214.617 194.135 219.797 198.661 236.39 193.092L232.751 185.335Z" fill="#79D900" stroke="#263238" stroke-linecap="round" stroke-linejoin="round"/>
<path d="M191.163 233.471C192.555 238.018 193.797 241.651 192.568 242.053C191.34 242.455 190.328 238.706 188.936 234.153C187.545 229.6 186.302 225.973 187.531 225.578C188.76 225.183 189.771 228.918 191.163 233.471Z" fill="#79D900" stroke="#263238" stroke-linecap="round" stroke-linejoin="round"/>
<path d="M188.76 233.58L190.987 232.899C190.661 231.828 190.356 230.806 190.064 229.893L187.844 230.574C188.115 231.494 188.428 232.503 188.76 233.58Z" fill="#263238"/>
<path d="M188.555 227.732C188.555 227.732 189.594 225.64 190.551 227.119C191.508 228.598 191.705 233.09 192.384 233.097" stroke="#263238" stroke-linecap="round" stroke-linejoin="round"/>
<path d="M202.366 205.471C201.517 208.081 200.329 210.924 199.562 214.052C198.507 218.041 198.465 222.231 199.44 226.24C200.023 228.618 201.856 234.344 202.019 236.716C202.343 240.612 202.149 244.534 201.442 248.378C201.021 250.573 200.58 251.834 200.655 252.468" stroke="#263238" stroke-linecap="round" stroke-linejoin="round"/>
<path d="M231.186 236.552C231.186 236.552 212.245 239.149 205.856 239.279C204.879 239.279 201.946 238.938 201.946 238.938L197.404 235.891C197.404 235.891 193.908 235.373 192.19 235.762L190.235 238.331C190.235 238.331 187.798 239.122 189.189 240.976C189.044 241.411 189.028 241.879 189.143 242.323C189.257 242.767 189.497 243.168 189.834 243.478C189.834 243.478 189.943 245.093 191.016 245.74C191.016 245.74 191.226 247.247 192.407 247.676C193.589 248.106 200.982 246.92 203.236 246.279C205.49 245.638 227.35 249.074 235.924 248.862C235.924 248.876 243.27 240.233 231.186 236.552Z" fill="white" stroke="#263238" stroke-linecap="round" stroke-linejoin="round"/>
<path d="M231.475 164.573C231.475 164.573 226.479 166.529 223.519 161.117C222.236 158.773 219.642 153.885 219.642 153.885C218.902 155.801 219.812 158.718 219.812 158.718C218.115 157.975 214.843 157.798 214.843 157.798C213.682 155.848 213.342 151.418 213.342 151.418C211.733 154.144 212.195 157.989 212.195 157.989C209.569 158.243 207.083 159.299 205.073 161.015C205.501 162.753 205.65 165.466 205.508 171.103C205.324 178.458 208.848 180.475 212.297 183.229C215.745 185.983 225.135 187.4 228.38 173.005C228.38 173.005 235.169 170.462 231.856 165.125L231.475 164.573Z" fill="white" stroke="#263238" stroke-linecap="round" stroke-linejoin="round"/>
<path d="M225.911 155.713C226.922 157.904 228.396 159.849 230.23 161.411C232.065 162.973 234.217 164.115 236.535 164.758" stroke="#BFBFBF" stroke-miterlimit="10"/>
<path d="M224.123 150.26C224.282 151.155 224.509 152.037 224.802 152.898" stroke="#BFBFBF" stroke-miterlimit="10"/>
<path d="M227.517 150.593C227.517 150.593 231.373 157.982 237.402 158.159" stroke="#BFBFBF" stroke-miterlimit="10"/>
<path d="M239.336 169.386C239.336 169.386 249.146 185.336 249.146 194.606" stroke="#BFBFBF" stroke-miterlimit="10"/>
<path d="M236.743 173.639C236.743 173.639 239.167 182.534 243.07 186.999" stroke="#BFBFBF" stroke-miterlimit="10"/>
<path d="M205.913 150.512C205.619 151.824 205.426 153.157 205.336 154.499" stroke="#BFBFBF" stroke-miterlimit="10"/>
<path d="M213.947 142.155C213.947 142.155 209.378 143.014 206.398 148.419" stroke="#BFBFBF" stroke-miterlimit="10"/>
<path d="M208.163 183.454C208.163 183.454 208.013 190.611 211.652 194.633" stroke="#BFBFBF" stroke-miterlimit="10"/>
<path d="M214.617 161.554C219.567 160.579 221.732 163.108 221.732 163.108" stroke="#263238" stroke-linecap="round" stroke-linejoin="round"/>
<path d="M206.378 163.647C206.924 163.093 207.578 162.659 208.298 162.371C209.019 162.082 209.791 161.946 210.567 161.97" stroke="#263238" stroke-linecap="round" stroke-linejoin="round"/>
<path d="M217.843 178.206C219.371 177.334 220.219 175.057 220.219 175.057L219.9 175.234C217.909 176.303 215.739 176.996 213.498 177.279C214.022 177.89 214.73 178.311 215.515 178.479C216.3 178.646 217.118 178.55 217.843 178.206V178.206Z" stroke="#263238" stroke-linecap="round" stroke-linejoin="round"/>
<path d="M211.787 173.475C211.142 173.394 209.302 172.521 209.146 171.267C209.099 170.892 209.37 170.551 209.771 170.251C210.564 169.692 211.201 168.94 211.623 168.064C212.044 167.188 212.237 166.219 212.181 165.248C212.181 165.112 212.181 165.03 212.181 165.03" stroke="#263238" stroke-linecap="round" stroke-linejoin="round"/>
<path d="M218.114 163.551C218.583 163.49 219.065 164.274 219.187 165.289C219.309 166.305 219.038 167.171 218.563 167.232C218.087 167.293 217.619 166.509 217.49 165.494C217.361 164.478 217.646 163.606 218.114 163.551Z" fill="#263238"/>
<path d="M209.954 166.489C210.076 167.484 209.804 168.336 209.343 168.39C208.881 168.445 208.412 167.709 208.29 166.693C208.168 165.677 208.44 164.839 208.901 164.785C209.363 164.73 209.831 165.487 209.954 166.489Z" fill="#263238"/>
<path d="M225.147 164.403C225.147 164.403 224.516 162.604 225.236 161.677" stroke="#263238" stroke-linecap="round" stroke-linejoin="round"/>
<path d="M248.163 246.689C245.648 248.511 242.533 249.296 239.459 248.883C239.459 248.883 241.876 236.294 233.512 235.776L237.375 234.542L244.449 206.685" stroke="#263238" stroke-linecap="round" stroke-linejoin="round"/>
<path d="M239.458 234.542C239.458 234.542 243.939 235.728 245.195 239.599" stroke="#263238" stroke-linecap="round" stroke-linejoin="round"/>
<path d="M221.175 189.712C225.439 189.683 229.648 188.754 233.531 186.985" stroke="#263238" stroke-linecap="round" stroke-linejoin="round"/>
<path d="M215.404 189.043C216.362 189.294 217.338 189.467 218.323 189.561" stroke="#263238" stroke-linecap="round" stroke-linejoin="round"/>
<path d="M234.497 197.032C235.705 196.605 236.972 196.103 238.298 195.526" stroke="#263238" stroke-linecap="round" stroke-linejoin="round"/>
<path d="M213.527 197.134C213.527 197.134 218.082 201.476 230.132 198.375" stroke="#263238" stroke-linecap="round" stroke-linejoin="round"/>
<path d="M217.463 218.714C217.463 218.714 218.142 229.19 225.909 233.096" stroke="#263238" stroke-linecap="round" stroke-linejoin="round"/>
<path d="M230.995 236.716C230.995 236.716 232.515 233.349 237.064 235.012C237.064 235.012 241.361 236.498 242.651 240.935C243.941 245.372 242.325 249.333 239.189 249.496C236.052 249.66 235.482 249.414 236.012 248.446C236.568 247.39 236.879 246.22 236.922 245.026C236.964 243.831 236.736 242.642 236.256 241.548C234.308 236.866 230.995 236.716 230.995 236.716Z" fill="#79D900"/>
<g opacity="0.2">
<path opacity="0.2" d="M230.995 236.716C230.995 236.716 232.515 233.349 237.064 235.012C237.064 235.012 241.361 236.498 242.651 240.935C243.941 245.372 242.325 249.333 239.189 249.496C236.052 249.66 235.482 249.414 236.012 248.446C236.568 247.39 236.879 246.22 236.922 245.026C236.964 243.831 236.736 242.642 236.256 241.548C234.308 236.866 230.995 236.716 230.995 236.716Z" fill="black"/>
</g>
<path d="M230.995 236.716C230.995 236.716 232.515 233.349 237.064 235.012C237.064 235.012 241.361 236.498 242.651 240.935C243.941 245.372 242.325 249.333 239.189 249.496C236.052 249.66 235.482 249.414 236.012 248.446C236.568 247.39 236.879 246.22 236.922 245.026C236.964 243.831 236.736 242.642 236.256 241.548C234.308 236.866 230.995 236.716 230.995 236.716Z" stroke="#263238" stroke-linecap="round" stroke-linejoin="round"/>
<path d="M22.9805 222.858C22.9805 222.858 20.6451 202.812 0 210.923C0 210.923 17.5698 210.794 20.5433 225.919L23.2589 225.626L22.9805 222.858Z" fill="#79D900"/>
<path opacity="0.1" d="M22.9805 222.858C22.9805 222.858 20.6451 202.812 0 210.923C0 210.923 17.5698 210.794 20.5433 225.919L23.2589 225.626L22.9805 222.858Z" fill="black"/>
<path d="M23.2656 222.511C23.2656 222.511 21.4801 201.135 17.5901 184.524C17.5901 184.524 29.4707 197.141 26.7551 220.895L23.2656 222.511Z" fill="#79D900"/>
<path opacity="0.1" d="M23.2656 222.511C23.2656 222.511 21.4801 201.135 17.5901 184.524C17.5901 184.524 29.4707 197.141 26.7551 220.895L23.2656 222.511Z" fill="black"/>
<path d="M22.112 236.674C22.112 236.674 18.7175 207.229 7.29175 197.141C7.29175 197.141 27.6585 202.232 24.6578 233.505L22.112 236.674Z" fill="#79D900"/>
<path d="M25.6956 235.461C25.6956 235.461 30.6855 206.24 42.6068 196.759C42.6068 196.759 21.9821 200.739 23.3263 232.135L25.6956 235.461Z" fill="#79D900"/>
<path d="M36.1583 225.878H12.0576V230.084H12.8587V244.923C12.8587 246.914 13.6444 248.825 15.0439 250.237C16.4434 251.648 18.3428 252.446 20.3265 252.455H27.7944C29.7846 252.455 31.6934 251.661 33.1013 250.249C34.5093 248.837 35.3011 246.921 35.3029 244.923V230.084H36.104L36.1583 225.878Z" fill="white" stroke="#263238" stroke-miterlimit="10"/>
<path d="M28.6895 229.885H31.8938H28.6895Z" fill="white"/>
<path d="M28.6895 229.885H31.8938" stroke="#263238" stroke-miterlimit="10"/>
<path d="M16.1245 229.885H25.3982H16.1245Z" fill="white"/>
<path d="M16.1245 229.885H25.3982" stroke="#263238" stroke-miterlimit="10"/>
<path d="M117.726 233.941L111.548 183.433C111.431 182.644 111.041 181.92 110.447 181.39C109.853 180.859 109.092 180.555 108.297 180.53H101.223L109.41 236.824H115.201C115.565 236.831 115.926 236.759 116.259 236.611C116.592 236.464 116.889 236.245 117.13 235.971C117.37 235.696 117.548 235.373 117.651 235.022C117.754 234.672 117.78 234.303 117.726 233.941Z" fill="#79D900" stroke="#263238" stroke-linecap="round" stroke-linejoin="round"/>
<path d="M113.654 236.825H42.4785C41.6847 236.798 40.9253 236.493 40.3323 235.963C39.7394 235.432 39.3505 234.71 39.2334 233.921L33.0555 183.413C33.001 183.051 33.0259 182.682 33.1285 182.331C33.2311 181.98 33.409 181.656 33.6496 181.381C33.8902 181.106 34.1878 180.888 34.5214 180.741C34.8551 180.594 35.2167 180.522 35.581 180.53H106.783C107.577 180.556 108.337 180.861 108.93 181.392C109.522 181.922 109.911 182.645 110.028 183.434L116.206 233.941C116.26 234.305 116.234 234.676 116.129 235.029C116.024 235.381 115.844 235.707 115.601 235.981C115.357 236.256 115.057 236.474 114.72 236.62C114.384 236.766 114.02 236.836 113.654 236.825Z" fill="#263238"/>
<path opacity="0.1" d="M113.654 236.825H42.4785C41.6847 236.798 40.9253 236.493 40.3323 235.963C39.7394 235.432 39.3505 234.71 39.2334 233.921L33.0555 183.413C33.001 183.051 33.0259 182.682 33.1285 182.331C33.2311 181.98 33.409 181.656 33.6496 181.381C33.8902 181.106 34.1878 180.888 34.5214 180.741C34.8551 180.594 35.2167 180.522 35.581 180.53H106.783C107.577 180.556 108.337 180.861 108.93 181.392C109.522 181.922 109.911 182.645 110.028 183.434L116.206 233.941C116.26 234.305 116.234 234.676 116.129 235.029C116.024 235.381 115.844 235.707 115.601 235.981C115.357 236.256 115.057 236.474 114.72 236.62C114.384 236.766 114.02 236.836 113.654 236.825Z" fill="white"/>
<path d="M113.654 236.825H42.4785C41.6847 236.798 40.9253 236.493 40.3323 235.963C39.7394 235.432 39.3505 234.71 39.2334 233.921L33.0555 183.413C33.001 183.051 33.0259 182.682 33.1285 182.331C33.2311 181.98 33.409 181.656 33.6496 181.381C33.8902 181.106 34.1878 180.888 34.5214 180.741C34.8551 180.594 35.2167 180.522 35.581 180.53H106.783C107.577 180.556 108.337 180.861 108.93 181.392C109.522 181.922 109.911 182.645 110.028 183.434L116.206 233.941C116.26 234.305 116.234 234.676 116.129 235.029C116.024 235.381 115.844 235.707 115.601 235.981C115.357 236.256 115.057 236.474 114.72 236.62C114.384 236.766 114.02 236.836 113.654 236.825V236.825Z" stroke="#263238" stroke-linecap="round" stroke-linejoin="round"/>
<path d="M80.4753 248.323L83.3198 215.79C83.3319 215.603 83.3058 215.417 83.243 215.241C83.1802 215.065 83.0821 214.904 82.9548 214.768C82.8274 214.632 82.6736 214.523 82.5029 214.449C82.3321 214.375 82.148 214.338 81.9621 214.338H64.0189C63.6822 214.336 63.3568 214.46 63.1059 214.685C62.855 214.911 62.6965 215.222 62.6611 215.558L59.5654 251.002C59.5533 251.188 59.5795 251.375 59.6423 251.551C59.7051 251.727 59.8031 251.888 59.9305 252.024C60.0578 252.16 60.2116 252.268 60.3823 252.342C60.5531 252.416 60.7372 252.454 60.9232 252.454H96.5243C96.8844 252.454 97.2298 252.31 97.4844 252.055C97.739 251.799 97.8821 251.452 97.8821 251.091C97.8821 250.729 97.739 250.382 97.4844 250.127C97.2298 249.871 96.8844 249.727 96.5243 249.727H81.7991C81.6202 249.723 81.4439 249.683 81.2804 249.61C81.1169 249.537 80.9694 249.432 80.8464 249.302C80.7233 249.171 80.6272 249.018 80.5635 248.85C80.4999 248.682 80.4699 248.503 80.4753 248.323Z" fill="#263238" stroke="#263238" stroke-linecap="round" stroke-linejoin="round"/>
<path d="M97.8571 251.138C97.8571 250.777 97.7141 250.43 97.4594 250.174C97.2048 249.919 96.8595 249.775 96.4993 249.775H81.8013C81.6147 249.775 81.43 249.737 81.2588 249.663C81.0875 249.589 80.9334 249.479 80.806 249.343C80.6786 249.206 80.5806 249.044 80.5183 248.867C80.4559 248.691 80.4305 248.503 80.4435 248.316L83.2881 215.783C83.3466 215.589 83.3612 215.384 83.3309 215.184C83.3005 214.983 83.2261 214.792 83.1129 214.624C82.9997 214.456 82.8506 214.316 82.6764 214.213C82.5023 214.11 82.3076 214.048 82.1064 214.03C81.9052 214.012 81.7026 214.04 81.5134 214.111C81.3242 214.182 81.1532 214.294 81.0127 214.44C80.8723 214.586 80.766 214.761 80.7016 214.953C80.6371 215.146 80.6163 215.35 80.6404 215.551L77.5446 250.995C77.5327 251.179 77.5578 251.363 77.6186 251.536C77.6793 251.71 77.7744 251.869 77.8981 252.005C78.0217 252.14 78.1715 252.249 78.3382 252.325C78.505 252.401 78.6854 252.443 78.8685 252.447H96.5197C96.8671 252.442 97.1993 252.304 97.4481 252.06C97.6969 251.817 97.8433 251.487 97.8571 251.138Z" fill="#79D900" stroke="#263238" stroke-linecap="round" stroke-linejoin="round"/>
<path d="M16.2325 252.454H270.818" stroke="#263238" stroke-linecap="round" stroke-linejoin="round"/>
<path d="M253.783 128.673H240.402C239.568 128.673 238.769 129.005 238.179 129.597C237.59 130.189 237.259 130.992 237.259 131.829V138.372C237.259 139.209 237.59 140.012 238.179 140.604C238.769 141.196 239.568 141.528 240.402 141.528H243.898L244.923 147.56L250.287 141.528H253.783C254.196 141.529 254.606 141.448 254.988 141.29C255.37 141.132 255.717 140.899 256.01 140.606C256.303 140.313 256.535 139.965 256.693 139.581C256.851 139.198 256.933 138.787 256.933 138.372V131.856C256.936 131.439 256.856 131.025 256.699 130.639C256.542 130.253 256.31 129.902 256.018 129.606C255.725 129.311 255.377 129.076 254.993 128.916C254.61 128.755 254.198 128.673 253.783 128.673Z" fill="white" stroke="#263238" stroke-linecap="round" stroke-linejoin="round"/>
<path d="M233.268 109.363H219.887C219.474 109.362 219.065 109.443 218.683 109.601C218.3 109.759 217.953 109.992 217.66 110.285C217.368 110.578 217.136 110.926 216.977 111.309C216.819 111.693 216.737 112.104 216.737 112.519V119.055C216.737 119.894 217.069 120.699 217.66 121.292C218.251 121.885 219.052 122.218 219.887 122.218H223.384L226.038 128.25L229.772 122.218H233.268C234.104 122.218 234.905 121.885 235.496 121.292C236.087 120.699 236.419 119.894 236.419 119.055V112.519C236.419 112.104 236.337 111.693 236.179 111.309C236.02 110.926 235.788 110.578 235.495 110.285C235.203 109.992 234.856 109.759 234.473 109.601C234.091 109.443 233.682 109.362 233.268 109.363Z" fill="white" stroke="#263238" stroke-linecap="round" stroke-linejoin="round"/>
<path d="M207.226 116.117H194.585C193.796 116.117 193.04 116.432 192.482 116.992C191.924 117.551 191.611 118.311 191.611 119.103V125.278C191.611 126.07 191.924 126.829 192.482 127.389C193.04 127.949 193.796 128.264 194.585 128.264H197.891L201.34 133.955L203.919 128.264H207.226C208.014 128.264 208.771 127.949 209.328 127.389C209.886 126.829 210.199 126.07 210.199 125.278V119.103C210.199 118.311 209.886 117.551 209.328 116.992C208.771 116.432 208.014 116.117 207.226 116.117Z" fill="white" stroke="#263238" stroke-linecap="round" stroke-linejoin="round"/>
<path d="M199.193 120.732V121.475C199.193 122.389 198.759 122.886 197.836 122.886H197.408V125.04H196.512V119.314H197.836C198.739 119.314 199.193 119.812 199.193 120.732ZM197.435 120.132V122.068H197.836C198.121 122.068 198.27 121.939 198.27 121.53V120.671C198.27 120.262 198.121 120.132 197.836 120.132H197.435Z" fill="#263238"/>
<path d="M200.553 125.04H199.657V119.314H200.553V121.768H201.571V119.314H202.481V125.04H201.571V122.586H200.553V125.04Z" fill="#263238"/>
<path d="M205.767 120.732V121.475C205.767 122.389 205.332 122.886 204.409 122.886H203.988V125.04H203.092V119.314H204.409C205.305 119.314 205.767 119.812 205.767 120.732ZM204.008 120.132V122.068H204.429C204.714 122.068 204.871 121.939 204.871 121.53V120.671C204.871 120.262 204.714 120.132 204.429 120.132H204.008Z" fill="#263238"/>
<path d="M224.659 116.643V117.407C224.659 118.32 224.204 118.845 223.301 118.845C222.398 118.845 221.943 118.32 221.943 117.407V114.428C221.943 113.515 222.398 112.99 223.301 112.99C224.204 112.99 224.659 113.515 224.659 114.428V114.987H223.81V114.373C223.81 113.964 223.634 113.808 223.349 113.808C223.064 113.808 222.887 113.964 222.887 114.373V117.461C222.887 117.87 223.064 118.02 223.349 118.02C223.634 118.02 223.81 117.87 223.81 117.461V116.643H224.659Z" fill="#263238"/>
<path d="M226.812 115.6H227.905V116.234H226.812V117.358H226.173V116.234H225.087V115.6H226.173V114.496H226.812V115.6Z" fill="#263238"/>
<path d="M230.037 115.6H231.103V116.234H230.01V117.358H229.378V116.234H228.285V115.6H229.378V114.496H230.01L230.037 115.6Z" fill="#263238"/>
<path d="M240.816 135.727V134.855L244.448 133.492V134.378L241.963 135.264L244.455 136.157V137.043L240.816 135.727Z" fill="#263238"/>
<path d="M248.022 131.379H249.074L246.04 139.204H244.981L248.022 131.379Z" fill="#263238"/>
<path d="M249.573 137.07V136.184L252.065 135.291L249.573 134.398V133.512L253.205 134.875V135.747L249.573 137.07Z" fill="#263238"/>
</g>
<defs>
<clipPath id="clip0_1017_2585">
<rect width="278" height="252" fill="white" transform="translate(0 0.794434)"/>
</clipPath>
</defs>
</svg>
