<svg width="167" height="167" viewBox="0 0 167 167" fill="none" xmlns="http://www.w3.org/2000/svg">
<g clip-path="url(#clip0_1091_5168)">
<path d="M54.5 165.599L48.9251 155.917C48.4568 155.104 47.5004 154.707 46.5944 154.951L35.8058 157.856C34.1483 158.302 32.6999 156.652 33.3567 155.066L58.7892 101.942L83.6367 112.235L58.2043 165.359C57.5474 166.945 55.3564 167.087 54.5 165.599Z" fill="#E1E6E9"/>
<path d="M112.773 165.599L118.348 155.916C118.816 155.103 119.773 154.707 120.679 154.951L131.467 157.855C133.125 158.302 134.573 156.652 133.916 155.066L108.484 101.942L83.6368 112.235L109.069 165.359C109.726 166.944 111.917 167.086 112.773 165.599Z" fill="#E1E6E9"/>
<path d="M144.51 68.4891C137.718 61.0468 136.16 50.2115 140.58 41.1574C141.84 38.5782 140.43 35.4914 137.656 34.7541C127.919 32.1653 120.75 23.8921 119.573 13.8855C119.238 11.0352 116.383 9.2004 113.651 10.0795C104.06 13.166 93.5567 10.082 87.1566 2.30011C85.3335 0.0835561 81.9401 0.0835561 80.117 2.30011C73.7173 10.082 63.2137 13.166 53.6226 10.0795C50.8906 9.2004 48.0356 11.0348 47.7003 13.8855C46.5234 23.8921 39.3548 32.1653 29.6176 34.7541C26.8438 35.4914 25.434 38.5785 26.6931 41.1574C31.1131 50.2118 29.5552 61.0468 22.7634 68.4891C20.8287 70.6093 21.3118 73.9683 23.7652 75.4571C32.3786 80.6846 36.9259 90.6419 35.2361 100.575C34.7547 103.404 36.9769 105.969 39.8461 105.895C49.9183 105.636 59.1273 111.554 63.0754 120.824C64.2002 123.464 67.4565 124.42 69.83 122.807C78.1631 117.143 89.1098 117.143 97.4429 122.807C99.8168 124.42 103.073 123.464 104.197 120.824C108.146 111.554 117.355 105.636 127.427 105.895C130.296 105.969 132.519 103.404 132.037 100.575C130.347 90.6419 134.895 80.6846 143.508 75.4571C145.962 73.9683 146.445 70.6093 144.51 68.4891Z" fill="#FCD462"/>
<path d="M96.9459 108.619C92.7283 106.989 88.231 106.146 83.637 106.146C79.0426 106.146 74.5453 106.989 70.3281 108.619C64.9226 101.215 56.9454 96.0781 47.9477 94.2306C47.4213 85.0432 43.4877 76.4294 36.8926 70.0137C41.4122 62.0031 42.7596 52.6346 40.6798 43.6745C48.8169 39.376 55.0181 32.217 58.1113 23.5489C59.1184 23.6319 60.1308 23.674 61.145 23.6733C69.388 23.6733 77.2489 20.9619 83.6373 16.0566C90.0258 20.963 97.8878 23.6744 106.13 23.6733C107.144 23.6733 108.156 23.6319 109.163 23.5489C112.257 32.2173 118.458 39.3764 126.595 43.6745C124.516 52.6357 125.863 62.0031 130.382 70.0137C123.787 76.4294 119.853 85.0439 119.327 94.2306C110.327 96.0781 102.35 101.215 96.9459 108.619Z" fill="#27A2DB"/>
<path d="M111.185 44.6546C109.229 42.1597 105.619 41.7241 103.122 43.6826L71.0068 68.8864L64.5713 62.7436C62.2757 60.5526 58.6415 60.6387 56.4516 62.9333C54.2623 65.2282 54.3467 68.863 56.6412 71.053L66.6744 80.6292C67.7782 81.6827 69.2075 82.2173 70.6403 82.2173C71.8881 82.2173 73.1397 81.8125 74.1847 80.9919L110.212 52.7175C112.707 50.7594 113.143 47.1494 111.185 44.6546Z" fill="#EBF0F3"/>
</g>
<defs>
<clipPath id="clip0_1091_5168">
<rect width="166" height="166" fill="white" transform="translate(0.636597 0.636719)"/>
</clipPath>
</defs>
</svg>
