<svg width="352" height="352" viewBox="0 0 352 352" fill="none" xmlns="http://www.w3.org/2000/svg">
<circle cx="176" cy="176" r="176" fill="#6C33A3"/>
<path d="M115.781 152.78H137.718C138.867 152.78 139.798 151.851 139.798 150.705C139.798 149.559 138.867 148.63 137.718 148.63H115.781C114.632 148.63 113.701 149.559 113.701 150.705C113.701 151.851 114.632 152.78 115.781 152.78Z" fill="#ECECEC"/>
<path d="M136.966 162.769H128.3C127.151 162.769 126.22 163.697 126.22 164.844C126.22 165.99 127.151 166.919 128.3 166.919H136.966C138.115 166.919 139.046 165.99 139.046 164.844C139.046 163.697 138.115 162.769 136.966 162.769Z" fill="#ECECEC"/>
<path d="M107.08 177.158H128.3C129.449 177.158 130.38 176.229 130.38 175.083C130.38 173.937 129.449 173.008 128.3 173.008H107.08C105.931 173.008 105 173.937 105 175.083C105 176.229 105.931 177.158 107.08 177.158Z" fill="#ECECEC"/>
<path d="M139.798 213.943C139.798 212.797 138.867 211.868 137.718 211.868H115.781C114.632 211.868 113.701 212.797 113.701 213.943C113.701 215.089 114.632 216.018 115.781 216.018H137.718C138.867 216.018 139.798 215.089 139.798 213.943Z" fill="#ECECEC"/>
<path d="M136.966 197.73H128.3C127.151 197.73 126.22 198.659 126.22 199.805C126.22 200.952 127.151 201.88 128.3 201.88H136.966C138.115 201.88 139.046 200.952 139.046 199.805C139.046 198.659 138.115 197.73 136.966 197.73Z" fill="#ECECEC"/>
<path d="M130.38 189.565C130.38 188.419 129.449 187.49 128.3 187.49H107.08C105.931 187.49 105 188.419 105 189.565C105 190.711 105.931 191.64 107.08 191.64H128.3C129.449 191.64 130.38 190.711 130.38 189.565Z" fill="#ECECEC"/>
<path d="M193.62 157.377C194.769 157.377 195.7 156.448 195.7 155.302V152.135C195.7 150.988 194.769 150.06 193.62 150.06C192.471 150.06 191.54 150.988 191.54 152.135V155.302C191.54 156.448 192.471 157.377 193.62 157.377Z" fill="#ECECEC"/>
<path d="M216.489 159.51C215.677 158.7 214.36 158.7 213.547 159.51L211.302 161.75C210.49 162.56 210.49 163.874 211.302 164.684C212.115 165.494 213.432 165.494 214.244 164.684L216.489 162.444C217.301 161.634 217.301 160.321 216.489 159.51Z" fill="#ECECEC"/>
<path d="M220.707 180.249C219.558 180.249 218.627 181.178 218.627 182.324C218.627 183.47 219.558 184.399 220.707 184.399H223.882C225.031 184.399 225.962 183.47 225.962 182.324C225.962 181.178 225.031 180.249 223.882 180.249H220.707Z" fill="#ECECEC"/>
<path d="M214.244 199.964C213.432 199.154 212.115 199.154 211.302 199.964C210.49 200.775 210.49 202.088 211.302 202.899L213.547 205.138C214.36 205.949 215.677 205.948 216.489 205.138C217.302 204.328 217.302 203.014 216.489 202.204L214.244 199.964Z" fill="#ECECEC"/>
<path d="M191.54 209.346V212.513C191.54 213.66 192.471 214.588 193.62 214.588C194.769 214.588 195.7 213.66 195.7 212.513V209.346C195.7 208.2 194.769 207.271 193.62 207.271C192.471 207.271 191.54 208.201 191.54 209.346Z" fill="#ECECEC"/>
<path d="M172.994 199.964L170.749 202.204C169.937 203.014 169.937 204.328 170.749 205.138C171.562 205.949 172.879 205.948 173.691 205.138L175.936 202.899C176.748 202.088 176.748 200.774 175.936 199.964C175.124 199.154 173.807 199.154 172.994 199.964Z" fill="#ECECEC"/>
<path d="M163.356 180.249C162.207 180.249 161.276 181.178 161.276 182.324C161.276 183.47 162.207 184.399 163.356 184.399H166.531C167.68 184.399 168.611 183.47 168.611 182.324C168.611 181.178 167.68 180.249 166.531 180.249H163.356Z" fill="#ECECEC"/>
<path d="M175.936 161.75L173.691 159.51C172.879 158.7 171.562 158.7 170.75 159.51C169.937 160.321 169.937 161.634 170.75 162.444L172.995 164.684C173.807 165.494 175.124 165.494 175.936 164.684C176.748 163.874 176.748 162.56 175.936 161.75Z" fill="#ECECEC"/>
<path d="M204.805 182.324C204.805 181.178 203.874 180.249 202.725 180.249H195.7V164.844C195.7 163.697 194.769 162.769 193.62 162.769C192.471 162.769 191.54 163.697 191.54 164.844V182.324C191.54 183.471 192.471 184.399 193.62 184.399H202.725C203.874 184.399 204.805 183.471 204.805 182.324Z" fill="#ECECEC"/>
<path d="M233.061 181.982C234.208 181.912 235.081 180.929 235.011 179.785C233.688 158.011 215.506 140.954 193.619 140.954C170.751 140.954 152.147 159.513 152.147 182.325C152.147 205.136 170.751 223.695 193.619 223.695C214.106 223.695 231.587 208.721 234.628 188.515C234.799 187.382 234.016 186.325 232.88 186.155C231.747 185.985 230.685 186.765 230.514 187.899C227.782 206.052 212.069 219.545 193.619 219.545C173.045 219.545 156.307 202.848 156.307 182.325C156.307 161.802 173.045 145.104 193.619 145.104C213.311 145.104 229.668 160.448 230.858 180.037C230.928 181.18 231.913 182.048 233.061 181.982Z" fill="#ECECEC"/>
<path d="M193.619 129.074C186.302 129.074 179.134 130.588 172.536 133.42H135.835C134.686 133.42 133.755 134.349 133.755 135.495C133.755 136.641 134.686 137.57 135.835 137.57H164.71C160.806 140.077 157.212 143.1 154.043 146.59C153.272 147.44 153.337 148.752 154.188 149.521C155.04 150.291 156.355 150.226 157.127 149.376C166.446 139.111 179.747 133.224 193.619 133.224C220.759 133.224 242.84 155.25 242.84 182.324C242.84 209.398 220.76 231.424 193.619 231.424C166.479 231.424 144.398 209.398 144.398 182.324C144.398 172.843 147.113 163.642 152.249 155.713C152.873 154.75 152.596 153.466 151.631 152.844C150.666 152.223 149.379 152.498 148.755 153.461C143.183 162.062 140.238 172.043 140.238 182.324C140.238 201.073 150.002 217.587 164.724 227.078H135.835C134.687 227.078 133.755 228.007 133.755 229.153C133.755 230.3 134.687 231.228 135.835 231.228H172.507C178.986 234.022 186.124 235.574 193.619 235.574C223.053 235.574 247 211.686 247 182.324C247 152.962 223.053 129.074 193.619 129.074Z" fill="#ECECEC"/>
</svg>
