<svg width="20" height="20" viewBox="0 0 20 20" fill="none" xmlns="http://www.w3.org/2000/svg">
<path opacity="0.971" fill-rule="evenodd" clip-rule="evenodd" d="M9.62891 0.566407C13.2236 0.53713 16.0035 2.00848 17.9688 4.98047C19.3833 7.3907 19.7088 9.94277 18.9453 12.6367C17.8908 15.7485 15.801 17.8123 12.6758 18.8281C10.21 19.5095 7.84676 19.2556 5.58594 18.0664C3.96848 18.505 2.34739 18.9346 0.722656 19.3555C0.696613 19.3425 0.670574 19.3294 0.644531 19.3164C1.08724 17.7278 1.52995 16.1393 1.97266 14.5508C0.500859 11.8428 0.338098 9.05629 1.48438 6.19141C3.12807 2.77106 5.84293 0.896064 9.62891 0.566407ZM9.90234 2.16797C12.9121 2.24958 15.1973 3.56469 16.7578 6.11328C18.0859 8.62652 18.0859 11.1395 16.7578 13.6523C15.4447 15.8623 13.5111 17.1578 10.957 17.5391C9.1041 17.735 7.39184 17.3378 5.82031 16.3477C4.86672 16.6105 3.90969 16.8578 2.94922 17.0898C3.19036 16.1644 3.43775 15.2399 3.69141 14.3164C2.14717 11.8768 1.93232 9.32476 3.04688 6.66016C4.47859 3.86893 6.76375 2.37154 9.90234 2.16797Z" fill="white"/>
<path opacity="0.974" fill-rule="evenodd" clip-rule="evenodd" d="M6.62101 5.56642C6.90961 5.55677 7.19605 5.5763 7.48039 5.62501C7.63863 5.77036 7.7493 5.94615 7.81242 6.15236C8.02301 6.69068 8.24433 7.22454 8.47648 7.75392C8.50984 7.91505 8.4968 8.0713 8.43742 8.22267C8.23101 8.52029 8.00965 8.80673 7.77336 9.08204C7.7473 9.17318 7.7473 9.26435 7.77336 9.35548C8.53195 10.6737 9.61922 11.6177 11.0351 12.1875C11.1446 12.217 11.2487 12.204 11.3476 12.1484C11.6423 11.8147 11.9223 11.4697 12.1874 11.1133C12.2547 11.0374 12.3393 10.9983 12.4413 10.9961C12.6609 11.0342 12.8692 11.1058 13.0663 11.2109C13.624 11.4865 14.1773 11.7665 14.7265 12.0508C14.8038 12.512 14.7387 12.9547 14.5312 13.3789C13.8688 14.1902 13.0159 14.5092 11.9726 14.3359C10.0987 13.9104 8.52969 12.9794 7.26555 11.543C6.73859 10.9249 6.2568 10.2739 5.82023 9.58986C5.3832 8.8631 5.22695 8.08185 5.35148 7.24611C5.47531 6.66618 5.75527 6.1779 6.19133 5.78126C6.32765 5.68704 6.4709 5.61544 6.62101 5.56642Z" fill="white"/>
</svg>
