<svg width="352" height="352" viewBox="0 0 352 352" fill="none" xmlns="http://www.w3.org/2000/svg">
<circle cx="176" cy="176" r="176" fill="#6C33A3"/>
<path d="M191.586 119.023C184.618 119.023 178.95 124.691 178.95 131.659C178.95 138.626 184.618 144.294 191.586 144.294C198.553 144.294 204.221 138.626 204.221 131.659C204.221 124.691 198.552 119.023 191.586 119.023ZM191.586 140.255C186.845 140.255 182.989 136.399 182.989 131.658C182.989 126.918 186.845 123.061 191.586 123.061C196.326 123.061 200.182 126.918 200.182 131.658C200.182 136.399 196.326 140.255 191.586 140.255ZM143.006 227.438C143.92 228.078 145.179 227.856 145.818 226.942L158.561 208.743C159.201 207.829 158.979 206.57 158.066 205.931C157.152 205.291 155.893 205.514 155.254 206.427L142.51 224.626C141.87 225.54 142.093 226.799 143.006 227.438ZM176 105C162.954 105 150.2 108.569 139.115 115.321C138.133 115.919 137.823 117.199 138.42 118.18C139.018 119.161 140.298 119.472 141.279 118.874C151.712 112.519 163.718 109.16 176 109.16C212.94 109.16 242.84 139.054 242.84 176C242.84 191.759 237.251 207.059 227.104 219.083C226.363 219.961 226.474 221.273 227.352 222.014C228.229 222.755 229.542 222.644 230.283 221.766C241.063 208.993 247 192.739 247 176C247 136.759 215.244 105 176 105ZM220.291 174.529C219.479 175.342 219.479 176.658 220.291 177.471L224.09 181.27C224.902 182.082 226.219 182.083 227.032 181.27L233.82 174.482C234.632 173.67 234.632 172.353 233.82 171.541C233.007 170.729 231.691 170.729 230.878 171.541L225.561 176.858L223.233 174.529C222.421 173.717 221.104 173.717 220.291 174.529ZM219.328 135.504C218.542 134.718 217.26 134.714 216.47 135.506C208.818 143.189 208.233 143.754 201.928 150.108C201.142 150.899 201.147 152.178 201.938 152.964C202.063 153.088 205.014 156.016 206.208 157.168C210.709 161.515 217.445 160.262 222.053 155.654H222.053C226.856 150.851 228.162 144.337 223.455 139.63L219.328 135.504ZM219.198 152.798C219.198 152.799 219.198 152.799 219.198 152.798C216.429 155.567 212.06 157.206 209.013 154.263C208.371 153.644 207.175 152.465 206.218 151.518C212.345 145.351 210.377 147.342 217.903 139.789L220.599 142.486C223.714 145.6 222.299 149.698 219.198 152.798ZM127.178 158.73C132.116 163.669 140.109 163.668 145.046 158.73C147.462 156.315 148.56 153.33 148.223 150.099C147.922 147.213 146.429 144.297 144.02 141.888C143.231 141.099 141.953 141.099 141.164 141.888L136.673 146.379C135.884 147.168 135.884 148.446 136.673 149.235C137.462 150.023 138.74 150.023 139.529 149.235L142.479 146.284C143.458 147.645 144.059 149.103 144.207 150.519C144.416 152.526 143.738 154.328 142.191 155.875C138.831 159.235 133.393 159.235 130.033 155.875C126.673 152.515 126.673 147.077 130.033 143.717C131.251 142.499 132.785 141.683 134.468 141.357C135.563 141.145 136.279 140.085 136.067 138.99C135.855 137.896 134.796 137.18 133.7 137.392C131.223 137.872 128.967 139.071 127.177 140.862C122.251 145.788 122.251 153.804 127.178 158.73ZM203.103 215.474C202.721 214.426 201.563 213.885 200.515 214.267L194.338 216.515L191.955 209.966L198.774 207.484C199.822 207.103 200.362 205.944 199.981 204.896C199.599 203.848 198.441 203.308 197.393 203.689L188.676 206.862C187.629 207.243 187.088 208.402 187.469 209.45L194.999 230.137C195.381 231.185 196.54 231.724 197.587 231.344L206.303 228.171C207.351 227.79 207.892 226.631 207.51 225.583C207.129 224.535 205.97 223.994 204.922 224.376L198.103 226.858L195.719 220.31L201.896 218.061C202.944 217.68 203.484 216.521 203.103 215.474ZM226.276 199.168C223.799 195.615 219.414 195.964 216.134 197.476C213.373 198.749 210.689 199.808 210.002 200.076C208.111 200.362 206.43 198.246 207.727 195.832C209.48 192.567 213.569 192.12 213.644 192.112C214.75 192.011 215.567 191.035 215.471 189.927C215.375 188.816 214.403 187.993 213.286 188.09C213.03 188.112 206.977 188.693 204.17 193.921C201.231 199.393 205.631 205.127 210.972 204.002C211.598 203.871 216.19 201.897 217.825 201.143C220.185 200.055 222.057 200.177 222.963 201.477C224.152 203.183 223.313 205.584 221.92 206.977C220.209 208.687 217.861 209.641 215.643 209.534C214.532 209.477 213.581 210.338 213.527 211.451C213.472 212.565 214.331 213.512 215.444 213.567C218.706 213.729 222.216 212.391 224.775 209.833C227.776 206.831 228.421 202.246 226.276 199.168ZM174.121 209.512H167.667C166.552 209.512 165.648 210.416 165.648 211.531V233.749C165.648 234.845 166.531 235.768 167.677 235.768C167.677 235.768 173.612 235.742 175.248 235.742C179.659 235.742 183.248 232.153 183.248 227.742C183.248 224.973 181.833 222.529 179.689 221.092C183.404 216.453 180.093 209.512 174.121 209.512ZM169.687 213.55H174.121C175.826 213.55 177.214 214.938 177.214 216.644C177.214 218.349 175.827 219.737 174.121 219.737C173.858 219.737 175.165 219.735 169.687 219.743V213.55ZM175.248 231.703C174.234 231.703 171.571 231.713 169.687 231.721V223.789C173.553 223.774 171.473 223.785 175.248 223.781C177.432 223.781 179.209 225.558 179.209 227.742C179.209 229.926 177.432 231.703 175.248 231.703ZM131.709 171.541C130.896 170.729 129.58 170.729 128.767 171.541L123.45 176.858L121.122 174.529C120.309 173.717 118.992 173.717 118.18 174.529C117.368 175.342 117.368 176.658 118.18 177.471L121.979 181.27C122.791 182.082 124.109 182.083 124.921 181.27L131.709 174.482C132.521 173.67 132.521 172.353 131.709 171.541ZM130.772 211.755L151.343 201.443C152.34 200.943 152.743 199.73 152.243 198.733C151.743 197.736 150.53 197.333 149.533 197.833L132.961 206.14L141.113 189.319C141.6 188.316 141.18 187.108 140.177 186.621C139.172 186.135 137.965 186.554 137.479 187.558L127.37 208.416C126.342 210.576 128.62 212.815 130.772 211.755ZM220.135 226.198C207.938 236.93 192.265 242.84 176 242.84C139.06 242.84 109.16 212.946 109.16 176C109.16 156.4 117.721 137.857 132.647 125.125C133.521 124.38 133.625 123.067 132.88 122.193C132.134 121.319 130.821 121.214 129.947 121.96C114.093 135.484 105 155.181 105 176C105 215.24 136.755 247 176 247C193.277 247 209.927 240.721 222.883 229.321C223.746 228.562 223.83 227.248 223.071 226.385C222.312 225.523 220.997 225.438 220.135 226.198ZM159.737 119.023C152.77 119.023 147.102 124.691 147.102 131.659C147.102 138.626 152.77 144.294 159.737 144.294C166.705 144.294 172.373 138.626 172.373 131.659C172.373 124.691 166.705 119.023 159.737 119.023ZM159.737 140.255C154.997 140.255 151.141 136.399 151.141 131.658C151.141 126.918 154.997 123.061 159.737 123.061C164.478 123.061 168.334 126.918 168.334 131.658C168.334 136.399 164.478 140.255 159.737 140.255ZM173.43 156.103C172.539 159.137 170.347 163.036 168.589 165.419C168.56 165.444 168.53 165.468 168.501 165.494V165.494C167.147 166.704 165.4 167.37 163.584 167.37H161.17C157.644 167.37 154.775 170.239 154.775 173.765V184.183C154.775 187.709 157.644 190.578 161.17 190.578H163.584C165.4 190.578 167.147 191.244 168.502 192.455C171.181 194.847 174.635 196.165 178.227 196.165H186.014C190.892 196.165 194.86 192.197 194.86 187.319V170.629C194.86 165.797 190.964 161.859 186.149 161.787C186.367 161.181 186.566 160.587 186.735 160.01C187.815 156.334 185.714 152.483 182.036 151.404C178.36 150.324 174.51 152.425 173.43 156.103ZM186.014 165.943C188.598 165.943 190.7 168.045 190.7 170.629V171.795H183.674C182.525 171.795 181.594 172.727 181.594 173.875C181.594 175.024 182.525 175.955 183.674 175.955H190.7V181.993H183.674C182.525 181.993 181.594 182.924 181.594 184.073C181.594 185.222 182.525 186.153 183.674 186.153H190.7V187.319C190.7 189.903 188.598 192.005 186.014 192.005H178.227C175.659 192.005 173.189 191.063 171.273 189.352C169.155 187.46 166.424 186.418 163.583 186.418H161.17C159.937 186.418 158.935 185.416 158.935 184.183V173.765C158.935 172.533 159.937 171.53 161.17 171.53H163.583C166.424 171.53 169.154 170.489 171.273 168.597L171.272 168.597C173.189 166.886 175.658 165.944 178.227 165.944H186.014V165.943ZM177.422 157.275C177.852 155.809 179.389 154.961 180.864 155.395C182.334 155.827 183.176 157.367 182.744 158.838C182.47 159.77 182.117 160.758 181.696 161.783C178.766 161.833 177.571 161.644 175.476 162.046C176.275 160.452 176.973 158.803 177.422 157.275Z" fill="#ECECEC"/>
</svg>
