<svg width="114" height="114" viewBox="0 0 114 114" fill="none" xmlns="http://www.w3.org/2000/svg">
<path d="M49.2863 95.9648L49.2783 104.648H64.7218L64.7137 95.9648H49.2863Z" fill="white"/>
<path d="M49.2891 92.8477H64.7107L64.6668 44.3086H49.3329L49.2891 92.8477Z" fill="white"/>
<path d="M50.791 41.1914H63.2086L56.9998 32.4332L50.791 41.1914Z" fill="white"/>
<path d="M48.4752 14.8957C48.4444 14.9028 48.4144 14.9115 48.3839 14.918H18.0352V18.0351H39.8777C34.8517 20.6096 30.4788 24.2961 27.0913 28.8142C23.7038 33.3324 21.391 38.5634 20.3285 44.1095L23.3905 44.6949C24.6185 38.286 27.6634 32.3654 32.1622 27.6386C36.661 22.9118 42.424 19.5782 48.7644 18.0351H49.207V14.918H48.4803L48.4752 14.8957ZM93.4134 44.3398C92.3823 38.7475 90.0797 33.467 86.6835 28.906C83.2872 24.3451 78.8881 20.6257 73.8259 18.0351H95.9648V14.918H65.3151C65.2844 14.9108 65.2543 14.9021 65.2238 14.8957L65.2185 14.918H64.793V16.766L64.5244 17.9325C64.6146 17.9532 64.7026 17.977 64.793 17.9993V18.0351H64.9346C71.3123 19.583 77.1056 22.9439 81.6151 27.712C86.1246 32.4801 89.1576 38.4515 90.3479 44.9055L93.4134 44.3398Z" fill="white"/>
<path d="M97.9688 46.0898H87.2812V56.7773H97.9688V46.0898Z" fill="white"/>
<path d="M26.4961 46.0898H15.8086V56.7773H26.4961V46.0898Z" fill="white"/>
<path d="M56.8494 21.6313C58.0689 21.6313 59.261 21.2697 60.2749 20.5922C61.2889 19.9146 62.0792 18.9517 62.5458 17.825C63.0125 16.6984 63.1346 15.4586 62.8967 14.2626C62.6588 13.0665 62.0716 11.9679 61.2093 11.1056C60.347 10.2433 59.2483 9.65607 58.0523 9.41816C56.8562 9.18025 55.6165 9.30235 54.4898 9.76903C53.3632 10.2357 52.4002 11.026 51.7227 12.0399C51.0452 13.0539 50.6836 14.246 50.6836 15.4655C50.6854 17.1002 51.3356 18.6674 52.4915 19.8233C53.6474 20.9793 55.2147 21.6295 56.8494 21.6313Z" fill="white"/>
<path d="M16.2539 12.2461H8.46094V20.2617H16.2539V12.2461Z" fill="white"/>
<path d="M105.539 12.2461H97.7461V20.2617H105.539V12.2461Z" fill="white"/>
</svg>
