<svg width="32" height="32" viewBox="0 0 32 32" fill="none" xmlns="http://www.w3.org/2000/svg">
<path d="M16 31.9999C24.8366 31.9999 32 24.8365 32 16C32 7.16342 24.8366 0 16 0C7.16344 0 0 7.16342 0 16C0 24.8365 7.16344 31.9999 16 31.9999Z" fill="#6C33A3"/>
<path fill-rule="evenodd" clip-rule="evenodd" d="M12.041 20.0284L20.2776 20.0911V26.78L12.041 26.7174V20.0284Z" fill="#F9DCA4"/>
<path fill-rule="evenodd" clip-rule="evenodd" d="M22.7682 30.5009C20.6745 31.476 18.3949 31.9873 16.0854 31.9998C13.7758 32.0123 11.4908 31.5257 9.38672 30.5734V25.0702H22.7677L22.7682 30.5009Z" fill="#E6E6E6"/>
<path fill-rule="evenodd" clip-rule="evenodd" d="M17.2958 31.9481C16.8685 31.9823 16.4365 31.9996 15.9998 31.9999C15.6701 31.9999 15.343 31.9901 15.0186 31.9704L15.5519 27.3164H16.7998L17.2958 31.9481Z" fill="#6C33A3"/>
<path fill-rule="evenodd" clip-rule="evenodd" d="M13.2856 31.7576C11.5215 31.429 9.8178 30.8332 8.23339 29.9908C6.71156 29.144 5.33752 28.0553 4.16504 26.7675L4.82989 25.1624L12.0403 21.9458C12.0403 24.6446 12.9262 28.9268 13.2856 31.7581V31.7576Z" fill="#677079"/>
<path opacity="0.11" fill-rule="evenodd" clip-rule="evenodd" d="M20.2789 20.0693V21.7423C17.8287 24.6042 13.1472 24.1993 12.0977 19.9756L20.2789 20.0693Z" fill="black"/>
<path fill-rule="evenodd" clip-rule="evenodd" d="M16.118 4.36609C27.1373 4.36609 22.8427 22.6267 16.118 22.6267C9.7662 22.6267 5.09876 4.36609 16.118 4.36609Z" fill="#FFE8BE"/>
<path fill-rule="evenodd" clip-rule="evenodd" d="M9.50856 12.451C7.91892 13.1443 9.27038 16.4308 10.2708 16.4163C9.85581 15.1304 9.59984 13.7986 9.50856 12.4505V12.451ZM22.8548 12.4505C24.4445 13.1438 23.093 16.4308 22.0932 16.4158C22.5078 15.13 22.7636 13.7983 22.8548 12.4505Z" fill="#F9DCA4"/>
<path fill-rule="evenodd" clip-rule="evenodd" d="M11.3559 7.41902C9.62952 9.20956 10.2369 14.1659 10.2369 14.1659L9.69321 13.9096C6.29956 0.760654 26.0733 0.760136 22.6605 13.9096L22.1168 14.1659C22.1168 14.1659 22.7247 9.20956 20.9983 7.41902C18.8655 9.48762 13.4768 9.47674 11.3559 7.41902Z" fill="#464449"/>
<path fill-rule="evenodd" clip-rule="evenodd" d="M19.0381 31.7115C22.537 31.0358 25.7097 29.2099 28.0519 26.5242L27.4875 25.1619L20.2777 21.9453C20.2777 24.6441 19.3974 28.8802 19.0381 31.7115Z" fill="#677079"/>
<path fill-rule="evenodd" clip-rule="evenodd" d="M20.2779 21.7372L16.1738 25.0847L19.5773 28.1465C19.5773 28.1465 20.4845 23.1217 20.2779 21.7372Z" fill="white"/>
<path fill-rule="evenodd" clip-rule="evenodd" d="M12.0409 21.7372L16.1776 25.0847L12.7368 28.1465C12.7368 28.1465 11.8327 23.1217 12.0409 21.7372Z" fill="white"/>
<path fill-rule="evenodd" clip-rule="evenodd" d="M14.5557 26.5253L16.18 25.0661L17.8043 26.5253L16.18 27.9839L14.5557 26.5253Z" fill="#6C33A3"/>
<path fill-rule="evenodd" clip-rule="evenodd" d="M13.3422 31.7788C12.681 31.6682 12.0275 31.516 11.3854 31.3231C11.3653 31.3076 11.3456 31.2916 11.3264 31.275L9.49597 27.9663L11.8473 26.2782H9.38672L9.91332 22.7308L12.0415 21.385C12.1336 25.2012 12.9523 29.4917 13.3422 31.7788ZM18.9748 31.7234C19.2793 31.6726 19.5806 31.6022 19.8794 31.5246C20.2325 31.4329 20.5836 31.3293 20.9326 31.2248L21.002 31.2025L22.82 27.9326L20.4687 26.2539H22.9292L22.4026 22.7241L20.2745 21.385C20.1823 25.1815 19.3642 29.4477 18.9748 31.7234Z" fill="#434955"/>
</svg>
