<svg width="114" height="114" viewBox="0 0 114 114" fill="none" xmlns="http://www.w3.org/2000/svg">
<path d="M48.2123 79.0875C48.2123 76 47.0248 73.15 44.8873 70.775L30.1623 56.05C29.4498 55.3375 28.2623 55.1 27.3123 55.3375C26.3623 55.575 25.4123 56.525 25.1748 57.7125C24.6998 60.0875 23.5123 65.3125 24.6998 69.5875L24.9373 70.0625L30.1623 75.2875L28.4998 75.525C26.1248 75.525 23.9873 74.575 22.3248 72.9125L16.1498 66.7375V52.25C16.1498 47.975 13.5373 44.175 9.7373 42.5125C7.8373 41.8 5.6998 41.325 3.7998 41.325H1.4248V70.3C1.4248 72.675 2.3748 74.8125 4.0373 76.475L21.1373 93.575V94.2875H14.7248V112.338H53.6748V94.2875H48.2123V79.0875ZM7.1248 73.3875C6.4123 72.675 5.9373 71.725 5.9373 70.5375V46.55C6.4123 46.7875 7.1248 46.7875 7.5998 47.025C9.7373 47.975 11.1623 50.1125 11.1623 52.25V68.875L18.7623 76.475C21.3748 79.0875 24.9373 80.5125 28.4998 80.5125L34.4373 79.5625C35.3873 79.325 36.3373 78.6125 36.5748 77.6625C36.8123 76.7125 36.5748 75.525 35.8623 74.8125L28.7373 67.6875C28.2623 65.7875 28.4998 63.65 28.7373 61.75L41.0873 74.1C42.5123 75.525 43.2248 77.1875 43.2248 79.0875V94.7625H25.4123V94.05C25.4123 92.625 24.9373 91.4375 23.9873 90.4875L7.1248 73.3875ZM48.6873 99.5125V108.063H19.4748V99.5125H20.8998H48.2123H48.6873ZM104.5 42.75C100.7 44.4125 98.0873 48.2125 98.0873 52.4875V66.975L91.9123 73.15C90.2498 74.8125 88.1123 75.7625 85.7373 75.7625L84.0748 75.525L89.2998 70.3L89.5373 69.825C90.7248 65.3125 89.7748 60.325 89.0623 57.7125C88.8248 56.7625 88.1123 55.8125 86.9248 55.575C85.9748 55.3375 84.7873 55.575 84.0748 56.2875L69.3498 71.0125C67.2123 73.15 66.0248 76.2375 66.0248 79.325V95H60.5623V113.05H99.5123V95H93.3373V94.05L110.437 76.95C112.1 75.2875 113.05 73.15 113.05 70.775V41.5625H110.675C108.3 41.5625 106.4 42.0375 104.5 42.75ZM94.5248 99.5125V108.063H65.3123V99.5125H66.0248H93.3373H94.5248ZM108.062 70.5375C108.062 71.725 107.587 72.675 106.875 73.3875L89.7748 90.4875C88.8248 91.4375 88.3498 92.625 88.3498 94.05V94.7625H70.5373V79.0875C70.5373 77.1875 71.2498 75.525 72.6748 74.1L85.0248 61.75C85.2623 63.65 85.4998 65.7875 85.0248 67.6875L77.8998 74.8125C77.1873 75.525 76.9498 76.7125 77.1873 77.6625C77.4248 78.6125 78.3748 79.325 79.3248 79.5625L85.0248 80.5125H85.4998C89.2998 80.5125 92.6248 79.0875 95.2373 76.475L102.837 68.875V52.4875C102.837 50.1125 104.262 47.975 106.4 47.2625C106.875 47.025 107.587 46.7875 108.062 46.7875V70.5375ZM57.7123 16.8625C49.1623 16.3875 42.0373 23.0375 41.5623 31.5875C41.3248 35.625 42.7498 39.6625 45.5998 42.75C48.4498 45.8375 52.2498 47.5 56.2873 47.7375C56.5248 47.7375 56.7623 47.7375 56.9998 47.7375C65.0748 47.7375 71.9623 41.325 72.4373 33.0125C72.9123 24.4625 66.2623 17.3375 57.7123 16.8625ZM56.5248 42.9875C53.6748 42.75 51.0623 41.5625 49.1623 39.425C47.2623 37.2875 46.3123 34.675 46.3123 31.825C46.5498 26.125 51.2998 21.6125 56.9998 21.6125C57.2373 21.6125 57.4748 21.6125 57.4748 21.6125C63.4123 21.85 67.9248 26.8375 67.6873 32.775C67.4498 38.7125 62.4623 43.225 56.5248 42.9875Z" fill="white"/>
<path d="M88.1127 37.2875V26.8375L81.9377 25.4125C81.4627 23.275 80.5127 21.375 79.3252 19.2375L82.6502 13.775L75.0502 6.4125L69.5877 9.7375C67.6877 8.55 65.5502 7.8375 63.4127 7.3625L61.9877 1.1875H51.5377L50.1127 7.3625C47.9752 7.8375 46.0752 8.7875 43.9377 9.975L38.4752 6.65L31.3502 14.25L34.6752 19.7125C33.4877 21.6125 32.7752 23.75 32.0627 25.8875L25.8877 27.3125V37.7625L32.0627 39.1875C32.5377 41.325 33.4877 43.225 34.6752 45.3625L31.3502 50.825L38.9502 58.1875L44.4127 54.8625C46.3127 56.05 48.4502 56.7625 50.5877 57.2375L52.0127 63.4125H62.4627L63.8877 57.2375C66.0252 56.7625 67.9252 55.8125 70.0627 54.625L75.5252 57.95L82.8877 50.35L79.5627 44.8875C80.7502 42.9875 81.4627 40.85 81.9377 38.7125L88.1127 37.2875ZM77.9002 34.9125L77.6627 36.3375C77.1877 38.95 76.2377 41.325 74.8127 43.7L74.1002 44.8875L76.9502 49.6375L74.8127 51.775L70.0627 48.925L68.8752 49.875C66.7377 51.3 64.1252 52.4875 61.7502 52.9625L60.3252 53.2L59.1377 58.6625H56.0502L54.6252 53.2L53.2002 52.9625C50.5877 52.4875 48.2127 51.5375 45.8377 50.1125L44.6502 49.4L39.9002 52.25L37.5252 49.875L40.3752 45.125L39.4252 43.9375C38.0002 41.8 36.8127 39.1875 36.3377 36.8125L36.1002 35.3875L30.6377 34.2V31.1125L36.1002 29.6875L36.3377 28.2625C36.8127 25.65 37.7627 23.275 39.1877 20.9L39.9002 19.7125L37.0502 14.9625L39.1877 12.825L43.9377 15.675L45.1252 14.725C47.2627 13.3 49.8752 12.1125 52.2502 11.6375L53.6752 11.4L54.8627 5.9375H57.9502L59.3752 11.4L60.8002 11.6375C63.4127 12.1125 65.7877 13.0625 68.1627 14.4875L69.3502 15.2L74.1002 12.35L76.2377 14.4875L73.3877 19.2375L74.3377 20.425C75.7627 22.5625 76.9502 25.175 77.4252 27.55L77.6627 28.975L83.1252 30.1625V33.25L77.9002 34.9125Z" fill="white"/>
</svg>
