<svg width="34" height="33" viewBox="0 0 34 33" fill="none" xmlns="http://www.w3.org/2000/svg">
<path d="M31.0599 7.68208C30.0278 8.13046 28.9362 8.42686 27.8193 8.56208C28.9977 7.85714 29.8808 6.74815 30.3047 5.44083C29.1973 6.10091 27.9851 6.56598 26.7207 6.81583C25.8756 5.89811 24.7502 5.28723 23.521 5.079C22.2918 4.87076 21.0283 5.07694 19.9287 5.66521C18.8292 6.25348 17.9557 7.19056 17.4453 8.32948C16.9349 9.4684 16.8165 10.7447 17.1085 11.9583C14.8695 11.8449 12.6793 11.2611 10.6803 10.2449C8.68122 9.22863 6.91804 7.80265 5.50526 6.05958C5.00974 6.92606 4.74936 7.90733 4.75002 8.90583C4.74826 9.8331 4.97552 10.7464 5.41155 11.5645C5.84758 12.3825 6.47886 13.0799 7.24919 13.5946C6.35385 13.5702 5.47764 13.3296 4.69509 12.8933V12.9621C4.7018 14.2613 5.15647 15.5183 5.98218 16.5205C6.8079 17.5227 7.95397 18.2086 9.22655 18.4621C8.73668 18.6114 8.22809 18.6901 7.71607 18.6958C7.36164 18.6917 7.00809 18.6595 6.65873 18.5996C7.02112 19.7172 7.72241 20.6939 8.66503 21.3938C9.60764 22.0937 10.7447 22.482 11.918 22.5046C9.93676 24.0656 7.49071 24.9175 4.96973 24.9246C4.51072 24.9261 4.05209 24.8985 3.59656 24.8421C6.17046 26.5062 9.16999 27.3896 12.2338 27.3858C14.348 27.4078 16.4455 27.0077 18.4036 26.2089C20.3617 25.4101 22.1412 24.2287 23.6382 22.7335C25.1352 21.2383 26.3197 19.4595 27.1225 17.5008C27.9252 15.5422 28.3301 13.443 28.3136 11.3258C28.3136 11.0921 28.3136 10.8446 28.3136 10.5971C29.3911 9.79244 30.3205 8.80603 31.0599 7.68208Z" fill="white"/>
</svg>
