<svg width="34" height="33" viewBox="0 0 34 33" fill="none" xmlns="http://www.w3.org/2000/svg">
<path d="M32.2713 13.3513C32.3392 11.3832 31.9094 9.42981 31.0217 7.67254C30.4195 6.95149 29.5836 6.46489 28.6599 6.29754C24.8391 5.95039 21.0025 5.8081 17.1665 5.87129C13.3444 5.80523 9.52163 5.94293 5.71424 6.28379C4.96149 6.4209 4.26488 6.77445 3.70941 7.30129C2.47356 8.44254 2.33624 10.395 2.19892 12.045C1.99969 15.0117 1.99969 17.9884 2.19892 20.955C2.23865 21.8837 2.37674 22.8056 2.61087 23.705C2.77644 24.3995 3.11142 25.042 3.58582 25.575C4.14507 26.1298 4.85791 26.5034 5.63184 26.6475C8.59228 27.0134 11.5752 27.1651 14.5574 27.1013C19.3635 27.17 23.5792 27.1013 28.5638 26.7163C29.3567 26.5811 30.0896 26.2069 30.6647 25.6438C31.0492 25.2587 31.3363 24.7873 31.5023 24.2688C31.9934 22.7599 32.2346 21.1807 32.2164 19.5938C32.2713 18.8238 32.2713 14.1763 32.2713 13.3513ZM14.0631 20.4188V11.9075L22.1923 16.1838C19.9128 17.4488 16.9056 18.8788 14.0631 20.4188Z" fill="white"/>
</svg>
