<svg width="374" height="281" viewBox="0 0 374 281" fill="none" xmlns="http://www.w3.org/2000/svg">
<g clip-path="url(#clip0_1017_2043)">
<path d="M374 246.859H0V247.046H374V246.859Z" fill="#EBEBEB"/>
<path d="M177.275 213.344H32.8442C31.7127 213.342 30.6283 212.889 29.8289 212.084C29.0295 211.28 28.5806 210.19 28.5806 209.053V5.08527C28.5904 3.9551 29.0437 2.87447 29.842 2.07811C30.6403 1.28175 31.7192 0.833967 32.8442 0.832031H177.275C178.408 0.832031 179.495 1.2841 180.296 2.08878C181.097 2.89347 181.547 3.98485 181.547 5.12284V209.053C181.547 210.191 181.097 211.282 180.296 212.087C179.495 212.892 178.408 213.344 177.275 213.344ZM32.8442 0.982323C31.7623 0.984314 30.7254 1.41746 29.9611 2.1867C29.1968 2.95594 28.7676 3.9984 28.7676 5.08527V209.053C28.7676 210.14 29.1968 211.182 29.9611 211.952C30.7254 212.721 31.7623 213.154 32.8442 213.156H177.275C178.358 213.154 179.396 212.721 180.161 211.952C180.927 211.183 181.358 210.141 181.36 209.053V5.08527C181.358 3.99771 180.927 2.95526 180.161 2.18624C179.396 1.41722 178.358 0.984309 177.275 0.982323H32.8442Z" fill="#EBEBEB"/>
<path d="M339.076 213.344H194.637C193.505 213.342 192.42 212.889 191.619 212.085C190.819 211.281 190.368 210.19 190.366 209.053V5.08527C190.378 3.95442 190.833 2.8738 191.632 2.07764C192.432 1.28148 193.511 0.833946 194.637 0.832031H339.076C340.2 0.835942 341.276 1.28459 342.073 2.08075C342.87 2.8769 343.322 3.9564 343.332 5.08527V209.053C343.332 210.188 342.884 211.277 342.086 212.082C341.289 212.886 340.206 213.34 339.076 213.344ZM194.637 0.982323C193.554 0.984309 192.517 1.41722 191.751 2.18624C190.986 2.95526 190.555 3.99771 190.553 5.08527V209.053C190.555 210.141 190.986 211.183 191.751 211.952C192.517 212.721 193.554 213.154 194.637 213.156H339.076C340.158 213.154 341.196 212.721 341.962 211.952C342.727 211.183 343.158 210.141 343.16 209.053V5.08527C343.158 3.99771 342.727 2.95526 341.962 2.18624C341.196 1.41722 340.158 0.984309 339.076 0.982323H194.637Z" fill="#EBEBEB"/>
<path d="M149.929 254.013H130.481V254.2H149.929V254.013Z" fill="#EBEBEB"/>
<path d="M79.7066 251.976H39.2397V252.163H79.7066V251.976Z" fill="#EBEBEB"/>
<path d="M129.734 260.994H110.046V261.181H129.734V260.994Z" fill="#EBEBEB"/>
<path d="M222.201 259.731H193.156V259.919H222.201V259.731Z" fill="#EBEBEB"/>
<path d="M236.854 259.731H228.858V259.919H236.854V259.731Z" fill="#EBEBEB"/>
<path d="M336.533 256.553H295.722V256.74H336.533V256.553Z" fill="#EBEBEB"/>
<path d="M285.033 240.186H319.179V145.901H285.033V240.186Z" fill="#F0F0F0"/>
<path d="M135.934 246.851L312.619 246.851V240.186L135.934 240.186V246.851Z" fill="#F0F0F0"/>
<path d="M285.033 145.901H129.381V240.186H285.033V145.901Z" fill="#F5F5F5"/>
<path d="M285.631 152.28H129.381V186.795H285.631V152.28Z" fill="#F0F0F0"/>
<path d="M285.631 193.084H129.381V227.599H285.631V193.084Z" fill="#F0F0F0"/>
<path d="M285.032 186.788H290.942V152.273H285.032V186.788Z" fill="#E6E6E6"/>
<path d="M285.032 227.599H290.942V193.085H285.032V227.599Z" fill="#E6E6E6"/>
<path d="M124.834 145.901L285.033 145.901V140.1L124.834 140.1V145.901Z" fill="#F0F0F0"/>
<path d="M323.951 140.099H285.033V145.9H323.951V140.099Z" fill="#E6E6E6"/>
<path d="M235.672 28.884V114.37H314.773V28.884H235.672Z" fill="white"/>
<path d="M80.7764 246.859H99.8429L94.5396 243.718H86.0797L80.7764 246.859Z" fill="#F0F0F0"/>
<path d="M164.47 107.065H204.742L199.439 140.099H169.773L164.47 107.065Z" fill="#F0F0F0"/>
<path d="M180.649 117.819C191.63 113.829 200.038 107.832 190.628 95.696C181.218 83.56 166.639 83.6201 156.811 88.993C144.289 95.8312 146.802 115.632 146.802 115.632C146.802 115.632 169.669 121.817 180.649 117.819Z" fill="#E0E0E0"/>
<path d="M191.324 106.787C182.924 101.038 176.97 94.388 186.716 87.3694C196.462 80.3508 208.483 83.9503 215.709 90.4654C224.916 98.7765 219.598 113.362 219.598 113.362C219.598 113.362 199.716 112.506 191.324 106.787Z" fill="#E6E6E6"/>
<path d="M176.528 92.2017C186.357 91.608 194.6 89.0305 189.947 78.3373C185.295 67.6441 173.491 64.6458 164.284 66.4794C152.518 68.8164 149.742 83.605 149.742 83.605C149.742 83.605 166.707 92.8028 176.528 92.2017Z" fill="#F0F0F0"/>
<path d="M188.87 85.8967C180.694 83.2515 174.284 79.2914 180.515 71.2583C186.746 63.2252 197.345 63.2703 204.75 66.8172C214.19 71.3259 213.352 84.4464 213.352 84.4464C213.352 84.4464 197.046 88.5343 188.87 85.8967Z" fill="#EBEBEB"/>
<path d="M173.536 72.2203C181.697 74.9255 189.2 75.5116 188.863 65.3369C188.526 55.1622 179.954 48.9251 171.891 47.3771C161.606 45.4534 154.604 56.5374 154.604 56.5374C154.604 56.5374 165.391 69.4925 173.536 72.2203Z" fill="#F5F5F5"/>
<path d="M194.248 67.8244C188.406 68.2302 183.357 67.3435 185.272 60.6781C187.187 54.0127 193.919 51.3601 199.484 51.7283C206.59 52.2017 209.35 60.7457 209.35 60.7457C209.35 60.7457 200.082 67.4262 194.248 67.8244Z" fill="#FAFAFA"/>
<path d="M187 280.794C267.098 280.794 332.03 276.986 332.03 272.288C332.03 267.59 267.098 263.781 187 263.781C106.902 263.781 41.9705 267.59 41.9705 272.288C41.9705 276.986 106.902 280.794 187 280.794Z" fill="#F5F5F5"/>
<path d="M313.607 148.178H59.4736V157.338H313.607V148.178Z" fill="#9D3CFE"/>
<path opacity="0.3" d="M127.489 148.178H59.4736V157.338H127.489V148.178Z" fill="white"/>
<path d="M128.574 157.338H122.657L125.754 272.145H128.574H131.394L134.498 157.338H128.574Z" fill="#9D3CFE"/>
<path opacity="0.3" d="M125.754 272.145H128.574V159.81L122.755 160.877L125.754 272.145Z" fill="white"/>
<path d="M72.4963 157.338H66.5796L69.6763 272.145H72.4963H75.3162L78.413 157.338H72.4963Z" fill="#9D3CFE"/>
<path opacity="0.3" d="M69.6766 272.145H72.4966V159.81L66.6697 160.877L69.6766 272.145Z" fill="white"/>
<path d="M300.584 157.338H294.667L297.764 272.145H300.584H303.404L306.508 157.338H300.584Z" fill="#9D3CFE"/>
<path opacity="0.3" d="M297.764 272.145H300.584V159.81L294.764 160.877L297.764 272.145Z" fill="white"/>
<path d="M244.506 157.338H238.589L241.686 272.145H244.506H247.326L250.423 157.338H244.506Z" fill="#9D3CFE"/>
<path opacity="0.3" d="M241.686 272.145H244.506V159.81L238.687 160.877L241.686 272.145Z" fill="white"/>
<path d="M180.103 99.145H119.68C119.189 99.1255 118.701 99.2228 118.256 99.429C117.81 99.6351 117.419 99.9442 117.115 100.331C116.811 100.718 116.602 101.172 116.506 101.655C116.409 102.139 116.428 102.638 116.561 103.113L124.609 141.7C124.868 142.791 125.474 143.768 126.335 144.483C127.196 145.197 128.266 145.611 129.381 145.66H189.85C190.339 145.679 190.826 145.582 191.271 145.376C191.716 145.171 192.107 144.862 192.411 144.476C192.715 144.09 192.924 143.638 193.021 143.155C193.118 142.673 193.1 142.174 192.969 141.7L184.913 103.113C184.653 102.014 184.043 101.031 183.174 100.314C182.305 99.5976 181.227 99.1869 180.103 99.145Z" fill="#263238"/>
<path d="M129.905 143.459C129.152 143.408 128.433 143.118 127.853 142.633C127.273 142.147 126.86 141.489 126.674 140.753L118.626 102.166C118.557 101.911 118.546 101.643 118.594 101.383C118.642 101.123 118.747 100.877 118.902 100.663C119.063 100.48 119.263 100.336 119.487 100.241C119.711 100.146 119.954 100.103 120.196 100.115H180.665C181.418 100.166 182.137 100.455 182.717 100.941C183.297 101.427 183.71 102.084 183.896 102.82L191.945 141.407C192.013 141.663 192.024 141.93 191.976 142.19C191.929 142.45 191.823 142.696 191.668 142.91C191.508 143.094 191.308 143.24 191.084 143.335C190.86 143.43 190.617 143.472 190.374 143.459H129.905Z" fill="white"/>
<path opacity="0.4" d="M175.526 140.37L167.896 103.781C167.853 103.565 167.858 103.341 167.911 103.127C167.964 102.913 168.063 102.712 168.202 102.541C168.34 102.37 168.515 102.231 168.713 102.135C168.911 102.039 169.127 101.988 169.347 101.985H179.161C179.501 101.988 179.83 102.107 180.094 102.323C180.358 102.539 180.54 102.838 180.612 103.173L188.242 139.731C188.284 139.948 188.279 140.171 188.226 140.385C188.174 140.6 188.074 140.8 187.936 140.971C187.797 141.143 187.623 141.281 187.425 141.378C187.227 141.474 187.01 141.525 186.79 141.527H176.977C176.641 141.526 176.315 141.411 176.051 141.201C175.788 140.991 175.603 140.698 175.526 140.37Z" fill="#9D3CFE"/>
<path d="M123.66 105.187L123.331 103.601H135.448L135.778 105.187H123.66Z" fill="#9D3CFE"/>
<path d="M129.255 109.124L128.926 107.531H150.161L150.498 109.124H129.255Z" fill="#EBEBEB"/>
<path d="M130.377 113.055L130.04 111.469H153.849L154.178 113.055H130.377Z" fill="#EBEBEB"/>
<path d="M131.491 116.985L131.162 115.399H150.326L150.662 116.985H131.491Z" fill="#EBEBEB"/>
<path d="M127.348 123.372L127.011 121.787H134.678L135.007 123.372H127.348Z" fill="#9D3CFE"/>
<path d="M132.935 127.302L132.606 125.717H141.941L142.277 127.302H132.935Z" fill="#EBEBEB"/>
<path d="M144.514 127.302L144.177 125.717H153.52L153.849 127.302H144.514Z" fill="#EBEBEB"/>
<path d="M134.057 131.24L133.728 129.647H165.293L165.622 131.24H134.057Z" fill="#EBEBEB"/>
<path d="M135.171 135.17L134.842 133.584H158.913L159.242 135.17H135.171Z" fill="#EBEBEB"/>
<path d="M208.333 145.427H128.776C126.606 145.427 125.2 146.667 125.657 148.185H213.105C212.656 146.667 210.502 145.427 208.333 145.427Z" fill="#263238"/>
<path opacity="0.1" d="M102.633 89.3914L94.9963 52.8256C94.9546 52.6095 94.9607 52.3869 95.0142 52.1734C95.0676 51.96 95.167 51.7609 95.3054 51.5904C95.4438 51.4198 95.6178 51.2818 95.8152 51.1862C96.0125 51.0906 96.2283 51.0397 96.4474 51.0371H158.232C158.571 51.0394 158.9 51.1574 159.163 51.3717C159.427 51.5861 159.61 51.8841 159.683 52.2169L167.32 88.7527C167.363 88.9693 167.358 89.1927 167.305 89.4071C167.252 89.6215 167.153 89.8215 167.015 89.993C166.876 90.1645 166.702 90.3032 166.504 90.3992C166.306 90.4953 166.089 90.5463 165.869 90.5487H104.084C103.748 90.5476 103.422 90.4328 103.159 90.2229C102.896 90.0129 102.711 89.7201 102.633 89.3914Z" fill="#9D3CFE"/>
<path d="M124.595 52.2392H111.624L111.333 50.834H124.303L124.595 52.2392Z" fill="#9D3CFE"/>
<path opacity="0.4" d="M122.485 54.471H117.279L116.987 53.0732H122.193L122.485 54.471Z" fill="#9D3CFE"/>
<path opacity="0.4" d="M131.146 54.471H123.128L122.836 53.0732H130.855L131.146 54.471Z" fill="#9D3CFE"/>
<path opacity="0.4" d="M134.64 56.7104H117.743L117.451 55.3052H134.356L134.64 56.7104Z" fill="#9D3CFE"/>
<path opacity="0.4" d="M132.493 58.9422H118.206L117.915 57.5444H132.201L132.493 58.9422Z" fill="#9D3CFE"/>
<path opacity="0.4" d="M141.97 82.7031H132.875L133.166 84.1008H142.262L141.97 82.7031Z" fill="#9D3CFE"/>
<path d="M130.631 79.6296H117.309L117.017 78.2319H130.339L130.631 79.6296Z" fill="#9D3CFE"/>
<path opacity="0.4" d="M135.986 84.9351H123.599L123.891 86.3403H136.278L135.986 84.9351Z" fill="#9D3CFE"/>
<path opacity="0.4" d="M132.232 82.7031H123.136L123.428 84.1008H132.524L132.232 82.7031Z" fill="#9D3CFE"/>
<path opacity="0.4" d="M140.863 80.4639H122.672L122.964 81.8691H141.155L140.863 80.4639Z" fill="#9D3CFE"/>
<path d="M124.138 41.809H109.463L109.171 40.4038H123.847L124.138 41.809Z" fill="#9D3CFE"/>
<path opacity="0.4" d="M131.386 47.1143H115.2L115.491 48.512H131.671L131.386 47.1143Z" fill="#9D3CFE"/>
<path opacity="0.4" d="M128.147 44.875H114.736L115.027 46.2802H128.439L128.147 44.875Z" fill="#9D3CFE"/>
<path opacity="0.4" d="M129.038 42.6431H114.272L114.564 44.0408H129.329L129.038 42.6431Z" fill="#9D3CFE"/>
<path d="M123.974 62.5794H113.771L113.479 61.1816H123.682L123.974 62.5794Z" fill="#9D3CFE"/>
<path opacity="0.4" d="M139.996 67.8848H120.062L120.353 69.29H140.28L139.996 67.8848Z" fill="#9D3CFE"/>
<path opacity="0.4" d="M127.855 65.6528H119.597L119.889 67.0505H128.147L127.855 65.6528Z" fill="#9D3CFE"/>
<path opacity="0.4" d="M136.817 65.6528H128.559L128.851 67.0505H137.109L136.817 65.6528Z" fill="#9D3CFE"/>
<path opacity="0.4" d="M137.326 63.4136H119.134L119.426 64.8188H137.61L137.326 63.4136Z" fill="#9D3CFE"/>
<path opacity="0.4" d="M137.288 74.5952H121.453L121.745 75.9929H137.58L137.288 74.5952Z" fill="#9D3CFE"/>
<path opacity="0.4" d="M125.597 72.356H120.989L121.281 73.7612H125.881L125.597 72.356Z" fill="#9D3CFE"/>
<path opacity="0.4" d="M132.8 72.356H126.225L126.517 73.7612H133.092L132.8 72.356Z" fill="#9D3CFE"/>
<path opacity="0.4" d="M138.717 70.124H120.526L120.818 71.5217H139.009L138.717 70.124Z" fill="#9D3CFE"/>
<path opacity="0.4" d="M153.041 69.748H146.526L146.234 68.3428H152.757L153.041 69.748Z" fill="#9D3CFE"/>
<path opacity="0.4" d="M163.887 69.748H153.849L153.557 68.3428H163.596L163.887 69.748Z" fill="#9D3CFE"/>
<path opacity="0.4" d="M168.151 71.9797H146.99L146.698 70.582H167.859L168.151 71.9797Z" fill="#9D3CFE"/>
<path opacity="0.4" d="M165.338 74.2192H147.453L147.161 72.814H165.046L165.338 74.2192Z" fill="#9D3CFE"/>
<path opacity="0.4" d="M173.349 60.8511H153.086L153.377 62.2563H173.641L173.349 60.8511Z" fill="#9D3CFE"/>
<path opacity="0.4" d="M169.415 58.6191H152.622L152.914 60.0168H169.699L169.415 58.6191Z" fill="#9D3CFE"/>
<path d="M166.378 56.3799H147.888L148.179 57.7851H166.67L166.378 56.3799Z" fill="#9D3CFE"/>
<path opacity="0.4" d="M174.262 83.1616H149.309L149.6 84.5593H174.554L174.262 83.1616Z" fill="#9D3CFE"/>
<path opacity="0.4" d="M159.182 80.9224H148.844L149.136 82.3276H159.474L159.182 80.9224Z" fill="#9D3CFE"/>
<path opacity="0.4" d="M170.402 80.9224H160.064L160.356 82.3276H170.694L170.402 80.9224Z" fill="#9D3CFE"/>
<path opacity="0.4" d="M171.15 78.6904H148.381L148.673 80.0881H171.442L171.15 78.6904Z" fill="#9D3CFE"/>
<path opacity="0.4" d="M170.521 89.8647H150.699L150.991 91.27H170.813L170.521 89.8647Z" fill="#9D3CFE"/>
<path opacity="0.4" d="M156.003 87.6328H150.236L150.528 89.0305H156.295L156.003 87.6328Z" fill="#9D3CFE"/>
<path opacity="0.4" d="M165.024 87.6328H156.796L157.088 89.0305H165.316L165.024 87.6328Z" fill="#9D3CFE"/>
<path opacity="0.4" d="M172.549 85.3936H149.772L150.064 86.7988H172.833L172.549 85.3936Z" fill="#9D3CFE"/>
<path opacity="0.4" d="M111.901 91.6006H96.3877L96.6794 92.9983H112.193L111.901 91.6006Z" fill="#9D3CFE"/>
<path opacity="0.4" d="M107.315 89.3613H95.9233L96.2151 90.7665H107.6L107.315 89.3613Z" fill="#9D3CFE"/>
<path opacity="0.4" d="M119.501 89.3613H108.116L108.408 90.7665H119.8L119.501 89.3613Z" fill="#9D3CFE"/>
<path opacity="0.4" d="M118.237 87.1294H95.4602L95.7519 88.5271H118.521L118.237 87.1294Z" fill="#9D3CFE"/>
<path d="M292.431 133.584H282.827L283.949 148.178H291.309L292.431 133.584Z" fill="#9D3CFE"/>
<path opacity="0.4" d="M292.431 133.584H282.827L283.949 148.178H291.309L292.431 133.584Z" fill="white"/>
<path d="M83.1252 123.447H96.9333L92.2209 148.178H78.4128L83.1252 123.447Z" fill="#263238"/>
<path d="M100.711 116.819H81.2102L86.6706 148.178H106.171L100.711 116.819Z" fill="#9D3CFE"/>
<path d="M80.0588 116.819H81.2108L86.6712 148.178H85.5192L80.0588 116.819Z" fill="#9D3CFE"/>
<path opacity="0.3" d="M80.0588 116.819H81.2108L86.6712 148.178H85.5192L80.0588 116.819Z" fill="black"/>
<path d="M89.4764 144.826L85.1829 120.171H97.9138L102.2 144.826H89.4764Z" fill="white"/>
<path opacity="0.6" d="M101.593 144.826L97.3074 120.171H97.9132L102.199 144.826H101.593Z" fill="#9D3CFE"/>
<path d="M197.3 76.729C197.577 77.3302 197.487 77.9689 197.091 78.1492C196.694 78.3296 196.156 77.9914 195.879 77.3978C195.602 76.8041 195.699 76.1579 196.088 75.9775C196.477 75.7972 197.023 76.0978 197.3 76.729Z" fill="#263238"/>
<path d="M197.54 77.9165C197.54 77.9165 197.779 82.0195 197.046 84.3941C198.542 84.8975 200.158 83.6426 200.158 83.6426L197.54 77.9165Z" fill="#FF5652"/>
<path d="M197.375 71.7622C197.312 71.815 197.233 71.8466 197.151 71.8524C196.664 71.8653 196.187 71.994 195.759 72.2278C195.332 72.4616 194.965 72.7939 194.69 73.1975C194.665 73.2438 194.632 73.2845 194.591 73.3175C194.55 73.3504 194.504 73.3748 194.454 73.3891C194.403 73.4035 194.351 73.4076 194.299 73.4012C194.247 73.3948 194.197 73.378 194.152 73.3518C194.107 73.3255 194.067 73.2904 194.036 73.2486C194.005 73.2067 193.982 73.159 193.969 73.1081C193.957 73.0573 193.954 73.0044 193.963 72.9526C193.971 72.9009 193.989 72.8512 194.017 72.8068C194.355 72.29 194.813 71.8625 195.351 71.5604C195.888 71.2584 196.49 71.0905 197.106 71.0709C197.188 71.0664 197.269 71.0879 197.338 71.1324C197.407 71.1769 197.46 71.2421 197.49 71.3187C197.519 71.3953 197.524 71.4794 197.504 71.5591C197.483 71.6387 197.438 71.7098 197.375 71.7622Z" fill="#263238"/>
<path d="M219.329 75.7974C221.641 83.8379 224.221 90.075 227.37 93.6369C227.37 93.6369 227.43 99.9567 216.711 102.963C204.923 106.269 209.441 98.6642 209.441 98.6642C215.425 95.3202 214.856 90.2704 210.353 88.3467L219.329 75.7974Z" fill="#FF8B7B"/>
<path d="M229.868 92.0963C229.659 89.1582 229.382 85.8067 227.579 85.7165C225.589 85.6263 214.07 90.7963 211.609 94.4409C209.148 98.0854 213.958 101.655 213.958 101.655L229.868 92.0963Z" fill="#263238"/>
<path d="M206.292 137.597L196.343 137.267L196.523 145.638C196.523 145.638 205.2 144.736 205.581 142.444L206.292 137.597Z" fill="#FF8B7B"/>
<path d="M191.085 141.377L190.038 145.66L196.523 145.645L196.343 137.274L191.085 141.377Z" fill="#FF8B7B"/>
<path d="M246.219 102.813L246.01 104.962C245.942 105.653 245.853 106.329 245.763 107.013C245.591 108.373 245.374 109.734 245.142 111.086C244.693 113.799 244.11 116.497 243.437 119.209C242.752 121.974 241.923 124.701 240.953 127.378C240.437 128.753 239.899 130.128 239.255 131.526C238.607 132.992 237.857 134.411 237.011 135.771C236.809 136.125 236.555 136.523 236.308 136.854C236.061 137.184 235.822 137.605 235.56 137.951C235.298 138.296 235.022 138.702 234.678 139.055L234.191 139.611C234.017 139.817 233.833 140.012 233.638 140.198C232.139 141.673 230.381 142.857 228.454 143.692C225.498 144.966 222.36 145.765 219.156 146.059C217.698 146.232 216.254 146.299 214.841 146.337C213.427 146.375 212.013 146.337 210.622 146.262C209.231 146.187 207.854 146.066 206.485 145.901C205.117 145.736 203.785 145.518 202.334 145.225L202.573 137.372C207.349 136.533 212.071 135.404 216.711 133.991C217.743 133.653 218.756 133.262 219.747 132.818C220.591 132.461 221.398 132.02 222.156 131.503C222.597 131.236 222.97 130.871 223.248 130.436L223.465 130.09C223.565 129.943 223.658 129.79 223.742 129.632C223.848 129.46 223.946 129.282 224.033 129.099C224.131 128.903 224.235 128.723 224.333 128.505C225.211 126.578 225.934 124.582 226.494 122.538C227.108 120.329 227.684 118.03 228.147 115.647C228.611 113.265 229.06 110.861 229.471 108.434L230.04 104.781L230.556 101.227L246.219 102.813Z" fill="#9D3CFE"/>
<path opacity="0.2" d="M246.219 102.813L246.01 104.962C245.942 105.653 245.853 106.329 245.763 107.013C245.591 108.373 245.374 109.734 245.142 111.086C244.693 113.799 244.11 116.497 243.437 119.209C242.752 121.974 241.923 124.701 240.953 127.378C240.437 128.753 239.899 130.128 239.255 131.526C238.607 132.992 237.857 134.411 237.011 135.771C236.809 136.125 236.555 136.523 236.308 136.854C236.061 137.184 235.822 137.605 235.56 137.951C235.298 138.296 235.022 138.702 234.678 139.055L234.191 139.611C234.017 139.817 233.833 140.012 233.638 140.198C232.139 141.673 230.381 142.857 228.454 143.692C225.498 144.966 222.36 145.765 219.156 146.059C217.698 146.232 216.254 146.299 214.841 146.337C213.427 146.375 212.013 146.337 210.622 146.262C209.231 146.187 207.854 146.066 206.485 145.901C205.117 145.736 203.785 145.518 202.334 145.225L202.573 137.372C207.349 136.533 212.071 135.404 216.711 133.991C217.743 133.653 218.756 133.262 219.747 132.818C220.591 132.461 221.398 132.02 222.156 131.503C222.597 131.236 222.97 130.871 223.248 130.436L223.465 130.09C223.565 129.943 223.658 129.79 223.742 129.632C223.848 129.46 223.946 129.282 224.033 129.099C224.131 128.903 224.235 128.723 224.333 128.505C225.211 126.578 225.934 124.582 226.494 122.538C227.108 120.329 227.684 118.03 228.147 115.647C228.611 113.265 229.06 110.861 229.471 108.434L230.04 104.781L230.556 101.227L246.219 102.813Z" fill="black"/>
<path d="M202.05 112.799C205.759 128.864 207.847 145.264 208.281 161.749H252.076C252.316 156.316 251.403 125.679 246.997 103.549C246.606 101.544 245.82 99.6387 244.686 97.9436C243.551 96.2486 242.091 94.7984 240.391 93.6783C238.69 92.5582 236.784 91.7908 234.785 91.4211C232.785 91.0514 230.732 91.087 228.746 91.5256L228.537 91.5782C223.069 92.8257 215.222 94.8396 210.585 96.6055L210.398 96.6806C207.296 97.8921 204.739 100.195 203.203 103.161C201.667 106.127 201.258 109.552 202.05 112.799Z" fill="#9D3CFE"/>
<path opacity="0.2" d="M204.9 126.851C205.244 128.963 205.596 131.202 205.917 133.547C209.5 129.79 210.637 118.277 210.637 118.277L204.9 126.851Z" fill="black"/>
<path d="M168.518 138.146L158.577 137.214L158.248 145.578C159.89 146.033 161.626 146.028 163.267 145.563C164.907 145.098 166.389 144.191 167.553 142.94L168.518 138.146Z" fill="#FF8B7B"/>
<path d="M153.849 139.679L150.662 145.427L158.277 145.578L158.606 137.207L153.849 139.679Z" fill="#FF8B7B"/>
<path d="M218.484 108.944C217.796 110.259 217.182 111.424 216.494 112.626C215.806 113.829 215.148 115.001 214.437 116.166C213.031 118.51 211.572 120.81 210.032 123.087C206.938 127.749 203.511 132.18 199.777 136.342C197.777 138.583 195.603 140.661 193.276 142.557C192.985 142.805 192.641 143.045 192.319 143.308C191.997 143.571 191.713 143.782 191.234 144.06C190.756 144.338 190.352 144.616 189.918 144.856C189.484 145.097 189.035 145.315 188.594 145.51C186.944 146.23 185.217 146.757 183.448 147.081C180.353 147.605 177.198 147.676 174.083 147.291C172.624 147.123 171.175 146.872 169.744 146.54C169.031 146.374 168.328 146.186 167.635 145.976C166.887 145.766 166.281 145.533 165.481 145.225L166.715 137.47C171.412 136.831 176.491 136.012 179.992 134.419C180.769 134.098 181.501 133.676 182.169 133.164C182.437 132.978 182.688 132.766 182.917 132.532C182.969 132.465 183.201 132.262 183.373 132.097C183.545 131.931 183.747 131.773 183.934 131.578C185.535 129.984 187.034 128.29 188.422 126.506C191.433 122.603 194.247 118.55 196.852 114.362C198.198 112.236 199.507 110.071 200.816 107.9L202.746 104.638L204.609 101.43L218.484 108.944Z" fill="#9D3CFE"/>
<path d="M206.464 265.796H198.281L194.159 246.746H202.35L206.464 265.796Z" fill="#FF8B7B"/>
<path d="M197.824 264.037H207.025C207.185 264.043 207.338 264.1 207.464 264.2C207.589 264.3 207.679 264.438 207.72 264.593L209.336 271.912C209.374 272.09 209.372 272.274 209.33 272.451C209.287 272.628 209.205 272.793 209.09 272.933C208.975 273.074 208.829 273.186 208.665 273.262C208.5 273.337 208.32 273.374 208.139 273.37C204.93 273.318 203.367 273.13 199.32 273.13C196.829 273.13 193.635 273.385 190.202 273.385C186.769 273.385 186.313 269.974 187.719 269.666C194.032 268.275 194.451 266.367 196.493 264.541C196.859 264.212 197.334 264.033 197.824 264.037Z" fill="#263238"/>
<g opacity="0.2">
<path opacity="0.2" d="M202.357 246.754H194.159L196.448 257.297L204.482 256.568L202.357 246.754Z" fill="black"/>
</g>
<path d="M216.703 66.1335C219.695 73.7383 221.775 78.0441 219.8 83.5673C216.808 91.8709 206.194 92.7125 201.033 86.1448C196.395 80.2309 192.341 68.7862 198.198 62.4965C199.48 61.1021 201.097 60.0605 202.893 59.4709C204.689 58.8812 206.606 58.7629 208.461 59.1275C210.315 59.492 212.046 60.3271 213.489 61.5534C214.932 62.7797 216.038 64.3564 216.703 66.1335Z" fill="#FF8B7B"/>
<path d="M202.327 77.5258C201.101 79.179 200.158 80.4339 200.158 80.4339C200.158 80.4339 197.637 74.1442 198.602 71.2586C197.376 68.8164 194.9 72.4159 193.965 67.6592C193.03 62.9024 197.076 57.7925 198.602 56.733C198.76 57.2873 198.83 57.8627 198.812 58.4388C202.935 55.0772 208.175 53.4146 213.473 53.7873C213.03 54.4488 212.748 55.2056 212.65 55.9966C212.65 55.9966 221.529 57.4995 223.548 62.5493C222.834 62.2068 222.08 61.9544 221.304 61.7978C222.932 64.1422 223.577 67.0356 223.099 69.8534C222.455 73.9628 222.12 78.115 222.097 82.275C222.179 84.4091 216.352 88.4895 212.799 84.1311C209.246 79.7726 202.327 77.5258 202.327 77.5258Z" fill="#263238"/>
<path d="M206.029 75.8875C206.493 77.6588 206.361 79.5342 205.655 81.2228C204.705 83.4772 202.753 82.9361 201.788 80.9673C200.913 79.2014 200.352 75.925 201.901 74.3545C203.449 72.7839 205.446 73.7608 206.029 75.8875Z" fill="#FF8B7B"/>
<path d="M221.408 161.719C221.408 161.719 183.38 175.576 182.266 193.904C180.201 227.667 193.942 254.396 193.942 254.396L206.538 253.044C206.538 253.044 204.294 242.178 202.626 211.593C200.524 173.156 265.458 212.495 252.084 161.719H221.408Z" fill="#9D3CFE"/>
<path opacity="0.5" d="M221.408 161.719C221.408 161.719 183.38 175.576 182.266 193.904C180.201 227.667 193.942 254.396 193.942 254.396L206.538 253.044C206.538 253.044 204.294 242.178 202.626 211.593C200.524 173.156 265.458 212.495 252.084 161.719H221.408Z" fill="white"/>
<path d="M190.456 249.737C190.397 249.737 192.461 255.358 192.461 255.358L208.169 253.81L207.384 248.7L190.456 249.737Z" fill="#9D3CFE"/>
<path d="M171.091 266.728H162.9L160.507 247.678H168.697L171.091 266.728Z" fill="#FF8B7B"/>
<path d="M162.84 264.03H171.816C171.978 264.028 172.136 264.082 172.262 264.183C172.389 264.285 172.477 264.427 172.512 264.586L174.142 271.898C174.19 272.077 174.195 272.264 174.158 272.446C174.121 272.628 174.043 272.798 173.929 272.944C173.815 273.09 173.669 273.207 173.502 273.286C173.335 273.365 173.152 273.404 172.968 273.401C169.744 273.348 165.077 273.168 161 273.175C156.258 273.175 155.353 273.438 149.78 273.446C146.414 273.446 145.479 270.041 146.885 269.688C153.288 268.276 155.338 268.118 160.865 264.684C161.449 264.283 162.134 264.056 162.84 264.03Z" fill="#263238"/>
<path opacity="0.2" d="M160.513 247.686L161.815 258.063L169.938 257.507L168.704 247.686H160.513Z" fill="black"/>
<path d="M208.281 161.719C208.281 161.719 145.973 167.272 146.646 198.713C147.342 231.417 159.504 253.472 159.504 253.472H171.667C171.667 253.472 169.363 236.504 169.774 204.312C169.894 194.671 189.297 191.484 208.237 190.357C224.603 189.38 239.922 180.01 246.28 164.808L247.589 161.719H208.281Z" fill="#9D3CFE"/>
<path opacity="0.5" d="M208.281 161.719C208.281 161.719 145.973 167.272 146.646 198.713C147.342 231.417 159.504 253.472 159.504 253.472H171.667C171.667 253.472 169.363 236.504 169.774 204.312C169.894 194.671 189.297 191.484 208.237 190.357C224.603 189.38 239.922 180.01 246.28 164.808L247.589 161.719H208.281Z" fill="white"/>
<path d="M156.654 250.188C156.602 250.188 158.741 255.839 158.741 255.839L173.432 254.779L172.572 249.669L156.654 250.188Z" fill="#9D3CFE"/>
<path d="M224.64 126.385L216.733 156.992C214.712 164.834 213.691 172.901 213.696 181.001V195.226C213.696 198.818 216.329 201.734 219.583 201.734H260.11C263.364 201.734 265.996 198.818 265.996 195.226V181.001C265.994 172.901 267.017 164.833 269.041 156.992L276.02 129.94C277.097 125.784 274.269 121.674 270.357 121.674H230.294C228.965 121.716 227.687 122.202 226.663 123.055C225.638 123.908 224.927 125.08 224.64 126.385Z" fill="#263238"/>
<path d="M174.232 186.915L175.556 194.505C176.259 198.495 179.752 201.734 183.365 201.734H228.417C232.03 201.734 234.401 198.495 233.698 194.505L232.374 186.915C231.574 182.369 227.602 178.687 223.488 178.687H180.268C176.124 178.687 173.439 182.369 174.232 186.915Z" fill="#263238"/>
<path d="M232.756 209.354H209.156L206.852 201.727H235.059L232.756 209.354Z" fill="#9D3CFE"/>
<path d="M225.171 209.354H216.741V266.021H225.171V209.354Z" fill="#9D3CFE"/>
<path opacity="0.7" d="M225.171 266.021H216.741V210.714L225.171 211.578V266.021Z" fill="white"/>
<path opacity="0.7" d="M223.113 266.021H221.101V211.157L223.113 211.368V266.021Z" fill="white"/>
<path d="M240.34 274.783H201.564C201.338 274.781 201.118 274.707 200.936 274.573C200.753 274.438 200.618 274.25 200.549 274.033C200.479 273.817 200.479 273.585 200.548 273.368C200.618 273.152 200.753 272.964 200.935 272.829L207.084 268.32C210.04 266.145 213.608 264.972 217.272 264.969H224.639C228.301 264.973 231.866 266.146 234.82 268.32L240.976 272.829C241.158 272.964 241.294 273.153 241.363 273.37C241.432 273.587 241.432 273.82 241.361 274.037C241.291 274.253 241.154 274.442 240.971 274.576C240.787 274.71 240.567 274.782 240.34 274.783Z" fill="#9D3CFE"/>
</g>
<defs>
<clipPath id="clip0_1017_2043">
<rect width="374" height="280" fill="white" transform="translate(0 0.794434)"/>
</clipPath>
</defs>
</svg>
