<svg width="92" height="86" viewBox="0 0 92 86" fill="none" xmlns="http://www.w3.org/2000/svg">
<path fill-rule="evenodd" clip-rule="evenodd" d="M9.36921 0.216686C8.87935 0.31286 8.44021 0.427998 8.39325 0.472699C8.3463 0.517399 8.1889 0.553972 8.04397 0.553972C7.89904 0.553972 7.74802 0.602736 7.7086 0.662337C7.66918 0.721938 7.53556 0.770703 7.41179 0.770703C7.28802 0.770703 7.18685 0.819468 7.18685 0.879068C7.18685 0.938669 7.0825 0.987433 6.95497 0.987433C6.82743 0.987433 6.72308 1.0362 6.72308 1.0958C6.72308 1.1554 6.61873 1.20416 6.49119 1.20416C6.36365 1.20416 6.2593 1.25293 6.2593 1.31253C6.2593 1.37213 6.15495 1.42089 6.02741 1.42089C5.89987 1.42089 5.79553 1.46966 5.79553 1.52926C5.79553 1.58886 5.71726 1.63763 5.62161 1.63763C5.52595 1.63763 5.44769 1.67582 5.44769 1.72269C5.44769 1.76929 5.28827 1.89553 5.09348 2.00309C4.70855 2.21575 2.43344 4.2858 2.43257 4.42424C2.43228 4.47111 2.28561 4.6556 2.10676 4.8344C1.92792 5.0132 1.70676 5.31798 1.61516 5.51168C1.52385 5.70539 1.40965 5.86387 1.36124 5.86387C1.31313 5.86387 1.2737 5.9614 1.2737 6.0806C1.2737 6.1998 1.22153 6.29733 1.15776 6.29733C1.09399 6.29733 1.04182 6.39486 1.04182 6.51406C1.04182 6.63326 0.989641 6.73079 0.925872 6.73079C0.862103 6.73079 0.809928 6.82534 0.809928 6.94102C0.809928 7.0567 0.757752 7.18159 0.693983 7.21844C0.630214 7.25528 0.57804 7.39643 0.57804 7.53188C0.57804 7.66734 0.541516 7.81255 0.496878 7.85427C-0.00516016 8.32349 0.00237694 7.78682 0.00034792 43.0223C-0.0016811 77.9357 -0.0095073 77.3595 0.467313 78.1692C0.528184 78.2727 0.57804 78.4526 0.57804 78.5691C0.57804 78.6856 0.630214 78.811 0.693983 78.8479C0.757752 78.8847 0.809928 79.0096 0.809928 79.1253C0.809928 79.241 0.862103 79.3355 0.925872 79.3355C0.989641 79.3355 1.04182 79.433 1.04182 79.5522C1.04182 79.6714 1.09399 79.769 1.15776 79.769C1.22153 79.769 1.2737 79.8665 1.2737 79.9857C1.2737 80.1049 1.32588 80.2024 1.38965 80.2024C1.45342 80.2024 1.50559 80.3 1.50559 80.4192C1.50559 80.5384 1.55777 80.6359 1.62154 80.6359C1.68531 80.6359 1.73748 80.6874 1.73748 80.7502C1.73748 80.8131 1.89371 81.0203 2.08473 81.2108C2.27575 81.4012 2.43228 81.5941 2.43257 81.6396C2.43344 81.7578 4.61174 83.7785 4.7384 83.7785C4.79609 83.7785 5.0071 83.9213 5.20711 84.096C5.40711 84.2705 5.72567 84.4774 5.91495 84.556C6.10423 84.6343 6.2593 84.7351 6.2593 84.7803C6.2593 84.8253 6.36365 84.8622 6.49119 84.8622C6.61873 84.8622 6.72308 84.9109 6.72308 84.9705C6.72308 85.0301 6.82743 85.0789 6.95497 85.0789C7.0825 85.0789 7.18685 85.1187 7.18685 85.1677C7.18685 85.2165 7.45092 85.3238 7.77382 85.4059C8.09673 85.488 8.38688 85.5944 8.41847 85.6421C8.45007 85.6901 8.65123 85.7291 8.86515 85.7291C9.07935 85.7291 9.27617 85.79 9.30284 85.8645C9.34139 85.9726 16.7569 86 45.8638 86C83.5822 86 82.8024 86.0081 83.6216 85.6101C83.7323 85.5562 83.9248 85.5123 84.0494 85.5123C84.174 85.5123 84.3083 85.4636 84.3477 85.404C84.3871 85.3444 84.5207 85.2956 84.6445 85.2956C84.7682 85.2956 84.8694 85.2468 84.8694 85.1872C84.8694 85.1276 84.9427 85.0789 85.0323 85.0789C85.2254 85.0789 86.1857 84.627 86.2413 84.51C86.2628 84.4653 86.3541 84.4287 86.4442 84.4287C86.5347 84.4287 86.6086 84.3799 86.6086 84.3203C86.6086 84.2607 86.6868 84.212 86.7825 84.212C86.8782 84.212 86.9564 84.1632 86.9564 84.1036C86.9564 84.044 87.0103 83.9952 87.0761 83.9952C87.2097 83.9952 89.7391 81.6494 89.7391 81.5253C89.7391 81.482 89.8594 81.3251 90.0066 81.1766C90.1536 81.0282 90.3489 80.7483 90.4405 80.5546C90.5324 80.3609 90.6466 80.2024 90.695 80.2024C90.7431 80.2024 90.7826 80.1049 90.7826 79.9857C90.7826 79.8665 90.8347 79.769 90.8985 79.769C90.9623 79.769 91.0145 79.6714 91.0145 79.5522C91.0145 79.433 91.0666 79.3355 91.1304 79.3355C91.1942 79.3355 91.2463 79.241 91.2463 79.1253C91.2463 79.0096 91.2985 78.8847 91.3623 78.8479C91.4261 78.811 91.4782 78.6647 91.4782 78.5228C91.4782 78.3808 91.5304 78.2345 91.5942 78.1977C91.6579 78.1608 91.7101 77.9969 91.7101 77.8336C91.7101 77.6702 91.7753 77.4757 91.855 77.4012C91.9704 77.2934 92 70.3008 92 43.1632C92 7.93473 92.0087 8.66267 91.5829 7.89707C91.5252 7.79359 91.4782 7.6137 91.4782 7.49721C91.4782 7.38071 91.4261 7.25528 91.3623 7.21844C91.2985 7.18159 91.2463 7.0567 91.2463 6.94102C91.2463 6.82534 91.1942 6.73079 91.1304 6.73079C91.0666 6.73079 91.0145 6.63326 91.0145 6.51406C91.0145 6.39486 90.9623 6.29733 90.8985 6.29733C90.8347 6.29733 90.7826 6.1998 90.7826 6.0806C90.7826 5.9614 90.7431 5.86387 90.695 5.86387C90.6466 5.86387 90.5324 5.70539 90.4411 5.51168C90.3495 5.31798 90.1283 5.0132 89.9495 4.8344C89.7707 4.6556 89.624 4.47219 89.6237 4.42668C89.6228 4.30206 87.4408 2.28782 87.3068 2.28782C87.2428 2.28782 87.0463 2.14965 86.8703 1.9806C86.6947 1.81155 86.381 1.60457 86.1738 1.52059C85.9665 1.43661 85.797 1.33122 85.797 1.28598C85.797 1.24101 85.6926 1.20416 85.5651 1.20416C85.4375 1.20416 85.3332 1.1554 85.3332 1.0958C85.3332 1.0362 85.2288 0.987433 85.1013 0.987433C84.9738 0.987433 84.8694 0.949234 84.8694 0.902637C84.8694 0.85604 84.6216 0.750384 84.3187 0.667755C84.0158 0.585127 83.6897 0.482451 83.594 0.439376C83.4984 0.396301 82.9766 0.282517 82.4346 0.186072C80.9302 -0.0810485 10.7376 -0.0515182 9.36921 0.216686ZM19.245 10.3068V15.8335H12.1725H5.09986V13.2934C5.09986 11.7167 5.14392 10.7276 5.2158 10.6861C5.27957 10.6493 5.33175 10.4025 5.33175 10.1378C5.33175 9.87311 5.38392 9.65666 5.44769 9.65666C5.51146 9.65666 5.56364 9.56373 5.56364 9.45022C5.56364 9.22915 6.0277 8.32593 6.17234 8.26606C6.22017 8.24601 6.2593 8.15688 6.2593 8.06748C6.2593 7.86077 8.41905 5.86387 8.64282 5.86387C8.73471 5.86387 8.81007 5.81511 8.81007 5.75551C8.81007 5.6959 8.91442 5.64714 9.04196 5.64714C9.1695 5.64714 9.27414 5.61057 9.27472 5.56587C9.27588 5.45588 9.84951 5.21368 10.1086 5.21368C10.2234 5.21368 10.3173 5.16491 10.3173 5.10531C10.3173 5.04571 10.5489 4.99695 10.8321 4.99695C11.1153 4.99695 11.3794 4.94818 11.4188 4.88858C11.4643 4.81977 12.9078 4.78022 15.3679 4.78022H19.245V10.3068ZM67.7097 43.0332V81.2861H46.0281H24.3466V43.0332V4.78022H46.0281H67.7097V43.0332ZM80.8114 4.88858C80.8114 4.94818 81.0201 4.99695 81.2751 4.99695C81.5302 4.99695 81.7389 5.04571 81.7389 5.10531C81.7389 5.16491 81.8954 5.21368 82.0868 5.21368C82.2781 5.21368 82.4346 5.26244 82.4346 5.32204C82.4346 5.38165 82.5389 5.43041 82.6665 5.43041C82.794 5.43041 82.8984 5.47917 82.8984 5.53877C82.8984 5.59838 82.9766 5.64714 83.0723 5.64714C83.1679 5.64714 83.2462 5.6959 83.2462 5.75551C83.2462 5.81511 83.339 5.86387 83.4526 5.86387C83.5659 5.86387 83.734 5.9614 83.8259 6.0806C83.9178 6.1998 84.0497 6.29733 84.1187 6.29733C84.2804 6.29733 85.1013 6.99791 85.1013 7.13581C85.1013 7.19324 85.2578 7.39345 85.4491 7.58065C85.6404 7.76785 85.797 7.99027 85.797 8.07533C85.797 8.1604 85.8361 8.24601 85.8839 8.26606C86.0286 8.32593 86.4926 9.22915 86.4926 9.45022C86.4926 9.56373 86.5448 9.65666 86.6086 9.65666C86.6723 9.65666 86.7245 9.87311 86.7245 10.1378C86.7245 10.4025 86.7767 10.6493 86.8405 10.6861C86.9123 10.7276 86.9564 11.7167 86.9564 13.2934V15.8335H79.8838H72.8112V10.3068V4.78022H76.8113C79.4006 4.78022 80.8114 4.81842 80.8114 4.88858ZM19.245 26.1282V31.5464H12.1725H5.09986V26.1282V20.7099H12.1725H19.245V26.1282ZM86.9564 26.1282V31.5464H79.8838H72.8112V26.1282V20.7099H79.8838H86.9564V26.1282ZM34.9966 27.3275C34.496 27.5648 34.0946 28.0105 34.0053 28.428C33.9699 28.5935 33.8955 28.7289 33.8395 28.7289C33.7821 28.7289 33.7381 34.9315 33.7381 43.0332C33.7381 52.497 33.7772 57.3374 33.854 57.3374C33.9178 57.3374 33.9699 57.4555 33.9699 57.5999C33.9699 58.9092 37.3651 59.505 38.3712 58.3723C38.4529 58.2799 38.5805 58.2043 38.6544 58.2043C38.728 58.2043 38.8637 58.1068 38.9555 57.9876C39.0474 57.8684 39.204 57.7708 39.3034 57.7708C39.4028 57.7708 39.5593 57.6733 39.6512 57.5541C39.7431 57.4349 39.8996 57.3374 39.999 57.3374C40.0985 57.3374 40.255 57.2398 40.3469 57.1206C40.4388 57.0014 40.5953 56.9039 40.6947 56.9039C40.7941 56.9039 40.9507 56.8064 41.0425 56.6872C41.1344 56.568 41.291 56.4705 41.3904 56.4705C41.4898 56.4705 41.6463 56.3729 41.7382 56.2537C41.8301 56.1345 41.9866 56.037 42.086 56.037C42.1855 56.037 42.342 55.9395 42.4339 55.8203C42.5258 55.7011 42.6823 55.6035 42.7817 55.6035C42.8811 55.6035 43.0376 55.506 43.1295 55.3868C43.2214 55.2676 43.3519 55.1701 43.4194 55.1701C43.4869 55.1701 43.6174 55.0725 43.7093 54.9533C43.8011 54.8341 43.9577 54.7366 44.0571 54.7366C44.1565 54.7366 44.313 54.6391 44.4049 54.5199C44.4968 54.4007 44.6612 54.3032 44.7701 54.3032C44.8788 54.3032 45.0371 54.2422 45.1212 54.1677C45.2055 54.0932 45.418 53.9632 45.5933 53.8784C45.7687 53.7938 45.9122 53.6841 45.9122 53.6345C45.9122 53.5852 46.0049 53.5446 46.1186 53.5446C46.2319 53.5446 46.4 53.4471 46.4919 53.3279C46.5838 53.2087 46.7328 53.1111 46.8226 53.1111C46.9128 53.1111 47.0708 53.0255 47.174 52.9207C47.2771 52.8161 47.505 52.6614 47.6803 52.5774C47.8557 52.4932 47.9992 52.3837 47.9992 52.3342C47.9992 52.2848 48.0769 52.2442 48.1722 52.2442C48.2673 52.2442 48.4102 52.1467 48.4899 52.0275C48.5696 51.9083 48.7149 51.8107 48.8131 51.8107C48.9111 51.8107 49.0667 51.7132 49.1586 51.594C49.2505 51.4748 49.407 51.3773 49.5065 51.3773C49.6059 51.3773 49.7624 51.2798 49.8543 51.1606C49.9462 51.0414 50.1027 50.9438 50.2021 50.9438C50.3015 50.9438 50.4581 50.8463 50.55 50.7271C50.6418 50.6079 50.7984 50.5104 50.8978 50.5104C50.9972 50.5104 51.1537 50.4128 51.2456 50.2936C51.3375 50.1744 51.5056 50.0769 51.619 50.0769C51.7326 50.0769 51.8253 50.0289 51.8253 49.9707C51.8253 49.9122 51.952 49.8347 52.1068 49.7984C52.2613 49.7621 52.4781 49.6391 52.5885 49.5253C52.6987 49.4115 52.8587 49.3183 52.9439 49.3183C53.0291 49.3183 53.1639 49.2208 53.2436 49.1016C53.3233 48.9824 53.4686 48.8849 53.5668 48.8849C53.6648 48.8849 53.8204 48.7874 53.9123 48.6682C54.0042 48.549 54.1607 48.4514 54.2602 48.4514C54.3596 48.4514 54.5161 48.3539 54.608 48.2347C54.6999 48.1155 54.8564 48.018 54.9558 48.018C55.0553 48.018 55.2118 47.9204 55.3037 47.8012C55.3956 47.682 55.5521 47.5845 55.6515 47.5845C55.7509 47.5845 55.9074 47.487 55.9993 47.3678C56.0912 47.2486 56.2477 47.151 56.3472 47.151C56.4466 47.151 56.6031 47.0535 56.695 46.9343C56.7869 46.8151 56.9434 46.7176 57.0428 46.7176C57.1423 46.7176 57.2988 46.6201 57.3907 46.5009C57.4825 46.3816 57.624 46.2841 57.7052 46.2841C57.786 46.2841 57.9176 46.1866 57.9973 46.0674C58.077 45.9482 58.2223 45.8507 58.3205 45.8507C58.4185 45.8507 58.5742 45.7531 58.666 45.6339C58.7579 45.5147 58.9153 45.4172 59.0159 45.4172C59.3116 45.4172 60.4052 44.5763 60.4052 44.349C60.4052 44.281 60.4574 44.2252 60.5212 44.2252C60.5849 44.2252 60.6371 44.0155 60.6371 43.7592C60.6371 43.5029 60.6997 43.2347 60.7762 43.1632C60.8843 43.0621 60.8843 43.0042 60.7762 42.9031C60.6997 42.8316 60.6371 42.6116 60.6371 42.4141C60.6371 41.8533 60.1525 41.1904 59.58 40.9691C59.3962 40.8978 59.2458 40.7968 59.2458 40.7442C59.2458 40.6919 59.1774 40.6491 59.0936 40.6491C59.0101 40.6491 58.8295 40.5516 58.6927 40.4324C58.5559 40.3132 58.3976 40.2157 58.3411 40.2157C58.2846 40.2157 58.1437 40.1181 58.0284 39.9989C57.913 39.8797 57.7675 39.7822 57.7052 39.7822C57.6428 39.7822 57.5075 39.6966 57.4043 39.5917C57.3011 39.4872 57.0733 39.3325 56.8979 39.2485C56.7225 39.1642 56.5791 39.0548 56.5791 39.0052C56.5791 38.9559 56.5106 38.9153 56.4269 38.9153C56.3434 38.9153 56.1738 38.8299 56.0501 38.7256C55.9266 38.6213 55.6819 38.4669 55.5066 38.3821C55.3312 38.2976 55.1877 38.1879 55.1877 38.1383C55.1877 38.089 55.1193 38.0484 55.0355 38.0484C54.9521 38.0484 54.7825 37.963 54.6587 37.8587C54.5352 37.7544 54.2906 37.6 54.1152 37.5152C53.9399 37.4307 53.7964 37.321 53.7964 37.2714C53.7964 37.2221 53.7262 37.1814 53.6404 37.1814C53.5546 37.1814 53.39 37.0839 53.2746 36.9647C53.1593 36.8455 53.023 36.748 52.972 36.748C52.8906 36.748 52.208 36.3584 51.8833 36.1265C51.8195 36.081 51.6239 35.9745 51.4485 35.8897C51.2732 35.8052 51.1297 35.6955 51.1297 35.6459C51.1297 35.5966 51.0613 35.556 50.9775 35.556C50.894 35.556 50.7245 35.4706 50.6007 35.3663C50.4772 35.262 50.2326 35.1076 50.0572 35.0228C49.8818 34.9383 49.7383 34.8286 49.7383 34.779C49.7383 34.7297 49.6699 34.689 49.5862 34.689C49.5027 34.689 49.3221 34.5915 49.1853 34.4723C49.0485 34.3531 48.8902 34.2556 48.8337 34.2556C48.7772 34.2556 48.6363 34.158 48.5209 34.0388C48.4056 33.9196 48.2409 33.8221 48.1551 33.8221C48.0693 33.8221 47.9992 33.7815 47.9992 33.7322C47.9992 33.6826 47.8557 33.5731 47.6803 33.4889C47.505 33.4049 47.2771 33.2502 47.174 33.1456C47.0708 33.0408 46.9128 32.9552 46.8226 32.9552C46.7328 32.9552 46.5838 32.8577 46.4919 32.7385C46.4 32.6193 46.2319 32.5217 46.1186 32.5217C46.0049 32.5217 45.9122 32.4811 45.9122 32.4318C45.9122 32.3822 45.7687 32.2725 45.5933 32.188C45.418 32.1032 45.2055 31.9731 45.1212 31.8986C45.0371 31.8241 44.8867 31.7632 44.787 31.7632C44.6875 31.7632 44.5217 31.6776 44.4185 31.5727C44.3154 31.4681 44.0875 31.3135 43.9122 31.2295C43.7368 31.1452 43.5933 31.0358 43.5933 30.9862C43.5933 30.9369 43.5342 30.8962 43.462 30.8962C43.3898 30.8962 43.2463 30.8106 43.1432 30.7058C43.04 30.6012 42.8121 30.4465 42.6368 30.3625C42.4614 30.2783 42.3179 30.1688 42.3179 30.1193C42.3179 30.07 42.2495 30.0293 42.1657 30.0293C42.0823 30.0293 41.9127 29.944 41.7889 29.8397C41.6655 29.7354 41.4208 29.581 41.2454 29.4962C41.0701 29.4116 40.9266 29.3019 40.9266 29.2523C40.9266 29.203 40.8414 29.1624 40.7373 29.1624C40.6333 29.1624 40.4637 29.0768 40.3605 28.972C40.2573 28.8674 40.0295 28.7127 39.8541 28.6287C39.6787 28.5445 39.5353 28.435 39.5353 28.3854C39.5353 28.3361 39.4501 28.2955 39.346 28.2955C39.2419 28.2955 39.0715 28.2101 38.9674 28.1058C38.0721 27.208 36.0743 26.8163 34.9966 27.3275ZM39.139 34.2556C39.2295 34.2556 39.3034 34.2962 39.3034 34.3455C39.3034 34.3951 39.4469 34.5048 39.6222 34.5893C39.7976 34.6741 40.0422 34.8286 40.1657 34.9329C40.2895 35.0372 40.435 35.1225 40.4895 35.1225C40.544 35.1225 40.7005 35.22 40.8373 35.3392C40.9741 35.4584 41.1547 35.556 41.2382 35.556C41.322 35.556 41.3904 35.6015 41.3904 35.657C41.3904 35.7125 41.4886 35.7873 41.6083 35.8228C41.7283 35.8583 41.9452 35.9835 42.0901 36.101C42.2347 36.2183 42.4382 36.3145 42.542 36.3145C42.6458 36.3145 42.8058 36.412 42.8976 36.5312C42.9895 36.6504 43.1461 36.748 43.2455 36.748C43.3449 36.748 43.5014 36.8455 43.5933 36.9647C43.6852 37.0839 43.8272 37.1814 43.9087 37.1814C43.9904 37.1814 44.0571 37.2221 44.0571 37.2714C44.0571 37.321 44.2006 37.4304 44.3759 37.5147C44.5513 37.5986 44.7791 37.7533 44.8823 37.8579C44.9855 37.9627 45.1435 38.0484 45.2336 38.0484C45.3235 38.0484 45.4725 38.1459 45.5644 38.2651C45.6562 38.3843 45.8128 38.4818 45.9122 38.4818C46.0116 38.4818 46.1681 38.5793 46.26 38.6985C46.3519 38.8177 46.5084 38.9153 46.6079 38.9153C46.7073 38.9153 46.8638 39.0128 46.9557 39.132C47.0476 39.2512 47.2041 39.3487 47.3035 39.3487C47.4029 39.3487 47.5595 39.4463 47.6514 39.5655C47.7432 39.6847 47.9114 39.7822 48.0247 39.7822C48.1383 39.7822 48.2317 39.8188 48.2319 39.8635C48.2325 39.9082 48.5586 40.1393 48.9566 40.3769C49.3549 40.6147 49.6978 40.8463 49.7189 40.8916C49.7404 40.9371 49.8462 40.9742 49.9543 40.9742C50.0624 40.9742 50.2262 41.0717 50.3181 41.1909C50.41 41.3102 50.5665 41.4077 50.6659 41.4077C50.7653 41.4077 50.9218 41.5052 51.0137 41.6244C51.1056 41.7436 51.2621 41.8411 51.3616 41.8411C51.461 41.8411 51.6175 41.9387 51.7094 42.0579C51.8013 42.1771 51.9578 42.2746 52.0572 42.2746C52.1567 42.2746 52.3132 42.3721 52.4051 42.4913C52.4969 42.6105 52.6427 42.7081 52.7288 42.7081C52.8149 42.7081 52.9636 42.7812 53.0593 42.8706C53.2541 43.0527 53.0471 43.3583 52.7288 43.3583C52.6427 43.3583 52.4969 43.4558 52.4051 43.575C52.3132 43.6942 52.1567 43.7917 52.0572 43.7917C51.9578 43.7917 51.8013 43.8892 51.7094 44.0084C51.6175 44.1277 51.461 44.2252 51.3616 44.2252C51.2621 44.2252 51.1056 44.3227 51.0137 44.4419C50.9218 44.5611 50.7653 44.6586 50.6659 44.6586C50.5665 44.6586 50.41 44.7562 50.3181 44.8754C50.2262 44.9946 50.0624 45.0921 49.9543 45.0921C49.8462 45.0921 49.7404 45.1292 49.7189 45.1747C49.6978 45.22 49.3549 45.4516 48.9566 45.6895C48.5586 45.9271 48.2325 46.1581 48.2319 46.2028C48.2317 46.2475 48.1383 46.2841 48.0247 46.2841C47.9114 46.2841 47.7432 46.3816 47.6514 46.5009C47.5595 46.6201 47.4029 46.7176 47.3035 46.7176C47.2041 46.7176 47.0476 46.8151 46.9557 46.9343C46.8638 47.0535 46.7073 47.151 46.6079 47.151C46.5084 47.151 46.3519 47.2486 46.26 47.3678C46.1681 47.487 46.0116 47.5845 45.9122 47.5845C45.8128 47.5845 45.6562 47.682 45.5644 47.8012C45.4725 47.9204 45.3235 48.018 45.2336 48.018C45.1435 48.018 44.9855 48.1036 44.8823 48.2084C44.7791 48.313 44.5513 48.4677 44.3759 48.5517C44.2006 48.6359 44.0571 48.7454 44.0571 48.7949C44.0571 48.8442 43.9904 48.8849 43.9087 48.8849C43.8272 48.8849 43.6852 48.9824 43.5933 49.1016C43.5014 49.2208 43.3449 49.3183 43.2455 49.3183C43.1461 49.3183 42.9895 49.4159 42.8976 49.5351C42.8058 49.6543 42.666 49.7518 42.5872 49.7518C42.4655 49.7518 41.8428 50.0915 41.4483 50.3733C41.3846 50.4188 41.1889 50.5253 41.0136 50.6101C40.8382 50.6946 40.6947 50.8043 40.6947 50.8539C40.6947 50.9032 40.6263 50.9438 40.5425 50.9438C40.459 50.9438 40.2895 51.0292 40.1657 51.1335C40.0422 51.2378 39.7976 51.3922 39.6222 51.477C39.4469 51.5615 39.3034 51.6712 39.3034 51.7208C39.3034 51.7701 39.2295 51.8107 39.139 51.8107C39.0489 51.8107 38.9486 51.8717 38.9164 51.9462C38.8842 52.0207 38.8579 48.0098 38.8579 43.0332C38.8579 38.0565 38.8842 34.0456 38.9164 34.1201C38.9486 34.1946 39.0489 34.2556 39.139 34.2556ZM19.245 43.0332V49.7518H12.1725H5.09986V43.0332V36.3145H12.1725H19.245V43.0332ZM86.9564 43.0332V49.7518H79.8838H72.8112V43.0332V36.3145H79.8838H86.9564V43.0332ZM19.245 59.9381V65.3564H12.1725H5.09986V59.9381V54.5199H12.1725H19.245V59.9381ZM86.9564 59.9381V65.3564H79.8838H72.8112V59.9381V54.5199H79.8838H86.9564V59.9381ZM19.245 75.7595V81.2861H15.245C12.6557 81.2861 11.2449 81.2479 11.2449 81.1777C11.2449 81.1181 11.0362 81.0694 10.7811 81.0694C10.526 81.0694 10.3173 81.0206 10.3173 80.961C10.3173 80.9014 10.1608 80.8526 9.96951 80.8526C9.77821 80.8526 9.62168 80.8131 9.62168 80.7646C9.62168 80.7161 9.43907 80.6094 9.21588 80.5275C8.99268 80.4457 8.81007 80.339 8.81007 80.2905C8.81007 80.242 8.72949 80.2024 8.63094 80.2024C8.53239 80.2024 8.32514 80.0841 8.17035 79.9394C8.01556 79.7947 7.73788 79.5932 7.55353 79.4913C7.36918 79.3894 7.12917 79.1651 7.02019 78.9928C6.9112 78.8205 6.69554 78.561 6.54076 78.4163C6.38597 78.2716 6.2593 78.0779 6.2593 77.9858C6.2593 77.8937 6.21698 77.8184 6.1651 77.8184C6.11321 77.8184 5.99901 77.6477 5.91147 77.4391C5.82393 77.2305 5.70973 77.0599 5.65784 77.0599C5.60596 77.0599 5.56364 76.9136 5.56364 76.7348C5.56364 76.556 5.51146 76.4097 5.44769 76.4097C5.38392 76.4097 5.33175 76.1932 5.33175 75.9285C5.33175 75.6638 5.27957 75.417 5.2158 75.3802C5.14392 75.3387 5.09986 74.3496 5.09986 72.7729V70.2328H12.1725H19.245V75.7595ZM86.9564 72.8878C86.9564 74.5856 86.9147 75.5427 86.8405 75.5427C86.7767 75.5427 86.7245 75.7378 86.7245 75.9762C86.7245 76.2146 86.6723 76.4097 86.6086 76.4097C86.5448 76.4097 86.4926 76.556 86.4926 76.7348C86.4926 76.9136 86.4405 77.0599 86.3767 77.0599C86.3129 77.0599 86.2607 77.1574 86.2607 77.2766C86.2607 77.3958 86.2213 77.4933 86.1732 77.4933C86.1248 77.4933 86.0115 77.6518 85.921 77.8455C85.8306 78.0392 85.6613 78.2765 85.5448 78.373C85.4286 78.4694 85.3332 78.6084 85.3332 78.6818C85.3332 78.8446 84.3042 79.769 84.123 79.769C84.0514 79.769 83.9178 79.8665 83.8259 79.9857C83.734 80.1049 83.5659 80.2024 83.4526 80.2024C83.339 80.2024 83.2462 80.2512 83.2462 80.3108C83.2462 80.3704 83.1679 80.4192 83.0723 80.4192C82.9766 80.4192 82.8984 80.4679 82.8984 80.5275C82.8984 80.5871 82.794 80.6359 82.6665 80.6359C82.5389 80.6359 82.4346 80.6847 82.4346 80.7443C82.4346 80.8039 82.2781 80.8526 82.0868 80.8526C81.8954 80.8526 81.7389 80.9014 81.7389 80.961C81.7389 81.0206 81.5334 81.0694 81.2821 81.0694C81.0308 81.0694 80.7928 81.1181 80.7534 81.1777C80.7079 81.2465 79.245 81.2861 76.7464 81.2861H72.8112V75.7595V70.2328H79.8838H86.9564V72.8878Z" fill="white"/>
</svg>
