<svg width="76" height="86" viewBox="0 0 76 86" fill="none" xmlns="http://www.w3.org/2000/svg">
<path fill-rule="evenodd" clip-rule="evenodd" d="M41.7531 0.0400184C41.5478 0.0606732 41.3798 0.114031 41.3798 0.158568C41.3798 0.203105 41.2636 0.239681 41.1215 0.239681C40.9794 0.239681 40.8387 0.278409 40.8088 0.325743C40.7789 0.373077 40.6579 0.411804 40.54 0.411804C40.4221 0.411804 40.3256 0.450532 40.3256 0.497866C40.3256 0.5452 40.2268 0.583927 40.106 0.583927C39.9853 0.583927 39.8864 0.622655 39.8864 0.669989C39.8864 0.717323 39.8074 0.75605 39.7107 0.75605C39.6141 0.75605 39.5351 0.794778 39.5351 0.842112C39.5351 0.889446 39.474 0.928173 39.3996 0.928173C39.3251 0.928173 39.1793 1.00563 39.0756 1.1003C38.972 1.19496 38.8352 1.27242 38.7719 1.27242C38.7085 1.27242 38.6566 1.31115 38.6566 1.35848C38.6566 1.40582 38.5921 1.44454 38.5132 1.44454C38.4344 1.44454 38.3059 1.51275 38.2277 1.5958C38.1496 1.67906 37.917 1.85914 37.7108 1.99598C37.3357 2.2447 36.9608 2.61799 36.5484 3.15372C36.4276 3.31057 36.2794 3.49087 36.219 3.55434C36.1586 3.61781 36.1092 3.71291 36.1092 3.76562C36.1092 3.81834 36.0301 3.94463 35.9335 4.04618C35.8369 4.14774 35.7578 4.28178 35.7578 4.34374C35.7578 4.40592 35.7183 4.4567 35.67 4.4567C35.6216 4.4567 35.5821 4.53415 35.5821 4.62882C35.5821 4.72349 35.5426 4.80094 35.4943 4.80094C35.446 4.80094 35.4064 4.8784 35.4064 4.97307C35.4064 5.06773 35.3669 5.14519 35.3186 5.14519C35.2703 5.14519 35.2307 5.24201 35.2307 5.36034C35.2307 5.47868 35.1912 5.5755 35.1429 5.5755C35.0946 5.5755 35.0551 5.67232 35.0551 5.79065C35.0551 5.90899 35.0155 6.0058 34.9672 6.0058C34.9189 6.0058 34.8794 6.14135 34.8794 6.30702C34.8794 6.47269 34.8398 6.60823 34.7915 6.60823C34.7432 6.60823 34.7037 6.80187 34.7037 7.03854C34.7037 7.27521 34.6642 7.46885 34.6158 7.46885C34.5638 7.46885 34.528 7.78276 34.528 8.23824C34.528 8.66145 34.4885 9.03173 34.4402 9.06099C34.3187 9.13457 34.3187 34.2895 34.4402 34.3631C34.4885 34.3923 34.528 34.5705 34.528 34.759C34.528 34.9829 34.5891 35.1658 34.7037 35.2865C34.8003 35.3881 34.8794 35.5221 34.8794 35.5841C34.8794 35.6463 34.9312 35.697 34.9947 35.697C35.0579 35.697 35.1947 35.7745 35.2984 35.8692C35.4596 36.0163 35.6082 36.0413 36.3242 36.0413C37.2632 36.0413 37.377 35.9879 37.9978 35.2581C38.1715 35.0539 38.1739 34.8932 38.2174 21.5657C38.2521 10.9382 38.2846 8.05708 38.3711 7.97231C38.4315 7.91314 38.4809 7.73693 38.4809 7.58073C38.4809 7.42453 38.5205 7.29673 38.5688 7.29673C38.6171 7.29673 38.6566 7.21927 38.6566 7.1246C38.6566 7.02994 38.6962 6.95248 38.7445 6.95248C38.7928 6.95248 38.8323 6.90213 38.8323 6.8406C38.8323 6.68225 39.039 6.26549 39.1178 6.26463C39.154 6.2642 39.1837 6.18653 39.1837 6.09187C39.1837 5.9972 39.2133 5.91802 39.2496 5.91609C39.2858 5.91415 39.4736 5.70179 39.6668 5.44447C39.8601 5.18693 40.0887 4.95327 40.1748 4.92509C40.2609 4.89669 40.4212 4.78954 40.531 4.6867C40.8514 4.38656 41.698 3.94033 41.9466 3.94033C42.0212 3.94033 42.0825 3.9016 42.0825 3.85427C42.0825 3.80693 42.2011 3.7682 42.346 3.7682C42.491 3.7682 42.6096 3.72948 42.6096 3.68214C42.6096 3.63352 42.8584 3.59608 43.1805 3.59608C43.5027 3.59608 43.7515 3.55864 43.7515 3.51002C43.7515 3.46269 43.8677 3.42396 44.0098 3.42396C44.1519 3.42396 44.2926 3.46269 44.3225 3.51002C44.3524 3.55735 44.5896 3.59608 44.8496 3.59608C45.1096 3.59608 45.3468 3.63481 45.3766 3.68214C45.4065 3.72948 45.567 3.7682 45.7333 3.7682C45.8995 3.7682 46.0354 3.80693 46.0354 3.85427C46.0354 3.9016 46.1145 3.94033 46.2111 3.94033C46.3078 3.94033 46.3868 3.97905 46.3868 4.02639C46.3868 4.07372 46.4659 4.11245 46.5625 4.11245C46.6591 4.11245 46.7382 4.15118 46.7382 4.19851C46.7382 4.24585 46.8173 4.28457 46.9139 4.28457C47.0105 4.28457 47.0896 4.3233 47.0896 4.37064C47.0896 4.41797 47.139 4.45713 47.1994 4.45777C47.3399 4.45906 48.7586 5.78506 48.7586 5.91522C48.7586 5.96901 48.8376 6.09617 48.9343 6.19772C49.0309 6.29927 49.11 6.43331 49.11 6.49528C49.11 6.55746 49.1495 6.60823 49.1978 6.60823C49.2461 6.60823 49.2856 6.68612 49.2856 6.78143C49.2856 6.87675 49.3252 7.03166 49.3735 7.12568C49.4218 7.2197 49.5009 7.37375 49.5492 7.46777C49.5975 7.5618 49.637 7.75307 49.637 7.89292C49.637 8.03277 49.6765 8.17111 49.7249 8.20037C49.9636 8.34496 49.5689 9.01365 49.2417 9.01925C49.1934 9.02011 49.0201 9.13629 48.8565 9.27743C48.6929 9.41879 48.532 9.53433 48.4988 9.53433C48.3497 9.53433 47.0896 10.8481 47.0896 11.0036C47.0896 11.0568 46.971 11.2089 46.826 11.3416C46.6811 11.4744 46.5625 11.6362 46.5625 11.7014C46.5625 11.7665 46.4835 11.8758 46.3868 11.944C46.2902 12.0123 46.2111 12.137 46.2111 12.2212C46.2111 12.3055 46.1716 12.3744 46.1233 12.3744C46.075 12.3744 46.0354 12.4518 46.0354 12.5465C46.0354 12.6411 45.9959 12.7186 45.9476 12.7186C45.8975 12.7186 45.8598 12.9751 45.8598 13.3159C45.8598 13.6444 45.8993 13.9372 45.9476 13.9665C45.9959 13.9958 46.0354 14.0764 46.0354 14.1459C46.0354 14.3331 46.794 15.0423 46.9943 15.0423C47.0893 15.0423 47.1915 15.081 47.2213 15.1283C47.2512 15.1757 47.5081 15.2144 47.7923 15.2144C48.0765 15.2144 48.3334 15.1757 48.3633 15.1283C48.3932 15.081 48.4797 15.0423 48.5555 15.0423C48.7241 15.0423 49.637 14.1276 49.637 13.9588C49.637 13.8921 49.67 13.8374 49.7099 13.8374C49.7501 13.8374 49.8391 13.7309 49.9076 13.6007C50.0371 13.355 51.0983 12.2883 51.2134 12.2883C51.2494 12.2883 51.3937 12.1915 51.534 12.0731C51.6743 11.955 51.8386 11.8582 51.899 11.858C51.9594 11.858 52.0088 11.8193 52.0088 11.7719C52.0088 11.7246 52.0878 11.6859 52.1845 11.6859C52.2811 11.6859 52.3602 11.6471 52.3602 11.5998C52.3602 11.5525 52.4392 11.5137 52.5358 11.5137C52.6325 11.5137 52.7115 11.475 52.7115 11.4277C52.7115 11.3803 52.7882 11.3416 52.8819 11.3416C52.9757 11.3416 53.077 11.3029 53.1068 11.2556C53.1367 11.2082 53.275 11.1695 53.4143 11.1695C53.5535 11.1695 53.6919 11.1308 53.7217 11.0834C53.7516 11.0361 53.9097 10.9974 54.0731 10.9974C54.2365 10.9974 54.3946 10.9586 54.4245 10.9113C54.4958 10.7981 56.2856 10.7981 56.357 10.9113C56.3869 10.9586 56.587 10.9974 56.8015 10.9974C57.0161 10.9974 57.1915 11.0361 57.1915 11.0834C57.1915 11.1308 57.3101 11.1695 57.4551 11.1695C57.6 11.1695 57.7186 11.2082 57.7186 11.2556C57.7186 11.3029 57.7976 11.3416 57.8943 11.3416C57.9909 11.3416 58.07 11.3803 58.07 11.4277C58.07 11.475 58.1391 11.5146 58.2237 11.5157C58.3082 11.5168 58.4762 11.5933 58.597 11.6859C58.7178 11.7784 58.8491 11.855 58.8887 11.8561C59.1614 11.8634 61.1445 13.6201 61.1445 13.8544C61.1445 13.9187 61.2235 14.0274 61.3202 14.0956C61.4168 14.1638 61.4958 14.2886 61.4958 14.3727C61.4958 14.457 61.5354 14.5259 61.5837 14.5259C61.632 14.5259 61.6715 14.6001 61.6715 14.6909C61.6715 14.7815 61.7012 14.8686 61.7374 14.8846C61.8264 14.9233 62.1107 15.7529 62.1107 15.9739C62.1107 16.0713 62.1503 16.1748 62.1986 16.2041C62.2469 16.2334 62.2864 16.4851 62.2864 16.7635C62.2864 17.0419 62.326 17.2936 62.3743 17.3229C62.4226 17.3522 62.4621 17.4877 62.4621 17.6241C62.4621 17.7605 62.4226 17.8961 62.3743 17.9253C62.326 17.9546 62.2864 18.2257 62.2864 18.5278C62.2864 18.8298 62.2469 19.1009 62.1986 19.1302C62.1503 19.1595 62.1107 19.295 62.1107 19.4314C62.1107 19.5678 62.0734 19.7021 62.028 19.7296C61.9825 19.7571 61.9186 19.9529 61.8863 20.1649C61.8538 20.3768 61.7923 20.5502 61.7495 20.5502C61.7067 20.5502 61.6715 20.601 61.6715 20.6632C61.6715 20.7251 61.5925 20.8592 61.4958 20.9607C61.3992 21.0623 61.3202 21.1965 61.3202 21.2591C61.3202 21.3217 61.2411 21.4287 61.1445 21.4969C61.0478 21.5651 60.9688 21.6712 60.9688 21.7325C60.9688 21.8891 59.6828 23.132 59.5207 23.132C59.4476 23.132 59.3876 23.1682 59.3876 23.2123C59.3876 23.2564 59.3042 23.3186 59.2023 23.3502C57.976 23.7315 57.6318 25.781 58.6473 26.6545C58.9473 26.9125 58.9754 26.9188 59.8527 26.9188H60.7512L61.3555 26.51C61.6878 26.2851 62.0203 26.0624 62.0943 26.0151C62.322 25.8692 63.8676 24.3436 63.8676 24.2646C63.8676 24.2237 63.9862 24.0688 64.1311 23.9202C64.2761 23.7715 64.3947 23.5957 64.3947 23.5292C64.3947 23.1869 64.947 23.3098 65.3609 23.7439C66.2139 24.639 66.4177 24.8694 66.5137 25.0471C66.5712 25.1534 66.6911 25.3032 66.7803 25.3798C66.8692 25.4564 66.9421 25.5736 66.9421 25.6405C66.9421 25.7072 67.0212 25.8178 67.1178 25.886C67.2144 25.9542 67.2935 26.079 67.2935 26.1631C67.2935 26.2475 67.3256 26.3163 67.3649 26.3163C67.4042 26.3163 67.4907 26.4519 67.557 26.6175C67.6233 26.7832 67.7099 26.9188 67.7492 26.9188C67.7885 26.9188 67.8205 27.0349 67.8205 27.1769C67.8205 27.3189 67.8601 27.4351 67.9084 27.4351C67.9567 27.4351 67.9962 27.5513 67.9962 27.6933C67.9962 27.8353 68.0358 27.9515 68.0841 27.9515C68.1324 27.9515 68.1719 28.0677 68.1719 28.2097C68.1719 28.3517 68.2115 28.4679 68.2598 28.4679C68.3081 28.4679 68.3476 28.6398 68.3476 28.85C68.3476 29.0602 68.3871 29.2562 68.4354 29.2854C68.4888 29.3177 68.5233 29.9462 68.5233 30.8828C68.5233 31.8546 68.4908 32.4267 68.4354 32.4267C68.3871 32.4267 68.3476 32.601 68.3476 32.814C68.3476 33.027 68.3081 33.2012 68.2598 33.2012C68.2115 33.2012 68.1719 33.3151 68.1719 33.4543C68.1719 33.5935 68.1324 33.7314 68.0841 33.7607C68.0358 33.7899 67.9962 33.9085 67.9962 34.024C67.9962 34.1395 67.9567 34.234 67.9084 34.234C67.8601 34.234 67.8205 34.3308 67.8205 34.4491C67.8205 34.5675 67.781 34.6643 67.7327 34.6643C67.6844 34.6643 67.6449 34.7418 67.6449 34.8364C67.6449 34.9311 67.6053 35.0085 67.557 35.0085C67.5087 35.0085 67.4692 35.086 67.4692 35.1807C67.4692 35.2753 67.4362 35.3528 67.3963 35.3528C67.3561 35.3528 67.2671 35.4593 67.1986 35.5895C67.1299 35.7196 67.0047 35.9012 66.9202 35.9929C66.8356 36.0847 66.7664 36.1964 66.7664 36.2412C66.7664 36.2857 66.694 36.3849 66.6055 36.4615C66.517 36.5381 66.374 36.7072 66.2879 36.8374C66.1355 37.0678 65.888 37.1609 65.888 36.988C65.888 36.9406 65.7916 36.9019 65.6737 36.9019C65.5557 36.9019 65.4347 36.8632 65.4049 36.8158C65.375 36.7685 65.254 36.7298 65.1361 36.7298C65.0181 36.7298 64.9217 36.691 64.9217 36.6437C64.9217 36.5936 64.629 36.5577 64.219 36.5577C63.809 36.5577 63.5162 36.5936 63.5162 36.6437C63.5162 36.691 63.4372 36.7298 63.3406 36.7298C63.2439 36.7298 63.1649 36.7685 63.1649 36.8158C63.1649 36.8632 63.0891 36.9019 62.9966 36.9019C62.8941 36.9019 62.7825 37.0028 62.7116 37.1601C62.6475 37.3021 62.5651 37.4183 62.5284 37.4183C62.492 37.4183 62.4621 37.4957 62.4621 37.5904C62.4621 37.6851 62.4226 37.7625 62.3743 37.7625C62.3235 37.7625 62.2864 38.0351 62.2864 38.408C62.2864 38.7808 62.3235 39.0534 62.3743 39.0534C62.4226 39.0534 62.4621 39.1132 62.4621 39.1862C62.4621 39.3269 62.5779 39.49 62.8453 39.7264C62.9352 39.806 63.0608 39.9194 63.1245 39.9786C63.1881 40.0378 63.2999 40.0862 63.3731 40.0862C63.4462 40.0862 63.5303 40.1249 63.5602 40.1722C63.59 40.2196 63.7284 40.2583 63.8676 40.2583C64.0068 40.2583 64.1404 40.2893 64.1643 40.3274C64.1882 40.3652 64.4081 40.4498 64.6527 40.515C64.8973 40.5802 65.0974 40.6654 65.0974 40.7041C65.0974 40.743 65.1545 40.7747 65.2246 40.7747C65.2944 40.7747 65.5375 40.8715 65.7646 40.9898C65.9919 41.1082 66.231 41.205 66.2965 41.205C66.3617 41.205 66.4151 41.2437 66.4151 41.291C66.4151 41.3384 66.4853 41.3771 66.5714 41.3771C66.6573 41.3771 66.7847 41.4546 66.8543 41.5492C66.9239 41.6439 67.0425 41.7213 67.1178 41.7213C67.1931 41.7213 67.3117 41.7988 67.3813 41.8935C67.451 41.9881 67.5599 42.0656 67.6233 42.0656C67.7501 42.0656 69.288 43.5542 69.7092 44.0844C69.8541 44.2668 70.0616 44.5222 70.1703 44.6517C70.2791 44.7815 70.368 44.9304 70.368 44.9826C70.368 45.0349 70.4075 45.0777 70.4558 45.0777C70.5042 45.0777 70.5437 45.1552 70.5437 45.2499C70.5437 45.3445 70.5786 45.422 70.6212 45.422C70.664 45.422 70.7209 45.4898 70.7477 45.5726C70.7745 45.6554 70.8641 45.8394 70.9469 45.9814C71.1869 46.3932 71.2464 46.5298 71.2464 46.6688C71.2464 46.7405 71.286 46.799 71.3343 46.799C71.3826 46.799 71.4221 46.8934 71.4221 47.009C71.4221 47.1245 71.4616 47.2431 71.51 47.2723C71.5583 47.3016 71.5978 47.4201 71.5978 47.5357C71.5978 47.6512 71.6373 47.7457 71.6857 47.7457C71.734 47.7457 71.7735 47.8595 71.7735 47.9987C71.7735 48.1379 71.813 48.2758 71.8613 48.305C71.9096 48.3343 71.9492 48.5303 71.9492 48.7405C71.9492 48.9507 71.9887 49.1226 72.037 49.1226C72.093 49.1226 72.1249 49.8094 72.1249 51.0108C72.1249 52.177 72.0913 52.9195 72.037 52.9524C71.9887 52.9816 71.9492 53.1583 71.9492 53.3448C71.9492 53.5314 71.9096 53.6839 71.8613 53.6839C71.813 53.6839 71.7735 53.8388 71.7735 54.0281C71.7735 54.2175 71.734 54.3724 71.6857 54.3724C71.6373 54.3724 71.5978 54.4886 71.5978 54.6306C71.5978 54.7726 71.5583 54.8888 71.51 54.8888C71.4616 54.8888 71.4221 54.9832 71.4221 55.0987C71.4221 55.2143 71.3826 55.3328 71.3343 55.3621C71.286 55.3914 71.2464 55.4905 71.2464 55.5824C71.2464 55.6743 71.2144 55.7494 71.1751 55.7494C71.1357 55.7494 71.0492 55.8849 70.9829 56.0506C70.9166 56.2163 70.8301 56.3518 70.7907 56.3518C70.7514 56.3518 70.7194 56.4293 70.7194 56.5239C70.7194 56.6186 70.6798 56.6961 70.6315 56.6961C70.5832 56.6961 70.5437 56.7649 70.5437 56.8492C70.5437 56.9334 70.4646 57.0582 70.368 57.1264C70.2714 57.1946 70.1923 57.3051 70.1923 57.3718C70.1923 57.4388 70.1194 57.556 70.0305 57.6326C69.9413 57.7092 69.8181 57.865 69.7564 57.9788C69.5478 58.3644 68.0169 59.8803 67.8361 59.8803C67.7935 59.8803 67.6348 59.9965 67.483 60.1385C67.3313 60.2805 67.1657 60.3967 67.115 60.3967C67.0642 60.3967 66.9377 60.4742 66.8341 60.5688C66.7304 60.6635 66.5936 60.7409 66.5304 60.7409C66.4669 60.7409 66.4151 60.7797 66.4151 60.827C66.4151 60.8743 66.336 60.9131 66.2394 60.9131C66.1427 60.9131 66.0637 60.9445 66.0637 60.983C66.0637 61.0215 65.9253 61.1063 65.7562 61.1712C65.5871 61.2362 65.4488 61.321 65.4488 61.3595C65.4488 61.398 65.3302 61.4294 65.1853 61.4294C65.0403 61.4294 64.9217 61.4682 64.9217 61.5155C64.9217 61.5628 64.8427 61.6016 64.746 61.6016C64.6494 61.6016 64.5704 61.6403 64.5704 61.6876C64.5704 61.735 64.4518 61.7737 64.3068 61.7737C64.1619 61.7737 64.0433 61.8124 64.0433 61.8597C64.0433 61.9071 63.8852 61.9458 63.6919 61.9458C63.4987 61.9458 63.3406 61.9845 63.3406 62.0319C63.3406 62.0792 63.1651 62.1179 62.9505 62.1179C62.736 62.1179 62.5359 62.1567 62.506 62.204C62.4323 62.321 58.8605 62.321 58.8605 62.204C58.8605 62.1567 58.6851 62.1179 58.4705 62.1179C58.256 62.1179 58.0559 62.0792 58.026 62.0319C57.9962 61.9845 57.638 61.9458 57.2302 61.9458C56.7945 61.9458 56.4888 61.9813 56.4888 62.0319C56.4888 62.0792 56.4255 62.1179 56.3482 62.1179C56.0917 62.1179 55.4347 62.8893 55.4347 63.1903C55.4347 63.3389 55.3914 63.5029 55.3387 63.5545C55.2693 63.6225 55.2693 63.6972 55.3387 63.8243C55.3914 63.9209 55.4347 64.138 55.4347 64.3069C55.4347 64.4756 55.4742 64.6137 55.5225 64.6137C55.5708 64.6137 55.6104 64.6621 55.6104 64.7213C55.6106 64.888 56.0092 65.3022 56.1697 65.3022C56.2485 65.3022 56.3131 65.3409 56.3131 65.3883C56.3131 65.4356 56.3897 65.4743 56.4835 65.4743C56.5773 65.4743 56.6759 65.509 56.7027 65.5514C56.7512 65.6284 57.1138 65.6974 57.9382 65.7867C58.1798 65.813 58.415 65.8696 58.4609 65.9126C58.57 66.0148 62.8409 66.0146 62.9496 65.9122C62.9955 65.8691 63.2604 65.8207 63.5384 65.8046L64.0435 65.7755V66.1361C64.0433 66.3345 64.0038 66.5208 63.9555 66.5501C63.9071 66.5794 63.8676 66.7947 63.8676 67.0286C63.8676 67.2625 63.8281 67.4537 63.7798 67.4537C63.7315 67.4537 63.6919 67.5869 63.6919 67.7498C63.6919 67.9127 63.6524 68.0699 63.6041 68.0992C63.5558 68.1285 63.5162 68.2446 63.5162 68.3574C63.5162 68.4701 63.4767 68.5863 63.4284 68.6156C63.3801 68.6448 63.3406 68.744 63.3406 68.8359C63.3406 68.9278 63.301 69.0028 63.2527 69.0028C63.2044 69.0028 63.1649 69.0803 63.1649 69.175C63.1649 69.2696 63.1253 69.3471 63.077 69.3471C63.0287 69.3471 62.9892 69.4246 62.9892 69.5192C62.9892 69.6139 62.9496 69.6913 62.9013 69.6913C62.853 69.6913 62.8135 69.7688 62.8135 69.8635C62.8135 69.9581 62.774 70.0356 62.7256 70.0356C62.6773 70.0356 62.6378 70.0877 62.6378 70.1513C62.6378 70.215 62.5588 70.3372 62.4621 70.4229C62.3655 70.5085 62.2864 70.6215 62.2864 70.6737C62.2864 70.726 62.1876 70.8732 62.0668 71.001C61.946 71.1286 61.8472 71.274 61.8472 71.3244C61.8472 71.4334 60.7419 72.5314 60.6321 72.5314C60.59 72.5314 60.4316 72.6476 60.2799 72.7896C60.1281 72.9316 59.9643 73.0477 59.9155 73.0477C59.8668 73.0477 59.8268 73.0865 59.8268 73.1338C59.8268 73.1811 59.7675 73.2199 59.6951 73.2199C59.6226 73.2199 59.5633 73.2586 59.5633 73.3059C59.5633 73.3533 59.4842 73.392 59.3876 73.392C59.291 73.392 59.2119 73.421 59.2119 73.4567C59.2119 73.5131 58.5722 73.8244 57.8943 74.0979C57.7735 74.1467 57.6059 74.2208 57.522 74.2627C57.4381 74.3045 57.2726 74.3387 57.154 74.3387C57.0354 74.3387 56.9139 74.3774 56.8841 74.4247C56.8542 74.4721 56.6739 74.5108 56.4835 74.5108C56.2931 74.5108 56.1374 74.5495 56.1374 74.5968C56.1374 74.6465 55.8592 74.6829 55.4786 74.6829C55.098 74.6829 54.8198 74.7193 54.8198 74.769C54.8198 74.8813 54.056 74.8813 53.9853 74.769C53.9554 74.7216 53.6589 74.6829 53.3264 74.6829C52.9939 74.6829 52.6975 74.6442 52.6676 74.5968C52.6377 74.5495 52.4377 74.5108 52.2231 74.5108C52.0086 74.5108 51.8331 74.4721 51.8331 74.4247C51.8331 74.3774 51.6552 74.3387 51.4378 74.3387C51.2204 74.3387 51.0425 74.3774 51.0425 74.4247C51.0425 74.4721 50.9239 74.5108 50.779 74.5108C50.634 74.5108 50.5154 74.5495 50.5154 74.5968C50.5154 74.6442 50.4544 74.6829 50.3797 74.6829C50.204 74.6829 49.8127 75.0663 49.8127 75.2384C49.8127 75.3116 49.7732 75.3714 49.7249 75.3714C49.6765 75.3714 49.637 75.4852 49.637 75.6244C49.637 75.7636 49.5975 75.9015 49.5492 75.9308C49.5009 75.9601 49.4613 76.1173 49.4613 76.2802C49.4613 76.4431 49.5009 76.5763 49.5492 76.5763C49.5975 76.5763 49.637 76.6935 49.637 76.8368C49.637 77.1215 50.3029 77.8672 50.557 77.8672C50.6307 77.8672 50.6911 77.9059 50.6911 77.9532C50.6911 78.0006 50.8097 78.0393 50.9547 78.0393C51.0996 78.0393 51.2182 78.078 51.2182 78.1254C51.2182 78.1727 51.3937 78.2114 51.6082 78.2114C51.8228 78.2114 52.0228 78.2502 52.0527 78.2975C52.0826 78.3448 52.4012 78.3836 52.7607 78.3836C53.3556 78.3836 53.4143 78.399 53.4143 78.5557C53.4143 78.6504 53.3813 78.7278 53.3414 78.7278C53.3012 78.7278 53.2122 78.8337 53.1437 78.963C53.075 79.0923 52.9103 79.3111 52.7774 79.449C52.6446 79.5871 52.5358 79.7341 52.5358 79.7756C52.5358 79.9604 51.7215 80.6511 50.8793 81.1806C50.804 81.2279 50.6911 81.3124 50.6285 81.3686C50.5657 81.4245 50.4355 81.4951 50.3393 81.525C50.2429 81.5549 50.1641 81.6156 50.1641 81.6597C50.1641 81.7038 50.0874 81.74 49.9937 81.74C49.8999 81.74 49.7986 81.7787 49.7688 81.826C49.7389 81.8734 49.6179 81.9121 49.5 81.9121C49.3821 81.9121 49.2856 81.9508 49.2856 81.9981C49.2856 82.0455 49.1892 82.0842 49.0713 82.0842C48.9534 82.0842 48.8324 82.1229 48.8025 82.1703C48.7726 82.2176 48.6343 82.2563 48.4951 82.2563C48.3558 82.2563 48.2175 82.2951 48.1876 82.3424C48.1577 82.3897 47.8984 82.4285 47.6114 82.4285C47.3221 82.4285 47.0896 82.4668 47.0896 82.5145C47.0896 82.5638 46.826 82.6006 46.4747 82.6006C46.1233 82.6006 45.8598 82.5638 45.8598 82.5145C45.8598 82.4668 45.6254 82.4285 45.3327 82.4285C45.04 82.4285 44.8056 82.3902 44.8056 82.3424C44.8056 82.2951 44.6475 82.2563 44.4543 82.2563C44.261 82.2563 44.1029 82.2176 44.1029 82.1703C44.1029 82.1229 43.9843 82.0842 43.8394 82.0842C43.6944 82.0842 43.5758 82.0455 43.5758 81.9981C43.5758 81.9508 43.477 81.9121 43.3562 81.9121C43.2355 81.9121 43.1366 81.8734 43.1366 81.826C43.1366 81.7787 43.0576 81.74 42.9609 81.74C42.8643 81.74 42.7853 81.7012 42.7853 81.6539C42.7853 81.6066 42.7062 81.5678 42.6096 81.5678C42.5129 81.5678 42.4339 81.5291 42.4339 81.4818C42.4339 81.4344 42.3821 81.3957 42.3186 81.3957C42.2553 81.3957 42.1269 81.3279 42.0331 81.2451C41.9395 81.1623 41.7476 81.0364 41.6068 80.9654C41.1883 80.7543 39.7944 79.3462 39.6084 78.9462C39.5526 78.8261 39.4736 78.7278 39.4332 78.7278C39.3925 78.7278 39.3594 78.6504 39.3594 78.5557C39.3594 78.461 39.3297 78.3833 39.2935 78.3829C39.2146 78.382 39.008 77.9653 39.008 77.8069C39.008 77.7454 38.9685 77.6951 38.9202 77.6951C38.8718 77.6951 38.8323 77.62 38.8323 77.5281C38.8323 77.4362 38.7928 77.3371 38.7445 77.3078C38.6962 77.2785 38.6566 77.1406 38.6566 77.0014C38.6566 76.8622 38.6171 76.7484 38.5688 76.7484C38.5205 76.7484 38.4809 76.5967 38.4809 76.4112C38.4809 76.2182 38.4342 76.059 38.3711 76.0384C38.2842 76.01 38.2521 73.1669 38.2174 62.3606C38.179 50.4075 38.1572 48.6988 38.0417 48.557C37.7338 48.1794 37.3352 47.8317 37.2101 47.8317C37.1361 47.8317 37.0755 47.793 37.0755 47.7457C37.0755 47.6951 36.768 47.6596 36.3288 47.6596C35.8896 47.6596 35.5821 47.6951 35.5821 47.7457C35.5821 47.793 35.5217 47.8317 35.4479 47.8317C35.1471 47.8317 34.528 48.5796 34.528 48.9432C34.528 49.131 34.4885 49.3085 34.4402 49.3378C34.3187 49.4114 34.3187 74.5663 34.4402 74.6399C34.4896 74.6698 34.528 75.0837 34.528 75.5866C34.528 76.0894 34.5664 76.5033 34.6158 76.5332C34.6642 76.5625 34.7037 76.7585 34.7037 76.9687C34.7037 77.1789 34.7432 77.3508 34.7915 77.3508C34.8398 77.3508 34.8794 77.5057 34.8794 77.6951C34.8794 77.8844 34.9189 78.0393 34.9672 78.0393C35.0155 78.0393 35.0551 78.1555 35.0551 78.2975C35.0551 78.4395 35.0946 78.5557 35.1429 78.5557C35.1912 78.5557 35.2307 78.6719 35.2307 78.8139C35.2307 78.9559 35.2703 79.0721 35.3186 79.0721C35.3669 79.0721 35.4064 79.1495 35.4064 79.2442C35.4064 79.3388 35.446 79.4163 35.4943 79.4163C35.5426 79.4163 35.5821 79.4914 35.5821 79.5833C35.5821 79.6751 35.6216 79.7743 35.67 79.8036C35.7183 79.8328 35.7578 79.932 35.7578 80.0239C35.7578 80.1158 35.7973 80.1908 35.8456 80.1908C35.894 80.1908 35.9335 80.2489 35.9335 80.3199C35.9335 80.3909 35.9649 80.449 36.0033 80.449C36.0418 80.449 36.1465 80.6233 36.2361 80.8363C36.3259 81.0493 36.4261 81.2236 36.459 81.2236C36.4917 81.2236 36.5747 81.3288 36.6433 81.4572C36.9525 82.0367 38.9588 83.9776 39.2487 83.9776C39.3095 83.9776 39.3594 84.0156 39.3594 84.0619C39.3594 84.1084 39.4681 84.1727 39.6009 84.2048C39.7338 84.237 39.9064 84.3345 39.9846 84.4216C40.0628 84.5088 40.1715 84.58 40.2262 84.58C40.2808 84.58 40.3256 84.6187 40.3256 84.6661C40.3256 84.7134 40.4047 84.7521 40.5013 84.7521C40.598 84.7521 40.677 84.7908 40.677 84.8382C40.677 84.8855 40.7561 84.9242 40.8527 84.9242C40.9493 84.9242 41.0284 84.963 41.0284 85.0103C41.0284 85.0576 41.1074 85.0964 41.2041 85.0964C41.3007 85.0964 41.3798 85.1351 41.3798 85.1824C41.3798 85.2298 41.4984 85.2685 41.6433 85.2685C41.7882 85.2685 41.9068 85.3072 41.9068 85.3545C41.9068 85.4019 41.9859 85.4406 42.0825 85.4406C42.1791 85.4406 42.2582 85.4793 42.2582 85.5267C42.2582 85.574 42.3744 85.6127 42.5165 85.6127C42.6585 85.6127 42.7993 85.6515 42.8292 85.6988C42.859 85.7461 43.0163 85.7848 43.1784 85.7848C43.3406 85.7848 43.4898 85.8333 43.51 85.8924C43.5383 85.9757 44.2103 86 46.4747 86C48.739 86 49.411 85.9757 49.4394 85.8924C49.4596 85.8333 49.6087 85.7848 49.771 85.7848C49.9331 85.7848 50.0903 85.7461 50.1202 85.6988C50.15 85.6515 50.271 85.6127 50.389 85.6127C50.5069 85.6127 50.6033 85.574 50.6033 85.5267C50.6033 85.4793 50.6799 85.4406 50.7737 85.4406C50.8675 85.4406 50.9687 85.4019 50.9986 85.3545C51.0285 85.3072 51.1495 85.2685 51.2674 85.2685C51.3853 85.2685 51.4817 85.2298 51.4817 85.1824C51.4817 85.1351 51.5608 85.0964 51.6574 85.0964C51.754 85.0964 51.8331 85.0576 51.8331 85.0103C51.8331 84.963 51.9122 84.9242 52.0088 84.9242C52.1054 84.9242 52.1845 84.8855 52.1845 84.8382C52.1845 84.7908 52.2635 84.7521 52.3602 84.7521C52.4568 84.7521 52.5358 84.7134 52.5358 84.6661C52.5358 84.6187 52.5951 84.58 52.6676 84.58C52.7401 84.58 52.7994 84.5413 52.7994 84.4939C52.7994 84.4466 52.8587 84.4079 52.9311 84.4079C53.0036 84.4079 53.0629 84.3691 53.0629 84.3218C53.0629 84.2745 53.1156 84.2357 53.1802 84.2357C53.4523 84.2357 55.6104 82.317 55.6104 82.0752C55.6104 82.0235 55.7289 81.8727 55.8739 81.74C56.0188 81.6072 56.1374 81.4454 56.1374 81.3802C56.1374 81.315 56.2165 81.2057 56.3131 81.1375C56.4097 81.0693 56.4888 80.9624 56.4888 80.8998C56.4888 80.8372 56.5678 80.7029 56.6645 80.6014C56.7611 80.4998 56.8402 80.3658 56.8402 80.3038C56.8402 80.2416 56.87 80.1908 56.9065 80.1908C56.9432 80.1908 57.0246 80.065 57.0881 79.9111C57.1513 79.7573 57.2401 79.5641 57.2851 79.4819C57.3303 79.3997 57.3672 79.2739 57.3672 79.2022C57.3672 79.1306 57.4067 79.0721 57.4551 79.0721C57.5034 79.0721 57.5429 79.0023 57.5429 78.9171C57.5429 78.8319 57.5791 78.7254 57.6233 78.6805C57.6676 78.6355 57.717 78.5019 57.7331 78.3836C57.7498 78.2611 57.8477 78.1318 57.9602 78.0834C58.0689 78.0367 58.1578 77.969 58.1578 77.9328C58.1578 77.8967 58.2764 77.8672 58.4213 77.8672C58.5663 77.8672 58.6849 77.8285 58.6849 77.7811C58.6849 77.7338 58.8035 77.6951 58.9484 77.6951C59.0933 77.6951 59.2119 77.6563 59.2119 77.609C59.2119 77.5617 59.3305 77.5229 59.4755 77.5229C59.6204 77.5229 59.739 77.4842 59.739 77.4369C59.739 77.3895 59.818 77.3508 59.9147 77.3508C60.0113 77.3508 60.0904 77.3168 60.0904 77.2755C60.0904 77.2342 60.2127 77.1763 60.3624 77.1469C60.512 77.1176 60.7986 76.987 60.9993 76.8564C61.1998 76.726 61.4669 76.5674 61.5923 76.5042C61.7179 76.4409 61.9315 76.2957 62.0673 76.1815C62.2028 76.0672 62.3457 75.9738 62.385 75.9738C62.4241 75.9738 62.586 75.8473 62.7448 75.6926C62.9033 75.5381 63.1715 75.3161 63.3406 75.1993C63.7271 74.9325 64.0892 74.5768 64.4801 74.0805C64.6477 73.8675 64.8457 73.6351 64.9202 73.5641C65.1688 73.3268 65.5366 72.8025 65.5366 72.6852C65.5366 72.6215 65.6157 72.5135 65.7123 72.4453C65.8089 72.3771 65.888 72.2523 65.888 72.1682C65.888 72.0839 65.9275 72.015 65.9758 72.015C66.0242 72.015 66.0637 71.9375 66.0637 71.8429C66.0637 71.7482 66.096 71.6708 66.1353 71.6708C66.2376 71.6708 66.5907 70.9971 66.5907 70.802C66.5907 70.7118 66.6303 70.638 66.6786 70.638C66.7269 70.638 66.7664 70.5606 66.7664 70.4659C66.7664 70.3712 66.806 70.2938 66.8543 70.2938C66.9026 70.2938 66.9421 70.1993 66.9421 70.0838C66.9421 69.9682 66.9817 69.8497 67.03 69.8204C67.0783 69.7912 67.1178 69.6726 67.1178 69.5571C67.1178 69.4416 67.1573 69.3471 67.2056 69.3471C67.254 69.3471 67.2935 69.2333 67.2935 69.0941C67.2935 68.9549 67.3288 68.8195 67.3721 68.7933C67.4154 68.7673 67.4734 68.6003 67.5012 68.4226C67.5291 68.2446 67.5968 67.8475 67.6517 67.5398C67.7066 67.2321 67.7689 66.3704 67.7902 65.6249C67.8267 64.3508 67.8392 64.2695 68.0004 64.2695C68.0948 64.2695 68.1719 64.2307 68.1719 64.1834C68.1719 64.1361 68.251 64.0973 68.3476 64.0973C68.4442 64.0973 68.5233 64.0586 68.5233 64.0113C68.5233 63.9639 68.5826 63.9252 68.6551 63.9252C68.7275 63.9252 68.7868 63.8865 68.7868 63.8392C68.7868 63.7918 68.8461 63.7531 68.9186 63.7531C68.9911 63.7531 69.0504 63.7144 69.0504 63.667C69.0504 63.6197 69.1009 63.581 69.1628 63.581C69.2245 63.581 69.3321 63.5035 69.4017 63.4088C69.4713 63.3142 69.5829 63.2367 69.6494 63.2367C69.716 63.2367 69.8756 63.1264 70.0046 62.9912C70.1332 62.8563 70.3629 62.6829 70.5151 62.6057C70.9293 62.3959 72.2825 61.0497 72.7398 60.3928C72.8122 60.2887 72.9209 60.1529 72.9813 60.0912C73.0417 60.0292 73.0911 59.9264 73.0911 59.8625C73.0911 59.7986 73.1702 59.6903 73.2668 59.6221C73.3634 59.5539 73.4425 59.4384 73.4425 59.3657C73.4425 59.2927 73.5216 59.185 73.6182 59.1258C73.7148 59.0666 73.7939 58.9605 73.7939 58.89C73.7939 58.8192 73.8334 58.7615 73.8817 58.7615C73.93 58.7615 73.9696 58.6841 73.9696 58.5894C73.9696 58.4947 74.003 58.4173 74.0436 58.4173C74.0844 58.4173 74.2072 58.2333 74.3168 58.0085C74.4264 57.7837 74.5511 57.5324 74.5941 57.4502C74.6372 57.368 74.6723 57.2421 74.6723 57.1705C74.6723 57.0988 74.7118 57.0403 74.7602 57.0403C74.8085 57.0403 74.848 56.9628 74.848 56.8682C74.848 56.7735 74.8875 56.6961 74.9358 56.6961C74.9842 56.6961 75.0237 56.5799 75.0237 56.4379C75.0237 56.2959 75.0632 56.1797 75.1115 56.1797C75.1598 56.1797 75.1994 56.0635 75.1994 55.9215C75.1994 55.7795 75.2389 55.6633 75.2872 55.6633C75.3355 55.6633 75.3751 55.5689 75.3751 55.4533C75.3751 55.3378 75.4146 55.2192 75.4629 55.19C75.5112 55.1607 75.5507 55.0112 75.5507 54.8578C75.5507 54.7044 75.5865 54.5421 75.63 54.4972C75.6737 54.4522 75.7341 54.2218 75.7642 53.9851C75.7943 53.7484 75.8613 53.245 75.9127 52.8663C76.0734 51.6853 75.997 48.5202 75.8077 48.5202C75.7629 48.5202 75.7264 48.3266 75.7264 48.0899C75.7264 47.8532 75.6869 47.6596 75.6386 47.6596C75.5903 47.6596 75.5507 47.5047 75.5507 47.3153C75.5507 47.126 75.5112 46.9711 75.4629 46.9711C75.4146 46.9711 75.3751 46.8545 75.3751 46.7118C75.3751 46.5692 75.3355 46.3756 75.2872 46.2815C75.2389 46.1875 75.1598 46.0335 75.1115 45.9394C75.0632 45.8454 75.0237 45.6905 75.0237 45.5952C75.0237 45.4999 74.9842 45.422 74.9358 45.422C74.8875 45.422 74.848 45.3252 74.848 45.2068C74.848 45.0885 74.8085 44.9917 74.7602 44.9917C74.7118 44.9917 74.6723 44.9142 74.6723 44.8196C74.6723 44.7249 74.6328 44.6474 74.5845 44.6474C74.5362 44.6474 74.4966 44.57 74.4966 44.4753C74.4966 44.3806 74.4571 44.3032 74.4088 44.3032C74.3605 44.3032 74.3209 44.2257 74.3209 44.1311C74.3209 44.0364 74.2814 43.9589 74.2331 43.9589C74.1848 43.9589 74.1453 43.8991 74.1453 43.8262C74.1453 43.7533 74.0662 43.6104 73.9696 43.5088C73.8729 43.4073 73.7939 43.2732 73.7939 43.2113C73.7939 43.1491 73.7543 43.0983 73.706 43.0983C73.6577 43.0983 73.6182 43.0295 73.6182 42.9451C73.6182 42.861 73.5391 42.7362 73.4425 42.668C73.3459 42.5998 73.2668 42.5017 73.2668 42.4501C73.2668 42.3984 73.1976 42.2812 73.1131 42.1893C73.0285 42.0974 72.8414 41.8674 72.6974 41.6783C72.3807 41.2622 70.3939 39.3116 70.2867 39.3116C69.7863 39.3116 69.6273 38.6444 70.0386 38.2696C70.1231 38.1926 70.1923 38.0805 70.1923 38.0207C70.1923 37.9609 70.2646 37.8492 70.3526 37.7726C70.4409 37.696 70.5692 37.5076 70.6377 37.3537C70.7062 37.1999 70.7921 37.074 70.8287 37.074C70.8652 37.074 70.8951 36.9966 70.8951 36.9019C70.8951 36.8072 70.9346 36.7298 70.9829 36.7298C71.0312 36.7298 71.0707 36.6523 71.0707 36.5577C71.0707 36.463 71.1103 36.3855 71.1586 36.3855C71.2069 36.3855 71.2464 36.3081 71.2464 36.2134C71.2464 36.1187 71.286 36.0413 71.3343 36.0413C71.3826 36.0413 71.4221 35.9251 71.4221 35.7831C71.4221 35.6411 71.4616 35.5249 71.51 35.5249C71.5583 35.5249 71.5978 35.4305 71.5978 35.3149C71.5978 35.1994 71.6373 35.0808 71.6857 35.0516C71.734 35.0223 71.7735 34.8844 71.7735 34.7452C71.7735 34.606 71.813 34.4922 71.8613 34.4922C71.9096 34.4922 71.9492 34.3644 71.9492 34.2082C71.9492 34.052 71.985 33.8874 72.0285 33.8424C72.23 33.6348 72.4027 29.0499 72.216 28.867C72.1659 28.8179 72.1249 28.5942 72.1249 28.3698C72.1249 28.1453 72.0853 27.9377 72.037 27.9085C71.9887 27.8792 71.9492 27.7243 71.9492 27.5642C71.9492 27.4041 71.9096 27.2492 71.8613 27.22C71.813 27.1907 71.7735 27.0528 71.7735 26.9136C71.7735 26.7744 71.734 26.6606 71.6857 26.6606C71.6373 26.6606 71.5978 26.5444 71.5978 26.4024C71.5978 26.2604 71.5655 26.1442 71.5258 26.1442C71.4862 26.1442 71.4002 25.9506 71.3343 25.7139C71.2684 25.4772 71.1823 25.2836 71.1428 25.2836C71.103 25.2836 71.0707 25.2061 71.0707 25.1115C71.0707 25.0168 71.0312 24.9393 70.9829 24.9393C70.9346 24.9393 70.8951 24.8619 70.8951 24.7672C70.8951 24.6726 70.8555 24.5951 70.8072 24.5951C70.7589 24.5951 70.7194 24.5176 70.7194 24.423C70.7194 24.3283 70.6798 24.2509 70.6315 24.2509C70.5832 24.2509 70.5437 24.2001 70.5437 24.1379C70.5437 24.0759 70.4646 23.9419 70.368 23.8403C70.2714 23.7388 70.1923 23.6239 70.1923 23.5849C70.1923 23.546 70.1133 23.4584 70.0166 23.3902C69.92 23.322 69.8409 23.2162 69.8409 23.1553C69.8409 23.0944 69.7224 22.9229 69.5774 22.7742C69.4325 22.6256 69.3139 22.4713 69.3139 22.4315C69.3139 22.2699 67.9538 20.8833 67.4692 20.5506C67.3001 20.4347 67.0851 20.2709 66.9915 20.1868C66.8978 20.1027 66.7693 20.0338 66.706 20.0338C66.6426 20.0338 66.5907 19.999 66.5907 19.9562C66.5907 19.9136 66.4722 19.838 66.3272 19.7886C66.0529 19.695 65.9053 18.4187 66.1515 18.2696C66.1998 18.2403 66.2394 17.9281 66.2394 17.5759C66.2394 17.2065 66.2023 16.9356 66.1515 16.9356C66.1004 16.9356 66.0637 16.6488 66.0637 16.2471C66.0637 15.8454 66.027 15.5586 65.9758 15.5586C65.9275 15.5586 65.888 15.4037 65.888 15.2144C65.888 15.0251 65.8485 14.8701 65.8002 14.8701C65.7518 14.8701 65.7123 14.754 65.7123 14.612C65.7123 14.47 65.6728 14.3538 65.6245 14.3538C65.5762 14.3538 65.5366 14.2501 65.5366 14.1236C65.5366 13.8942 64.9461 12.6153 64.815 12.5609C64.777 12.545 64.746 12.4578 64.746 12.3673C64.746 12.2765 64.7131 12.2022 64.6731 12.2022C64.6329 12.2022 64.5442 12.0957 64.4759 11.9656C64.4078 11.8354 64.2824 11.6663 64.1977 11.5897C64.1127 11.5131 64.0433 11.4055 64.0433 11.3502C64.0433 11.0877 61.5323 8.84583 61.2385 8.84583C61.1869 8.84583 61.1445 8.80711 61.1445 8.75977C61.1445 8.71244 61.0852 8.67371 61.0127 8.67371C60.9402 8.67371 60.8809 8.63498 60.8809 8.58765C60.8809 8.54032 60.8216 8.50159 60.7492 8.50159C60.6767 8.50159 60.6174 8.46286 60.6174 8.41553C60.6174 8.36819 60.5384 8.32946 60.4417 8.32946C60.3451 8.32946 60.266 8.29074 60.266 8.2434C60.266 8.19607 60.187 8.15734 60.0904 8.15734C59.9937 8.15734 59.9147 8.11861 59.9147 8.07128C59.9147 8.02395 59.8183 7.98522 59.7003 7.98522C59.5824 7.98522 59.4614 7.94649 59.4315 7.89916C59.4017 7.85182 59.3004 7.8131 59.2067 7.8131C59.1129 7.8131 59.0362 7.77437 59.0362 7.72703C59.0362 7.6797 58.9176 7.64097 58.7727 7.64097C58.6278 7.64097 58.5092 7.60225 58.5092 7.55491C58.5092 7.50758 58.3732 7.46885 58.207 7.46885C58.0408 7.46885 57.8802 7.43012 57.8504 7.38279C57.8205 7.33545 57.6228 7.29673 57.4111 7.29673C57.1994 7.29673 57.0018 7.258 56.9719 7.21067C56.9392 7.15903 56.3432 7.1246 55.4786 7.1246C54.614 7.1246 54.018 7.15903 53.9853 7.21067C53.8625 7.40538 53.4143 7.30813 53.4143 7.08674C53.4143 6.9712 53.3747 6.85265 53.3264 6.82339C53.2781 6.79413 53.2386 6.65621 53.2386 6.51701C53.2386 6.37781 53.1991 6.26399 53.1507 6.26399C53.1024 6.26399 53.0629 6.16954 53.0629 6.054C53.0629 5.93846 53.0234 5.81991 52.9751 5.79065C52.9267 5.76139 52.8872 5.64284 52.8872 5.5273C52.8872 5.41176 52.8477 5.31731 52.7994 5.31731C52.7511 5.31731 52.7115 5.23986 52.7115 5.14519C52.7115 5.05052 52.672 4.97307 52.6237 4.97307C52.5754 4.97307 52.5358 4.89561 52.5358 4.80094C52.5358 4.70627 52.4963 4.62882 52.448 4.62882C52.3997 4.62882 52.3602 4.55136 52.3602 4.4567C52.3602 4.36203 52.3272 4.28457 52.2872 4.28457C52.2471 4.28457 52.1583 4.17807 52.09 4.0479C52.022 3.91774 51.8966 3.74863 51.8118 3.67203C51.7268 3.59544 51.6574 3.48829 51.6574 3.43385C51.6574 3.28346 49.9636 1.61753 49.8101 1.6171C49.7363 1.61688 49.6188 1.53921 49.5492 1.44454C49.4796 1.34988 49.361 1.27242 49.2856 1.27242C49.2103 1.27242 49.0917 1.19496 49.0221 1.1003C48.9525 1.00563 48.8251 0.928173 48.7393 0.928173C48.6532 0.928173 48.5829 0.889446 48.5829 0.842112C48.5829 0.794778 48.5038 0.75605 48.4072 0.75605C48.3106 0.75605 48.2315 0.717323 48.2315 0.669989C48.2315 0.622655 48.1129 0.583927 47.968 0.583927C47.8231 0.583927 47.7045 0.5452 47.7045 0.497866C47.7045 0.450532 47.6254 0.411804 47.5288 0.411804C47.4322 0.411804 47.3531 0.373077 47.3531 0.325743C47.3531 0.278409 47.218 0.239681 47.0529 0.239681C46.888 0.239681 46.7364 0.191487 46.7165 0.132535C46.6798 0.0251728 42.6491 -0.0499159 41.7531 0.0400184ZM8.43859 7.55491C8.43859 7.60225 8.32 7.64097 8.17506 7.64097C8.03012 7.64097 7.91153 7.6797 7.91153 7.72703C7.91153 7.77437 7.85048 7.8131 7.77582 7.8131C7.60364 7.8131 7.20879 8.19499 7.20879 8.36131C7.20879 8.43059 7.15938 8.50331 7.09898 8.5231C6.95141 8.5713 6.8886 21.2294 7.03332 21.7555C7.38711 23.0434 9.27683 23.4178 10.284 22.3999L10.5907 22.0896V15.268C10.5907 8.88585 10.5809 8.43661 10.437 8.29569C10.3525 8.21285 10.2833 8.10915 10.2833 8.06504C10.2833 8.02115 10.2328 7.98522 10.1709 7.98522C10.1091 7.98522 10.0015 7.90776 9.93192 7.8131C9.8588 7.71348 9.70463 7.64097 9.56628 7.64097C9.43495 7.64097 9.30297 7.60225 9.2731 7.55491C9.24323 7.50758 9.04317 7.46885 8.82861 7.46885C8.61406 7.46885 8.43859 7.50758 8.43859 7.55491ZM18.848 7.55491C18.8181 7.60225 18.5192 7.64097 18.1839 7.64097C17.836 7.64097 17.5743 7.67798 17.5743 7.72703C17.5743 7.77437 17.4557 7.8131 17.3107 7.8131C17.1658 7.8131 17.0472 7.85182 17.0472 7.89916C17.0472 7.94649 16.9682 7.98522 16.8715 7.98522C16.7749 7.98522 16.6958 8.02395 16.6958 8.07128C16.6958 8.11861 16.6168 8.15734 16.5202 8.15734C16.4235 8.15734 16.3445 8.19607 16.3445 8.2434C16.3445 8.29074 16.2869 8.32946 16.2164 8.32946C15.9845 8.32946 14.637 9.72022 14.4655 10.1368C14.3779 10.3498 14.2705 10.5914 14.2272 10.6736C14.184 10.7558 14.1484 10.9397 14.1484 11.0824C14.1484 11.225 14.1089 11.3416 14.0606 11.3416C14.0122 11.3416 13.9727 11.5523 13.9727 11.8098C13.9727 12.0673 13.9332 12.3021 13.8849 12.3313C13.8291 12.3651 13.797 13.451 13.797 15.3056C13.797 17.1955 13.828 18.2265 13.8849 18.2265C13.9336 18.2265 13.9727 18.4561 13.9727 18.7429C13.9727 19.0297 14.0118 19.2593 14.0606 19.2593C14.1089 19.2593 14.1484 19.335 14.1484 19.4273C14.1484 19.5198 14.1835 19.6844 14.2266 19.7931C14.4787 20.4297 14.6223 20.7223 14.6829 20.7223C14.7207 20.7223 14.7767 20.8 14.8072 20.8949C14.8806 21.1208 15.6843 21.9272 15.8363 21.9272C15.9011 21.9272 16.0113 22.0046 16.0809 22.0993C16.1506 22.194 16.2779 22.2714 16.3638 22.2714C16.4499 22.2714 16.5202 22.3102 16.5202 22.3575C16.5202 22.4048 16.5992 22.4436 16.6958 22.4436C16.7925 22.4436 16.8715 22.4728 16.8715 22.5088C16.8715 22.5866 17.5 22.7878 17.7434 22.7878C17.838 22.7878 17.9397 22.8265 17.9696 22.8739C18.001 22.9236 18.4736 22.9599 19.0885 22.9599C20.0651 22.9599 20.5258 22.8928 20.9332 22.6912C21.0171 22.6497 21.1653 22.6157 21.2626 22.6157C21.3599 22.6157 21.4394 22.577 21.4394 22.5296C21.4394 22.4823 21.5184 22.4436 21.6151 22.4436C21.7117 22.4436 21.7907 22.4048 21.7907 22.3575C21.7907 22.3102 21.8518 22.2714 21.9265 22.2714C22.0011 22.2714 22.161 22.1746 22.2818 22.0563C22.4026 21.9379 22.535 21.8411 22.5761 21.8411C22.6813 21.8411 23.1962 21.3588 23.1962 21.26C23.1962 21.215 23.3148 21.0567 23.4598 20.908C23.6047 20.7593 23.7233 20.5795 23.7233 20.508C23.7233 20.4366 23.7628 20.3781 23.8111 20.3781C23.8595 20.3781 23.899 20.3006 23.899 20.206C23.899 20.1113 23.9299 20.0338 23.9677 20.0338C24.0055 20.0338 24.0872 19.8499 24.1491 19.625C24.2113 19.4002 24.2989 19.1489 24.3441 19.0667C24.4588 18.8578 24.4531 11.5137 24.3382 11.5137C24.2899 11.5137 24.2504 11.3806 24.2504 11.2177C24.2504 11.0548 24.2108 10.8975 24.1625 10.8683C24.1142 10.839 24.0747 10.7398 24.0747 10.648C24.0747 10.5561 24.0351 10.481 23.9868 10.481C23.9385 10.481 23.899 10.4035 23.899 10.3089C23.899 10.2142 23.8595 10.1368 23.8111 10.1368C23.7628 10.1368 23.7233 10.0593 23.7233 9.96463C23.7233 9.86997 23.6838 9.79251 23.6355 9.79251C23.5871 9.79251 23.5476 9.74776 23.5476 9.69311C23.5476 9.55713 22.4388 8.50159 22.2958 8.50159C22.2326 8.50159 22.1239 8.42413 22.0543 8.32946C21.9847 8.2348 21.8573 8.15734 21.7714 8.15734C21.6853 8.15734 21.6151 8.11861 21.6151 8.07128C21.6151 8.02395 21.5162 7.98522 21.3955 7.98522C21.2747 7.98522 21.1758 7.94649 21.1758 7.89916C21.1758 7.85182 21.0573 7.8131 20.9123 7.8131C20.7674 7.8131 20.6488 7.77437 20.6488 7.72703C20.6488 7.67776 20.3853 7.64097 20.0339 7.64097C19.6825 7.64097 19.419 7.60418 19.419 7.55491C19.419 7.50758 19.3028 7.46885 19.1607 7.46885C19.0186 7.46885 18.8779 7.50758 18.848 7.55491ZM29.0817 7.55491C29.0817 7.60225 28.9631 7.64097 28.8182 7.64097C28.6733 7.64097 28.5547 7.6797 28.5547 7.72703C28.5547 7.77437 28.4936 7.8131 28.419 7.8131C28.2433 7.8131 27.8519 8.1965 27.8519 8.36862C27.8519 8.44178 27.8124 8.50159 27.7641 8.50159C27.7158 8.50159 27.6762 8.6565 27.6762 8.84583C27.6762 9.03517 27.6367 9.19008 27.5884 9.19008C27.4672 9.19008 27.4672 21.2944 27.5884 21.3678C27.6367 21.3971 27.6762 21.5481 27.6762 21.7034C27.6762 21.9947 28.1813 22.6084 28.6216 22.8524C28.8549 22.9817 30.2237 22.9999 30.2237 22.8739C30.2237 22.8265 30.2843 22.7878 30.3583 22.7878C30.5331 22.7878 31.1021 22.2303 31.1021 22.0591C31.1021 21.9866 31.1416 21.9272 31.19 21.9272C31.2477 21.9272 31.2778 19.6321 31.2778 15.2144C31.2778 11.5224 31.2479 8.50159 31.2115 8.50159C31.1748 8.50159 31.0936 8.38756 31.0305 8.24835C30.9677 8.10915 30.7999 7.94477 30.6579 7.88324C30.5158 7.82149 30.3994 7.74188 30.3994 7.70595C30.3994 7.67023 30.2808 7.64097 30.1358 7.64097C29.9909 7.64097 29.8723 7.60225 29.8723 7.55491C29.8723 7.50758 29.6944 7.46885 29.477 7.46885C29.2596 7.46885 29.0817 7.50758 29.0817 7.55491ZM19.419 11.2556C19.419 11.3029 19.498 11.3416 19.5947 11.3416C19.6913 11.3416 19.7704 11.3803 19.7704 11.4277C19.7704 11.475 19.8314 11.5137 19.9061 11.5137C20.0818 11.5137 20.4731 11.8971 20.4731 12.0693C20.4731 12.1424 20.5126 12.2022 20.5609 12.2022C20.6178 12.2022 20.6488 13.2739 20.6488 15.2454V18.2887L20.2693 18.6878C20.0607 18.9075 19.8433 19.0872 19.7862 19.0872C19.7291 19.0872 19.6825 19.1259 19.6825 19.1732C19.6825 19.2218 19.4337 19.2593 19.1115 19.2593C18.7975 19.2593 18.5406 19.23 18.5406 19.1943C18.5406 19.1584 18.4253 19.0792 18.284 19.0179C18.1327 18.9523 17.9834 18.7939 17.9195 18.6312C17.86 18.4796 17.7587 18.2201 17.6942 18.0544C17.5587 17.7065 17.5189 12.7399 17.6496 12.4809C18.0664 11.6534 18.2535 11.4451 18.6493 11.3677C18.7828 11.3414 18.8919 11.2861 18.8919 11.2448C18.8919 11.2035 19.0105 11.1695 19.1555 11.1695C19.3004 11.1695 19.419 11.2082 19.419 11.2556ZM41.7311 17.6241C41.7311 17.6714 41.6666 17.7102 41.5877 17.7102C41.4044 17.7102 40.677 18.4187 40.677 18.5975C40.677 18.6719 40.6375 18.7567 40.5892 18.7859C40.4813 18.8511 40.471 19.8617 40.5782 19.8617C40.6206 19.8617 40.6779 19.9738 40.706 20.1111C40.755 20.3514 41.7193 21.4108 41.889 21.4108C41.9327 21.4108 42.0926 21.527 42.2444 21.669C42.3961 21.811 42.5797 21.9272 42.6526 21.9272C42.7255 21.9272 42.7853 21.9659 42.7853 22.0133C42.7853 22.0606 42.8643 22.0993 42.9609 22.0993C43.0576 22.0993 43.1366 22.138 43.1366 22.1854C43.1366 22.2327 43.2157 22.2714 43.3123 22.2714C43.4089 22.2714 43.488 22.3007 43.488 22.3364C43.488 22.3723 43.6165 22.4522 43.7735 22.5143C43.9305 22.5763 44.1277 22.6632 44.2116 22.7073C44.2955 22.7517 44.4413 22.7878 44.5357 22.7878C44.6302 22.7878 44.7292 22.8224 44.756 22.8648C44.9627 23.1925 48.2974 23.3207 49.3955 23.0432C50.1759 22.8459 50.4766 22.7534 50.555 22.6867C50.6009 22.6477 50.7096 22.6157 50.7965 22.6157C50.8835 22.6157 50.9547 22.577 50.9547 22.5296C50.9547 22.4823 51.0184 22.4436 51.0965 22.4436C51.2531 22.4436 51.9477 22.0939 51.9941 21.9917C52.0103 21.9562 52.0905 21.9272 52.1724 21.9272C52.2543 21.9272 52.3784 21.8497 52.448 21.7551C52.5176 21.6604 52.6259 21.5829 52.6885 21.5829C52.8839 21.5829 54.0667 20.3514 54.1829 20.027C54.3138 19.6612 54.3296 18.7429 54.2049 18.7429C54.1565 18.7429 54.117 18.6655 54.117 18.5708C54.117 18.4761 54.0869 18.3987 54.05 18.3987C54.0131 18.3987 53.944 18.3148 53.8963 18.2121C53.8487 18.1095 53.7327 17.9836 53.6387 17.9324C53.5447 17.8812 53.389 17.7715 53.2926 17.6887C52.9797 17.4195 51.3098 17.5279 51.3067 17.8178C51.3063 17.8533 51.2667 17.8823 51.2186 17.8823C51.1705 17.8823 50.9294 18.0759 50.6826 18.3126C50.436 18.5493 50.1788 18.7429 50.1112 18.7429C50.0437 18.7429 49.9884 18.7816 49.9884 18.829C49.9884 18.8763 49.9093 18.915 49.8127 18.915C49.7161 18.915 49.637 18.9538 49.637 19.0011C49.637 19.0484 49.558 19.0872 49.4613 19.0872C49.3647 19.0872 49.2856 19.1259 49.2856 19.1732C49.2856 19.2206 49.1671 19.2593 49.0221 19.2593C48.8772 19.2593 48.7586 19.298 48.7586 19.3453C48.7586 19.3927 48.5609 19.4314 48.3194 19.4314C48.0778 19.4314 47.8802 19.4701 47.8802 19.5175C47.8802 19.5648 47.6849 19.6035 47.4462 19.6035C47.2075 19.6035 46.9877 19.5648 46.9578 19.5175C46.9279 19.4701 46.7081 19.4314 46.4694 19.4314C46.2307 19.4314 46.0354 19.3927 46.0354 19.3453C46.0354 19.298 45.9169 19.2593 45.7719 19.2593C45.627 19.2593 45.5084 19.2206 45.5084 19.1732C45.5084 19.1259 45.4293 19.0872 45.3327 19.0872C45.2361 19.0872 45.157 19.0484 45.157 19.0011C45.157 18.9538 45.0867 18.915 45.0007 18.915C44.9148 18.915 44.7874 18.8376 44.7178 18.7429C44.6482 18.6482 44.5408 18.5708 44.4793 18.5708C44.4176 18.5708 44.1655 18.3772 43.9187 18.1405C43.672 17.9038 43.4149 17.7102 43.3472 17.7102C43.2798 17.7102 43.2245 17.6714 43.2245 17.6241C43.2245 17.5736 42.917 17.538 42.4778 17.538C42.0386 17.538 41.7311 17.5736 41.7311 17.6241ZM1.80643 26.0581C1.77657 26.1055 1.59627 26.1442 1.40587 26.1442C1.21547 26.1442 1.05977 26.1829 1.05977 26.2303C1.05977 26.2776 0.998717 26.3163 0.924051 26.3163C0.748364 26.3163 0.357023 26.6997 0.357023 26.8719C0.357023 26.945 0.317494 27.0048 0.26918 27.0048C0.220866 27.0048 0.181337 27.0993 0.181337 27.2148C0.181337 27.3303 0.141808 27.4489 0.0934938 27.4782C-0.0459571 27.5625 -0.0224591 39.7867 0.11787 40.1722C0.299047 40.6699 0.557964 41.0294 0.816003 41.1413C0.949964 41.1994 1.05977 41.2762 1.05977 41.3121C1.05977 41.3478 1.45506 41.3771 1.9382 41.3771C2.46526 41.3771 2.81663 41.3427 2.81663 41.291C2.81663 41.2437 2.88163 41.205 2.96091 41.205C3.1388 41.205 3.60722 40.7377 3.60722 40.5604C3.60722 40.4889 3.64675 40.4304 3.69506 40.4304C3.75282 40.4304 3.78291 38.1782 3.78291 33.8456C3.78291 26.8609 3.79828 27.1257 3.36565 26.6829C3.25694 26.5717 3.168 26.4437 3.168 26.3985C3.168 26.3533 3.10871 26.3163 3.03624 26.3163C2.96377 26.3163 2.90447 26.2776 2.90447 26.2303C2.90447 26.1829 2.72901 26.1442 2.51445 26.1442C2.29989 26.1442 2.09983 26.1055 2.06996 26.0581C2.0401 26.0108 1.9808 25.9721 1.9382 25.9721C1.8956 25.9721 1.8363 26.0108 1.80643 26.0581ZM11.9084 26.0581C11.8785 26.1055 11.6192 26.1442 11.3321 26.1442C11.0429 26.1442 10.8104 26.1825 10.8104 26.2303C10.8104 26.2776 10.7139 26.3163 10.596 26.3163C10.4781 26.3163 10.3571 26.3551 10.3272 26.4024C10.2974 26.4497 10.1763 26.4884 10.0584 26.4884C9.94049 26.4884 9.84408 26.5272 9.84408 26.5745C9.84408 26.6218 9.76502 26.6606 9.6684 26.6606C9.57177 26.6606 9.49271 26.6946 9.49271 26.7361C9.49271 26.7778 9.37368 26.86 9.22852 26.919C8.90723 27.0494 7.91153 27.9956 7.91153 28.1703C7.91153 28.2394 7.87661 28.2957 7.83401 28.2957C7.74419 28.2957 7.37876 29.0062 7.1484 29.6297C6.94526 30.179 6.90046 37.4088 7.09898 37.6033C7.15938 37.6625 7.20879 37.8193 7.20879 37.9518C7.20879 38.0844 7.24832 38.1928 7.29663 38.1928C7.34494 38.1928 7.38447 38.2666 7.38447 38.3568C7.38447 38.5519 7.7376 39.2256 7.83994 39.2256C7.87925 39.2256 7.91153 39.2867 7.91153 39.3613C7.91153 39.5261 9.02495 40.6025 9.19536 40.6025C9.26234 40.6025 9.31702 40.6335 9.31702 40.6714C9.31702 40.7891 10.1037 41.1217 10.511 41.1764C10.7241 41.205 10.8982 41.2618 10.8982 41.3027C10.8982 41.3435 11.5109 41.3771 12.2598 41.3771C13.0086 41.3771 13.6213 41.3437 13.6213 41.3031C13.6213 41.2622 13.8286 41.205 14.0821 41.1755C14.3353 41.146 14.556 41.0826 14.5725 41.0344C14.5889 40.9862 14.6781 40.9468 14.7705 40.9468C14.8632 40.9468 14.939 40.9081 14.939 40.8607C14.939 40.8134 15.0093 40.7747 15.0953 40.7747C15.1812 40.7747 15.3086 40.6972 15.3782 40.6025C15.4478 40.5079 15.5523 40.4304 15.6103 40.4304C15.7476 40.4304 16.5202 39.6735 16.5202 39.539C16.5202 39.4822 16.5992 39.3798 16.6958 39.3116C16.7925 39.2434 16.8715 39.1186 16.8715 39.0345C16.8715 38.9502 16.9111 38.8813 16.9594 38.8813C17.0077 38.8813 17.0472 38.8039 17.0472 38.7092C17.0472 38.6145 17.0782 38.5371 17.116 38.5371C17.1537 38.5371 17.2343 38.3531 17.2952 38.1283C17.3558 37.9034 17.4436 37.6005 17.4899 37.4553C17.6059 37.0914 17.6026 30.017 17.4864 30.017C17.4381 30.017 17.3986 29.9389 17.3986 29.8436C17.3986 29.6011 17.1941 28.9842 17.1138 28.9842C17.0771 28.9842 17.0472 28.9068 17.0472 28.8121C17.0472 28.7174 17.0077 28.64 16.9594 28.64C16.9111 28.64 16.8715 28.5892 16.8715 28.527C16.8715 28.4651 16.7993 28.3381 16.7108 28.2452C16.6223 28.1522 16.478 27.9683 16.3897 27.8364C16.1921 27.5408 15.2662 26.8327 15.0773 26.8327C15.0014 26.8327 14.939 26.794 14.939 26.7466C14.939 26.6993 14.8599 26.6606 14.7633 26.6606C14.6667 26.6606 14.5876 26.6218 14.5876 26.5745C14.5876 26.5272 14.5086 26.4884 14.4119 26.4884C14.3153 26.4884 14.2362 26.4497 14.2362 26.4024C14.2362 26.3551 14.1398 26.3163 14.0219 26.3163C13.904 26.3163 13.783 26.2776 13.7531 26.2303C13.7232 26.1829 13.4441 26.1442 13.1329 26.1442C12.8143 26.1442 12.5672 26.1066 12.5672 26.0581C12.5672 26.0108 12.4313 25.9721 12.265 25.9721C12.0988 25.9721 11.9383 26.0108 11.9084 26.0581ZM25.6558 26.0581C25.6558 26.1059 25.4215 26.1442 25.1288 26.1442C24.836 26.1442 24.6017 26.1825 24.6017 26.2303C24.6017 26.2776 24.4831 26.3163 24.3382 26.3163C24.1933 26.3163 24.0747 26.3551 24.0747 26.4024C24.0747 26.4497 23.9561 26.4884 23.8111 26.4884C23.6662 26.4884 23.5476 26.5272 23.5476 26.5745C23.5476 26.6218 23.4883 26.6606 23.4158 26.6606C23.3434 26.6606 23.2841 26.6898 23.2841 26.7255C23.2841 26.7615 23.1556 26.846 22.9986 26.9136C22.6301 27.0724 21.7719 27.9132 21.6098 28.2742C21.5408 28.4281 21.4545 28.5539 21.4179 28.5539C21.3814 28.5539 21.3515 28.612 21.3515 28.683C21.3515 28.754 21.312 28.8121 21.2637 28.8121C21.2154 28.8121 21.1758 28.9283 21.1758 29.0703C21.1758 29.2123 21.1363 29.3285 21.088 29.3285C21.0397 29.3285 21.0002 29.4447 21.0002 29.5867C21.0002 29.7287 20.9606 29.8449 20.9123 29.8449C20.864 29.8449 20.8245 30.0361 20.8245 30.27C20.8245 30.5039 20.7849 30.7192 20.7366 30.7485C20.6808 30.7823 20.6488 31.8522 20.6488 33.6746C20.6488 35.4969 20.6808 36.5669 20.7366 36.6007C20.7849 36.6299 20.8245 36.884 20.8245 37.1652C20.8245 37.4486 20.8636 37.6764 20.9123 37.6764C20.9606 37.6764 21.0002 37.7926 21.0002 37.9346C21.0002 38.0766 21.0397 38.1928 21.088 38.1928C21.1363 38.1928 21.1758 38.309 21.1758 38.451C21.1758 38.593 21.2154 38.7092 21.2637 38.7092C21.312 38.7092 21.3515 38.7866 21.3515 38.8813C21.3515 38.976 21.3862 39.0534 21.4286 39.0534C21.4712 39.0534 21.5558 39.1716 21.6168 39.3157C21.7455 39.6202 22.7265 40.6025 22.9017 40.6025C22.9672 40.6025 23.0206 40.6413 23.0206 40.6886C23.0206 40.7359 23.0996 40.7747 23.1962 40.7747C23.2929 40.7747 23.3721 40.8037 23.3726 40.8392C23.3737 40.9433 23.8252 41.1217 24.2284 41.177C24.4337 41.2052 24.6017 41.2618 24.6017 41.3027C24.6017 41.3435 25.2144 41.3771 25.9633 41.3771C26.8125 41.3771 27.3249 41.3446 27.3249 41.291C27.3249 41.2437 27.4691 41.205 27.6455 41.205C27.9795 41.205 28.8254 40.8485 29.1202 40.5834C29.2139 40.4993 29.3237 40.4304 29.3641 40.4304C29.4794 40.4304 30.1662 39.7228 30.3045 39.4612C30.373 39.3316 30.462 39.2256 30.5021 39.2256C30.5421 39.2256 30.5751 39.1481 30.5751 39.0534C30.5751 38.9588 30.6146 38.8813 30.6629 38.8813C30.7112 38.8813 30.7507 38.8039 30.7507 38.7092C30.7507 38.6145 30.7903 38.5371 30.8386 38.5371C30.8869 38.5371 30.9264 38.4596 30.9264 38.3649C30.9264 38.2703 30.966 38.1928 31.0143 38.1928C31.0626 38.1928 31.1021 38.0596 31.1021 37.8968C31.1021 37.7339 31.1416 37.5766 31.19 37.5474C31.2464 37.5131 31.2778 36.1424 31.2778 33.7176C31.2778 31.2928 31.2464 29.9221 31.19 29.8879C31.1416 29.8586 31.1021 29.7207 31.1021 29.5815C31.1021 29.4423 31.0626 29.3285 31.0143 29.3285C30.966 29.3285 30.9264 29.251 30.9264 29.1564C30.9264 29.0617 30.8869 28.9842 30.8386 28.9842C30.7903 28.9842 30.7507 28.9068 30.7507 28.8121C30.7507 28.7174 30.7112 28.64 30.6629 28.64C30.6146 28.64 30.5751 28.5711 30.5751 28.4868C30.5751 28.4027 30.496 28.2779 30.3994 28.2097C30.3027 28.1415 30.2237 28.0457 30.2237 27.9971C30.2232 27.7832 29.0767 26.8327 28.8191 26.8327C28.7703 26.8327 28.7301 26.8037 28.7297 26.7682C28.7288 26.6909 28.3034 26.4884 28.1418 26.4884C28.079 26.4884 28.0276 26.4497 28.0276 26.4024C28.0276 26.3551 27.909 26.3163 27.7641 26.3163C27.6191 26.3163 27.5006 26.2776 27.5006 26.2303C27.5006 26.1819 27.2535 26.1442 26.9348 26.1442C26.6237 26.1442 26.3445 26.1055 26.3147 26.0581C26.2848 26.0108 26.1243 25.9721 25.958 25.9721C25.7918 25.9721 25.6558 26.0108 25.6558 26.0581ZM12.6726 29.8449C12.8079 29.8449 12.9186 29.8788 12.9186 29.9204C12.9186 29.9621 13.0372 30.0443 13.1821 30.103C13.3271 30.1618 13.4457 30.2547 13.4457 30.3096C13.4457 30.3644 13.5247 30.4651 13.6213 30.5333C13.7913 30.6534 13.797 30.756 13.797 33.7204C13.797 36.6644 13.7902 36.7907 13.6213 36.9682C13.5247 37.0697 13.4457 37.2126 13.4457 37.2855C13.4457 37.3589 13.3703 37.4183 13.2772 37.4183C13.1848 37.4183 13.0949 37.4591 13.078 37.5091C12.9039 38.0211 10.986 37.5865 10.986 37.0349C10.986 36.9617 10.9465 36.9019 10.8982 36.9019C10.8499 36.9019 10.8104 36.7857 10.8104 36.6437C10.8104 36.5017 10.7708 36.3855 10.7225 36.3855C10.6659 36.3855 10.6347 35.4244 10.6347 33.6746C10.6347 31.9247 10.6659 30.9636 10.7225 30.9636C10.7708 30.9636 10.8104 30.8862 10.8104 30.7915C10.8104 30.6969 10.8499 30.6194 10.8982 30.6194C10.9465 30.6194 10.986 30.579 10.986 30.5295C10.986 30.3182 11.6497 29.8449 11.9459 29.8449C12.0404 29.8449 12.1443 29.8027 12.1768 29.7513C12.2191 29.6839 12.2624 29.6839 12.3311 29.7513C12.3836 29.8027 12.5374 29.8449 12.6726 29.8449ZM26.139 29.7588C26.1688 29.8061 26.2705 29.8449 26.365 29.8449C26.6612 29.8449 27.3249 30.3182 27.3249 30.5295C27.3249 30.579 27.3644 30.6194 27.4127 30.6194C27.4696 30.6194 27.5006 31.7238 27.5006 33.7607C27.5006 35.7975 27.4696 36.9019 27.4127 36.9019C27.3644 36.9019 27.3249 36.9546 27.3249 37.0192C27.3249 37.4544 26.3285 37.8337 25.6034 37.6745C25.0572 37.5547 24.6017 37.0693 24.6017 36.6069C24.6017 36.4907 24.5622 36.3718 24.5139 36.3425C24.4585 36.3089 24.426 35.3392 24.426 33.7176C24.426 32.096 24.4585 31.1263 24.5139 31.0927C24.5622 31.0635 24.6017 30.9449 24.6017 30.8294C24.6017 30.7139 24.6413 30.6194 24.6896 30.6194C24.7379 30.6194 24.7774 30.5736 24.7774 30.5174C24.7774 30.3754 25.1345 30.017 25.2759 30.017C25.3398 30.017 25.3923 29.9782 25.3923 29.9309C25.3923 29.8836 25.5109 29.8449 25.6558 29.8449C25.8008 29.8449 25.9194 29.8061 25.9194 29.7588C25.9194 29.7115 25.9565 29.6727 26.0019 29.6727C26.0474 29.6727 26.1091 29.7115 26.139 29.7588ZM53.59 31.7382C53.59 31.7855 53.5298 31.8243 53.4562 31.8243C53.3078 31.8243 52.3602 32.7161 52.3602 32.8559C52.3602 32.9048 52.2416 33.0661 52.0966 33.2148C51.9517 33.3635 51.8331 33.5373 51.8331 33.6012C51.8331 33.6653 51.7936 33.7176 51.7453 33.7176C51.6969 33.7176 51.6574 33.7951 51.6574 33.8897C51.6574 33.9844 51.6271 34.0619 51.5902 34.0619C51.4352 34.0619 50.8668 35.5299 50.8668 35.9305C50.8668 36.086 50.8273 36.2134 50.779 36.2134C50.7302 36.2134 50.6911 36.443 50.6911 36.7298C50.6911 37.0166 50.6521 37.2461 50.6033 37.2461C50.5495 37.2461 50.5154 37.662 50.5154 38.3219C50.5154 38.9818 50.5495 39.3977 50.6033 39.3977C50.6516 39.3977 50.6911 39.6083 50.6911 39.8659C50.6911 40.1234 50.725 40.3547 50.7665 40.3799C50.8077 40.4048 50.8648 40.6172 50.8932 40.8517C50.9215 41.086 50.9865 41.3584 51.0377 41.4565C51.0886 41.5548 51.1699 41.7123 51.2182 41.8063C51.2665 41.9004 51.306 42.0359 51.306 42.1075C51.306 42.1792 51.3456 42.2377 51.3939 42.2377C51.4422 42.2377 51.4817 42.3152 51.4817 42.4098C51.4817 42.5045 51.5213 42.582 51.5696 42.582C51.6179 42.582 51.6574 42.6594 51.6574 42.7541C51.6574 42.8488 51.6904 42.9262 51.7303 42.9262C51.7705 42.9262 51.8592 43.0327 51.9275 43.1629C51.9956 43.293 52.121 43.4622 52.2058 43.5387C52.2908 43.6153 52.3602 43.7027 52.3602 43.733C52.3602 43.8352 52.84 44.3221 53.2294 44.6152C54.1124 45.2798 56.1374 44.8234 56.1374 43.9596C56.1374 43.8647 56.1769 43.7868 56.2253 43.7868C56.2764 43.7868 56.3131 43.5 56.3131 43.0983C56.3131 42.6966 56.2764 42.4098 56.2253 42.4098C56.1769 42.4098 56.1374 42.3487 56.1374 42.2741C56.1374 42.1992 55.9793 41.9894 55.786 41.8074C55.5928 41.6254 55.4347 41.4492 55.4347 41.4154C55.4347 41.3818 55.3653 41.2917 55.2803 41.2151C55.1955 41.1385 55.0701 40.9694 55.002 40.8392C54.9337 40.709 54.845 40.6025 54.8048 40.6025C54.7649 40.6025 54.7319 40.5251 54.7319 40.4304C54.7319 40.3358 54.6985 40.2583 54.6575 40.2583C54.5428 40.2583 54.3507 39.0003 54.3553 38.2789C54.3599 37.5418 54.5439 36.3855 54.6564 36.3855C54.6979 36.3855 54.7319 36.3081 54.7319 36.2134C54.7319 36.1187 54.7715 36.0413 54.8198 36.0413C54.8681 36.0413 54.9076 35.9724 54.9076 35.8881C54.9076 35.804 54.9867 35.6792 55.0833 35.611C55.1799 35.5428 55.259 35.4412 55.259 35.3855C55.259 35.3298 55.4566 35.0864 55.6982 34.8448C55.9398 34.603 56.1374 34.3474 56.1374 34.2766C56.1374 34.2058 56.1769 34.1479 56.2253 34.1479C56.2764 34.1479 56.3131 33.8628 56.3131 33.4646C56.3131 33.0887 56.2736 32.7572 56.2253 32.7279C56.1769 32.6987 56.1374 32.6175 56.1374 32.5478C56.1374 32.3804 55.5658 31.8243 55.3936 31.8243C55.3196 31.8243 55.259 31.7855 55.259 31.7382C55.259 31.6868 54.9223 31.6521 54.4245 31.6521C53.9266 31.6521 53.59 31.6868 53.59 31.7382ZM35.5821 40.1722C35.5821 40.2196 35.5189 40.2583 35.4416 40.2583C35.3645 40.2583 35.1273 40.4388 34.9145 40.6593L34.528 41.0602V41.8676C34.528 42.5564 34.5539 42.7024 34.7037 42.8599C34.8003 42.9615 34.8794 43.0923 34.8794 43.1504C34.8794 43.2085 34.998 43.3075 35.1429 43.3703C35.2878 43.4331 35.4064 43.5138 35.4064 43.5497C35.4064 43.5854 35.5645 43.6147 35.7578 43.6147C35.9511 43.6147 36.1092 43.6534 36.1092 43.7008C36.1092 43.7481 36.2056 43.7868 36.3235 43.7868C36.4414 43.7868 36.5624 43.7481 36.5923 43.7008C36.6222 43.6534 36.7645 43.6147 36.9085 43.6147C37.0528 43.6147 37.2555 43.5372 37.3592 43.4426C37.4628 43.3479 37.5997 43.2705 37.6629 43.2705C37.7264 43.2705 37.7782 43.2197 37.7782 43.1575C37.7782 43.0955 37.8573 42.9615 37.9539 42.8599C38.1564 42.6472 38.2113 41.3433 38.0316 41.0146C37.8801 40.7368 37.3601 40.2583 37.2101 40.2583C37.1361 40.2583 37.0755 40.2196 37.0755 40.1722C37.0755 40.1217 36.768 40.0862 36.3288 40.0862C35.8896 40.0862 35.5821 40.1217 35.5821 40.1722ZM4.04643 44.7219C4.04643 44.7628 3.87229 44.8196 3.65927 44.8482C3.25189 44.9028 2.46526 45.2355 2.46526 45.3531C2.46526 45.391 2.41058 45.422 2.3436 45.422C2.1846 45.422 1.05977 46.493 1.05977 46.6443C1.05977 46.7084 0.980709 46.8168 0.884082 46.885C0.787454 46.9532 0.708396 47.078 0.708396 47.1622C0.708396 47.2465 0.668866 47.3153 0.620553 47.3153C0.572239 47.3153 0.532709 47.4098 0.532709 47.5253C0.532709 47.6409 0.49318 47.7594 0.444866 47.7887C0.396552 47.8179 0.357023 47.9341 0.357023 48.0469C0.357023 48.1596 0.317494 48.2758 0.26918 48.305C0.220866 48.3343 0.181337 48.528 0.181337 48.7354C0.181337 48.9428 0.141808 49.1364 0.0934938 49.1657C0.0377134 49.1994 0.00565036 50.3266 0.00565036 52.2639C0.00565036 54.2011 0.0377134 55.3283 0.0934938 55.3621C0.141808 55.3914 0.181337 55.5555 0.181337 55.7268C0.181337 56.0317 0.301902 56.5043 0.455627 56.8026C0.498011 56.8847 0.532709 57.0106 0.532709 57.0822C0.532709 57.1539 0.572239 57.2124 0.620553 57.2124C0.668866 57.2124 0.708396 57.2899 0.708396 57.3845C0.708396 57.4792 0.741337 57.5567 0.781306 57.5567C0.821494 57.5567 0.910435 57.6632 0.978952 57.7933C1.15749 58.132 2.18614 59.0987 2.43276 59.1593C2.54717 59.1875 2.64094 59.245 2.64094 59.2871C2.64094 59.3295 2.72 59.364 2.81663 59.364C2.91326 59.364 2.99232 59.4027 2.99232 59.45C2.99232 59.4974 3.07138 59.5361 3.168 59.5361C3.26463 59.5361 3.34369 59.5748 3.34369 59.6221C3.34369 59.6695 3.48204 59.7082 3.65114 59.7082C3.82024 59.7082 3.95859 59.7469 3.95859 59.7943C3.95859 59.8483 4.50036 59.8803 5.408 59.8803C6.31564 59.8803 6.85742 59.8483 6.85742 59.7943C6.85742 59.7469 6.976 59.7082 7.12094 59.7082C7.26589 59.7082 7.38447 59.6695 7.38447 59.6221C7.38447 59.5748 7.47583 59.5361 7.58761 59.5361C7.69917 59.5361 7.87552 59.4586 7.97917 59.364C8.08283 59.2693 8.22052 59.1918 8.28531 59.1918C8.48251 59.1918 9.6684 58.2193 9.6684 58.0578C9.6684 58.0147 9.74745 57.8966 9.84408 57.7951C9.94071 57.6935 10.0198 57.5595 10.0198 57.4975C10.0198 57.4353 10.0593 57.3845 10.1076 57.3845C10.1559 57.3845 10.1955 57.3095 10.1955 57.2176C10.1955 57.1257 10.235 57.0265 10.2833 56.9973C10.3316 56.968 10.3711 56.8527 10.3711 56.7412C10.3711 56.6296 10.4206 56.5222 10.4809 56.5024C10.5668 56.4744 10.5907 55.5618 10.5907 52.3256C10.5907 49.1276 10.5657 48.16 10.4809 48.077C10.4206 48.0178 10.3711 47.9201 10.3711 47.8601C10.3711 47.654 9.92929 46.8041 9.711 46.5903C9.59087 46.4728 9.49271 46.3381 9.49271 46.2914C9.49271 46.2445 9.33305 46.0782 9.13804 45.9218C8.94281 45.7652 8.67599 45.55 8.5451 45.4435C8.41399 45.3372 8.25741 45.2501 8.19702 45.2499C8.13663 45.2499 8.08722 45.2111 8.08722 45.1638C8.08722 45.1165 8.03254 45.0777 7.96556 45.0777C7.89858 45.0777 7.73058 45.0199 7.59222 44.9491C7.45387 44.8785 7.19232 44.8204 7.01114 44.82C6.82996 44.8198 6.68173 44.7808 6.68173 44.7335C6.68173 44.6799 6.18388 44.6474 5.36408 44.6474C4.63938 44.6474 4.04643 44.681 4.04643 44.7219ZM14.6315 44.8406C14.4866 44.9439 14.3375 45.0762 14.3001 45.135C14.2628 45.1935 14.1739 45.2987 14.1025 45.3686C14.0311 45.4386 13.9727 45.593 13.9727 45.712C13.9727 45.831 13.9332 45.9521 13.8849 45.9814C13.8275 46.016 13.797 48.2054 13.797 52.269C13.797 56.3679 13.8271 58.5033 13.8849 58.5033C13.9332 58.5033 13.9727 58.6389 13.9727 58.8046C13.9727 58.9702 14.0122 59.1058 14.0606 59.1058C14.1089 59.1058 14.1484 59.1462 14.1484 59.1957C14.1484 59.3125 14.5523 59.7082 14.6715 59.7082C14.722 59.7082 14.7633 59.7469 14.7633 59.7943C14.7633 59.8416 14.9214 59.8803 15.1147 59.8803C15.3079 59.8803 15.466 59.9191 15.466 59.9664C15.466 60.0137 15.5846 60.0525 15.7296 60.0525C15.8745 60.0525 15.9931 60.0137 15.9931 59.9664C15.9931 59.9191 16.1424 59.8803 16.3251 59.8803C16.5564 59.8803 16.6954 59.828 16.7837 59.7082C16.8533 59.6135 16.9609 59.5361 17.0226 59.5361C17.0846 59.5361 17.1351 59.5001 17.1351 59.4563C17.1351 59.4121 17.1845 59.3235 17.2449 59.2592C17.5756 58.9065 17.5743 58.9362 17.5743 52.2639C17.5743 47.2239 17.5497 45.7206 17.4645 45.5715C17.269 45.2288 16.8412 44.8196 16.6787 44.8196C16.5915 44.8196 16.5202 44.7808 16.5202 44.7335C16.5202 44.5457 14.9179 44.6367 14.6315 44.8406ZM24.6017 44.7335C24.6017 44.7808 24.493 44.8198 24.3602 44.82C24.2273 44.8204 24.0053 44.8785 23.8669 44.9491C23.7286 45.0199 23.5606 45.0777 23.4936 45.0777C23.4266 45.0777 23.3719 45.1165 23.3719 45.1638C23.3719 45.2111 23.3201 45.2499 23.2566 45.2499C23.1934 45.2499 23.0566 45.3273 22.9529 45.422C22.8493 45.5167 22.7313 45.5941 22.6911 45.5941C22.5196 45.5941 21.5272 46.7684 21.5272 46.9713C21.5272 47.0225 21.4482 47.1475 21.3515 47.2491C21.2549 47.3506 21.1758 47.5234 21.1758 47.6327C21.1758 47.7422 21.1363 47.8317 21.088 47.8317C21.0397 47.8317 21.0002 47.9479 21.0002 48.0899C21.0002 48.2319 20.9606 48.3481 20.9123 48.3481C20.864 48.3481 20.8245 48.5394 20.8245 48.7732C20.8245 49.0071 20.7849 49.2225 20.7366 49.2517C20.6808 49.2855 20.6488 50.3714 20.6488 52.226C20.6488 54.1159 20.6798 55.1469 20.7366 55.1469C20.7854 55.1469 20.8245 55.3765 20.8245 55.6633C20.8245 55.9501 20.8636 56.1797 20.9123 56.1797C20.9606 56.1797 21.0002 56.2959 21.0002 56.4379C21.0002 56.5799 21.0397 56.6961 21.088 56.6961C21.1363 56.6961 21.1758 56.8122 21.1758 56.9542C21.1758 57.0962 21.2154 57.2124 21.2637 57.2124C21.312 57.2124 21.3515 57.2899 21.3515 57.3845C21.3515 57.4792 21.3862 57.5567 21.4286 57.5567C21.4712 57.5567 21.5553 57.6737 21.6159 57.8168C21.7578 58.1524 22.5881 58.9659 22.9307 59.1049C23.0768 59.1643 23.1962 59.2467 23.1962 59.2884C23.1962 59.33 23.2753 59.364 23.3719 59.364C23.4685 59.364 23.5476 59.4027 23.5476 59.45C23.5476 59.4974 23.644 59.5361 23.7619 59.5361C23.8799 59.5361 24.0009 59.5748 24.0307 59.6221C24.0606 59.6695 24.2014 59.7082 24.3435 59.7082C24.4856 59.7082 24.6017 59.7469 24.6017 59.7943C24.6017 59.8483 25.1435 59.8803 26.0511 59.8803C26.9588 59.8803 27.5006 59.8483 27.5006 59.7943C27.5006 59.7469 27.6191 59.7082 27.7641 59.7082C27.909 59.7082 28.0276 59.6695 28.0276 59.6221C28.0276 59.5748 28.1264 59.5361 28.2472 59.5361C28.368 59.5361 28.4668 59.4974 28.4668 59.45C28.4668 59.4027 28.5459 59.364 28.6425 59.364C28.7391 59.364 28.8182 59.33 28.8182 59.2884C28.8182 59.2467 28.9372 59.1645 29.0824 59.1056C29.4037 58.9752 30.3994 58.0289 30.3994 57.8542C30.3994 57.7852 30.4389 57.7288 30.4872 57.7288C30.5355 57.7288 30.5751 57.6513 30.5751 57.5567C30.5751 57.462 30.6146 57.3845 30.6629 57.3845C30.7112 57.3845 30.7507 57.3071 30.7507 57.2124C30.7507 57.1178 30.7903 57.0403 30.8386 57.0403C30.8869 57.0403 30.9264 56.9628 30.9264 56.8682C30.9264 56.7735 30.966 56.6961 31.0143 56.6961C31.0626 56.6961 31.1021 56.5629 31.1021 56.4C31.1021 56.2371 31.1416 56.0798 31.19 56.0506C31.2464 56.0164 31.2778 54.6456 31.2778 52.2209C31.2778 49.7961 31.2464 48.4253 31.19 48.3911C31.1416 48.3619 31.1021 48.2239 31.1021 48.0847C31.1021 47.9455 31.0626 47.8317 31.0143 47.8317C30.966 47.8317 30.9264 47.7543 30.9264 47.6596C30.9264 47.5649 30.8869 47.4875 30.8386 47.4875C30.7903 47.4875 30.7507 47.41 30.7507 47.3153C30.7507 47.2207 30.7112 47.1432 30.6629 47.1432C30.6146 47.1432 30.5751 47.0834 30.5751 47.0103C30.5751 46.9371 30.4791 46.7833 30.3618 46.6684C30.2446 46.5535 30.0812 46.3474 29.9986 46.2105C29.916 46.0737 29.7452 45.9018 29.6189 45.8284C29.4926 45.755 29.2706 45.595 29.1256 45.4725C28.7883 45.1877 27.9975 44.8196 27.723 44.8196C27.6064 44.8196 27.4865 44.7808 27.4566 44.7335C27.4241 44.6819 26.8408 44.6474 26.0019 44.6474C25.127 44.6474 24.6017 44.6797 24.6017 44.7335ZM6.41095 48.6857C6.60816 48.8711 6.76957 49.0841 6.76957 49.159C6.76957 49.2337 6.8091 49.2948 6.85742 49.2948C6.99577 49.2948 6.97491 55.0501 6.83545 55.3442C6.77506 55.4716 6.696 55.5762 6.65977 55.5766C6.62353 55.577 6.59389 55.6321 6.59389 55.699C6.59389 55.7662 6.4753 55.8724 6.33036 55.9353C6.18541 55.9981 6.06683 56.0788 6.06683 56.1147C6.06683 56.1504 5.95153 56.1797 5.81054 56.1797C5.66978 56.1797 5.53933 56.2238 5.5211 56.2774C5.49694 56.3486 5.44094 56.3499 5.31621 56.2827C5.22178 56.2317 5.03467 56.1674 4.90071 56.1397C4.55153 56.0674 3.95859 55.5177 3.95859 55.2659C3.95859 55.1532 3.91906 55.0609 3.87075 55.0609C3.81409 55.0609 3.78291 54.0712 3.78291 52.2639C3.78291 50.4566 3.81409 49.4669 3.87075 49.4669C3.91906 49.4669 3.95859 49.3894 3.95859 49.2948C3.95859 49.2001 3.99812 49.1226 4.04643 49.1226C4.09475 49.1226 4.13428 49.0628 4.13428 48.9897C4.13428 48.3074 5.77629 48.0882 6.41095 48.6857ZM26.836 48.4987C27.0058 48.5815 27.1459 48.7085 27.147 48.781C27.1483 48.8533 27.2282 48.9684 27.3249 49.0366C27.5236 49.1769 27.6095 55.4051 27.4127 55.4051C27.3644 55.4051 27.3249 55.4456 27.3249 55.4951C27.3249 55.7012 26.6627 56.1797 26.3773 56.1797C26.2896 56.1797 26.1706 56.2262 26.1126 56.283C26.0307 56.3632 25.9837 56.3632 25.9018 56.283C25.8438 56.2262 25.7044 56.1797 25.5919 56.1797C25.2781 56.1797 24.6017 55.4759 24.6017 55.1493C24.6017 55.006 24.5622 54.8888 24.5139 54.8888C24.4572 54.8888 24.426 53.9582 24.426 52.269C24.426 50.6152 24.4585 49.6295 24.5139 49.596C24.5622 49.5667 24.6017 49.4482 24.6017 49.3326C24.6017 49.2171 24.6413 49.1226 24.6896 49.1226C24.7379 49.1226 24.7774 49.0628 24.7774 48.9897C24.7774 48.4425 26.0823 48.1312 26.836 48.4987ZM49.9884 54.6306C49.9884 54.6779 49.8698 54.7166 49.7249 54.7166C49.5799 54.7166 49.4613 54.7554 49.4613 54.8027C49.4613 54.85 49.3823 54.8888 49.2856 54.8888C49.189 54.8888 49.11 54.9275 49.11 54.9748C49.11 55.0222 49.0309 55.0609 48.9343 55.0609C48.8376 55.0609 48.7586 55.0996 48.7586 55.1469C48.7586 55.1943 48.6795 55.233 48.5829 55.233C48.4863 55.233 48.4072 55.2717 48.4072 55.3191C48.4072 55.3664 48.3282 55.4051 48.2315 55.4051C48.1349 55.4051 48.0558 55.4355 48.0558 55.4727C48.0558 55.5097 47.9274 55.613 47.7704 55.7018C47.4091 55.9062 46.0354 57.2817 46.0354 57.439C46.0354 57.5037 45.9959 57.5567 45.9476 57.5567C45.8993 57.5567 45.8598 57.6074 45.8598 57.6696C45.8598 57.7316 45.7807 57.8656 45.6841 57.9672C45.5875 58.0687 45.5084 58.2116 45.5084 58.2845C45.5084 58.3575 45.4689 58.4173 45.4206 58.4173C45.3722 58.4173 45.3327 58.4924 45.3327 58.5842C45.3327 58.6761 45.2932 58.7753 45.2449 58.8046C45.1965 58.8338 45.157 58.9524 45.157 59.0679C45.157 59.1834 45.1175 59.2779 45.0692 59.2779C45.0209 59.2779 44.9813 59.3917 44.9813 59.5309C44.9813 59.6701 44.9418 59.808 44.8935 59.8373C44.8452 59.8666 44.8056 60.0819 44.8056 60.3158C44.8056 60.5497 44.7661 60.7409 44.7178 60.7409C44.6647 60.7409 44.63 61.1121 44.63 61.6825C44.63 62.2175 44.6679 62.6472 44.7178 62.6773C44.7661 62.7066 44.8056 62.922 44.8056 63.1558C44.8056 63.3897 44.8452 63.581 44.8935 63.581C44.9418 63.581 44.9813 63.6972 44.9813 63.8392C44.9813 63.9812 45.0114 64.0973 45.0483 64.0973C45.0852 64.0973 45.1544 64.1813 45.202 64.2839C45.2497 64.3865 45.3656 64.5124 45.4596 64.5636C45.5536 64.6148 45.7093 64.7245 45.8057 64.8074C46.0036 64.9778 47.5288 65.0348 47.5288 64.8719C47.5288 64.8246 47.5894 64.7858 47.6634 64.7858C47.8382 64.7858 48.4072 64.2284 48.4072 64.0571C48.4072 63.9846 48.4467 63.9252 48.4951 63.9252C48.5475 63.9252 48.5829 63.5954 48.5829 63.1076C48.5829 62.6199 48.5475 62.2901 48.4951 62.2901C48.4463 62.2901 48.4072 62.0622 48.4072 61.7788C48.4072 61.4976 48.4467 61.2435 48.4951 61.2143C48.5434 61.185 48.5829 61.0277 48.5829 60.8649C48.5829 60.702 48.6224 60.5688 48.6707 60.5688C48.7191 60.5688 48.7586 60.5185 48.7586 60.4569C48.7586 60.2986 48.9652 59.8818 49.0441 59.881C49.0803 59.8805 49.11 59.8177 49.11 59.7413C49.11 59.4115 50.687 58.2452 51.133 58.2452C51.2281 58.2452 51.306 58.2064 51.306 58.1591C51.306 58.1118 51.3658 58.073 51.4389 58.073C51.7475 58.073 52.2464 57.664 52.4364 57.2555C52.5022 57.1135 52.5912 56.9299 52.634 56.8477C52.7403 56.6431 52.7322 55.9215 52.6237 55.9215C52.5754 55.9215 52.5358 55.8236 52.5358 55.704C52.5358 55.4611 51.8423 54.7166 51.6159 54.7166C51.5421 54.7166 51.4817 54.6779 51.4817 54.6306C51.4817 54.58 51.1743 54.5445 50.7351 54.5445C50.2958 54.5445 49.9884 54.58 49.9884 54.6306ZM11.03 63.1507C11.0001 63.198 10.8617 63.2367 10.7225 63.2367C10.5833 63.2367 10.4449 63.2755 10.4151 63.3228C10.3852 63.3701 10.284 63.4088 10.1902 63.4088C10.0964 63.4088 10.0198 63.4476 10.0198 63.4949C10.0198 63.5422 9.94071 63.581 9.84408 63.581C9.74745 63.581 9.6684 63.6197 9.6684 63.667C9.6684 63.7144 9.59812 63.7531 9.51203 63.7531C9.42617 63.7531 9.2988 63.8306 9.22918 63.9252C9.15956 64.0199 9.05503 64.0973 8.99705 64.0973C8.8598 64.0973 8.08722 64.8543 8.08722 64.9887C8.08722 65.0455 8.00816 65.1479 7.91153 65.2161C7.81491 65.2843 7.73585 65.3926 7.73585 65.4565C7.73585 65.5204 7.67458 65.6327 7.59969 65.706C7.52502 65.7794 7.44091 65.9509 7.41302 66.0871C7.38535 66.2235 7.3366 66.3349 7.30476 66.3349C6.91451 66.3349 6.81218 73.8647 7.18749 74.9613C7.36712 75.4863 7.45343 75.6668 7.83731 76.3245C7.90231 76.4358 8.11357 76.6727 8.30683 76.851C8.50008 77.0294 8.78557 77.2923 8.94127 77.4352C9.09676 77.5782 9.28452 77.6951 9.35853 77.6951C9.43232 77.6951 9.49271 77.7338 9.49271 77.7811C9.49271 77.8285 9.57177 77.8672 9.6684 77.8672C9.76502 77.8672 9.84408 77.9059 9.84408 77.9532C9.84408 78.0006 9.92314 78.0393 10.0198 78.0393C10.1164 78.0393 10.1955 78.078 10.1955 78.1254C10.1955 78.1727 10.314 78.2114 10.459 78.2114C10.6039 78.2114 10.7225 78.2502 10.7225 78.2975C10.7225 78.3448 10.9375 78.3836 11.2004 78.3836C11.4633 78.3836 11.7028 78.4223 11.7327 78.4696C11.7626 78.517 12.0022 78.5557 12.265 78.5557C12.5279 78.5557 12.7429 78.517 12.7429 78.4696C12.7429 78.4219 12.9772 78.3836 13.27 78.3836C13.5627 78.3836 13.797 78.3453 13.797 78.2975C13.797 78.2502 13.8934 78.2114 14.0114 78.2114C14.1293 78.2114 14.2503 78.1727 14.2802 78.1254C14.31 78.078 14.431 78.0393 14.549 78.0393C14.6669 78.0393 14.7633 78.0006 14.7633 77.9532C14.7633 77.9059 14.8336 77.8672 14.9197 77.8672C15.0055 77.8672 15.1329 77.7897 15.2025 77.6951C15.2721 77.6004 15.3835 77.5229 15.4496 77.5229C15.6703 77.5229 16.8715 76.2499 16.8715 76.0158C16.8715 75.9454 16.9111 75.8878 16.9594 75.8878C17.0077 75.8878 17.0472 75.8103 17.0472 75.7157C17.0472 75.621 17.0771 75.5435 17.1138 75.5435C17.1933 75.5435 17.3986 74.9278 17.3986 74.6894C17.3986 74.5966 17.4381 74.497 17.4864 74.4678C17.5429 74.4335 17.5743 73.0916 17.5743 70.7241C17.5743 68.3565 17.5429 67.0146 17.4864 66.9804C17.4381 66.9511 17.3986 66.835 17.3986 66.7222C17.3986 66.6095 17.3591 66.4933 17.3107 66.464C17.2624 66.4348 17.2229 66.3162 17.2229 66.2007C17.2229 66.0852 17.1834 65.9907 17.1351 65.9907C17.0867 65.9907 17.0472 65.9132 17.0472 65.8186C17.0472 65.7239 17.0143 65.6465 16.9743 65.6465C16.9341 65.6465 16.8452 65.5399 16.7767 65.4098C16.6152 65.1032 15.4935 64.0042 15.1806 63.846C15.0477 63.7789 14.939 63.6918 14.939 63.6524C14.939 63.6132 14.8599 63.581 14.7633 63.581C14.6667 63.581 14.5876 63.5422 14.5876 63.4949C14.5876 63.4476 14.5081 63.4088 14.4108 63.4088C14.3135 63.4088 14.1653 63.3749 14.0814 63.3333C13.6712 63.1304 13.2089 63.0646 12.1928 63.0646C11.5485 63.0646 11.0616 63.1007 11.03 63.1507ZM21.753 63.1773C21.2639 63.4732 20.8245 64.0093 20.8245 64.3101C20.8245 64.4771 20.7849 64.6137 20.7366 64.6137C20.6789 64.6137 20.6488 66.7222 20.6488 70.7671C20.6488 74.812 20.6789 76.9205 20.7366 76.9205C20.7849 76.9205 20.8245 77.0561 20.8245 77.2217C20.8245 77.3874 20.864 77.5229 20.9123 77.5229C20.9606 77.5229 21.0002 77.5828 21.0002 77.6559C21.0002 77.907 21.6322 78.3836 21.9653 78.3836C22.0626 78.3836 22.1421 78.4223 22.1421 78.4696C22.1421 78.517 22.3398 78.5557 22.5813 78.5557C22.8229 78.5557 23.0206 78.517 23.0206 78.4696C23.0206 78.4223 23.1391 78.3836 23.2841 78.3836C23.429 78.3836 23.5476 78.3543 23.5476 78.3186C23.5476 78.2826 23.6563 78.2061 23.7892 78.1482C23.9234 78.0899 24.1188 77.8797 24.2286 77.6755L24.4265 77.3078L24.4263 70.7026C24.426 66.3567 24.396 64.0973 24.3382 64.0973C24.2899 64.0973 24.2504 64.038 24.2504 63.9655C24.2504 63.7968 23.6827 63.2367 23.5118 63.2367C23.4407 63.2367 23.3579 63.198 23.328 63.1507C23.2522 63.0306 21.9594 63.0523 21.753 63.1773ZM28.7304 63.1507C28.7304 63.198 28.6697 63.2367 28.5957 63.2367C28.4451 63.2367 27.8519 63.7836 27.8519 63.9224C27.8519 63.9713 27.8124 64.0113 27.7641 64.0113C27.7158 64.0113 27.6762 64.1445 27.6762 64.3073C27.6762 64.4702 27.6367 64.6275 27.5884 64.6567C27.5311 64.6914 27.5006 66.8236 27.5006 70.7723C27.5006 74.7563 27.5306 76.8344 27.5884 76.8344C27.6367 76.8344 27.6762 76.9894 27.6762 77.1787C27.6762 77.368 27.7158 77.5229 27.7641 77.5229C27.8124 77.5229 27.8519 77.5828 27.8519 77.6559C27.8519 77.828 28.2433 78.2114 28.419 78.2114C28.4936 78.2114 28.5547 78.2502 28.5547 78.2975C28.5547 78.3448 28.6733 78.3836 28.8182 78.3836C28.9631 78.3836 29.0817 78.4223 29.0817 78.4696C29.0817 78.517 29.2596 78.5557 29.477 78.5557C29.6944 78.5557 29.8723 78.517 29.8723 78.4696C29.8723 78.4223 29.9909 78.3836 30.1358 78.3836C30.2808 78.3836 30.3994 78.3448 30.3994 78.2975C30.3994 78.2502 30.4639 78.2114 30.5428 78.2114C30.7033 78.2114 31.1019 77.7973 31.1021 77.6305C31.1021 77.5714 31.1416 77.5229 31.19 77.5229C31.2477 77.5229 31.2778 75.2279 31.2778 70.8101C31.2778 66.3924 31.2477 64.0973 31.19 64.0973C31.1416 64.0973 31.1021 64.038 31.1021 63.9655C31.1021 63.7942 30.5331 63.2367 30.3583 63.2367C30.2843 63.2367 30.2237 63.198 30.2237 63.1507C30.2237 63.1001 29.9162 63.0646 29.477 63.0646C29.0378 63.0646 28.7304 63.1001 28.7304 63.1507ZM12.7429 66.8513C12.7429 66.8986 12.8035 66.9374 12.8775 66.9374C13.0523 66.9374 13.6213 67.4948 13.6213 67.6661C13.6213 67.7386 13.6609 67.798 13.7092 67.798C13.7661 67.798 13.797 68.8593 13.797 70.8101C13.797 72.7609 13.7661 73.8223 13.7092 73.8223C13.6609 73.8223 13.6213 73.8821 13.6213 73.9553C13.6213 74.1267 13.2987 74.4353 12.9625 74.5854C12.8176 74.65 12.6302 74.7371 12.5464 74.7791C12.341 74.8815 12.0402 74.8755 12.0402 74.769C12.0402 74.7216 11.9402 74.6829 11.8181 74.6829C11.5155 74.6829 10.8104 73.9921 10.8104 73.6956C10.8104 73.5759 10.7708 73.4781 10.7225 73.4781C10.6659 73.4781 10.6347 72.5314 10.6347 70.8101C10.6347 69.0889 10.6659 68.1422 10.7225 68.1422C10.7708 68.1422 10.8104 68.0261 10.8104 67.884C10.8104 67.7421 10.8499 67.6259 10.8982 67.6259C10.9465 67.6259 10.986 67.5626 10.986 67.4854C10.986 67.3281 11.4088 66.9376 11.579 66.9374C11.6394 66.9374 11.6888 66.8986 11.6888 66.8513C11.6888 66.8035 11.9231 66.7653 12.2158 66.7653C12.5086 66.7653 12.7429 66.8035 12.7429 66.8513Z" fill="white"/>
</svg>
