<svg width="506" height="295" viewBox="0 0 506 295" fill="none" xmlns="http://www.w3.org/2000/svg">
<g opacity="0.5">
<line x1="-2.19768e-08" y1="8.95898" x2="440.446" y2="8.95895" stroke="#ECECEC" stroke-width="0.5"/>
<line x1="-2.19768e-08" y1="138.15" x2="440.446" y2="138.15" stroke="#ECECEC" stroke-width="0.5"/>
<line x1="-2.19768e-08" y1="73.5547" x2="440.446" y2="73.5546" stroke="#ECECEC" stroke-width="0.5"/>
<line x1="-2.19768e-08" y1="202.745" x2="440.446" y2="202.745" stroke="#ECECEC" stroke-width="0.5"/>
<line x1="-2.19768e-08" y1="267.341" x2="440.446" y2="267.341" stroke="#ECECEC" stroke-width="0.5"/>
<path d="M455.837 11.5137V12.3584H451.105C451.099 12.1468 451.133 11.9434 451.208 11.748C451.328 11.4258 451.52 11.1084 451.784 10.7959C452.051 10.4834 452.435 10.1221 452.936 9.71191C453.714 9.07389 454.24 8.56934 454.513 8.19824C454.787 7.82389 454.923 7.4707 454.923 7.13867C454.923 6.79036 454.798 6.4974 454.547 6.25977C454.3 6.01888 453.976 5.89844 453.576 5.89844C453.153 5.89844 452.814 6.02539 452.56 6.2793C452.306 6.5332 452.178 6.88477 452.174 7.33398L451.271 7.24121C451.333 6.56738 451.566 6.05469 451.969 5.70312C452.373 5.34831 452.915 5.1709 453.595 5.1709C454.282 5.1709 454.826 5.36133 455.226 5.74219C455.627 6.12305 455.827 6.59505 455.827 7.1582C455.827 7.44466 455.768 7.72624 455.651 8.00293C455.534 8.27962 455.339 8.57096 455.065 8.87695C454.795 9.18294 454.344 9.60286 453.713 10.1367C453.185 10.5794 452.847 10.8805 452.697 11.04C452.547 11.1963 452.423 11.3542 452.326 11.5137H455.837ZM457.334 10.4834L458.257 10.4053C458.325 10.8545 458.483 11.193 458.73 11.4209C458.981 11.6455 459.282 11.7578 459.634 11.7578C460.057 11.7578 460.415 11.5983 460.708 11.2793C461.001 10.9603 461.147 10.5371 461.147 10.0098C461.147 9.50846 461.006 9.11296 460.722 8.82324C460.443 8.53353 460.075 8.38867 459.619 8.38867C459.336 8.38867 459.08 8.45378 458.852 8.58398C458.625 8.71094 458.445 8.87695 458.315 9.08203L457.49 8.97461L458.183 5.29785H461.743V6.1377H458.887L458.501 8.06152C458.93 7.76204 459.381 7.6123 459.853 7.6123C460.478 7.6123 461.006 7.82878 461.435 8.26172C461.865 8.69466 462.08 9.2513 462.08 9.93164C462.08 10.5794 461.891 11.1393 461.514 11.6113C461.055 12.1908 460.428 12.4805 459.634 12.4805C458.983 12.4805 458.45 12.2982 458.037 11.9336C457.627 11.569 457.392 11.0856 457.334 10.4834ZM463.45 8.82812C463.45 7.98177 463.536 7.30143 463.709 6.78711C463.885 6.26953 464.144 5.87077 464.485 5.59082C464.83 5.31087 465.263 5.1709 465.784 5.1709C466.168 5.1709 466.505 5.24902 466.795 5.40527C467.085 5.55827 467.324 5.78125 467.513 6.07422C467.702 6.36393 467.85 6.71875 467.957 7.13867C468.064 7.55534 468.118 8.11849 468.118 8.82812C468.118 9.66797 468.032 10.3467 467.859 10.8643C467.687 11.3786 467.428 11.7773 467.083 12.0605C466.741 12.3405 466.308 12.4805 465.784 12.4805C465.094 12.4805 464.552 12.2331 464.158 11.7383C463.686 11.1426 463.45 10.1725 463.45 8.82812ZM464.354 8.82812C464.354 10.0033 464.49 10.7861 464.764 11.1768C465.04 11.5641 465.381 11.7578 465.784 11.7578C466.188 11.7578 466.526 11.5625 466.8 11.1719C467.077 10.7812 467.215 10 467.215 8.82812C467.215 7.64974 467.077 6.86686 466.8 6.47949C466.526 6.09212 466.185 5.89844 465.774 5.89844C465.371 5.89844 465.049 6.06934 464.808 6.41113C464.505 6.84733 464.354 7.65299 464.354 8.82812ZM472.9 8.82812C472.9 7.98177 472.986 7.30143 473.159 6.78711C473.334 6.26953 473.593 5.87077 473.935 5.59082C474.28 5.31087 474.713 5.1709 475.234 5.1709C475.618 5.1709 475.955 5.24902 476.245 5.40527C476.534 5.55827 476.774 5.78125 476.962 6.07422C477.151 6.36393 477.299 6.71875 477.407 7.13867C477.514 7.55534 477.568 8.11849 477.568 8.82812C477.568 9.66797 477.482 10.3467 477.309 10.8643C477.136 11.3786 476.878 11.7773 476.533 12.0605C476.191 12.3405 475.758 12.4805 475.234 12.4805C474.544 12.4805 474.002 12.2331 473.608 11.7383C473.136 11.1426 472.9 10.1725 472.9 8.82812ZM473.803 8.82812C473.803 10.0033 473.94 10.7861 474.213 11.1768C474.49 11.5641 474.83 11.7578 475.234 11.7578C475.637 11.7578 475.976 11.5625 476.249 11.1719C476.526 10.7812 476.664 10 476.664 8.82812C476.664 7.64974 476.526 6.86686 476.249 6.47949C475.976 6.09212 475.634 5.89844 475.224 5.89844C474.82 5.89844 474.498 6.06934 474.257 6.41113C473.955 6.84733 473.803 7.65299 473.803 8.82812ZM479.016 8.82812C479.016 7.98177 479.102 7.30143 479.275 6.78711C479.451 6.26953 479.71 5.87077 480.051 5.59082C480.396 5.31087 480.829 5.1709 481.35 5.1709C481.734 5.1709 482.071 5.24902 482.361 5.40527C482.651 5.55827 482.89 5.78125 483.079 6.07422C483.268 6.36393 483.416 6.71875 483.523 7.13867C483.63 7.55534 483.684 8.11849 483.684 8.82812C483.684 9.66797 483.598 10.3467 483.425 10.8643C483.253 11.3786 482.994 11.7773 482.649 12.0605C482.307 12.3405 481.874 12.4805 481.35 12.4805C480.66 12.4805 480.118 12.2331 479.724 11.7383C479.252 11.1426 479.016 10.1725 479.016 8.82812ZM479.92 8.82812C479.92 10.0033 480.056 10.7861 480.33 11.1768C480.606 11.5641 480.947 11.7578 481.35 11.7578C481.754 11.7578 482.092 11.5625 482.366 11.1719C482.643 10.7812 482.781 10 482.781 8.82812C482.781 7.64974 482.643 6.86686 482.366 6.47949C482.092 6.09212 481.751 5.89844 481.34 5.89844C480.937 5.89844 480.615 6.06934 480.374 6.41113C480.071 6.84733 479.92 7.65299 479.92 8.82812ZM485.133 8.82812C485.133 7.98177 485.219 7.30143 485.391 6.78711C485.567 6.26953 485.826 5.87077 486.168 5.59082C486.513 5.31087 486.946 5.1709 487.467 5.1709C487.851 5.1709 488.188 5.24902 488.477 5.40527C488.767 5.55827 489.006 5.78125 489.195 6.07422C489.384 6.36393 489.532 6.71875 489.639 7.13867C489.747 7.55534 489.801 8.11849 489.801 8.82812C489.801 9.66797 489.714 10.3467 489.542 10.8643C489.369 11.3786 489.111 11.7773 488.765 12.0605C488.424 12.3405 487.991 12.4805 487.467 12.4805C486.777 12.4805 486.235 12.2331 485.841 11.7383C485.369 11.1426 485.133 10.1725 485.133 8.82812ZM486.036 8.82812C486.036 10.0033 486.173 10.7861 486.446 11.1768C486.723 11.5641 487.063 11.7578 487.467 11.7578C487.87 11.7578 488.209 11.5625 488.482 11.1719C488.759 10.7812 488.897 10 488.897 8.82812C488.897 7.64974 488.759 6.86686 488.482 6.47949C488.209 6.09212 487.867 5.89844 487.457 5.89844C487.053 5.89844 486.731 6.06934 486.49 6.41113C486.187 6.84733 486.036 7.65299 486.036 8.82812Z" fill="#ECECEC" fill-opacity="0.5"/>
<path d="M456.325 76.1094V76.9541H451.594C451.587 76.7425 451.622 76.5391 451.696 76.3438C451.817 76.0215 452.009 75.7041 452.273 75.3916C452.54 75.0791 452.924 74.7178 453.425 74.3076C454.203 73.6696 454.729 73.165 455.002 72.7939C455.276 72.4196 455.412 72.0664 455.412 71.7344C455.412 71.3861 455.287 71.0931 455.036 70.8555C454.789 70.6146 454.465 70.4941 454.065 70.4941C453.641 70.4941 453.303 70.6211 453.049 70.875C452.795 71.1289 452.666 71.4805 452.663 71.9297L451.76 71.8369C451.822 71.1631 452.054 70.6504 452.458 70.2988C452.862 69.944 453.404 69.7666 454.084 69.7666C454.771 69.7666 455.315 69.957 455.715 70.3379C456.115 70.7188 456.316 71.1908 456.316 71.7539C456.316 72.0404 456.257 72.3219 456.14 72.5986C456.023 72.8753 455.827 73.1667 455.554 73.4727C455.284 73.7786 454.833 74.1986 454.201 74.7324C453.674 75.1751 453.335 75.4762 453.186 75.6357C453.036 75.792 452.912 75.9499 452.815 76.1094H456.325ZM457.823 73.4238C457.823 72.5775 457.909 71.8971 458.081 71.3828C458.257 70.8652 458.516 70.4665 458.858 70.1865C459.203 69.9066 459.636 69.7666 460.157 69.7666C460.541 69.7666 460.878 69.8447 461.167 70.001C461.457 70.154 461.696 70.377 461.885 70.6699C462.074 70.9596 462.222 71.3145 462.329 71.7344C462.437 72.151 462.491 72.7142 462.491 73.4238C462.491 74.2637 462.404 74.9424 462.232 75.46C462.059 75.9743 461.8 76.373 461.455 76.6562C461.114 76.9362 460.681 77.0762 460.157 77.0762C459.466 77.0762 458.924 76.8288 458.531 76.334C458.059 75.7383 457.823 74.7682 457.823 73.4238ZM458.726 73.4238C458.726 74.599 458.863 75.3818 459.136 75.7725C459.413 76.1598 459.753 76.3535 460.157 76.3535C460.56 76.3535 460.899 76.1582 461.172 75.7676C461.449 75.377 461.587 74.5957 461.587 73.4238C461.587 72.2454 461.449 71.4626 461.172 71.0752C460.899 70.6878 460.557 70.4941 460.147 70.4941C459.743 70.4941 459.421 70.665 459.18 71.0068C458.877 71.443 458.726 72.2487 458.726 73.4238ZM463.939 73.4238C463.939 72.5775 464.025 71.8971 464.198 71.3828C464.374 70.8652 464.632 70.4665 464.974 70.1865C465.319 69.9066 465.752 69.7666 466.273 69.7666C466.657 69.7666 466.994 69.8447 467.284 70.001C467.573 70.154 467.813 70.377 468.001 70.6699C468.19 70.9596 468.338 71.3145 468.446 71.7344C468.553 72.151 468.607 72.7142 468.607 73.4238C468.607 74.2637 468.521 74.9424 468.348 75.46C468.176 75.9743 467.917 76.373 467.572 76.6562C467.23 76.9362 466.797 77.0762 466.273 77.0762C465.583 77.0762 465.041 76.8288 464.647 76.334C464.175 75.7383 463.939 74.7682 463.939 73.4238ZM464.842 73.4238C464.842 74.599 464.979 75.3818 465.252 75.7725C465.529 76.1598 465.869 76.3535 466.273 76.3535C466.677 76.3535 467.015 76.1582 467.289 75.7676C467.565 75.377 467.704 74.5957 467.704 73.4238C467.704 72.2454 467.565 71.4626 467.289 71.0752C467.015 70.6878 466.673 70.4941 466.263 70.4941C465.86 70.4941 465.537 70.665 465.296 71.0068C464.994 71.443 464.842 72.2487 464.842 73.4238ZM473.389 73.4238C473.389 72.5775 473.475 71.8971 473.647 71.3828C473.823 70.8652 474.082 70.4665 474.424 70.1865C474.769 69.9066 475.202 69.7666 475.723 69.7666C476.107 69.7666 476.444 69.8447 476.733 70.001C477.023 70.154 477.262 70.377 477.451 70.6699C477.64 70.9596 477.788 71.3145 477.895 71.7344C478.003 72.151 478.057 72.7142 478.057 73.4238C478.057 74.2637 477.97 74.9424 477.798 75.46C477.625 75.9743 477.366 76.373 477.021 76.6562C476.68 76.9362 476.247 77.0762 475.723 77.0762C475.032 77.0762 474.49 76.8288 474.097 76.334C473.625 75.7383 473.389 74.7682 473.389 73.4238ZM474.292 73.4238C474.292 74.599 474.429 75.3818 474.702 75.7725C474.979 76.1598 475.319 76.3535 475.723 76.3535C476.126 76.3535 476.465 76.1582 476.738 75.7676C477.015 75.377 477.153 74.5957 477.153 73.4238C477.153 72.2454 477.015 71.4626 476.738 71.0752C476.465 70.6878 476.123 70.4941 475.713 70.4941C475.309 70.4941 474.987 70.665 474.746 71.0068C474.443 71.443 474.292 72.2487 474.292 73.4238ZM479.505 73.4238C479.505 72.5775 479.591 71.8971 479.764 71.3828C479.94 70.8652 480.198 70.4665 480.54 70.1865C480.885 69.9066 481.318 69.7666 481.839 69.7666C482.223 69.7666 482.56 69.8447 482.85 70.001C483.139 70.154 483.379 70.377 483.568 70.6699C483.756 70.9596 483.904 71.3145 484.012 71.7344C484.119 72.151 484.173 72.7142 484.173 73.4238C484.173 74.2637 484.087 74.9424 483.914 75.46C483.742 75.9743 483.483 76.373 483.138 76.6562C482.796 76.9362 482.363 77.0762 481.839 77.0762C481.149 77.0762 480.607 76.8288 480.213 76.334C479.741 75.7383 479.505 74.7682 479.505 73.4238ZM480.408 73.4238C480.408 74.599 480.545 75.3818 480.818 75.7725C481.095 76.1598 481.435 76.3535 481.839 76.3535C482.243 76.3535 482.581 76.1582 482.855 75.7676C483.131 75.377 483.27 74.5957 483.27 73.4238C483.27 72.2454 483.131 71.4626 482.855 71.0752C482.581 70.6878 482.239 70.4941 481.829 70.4941C481.426 70.4941 481.103 70.665 480.862 71.0068C480.56 71.443 480.408 72.2487 480.408 73.4238ZM485.621 73.4238C485.621 72.5775 485.708 71.8971 485.88 71.3828C486.056 70.8652 486.315 70.4665 486.657 70.1865C487.002 69.9066 487.435 69.7666 487.955 69.7666C488.34 69.7666 488.676 69.8447 488.966 70.001C489.256 70.154 489.495 70.377 489.684 70.6699C489.873 70.9596 490.021 71.3145 490.128 71.7344C490.236 72.151 490.289 72.7142 490.289 73.4238C490.289 74.2637 490.203 74.9424 490.031 75.46C489.858 75.9743 489.599 76.373 489.254 76.6562C488.912 76.9362 488.479 77.0762 487.955 77.0762C487.265 77.0762 486.723 76.8288 486.329 76.334C485.857 75.7383 485.621 74.7682 485.621 73.4238ZM486.525 73.4238C486.525 74.599 486.661 75.3818 486.935 75.7725C487.212 76.1598 487.552 76.3535 487.955 76.3535C488.359 76.3535 488.698 76.1582 488.971 75.7676C489.248 75.377 489.386 74.5957 489.386 73.4238C489.386 72.2454 489.248 71.4626 488.971 71.0752C488.698 70.6878 488.356 70.4941 487.946 70.4941C487.542 70.4941 487.22 70.665 486.979 71.0068C486.676 71.443 486.525 72.2487 486.525 73.4238Z" fill="#ECECEC" fill-opacity="0.5"/>
<path d="M454.528 141.55H453.649V135.949C453.437 136.151 453.159 136.353 452.814 136.555C452.472 136.757 452.165 136.908 451.891 137.009V136.159C452.383 135.928 452.812 135.648 453.18 135.319C453.548 134.991 453.809 134.672 453.962 134.362H454.528V141.55ZM457.334 139.675L458.257 139.597C458.325 140.046 458.483 140.384 458.73 140.612C458.981 140.837 459.282 140.949 459.634 140.949C460.057 140.949 460.415 140.79 460.708 140.471C461.001 140.152 461.147 139.729 461.147 139.201C461.147 138.7 461.006 138.304 460.722 138.015C460.443 137.725 460.075 137.58 459.619 137.58C459.336 137.58 459.08 137.645 458.852 137.775C458.625 137.902 458.445 138.068 458.315 138.273L457.49 138.166L458.183 134.489H461.743V135.329H458.887L458.501 137.253C458.93 136.953 459.381 136.804 459.853 136.804C460.478 136.804 461.006 137.02 461.435 137.453C461.865 137.886 462.08 138.443 462.08 139.123C462.08 139.771 461.891 140.331 461.514 140.803C461.055 141.382 460.428 141.672 459.634 141.672C458.983 141.672 458.45 141.49 458.037 141.125C457.627 140.76 457.392 140.277 457.334 139.675ZM463.45 138.02C463.45 137.173 463.536 136.493 463.709 135.979C463.885 135.461 464.144 135.062 464.485 134.782C464.83 134.502 465.263 134.362 465.784 134.362C466.168 134.362 466.505 134.44 466.795 134.597C467.085 134.75 467.324 134.973 467.513 135.266C467.702 135.555 467.85 135.91 467.957 136.33C468.064 136.747 468.118 137.31 468.118 138.02C468.118 138.859 468.032 139.538 467.859 140.056C467.687 140.57 467.428 140.969 467.083 141.252C466.741 141.532 466.308 141.672 465.784 141.672C465.094 141.672 464.552 141.424 464.158 140.93C463.686 140.334 463.45 139.364 463.45 138.02ZM464.354 138.02C464.354 139.195 464.49 139.978 464.764 140.368C465.04 140.756 465.381 140.949 465.784 140.949C466.188 140.949 466.526 140.754 466.8 140.363C467.077 139.973 467.215 139.191 467.215 138.02C467.215 136.841 467.077 136.058 466.8 135.671C466.526 135.284 466.185 135.09 465.774 135.09C465.371 135.09 465.049 135.261 464.808 135.603C464.505 136.039 464.354 136.844 464.354 138.02ZM472.9 138.02C472.9 137.173 472.986 136.493 473.159 135.979C473.334 135.461 473.593 135.062 473.935 134.782C474.28 134.502 474.713 134.362 475.234 134.362C475.618 134.362 475.955 134.44 476.245 134.597C476.534 134.75 476.774 134.973 476.962 135.266C477.151 135.555 477.299 135.91 477.407 136.33C477.514 136.747 477.568 137.31 477.568 138.02C477.568 138.859 477.482 139.538 477.309 140.056C477.136 140.57 476.878 140.969 476.533 141.252C476.191 141.532 475.758 141.672 475.234 141.672C474.544 141.672 474.002 141.424 473.608 140.93C473.136 140.334 472.9 139.364 472.9 138.02ZM473.803 138.02C473.803 139.195 473.94 139.978 474.213 140.368C474.49 140.756 474.83 140.949 475.234 140.949C475.637 140.949 475.976 140.754 476.249 140.363C476.526 139.973 476.664 139.191 476.664 138.02C476.664 136.841 476.526 136.058 476.249 135.671C475.976 135.284 475.634 135.09 475.224 135.09C474.82 135.09 474.498 135.261 474.257 135.603C473.955 136.039 473.803 136.844 473.803 138.02ZM479.016 138.02C479.016 137.173 479.102 136.493 479.275 135.979C479.451 135.461 479.71 135.062 480.051 134.782C480.396 134.502 480.829 134.362 481.35 134.362C481.734 134.362 482.071 134.44 482.361 134.597C482.651 134.75 482.89 134.973 483.079 135.266C483.268 135.555 483.416 135.91 483.523 136.33C483.63 136.747 483.684 137.31 483.684 138.02C483.684 138.859 483.598 139.538 483.425 140.056C483.253 140.57 482.994 140.969 482.649 141.252C482.307 141.532 481.874 141.672 481.35 141.672C480.66 141.672 480.118 141.424 479.724 140.93C479.252 140.334 479.016 139.364 479.016 138.02ZM479.92 138.02C479.92 139.195 480.056 139.978 480.33 140.368C480.606 140.756 480.947 140.949 481.35 140.949C481.754 140.949 482.092 140.754 482.366 140.363C482.643 139.973 482.781 139.191 482.781 138.02C482.781 136.841 482.643 136.058 482.366 135.671C482.092 135.284 481.751 135.09 481.34 135.09C480.937 135.09 480.615 135.261 480.374 135.603C480.071 136.039 479.92 136.844 479.92 138.02ZM485.133 138.02C485.133 137.173 485.219 136.493 485.391 135.979C485.567 135.461 485.826 135.062 486.168 134.782C486.513 134.502 486.946 134.362 487.467 134.362C487.851 134.362 488.188 134.44 488.477 134.597C488.767 134.75 489.006 134.973 489.195 135.266C489.384 135.555 489.532 135.91 489.639 136.33C489.747 136.747 489.801 137.31 489.801 138.02C489.801 138.859 489.714 139.538 489.542 140.056C489.369 140.57 489.111 140.969 488.765 141.252C488.424 141.532 487.991 141.672 487.467 141.672C486.777 141.672 486.235 141.424 485.841 140.93C485.369 140.334 485.133 139.364 485.133 138.02ZM486.036 138.02C486.036 139.195 486.173 139.978 486.446 140.368C486.723 140.756 487.063 140.949 487.467 140.949C487.87 140.949 488.209 140.754 488.482 140.363C488.759 139.973 488.897 139.191 488.897 138.02C488.897 136.841 488.759 136.058 488.482 135.671C488.209 135.284 487.867 135.09 487.457 135.09C487.053 135.09 486.731 135.261 486.49 135.603C486.187 136.039 486.036 136.844 486.036 138.02Z" fill="#ECECEC" fill-opacity="0.5"/>
<path d="M454.528 205.145H453.649V199.544C453.437 199.746 453.159 199.948 452.814 200.149C452.472 200.351 452.165 200.503 451.891 200.604V199.754C452.383 199.523 452.812 199.243 453.18 198.914C453.548 198.585 453.809 198.266 453.962 197.957H454.528V205.145ZM457.334 201.614C457.334 200.768 457.42 200.088 457.593 199.573C457.768 199.056 458.027 198.657 458.369 198.377C458.714 198.097 459.147 197.957 459.668 197.957C460.052 197.957 460.389 198.035 460.679 198.191C460.968 198.344 461.208 198.567 461.396 198.86C461.585 199.15 461.733 199.505 461.841 199.925C461.948 200.341 462.002 200.905 462.002 201.614C462.002 202.454 461.916 203.133 461.743 203.65C461.57 204.165 461.312 204.563 460.967 204.847C460.625 205.127 460.192 205.267 459.668 205.267C458.978 205.267 458.436 205.019 458.042 204.524C457.57 203.929 457.334 202.959 457.334 201.614ZM458.237 201.614C458.237 202.789 458.374 203.572 458.647 203.963C458.924 204.35 459.264 204.544 459.668 204.544C460.071 204.544 460.41 204.349 460.683 203.958C460.96 203.567 461.098 202.786 461.098 201.614C461.098 200.436 460.96 199.653 460.683 199.266C460.41 198.878 460.068 198.685 459.658 198.685C459.254 198.685 458.932 198.855 458.691 199.197C458.389 199.633 458.237 200.439 458.237 201.614ZM463.45 201.614C463.45 200.768 463.536 200.088 463.709 199.573C463.885 199.056 464.144 198.657 464.485 198.377C464.83 198.097 465.263 197.957 465.784 197.957C466.168 197.957 466.505 198.035 466.795 198.191C467.085 198.344 467.324 198.567 467.513 198.86C467.702 199.15 467.85 199.505 467.957 199.925C468.064 200.341 468.118 200.905 468.118 201.614C468.118 202.454 468.032 203.133 467.859 203.65C467.687 204.165 467.428 204.563 467.083 204.847C466.741 205.127 466.308 205.267 465.784 205.267C465.094 205.267 464.552 205.019 464.158 204.524C463.686 203.929 463.45 202.959 463.45 201.614ZM464.354 201.614C464.354 202.789 464.49 203.572 464.764 203.963C465.04 204.35 465.381 204.544 465.784 204.544C466.188 204.544 466.526 204.349 466.8 203.958C467.077 203.567 467.215 202.786 467.215 201.614C467.215 200.436 467.077 199.653 466.8 199.266C466.526 198.878 466.185 198.685 465.774 198.685C465.371 198.685 465.049 198.855 464.808 199.197C464.505 199.633 464.354 200.439 464.354 201.614ZM472.9 201.614C472.9 200.768 472.986 200.088 473.159 199.573C473.334 199.056 473.593 198.657 473.935 198.377C474.28 198.097 474.713 197.957 475.234 197.957C475.618 197.957 475.955 198.035 476.245 198.191C476.534 198.344 476.774 198.567 476.962 198.86C477.151 199.15 477.299 199.505 477.407 199.925C477.514 200.341 477.568 200.905 477.568 201.614C477.568 202.454 477.482 203.133 477.309 203.65C477.136 204.165 476.878 204.563 476.533 204.847C476.191 205.127 475.758 205.267 475.234 205.267C474.544 205.267 474.002 205.019 473.608 204.524C473.136 203.929 472.9 202.959 472.9 201.614ZM473.803 201.614C473.803 202.789 473.94 203.572 474.213 203.963C474.49 204.35 474.83 204.544 475.234 204.544C475.637 204.544 475.976 204.349 476.249 203.958C476.526 203.567 476.664 202.786 476.664 201.614C476.664 200.436 476.526 199.653 476.249 199.266C475.976 198.878 475.634 198.685 475.224 198.685C474.82 198.685 474.498 198.855 474.257 199.197C473.955 199.633 473.803 200.439 473.803 201.614ZM479.016 201.614C479.016 200.768 479.102 200.088 479.275 199.573C479.451 199.056 479.71 198.657 480.051 198.377C480.396 198.097 480.829 197.957 481.35 197.957C481.734 197.957 482.071 198.035 482.361 198.191C482.651 198.344 482.89 198.567 483.079 198.86C483.268 199.15 483.416 199.505 483.523 199.925C483.63 200.341 483.684 200.905 483.684 201.614C483.684 202.454 483.598 203.133 483.425 203.65C483.253 204.165 482.994 204.563 482.649 204.847C482.307 205.127 481.874 205.267 481.35 205.267C480.66 205.267 480.118 205.019 479.724 204.524C479.252 203.929 479.016 202.959 479.016 201.614ZM479.92 201.614C479.92 202.789 480.056 203.572 480.33 203.963C480.606 204.35 480.947 204.544 481.35 204.544C481.754 204.544 482.092 204.349 482.366 203.958C482.643 203.567 482.781 202.786 482.781 201.614C482.781 200.436 482.643 199.653 482.366 199.266C482.092 198.878 481.751 198.685 481.34 198.685C480.937 198.685 480.615 198.855 480.374 199.197C480.071 199.633 479.92 200.439 479.92 201.614ZM485.133 201.614C485.133 200.768 485.219 200.088 485.391 199.573C485.567 199.056 485.826 198.657 486.168 198.377C486.513 198.097 486.946 197.957 487.467 197.957C487.851 197.957 488.188 198.035 488.477 198.191C488.767 198.344 489.006 198.567 489.195 198.86C489.384 199.15 489.532 199.505 489.639 199.925C489.747 200.341 489.801 200.905 489.801 201.614C489.801 202.454 489.714 203.133 489.542 203.65C489.369 204.165 489.111 204.563 488.765 204.847C488.424 205.127 487.991 205.267 487.467 205.267C486.777 205.267 486.235 205.019 485.841 204.524C485.369 203.929 485.133 202.959 485.133 201.614ZM486.036 201.614C486.036 202.789 486.173 203.572 486.446 203.963C486.723 204.35 487.063 204.544 487.467 204.544C487.87 204.544 488.209 204.349 488.482 203.958C488.759 203.567 488.897 202.786 488.897 201.614C488.897 200.436 488.759 199.653 488.482 199.266C488.209 198.878 487.867 198.685 487.457 198.685C487.053 198.685 486.731 198.855 486.49 199.197C486.187 199.633 486.036 200.439 486.036 201.614Z" fill="#ECECEC" fill-opacity="0.5"/>
<path d="M421.092 288.697V289.542H416.361C416.354 289.33 416.389 289.127 416.464 288.932C416.584 288.609 416.776 288.292 417.04 287.979C417.307 287.667 417.691 287.306 418.192 286.896C418.97 286.257 419.496 285.753 419.769 285.382C420.043 285.007 420.179 284.654 420.179 284.322C420.179 283.974 420.054 283.681 419.803 283.443C419.556 283.202 419.232 283.082 418.832 283.082C418.408 283.082 418.07 283.209 417.816 283.463C417.562 283.717 417.434 284.068 417.43 284.518L416.527 284.425C416.589 283.751 416.822 283.238 417.225 282.887C417.629 282.532 418.171 282.354 418.851 282.354C419.538 282.354 420.082 282.545 420.482 282.926C420.882 283.307 421.083 283.779 421.083 284.342C421.083 284.628 421.024 284.91 420.907 285.187C420.79 285.463 420.594 285.755 420.321 286.061C420.051 286.367 419.6 286.786 418.968 287.32C418.441 287.763 418.102 288.064 417.953 288.224C417.803 288.38 417.679 288.538 417.582 288.697H421.092ZM422.59 286.012C422.59 285.165 422.676 284.485 422.848 283.971C423.024 283.453 423.283 283.054 423.625 282.774C423.97 282.494 424.403 282.354 424.924 282.354C425.308 282.354 425.645 282.433 425.934 282.589C426.224 282.742 426.463 282.965 426.652 283.258C426.841 283.548 426.989 283.902 427.097 284.322C427.204 284.739 427.258 285.302 427.258 286.012C427.258 286.852 427.171 287.53 426.999 288.048C426.826 288.562 426.568 288.961 426.222 289.244C425.881 289.524 425.448 289.664 424.924 289.664C424.234 289.664 423.692 289.417 423.298 288.922C422.826 288.326 422.59 287.356 422.59 286.012ZM423.493 286.012C423.493 287.187 423.63 287.97 423.903 288.36C424.18 288.748 424.52 288.941 424.924 288.941C425.327 288.941 425.666 288.746 425.939 288.355C426.216 287.965 426.354 287.184 426.354 286.012C426.354 284.833 426.216 284.05 425.939 283.663C425.666 283.276 425.324 283.082 424.914 283.082C424.51 283.082 424.188 283.253 423.947 283.595C423.644 284.031 423.493 284.837 423.493 286.012ZM433.325 288.697V289.542H428.594C428.587 289.33 428.621 289.127 428.696 288.932C428.817 288.609 429.009 288.292 429.272 287.979C429.539 287.667 429.924 287.306 430.425 286.896C431.203 286.257 431.729 285.753 432.002 285.382C432.275 285.007 432.412 284.654 432.412 284.322C432.412 283.974 432.287 283.681 432.036 283.443C431.789 283.202 431.465 283.082 431.064 283.082C430.641 283.082 430.303 283.209 430.049 283.463C429.795 283.717 429.666 284.068 429.663 284.518L428.76 284.425C428.822 283.751 429.054 283.238 429.458 282.887C429.862 282.532 430.404 282.354 431.084 282.354C431.771 282.354 432.314 282.545 432.715 282.926C433.115 283.307 433.315 283.779 433.315 284.342C433.315 284.628 433.257 284.91 433.14 285.187C433.022 285.463 432.827 285.755 432.554 286.061C432.284 286.367 431.833 286.786 431.201 287.32C430.674 287.763 430.335 288.064 430.186 288.224C430.036 288.38 429.912 288.538 429.814 288.697H433.325ZM439.442 288.697V289.542H434.71C434.704 289.33 434.738 289.127 434.813 288.932C434.933 288.609 435.125 288.292 435.389 287.979C435.656 287.667 436.04 287.306 436.541 286.896C437.319 286.257 437.845 285.753 438.118 285.382C438.392 285.007 438.529 284.654 438.529 284.322C438.529 283.974 438.403 283.681 438.153 283.443C437.905 283.202 437.581 283.082 437.181 283.082C436.758 283.082 436.419 283.209 436.165 283.463C435.911 283.717 435.783 284.068 435.78 284.518L434.876 284.425C434.938 283.751 435.171 283.238 435.574 282.887C435.978 282.532 436.52 282.354 437.2 282.354C437.887 282.354 438.431 282.545 438.831 282.926C439.232 283.307 439.432 283.779 439.432 284.342C439.432 284.628 439.373 284.91 439.256 285.187C439.139 285.463 438.944 285.755 438.67 286.061C438.4 286.367 437.949 286.786 437.318 287.32C436.79 287.763 436.452 288.064 436.302 288.224C436.152 288.38 436.029 288.538 435.931 288.697H439.442Z" fill="#ECECEC" fill-opacity="0.5"/>
<path d="M337.881 288.697V289.542H333.15C333.143 289.33 333.177 289.127 333.252 288.932C333.373 288.609 333.565 288.292 333.828 287.979C334.095 287.667 334.479 287.306 334.981 286.896C335.759 286.257 336.284 285.753 336.558 285.382C336.831 285.007 336.968 284.654 336.968 284.322C336.968 283.974 336.843 283.681 336.592 283.443C336.345 283.202 336.021 283.082 335.62 283.082C335.197 283.082 334.859 283.209 334.605 283.463C334.351 283.717 334.222 284.068 334.219 284.518L333.316 284.425C333.378 283.751 333.61 283.238 334.014 282.887C334.418 282.532 334.96 282.354 335.64 282.354C336.327 282.354 336.87 282.545 337.271 282.926C337.671 283.307 337.871 283.779 337.871 284.342C337.871 284.628 337.813 284.91 337.696 285.187C337.578 285.463 337.383 285.755 337.11 286.061C336.839 286.367 336.389 286.786 335.757 287.32C335.23 287.763 334.891 288.064 334.741 288.224C334.592 288.38 334.468 288.538 334.37 288.697H337.881ZM339.378 286.012C339.378 285.165 339.465 284.485 339.637 283.971C339.813 283.453 340.072 283.054 340.414 282.774C340.759 282.494 341.192 282.354 341.712 282.354C342.096 282.354 342.433 282.433 342.723 282.589C343.013 282.742 343.252 282.965 343.441 283.258C343.63 283.548 343.778 283.902 343.885 284.322C343.993 284.739 344.046 285.302 344.046 286.012C344.046 286.852 343.96 287.53 343.788 288.048C343.615 288.562 343.356 288.961 343.011 289.244C342.669 289.524 342.236 289.664 341.712 289.664C341.022 289.664 340.48 289.417 340.086 288.922C339.614 288.326 339.378 287.356 339.378 286.012ZM340.282 286.012C340.282 287.187 340.418 287.97 340.692 288.36C340.969 288.748 341.309 288.941 341.712 288.941C342.116 288.941 342.455 288.746 342.728 288.355C343.005 287.965 343.143 287.184 343.143 286.012C343.143 284.833 343.005 284.05 342.728 283.663C342.455 283.276 342.113 283.082 341.703 283.082C341.299 283.082 340.977 283.253 340.736 283.595C340.433 284.031 340.282 284.837 340.282 286.012ZM348.805 289.542H347.926V283.941C347.715 284.143 347.437 284.345 347.091 284.547C346.75 284.749 346.442 284.9 346.169 285.001V284.151C346.66 283.92 347.09 283.64 347.458 283.312C347.826 282.983 348.086 282.664 348.239 282.354H348.805V289.542ZM351.743 287.887L352.588 287.809C352.659 288.206 352.796 288.494 352.998 288.673C353.2 288.852 353.459 288.941 353.774 288.941C354.044 288.941 354.28 288.88 354.482 288.756C354.687 288.632 354.855 288.468 354.985 288.263C355.115 288.054 355.224 287.774 355.312 287.423C355.4 287.071 355.444 286.713 355.444 286.349C355.444 286.31 355.443 286.251 355.439 286.173C355.264 286.453 355.023 286.681 354.717 286.856C354.414 287.029 354.085 287.115 353.73 287.115C353.138 287.115 352.637 286.9 352.226 286.471C351.816 286.041 351.611 285.475 351.611 284.771C351.611 284.046 351.824 283.461 352.251 283.019C352.681 282.576 353.218 282.354 353.862 282.354C354.328 282.354 354.752 282.48 355.137 282.73C355.524 282.981 355.817 283.339 356.015 283.805C356.217 284.267 356.318 284.938 356.318 285.816C356.318 286.731 356.219 287.46 356.02 288.004C355.822 288.544 355.526 288.956 355.132 289.239C354.741 289.522 354.282 289.664 353.755 289.664C353.195 289.664 352.737 289.509 352.383 289.2C352.028 288.888 351.815 288.45 351.743 287.887ZM355.342 284.728C355.342 284.223 355.207 283.823 354.936 283.526C354.669 283.23 354.347 283.082 353.97 283.082C353.579 283.082 353.239 283.242 352.949 283.561C352.659 283.88 352.515 284.293 352.515 284.801C352.515 285.257 352.651 285.628 352.925 285.914C353.201 286.197 353.542 286.339 353.945 286.339C354.352 286.339 354.686 286.197 354.946 285.914C355.21 285.628 355.342 285.232 355.342 284.728Z" fill="#ECECEC" fill-opacity="0.5"/>
<path d="M254.67 288.697V289.542H249.938C249.932 289.33 249.966 289.127 250.041 288.932C250.161 288.609 250.354 288.292 250.617 287.979C250.884 287.667 251.268 287.306 251.77 286.896C252.548 286.257 253.073 285.753 253.347 285.382C253.62 285.007 253.757 284.654 253.757 284.322C253.757 283.974 253.632 283.681 253.381 283.443C253.133 283.202 252.81 283.082 252.409 283.082C251.986 283.082 251.647 283.209 251.394 283.463C251.14 283.717 251.011 284.068 251.008 284.518L250.104 284.425C250.166 283.751 250.399 283.238 250.803 282.887C251.206 282.532 251.748 282.354 252.429 282.354C253.116 282.354 253.659 282.545 254.06 282.926C254.46 283.307 254.66 283.779 254.66 284.342C254.66 284.628 254.602 284.91 254.484 285.187C254.367 285.463 254.172 285.755 253.898 286.061C253.628 286.367 253.177 286.786 252.546 287.32C252.019 287.763 251.68 288.064 251.53 288.224C251.381 288.38 251.257 288.538 251.159 288.697H254.67ZM256.167 286.012C256.167 285.165 256.253 284.485 256.426 283.971C256.602 283.453 256.861 283.054 257.202 282.774C257.547 282.494 257.98 282.354 258.501 282.354C258.885 282.354 259.222 282.433 259.512 282.589C259.802 282.742 260.041 282.965 260.23 283.258C260.418 283.548 260.567 283.902 260.674 284.322C260.781 284.739 260.835 285.302 260.835 286.012C260.835 286.852 260.749 287.53 260.576 288.048C260.404 288.562 260.145 288.961 259.8 289.244C259.458 289.524 259.025 289.664 258.501 289.664C257.811 289.664 257.269 289.417 256.875 288.922C256.403 288.326 256.167 287.356 256.167 286.012ZM257.071 286.012C257.071 287.187 257.207 287.97 257.481 288.36C257.757 288.748 258.098 288.941 258.501 288.941C258.905 288.941 259.243 288.746 259.517 288.355C259.793 287.965 259.932 287.184 259.932 286.012C259.932 284.833 259.793 284.05 259.517 283.663C259.243 283.276 258.902 283.082 258.491 283.082C258.088 283.082 257.765 283.253 257.525 283.595C257.222 284.031 257.071 284.837 257.071 286.012ZM265.594 289.542H264.715V283.941C264.504 284.143 264.225 284.345 263.88 284.547C263.538 284.749 263.231 284.9 262.957 285.001V284.151C263.449 283.92 263.879 283.64 264.246 283.312C264.614 282.983 264.875 282.664 265.028 282.354H265.594V289.542ZM269.753 285.66C269.388 285.527 269.118 285.336 268.942 285.089C268.766 284.841 268.678 284.545 268.678 284.2C268.678 283.679 268.865 283.242 269.24 282.887C269.614 282.532 270.112 282.354 270.734 282.354C271.359 282.354 271.862 282.537 272.243 282.901C272.624 283.263 272.814 283.704 272.814 284.225C272.814 284.557 272.726 284.846 272.55 285.094C272.378 285.338 272.114 285.527 271.759 285.66C272.199 285.803 272.532 286.035 272.76 286.354C272.991 286.673 273.107 287.053 273.107 287.496C273.107 288.108 272.891 288.622 272.458 289.039C272.025 289.456 271.455 289.664 270.749 289.664C270.042 289.664 269.473 289.456 269.04 289.039C268.607 288.619 268.39 288.097 268.39 287.472C268.39 287.006 268.507 286.617 268.742 286.305C268.979 285.989 269.316 285.774 269.753 285.66ZM269.577 284.171C269.577 284.509 269.686 284.786 269.904 285.001C270.122 285.216 270.405 285.323 270.754 285.323C271.092 285.323 271.369 285.217 271.584 285.006C271.802 284.791 271.911 284.529 271.911 284.22C271.911 283.897 271.798 283.627 271.574 283.409C271.352 283.188 271.076 283.077 270.744 283.077C270.408 283.077 270.13 283.185 269.909 283.399C269.687 283.614 269.577 283.871 269.577 284.171ZM269.294 287.477C269.294 287.727 269.352 287.97 269.469 288.204C269.59 288.438 269.767 288.621 270.002 288.751C270.236 288.878 270.488 288.941 270.758 288.941C271.178 288.941 271.525 288.806 271.798 288.536C272.072 288.266 272.209 287.923 272.209 287.506C272.209 287.083 272.067 286.733 271.784 286.456C271.504 286.179 271.152 286.041 270.729 286.041C270.316 286.041 269.972 286.178 269.699 286.451C269.429 286.725 269.294 287.066 269.294 287.477Z" fill="#ECECEC" fill-opacity="0.5"/>
<path d="M171.457 288.697V289.542H166.725C166.719 289.33 166.753 289.127 166.828 288.932C166.948 288.609 167.14 288.292 167.404 287.979C167.671 287.667 168.055 287.306 168.556 286.896C169.334 286.257 169.86 285.753 170.133 285.382C170.407 285.007 170.544 284.654 170.544 284.322C170.544 283.974 170.418 283.681 170.168 283.443C169.92 283.202 169.596 283.082 169.196 283.082C168.773 283.082 168.434 283.209 168.18 283.463C167.926 283.717 167.798 284.068 167.795 284.518L166.891 284.425C166.953 283.751 167.186 283.238 167.589 282.887C167.993 282.532 168.535 282.354 169.215 282.354C169.902 282.354 170.446 282.545 170.846 282.926C171.247 283.307 171.447 283.779 171.447 284.342C171.447 284.628 171.388 284.91 171.271 285.187C171.154 285.463 170.959 285.755 170.685 286.061C170.415 286.367 169.964 286.786 169.333 287.32C168.805 287.763 168.467 288.064 168.317 288.224C168.167 288.38 168.044 288.538 167.946 288.697H171.457ZM172.954 286.012C172.954 285.165 173.04 284.485 173.213 283.971C173.389 283.453 173.647 283.054 173.989 282.774C174.334 282.494 174.767 282.354 175.288 282.354C175.672 282.354 176.009 282.433 176.299 282.589C176.588 282.742 176.828 282.965 177.016 283.258C177.205 283.548 177.353 283.902 177.461 284.322C177.568 284.739 177.622 285.302 177.622 286.012C177.622 286.852 177.536 287.53 177.363 288.048C177.191 288.562 176.932 288.961 176.587 289.244C176.245 289.524 175.812 289.664 175.288 289.664C174.598 289.664 174.056 289.417 173.662 288.922C173.19 288.326 172.954 287.356 172.954 286.012ZM173.857 286.012C173.857 287.187 173.994 287.97 174.267 288.36C174.544 288.748 174.884 288.941 175.288 288.941C175.692 288.941 176.03 288.746 176.304 288.355C176.58 287.965 176.719 287.184 176.719 286.012C176.719 284.833 176.58 284.05 176.304 283.663C176.03 283.276 175.688 283.082 175.278 283.082C174.875 283.082 174.552 283.253 174.311 283.595C174.009 284.031 173.857 284.837 173.857 286.012ZM182.381 289.542H181.502V283.941C181.29 284.143 181.012 284.345 180.667 284.547C180.325 284.749 180.018 284.9 179.744 285.001V284.151C180.236 283.92 180.665 283.64 181.033 283.312C181.401 282.983 181.661 282.664 181.814 282.354H182.381V289.542ZM185.245 283.321V282.477H189.879V283.16C189.423 283.645 188.971 284.29 188.522 285.094C188.076 285.898 187.731 286.725 187.487 287.574C187.311 288.173 187.198 288.829 187.15 289.542H186.246C186.256 288.979 186.367 288.299 186.578 287.501C186.79 286.703 187.093 285.935 187.487 285.196C187.884 284.454 188.305 283.829 188.751 283.321H185.245Z" fill="#ECECEC" fill-opacity="0.5"/>
<path d="M88.2454 288.697V289.542H83.5139C83.5074 289.33 83.5416 289.127 83.6165 288.932C83.7369 288.609 83.929 288.292 84.1926 287.979C84.4596 287.667 84.8437 287.306 85.345 286.896C86.123 286.257 86.6487 285.753 86.9221 285.382C87.1956 285.007 87.3323 284.654 87.3323 284.322C87.3323 283.974 87.2069 283.681 86.9563 283.443C86.7089 283.202 86.385 283.082 85.9846 283.082C85.5614 283.082 85.2229 283.209 84.969 283.463C84.7151 283.717 84.5865 284.068 84.5833 284.518L83.6799 284.425C83.7418 283.751 83.9745 283.238 84.3782 282.887C84.7818 282.532 85.3238 282.354 86.0042 282.354C86.691 282.354 87.2346 282.545 87.635 282.926C88.0354 283.307 88.2356 283.779 88.2356 284.342C88.2356 284.628 88.177 284.91 88.0598 285.187C87.9426 285.463 87.7473 285.755 87.4739 286.061C87.2037 286.367 86.7528 286.786 86.1213 287.32C85.594 287.763 85.2555 288.064 85.1057 288.224C84.956 288.38 84.8323 288.538 84.7346 288.697H88.2454ZM89.7426 286.012C89.7426 285.165 89.8289 284.485 90.0014 283.971C90.1772 283.453 90.436 283.054 90.7778 282.774C91.1228 282.494 91.5558 282.354 92.0766 282.354C92.4607 282.354 92.7976 282.433 93.0874 282.589C93.3771 282.742 93.6163 282.965 93.8051 283.258C93.9939 283.548 94.142 283.902 94.2495 284.322C94.3569 284.739 94.4106 285.302 94.4106 286.012C94.4106 286.852 94.3243 287.53 94.1518 288.048C93.9793 288.562 93.7205 288.961 93.3754 289.244C93.0336 289.524 92.6007 289.664 92.0766 289.664C91.3865 289.664 90.8445 289.417 90.4506 288.922C89.9786 288.326 89.7426 287.356 89.7426 286.012ZM90.6459 286.012C90.6459 287.187 90.7827 287.97 91.0561 288.36C91.3328 288.748 91.673 288.941 92.0766 288.941C92.4803 288.941 92.8188 288.746 93.0922 288.355C93.3689 287.965 93.5073 287.184 93.5073 286.012C93.5073 284.833 93.3689 284.05 93.0922 283.663C92.8188 283.276 92.477 283.082 92.0668 283.082C91.6632 283.082 91.3409 283.253 91.1 283.595C90.7973 284.031 90.6459 284.837 90.6459 286.012ZM99.1696 289.542H98.2907V283.941C98.0791 284.143 97.8008 284.345 97.4557 284.547C97.1139 284.749 96.8063 284.9 96.5329 285.001V284.151C97.0244 283.92 97.4541 283.64 97.8219 283.312C98.1898 282.983 98.4502 282.664 98.6032 282.354H99.1696V289.542ZM106.536 284.137L105.662 284.205C105.584 283.86 105.473 283.609 105.33 283.453C105.092 283.202 104.799 283.077 104.451 283.077C104.171 283.077 103.925 283.155 103.714 283.312C103.437 283.513 103.219 283.808 103.059 284.195C102.9 284.583 102.817 285.134 102.81 285.851C103.022 285.528 103.281 285.289 103.587 285.133C103.893 284.977 104.213 284.898 104.549 284.898C105.135 284.898 105.633 285.115 106.043 285.548C106.456 285.978 106.663 286.534 106.663 287.218C106.663 287.667 106.565 288.085 106.37 288.473C106.178 288.857 105.913 289.151 105.574 289.356C105.236 289.562 104.851 289.664 104.422 289.664C103.689 289.664 103.092 289.396 102.63 288.858C102.167 288.318 101.936 287.429 101.936 286.192C101.936 284.809 102.192 283.803 102.703 283.175C103.149 282.628 103.75 282.354 104.505 282.354C105.068 282.354 105.528 282.512 105.887 282.828C106.248 283.144 106.464 283.58 106.536 284.137ZM102.947 287.223C102.947 287.525 103.011 287.815 103.138 288.092C103.268 288.368 103.448 288.58 103.68 288.727C103.911 288.87 104.153 288.941 104.407 288.941C104.778 288.941 105.097 288.792 105.364 288.492C105.631 288.193 105.765 287.786 105.765 287.271C105.765 286.777 105.633 286.388 105.369 286.104C105.105 285.818 104.773 285.675 104.373 285.675C103.976 285.675 103.639 285.818 103.362 286.104C103.085 286.388 102.947 286.76 102.947 287.223Z" fill="#ECECEC" fill-opacity="0.5"/>
<path d="M5.03418 288.697V289.542H0.302734C0.296224 289.33 0.330404 289.127 0.405273 288.932C0.525716 288.609 0.717773 288.292 0.981445 287.979C1.24837 287.667 1.63249 287.306 2.13379 286.896C2.91178 286.257 3.4375 285.753 3.71094 285.382C3.98438 285.007 4.12109 284.654 4.12109 284.322C4.12109 283.974 3.99577 283.681 3.74512 283.443C3.49772 283.202 3.17383 283.082 2.77344 283.082C2.35026 283.082 2.01172 283.209 1.75781 283.463C1.50391 283.717 1.37533 284.068 1.37207 284.518L0.46875 284.425C0.530599 283.751 0.763346 283.238 1.16699 282.887C1.57064 282.532 2.11263 282.354 2.79297 282.354C3.47982 282.354 4.02344 282.545 4.42383 282.926C4.82422 283.307 5.02441 283.779 5.02441 284.342C5.02441 284.628 4.96582 284.91 4.84863 285.187C4.73145 285.463 4.53613 285.755 4.2627 286.061C3.99251 286.367 3.54167 286.786 2.91016 287.32C2.38281 287.763 2.04427 288.064 1.89453 288.224C1.74479 288.38 1.62109 288.538 1.52344 288.697H5.03418ZM6.53145 286.012C6.53145 285.165 6.61771 284.485 6.79023 283.971C6.96602 283.453 7.2248 283.054 7.5666 282.774C7.91165 282.494 8.3446 282.354 8.86543 282.354C9.24954 282.354 9.58646 282.433 9.87617 282.589C10.1659 282.742 10.4051 282.965 10.5939 283.258C10.7827 283.548 10.9309 283.902 11.0383 284.322C11.1457 284.739 11.1994 285.302 11.1994 286.012C11.1994 286.852 11.1132 287.53 10.9406 288.048C10.7681 288.562 10.5093 288.961 10.1643 289.244C9.82246 289.524 9.38952 289.664 8.86543 289.664C8.17533 289.664 7.63333 289.417 7.23945 288.922C6.76745 288.326 6.53145 287.356 6.53145 286.012ZM7.43477 286.012C7.43477 287.187 7.57148 287.97 7.84492 288.36C8.12161 288.748 8.46178 288.941 8.86543 288.941C9.26908 288.941 9.60762 288.746 9.88105 288.355C10.1577 287.965 10.2961 287.184 10.2961 286.012C10.2961 284.833 10.1577 284.05 9.88105 283.663C9.60762 283.276 9.26582 283.082 8.85566 283.082C8.45202 283.082 8.12975 283.253 7.88887 283.595C7.58613 284.031 7.43477 284.837 7.43477 286.012ZM15.9584 289.542H15.0795V283.941C14.8679 284.143 14.5896 284.345 14.2445 284.547C13.9027 284.749 13.5951 284.9 13.3217 285.001V284.151C13.8132 283.92 14.2429 283.64 14.6107 283.312C14.9786 282.983 15.239 282.664 15.392 282.354H15.9584V289.542ZM18.7643 287.667L19.6871 287.589C19.7555 288.038 19.9133 288.377 20.1607 288.604C20.4114 288.829 20.7125 288.941 21.0641 288.941C21.4872 288.941 21.8453 288.782 22.1383 288.463C22.4312 288.144 22.5777 287.721 22.5777 287.193C22.5777 286.692 22.4361 286.297 22.1529 286.007C21.873 285.717 21.5051 285.572 21.0494 285.572C20.7662 285.572 20.5107 285.637 20.2828 285.768C20.0549 285.895 19.8759 286.061 19.7457 286.266L18.9205 286.158L19.6139 282.481H23.1734V283.321H20.317L19.9312 285.245C20.3609 284.946 20.8118 284.796 21.2838 284.796C21.9088 284.796 22.4361 285.012 22.8658 285.445C23.2955 285.878 23.5104 286.435 23.5104 287.115C23.5104 287.763 23.3215 288.323 22.9439 288.795C22.485 289.374 21.8583 289.664 21.0641 289.664C20.413 289.664 19.8808 289.482 19.4674 289.117C19.0572 288.753 18.8229 288.269 18.7643 287.667Z" fill="#ECECEC" fill-opacity="0.5"/>
<path d="M452.705 266.858C452.34 266.725 452.07 266.535 451.894 266.287C451.719 266.04 451.631 265.743 451.631 265.398C451.631 264.878 451.818 264.44 452.192 264.085C452.566 263.73 453.065 263.553 453.686 263.553C454.311 263.553 454.814 263.735 455.195 264.1C455.576 264.461 455.766 264.902 455.766 265.423C455.766 265.755 455.678 266.045 455.503 266.292C455.33 266.536 455.066 266.725 454.712 266.858C455.151 267.002 455.485 267.233 455.713 267.552C455.944 267.871 456.059 268.252 456.059 268.694C456.059 269.306 455.843 269.821 455.41 270.237C454.977 270.654 454.407 270.862 453.701 270.862C452.995 270.862 452.425 270.654 451.992 270.237C451.559 269.817 451.343 269.295 451.343 268.67C451.343 268.204 451.46 267.815 451.694 267.503C451.932 267.187 452.269 266.972 452.705 266.858ZM452.529 265.369C452.529 265.708 452.638 265.984 452.856 266.199C453.074 266.414 453.358 266.521 453.706 266.521C454.044 266.521 454.321 266.416 454.536 266.204C454.754 265.989 454.863 265.727 454.863 265.418C454.863 265.096 454.751 264.826 454.526 264.607C454.305 264.386 454.028 264.275 453.696 264.275C453.361 264.275 453.082 264.383 452.861 264.598C452.64 264.812 452.529 265.07 452.529 265.369ZM452.246 268.675C452.246 268.925 452.304 269.168 452.422 269.402C452.542 269.637 452.719 269.819 452.954 269.949C453.188 270.076 453.441 270.14 453.711 270.14C454.131 270.14 454.477 270.005 454.751 269.734C455.024 269.464 455.161 269.121 455.161 268.704C455.161 268.281 455.019 267.931 454.736 267.654C454.456 267.378 454.105 267.239 453.681 267.239C453.268 267.239 452.925 267.376 452.651 267.649C452.381 267.923 452.246 268.265 452.246 268.675ZM457.469 267.21C457.469 266.364 457.555 265.683 457.727 265.169C457.903 264.651 458.162 264.253 458.504 263.973C458.849 263.693 459.282 263.553 459.803 263.553C460.187 263.553 460.524 263.631 460.813 263.787C461.103 263.94 461.342 264.163 461.531 264.456C461.72 264.746 461.868 265.101 461.976 265.521C462.083 265.937 462.137 266.5 462.137 267.21C462.137 268.05 462.05 268.729 461.878 269.246C461.705 269.76 461.447 270.159 461.102 270.442C460.76 270.722 460.327 270.862 459.803 270.862C459.113 270.862 458.571 270.615 458.177 270.12C457.705 269.524 457.469 268.554 457.469 267.21ZM458.372 267.21C458.372 268.385 458.509 269.168 458.782 269.559C459.059 269.946 459.399 270.14 459.803 270.14C460.206 270.14 460.545 269.944 460.818 269.554C461.095 269.163 461.233 268.382 461.233 267.21C461.233 266.032 461.095 265.249 460.818 264.861C460.545 264.474 460.203 264.28 459.793 264.28C459.389 264.28 459.067 264.451 458.826 264.793C458.523 265.229 458.372 266.035 458.372 267.21ZM466.918 267.21C466.918 266.364 467.005 265.683 467.177 265.169C467.353 264.651 467.612 264.253 467.953 263.973C468.299 263.693 468.731 263.553 469.252 263.553C469.636 263.553 469.973 263.631 470.263 263.787C470.553 263.94 470.792 264.163 470.981 264.456C471.17 264.746 471.318 265.101 471.425 265.521C471.533 265.937 471.586 266.5 471.586 267.21C471.586 268.05 471.5 268.729 471.327 269.246C471.155 269.76 470.896 270.159 470.551 270.442C470.209 270.722 469.776 270.862 469.252 270.862C468.562 270.862 468.02 270.615 467.626 270.12C467.154 269.524 466.918 268.554 466.918 267.21ZM467.822 267.21C467.822 268.385 467.958 269.168 468.232 269.559C468.508 269.946 468.849 270.14 469.252 270.14C469.656 270.14 469.994 269.944 470.268 269.554C470.545 269.163 470.683 268.382 470.683 267.21C470.683 266.032 470.545 265.249 470.268 264.861C469.994 264.474 469.653 264.28 469.243 264.28C468.839 264.28 468.517 264.451 468.276 264.793C467.973 265.229 467.822 266.035 467.822 267.21ZM473.035 267.21C473.035 266.364 473.121 265.683 473.294 265.169C473.469 264.651 473.728 264.253 474.07 263.973C474.415 263.693 474.848 263.553 475.369 263.553C475.753 263.553 476.09 263.631 476.379 263.787C476.669 263.94 476.908 264.163 477.097 264.456C477.286 264.746 477.434 265.101 477.542 265.521C477.649 265.937 477.703 266.5 477.703 267.21C477.703 268.05 477.616 268.729 477.444 269.246C477.271 269.76 477.013 270.159 476.668 270.442C476.326 270.722 475.893 270.862 475.369 270.862C474.679 270.862 474.137 270.615 473.743 270.12C473.271 269.524 473.035 268.554 473.035 267.21ZM473.938 267.21C473.938 268.385 474.075 269.168 474.348 269.559C474.625 269.946 474.965 270.14 475.369 270.14C475.772 270.14 476.111 269.944 476.384 269.554C476.661 269.163 476.799 268.382 476.799 267.21C476.799 266.032 476.661 265.249 476.384 264.861C476.111 264.474 475.769 264.28 475.359 264.28C474.955 264.28 474.633 264.451 474.392 264.793C474.089 265.229 473.938 266.035 473.938 267.21ZM479.151 267.21C479.151 266.364 479.237 265.683 479.41 265.169C479.586 264.651 479.844 264.253 480.186 263.973C480.531 263.693 480.964 263.553 481.485 263.553C481.869 263.553 482.206 263.631 482.496 263.787C482.786 263.94 483.025 264.163 483.214 264.456C483.402 264.746 483.551 265.101 483.658 265.521C483.765 265.937 483.819 266.5 483.819 267.21C483.819 268.05 483.733 268.729 483.56 269.246C483.388 269.76 483.129 270.159 482.784 270.442C482.442 270.722 482.009 270.862 481.485 270.862C480.795 270.862 480.253 270.615 479.859 270.12C479.387 269.524 479.151 268.554 479.151 267.21ZM480.054 267.21C480.054 268.385 480.191 269.168 480.465 269.559C480.741 269.946 481.081 270.14 481.485 270.14C481.889 270.14 482.227 269.944 482.501 269.554C482.777 269.163 482.916 268.382 482.916 267.21C482.916 266.032 482.777 265.249 482.501 264.861C482.227 264.474 481.885 264.28 481.475 264.28C481.072 264.28 480.749 264.451 480.509 264.793C480.206 265.229 480.054 266.035 480.054 267.21Z" fill="#ECECEC" fill-opacity="0.5"/>
</g>
</svg>
