<svg width="352" height="352" viewBox="0 0 352 352" fill="none" xmlns="http://www.w3.org/2000/svg">
<circle cx="176" cy="176" r="176" fill="#6C33A3"/>
<g clip-path="url(#clip0_1126_2283)">
<path d="M237.682 176.017C240.67 170.061 243.022 164.073 244.655 158.173C249.774 139.686 247.295 124.206 237.674 114.585C228.053 104.965 212.573 102.485 194.086 107.604C188.186 109.237 182.198 111.59 176.242 114.577C168.832 110.857 161.411 108.136 154.26 106.568C137.652 102.928 123.654 105.775 114.845 114.585C109.191 120.239 105.911 128.184 105.363 137.56C104.87 145.996 106.58 155.676 110.306 165.647C107.246 168.066 105.278 171.806 105.278 176C105.278 180.193 107.246 183.933 110.306 186.352C106.58 196.324 104.87 206.005 105.363 214.439C105.912 223.816 109.191 231.76 114.845 237.414C121.159 243.729 130.018 246.985 140.718 246.985C142.866 246.985 145.089 246.854 147.382 246.589C156.557 245.531 166.36 242.405 176.256 237.429C182.208 240.414 188.192 242.764 194.086 244.395C200.377 246.137 206.321 247 211.804 247C222.431 247 231.327 243.761 237.674 237.414C246.484 228.605 249.331 214.607 245.691 197.998C244.123 190.848 241.402 183.427 237.682 176.017ZM195.198 111.62C212.175 106.919 226.214 109.019 234.727 117.532C243.24 126.045 245.34 140.084 240.639 157.061C239.323 161.817 237.514 166.638 235.265 171.455C231.235 164.228 226.279 157.067 220.536 150.236C222.295 147.993 223.348 145.171 223.348 142.106C223.348 139.143 222.389 136.344 220.574 134.01L217.285 136.568C218.526 138.164 219.182 140.079 219.182 142.106C219.182 147.086 215.131 151.135 210.153 151.135C205.175 151.135 201.124 147.086 201.124 142.106C201.124 137.127 205.175 133.077 210.153 133.077C211.778 133.077 213.371 133.513 214.759 134.339L216.889 130.757C214.857 129.549 212.527 128.91 210.153 128.91C207.088 128.91 204.266 129.964 202.024 131.723C195.192 125.98 188.031 121.024 180.804 116.993C185.621 114.745 190.442 112.936 195.198 111.62ZM117.792 117.532C129.058 106.266 149.715 106.686 171.697 116.981C160.966 122.965 150.441 130.979 140.839 140.58C133.719 147.7 127.453 155.347 122.189 163.331C121.003 162.986 119.755 162.803 118.474 162.803C116.898 162.803 115.387 163.083 113.984 163.591C106.764 143.913 108.116 127.207 117.792 117.532ZM140.826 242.803C131.4 242.803 123.386 240.062 117.791 234.467C108.116 224.793 106.763 208.087 113.984 188.409C115.387 188.918 116.898 189.196 118.474 189.196C119.762 189.196 121.006 189.007 122.185 188.661C127.449 196.648 133.717 204.297 140.839 211.42C150.438 221.017 160.96 229.029 171.687 235.013C160.668 240.17 150.068 242.804 140.826 242.803ZM176.247 232.746C164.992 226.834 153.878 218.563 143.786 208.473C137.005 201.691 131.024 194.424 125.981 186.844C129.415 184.46 131.67 180.489 131.67 176.001C131.67 175.61 131.653 175.214 131.619 174.825L127.467 175.193C127.491 175.459 127.503 175.73 127.503 176C127.503 180.979 123.452 185.029 118.474 185.029C113.496 185.029 109.445 180.979 109.445 176C109.445 171.021 113.496 166.971 118.474 166.971C121.913 166.971 125.008 168.882 126.551 171.958L130.275 170.09C129.257 168.059 127.773 166.376 125.99 165.14C131.032 157.567 137.01 150.303 143.786 143.527C153.88 133.433 164.999 125.16 176.257 119.248C183.92 123.282 191.672 128.482 199.183 134.779C197.777 136.877 196.956 139.397 196.956 142.106C196.956 149.382 202.877 155.302 210.153 155.302C212.862 155.302 215.382 154.481 217.48 153.074C223.777 160.585 228.976 168.339 233.01 176.001C227.098 187.259 218.825 198.378 208.732 208.473C207.622 209.582 206.481 210.685 205.328 211.765C203.028 209.819 200.059 208.643 196.817 208.643C193.854 208.643 191.055 209.603 188.721 211.417L191.28 214.707C192.875 213.466 194.79 212.811 196.817 212.81C201.796 212.81 205.846 216.86 205.846 221.838C205.846 226.818 201.796 230.867 196.817 230.867C191.839 230.867 187.789 226.818 187.789 221.838C187.789 220.213 188.224 218.621 189.05 217.233L185.468 215.102C184.26 217.134 183.621 219.464 183.621 221.838C183.621 223.929 184.112 225.905 184.98 227.664C182.061 229.527 179.144 231.222 176.247 232.746ZM234.727 234.467C226.214 242.982 212.175 245.08 195.198 240.38C190.445 239.064 185.628 237.258 180.815 235.011C183.01 233.785 185.206 232.468 187.395 231.067C189.793 233.513 193.13 235.035 196.817 235.035C204.093 235.035 210.014 229.115 210.014 221.84C210.014 219.305 209.295 216.938 208.052 214.925C209.281 213.776 210.496 212.602 211.678 211.42C221.28 201.817 229.293 191.292 235.278 180.561C245.573 202.544 245.993 223.201 234.727 234.467Z" fill="#ECECEC"/>
<path d="M210.43 197.531H206.125V187.032C206.125 182.389 203.003 178.265 198.534 177.004L196.977 176.565L195.846 180.576L197.403 181.016C200.084 181.772 201.957 184.245 201.957 187.032V197.531H194.456V191.836H190.289V197.531H171.536V201.698H210.43V197.531Z" fill="#ECECEC"/>
<path d="M183.15 176.996L191.835 179.446L192.967 175.435L184.455 173.034V167.5C188.308 164.872 190.844 160.448 190.844 155.442V149.33C190.844 141.288 184.302 134.744 176.259 134.744C168.217 134.744 161.673 141.288 161.673 149.33V155.442C161.673 160.448 164.21 164.872 168.063 167.5V173.034L153.984 177.004C149.515 178.265 146.393 182.389 146.393 187.032V197.531H142.088V201.698H167.369V197.531H162.229V191.836H158.062V197.531H150.561V187.032C150.561 184.246 152.434 181.772 155.115 181.016L169.368 176.997C171.123 178.917 173.601 180.029 176.259 180.029C178.916 180.029 181.396 178.916 183.15 176.996ZM176.259 138.912C182.003 138.912 186.677 143.586 186.677 149.331V151.651L182.297 145.857H166.438C167.871 141.815 171.731 138.912 176.259 138.912ZM165.841 155.442V150.025H180.223L186.331 158.103C185.151 162.563 181.083 165.86 176.259 165.86C170.515 165.86 165.841 161.186 165.841 155.442ZM172.231 173.938V169.457C173.51 169.826 174.861 170.028 176.259 170.028C177.656 170.028 179.006 169.826 180.287 169.457V173.938C179.307 175.151 177.841 175.861 176.259 175.861C174.677 175.861 173.209 175.151 172.231 173.938Z" fill="#ECECEC"/>
<path d="M187.264 186.815L181.394 185.16L182.526 181.149L188.395 182.805L187.264 186.815Z" fill="#ECECEC"/>
<path d="M196.412 185.06L195.28 189.07L191.269 187.939L192.401 183.929L196.412 185.06Z" fill="#ECECEC"/>
<path d="M208.069 140.023H212.236V144.191H208.069V140.023Z" fill="#ECECEC"/>
<path d="M194.734 219.757H198.9V223.924H194.734V219.757Z" fill="#ECECEC"/>
<path d="M116.39 173.917H120.557V178.084H116.39V173.917Z" fill="#ECECEC"/>
</g>
<defs>
<clipPath id="clip0_1126_2283">
<rect width="142" height="142" fill="white" transform="translate(105 105)"/>
</clipPath>
</defs>
</svg>
