<svg width="166" height="167" viewBox="0 0 166 167" fill="none" xmlns="http://www.w3.org/2000/svg">
<g clip-path="url(#clip0_1091_5177)">
<path d="M138.656 61.9203L82.9857 13.5352L26.765 62.3526L24.9882 67.064V164.207H140.983V67.064L138.656 61.9203Z" fill="#90D8F9"/>
<path d="M38.1646 80.3454C38.1646 73.9897 40.979 68.1578 45.5219 64.2133L93.4308 22.6132L82.986 13.5352L26.765 62.3526L24.9882 67.0643V164.207H38.1646V80.3454Z" fill="#75CEF9"/>
<path d="M98.0769 114.391C97.588 114.202 97.1227 114.022 96.685 113.852C93.8156 118.256 88.8553 121.178 83.2189 121.178C76.961 121.178 72.0416 118.144 69.247 113.806L50.1626 121.259C46.3943 122.81 41.3489 127.689 41.3489 134.93V145.253H56.1512V164.207H88.913H99.6309L104.359 160.723V118.359L98.0769 114.391Z" fill="#DD636E"/>
<path d="M48.9122 130.884C48.9122 126.335 50.9697 122.683 53.1321 120.1L50.1625 121.259C46.3943 122.81 41.3489 127.689 41.3489 134.929V145.253H48.9122C48.9122 139.336 48.9122 133.946 48.9122 130.884Z" fill="#DA4A54"/>
<path d="M139.925 11.0781H126.073L124.689 12.1619V37.7622L125.344 39.8339L139.844 52.7942L140.983 52.003V12.1619L139.925 11.0781Z" fill="#FFE07D"/>
<path d="M132.836 11.0781H126.073L124.689 12.1619V37.7622L125.344 39.8339L132.836 46.5302V11.0781Z" fill="#FFC250"/>
<path d="M144.057 3.17578H121.616C120.536 3.17578 119.66 4.05125 119.66 5.1315V10.2077C119.66 11.2877 120.536 12.1635 121.616 12.1635H144.057C145.137 12.1635 146.013 11.288 146.013 10.2077V5.13117C146.013 4.05125 145.138 3.17578 144.057 3.17578Z" fill="#FFF0AF"/>
<path d="M131.325 10.2058V5.12955C131.325 4.04962 132.2 3.17383 133.28 3.17383H121.616C120.536 3.17383 119.66 4.0493 119.66 5.12955V10.2058C119.66 11.2857 120.536 12.1615 121.616 12.1615H133.28C132.2 12.1615 131.325 11.2857 131.325 10.2058Z" fill="#FFE07D"/>
<path d="M154.497 63.8146L86.7176 4.57647C84.5804 2.70888 81.3918 2.70888 79.2547 4.57647L11.475 63.8146C9.11717 65.8753 8.8761 69.4576 10.9371 71.8154C12.9981 74.1735 16.5804 74.4139 18.9379 72.3536L82.0891 17.1603C82.6027 16.7112 83.3693 16.7112 83.8831 17.1603L147.034 72.3532C149.393 74.4136 152.974 74.1735 155.035 71.8151C157.096 69.4576 156.855 65.8753 154.497 63.8146Z" fill="#DD636E"/>
<path d="M16.3351 67.0528L84.1145 7.8146C85.4799 6.62128 87.2742 6.19424 88.95 6.52602L86.7173 4.57452C84.5801 2.70693 81.3912 2.70693 79.2544 4.57452L11.475 63.8127C9.11717 65.8734 8.8761 69.4556 10.9371 71.8134C11.9953 73.0239 13.4543 73.6723 14.9428 73.7416C13.8869 71.5079 14.3823 68.7597 16.3351 67.0528Z" fill="#DA4A54"/>
<path d="M41.3489 144.928H56.4752V164.205H41.3489V144.928Z" fill="#FFCEBE"/>
<path d="M48.9122 144.928H41.3489V164.205H48.9122C48.9122 158.733 48.9122 151.484 48.9122 144.928Z" fill="#FFB1A0"/>
<path d="M91.9975 110.924L91.9955 105.111C89.432 106.649 86.4346 107.536 83.2334 107.536C79.701 107.536 76.5714 106.624 73.9654 105.081V110.914C73.9654 111.586 73.6427 111.981 73.2711 112.233L69.0813 113.87C71.8451 118.346 76.8368 121.502 83.2188 121.502C88.966 121.502 94.0157 118.467 96.857 113.918C94.7778 113.113 93.3052 112.543 93.0388 112.44C92.4141 112.198 91.9991 111.597 91.9975 110.924Z" fill="#FFCEBE"/>
<path d="M82.9861 107.533C79.5552 107.491 76.5102 106.588 73.9654 105.081V110.914C73.9654 111.586 73.6427 111.981 73.2711 112.233L69.0813 113.87C71.8111 118.292 76.7159 121.422 82.9865 121.498V107.533H82.9861Z" fill="#FFB1A0"/>
<path d="M146.117 111.819H102.963C99.6873 111.819 97.0314 114.475 97.0314 117.751V148.877C97.0314 152.153 99.6873 154.808 102.963 154.808L103.899 155.863H145.164L146.117 154.808C149.393 154.808 152.049 152.153 152.049 148.877V117.751C152.049 114.475 149.393 111.819 146.117 111.819Z" fill="#D3EFFB"/>
<path d="M113.475 148.877V117.751C113.475 114.475 116.131 111.819 119.407 111.819H102.963C99.6869 111.819 97.031 114.475 97.031 117.751V148.877C97.031 152.153 99.6869 154.808 102.963 154.808L103.898 155.863H120.342L119.407 154.808C116.131 154.809 113.475 152.153 113.475 148.877Z" fill="#B1E4F9"/>
<path d="M154.025 154.81H95.0549C93.7236 154.81 92.6443 156.168 92.6443 157.844C92.6443 162.7 95.7726 166.637 99.6312 166.637H149.449C153.308 166.637 156.436 162.7 156.436 157.844C156.436 156.168 155.357 154.81 154.025 154.81Z" fill="#E4F6FF"/>
<path d="M109.088 157.844C109.088 156.168 110.167 154.81 111.498 154.81H95.0545C93.7232 154.81 92.6439 156.168 92.6439 157.844C92.6439 162.7 95.7722 166.637 99.6308 166.637H116.075C112.216 166.637 109.088 162.7 109.088 157.844Z" fill="#D3EFFB"/>
<path d="M94.6401 74.0787C94.6401 73.7644 94.2196 73.6565 94.0715 73.9335C92.1608 77.5073 88.3949 79.94 84.059 79.94H65.6592V91.1053C65.6592 100.032 72.6536 108.185 83.2331 108.185C92.6507 108.185 100.313 100.523 100.313 91.1053V79.9303C97.1765 79.8292 94.6401 77.2387 94.6401 74.0787Z" fill="#FFDECF"/>
<path d="M76.1042 91.1058V80.408H76.0336V79.9404H65.6592V91.1058C65.6592 100.032 72.6536 108.185 83.2331 108.185C84.9938 108.185 86.6929 107.917 88.2925 107.42C80.7914 105.196 76.1042 98.4115 76.1042 91.1058Z" fill="#FFCEBE"/>
<path d="M98.2457 59.4324C96.7102 59.5504 95.3011 58.5848 95.0056 57.0737C94.5079 54.5282 93.2475 52.002 88.3246 52.002H71.2444C64.9758 52.002 59.8944 57.0837 59.8944 63.352V75.8085C59.8944 78.4479 62.0342 80.5876 64.6735 80.5876H84.0587C88.3945 80.5876 92.1602 78.1553 94.0712 74.5812C94.2192 74.3041 94.6398 74.4123 94.6398 74.7263C94.6398 77.9499 97.2772 80.5873 100.501 80.5873C102.191 80.5873 103.573 79.2048 103.573 77.5151V64.5161C103.573 61.4539 100.901 59.228 98.2457 59.4324Z" fill="#B06C6C"/>
<path d="M69.5068 75.8088V63.3523C69.5068 57.0837 74.5885 52.002 80.8571 52.002H71.2448C64.9762 52.002 59.8944 57.0837 59.8944 63.3523V75.8088C59.8944 78.4482 62.0342 80.5879 64.6735 80.5879H74.2859C71.6465 80.5879 69.5068 78.4482 69.5068 75.8088Z" fill="#9D5E5E"/>
<path d="M20.5513 74.0739L22.5725 72.3074V161.669H18.0364C16.694 161.669 15.6063 162.757 15.6063 164.099C15.6063 165.441 16.694 166.529 18.0364 166.529H117.148C118.491 166.529 119.578 165.441 119.578 164.099C119.578 162.757 118.491 161.669 117.148 161.669C113.522 161.669 103.726 161.669 99.6451 161.669C97.1398 161.669 95.0986 159.636 95.0882 157.131C154.426 157.131 153.215 157.112 154.02 157.112C154.02 159.625 151.976 161.669 149.464 161.669H128.489C127.147 161.669 126.059 162.757 126.059 164.099C126.059 165.441 127.147 166.529 128.489 166.529H149.464C154.656 166.529 158.88 162.304 158.88 157.112C158.88 154.646 157.018 152.271 153.722 152.271C154.216 151.205 154.493 150.019 154.493 148.769V117.644C154.493 113.033 150.742 109.282 146.131 109.282H143.428V96.3528C143.428 95.0107 142.34 93.9227 140.998 93.9227C139.655 93.9227 138.568 95.0107 138.568 96.3528V109.282H102.977C100.84 109.282 98.8878 110.089 97.4081 111.413L94.4415 110.264L94.4408 106.963C99.4649 103.43 102.757 97.5931 102.757 90.9982V82.4285C104.676 81.5679 106.017 79.6436 106.017 77.4086V64.4097C106.017 62.2917 105.157 60.3288 103.596 58.8831C102.072 57.472 100.062 56.7508 98.0736 56.9028C97.7833 56.9248 97.4619 56.7942 97.4049 56.5003C96.4918 51.832 93.4416 49.4651 88.3391 49.4651H71.259C63.6607 49.4651 57.4789 55.6469 57.4789 63.2452V75.7017C57.4789 79.1822 59.9582 82.0944 63.2437 82.7655V90.9982C63.2437 97.0419 66.2177 103.214 71.5496 106.954V110.195L49.2925 118.888C49.2789 118.893 49.2653 118.899 49.2517 118.904C44.282 120.95 38.933 126.803 38.933 134.822V161.669H27.4326V68.0597L83.0001 19.4947L138.568 68.0597V85.0121C138.568 86.3542 139.655 87.4422 140.998 87.4422C142.34 87.4422 143.428 86.3542 143.428 85.0121V72.3074L145.449 74.0742C148.813 77.013 153.94 76.6683 156.878 73.3054C159.825 69.935 159.482 64.8225 156.11 61.876L143.427 50.7916V14.4842H144.071C146.489 14.4842 148.457 12.5168 148.457 10.0984V5.0225C148.457 2.6041 146.49 0.636719 144.072 0.636719H121.63C119.212 0.636719 117.244 2.6041 117.244 5.0225V10.0987C117.244 12.5168 119.212 14.4845 121.63 14.4845H122.273V32.3037L88.3307 2.6378C85.2918 -0.0177787 80.7084 -0.0181025 77.6695 2.6378L9.88981 61.876C6.51883 64.8219 6.17441 69.9341 9.12159 73.3057C12.0626 76.6709 17.1904 77.0114 20.5513 74.0739ZM99.4753 117.644C99.4753 115.732 101.032 114.142 102.977 114.142H146.132C148.062 114.142 149.633 115.713 149.633 117.644V148.769C149.633 150.7 148.062 152.271 146.132 152.271H102.977C101.046 152.271 99.475 150.7 99.475 148.769V117.644H99.4753ZM64.6878 78.0508C63.3924 78.0508 62.3387 76.9971 62.3387 75.7017V63.2452C62.3387 58.3268 66.3402 54.3253 71.2587 54.3253H88.3388C91.7554 54.3253 92.2904 55.6725 92.6351 57.4332C93.1581 60.1079 95.6565 61.9631 98.4465 61.7486C99.0764 61.6981 99.7675 61.9618 100.294 62.4491C100.616 62.7479 101.157 63.3998 101.157 64.41V77.409C101.157 78.8349 97.3958 77.8558 97.1013 74.9591C97.0637 74.5771 97.1437 74.0295 96.7504 73.3093C95.7103 71.4041 92.9617 71.4219 91.9421 73.329C90.38 76.2503 87.3599 78.0511 84.0729 78.0511C80.7275 78.0508 66.7724 78.0508 64.6878 78.0508ZM68.1035 90.9982V82.9109H84.0729C87.5945 82.9109 91.0034 81.554 93.5589 79.1272C94.5737 80.6879 96.0991 81.8871 97.8967 82.4868V90.9982C97.8967 99.1091 91.2843 105.648 83.247 105.648C74.199 105.648 68.1035 98.6208 68.1035 90.9982ZM92.1744 114.599C92.2583 114.631 92.86 114.864 92.9439 114.896C87.2679 120.683 78.0285 119.992 73.0025 114.845L74.1692 114.39C75.0547 114.044 76.4094 112.823 76.4094 110.807V109.41C80.373 110.754 85.1755 110.964 89.5804 109.449L89.581 110.812V110.824C89.5859 112.51 90.6052 113.992 92.1744 114.599ZM43.7928 134.822C43.7928 128.661 48.1445 124.625 51.082 123.407L68.1984 116.722C74.4845 124.799 86.6018 126.195 94.6152 119.913V148.77C94.6152 149.979 94.8867 151.195 95.384 152.271C92.0762 152.271 90.2281 154.667 90.2281 157.112C90.2281 158.749 90.6733 160.362 91.4058 161.669H58.9191C58.9191 159.026 58.9191 137.731 58.9191 134.729C58.9191 133.387 57.8314 132.299 56.4891 132.299C55.1467 132.299 54.059 133.387 54.059 134.729V142.391H43.7928V134.822ZM43.7928 147.251H54.059V161.669H43.7928V147.251ZM122.104 9.62407V5.49685H143.597V9.62407C141.04 9.62407 124.58 9.62407 122.104 9.62407ZM138.568 14.4842V46.5439L127.134 36.5511V14.4842H138.568ZM13.0881 65.5353L80.8675 6.29747C82.0831 5.23505 83.9164 5.23505 85.1321 6.29747C88.1518 8.93652 149.969 62.9633 152.911 65.5357C154.26 66.7147 154.397 68.7589 153.219 70.1074C152.043 71.452 149.992 71.5907 148.647 70.4149C145.988 68.0911 88.1625 17.5526 85.4962 15.222C84.0748 13.9794 81.9279 13.9765 80.5039 15.222L17.353 70.4146C16.0077 71.5907 13.9568 71.452 12.7809 70.1071C11.6045 68.7605 11.7373 66.7163 13.0881 65.5353Z" fill="black"/>
<path d="M122.818 135.637H126.29C127.632 135.637 128.72 134.548 128.72 133.206C128.72 131.864 127.632 130.776 126.29 130.776H122.818C121.476 130.776 120.388 131.864 120.388 133.206C120.388 134.548 121.476 135.637 122.818 135.637Z" fill="black"/>
</g>
<defs>
<clipPath id="clip0_1091_5177">
<rect width="166" height="166" fill="white" transform="translate(0 0.636719)"/>
</clipPath>
</defs>
</svg>
