<svg width="166" height="167" viewBox="0 0 166 167" fill="none" xmlns="http://www.w3.org/2000/svg">
<g clip-path="url(#clip0_1091_5097)">
<path d="M121.906 42.1367H119.051C112.117 42.1367 108.647 33.7563 113.549 28.8541L115.567 26.8362C117.593 24.8105 117.593 21.5268 115.567 19.5011L108.232 12.1659C107.218 11.1518 105.892 10.646 104.564 10.646H94.1894C92.8614 10.646 91.5334 11.1518 90.5219 12.1659L88.5039 14.1839C88.4002 14.2876 88.2861 14.3654 88.1797 14.464C86.6313 13.0919 85.5938 11.1051 85.5938 8.67734V5.82422C85.5938 2.95812 83.2723 0.636719 80.4062 0.636719H59.6562C56.7902 0.636719 54.4688 2.95812 54.4688 5.82422V8.67734C54.4688 11.1025 53.4312 13.0919 51.8854 14.4588C51.779 14.3628 51.6649 14.2824 51.5612 14.1787L49.5406 12.1633C48.5265 11.1492 47.2011 10.6434 45.8731 10.6434H35.4981C34.1701 10.6434 32.8421 11.1492 31.8305 12.1633L24.4954 19.4985C22.4697 21.5242 22.4697 24.8079 24.4954 26.8336L26.5133 28.8515C31.4155 33.7563 27.9425 42.1367 21.012 42.1367H18.1562C15.2902 42.1367 12.9688 44.4581 12.9688 47.3242V57.6992C12.9688 60.5653 15.2902 62.8867 18.1562 62.8867H21.012C27.9451 62.8867 31.4155 71.2671 26.5133 76.1693L24.4954 78.1873C22.4697 80.213 22.4697 83.4967 24.4954 85.5224L31.8305 92.8575C32.8447 93.8717 34.1701 94.3774 35.4981 94.3774H45.8731C47.2011 94.3774 48.5291 93.8717 49.5406 92.8575L51.5586 90.8396C51.6623 90.7358 51.7764 90.658 51.8828 90.5594C53.4313 91.9315 54.4688 93.9183 54.4688 96.3435V99.1992C54.4688 102.065 56.7902 104.387 59.6562 104.387H80.4062C83.2723 104.387 85.5938 102.065 85.5938 99.1992V96.3435C85.5938 93.9183 86.6312 91.9289 88.1771 90.562C88.2835 90.658 88.3976 90.7384 88.5013 90.8422L90.5193 92.8601C91.5334 93.8742 92.8588 94.38 94.1868 94.38H104.562C105.89 94.38 107.218 93.8742 108.229 92.8601L115.565 85.525C117.59 83.4993 117.59 80.2156 115.565 78.1898L113.547 76.1719C108.647 71.2671 112.12 62.8867 119.051 62.8867H121.906C124.772 62.8867 127.094 60.5653 127.094 57.6992V47.3242C127.094 44.4581 124.772 42.1367 121.906 42.1367V42.1367ZM49.2812 52.5117C49.2812 39.9632 58.1934 29.4974 70.0312 27.0956C81.8691 29.5 90.7812 39.9632 90.7812 52.5117C90.7812 65.0603 81.8691 75.5261 70.0312 77.9279C58.1934 75.5261 49.2812 65.0603 49.2812 52.5117Z" fill="#5C76B2"/>
<path d="M111.531 42.1367H108.676C101.742 42.1367 98.272 33.7563 103.174 28.8541L105.192 26.8362C107.218 24.8105 107.218 21.5268 105.192 19.5011L97.857 12.1659C95.8313 10.1402 92.5476 10.1402 90.5219 12.1659L88.5039 14.1839C83.5992 19.0835 75.2188 15.6104 75.2188 8.67734V5.82422C75.2188 2.95812 72.8973 0.636719 70.0312 0.636719H59.6562C56.7902 0.636719 54.4688 2.95812 54.4688 5.82422V8.67734C54.4688 15.6104 46.0883 19.0809 41.1862 14.1787L39.1656 12.1633C37.1399 10.1376 33.8562 10.1376 31.8305 12.1633L24.4954 19.4985C22.4697 21.5242 22.4697 24.8079 24.4954 26.8336L26.5133 28.8515C31.4155 33.7563 27.9425 42.1367 21.012 42.1367H18.1562C15.2902 42.1367 12.9688 44.4581 12.9688 47.3242V57.6992C12.9688 60.5653 15.2902 62.8867 18.1562 62.8867H21.012C27.9451 62.8867 31.4155 71.2671 26.5133 76.1693L24.4954 78.1873C22.4697 80.213 22.4697 83.4967 24.4954 85.5224L31.8305 92.8575C33.8562 94.8832 37.1399 94.8832 39.1656 92.8575L41.1836 90.8396C46.0858 85.9374 54.4662 89.4104 54.4662 96.3409V99.1992C54.4662 102.065 56.7876 104.387 59.6537 104.387H70.0287C72.8948 104.387 75.2162 102.065 75.2162 99.1992V96.3435C75.2162 89.4104 83.5966 85.94 88.4987 90.8422L90.5167 92.8601C92.5424 94.8858 95.8261 94.8858 97.8518 92.8601L105.187 85.525C107.213 83.4993 107.213 80.2156 105.187 78.1898L103.169 76.1719C98.272 71.2671 101.745 62.8867 108.676 62.8867H111.531C114.397 62.8867 116.719 60.5653 116.719 57.6992V47.3242C116.719 44.4581 114.397 42.1367 111.531 42.1367V42.1367ZM64.8438 78.4492C50.5185 78.4492 38.9062 66.837 38.9062 52.5117C38.9062 38.1864 50.5185 26.5742 64.8438 26.5742C79.169 26.5742 90.7812 38.1864 90.7812 52.5117C90.7812 66.837 79.169 78.4492 64.8438 78.4492Z" fill="#6FA4D8"/>
<path d="M129.687 123.84H128.798C124.176 123.84 121.862 118.253 125.13 114.985L125.761 114.354C126.775 113.34 126.775 111.698 125.761 110.687L122.093 107.019C121.587 106.514 120.923 106.259 120.259 106.259H109.884C109.747 106.259 109.607 106.278 109.472 106.298C109.132 105.619 108.937 104.841 108.937 103.979V103.09C108.937 101.658 107.775 100.496 106.344 100.496H90.7812C89.3495 100.496 88.1875 101.658 88.1875 103.09V103.979C88.1875 104.841 87.993 105.619 87.6558 106.298C87.5183 106.278 87.3808 106.259 87.2434 106.259H76.8684C76.2044 106.259 75.5404 106.514 75.0346 107.019L71.367 110.687C70.3529 111.701 70.3529 113.343 71.367 114.354L71.9973 114.985C75.2654 118.253 72.9518 123.84 68.3297 123.84H67.4375C66.0057 123.84 64.8438 125.002 64.8438 126.434V131.621C64.8438 133.053 66.0057 134.215 67.4375 134.215H68.3272C72.9492 134.215 75.2628 139.802 71.9947 143.07L71.3644 143.7C70.3503 144.714 70.3503 146.356 71.3644 147.368L75.032 151.035C75.5378 151.541 76.2018 151.795 76.8658 151.795H87.2408C87.3782 151.795 87.5183 151.777 87.6532 151.756C87.993 152.436 88.1875 153.214 88.1875 154.075V154.965C88.1875 156.397 89.3495 157.559 90.7812 157.559H106.344C107.775 157.559 108.937 156.397 108.937 154.965V154.075C108.937 153.214 109.132 152.436 109.469 151.756C109.607 151.777 109.744 151.795 109.882 151.795H120.257C120.921 151.795 121.585 151.541 122.09 151.035L125.758 147.368C126.772 146.354 126.772 144.712 125.758 143.7L125.128 143.07C121.86 139.802 124.173 134.215 128.795 134.215H129.687C131.119 134.215 132.281 133.053 132.281 131.621V126.434C132.281 125.002 131.119 123.84 129.687 123.84V123.84ZM98.5625 142.305C93.2531 140.227 89.4844 135.073 89.4844 129.027C89.4844 122.981 93.2531 117.825 98.5625 115.75C103.872 117.828 107.641 122.981 107.641 129.027C107.641 135.073 103.872 140.23 98.5625 142.305Z" fill="#F68820"/>
<path d="M119.312 123.84H118.423C113.801 123.84 111.487 118.253 114.755 114.985L115.386 114.354C116.4 113.34 116.4 111.698 115.386 110.687L111.718 107.019C110.704 106.005 109.062 106.005 108.05 107.019L107.42 107.65C104.149 110.915 98.5625 108.602 98.5625 103.979V103.09C98.5625 101.658 97.4005 100.496 95.9688 100.496H90.7812C89.3495 100.496 88.1875 101.658 88.1875 103.09V103.979C88.1875 108.602 82.6006 110.915 79.3324 107.647L78.7022 107.017C77.688 106.003 76.0462 106.003 75.0346 107.017L71.367 110.684C70.3529 111.699 70.3529 113.34 71.367 114.352L71.9973 114.982C75.2654 118.25 72.9518 123.837 68.3297 123.837H67.4375C66.0058 123.837 64.8438 124.999 64.8438 126.431V131.618C64.8438 133.05 66.0058 134.212 67.4375 134.212H68.3272C72.9492 134.212 75.2628 139.799 71.9947 143.067L71.3644 143.698C70.3503 144.712 70.3503 146.354 71.3644 147.365L75.032 151.033C76.0462 152.047 77.688 152.047 78.6996 151.033L79.3298 150.402C82.598 147.134 88.1849 149.448 88.1849 154.07V154.965C88.1849 156.397 89.3469 157.559 90.7787 157.559H95.9662C97.3979 157.559 98.5599 156.397 98.5599 154.965V154.075C98.5599 149.453 104.147 147.139 107.415 150.408L108.045 151.038C109.059 152.052 110.701 152.052 111.713 151.038L115.38 147.37C116.395 146.356 116.395 144.714 115.38 143.703L114.75 143.072C111.482 139.804 113.796 134.217 118.418 134.217H119.312C120.744 134.217 121.906 133.055 121.906 131.624V126.436C121.906 125.002 120.744 123.84 119.312 123.84V123.84ZM93.375 143.293C85.4952 143.293 79.1094 136.907 79.1094 129.027C79.1094 121.148 85.4952 114.762 93.375 114.762C101.255 114.762 107.641 121.148 107.641 129.027C107.641 136.907 101.255 143.293 93.375 143.293Z" fill="#FBBE18"/>
<path d="M44.094 52.5117H33.719C16.5302 52.5117 2.59399 66.4479 2.59399 83.6367C2.59399 100.825 16.5302 114.762 33.719 114.762H44.094C61.2828 114.762 75.219 100.825 75.219 83.6367C75.219 66.4479 61.2828 52.5117 44.094 52.5117Z" fill="#353744"/>
<path d="M33.7189 161.449H44.0946V119.949H33.7189C32.2871 119.949 31.125 121.111 31.125 122.543V158.855C31.125 160.287 32.2871 161.449 33.7189 161.449Z" fill="#55525B"/>
<path d="M38.9062 161.449H44.0941C45.5259 161.449 46.688 160.287 46.688 158.855V122.543C46.688 121.111 45.5259 119.949 44.0941 119.949H38.9062V161.449Z" fill="#353744"/>
<path d="M33.719 114.762C50.9089 114.762 64.844 100.827 64.844 83.6367C64.844 66.4469 50.9089 52.5117 33.719 52.5117C16.5291 52.5117 2.59399 66.4469 2.59399 83.6367C2.59399 100.827 16.5291 114.762 33.719 114.762Z" fill="#55525B"/>
<path d="M33.7188 104.387C45.1787 104.387 54.4688 95.0966 54.4688 83.6367C54.4688 72.1768 45.1787 62.8867 33.7188 62.8867C22.2588 62.8867 12.9688 72.1768 12.9688 83.6367C12.9688 95.0966 22.2588 104.387 33.7188 104.387Z" fill="#DBDEE3"/>
<path d="M33.7188 114.762H44.0944V119.95H33.7188V114.762Z" fill="#DBDEE3"/>
<path d="M38.9062 114.762H44.0941V119.95H38.9062V114.762Z" fill="#B3B4B6"/>
<path d="M33.7188 114.762H38.9066V117.356H33.7188V114.762Z" fill="#B3B4B6"/>
<path d="M38.9066 166.637C36.0403 166.637 33.7188 164.315 33.7188 161.449H44.0944C44.0944 164.315 41.7729 166.637 38.9066 166.637Z" fill="#DBDEE3"/>
<path d="M38.9062 166.637V161.449H44.0941C44.0941 164.315 41.7725 166.637 38.9062 166.637Z" fill="#B3B4B6"/>
<path d="M160.813 83.6364H160.626C156.631 83.6364 154.136 79.3126 156.133 75.8551L156.227 75.6943C156.943 74.4545 156.517 72.8672 155.277 72.1513L150.785 69.5575C150.375 69.3215 149.932 69.2203 149.491 69.2203V69.21H144.303V69.2203C143.406 69.2203 142.534 69.6742 142.055 70.5068L141.961 70.6676C141.476 71.508 140.815 72.1383 140.063 72.5689C139.31 72.1357 138.649 71.5054 138.164 70.6676L138.071 70.5068C137.591 69.6742 136.719 69.2203 135.822 69.2203V69.21H130.634V69.2203C130.193 69.2203 129.747 69.3215 129.34 69.5575L124.848 72.1513C123.608 72.8672 123.182 74.4545 123.898 75.6943L123.992 75.8551C125.989 79.3126 123.494 83.6364 119.499 83.6364H119.313C117.881 83.6364 116.719 84.7984 116.719 86.2301V91.4176C116.719 92.8494 117.881 94.0114 119.313 94.0114H119.499C123.494 94.0114 125.989 98.3352 123.992 101.793L123.898 101.953C123.182 103.193 123.608 104.781 124.848 105.497L129.34 108.09C129.75 108.326 130.193 108.427 130.634 108.427V108.438H135.822V108.427C136.719 108.427 137.591 107.974 138.071 107.141L138.164 106.98C138.649 106.14 139.31 105.509 140.063 105.079C140.815 105.512 141.476 106.142 141.961 106.98L142.055 107.141C142.534 107.974 143.406 108.427 144.303 108.427V108.438H149.491V108.427C149.932 108.427 150.378 108.326 150.785 108.09L155.277 105.497C156.517 104.781 156.943 103.193 156.227 101.953L156.133 101.793C154.136 98.3352 156.631 94.0114 160.626 94.0114H160.813C162.244 94.0114 163.406 92.8494 163.406 91.4176V86.2301C163.406 84.7984 162.244 83.6364 160.813 83.6364ZM134.875 88.8239C134.875 85.4365 137.043 82.5652 140.063 81.494C143.082 82.5626 145.25 85.4365 145.25 88.8239C145.25 92.2113 143.082 95.0826 140.063 96.1538C137.043 95.0826 134.875 92.2113 134.875 88.8239Z" fill="#5C76B2"/>
<path d="M155.625 83.6364H155.438C151.444 83.6364 148.949 79.3127 150.946 75.8552L151.039 75.6944C151.755 74.4546 151.33 72.8672 150.09 72.1513L145.598 69.5576C144.358 68.8417 142.77 69.2671 142.055 70.5069L141.961 70.6677C139.964 74.1252 134.974 74.1252 132.976 70.6677L132.883 70.5069C132.167 69.2671 130.58 68.8417 129.34 69.5576L124.848 72.1513C123.608 72.8672 123.182 74.4546 123.898 75.6944L123.992 75.8552C125.989 79.3127 123.494 83.6364 119.499 83.6364H119.313C117.881 83.6364 116.719 84.7984 116.719 86.2302V91.4177C116.719 92.8494 117.881 94.0114 119.313 94.0114H119.499C123.494 94.0114 125.989 98.3352 123.992 101.793L123.898 101.953C123.182 103.193 123.608 104.781 124.848 105.497L129.34 108.09C130.58 108.806 132.167 108.381 132.883 107.141L132.976 106.98C134.974 103.523 139.964 103.523 141.961 106.98L142.055 107.141C142.77 108.381 144.358 108.806 145.598 108.09L150.09 105.497C151.33 104.781 151.755 103.193 151.039 101.953L150.946 101.793C148.949 98.3352 151.444 94.0114 155.438 94.0114H155.625C157.057 94.0114 158.219 92.8494 158.219 91.4177V86.2302C158.219 84.7984 157.057 83.6364 155.625 83.6364ZM137.469 96.6052C133.171 96.6052 129.688 93.1218 129.688 88.8239C129.688 84.5261 133.171 81.0427 137.469 81.0427C141.767 81.0427 145.25 84.5261 145.25 88.8239C145.25 93.1218 141.767 96.6052 137.469 96.6052Z" fill="#6FA4D8"/>
<path d="M54.4688 83.6367C54.4688 72.1775 45.1779 62.8867 33.7188 62.8867C29.9345 62.8867 26.3992 63.9164 23.3438 65.6854V68.0742C23.3438 70.9403 25.6652 73.2617 28.5312 73.2617H31.387C38.3201 73.2617 41.7905 81.6421 36.8883 86.5443L34.8704 88.5622C32.8447 90.588 32.8447 93.8717 34.8704 95.8974L41.7464 102.773C49.219 99.6376 54.4688 92.2506 54.4688 83.6367Z" fill="#6FA4D8"/>
<path d="M25.9378 81.0436C28.803 81.0436 31.1257 78.7209 31.1257 75.8558C31.1257 72.9906 28.803 70.668 25.9378 70.668C23.0727 70.668 20.75 72.9906 20.75 75.8558C20.75 78.7209 23.0727 81.0436 25.9378 81.0436Z" fill="white"/>
</g>
<defs>
<clipPath id="clip0_1091_5097">
<rect width="166" height="166" fill="white" transform="translate(0 0.636719)"/>
</clipPath>
</defs>
</svg>
