<svg width="352" height="352" viewBox="0 0 352 352" fill="none" xmlns="http://www.w3.org/2000/svg">
<circle cx="176" cy="176" r="176" fill="#6C33A3"/>
<path d="M213.065 105C191.595 105 174.129 122.466 174.129 143.935C174.129 165.405 191.595 182.871 213.065 182.871C234.534 182.871 252 165.405 252 143.935C252 122.466 234.534 105 213.065 105ZM219.935 118.742V123.323H206.194V118.742H219.935ZM206.194 127.903H219.935V130.194C219.935 133.981 216.852 137.065 213.065 137.065C209.277 137.065 206.194 133.981 206.194 130.194V127.903ZM213.065 141.645C213.847 141.645 214.615 141.565 215.355 141.414V146.226H210.774V141.414C211.515 141.565 212.282 141.645 213.065 141.645ZM220.121 150.806C225.561 150.806 230.286 154.677 231.35 160.014L233.173 169.129H192.956L194.779 160.014C195.843 154.677 200.568 150.806 206.008 150.806H220.121ZM195.999 173.71H230.132C225.098 176.607 219.28 178.29 213.067 178.29C206.853 178.29 201.034 176.607 195.999 173.71ZM237.605 167.931L235.841 159.113C234.348 151.645 227.736 146.226 220.121 146.226H219.935V139.355H219.865C222.67 137.266 224.516 133.952 224.516 130.194V118.742H229.097V114.161H197.032V118.742H201.613V130.194C201.613 133.952 203.459 137.266 206.264 139.355H206.194V146.226H206.008C198.393 146.226 191.781 151.645 190.288 159.113L188.524 167.931C182.462 161.734 178.71 153.269 178.71 143.935C178.71 124.992 194.121 109.581 213.065 109.581C232.008 109.581 247.419 124.992 247.419 143.935C247.419 153.269 243.667 161.734 237.605 167.931Z" fill="#ECECEC"/>
<path d="M148.935 169.129C127.466 169.129 110 186.595 110 208.064C110 229.534 127.466 247 148.935 247C170.405 247 187.871 229.534 187.871 208.064C187.871 186.595 170.405 169.129 148.935 169.129ZM148.935 201.193C145.148 201.193 142.065 198.11 142.065 194.322V189.742C142.065 185.954 145.148 182.871 148.935 182.871C152.723 182.871 155.806 185.954 155.806 189.742V194.322C155.806 198.11 152.723 201.193 148.935 201.193ZM148.935 205.774C149.718 205.774 150.485 205.694 151.226 205.543V210.355H146.645V205.543C147.385 205.694 148.153 205.774 148.935 205.774ZM155.992 214.935C161.432 214.935 166.157 218.806 167.221 224.142L169.044 233.258H128.827L130.65 224.142C131.714 218.806 136.439 214.935 141.879 214.935H155.992ZM131.87 237.839H166.003C160.969 240.736 155.151 242.419 148.938 242.419C142.724 242.419 136.905 240.736 131.87 237.839ZM173.476 232.06L171.712 223.242C170.219 215.774 163.607 210.355 155.992 210.355H155.806V203.484H155.736C158.541 201.395 160.387 198.081 160.387 194.322V189.742C160.387 183.428 155.25 178.29 148.935 178.29C142.621 178.29 137.484 183.428 137.484 189.742V194.322C137.484 198.081 139.33 201.395 142.135 203.484H142.065V210.355H141.879C134.264 210.355 127.652 215.774 126.159 223.242L124.395 232.06C118.333 225.862 114.581 217.398 114.581 208.064C114.581 189.121 129.992 173.71 148.935 173.71C167.879 173.71 183.29 189.121 183.29 208.064C183.29 217.398 179.538 225.862 173.476 232.06Z" fill="#ECECEC"/>
<path d="M231.387 187.451H222.226C220.962 187.451 219.936 188.474 219.936 189.741V194.322C219.936 201.119 214.975 206.779 208.484 207.874V203.483C208.484 202.559 207.925 201.72 207.07 201.368C206.211 201.007 205.23 201.209 204.574 201.864L193.123 213.316C192.227 214.211 192.227 215.659 193.123 216.554L204.574 228.006C205.012 228.443 205.599 228.677 206.194 228.677C206.489 228.677 206.786 228.622 207.07 228.503C207.925 228.15 208.484 227.312 208.484 226.387V221.712C222.569 220.545 233.677 208.705 233.677 194.322V189.741C233.677 188.474 232.651 187.451 231.387 187.451ZM229.097 194.322C229.097 206.951 218.823 217.225 206.194 217.225C204.93 217.225 203.903 218.249 203.903 219.516V220.858L197.981 214.935L203.903 209.012V210.354C203.903 211.621 204.93 212.645 206.194 212.645C216.296 212.645 224.516 204.425 224.516 194.322V192.032H229.097V194.322Z" fill="#ECECEC"/>
<path d="M130.613 164.548H139.774C141.038 164.548 142.065 163.525 142.065 162.258V157.677C142.065 150.88 147.025 145.22 153.516 144.125V148.516C153.516 149.441 154.075 150.279 154.93 150.632C155.784 150.99 156.768 150.791 157.426 150.135L168.877 138.684C169.773 137.788 169.773 136.341 168.877 135.445L157.426 123.993C156.768 123.336 155.784 123.137 154.93 123.497C154.075 123.849 153.516 124.688 153.516 125.613V130.287C139.431 131.455 128.323 143.294 128.323 157.677V162.258C128.323 163.525 129.349 164.548 130.613 164.548ZM132.903 157.677C132.903 145.048 143.177 134.774 155.807 134.774C157.07 134.774 158.097 133.751 158.097 132.484V131.142L164.019 137.064L158.097 142.987V141.645C158.097 140.378 157.07 139.355 155.807 139.355C145.704 139.355 137.484 147.574 137.484 157.677V159.967H132.903V157.677Z" fill="#ECECEC"/>
</svg>
