<svg width="120" height="120" viewBox="0 0 120 120" fill="none" xmlns="http://www.w3.org/2000/svg">
<g clip-path="url(#clip0_1334_3280)">
<path d="M60 20.625C52.027 20.625 44.2329 22.9893 37.6036 27.4189C30.9742 31.8485 25.8073 38.1444 22.7561 45.5106C19.705 52.8767 18.9066 60.9822 20.4621 68.8021C22.0176 76.6219 25.857 83.8049 31.4948 89.4427C37.1326 95.0806 44.3156 98.9199 52.1354 100.475C59.9553 102.031 68.0608 101.233 75.4269 98.1814C82.7931 95.1302 89.089 89.9633 93.5186 83.3339C97.9482 76.7046 100.313 68.9106 100.313 60.9375C100.313 50.246 96.0653 39.9923 88.5053 32.4323C80.9452 24.8722 70.6916 20.625 60 20.625ZM89.4938 82.5C86.8205 80.9328 83.9931 79.6447 81.0563 78.6562C82.4581 73.4872 83.2262 68.1669 83.3438 62.8125H96.4688C96.1211 69.9163 93.6958 76.7618 89.4938 82.5ZM23.4844 62.8125H36.6563C36.77 68.1697 37.535 73.4932 38.9344 78.6656C35.9975 79.6541 33.1701 80.9422 30.4969 82.5094C26.2797 76.7728 23.8412 69.9235 23.4844 62.8125ZM30.5063 39.375C33.1795 40.9422 36.0069 42.2303 38.9438 43.2187C37.542 48.3878 36.7738 53.7081 36.6563 59.0625H23.5313C23.8789 51.9587 26.3042 45.1132 30.5063 39.375ZM61.875 46.5187C67.1149 46.3964 72.3223 45.6602 77.3906 44.325C78.7239 49.1291 79.4638 54.0785 79.5938 59.0625H61.875V46.5187ZM61.875 42.7687V24.5531C67.7813 25.6594 73.0219 31.875 76.2469 40.7531C71.5501 41.9772 66.7274 42.6536 61.875 42.7687ZM58.125 24.5531V42.7687C53.2727 42.6536 48.45 41.9772 43.7531 40.7531C46.9781 31.875 52.2188 25.6594 58.125 24.5531ZM58.125 46.5187V59.0625H40.4063C40.5362 54.0785 41.2761 49.1291 42.6094 44.325C47.6777 45.6602 52.8852 46.3964 58.125 46.5187ZM40.4063 62.8125H58.125V75.3562C52.8852 75.4786 47.6777 76.2148 42.6094 77.55C41.2761 72.7459 40.5362 67.7965 40.4063 62.8125ZM58.125 79.1062V97.3219C52.2188 96.2156 46.9781 90 43.7531 81.1219C48.45 79.8978 53.2727 79.2214 58.125 79.1062ZM61.875 97.3219V79.1062C66.7274 79.2214 71.5501 79.8978 76.2469 81.1219C73.0219 90 67.7813 96.2156 61.875 97.3219ZM61.875 75.3562V62.8125H79.5938C79.4638 67.7965 78.7239 72.7459 77.3906 77.55C72.3223 76.2148 67.1149 75.4786 61.875 75.3562ZM83.3438 59.0625C83.23 53.7053 82.465 48.3818 81.0656 43.2094C84.0025 42.2209 86.8299 40.9328 89.5031 39.3656C93.737 45.0968 96.192 51.9466 96.5625 59.0625H83.3438ZM87.0938 36.4219C84.8135 37.7181 82.4152 38.7948 79.9313 39.6375C78.3296 34.7827 75.7374 30.3134 72.3188 26.5125C77.9868 28.5495 83.065 31.9532 87.1031 36.4219H87.0938ZM47.6719 26.5219C44.2533 30.3228 41.6611 34.7921 40.0594 39.6469C37.5755 38.8042 35.1772 37.7275 32.8969 36.4313C36.9324 31.9638 42.0072 28.5602 47.6719 26.5219ZM32.8969 85.4531C35.1772 84.1569 37.5755 83.0802 40.0594 82.2375C41.6611 87.0923 44.2533 91.5616 47.6719 95.3625C42.0072 93.3241 36.9324 89.9206 32.8969 85.4531ZM72.3281 95.3531C75.7468 91.5522 78.339 87.0829 79.9406 82.2281C82.4246 83.0708 84.8229 84.1475 87.1031 85.4437C83.0676 89.9112 77.9928 93.3148 72.3281 95.3531Z" fill="white"/>
<path d="M60.0121 7.39417e-07C49.533 0.00177401 39.237 2.74807 30.149 7.96553C21.061 13.183 13.498 20.6897 8.21271 29.7384C2.92742 38.7871 0.104201 49.0622 0.0240556 59.5411C-0.0560894 70.02 2.60964 80.3371 7.7559 89.4656L0.0777727 117.591C-0.00572123 117.871 -0.0222624 118.168 0.0294755 118.456C0.0812134 118.745 0.199791 119.017 0.3757 119.251C0.55161 119.485 0.779958 119.675 1.04243 119.805C1.30491 119.935 1.59421 120.002 1.88715 120C2.04885 120.001 2.20989 119.979 2.36527 119.934L30.8559 112.434C38.8637 116.889 47.7852 119.449 56.9363 119.921C66.0873 120.392 75.2247 118.761 83.6476 115.153C92.0705 111.544 99.555 106.055 105.527 99.1055C111.499 92.1559 115.8 83.9307 118.101 75.0609C120.401 66.1911 120.639 56.9123 118.796 47.9363C116.954 38.9603 113.08 30.5254 107.472 23.2788C101.864 16.0322 94.6708 10.1663 86.4439 6.13109C78.2171 2.09588 69.1753 -0.00143771 60.0121 7.39417e-07ZM60.0121 116.25C50.1955 116.233 40.5543 113.647 32.0465 108.75C31.7608 108.588 31.4375 108.504 31.109 108.506C30.948 108.506 30.7876 108.525 30.6309 108.562L4.54965 115.481L11.5715 89.7C11.6368 89.4604 11.6539 89.2102 11.6217 88.964C11.5895 88.7178 11.5087 88.4804 11.384 88.2656C5.1582 77.5538 2.64316 65.0861 4.2294 52.7984C5.81564 40.5106 11.4144 29.0904 20.1564 20.3108C28.8984 11.5311 40.2945 5.88336 52.5753 4.24436C64.8561 2.60536 77.3345 5.06682 88.073 11.2466C98.8115 17.4263 107.209 26.9786 111.962 38.4203C116.716 49.8619 117.558 62.5528 114.359 74.5225C111.161 86.4921 104.1 97.0708 94.2724 104.616C84.4452 112.161 72.4018 116.251 60.0121 116.25Z" fill="white"/>
</g>
<defs>
<clipPath id="clip0_1334_3280">
<rect width="120" height="120" fill="white"/>
</clipPath>
</defs>
</svg>
