<svg width="15" height="15" viewBox="0 0 15 15" fill="none" xmlns="http://www.w3.org/2000/svg">
<path d="M12.5 7.5C12.5 7.66576 12.4342 7.82473 12.3169 7.94194C12.1997 8.05915 12.0408 8.125 11.875 8.125H7.13125L8.56875 9.55625C8.62733 9.61435 8.67383 9.68348 8.70556 9.75964C8.73729 9.8358 8.75362 9.91749 8.75362 10C8.75362 10.0825 8.73729 10.1642 8.70556 10.2404C8.67383 10.3165 8.62733 10.3856 8.56875 10.4437C8.51065 10.5023 8.44152 10.5488 8.36536 10.5806C8.2892 10.6123 8.20751 10.6286 8.125 10.6286C8.04249 10.6286 7.9608 10.6123 7.88464 10.5806C7.80848 10.5488 7.73935 10.5023 7.68125 10.4437L5.18125 7.94375C5.12435 7.88431 5.07975 7.81422 5.05 7.7375C4.98749 7.58534 4.98749 7.41466 5.05 7.2625C5.07975 7.18578 5.12435 7.11569 5.18125 7.05625L7.68125 4.55625C7.73952 4.49798 7.80871 4.45175 7.88484 4.42021C7.96098 4.38868 8.04259 4.37244 8.125 4.37244C8.20741 4.37244 8.28902 4.38868 8.36516 4.42021C8.44129 4.45175 8.51048 4.49798 8.56875 4.55625C8.62702 4.61452 8.67325 4.68371 8.70479 4.75984C8.73633 4.83598 8.75256 4.91759 8.75256 5C8.75256 5.08241 8.73633 5.16402 8.70479 5.24016C8.67325 5.31629 8.62702 5.38548 8.56875 5.44375L7.13125 6.875H11.875C12.0408 6.875 12.1997 6.94085 12.3169 7.05806C12.4342 7.17527 12.5 7.33424 12.5 7.5ZM4.375 1.25H10.625C11.1223 1.25 11.5992 1.44754 11.9508 1.79917C12.3025 2.15081 12.5 2.62772 12.5 3.125V5C12.5 5.16576 12.4342 5.32473 12.3169 5.44194C12.1997 5.55915 12.0408 5.625 11.875 5.625C11.7092 5.625 11.5503 5.55915 11.4331 5.44194C11.3158 5.32473 11.25 5.16576 11.25 5V3.125C11.25 2.95924 11.1842 2.80027 11.0669 2.68306C10.9497 2.56585 10.7908 2.5 10.625 2.5H4.375C4.20924 2.5 4.05027 2.56585 3.93306 2.68306C3.81585 2.80027 3.75 2.95924 3.75 3.125V11.875C3.75 12.0408 3.81585 12.1997 3.93306 12.3169C4.05027 12.4342 4.20924 12.5 4.375 12.5H10.625C10.7908 12.5 10.9497 12.4342 11.0669 12.3169C11.1842 12.1997 11.25 12.0408 11.25 11.875V10C11.25 9.83424 11.3158 9.67527 11.4331 9.55806C11.5503 9.44085 11.7092 9.375 11.875 9.375C12.0408 9.375 12.1997 9.44085 12.3169 9.55806C12.4342 9.67527 12.5 9.83424 12.5 10V11.875C12.5 12.3723 12.3025 12.8492 11.9508 13.2008C11.5992 13.5525 11.1223 13.75 10.625 13.75H4.375C3.87772 13.75 3.40081 13.5525 3.04917 13.2008C2.69754 12.8492 2.5 12.3723 2.5 11.875V3.125C2.5 2.62772 2.69754 2.15081 3.04917 1.79917C3.40081 1.44754 3.87772 1.25 4.375 1.25Z" fill="white"/>
</svg>
