<svg width="120" height="120" viewBox="0 0 120 120" fill="none" xmlns="http://www.w3.org/2000/svg">
<path d="M63.75 33.75H60C59.0054 33.75 58.0516 33.3549 57.3484 32.6517C56.6451 31.9484 56.25 30.9946 56.25 30C56.25 29.5027 56.0525 29.0258 55.7008 28.6742C55.3492 28.3226 54.8723 28.125 54.375 28.125C53.8777 28.125 53.4008 28.3226 53.0492 28.6742C52.6975 29.0258 52.5 29.5027 52.5 30C52.5 31.9891 53.2902 33.8968 54.6967 35.3033C56.1032 36.7098 58.0109 37.5 60 37.5V39.375C60 39.8723 60.1975 40.3492 60.5492 40.7008C60.9008 41.0525 61.3777 41.25 61.875 41.25C62.3723 41.25 62.8492 41.0525 63.2008 40.7008C63.5525 40.3492 63.75 39.8723 63.75 39.375V37.5C65.7391 37.5 67.6468 36.7098 69.0533 35.3033C70.4598 33.8968 71.25 31.9891 71.25 30C71.25 28.0109 70.4598 26.1032 69.0533 24.6967C67.6468 23.2902 65.7391 22.5 63.75 22.5H60C59.0054 22.5 58.0516 22.1049 57.3484 21.4017C56.6451 20.6984 56.25 19.7446 56.25 18.75C56.25 17.7554 56.6451 16.8016 57.3484 16.0984C58.0516 15.3951 59.0054 15 60 15H63.75C64.7446 15 65.6984 15.3951 66.4017 16.0984C67.1049 16.8016 67.5 17.7554 67.5 18.75C67.5 19.2473 67.6975 19.7242 68.0492 20.0758C68.4008 20.4275 68.8777 20.625 69.375 20.625C69.8723 20.625 70.3492 20.4275 70.7008 20.0758C71.0525 19.7242 71.25 19.2473 71.25 18.75C71.25 16.7609 70.4598 14.8532 69.0533 13.4467C67.6468 12.0402 65.7391 11.25 63.75 11.25V9.37501C63.75 8.87773 63.5525 8.40082 63.2008 8.04919C62.8492 7.69755 62.3723 7.50001 61.875 7.50001C61.3777 7.50001 60.9008 7.69755 60.5492 8.04919C60.1975 8.40082 60 8.87773 60 9.37501V11.25C58.0109 11.25 56.1032 12.0402 54.6967 13.4467C53.2902 14.8532 52.5 16.7609 52.5 18.75C52.5 20.7391 53.2902 22.6468 54.6967 24.0533C56.1032 25.4598 58.0109 26.25 60 26.25H63.75C64.7446 26.25 65.6984 26.6451 66.4017 27.3484C67.1049 28.0516 67.5 29.0054 67.5 30C67.5 30.9946 67.1049 31.9484 66.4017 32.6517C65.6984 33.3549 64.7446 33.75 63.75 33.75ZM61.875 48.75C66.6959 48.75 71.4086 47.3204 75.417 44.6421C79.4255 41.9637 82.5497 38.1569 84.3946 33.7029C86.2394 29.249 86.7222 24.348 85.7816 19.6197C84.8411 14.8914 82.5196 10.5482 79.1107 7.13928C75.7018 3.73038 71.3586 1.40888 66.6303 0.46837C61.902 -0.472145 57.001 0.0105613 52.5471 1.85545C48.0931 3.70033 44.2863 6.82454 41.6079 10.833C38.9296 14.8414 37.5 19.5541 37.5 24.375C37.5079 30.8372 40.0786 37.0325 44.648 41.602C49.2175 46.1714 55.4128 48.7421 61.875 48.75ZM61.875 3.75001C65.9542 3.75001 69.9419 4.95965 73.3336 7.22595C76.7254 9.49225 79.369 12.7134 80.93 16.4822C82.4911 20.2509 82.8995 24.3979 82.1037 28.3987C81.3079 32.3996 79.3435 36.0746 76.4591 38.9591C73.5746 41.8435 69.8996 43.8079 65.8987 44.6037C61.8979 45.3995 57.7509 44.9911 53.9822 43.43C50.2134 41.869 46.9922 39.2254 44.7259 35.8336C42.4596 32.4419 41.25 28.4542 41.25 24.375C41.256 18.9067 43.4309 13.6642 47.2975 9.79751C51.1642 5.93086 56.4067 3.75597 61.875 3.75001ZM118.125 55.5H103.125C101.856 55.5027 100.626 55.9343 99.633 56.7247C98.6404 57.515 97.9442 58.6178 97.6575 59.8538L76.5713 53.3813C73.853 52.5523 70.9397 52.6234 68.265 53.5838L65.1263 54.7088L50.415 51.48C47.3076 50.7966 44.0702 51.0072 41.0775 52.0875L22.0612 58.9425C21.6316 57.9219 20.9103 57.0509 19.9877 56.4385C19.0651 55.8261 17.9823 55.4996 16.875 55.5H1.875C1.37772 55.5 0.900806 55.6976 0.549175 56.0492C0.197544 56.4008 0 56.8777 0 57.375L0 94.875C0 95.3723 0.197544 95.8492 0.549175 96.2008C0.900806 96.5525 1.37772 96.75 1.875 96.75H16.875C17.8007 96.7489 18.7118 96.5194 19.5276 96.0817C20.3433 95.6441 21.0384 95.0119 21.5513 94.2413C28.4872 103.035 37.299 110.17 47.3438 115.125L55.4362 119.108C56.6658 119.718 58.0346 119.995 59.4048 119.908C60.7751 119.822 62.0984 119.376 63.2416 118.616C64.3848 117.856 65.3075 116.807 65.9168 115.577C66.5261 114.347 66.8006 112.978 66.7125 111.608C67.2204 111.739 67.7408 111.815 68.265 111.836C68.779 111.836 69.2916 111.783 69.795 111.679C71.4368 111.345 72.918 110.467 73.9988 109.187C75.0795 107.907 75.6966 106.3 75.75 104.625C76.8162 105.225 78.0144 105.551 79.2375 105.574C79.7503 105.573 80.2616 105.52 80.7638 105.416C82.5118 105.061 84.0745 104.091 85.1679 102.682C86.2613 101.272 86.8129 99.5177 86.7225 97.7363C88.1741 98.0977 89.7034 97.9847 91.0862 97.4138C92.4689 96.8429 93.6325 95.8441 94.4062 94.5638C94.9696 93.713 95.3525 92.7558 95.5312 91.7513H97.5638C97.7172 93.1211 98.3683 94.387 99.3935 95.3085C100.419 96.23 101.747 96.743 103.125 96.75H118.125C118.622 96.75 119.099 96.5525 119.451 96.2008C119.802 95.8492 120 95.3723 120 94.875V57.375C120 56.8777 119.802 56.4008 119.451 56.0492C119.099 55.6976 118.622 55.5 118.125 55.5ZM18.75 91.125C18.75 91.6223 18.5525 92.0992 18.2008 92.4508C17.8492 92.8025 17.3723 93 16.875 93H3.75V59.25H16.875C17.3723 59.25 17.8492 59.4476 18.2008 59.7992C18.5525 60.1508 18.75 60.6277 18.75 61.125V91.125ZM91.2787 92.5163C91.0081 92.9277 90.6591 93.2818 90.2517 93.5584C89.8442 93.835 89.3863 94.0286 88.904 94.1282C88.4217 94.2278 87.9245 94.2314 87.4408 94.1388C86.9572 94.0463 86.4964 93.8594 86.085 93.5888L68.6738 82.125L67.8713 83.3438C67.7484 83.4265 67.643 83.5327 67.5613 83.6563C67.4796 83.7798 67.4231 83.9183 67.395 84.0638L66.6113 85.2563L68.0475 86.2013C68.0662 86.2013 68.0775 86.235 68.0963 86.25L81.315 94.9575C82.1275 95.5122 82.6895 96.364 82.8798 97.3292C83.07 98.2944 82.8734 99.2958 82.3323 100.117C81.7911 100.939 80.9487 101.515 79.9868 101.721C79.0249 101.927 78.0204 101.747 77.19 101.22L72.4575 98.1038L72.405 98.0625L60.9 90.4875H60.87L59.7788 89.7675C59.3635 89.5038 58.8613 89.4138 58.3803 89.5169C57.8994 89.62 57.4782 89.9081 57.2076 90.3188C56.937 90.7296 56.8387 91.2303 56.9339 91.7129C57.029 92.1955 57.31 92.6214 57.7162 92.8988L70.365 101.228C70.9738 101.64 71.4478 102.223 71.728 102.903C72.0081 103.583 72.082 104.331 71.9406 105.053C71.7991 105.775 71.4484 106.439 70.9322 106.963C70.416 107.487 69.7571 107.848 69.0375 108C68.0638 108.199 67.0509 108.004 66.2213 107.456L53.5238 99.0938C53.3182 98.9534 53.0868 98.8555 52.8431 98.8055C52.5993 98.7555 52.348 98.7546 52.1039 98.8027C51.8597 98.8508 51.6276 98.9471 51.421 99.0858C51.2145 99.2246 51.0376 99.4031 50.9007 99.6109C50.7638 99.8187 50.6697 100.052 50.6237 100.296C50.5778 100.541 50.581 100.792 50.6332 101.035C50.6854 101.279 50.7855 101.509 50.9276 101.713C51.0698 101.918 51.2512 102.092 51.4613 102.225L52.1213 102.66C52.14 102.66 52.1512 102.698 52.1738 102.713L61.1737 108.634C62.0935 109.185 62.7606 110.075 63.0321 111.113C63.3037 112.151 63.1582 113.253 62.6267 114.185C62.0952 115.116 61.2201 115.803 60.1887 116.097C59.1573 116.391 58.0517 116.27 57.1087 115.759L48.9975 111.75C38.4482 106.545 29.3466 98.8161 22.5 89.25V62.7675L42.345 55.62C44.6736 54.7824 47.1913 54.6187 49.6087 55.1475L58.5075 57.1013L52.0725 59.4225C50.0958 60.0993 48.4689 61.5336 47.5498 63.4099C46.6306 65.2862 46.4945 67.4508 47.1713 69.4275C47.8481 71.4042 49.2824 73.0311 51.1587 73.9502C53.035 74.8694 55.1996 75.0056 57.1763 74.3288L66.09 71.4375L90.21 87.3188C90.6563 87.6134 91.0344 88 91.319 88.4527C91.6036 88.9055 91.788 89.4139 91.86 89.9438C91.8632 90.0355 91.8719 90.1269 91.8863 90.2175C91.9393 91.0283 91.726 91.8342 91.2787 92.5125V92.5163ZM97.5 88.0125H95.25C94.7148 86.4417 93.6693 85.0952 92.28 84.1875L67.41 67.8075C67.1753 67.653 66.9088 67.5533 66.6304 67.5156C66.3519 67.478 66.0686 67.5034 65.8013 67.59L56.0288 70.7625C55.27 71.0095 54.456 71.0311 53.6852 70.8248C52.9145 70.6184 52.2201 70.193 51.6862 69.6C51.2318 69.0975 50.9082 68.4908 50.7439 67.8335C50.5797 67.1762 50.5798 66.4885 50.7444 65.8313C50.909 65.1741 51.2329 64.5675 51.6876 64.0652C52.1423 63.5629 52.7136 63.1803 53.3512 62.9513L69.5475 57.1088C71.4578 56.4223 73.5389 56.3723 75.48 56.9663L97.5 63.7313V88.0125ZM116.25 93H103.125C102.628 93 102.151 92.8025 101.799 92.4508C101.448 92.0992 101.25 91.6223 101.25 91.125V61.125C101.25 60.6277 101.448 60.1508 101.799 59.7992C102.151 59.4476 102.628 59.25 103.125 59.25H116.25V93Z" fill="white"/>
</svg>
