<svg width="166" height="167" viewBox="0 0 166 167" fill="none" xmlns="http://www.w3.org/2000/svg">
<g clip-path="url(#clip0_1091_5141)">
<path d="M37.8687 32.54H32.6812V37.7276H37.8687V32.54Z" fill="#183651"/>
<path d="M37.8687 51.2148H32.6812V56.4024H37.8687V51.2148Z" fill="#183651"/>
<path d="M37.8687 69.6309H32.6812V74.8184H37.8687V69.6309Z" fill="#183651"/>
<path d="M133.319 32.54H128.131V37.7276H133.319V32.54Z" fill="#183651"/>
<path d="M133.319 51.2148H128.131V56.4024H133.319V51.2148Z" fill="#183651"/>
<path d="M133.319 69.6309H128.131V74.8184H133.319V69.6309Z" fill="#183651"/>
<path d="M132.281 89.084H33.7184C29.5685 89.084 26.4561 92.4559 26.4561 96.3464V156.521C26.4561 160.671 29.8279 163.784 33.7184 163.784H132.54C136.69 163.784 139.803 160.412 139.803 156.521V96.3464C139.803 92.4559 136.431 89.084 132.281 89.084Z" fill="white"/>
<path d="M132.281 166.637H33.7189C28.2719 166.637 23.8628 162.228 23.8628 156.781V96.3464C23.8628 90.8993 28.2722 86.4902 33.7189 86.4902H132.541C137.988 86.4902 142.397 90.8997 142.397 96.3464V156.522C142.397 162.228 137.728 166.637 132.281 166.637ZM33.7189 91.6778C31.1252 91.6778 29.0503 93.7529 29.0503 96.3464V156.522C29.0503 159.115 31.1255 161.19 33.7189 161.19H132.541C135.135 161.19 137.21 159.115 137.21 156.522V96.3464C137.21 93.7526 135.134 91.6778 132.541 91.6778H33.7189Z" fill="#183651"/>
<path d="M129.169 99.458H36.572V153.667H129.169V99.458Z" fill="#4FBF9F"/>
<path d="M132.281 129.547H33.7189C28.2719 129.547 23.8628 125.137 23.8628 119.69C23.8628 118.134 24.9004 117.097 26.4566 117.097C28.0128 117.097 29.0503 118.134 29.0503 119.69C29.0503 122.284 31.1255 124.359 33.7189 124.359H132.541C135.135 124.359 137.21 122.284 137.21 119.69C137.21 118.134 138.247 117.097 139.803 117.097C141.36 117.097 142.397 118.134 142.397 119.69C142.397 124.878 137.728 129.547 132.281 129.547Z" fill="#183651"/>
<path d="M113.347 91.6769H52.6533C51.0971 91.6769 50.0596 90.6393 50.0596 89.0831V69.1114C50.0596 67.5552 51.0971 66.5176 52.6533 66.5176H113.088C114.644 66.5176 115.681 67.5552 115.681 69.1114V89.0831C115.941 90.6393 114.644 91.6769 113.347 91.6769ZM55.2468 86.4894H110.494V71.7051H55.2468V86.4894Z" fill="#183651"/>
<path d="M76.7749 112.946V133.696C76.7749 137.328 79.6282 139.921 83 139.921C86.6314 139.921 89.2252 137.068 89.2252 133.696V112.946H76.7749Z" fill="white"/>
<path d="M83.0003 142.774C78.0722 142.774 74.1814 138.883 74.1814 133.955V113.205C74.1814 111.649 75.219 110.611 76.7752 110.611H89.4846C91.0408 110.611 92.0784 111.649 92.0784 113.205V133.955C91.8189 138.624 87.9284 142.774 83.0003 142.774ZM79.3689 115.54V133.696C79.3689 135.771 80.9251 137.327 83.0003 137.327C85.0755 137.327 86.6317 135.771 86.6317 133.696V115.54H79.3689Z" fill="#183651"/>
<path d="M94.1531 115.54H71.8467C70.2905 115.54 69.2529 114.503 69.2529 112.946C69.2529 111.39 70.2905 110.353 71.8467 110.353H94.1531C95.7093 110.353 96.7469 111.39 96.7469 112.946C96.7469 114.503 95.7093 115.54 94.1531 115.54Z" fill="#183651"/>
<path d="M109.975 29.4278L100.897 21.6465H64.3252C61.9909 27.6121 60.6938 38.2464 60.6938 44.731V72.7436C60.6938 75.5968 62.769 78.1906 65.6219 78.4498C68.7343 78.7092 71.5876 76.3746 71.5876 73.0027C71.5876 75.856 73.9219 78.4498 77.0346 78.4498H77.2941C80.1473 78.4498 82.7411 76.1155 82.7411 73.0027C82.7411 75.856 85.0754 78.4498 88.1881 78.4498H88.4476C91.3009 78.4498 93.8946 76.1155 93.8946 73.0027V73.2622C93.8946 76.1155 96.2289 78.7092 99.3417 78.7092H99.6011C102.454 78.7092 105.048 76.3749 105.048 73.2622V53.809C105.048 56.9214 107.642 59.5152 110.754 59.2561C113.608 58.9966 115.942 56.4028 115.942 53.5499V47.5842C115.681 42.9153 113.606 32.2807 109.975 29.4278Z" fill="#FBBD5E"/>
<path d="M99.3407 81.0432H99.0812C97.0061 81.0432 94.9313 80.2651 93.6342 78.968C92.3375 80.2648 90.2623 81.0432 88.4466 81.0432H88.1872C86.112 81.0432 84.2967 80.2651 82.7402 78.968C81.4434 80.2648 79.3683 81.0432 77.2931 81.0432H77.0336C74.9585 81.0432 73.1431 80.2651 71.5866 78.968C70.0304 80.5242 67.6961 81.3023 65.3615 81.0432C61.471 80.5246 58.0991 77.1527 58.0991 72.7433V44.7307C58.0991 37.7275 59.3958 26.8337 61.7305 20.6089C62.2491 19.5714 63.0272 19.0527 64.0648 19.0527H100.637C101.155 19.0527 101.933 19.3122 102.193 19.5714L111.271 27.3527C115.94 31.2432 117.755 43.1745 117.755 47.5839V53.5496C117.755 57.959 114.383 61.59 109.974 61.8495H109.455C108.418 61.8495 107.38 61.5901 106.602 61.3309V73.0027C107.122 77.4118 103.491 81.0432 99.3407 81.0432ZM96.2283 73.0024C96.2283 74.5586 97.525 75.8557 99.0816 75.8557H99.341C100.897 75.8557 102.194 74.5589 102.194 73.0024V53.8087C102.194 52.2525 103.232 51.215 104.788 51.215C106.344 51.215 107.382 52.2525 107.382 53.8087C107.382 55.3649 108.679 56.662 110.235 56.662C111.792 56.662 113.088 55.1058 113.088 53.5496V47.5839C113.088 42.9153 111.013 33.5778 108.42 31.2432L99.8597 24.24H66.1409C64.3252 29.687 63.2877 38.765 63.2877 44.7307V72.7433C63.2877 74.2995 64.3252 75.5965 65.8814 75.8557C67.4376 76.1151 68.9938 74.8181 68.9938 73.0024C68.9938 71.4462 70.0314 70.4086 71.5876 70.4086C73.1438 70.4086 74.1814 71.4462 74.1814 73.0024C74.1814 74.5586 75.4781 75.8557 77.0346 75.8557H77.2941C78.8503 75.8557 80.1474 74.5589 80.1474 73.0024C80.1474 71.4462 81.1849 70.4086 82.7411 70.4086C84.2973 70.4086 85.3349 71.4462 85.3349 73.0024C85.3349 74.5586 86.6316 75.8557 88.1882 75.8557H88.4476C90.0038 75.8557 91.3009 74.5589 91.3009 73.0024C91.3009 71.4462 92.3385 70.4086 93.8947 70.4086C95.4509 70.4086 96.2283 71.4462 96.2283 73.0024Z" fill="#183651"/>
<path d="M108.159 3.23047H59.6562V21.6461H108.159V3.23047Z" fill="white"/>
<path d="M108.16 24.2398H59.6563C58.1001 24.2398 57.0625 23.2023 57.0625 21.6461V3.23049C57.0625 1.67429 58.1001 0.636719 59.6563 0.636719H108.159C109.715 0.636719 110.753 1.67429 110.753 3.23049V21.6461C110.753 22.9431 109.456 24.2398 108.16 24.2398ZM62.2501 19.0523H105.566V5.82427H62.2501V19.0523Z" fill="#183651"/>
<path d="M93.6345 75.5966C92.0783 75.5966 91.0408 74.559 91.0408 73.0028V59.2559C91.0408 57.6997 92.0783 56.6621 93.6345 56.6621C95.1907 56.6621 96.2283 57.6997 96.2283 59.2559V73.0028C96.2283 74.559 94.9313 75.5966 93.6345 75.5966Z" fill="#183651"/>
<path d="M82.4812 75.5966C80.925 75.5966 79.8875 74.559 79.8875 73.0028V59.2559C79.8875 57.6997 80.925 56.6621 82.4812 56.6621C84.0374 56.6621 85.075 57.6997 85.075 59.2559V73.0028C85.075 74.2999 84.0374 75.5966 82.4812 75.5966Z" fill="#183651"/>
<path d="M71.5874 75.5966C70.0312 75.5966 68.9937 74.559 68.9937 73.0028V59.2559C68.9937 57.6997 70.0312 56.6621 71.5874 56.6621C73.1436 56.6621 74.1812 57.6997 74.1812 59.2559V73.0028C74.1812 74.2999 72.8845 75.5966 71.5874 75.5966Z" fill="#183651"/>
<path d="M104.528 56.4028C102.972 56.4028 101.934 55.3653 101.934 53.8091V45.7686C101.934 44.2124 102.972 43.1748 104.528 43.1748C106.084 43.1748 107.122 44.2124 107.122 45.7686V53.8091C107.122 55.1058 106.084 56.4028 104.528 56.4028Z" fill="#183651"/>
</g>
<defs>
<clipPath id="clip0_1091_5141">
<rect width="166" height="166" fill="white" transform="translate(0 0.636719)"/>
</clipPath>
</defs>
</svg>
