<svg width="80" height="80" viewBox="0 0 80 80" fill="none" xmlns="http://www.w3.org/2000/svg">
<path d="M75.3125 32.1875H68.6188C67.9608 29.7821 67.0001 27.4731 65.7513 25.2972L69.8315 21.2177C70.7166 20.332 71.2042 19.1553 71.2042 17.9034C71.2042 16.6516 70.7166 15.4742 69.8315 14.5892L65.4108 10.1685C64.5258 9.28345 63.349 8.79578 62.0966 8.79578C60.8447 8.79578 59.668 9.28345 58.7823 10.1685L54.7028 14.2487C52.5269 12.9999 50.2179 12.0392 47.8125 11.3812V4.6875C47.8125 2.10266 45.7098 0 43.125 0H36.875C34.2902 0 32.1875 2.10266 32.1875 4.6875V11.3812C29.7821 12.0392 27.4731 12.9999 25.2972 14.2487L21.2177 10.1685C19.3903 8.34106 16.4166 8.34106 14.5892 10.1685L10.1685 14.5886C8.34106 16.4166 8.34106 19.3896 10.1685 21.217L14.2487 25.2972C12.9999 27.4731 12.0392 29.7821 11.3812 32.1875H4.6875C2.10266 32.1875 0 34.2902 0 36.875V43.125C0 45.7098 2.10266 47.8125 4.6875 47.8125H11.3812C12.0392 50.2179 12.9999 52.5269 14.2487 54.7028L10.1685 58.7823C8.34106 60.6097 8.34106 63.5834 10.1685 65.4108L14.5892 69.8315C16.4166 71.6589 19.3903 71.6589 21.2177 69.8315L25.2972 65.7513C27.4731 67.0001 29.7821 67.9608 32.1875 68.6188V75.3125C32.1875 77.8973 34.2902 80 36.875 80H43.125C45.7098 80 47.8125 77.8973 47.8125 75.3125V68.6188C50.2179 67.9608 52.5269 67.0001 54.7028 65.7513L58.783 69.8315C59.668 70.7166 60.8447 71.2042 62.0972 71.2042C63.349 71.2042 64.5258 70.7166 65.4114 69.8315L69.8315 65.4114C70.7166 64.5258 71.2042 63.349 71.2042 62.0972C71.2042 60.8453 70.7166 59.668 69.8315 58.783L65.7513 54.7028C67.0001 52.5275 67.9608 50.2185 68.6188 47.8131H75.3125C77.8973 47.8131 80 45.7098 80 43.1256V36.8756C80 34.2902 77.8973 32.1875 75.3125 32.1875ZM76.875 43.125C76.875 43.9868 76.1743 44.6875 75.3125 44.6875H67.3999C66.6711 44.6875 66.0388 45.1917 65.8765 45.9021C65.2136 48.8068 64.0649 51.5686 62.4615 54.1101C62.0721 54.7278 62.1619 55.5322 62.6782 56.0486L67.6215 60.9924C67.9169 61.2872 68.0798 61.6797 68.0798 62.0972C68.0798 62.514 67.9169 62.9065 67.6215 63.2013L63.2013 67.6221C62.9065 67.9169 62.514 68.0792 62.0972 68.0792C61.6797 68.0792 61.2878 67.9169 60.9924 67.6215L56.0486 62.6782C55.5322 62.1619 54.7278 62.0721 54.1101 62.4615C51.5686 64.0649 48.8074 65.2142 45.9027 65.8765C45.1917 66.0388 44.6881 66.6711 44.6881 67.3999V75.3125C44.6881 76.1743 43.9868 76.875 43.1256 76.875H36.8756C36.0138 76.875 35.3131 76.1743 35.3131 75.3125V67.3999C35.3131 66.6711 34.8083 66.0388 34.0979 65.8765C31.1932 65.2136 28.432 64.0649 25.8905 62.4615C25.6335 62.2992 25.3442 62.2205 25.0568 62.2205C24.6533 62.2205 24.2529 62.3767 23.9514 62.6782L19.0082 67.6215C18.399 68.2306 17.4078 68.2306 16.7987 67.6215L12.3785 63.2013C11.7694 62.5928 11.7694 61.6016 12.3785 60.9924L17.3224 56.0486C17.8387 55.5322 17.9285 54.7272 17.5391 54.1101C15.9357 51.568 14.7864 48.8068 14.1235 45.9027C13.9618 45.1917 13.3295 44.6875 12.6001 44.6875H4.6875C3.82568 44.6875 3.125 43.9868 3.125 43.125V36.875C3.125 36.0132 3.82568 35.3125 4.6875 35.3125H12.6001C13.3289 35.3125 13.9612 34.8083 14.1235 34.0973C14.7864 31.1932 15.9351 28.4314 17.5385 25.8899C17.9285 25.2722 17.8381 24.4678 17.3224 23.9514L12.3785 19.0076C11.7694 18.399 11.7694 17.4078 12.3785 16.7987L16.7987 12.3785C17.4078 11.7694 18.399 11.7694 19.0076 12.3785L23.9514 17.3224C24.4678 17.8387 25.2728 17.9285 25.8899 17.5391C28.432 15.9351 31.1932 14.7864 34.0979 14.1235C34.8083 13.9612 35.3125 13.3295 35.3125 12.6001V4.6875C35.3125 3.82568 36.0138 3.125 36.875 3.125H43.125C43.9868 3.125 44.6875 3.82568 44.6875 4.6875V12.6001C44.6875 13.3289 45.1917 13.9612 45.9027 14.1235C48.8068 14.7864 51.5686 15.9351 54.1101 17.5385C54.7272 17.9279 55.5322 17.8381 56.0486 17.3224L60.9924 12.3785C61.2878 12.0831 61.6797 11.9208 62.0972 11.9208C62.514 11.9208 62.9065 12.0831 63.2013 12.3785L67.6215 16.7987C67.9169 17.0941 68.0792 17.486 68.0792 17.9034C68.0792 18.3203 67.9169 18.7128 67.6215 19.0076L62.6776 23.9514C62.1619 24.4678 62.0715 25.2728 62.4615 25.8899C64.0649 28.4314 65.2136 31.1926 65.8765 34.0979C66.0388 34.8083 66.6705 35.3125 67.3999 35.3125H75.3125C76.1743 35.3125 76.875 36.0132 76.875 36.875V43.125Z" fill="black"/>
</svg>
