<svg width="18" height="17" viewBox="0 0 18 17" fill="none" xmlns="http://www.w3.org/2000/svg">
<path d="M16.4167 0H1.58341C1.3403 0 1.10714 0.0965772 0.935234 0.268486C0.763325 0.440394 0.666748 0.673551 0.666748 0.916667V15.75C0.666748 15.8704 0.690458 15.9896 0.736525 16.1008C0.782592 16.212 0.850113 16.3131 0.935234 16.3982C1.02035 16.4833 1.12141 16.5508 1.23262 16.5969C1.34384 16.643 1.46304 16.6667 1.58341 16.6667H9.56675V10.2083H7.40008V7.70833H9.56675V5.83333C9.52187 5.39313 9.57384 4.94844 9.71901 4.53045C9.86419 4.11246 10.0991 3.73129 10.4071 3.41368C10.7152 3.09606 11.0891 2.8497 11.5024 2.69187C11.9158 2.53403 12.3587 2.46854 12.8001 2.5C13.4487 2.49601 14.097 2.5294 14.7417 2.6V4.85H13.4167C12.3667 4.85 12.1667 5.35 12.1667 6.075V7.68333H14.6667L14.3417 10.1833H12.1667V16.6667H16.4167C16.5371 16.6667 16.6563 16.643 16.7675 16.5969C16.8788 16.5508 16.9798 16.4833 17.0649 16.3982C17.1501 16.3131 17.2176 16.212 17.2636 16.1008C17.3097 15.9896 17.3334 15.8704 17.3334 15.75V0.916667C17.3334 0.796288 17.3097 0.677089 17.2636 0.565874C17.2176 0.454658 17.1501 0.353606 17.0649 0.268486C16.9798 0.183365 16.8788 0.115844 16.7675 0.0697772C16.6563 0.0237104 16.5371 0 16.4167 0Z" fill="white"/>
</svg>
