<svg width="20" height="20" viewBox="0 0 20 20" fill="none" xmlns="http://www.w3.org/2000/svg">
<g clip-path="url(#clip0_597_737)">
<path d="M19.8743 7.51865L19.3533 6.6163C19.2455 6.42951 19.0067 6.36549 18.8197 6.47333C18.6329 6.58118 18.5689 6.82008 18.6768 7.00691L19.1977 7.90927C19.2252 7.95684 19.2191 8.00215 19.213 8.02493C19.2069 8.0477 19.1895 8.09004 19.1419 8.1175L17.7643 8.91287C17.6914 8.95482 17.5981 8.92978 17.556 8.85705L14.7847 4.05696C14.7426 3.98415 14.7677 3.89072 14.8405 3.84865L16.218 3.05332C16.2909 3.01137 16.3844 3.03629 16.4264 3.1091L16.919 3.9624C17.0269 4.14927 17.2658 4.21329 17.4526 4.10536C17.6394 3.99751 17.7034 3.75861 17.5955 3.57178L17.1029 2.71849C16.8455 2.27268 16.2734 2.11929 15.8275 2.37674L14.4499 3.17211C14.2406 3.29296 14.0958 3.48315 14.0276 3.69705H10.1223C9.57396 3.69705 9.05846 3.91056 8.6707 4.29829L8.27056 4.69843C7.91971 4.6148 7.56027 4.57179 7.1988 4.57179H5.98618C5.92559 4.33778 5.77509 4.12716 5.54971 3.99701L4.17209 3.20164C3.95608 3.07692 3.70437 3.04383 3.46356 3.10836C3.22267 3.17289 3.02131 3.32742 2.89663 3.54339L0.125267 8.34351C0.000583444 8.55948 -0.0325796 8.81111 0.0319496 9.05204C0.0964789 9.29297 0.251005 9.4943 0.467014 9.61898L1.84463 10.4143C1.9913 10.499 2.15157 10.5393 2.30989 10.5393C2.36758 10.5393 2.42496 10.5337 2.48137 10.5232L3.60891 11.6508C3.59164 11.7394 3.5827 11.8303 3.5827 11.9227C3.5827 12.298 3.72887 12.6509 3.99429 12.9163C4.24842 13.1704 4.57646 13.3064 4.90984 13.3248C4.90473 13.3738 4.90195 13.4233 4.90195 13.4732C4.90195 13.8486 5.04812 14.2015 5.31354 14.4668C5.57896 14.7323 5.93184 14.8784 6.30718 14.8784C6.31738 14.8784 6.32746 14.8779 6.33761 14.8777C6.33738 14.8878 6.33687 14.8979 6.33687 14.9081C6.33687 15.2835 6.48304 15.6364 6.74846 15.9018C7.01388 16.1672 7.36676 16.3133 7.7421 16.3133C7.75229 16.3133 7.76237 16.3128 7.77253 16.3126C7.77229 16.3228 7.77179 16.3328 7.77179 16.343C7.77179 16.7184 7.91795 17.0713 8.18337 17.3367C8.4488 17.602 8.80168 17.7483 9.17702 17.7483C9.55235 17.7483 9.90527 17.6021 10.1707 17.3367L10.7263 16.781C10.8893 16.6181 11.0033 16.4247 11.0694 16.219C11.3162 16.4012 11.6096 16.4924 11.9031 16.4923C12.2629 16.4923 12.6228 16.3553 12.8967 16.0814C13.0606 15.9175 13.1788 15.7202 13.2455 15.5049C13.4716 15.6528 13.7357 15.7323 14.0122 15.7323C14.3876 15.7323 14.7405 15.5861 15.0059 15.3207C15.2031 15.1235 15.3343 14.8779 15.3888 14.6107C15.5299 14.6575 15.679 14.6821 15.8319 14.6821C16.2072 14.6821 16.5602 14.5359 16.8256 14.2705C17.3734 13.7226 17.3734 12.8311 16.8256 12.2832L15.9139 11.3715L17.578 9.70734C17.615 9.71175 17.6522 9.71425 17.6896 9.71425C17.8479 9.71425 18.0082 9.67402 18.1548 9.58937L19.5324 8.79404C19.7484 8.66932 19.9029 8.468 19.9675 8.22707C20.0321 7.98614 19.9989 7.73462 19.8743 7.51865ZM0.857588 8.94244C0.810011 8.91498 0.792668 8.87267 0.786574 8.84986C0.780481 8.82709 0.774348 8.78178 0.801847 8.73416L3.57321 3.934C3.60067 3.88642 3.64301 3.86908 3.66578 3.86299C3.67551 3.86041 3.68934 3.85779 3.70566 3.85779C3.72765 3.85779 3.75418 3.86252 3.78144 3.87822L5.15905 4.67359C5.23183 4.71562 5.2569 4.80905 5.21487 4.88186L2.44351 9.68198C2.40145 9.75476 2.30809 9.77983 2.23524 9.7378L0.857588 8.94244ZM4.36392 11.9226C4.36392 11.7559 4.42884 11.5992 4.54673 11.4813L4.88383 11.1442C5.00547 11.0226 5.16527 10.9617 5.3251 10.9617C5.48486 10.9617 5.6447 11.0226 5.76634 11.1442C5.88423 11.2621 5.94915 11.4188 5.94915 11.5855C5.94915 11.7522 5.88423 11.9089 5.76634 12.0267L5.42924 12.3638C5.18593 12.6072 4.79004 12.6071 4.54673 12.3638C4.42884 12.246 4.36392 12.0893 4.36392 11.9226ZM6.30722 14.0972C6.14051 14.0972 5.98383 14.0323 5.86599 13.9144C5.7481 13.7966 5.68318 13.6399 5.68318 13.4732C5.68318 13.3065 5.7481 13.1498 5.86599 13.032L6.42163 12.4763C6.54327 12.3547 6.70307 12.2939 6.86287 12.2939C7.02271 12.2939 7.18251 12.3547 7.30414 12.4763C7.42203 12.5942 7.48695 12.7509 7.48695 12.9175C7.48695 13.0842 7.42203 13.2409 7.30414 13.3588L6.7485 13.9144C6.63061 14.0323 6.4739 14.0972 6.30722 14.0972ZM7.74214 15.5322C7.57542 15.5322 7.41875 15.4672 7.3009 15.3494C7.18301 15.2315 7.11809 15.0748 7.11809 14.9081C7.11809 14.7415 7.18301 14.5848 7.3009 14.4669L7.85655 13.9112C7.97819 13.7896 8.13799 13.7288 8.29778 13.7288C8.45758 13.7288 8.61742 13.7896 8.73906 13.9113C8.85695 14.0291 8.92187 14.1858 8.92187 14.3525C8.92187 14.5192 8.85695 14.6759 8.73906 14.7937L8.18341 15.3494C8.06557 15.4672 7.90885 15.5322 7.74214 15.5322ZM10.174 16.2287L9.61829 16.7843C9.50044 16.9022 9.34377 16.9671 9.17705 16.9671C9.01034 16.9671 8.85367 16.9022 8.73582 16.7843C8.61793 16.6665 8.55301 16.5098 8.55301 16.3431C8.55301 16.1764 8.61793 16.0197 8.73582 15.9018L9.29146 15.3462C9.4131 15.2245 9.5729 15.1637 9.73274 15.1637C9.8925 15.1637 10.0523 15.2245 10.174 15.3461C10.4173 15.5894 10.4173 15.9853 10.174 16.2287ZM16.2732 13.7181C16.1554 13.836 15.9987 13.901 15.832 13.901C15.6653 13.901 15.5086 13.836 15.3907 13.7181L11.6623 9.98975C11.5098 9.83725 11.2625 9.83721 11.1099 9.98975C10.9574 10.1423 10.9574 10.3896 11.1099 10.5422L14.4535 13.8858C14.5714 14.0037 14.6363 14.1604 14.6363 14.3271C14.6363 14.4937 14.5714 14.6505 14.4535 14.7683C14.3357 14.8862 14.179 14.9511 14.0123 14.9511C13.8456 14.9511 13.6889 14.8862 13.5711 14.7683L9.55317 10.7505C9.40064 10.598 9.15331 10.598 9.00073 10.7505C8.8482 10.903 8.8482 11.1503 9.00073 11.3029L12.3444 14.6466C12.4623 14.7644 12.5272 14.9211 12.5272 15.0878C12.5272 15.2545 12.4623 15.4112 12.3444 15.529C12.1011 15.7723 11.7052 15.7724 11.4619 15.529L10.7265 14.7937C10.7255 14.7926 10.7243 14.7918 10.7233 14.7908C10.442 14.5112 10.0709 14.3757 9.70235 14.3836C9.70258 14.3732 9.70309 14.3629 9.70309 14.3525C9.70309 13.9772 9.55692 13.6242 9.2915 13.3588C9.00983 13.0772 8.63734 12.9407 8.2674 12.9486C8.26763 12.9383 8.26814 12.928 8.26814 12.9176C8.26814 12.5422 8.12197 12.1893 7.85655 11.9239C7.54851 11.6159 7.13184 11.4811 6.72873 11.5194C6.7126 11.1689 6.5685 10.8416 6.31874 10.5919C5.77083 10.044 4.8793 10.0441 4.33139 10.5919L3.99429 10.929C3.9939 10.9294 3.99351 10.9298 3.99311 10.9302L3.12572 10.0628L5.84489 5.35302H7.19876C7.33141 5.35302 7.46371 5.36005 7.59527 5.37372L7.14876 5.82023C6.88334 6.08565 6.73717 6.43857 6.73717 6.81391C6.73717 7.18929 6.88334 7.54217 7.14876 7.80759C7.42273 8.08153 7.78261 8.21851 8.1424 8.21851C8.50227 8.21851 8.86214 8.08157 9.13608 7.80759L10.1906 6.75309L16.2732 12.8357C16.5165 13.0789 16.5165 13.4749 16.2732 13.7181ZM12.5203 7.9779C13.0887 7.5665 13.4372 6.90262 13.4372 6.18135C13.4372 5.96562 13.2622 5.79074 13.0465 5.79074C12.8308 5.79074 12.6559 5.96562 12.6559 6.18135C12.6559 6.69161 12.3864 7.15702 11.9564 7.41401L10.4686 5.92624C10.316 5.77371 10.0691 5.76972 9.91656 5.92226L8.58367 7.25515C8.34036 7.49846 7.94448 7.49842 7.70116 7.25515C7.58328 7.1373 7.51836 6.98058 7.51836 6.81391C7.51836 6.64724 7.58328 6.49052 7.70116 6.37263L9.22311 4.85069C9.46326 4.61054 9.78258 4.47828 10.1223 4.47828H14.1258L16.8795 9.24774C16.886 9.25903 16.8931 9.26977 16.9 9.28067L15.3615 10.8191L12.5203 7.9779Z" fill="white"/>
<path d="M18.1372 5.67993C18.2399 5.67993 18.3403 5.63813 18.4134 5.56548C18.486 5.49243 18.5278 5.39204 18.5278 5.28931C18.5278 5.18618 18.486 5.08579 18.4134 5.01274C18.3403 4.94009 18.2399 4.89868 18.1372 4.89868C18.0341 4.89868 17.9337 4.94009 17.861 5.01274C17.788 5.08579 17.7466 5.18618 17.7466 5.28931C17.7466 5.39204 17.788 5.49243 17.861 5.56548C17.9337 5.63817 18.0341 5.67993 18.1372 5.67993Z" fill="white"/>
</g>
<defs>
<clipPath id="clip0_597_737">
<rect width="20" height="20" fill="white"/>
</clipPath>
</defs>
</svg>
