<svg width="34" height="33" viewBox="0 0 34 33" fill="none" xmlns="http://www.w3.org/2000/svg">
<path d="M24.6709 7.5075C24.345 7.5075 24.0264 7.60427 23.7555 7.78558C23.4845 7.96688 23.2733 8.22457 23.1486 8.52607C23.0238 8.82757 22.9912 9.15933 23.0548 9.4794C23.1184 9.79947 23.2753 10.0935 23.5057 10.3242C23.7362 10.555 24.0298 10.7121 24.3495 10.7758C24.6691 10.8395 25.0004 10.8068 25.3015 10.6819C25.6026 10.557 25.86 10.3455 26.041 10.0742C26.2221 9.80285 26.3187 9.48384 26.3187 9.1575C26.3187 8.71989 26.1451 8.30021 25.8361 7.99077C25.5271 7.68134 25.1079 7.5075 24.6709 7.5075ZM30.9875 10.835C30.9608 9.69416 30.7474 8.56543 30.3558 7.49375C30.0067 6.57681 29.4633 5.74651 28.763 5.06C28.083 4.35521 27.2519 3.81449 26.3325 3.47875C25.265 3.07472 24.1366 2.85616 22.9957 2.8325C21.5401 2.75 21.0732 2.75 17.3382 2.75C13.6032 2.75 13.1363 2.75 11.6807 2.8325C10.5398 2.85616 9.41136 3.07472 8.34394 3.47875C7.42622 3.81789 6.5958 4.35815 5.91343 5.06C5.20958 5.74087 4.66958 6.5731 4.33429 7.49375C3.9308 8.5626 3.71253 9.69258 3.6889 10.835C3.60651 12.2925 3.60651 12.76 3.60651 16.5C3.60651 20.24 3.60651 20.7075 3.6889 22.165C3.71253 23.3074 3.9308 24.4374 4.33429 25.5062C4.66958 26.4269 5.20958 27.2591 5.91343 27.94C6.5958 28.6419 7.42622 29.1821 8.34394 29.5212C9.41136 29.9253 10.5398 30.1438 11.6807 30.1675C13.1363 30.25 13.6032 30.25 17.3382 30.25C21.0732 30.25 21.5401 30.25 22.9957 30.1675C24.1366 30.1438 25.265 29.9253 26.3325 29.5212C27.2519 29.1855 28.083 28.6448 28.763 27.94C29.4664 27.256 30.0103 26.425 30.3558 25.5062C30.7474 24.4346 30.9608 23.3058 30.9875 22.165C30.9875 20.7075 31.0699 20.24 31.0699 16.5C31.0699 12.76 31.0699 12.2925 30.9875 10.835ZM28.5158 22C28.5058 22.8728 28.3479 23.7376 28.0489 24.5575C27.8297 25.1559 27.4775 25.6966 27.019 26.1388C26.5736 26.5932 26.0348 26.9451 25.4399 27.17C24.6211 27.4694 23.7575 27.6275 22.8858 27.6375C21.5126 27.7063 21.0046 27.72 17.3931 27.72C13.7817 27.72 13.2736 27.72 11.9004 27.6375C10.9954 27.6545 10.0942 27.5149 9.2365 27.225C8.66771 26.9886 8.15356 26.6376 7.72601 26.1937C7.27024 25.752 6.92249 25.2109 6.70987 24.6125C6.37462 23.7808 6.18867 22.8964 6.1606 22C6.1606 20.625 6.07821 20.1163 6.07821 16.5C6.07821 12.8837 6.07821 12.375 6.1606 11C6.16676 10.1077 6.32943 9.22342 6.64121 8.3875C6.88295 7.80713 7.25401 7.28978 7.72601 6.875C8.1432 6.40223 8.65879 6.02676 9.2365 5.775C10.0735 5.47256 10.9557 5.31448 11.8455 5.3075C13.2187 5.3075 13.7268 5.225 17.3382 5.225C20.9496 5.225 21.4577 5.225 22.8309 5.3075C23.7025 5.31751 24.5662 5.47559 25.385 5.775C26.009 6.0069 26.569 6.38391 27.019 6.875C27.469 7.29737 27.8206 7.81376 28.0489 8.3875C28.3541 9.22478 28.5121 10.1087 28.5158 11C28.5845 12.375 28.5982 12.8837 28.5982 16.5C28.5982 20.1163 28.5845 20.625 28.5158 22ZM17.3382 9.44625C15.9455 9.44897 14.5849 9.86497 13.4283 10.6417C12.2717 11.4184 11.3709 12.521 10.8399 13.8102C10.3088 15.0993 10.1712 16.5171 10.4446 17.8845C10.718 19.2519 11.39 20.5075 12.3757 21.4926C13.3614 22.4777 14.6166 23.1481 15.9827 23.4192C17.3488 23.6903 18.7645 23.5498 20.0508 23.0155C21.3372 22.4812 22.4366 21.5771 23.21 20.4174C23.9835 19.2577 24.3963 17.8945 24.3963 16.5C24.3981 15.572 24.2167 14.6528 23.8625 13.7953C23.5082 12.9378 22.9882 12.1589 22.3322 11.5033C21.6763 10.8478 20.8974 10.3286 20.0403 9.97553C19.1833 9.6225 18.2649 9.44262 17.3382 9.44625ZM17.3382 21.0788C16.4338 21.0788 15.5497 20.8102 14.7978 20.3071C14.0458 19.804 13.4597 19.0889 13.1136 18.2522C12.7675 17.4156 12.677 16.4949 12.8534 15.6067C13.0298 14.7185 13.4653 13.9027 14.1048 13.2623C14.7443 12.622 15.5591 12.1859 16.4461 12.0092C17.3331 11.8326 18.2525 11.9232 19.0881 12.2698C19.9236 12.6163 20.6378 13.2032 21.1402 13.9562C21.6427 14.7092 21.9109 15.5944 21.9109 16.5C21.9109 17.1013 21.7926 17.6967 21.5628 18.2522C21.333 18.8077 20.9962 19.3125 20.5716 19.7377C20.1469 20.1628 19.6429 20.5001 19.0881 20.7302C18.5333 20.9603 17.9387 21.0788 17.3382 21.0788Z" fill="white"/>
</svg>
