<svg width="31" height="30" viewBox="0 0 31 30" fill="none" xmlns="http://www.w3.org/2000/svg">
<g clip-path="url(#clip0_1453_4926)">
<path fill-rule="evenodd" clip-rule="evenodd" d="M27.7364 27H21.7767V17.5081C21.7767 15.0241 20.8452 13.3279 18.7947 13.3279C17.2271 13.3279 16.3551 14.4727 15.9494 15.5756C15.7968 15.9712 15.8207 16.5227 15.8207 17.0741V27H9.91683C9.91683 27 9.99282 10.1864 9.91683 8.65822H15.8207V11.5371C16.1701 10.2782 18.0563 8.48206 21.0665 8.48206C24.8016 8.48206 27.7364 11.1199 27.7364 16.8014V27ZM3.94674 6.36391H3.90814C2.00595 6.36391 0.772339 4.96192 0.772339 3.18464C0.772339 1.37294 2.04211 0 3.98291 0C5.92187 0 7.11439 1.36957 7.15177 3.17924C7.15177 4.95652 5.92185 6.36391 3.94674 6.36391ZM1.45256 8.65822H6.70809V27H1.45256V8.65822Z" fill="white"/>
</g>
<defs>
<clipPath id="clip0_1453_4926">
<rect width="29.9601" height="30" fill="white" transform="translate(0.772339)"/>
</clipPath>
</defs>
</svg>
