<svg width="92" height="84" viewBox="0 0 92 84" fill="none" xmlns="http://www.w3.org/2000/svg">
<path fill-rule="evenodd" clip-rule="evenodd" d="M9.36921 0.211647C8.87935 0.305584 8.44021 0.418045 8.39325 0.461706C8.3463 0.505367 8.1889 0.541089 8.04397 0.541089C7.89904 0.541089 7.74802 0.588719 7.7086 0.646934C7.66918 0.705149 7.53556 0.752779 7.41179 0.752779C7.28802 0.752779 7.18685 0.80041 7.18685 0.858625C7.18685 0.91684 7.0825 0.964469 6.95497 0.964469C6.82743 0.964469 6.72308 1.0121 6.72308 1.07032C6.72308 1.12853 6.61873 1.17616 6.49119 1.17616C6.36365 1.17616 6.2593 1.22379 6.2593 1.28201C6.2593 1.34022 6.15495 1.38785 6.02741 1.38785C5.89987 1.38785 5.79553 1.43548 5.79553 1.4937C5.79553 1.55191 5.71726 1.59954 5.62161 1.59954C5.52595 1.59954 5.44769 1.63685 5.44769 1.68263C5.44769 1.72814 5.28827 1.85145 5.09348 1.9565C4.70855 2.16422 2.43344 4.18613 2.43257 4.32135C2.43228 4.36713 2.28561 4.54733 2.10676 4.72197C1.92792 4.89662 1.70676 5.19431 1.61516 5.3835C1.52385 5.5727 1.40965 5.7275 1.36124 5.7275C1.31313 5.7275 1.2737 5.82276 1.2737 5.93919C1.2737 6.05562 1.22153 6.15088 1.15776 6.15088C1.09399 6.15088 1.04182 6.24614 1.04182 6.36257C1.04182 6.479 0.989641 6.57426 0.925872 6.57426C0.862103 6.57426 0.809928 6.66661 0.809928 6.7796C0.809928 6.89259 0.757752 7.01458 0.693983 7.05057C0.630214 7.08655 0.57804 7.22442 0.57804 7.35672C0.57804 7.48903 0.541516 7.63086 0.496878 7.67161C-0.00516016 8.12992 0.00237694 7.60573 0.00034792 42.0218C-0.0016811 76.1233 -0.0095073 75.5604 0.467313 76.3513C0.528184 76.4524 0.57804 76.6281 0.57804 76.7419C0.57804 76.8557 0.630214 76.9782 0.693983 77.0142C0.757752 77.0502 0.809928 77.1722 0.809928 77.2852C0.809928 77.3982 0.862103 77.4905 0.925872 77.4905C0.989641 77.4905 1.04182 77.5858 1.04182 77.7022C1.04182 77.8186 1.09399 77.9139 1.15776 77.9139C1.22153 77.9139 1.2737 78.0091 1.2737 78.1256C1.2737 78.242 1.32588 78.3373 1.38965 78.3373C1.45342 78.3373 1.50559 78.4325 1.50559 78.549C1.50559 78.6654 1.55777 78.7606 1.62154 78.7606C1.68531 78.7606 1.73748 78.8109 1.73748 78.8723C1.73748 78.9337 1.89371 79.1361 2.08473 79.3222C2.27575 79.5082 2.43228 79.6966 2.43257 79.741C2.43344 79.8564 4.61174 81.8302 4.7384 81.8302C4.79609 81.8302 5.0071 81.9696 5.20711 82.1403C5.40711 82.3107 5.72567 82.5129 5.91495 82.5896C6.10423 82.6661 6.2593 82.7645 6.2593 82.8087C6.2593 82.8526 6.36365 82.8886 6.49119 82.8886C6.61873 82.8886 6.72308 82.9362 6.72308 82.9944C6.72308 83.0527 6.82743 83.1003 6.95497 83.1003C7.0825 83.1003 7.18685 83.1392 7.18685 83.1871C7.18685 83.2347 7.45092 83.3395 7.77382 83.4197C8.09673 83.4999 8.38688 83.6039 8.41847 83.6504C8.45007 83.6973 8.65123 83.7354 8.86515 83.7354C9.07935 83.7354 9.27617 83.7949 9.30284 83.8677C9.34139 83.9733 16.7569 84 45.8638 84C83.5822 84 82.8024 84.0079 83.6216 83.6192C83.7323 83.5665 83.9248 83.5237 84.0494 83.5237C84.174 83.5237 84.3083 83.476 84.3477 83.4178C84.3871 83.3596 84.5207 83.312 84.6445 83.312C84.7682 83.312 84.8694 83.2644 84.8694 83.2061C84.8694 83.1479 84.9427 83.1003 85.0323 83.1003C85.2254 83.1003 86.1857 82.6589 86.2413 82.5446C86.2628 82.5009 86.3541 82.4652 86.4442 82.4652C86.5347 82.4652 86.6086 82.4176 86.6086 82.3594C86.6086 82.3012 86.6868 82.2535 86.7825 82.2535C86.8782 82.2535 86.9564 82.2059 86.9564 82.1477C86.9564 82.0895 87.0103 82.0418 87.0761 82.0418C87.2097 82.0418 89.7391 79.7506 89.7391 79.6294C89.7391 79.587 89.8594 79.4338 90.0066 79.2888C90.1536 79.1438 90.3489 78.8705 90.4405 78.6813C90.5324 78.4921 90.6466 78.3373 90.695 78.3373C90.7431 78.3373 90.7826 78.242 90.7826 78.1256C90.7826 78.0091 90.8347 77.9139 90.8985 77.9139C90.9623 77.9139 91.0145 77.8186 91.0145 77.7022C91.0145 77.5858 91.0666 77.4905 91.1304 77.4905C91.1942 77.4905 91.2463 77.3982 91.2463 77.2852C91.2463 77.1722 91.2985 77.0502 91.3623 77.0142C91.4261 76.9782 91.4782 76.8353 91.4782 76.6967C91.4782 76.558 91.5304 76.4151 91.5942 76.3791C91.6579 76.3431 91.7101 76.1831 91.7101 76.0235C91.7101 75.8639 91.7753 75.6739 91.855 75.6012C91.9704 75.4958 92 68.6659 92 42.1594C92 7.7502 92.0087 8.46122 91.5829 7.71342C91.5252 7.61234 91.4782 7.43664 91.4782 7.32285C91.4782 7.20907 91.4261 7.08655 91.3623 7.05057C91.2985 7.01458 91.2463 6.89259 91.2463 6.7796C91.2463 6.66661 91.1942 6.57426 91.1304 6.57426C91.0666 6.57426 91.0145 6.479 91.0145 6.36257C91.0145 6.24614 90.9623 6.15088 90.8985 6.15088C90.8347 6.15088 90.7826 6.05562 90.7826 5.93919C90.7826 5.82276 90.7431 5.7275 90.695 5.7275C90.6466 5.7275 90.5324 5.5727 90.4411 5.3835C90.3495 5.19431 90.1283 4.89662 89.9495 4.72197C89.7707 4.54733 89.624 4.36818 89.6237 4.32373C89.6228 4.20201 87.4408 2.23461 87.3068 2.23461C87.2428 2.23461 87.0463 2.09966 86.8703 1.93454C86.6947 1.76942 86.381 1.56726 86.1738 1.48523C85.9665 1.4032 85.797 1.30026 85.797 1.25607C85.797 1.21215 85.6926 1.17616 85.5651 1.17616C85.4375 1.17616 85.3332 1.12853 85.3332 1.07032C85.3332 1.0121 85.2288 0.964469 85.1013 0.964469C84.9738 0.964469 84.8694 0.927159 84.8694 0.881646C84.8694 0.836132 84.6216 0.732933 84.3187 0.652226C84.0158 0.571519 83.6897 0.471231 83.594 0.429158C83.4984 0.387085 82.9766 0.275947 82.4346 0.181745C80.9302 -0.0791636 10.7376 -0.0503201 9.36921 0.211647ZM19.245 10.0672V15.4653H12.1725H5.09986V12.9842C5.09986 11.4442 5.14392 10.4781 5.2158 10.4376C5.27957 10.4016 5.33175 10.1606 5.33175 9.90203C5.33175 9.64351 5.38392 9.43208 5.44769 9.43208C5.51146 9.43208 5.56364 9.34132 5.56364 9.23045C5.56364 9.01452 6.0277 8.1323 6.17234 8.07382C6.22017 8.05424 6.2593 7.96718 6.2593 7.87986C6.2593 7.67796 8.41905 5.7275 8.64282 5.7275C8.73471 5.7275 8.81007 5.67987 8.81007 5.62166C8.81007 5.56344 8.91442 5.51581 9.04196 5.51581C9.1695 5.51581 9.27414 5.48009 9.27472 5.43643C9.27588 5.32899 9.84951 5.09243 10.1086 5.09243C10.2234 5.09243 10.3173 5.0448 10.3173 4.98659C10.3173 4.92837 10.5489 4.88074 10.8321 4.88074C11.1153 4.88074 11.3794 4.83311 11.4188 4.7749C11.4643 4.70768 12.9078 4.66905 15.3679 4.66905H19.245V10.0672ZM67.7097 42.0324V79.3957H46.0281H24.3466V42.0324V4.66905H46.0281H67.7097V42.0324ZM80.8114 4.7749C80.8114 4.83311 81.0201 4.88074 81.2751 4.88074C81.5302 4.88074 81.7389 4.92837 81.7389 4.98659C81.7389 5.0448 81.8954 5.09243 82.0868 5.09243C82.2781 5.09243 82.4346 5.14006 82.4346 5.19828C82.4346 5.25649 82.5389 5.30412 82.6665 5.30412C82.794 5.30412 82.8984 5.35175 82.8984 5.40997C82.8984 5.46818 82.9766 5.51581 83.0723 5.51581C83.1679 5.51581 83.2462 5.56344 83.2462 5.62166C83.2462 5.67987 83.339 5.7275 83.4526 5.7275C83.5659 5.7275 83.734 5.82276 83.8259 5.93919C83.9178 6.05562 84.0497 6.15088 84.1187 6.15088C84.2804 6.15088 85.1013 6.83517 85.1013 6.96986C85.1013 7.02596 85.2578 7.22151 85.4491 7.40435C85.6404 7.5872 85.797 7.80445 85.797 7.88754C85.797 7.97062 85.8361 8.05424 85.8839 8.07382C86.0286 8.1323 86.4926 9.01452 86.4926 9.23045C86.4926 9.34132 86.5448 9.43208 86.6086 9.43208C86.6723 9.43208 86.7245 9.64351 86.7245 9.90203C86.7245 10.1606 86.7767 10.4016 86.8405 10.4376C86.9123 10.4781 86.9564 11.4442 86.9564 12.9842V15.4653H79.8838H72.8112V10.0672V4.66905H76.8113C79.4006 4.66905 80.8114 4.70636 80.8114 4.7749ZM19.245 25.5205V30.8128H12.1725H5.09986V25.5205V20.2283H12.1725H19.245V25.5205ZM86.9564 25.5205V30.8128H79.8838H72.8112V25.5205V20.2283H79.8838H86.9564V25.5205ZM34.9966 26.692C34.496 26.9238 34.0946 27.3591 34.0053 27.7668C33.9699 27.9285 33.8955 28.0608 33.8395 28.0608C33.7821 28.0608 33.7381 34.1191 33.7381 42.0324C33.7381 51.2761 33.7772 56.0039 33.854 56.0039C33.9178 56.0039 33.9699 56.1193 33.9699 56.2604C33.9699 57.5392 37.3651 58.1211 38.3712 57.0148C38.4529 56.9245 38.5805 56.8507 38.6544 56.8507C38.728 56.8507 38.8637 56.7554 38.9555 56.639C39.0474 56.5226 39.204 56.4273 39.3034 56.4273C39.4028 56.4273 39.5593 56.3321 39.6512 56.2156C39.7431 56.0992 39.8996 56.0039 39.999 56.0039C40.0985 56.0039 40.255 55.9087 40.3469 55.7923C40.4388 55.6758 40.5953 55.5806 40.6947 55.5806C40.7941 55.5806 40.9507 55.4853 41.0425 55.3689C41.1344 55.2524 41.291 55.1572 41.3904 55.1572C41.4898 55.1572 41.6463 55.0619 41.7382 54.9455C41.8301 54.8291 41.9866 54.7338 42.086 54.7338C42.1855 54.7338 42.342 54.6385 42.4339 54.5221C42.5258 54.4057 42.6823 54.3104 42.7817 54.3104C42.8811 54.3104 43.0376 54.2152 43.1295 54.0987C43.2214 53.9823 43.3519 53.887 43.4194 53.887C43.4869 53.887 43.6174 53.7918 43.7093 53.6754C43.8011 53.5589 43.9577 53.4637 44.0571 53.4637C44.1565 53.4637 44.313 53.3684 44.4049 53.252C44.4968 53.1355 44.6612 53.0403 44.7701 53.0403C44.8788 53.0403 45.0371 52.9807 45.1212 52.908C45.2055 52.8352 45.418 52.7082 45.5933 52.6254C45.7687 52.5428 45.9122 52.4356 45.9122 52.3872C45.9122 52.3391 46.0049 52.2994 46.1186 52.2994C46.2319 52.2994 46.4 52.2041 46.4919 52.0877C46.5838 51.9712 46.7328 51.876 46.8226 51.876C46.9128 51.876 47.0708 51.7924 47.174 51.69C47.2771 51.5878 47.505 51.4367 47.6803 51.3547C47.8557 51.2724 47.9992 51.1655 47.9992 51.1171C47.9992 51.0689 48.0769 51.0292 48.1722 51.0292C48.2673 51.0292 48.4102 50.934 48.4899 50.8175C48.5696 50.7011 48.7149 50.6058 48.8131 50.6058C48.9111 50.6058 49.0667 50.5106 49.1586 50.3942C49.2505 50.2777 49.407 50.1825 49.5065 50.1825C49.6059 50.1825 49.7624 50.0872 49.8543 49.9708C49.9462 49.8543 50.1027 49.7591 50.2021 49.7591C50.3015 49.7591 50.4581 49.6638 50.55 49.5474C50.6418 49.431 50.7984 49.3357 50.8978 49.3357C50.9972 49.3357 51.1537 49.2404 51.2456 49.124C51.3375 49.0076 51.5056 48.9123 51.619 48.9123C51.7326 48.9123 51.8253 48.8655 51.8253 48.8086C51.8253 48.7514 51.952 48.6758 52.1068 48.6403C52.2613 48.6048 52.4781 48.4847 52.5885 48.3736C52.6987 48.2624 52.8587 48.1714 52.9439 48.1714C53.0291 48.1714 53.1639 48.0761 53.2436 47.9597C53.3233 47.8433 53.4686 47.748 53.5668 47.748C53.6648 47.748 53.8204 47.6528 53.9123 47.5363C54.0042 47.4199 54.1607 47.3246 54.2602 47.3246C54.3596 47.3246 54.5161 47.2294 54.608 47.1129C54.6999 46.9965 54.8564 46.9013 54.9558 46.9013C55.0553 46.9013 55.2118 46.806 55.3037 46.6896C55.3956 46.5731 55.5521 46.4779 55.6515 46.4779C55.7509 46.4779 55.9074 46.3826 55.9993 46.2662C56.0912 46.1498 56.2477 46.0545 56.3472 46.0545C56.4466 46.0545 56.6031 45.9592 56.695 45.8428C56.7869 45.7264 56.9434 45.6311 57.0428 45.6311C57.1423 45.6311 57.2988 45.5359 57.3907 45.4194C57.4825 45.303 57.624 45.2077 57.7052 45.2077C57.786 45.2077 57.9176 45.1125 57.9973 44.996C58.077 44.8796 58.2223 44.7844 58.3205 44.7844C58.4185 44.7844 58.5742 44.6891 58.666 44.5727C58.7579 44.4562 58.9153 44.361 59.0159 44.361C59.3116 44.361 60.4052 43.5396 60.4052 43.3176C60.4052 43.2512 60.4574 43.1967 60.5212 43.1967C60.5849 43.1967 60.6371 42.9919 60.6371 42.7415C60.6371 42.4912 60.6997 42.2293 60.7762 42.1594C60.8843 42.0607 60.8843 42.0041 60.7762 41.9054C60.6997 41.8355 60.6371 41.6206 60.6371 41.4277C60.6371 40.88 60.1525 40.2325 59.58 40.0163C59.3962 39.9467 59.2458 39.848 59.2458 39.7967C59.2458 39.7456 59.1774 39.7038 59.0936 39.7038C59.0101 39.7038 58.8295 39.6085 58.6927 39.4921C58.5559 39.3757 58.3976 39.2804 58.3411 39.2804C58.2846 39.2804 58.1437 39.1852 58.0284 39.0687C57.913 38.9523 57.7675 38.857 57.7052 38.857C57.6428 38.857 57.5075 38.7734 57.4043 38.671C57.3011 38.5689 57.0733 38.4178 56.8979 38.3357C56.7225 38.2534 56.5791 38.1465 56.5791 38.0981C56.5791 38.05 56.5106 38.0103 56.4269 38.0103C56.3434 38.0103 56.1738 37.9269 56.0501 37.825C55.9266 37.7232 55.6819 37.5723 55.5066 37.4895C55.3312 37.407 55.1877 37.2998 55.1877 37.2514C55.1877 37.2032 55.1193 37.1635 55.0355 37.1635C54.9521 37.1635 54.7825 37.0802 54.6587 36.9783C54.5352 36.8764 54.2906 36.7256 54.1152 36.6427C53.9399 36.5602 53.7964 36.453 53.7964 36.4046C53.7964 36.3564 53.7262 36.3167 53.6404 36.3167C53.5546 36.3167 53.39 36.2215 53.2746 36.1051C53.1593 35.9886 53.023 35.8934 52.972 35.8934C52.8906 35.8934 52.208 35.5129 51.8833 35.2863C51.8195 35.2419 51.6239 35.1379 51.4485 35.0551C51.2732 34.9725 51.1297 34.8653 51.1297 34.8169C51.1297 34.7688 51.0613 34.7291 50.9775 34.7291C50.894 34.7291 50.7245 34.6457 50.6007 34.5438C50.4772 34.442 50.2326 34.2911 50.0572 34.2083C49.8818 34.1258 49.7383 34.0186 49.7383 33.9702C49.7383 33.922 49.6699 33.8823 49.5862 33.8823C49.5027 33.8823 49.3221 33.787 49.1853 33.6706C49.0485 33.5542 48.8902 33.4589 48.8337 33.4589C48.7772 33.4589 48.6363 33.3637 48.5209 33.2472C48.4056 33.1308 48.2409 33.0355 48.1551 33.0355C48.0693 33.0355 47.9992 32.9959 47.9992 32.9477C47.9992 32.8993 47.8557 32.7924 47.6803 32.7101C47.505 32.628 47.2771 32.477 47.174 32.3748C47.0708 32.2724 46.9128 32.1888 46.8226 32.1888C46.7328 32.1888 46.5838 32.0935 46.4919 31.9771C46.4 31.8607 46.2319 31.7654 46.1186 31.7654C46.0049 31.7654 45.9122 31.7257 45.9122 31.6776C45.9122 31.6291 45.7687 31.522 45.5933 31.4394C45.418 31.3566 45.2055 31.2296 45.1212 31.1568C45.0371 31.084 44.8867 31.0245 44.787 31.0245C44.6875 31.0245 44.5217 30.9409 44.4185 30.8385C44.3154 30.7363 44.0875 30.5852 43.9122 30.5032C43.7368 30.4209 43.5933 30.314 43.5933 30.2656C43.5933 30.2174 43.5342 30.1777 43.462 30.1777C43.3898 30.1777 43.2463 30.0941 43.1432 29.9917C43.04 29.8896 42.8121 29.7385 42.6368 29.6564C42.4614 29.5741 42.3179 29.4672 42.3179 29.4188C42.3179 29.3707 42.2495 29.331 42.1657 29.331C42.0823 29.331 41.9127 29.2476 41.7889 29.1457C41.6655 29.0439 41.4208 28.893 41.2454 28.8102C41.0701 28.7276 40.9266 28.6205 40.9266 28.5721C40.9266 28.5239 40.8414 28.4842 40.7373 28.4842C40.6333 28.4842 40.4637 28.4006 40.3605 28.2982C40.2573 28.196 40.0295 28.045 39.8541 27.9629C39.6787 27.8806 39.5353 27.7737 39.5353 27.7253C39.5353 27.6771 39.4501 27.6374 39.346 27.6374C39.2419 27.6374 39.0715 27.5541 38.9674 27.4522C38.0721 26.5753 36.0743 26.1927 34.9966 26.692ZM39.139 33.4589C39.2295 33.4589 39.3034 33.4986 39.3034 33.5468C39.3034 33.5952 39.4469 33.7024 39.6222 33.7849C39.7976 33.8678 40.0422 34.0186 40.1657 34.1205C40.2895 34.2223 40.435 34.3057 40.4895 34.3057C40.544 34.3057 40.7005 34.401 40.8373 34.5174C40.9741 34.6338 41.1547 34.7291 41.2382 34.7291C41.322 34.7291 41.3904 34.7735 41.3904 34.8278C41.3904 34.882 41.4886 34.955 41.6083 34.9897C41.7283 35.0244 41.9452 35.1466 42.0901 35.2615C42.2347 35.376 42.4382 35.47 42.542 35.47C42.6458 35.47 42.8058 35.5652 42.8976 35.6817C42.9895 35.7981 43.1461 35.8934 43.2455 35.8934C43.3449 35.8934 43.5014 35.9886 43.5933 36.1051C43.6852 36.2215 43.8272 36.3167 43.9087 36.3167C43.9904 36.3167 44.0571 36.3564 44.0571 36.4046C44.0571 36.453 44.2006 36.5599 44.3759 36.6422C44.5513 36.7243 44.7791 36.8753 44.8823 36.9775C44.9855 37.0799 45.1435 37.1635 45.2336 37.1635C45.3235 37.1635 45.4725 37.2588 45.5644 37.3752C45.6562 37.4916 45.8128 37.5869 45.9122 37.5869C46.0116 37.5869 46.1681 37.6821 46.26 37.7986C46.3519 37.915 46.5084 38.0103 46.6079 38.0103C46.7073 38.0103 46.8638 38.1055 46.9557 38.222C47.0476 38.3384 47.2041 38.4336 47.3035 38.4336C47.4029 38.4336 47.5595 38.5289 47.6514 38.6453C47.7432 38.7618 47.9114 38.857 48.0247 38.857C48.1383 38.857 48.2317 38.8928 48.2319 38.9364C48.2325 38.9801 48.5586 39.2058 48.9566 39.4379C49.3549 39.6702 49.6978 39.8964 49.7189 39.9406C49.7404 39.9851 49.8462 40.0213 49.9543 40.0213C50.0624 40.0213 50.2262 40.1166 50.3181 40.233C50.41 40.3494 50.5665 40.4447 50.6659 40.4447C50.7653 40.4447 50.9218 40.54 51.0137 40.6564C51.1056 40.7728 51.2621 40.8681 51.3616 40.8681C51.461 40.8681 51.6175 40.9633 51.7094 41.0798C51.8013 41.1962 51.9578 41.2915 52.0572 41.2915C52.1567 41.2915 52.3132 41.3867 52.4051 41.5032C52.4969 41.6196 52.6427 41.7149 52.7288 41.7149C52.8149 41.7149 52.9636 41.7863 53.0593 41.8736C53.2541 42.0514 53.0471 42.3499 52.7288 42.3499C52.6427 42.3499 52.4969 42.4452 52.4051 42.5616C52.3132 42.678 52.1567 42.7733 52.0572 42.7733C51.9578 42.7733 51.8013 42.8686 51.7094 42.985C51.6175 43.1014 51.461 43.1967 51.3616 43.1967C51.2621 43.1967 51.1056 43.2919 51.0137 43.4084C50.9218 43.5248 50.7653 43.6201 50.6659 43.6201C50.5665 43.6201 50.41 43.7153 50.3181 43.8318C50.2262 43.9482 50.0624 44.0434 49.9543 44.0434C49.8462 44.0434 49.7404 44.0797 49.7189 44.1241C49.6978 44.1683 49.3549 44.3946 48.9566 44.6269C48.5586 44.859 48.2325 45.0847 48.2319 45.1284C48.2317 45.172 48.1383 45.2077 48.0247 45.2077C47.9114 45.2077 47.7432 45.303 47.6514 45.4194C47.5595 45.5359 47.4029 45.6311 47.3035 45.6311C47.2041 45.6311 47.0476 45.7264 46.9557 45.8428C46.8638 45.9592 46.7073 46.0545 46.6079 46.0545C46.5084 46.0545 46.3519 46.1498 46.26 46.2662C46.1681 46.3826 46.0116 46.4779 45.9122 46.4779C45.8128 46.4779 45.6562 46.5731 45.5644 46.6896C45.4725 46.806 45.3235 46.9013 45.2336 46.9013C45.1435 46.9013 44.9855 46.9849 44.8823 47.0873C44.7791 47.1894 44.5513 47.3405 44.3759 47.4225C44.2006 47.5048 44.0571 47.6117 44.0571 47.6602C44.0571 47.7083 43.9904 47.748 43.9087 47.748C43.8272 47.748 43.6852 47.8433 43.5933 47.9597C43.5014 48.0761 43.3449 48.1714 43.2455 48.1714C43.1461 48.1714 42.9895 48.2667 42.8976 48.3831C42.8058 48.4995 42.666 48.5948 42.5872 48.5948C42.4655 48.5948 41.8428 48.9266 41.4483 49.2018C41.3846 49.2463 41.1889 49.3503 41.0136 49.4331C40.8382 49.5156 40.6947 49.6228 40.6947 49.6712C40.6947 49.7194 40.6263 49.7591 40.5425 49.7591C40.459 49.7591 40.2895 49.8424 40.1657 49.9443C40.0422 50.0462 39.7976 50.197 39.6222 50.2798C39.4469 50.3624 39.3034 50.4696 39.3034 50.518C39.3034 50.5661 39.2295 50.6058 39.139 50.6058C39.0489 50.6058 38.9486 50.6654 38.9164 50.7381C38.8842 50.8109 38.8579 46.8933 38.8579 42.0324C38.8579 37.1714 38.8842 33.2539 38.9164 33.3266C38.9486 33.3994 39.0489 33.4589 39.139 33.4589ZM19.245 42.0324V48.5948H12.1725H5.09986V42.0324V35.47H12.1725H19.245V42.0324ZM86.9564 42.0324V48.5948H79.8838H72.8112V42.0324V35.47H79.8838H86.9564V42.0324ZM19.245 58.5442V63.8365H12.1725H5.09986V58.5442V53.252H12.1725H19.245V58.5442ZM86.9564 58.5442V63.8365H79.8838H72.8112V58.5442V53.252H79.8838H86.9564V58.5442ZM19.245 73.9976V79.3957H15.245C12.6557 79.3957 11.2449 79.3584 11.2449 79.2899C11.2449 79.2317 11.0362 79.184 10.7811 79.184C10.526 79.184 10.3173 79.1364 10.3173 79.0782C10.3173 79.02 10.1608 78.9723 9.96951 78.9723C9.77821 78.9723 9.62168 78.9337 9.62168 78.8863C9.62168 78.839 9.43907 78.7347 9.21588 78.6548C8.99268 78.5749 8.81007 78.4706 8.81007 78.4233C8.81007 78.3759 8.72949 78.3373 8.63094 78.3373C8.53239 78.3373 8.32514 78.2216 8.17035 78.0803C8.01556 77.939 7.73788 77.7421 7.55353 77.6427C7.36918 77.5432 7.12917 77.3241 7.02019 77.1558C6.9112 76.9875 6.69554 76.734 6.54076 76.5927C6.38597 76.4514 6.2593 76.2622 6.2593 76.1722C6.2593 76.0822 6.21698 76.0087 6.1651 76.0087C6.11321 76.0087 5.99901 75.842 5.91147 75.6382C5.82393 75.4345 5.70973 75.2678 5.65784 75.2678C5.60596 75.2678 5.56364 75.1249 5.56364 74.9502C5.56364 74.7756 5.51146 74.6327 5.44769 74.6327C5.38392 74.6327 5.33175 74.4213 5.33175 74.1627C5.33175 73.9042 5.27957 73.6631 5.2158 73.6272C5.14392 73.5867 5.09986 72.6206 5.09986 71.0805V68.5995H12.1725H19.245V73.9976ZM86.9564 71.1927C86.9564 72.8511 86.9147 73.7859 86.8405 73.7859C86.7767 73.7859 86.7245 73.9764 86.7245 74.2093C86.7245 74.4422 86.6723 74.6327 86.6086 74.6327C86.5448 74.6327 86.4926 74.7756 86.4926 74.9502C86.4926 75.1249 86.4405 75.2678 86.3767 75.2678C86.3129 75.2678 86.2607 75.363 86.2607 75.4794C86.2607 75.5959 86.2213 75.6911 86.1732 75.6911C86.1248 75.6911 86.0115 75.8459 85.921 76.0351C85.8306 76.2243 85.6613 76.4561 85.5448 76.5503C85.4286 76.6445 85.3332 76.7803 85.3332 76.852C85.3332 77.011 84.3042 77.9139 84.123 77.9139C84.0514 77.9139 83.9178 78.0091 83.8259 78.1256C83.734 78.242 83.5659 78.3373 83.4526 78.3373C83.339 78.3373 83.2462 78.3849 83.2462 78.4431C83.2462 78.5013 83.1679 78.549 83.0723 78.549C82.9766 78.549 82.8984 78.5966 82.8984 78.6548C82.8984 78.713 82.794 78.7606 82.6665 78.7606C82.5389 78.7606 82.4346 78.8083 82.4346 78.8665C82.4346 78.9247 82.2781 78.9723 82.0868 78.9723C81.8954 78.9723 81.7389 79.02 81.7389 79.0782C81.7389 79.1364 81.5334 79.184 81.2821 79.184C81.0308 79.184 80.7928 79.2317 80.7534 79.2899C80.7079 79.3571 79.245 79.3957 76.7464 79.3957H72.8112V73.9976V68.5995H79.8838H86.9564V71.1927Z" fill="white"/>
</svg>
