<svg width="80" height="78" viewBox="0 0 80 78" fill="none" xmlns="http://www.w3.org/2000/svg">
<path fill-rule="evenodd" clip-rule="evenodd" d="M29.2311 0.0358164C29.0196 0.054743 28.81 0.103133 28.7653 0.143327C28.7206 0.183522 28.5764 0.216498 28.4448 0.216498C28.3132 0.216498 28.2055 0.251619 28.2055 0.294546C28.2055 0.337472 28.1093 0.372593 27.9918 0.372593C27.8743 0.372593 27.7782 0.407715 27.7782 0.450641C27.7782 0.493568 27.7012 0.528689 27.6072 0.528689C27.5132 0.528689 27.4363 0.563811 27.4363 0.606737C27.4363 0.649664 27.3497 0.685566 27.244 0.686541C27.1382 0.687517 26.9555 0.75698 26.838 0.840881C26.7205 0.924783 26.5763 0.994246 26.5175 0.995221C26.4587 0.996197 26.4107 1.0321 26.4107 1.07503C26.4107 1.11795 26.3338 1.15307 26.2397 1.15307C26.1457 1.15307 26.0688 1.18819 26.0688 1.23112C26.0688 1.27405 26.0184 1.30917 25.9566 1.30917C25.8951 1.30917 25.7665 1.37571 25.671 1.45688C25.5754 1.53824 25.3836 1.65843 25.2449 1.7238C25.1062 1.78936 24.7637 2.0596 24.4838 2.32438C24.2039 2.58916 23.8499 2.92457 23.6971 3.06954C23.5443 3.21452 23.4193 3.36983 23.4193 3.41451C23.4193 3.45939 23.3039 3.60612 23.1629 3.74095C23.0219 3.87578 22.9065 4.03343 22.9065 4.09139C22.9065 4.14953 22.868 4.19695 22.821 4.19695C22.774 4.19695 22.7356 4.26719 22.7356 4.35304C22.7356 4.43889 22.6971 4.50914 22.6501 4.50914C22.6031 4.50914 22.5646 4.57938 22.5646 4.66523C22.5646 4.75109 22.5262 4.82133 22.4792 4.82133C22.4322 4.82133 22.3937 4.87401 22.3937 4.9384C22.3937 5.03713 22.1997 5.05547 21.1596 5.05547C20.4288 5.05547 19.9036 5.08728 19.8724 5.13352C19.8434 5.17645 19.6703 5.21157 19.4878 5.21157C19.3053 5.21157 19.1323 5.24669 19.1032 5.28962C19.0741 5.33254 18.9372 5.36766 18.7989 5.36766C18.6607 5.36766 18.5477 5.40279 18.5477 5.44571C18.5477 5.48864 18.4539 5.52376 18.3391 5.52376C18.2244 5.52376 18.1067 5.55888 18.0776 5.60181C18.0485 5.64474 17.95 5.67986 17.8588 5.67986C17.7676 5.67986 17.693 5.70834 17.693 5.74327C17.693 5.7782 17.5584 5.85507 17.3939 5.914C17.2293 5.97293 17.0947 6.0498 17.0947 6.08473C17.0947 6.11966 17.0466 6.14814 16.9879 6.14814C16.9291 6.14834 16.7693 6.23614 16.6328 6.34326C16.4962 6.45058 16.3524 6.53838 16.3131 6.53838C16.199 6.53838 14.4816 8.13622 14.3089 8.40295C14.2226 8.53641 14.129 8.64568 14.1008 8.64568C14.0728 8.64568 13.997 8.76861 13.9324 8.91885C13.8679 9.06909 13.7837 9.19202 13.7455 9.19202C13.7072 9.19202 13.676 9.23806 13.676 9.29445C13.676 9.35084 13.5799 9.57894 13.4624 9.80138C13.3448 10.0238 13.2487 10.2939 13.2487 10.4014C13.2487 10.5089 13.2102 10.5969 13.1632 10.5969C13.1162 10.5969 13.0777 10.7374 13.0777 10.9091C13.0777 11.0808 13.0393 11.2213 12.9923 11.2213C12.9429 11.2213 12.9068 11.4685 12.9068 11.8066C12.9068 12.1448 12.8707 12.392 12.8213 12.392C12.709 12.392 12.709 13.5383 12.8213 13.6017C12.8684 13.6283 12.9068 13.8763 12.9068 14.1527C12.9068 14.4359 12.9442 14.6554 12.9923 14.6554C13.0393 14.6554 13.0777 14.7959 13.0777 14.9676C13.0777 15.1393 13.1119 15.2798 13.1538 15.2798C13.2395 15.2798 13.3295 15.8122 13.2694 15.9627C13.248 16.0163 13.1192 16.0602 12.9831 16.0602C12.8472 16.0602 12.7359 16.0954 12.7359 16.1383C12.7359 16.1812 12.6421 16.2163 12.5273 16.2163C12.4126 16.2163 12.2949 16.2515 12.2658 16.2944C12.2367 16.3373 12.1382 16.3724 12.047 16.3724C11.9558 16.3724 11.8812 16.4076 11.8812 16.4505C11.8812 16.4934 11.8043 16.5285 11.7103 16.5285C11.6163 16.5285 11.5393 16.5636 11.5393 16.6066C11.5393 16.6495 11.4624 16.6846 11.3684 16.6846C11.2744 16.6846 11.1975 16.7197 11.1975 16.7627C11.1975 16.8056 11.1205 16.8407 11.0265 16.8407C10.9325 16.8407 10.8556 16.8758 10.8556 16.9188C10.8556 16.9617 10.7962 16.9968 10.7238 16.9968C10.6513 16.9968 10.5095 17.0671 10.4086 17.1529C10.3077 17.2388 10.1746 17.309 10.1131 17.309C10.0513 17.309 10.0009 17.3441 10.0009 17.3871C10.0009 17.43 9.96203 17.4651 9.9146 17.4651C9.86716 17.4651 9.70777 17.5705 9.56012 17.6992C9.41248 17.828 9.24411 17.9334 9.18577 17.9334C9.05458 17.9334 7.29566 19.5102 7.00956 19.8846C6.89461 20.0348 6.73222 20.2259 6.64867 20.309C6.56513 20.3923 6.49676 20.5064 6.49676 20.5626C6.49676 20.619 6.46577 20.6651 6.42774 20.6651C6.38971 20.6651 6.29078 20.8056 6.20788 20.9773C6.12497 21.149 6.02134 21.2895 5.97775 21.2895C5.93417 21.2895 5.89848 21.3421 5.89848 21.4065C5.89848 21.4709 5.86002 21.5236 5.81302 21.5236C5.76601 21.5236 5.72755 21.5938 5.72755 21.6797C5.72755 21.7655 5.68909 21.8358 5.64208 21.8358C5.59507 21.8358 5.55661 21.906 5.55661 21.9919C5.55661 22.0777 5.51815 22.148 5.47115 22.148C5.42414 22.148 5.38568 22.2182 5.38568 22.3041C5.38568 22.3899 5.34722 22.4602 5.30021 22.4602C5.2532 22.4602 5.21474 22.5655 5.21474 22.6943C5.21474 22.8231 5.17628 22.9285 5.12928 22.9285C5.08227 22.9285 5.04381 22.9966 5.04381 23.0799C5.04381 23.1632 5.00535 23.2531 4.95834 23.2797C4.91133 23.3062 4.87287 23.4488 4.87287 23.5966C4.87287 23.7443 4.83441 23.865 4.78741 23.865C4.7404 23.865 4.70194 23.9704 4.70194 24.0992C4.70194 24.228 4.66348 24.3333 4.61647 24.3333C4.56946 24.3333 4.531 24.4914 4.531 24.6845C4.531 24.8777 4.49254 25.0358 4.44554 25.0358C4.39661 25.0358 4.36007 25.2699 4.36007 25.5821C4.36007 25.8943 4.32353 26.1284 4.2746 26.1284C4.15943 26.1284 4.15943 28.3659 4.2746 28.4308C4.44233 28.5255 4.37588 29.2835 4.18913 29.4064C4.09512 29.4683 4.0182 29.5571 4.0182 29.6035C4.0182 29.6502 3.88359 29.8222 3.71906 29.9863C3.55454 30.1504 3.41993 30.3128 3.41993 30.3473C3.41993 30.3817 3.36929 30.4564 3.30754 30.513C3.12699 30.6786 2.56525 31.6337 2.56525 31.7748C2.56525 31.8458 2.52679 31.904 2.47978 31.904C2.43278 31.904 2.39432 31.9742 2.39432 32.0601C2.39432 32.1459 2.35586 32.2162 2.30885 32.2162C2.26184 32.2162 2.22338 32.3215 2.22338 32.4503C2.22338 32.5791 2.18492 32.6845 2.13791 32.6845C2.09091 32.6845 2.05245 32.7526 2.05245 32.8359C2.05245 32.9192 2.01399 33.0091 1.96698 33.0357C1.91997 33.0622 1.88151 33.2048 1.88151 33.3526C1.88151 33.5003 1.84305 33.621 1.79605 33.621C1.74904 33.621 1.71058 33.7615 1.71058 33.9332C1.71058 34.1049 1.67212 34.2454 1.62511 34.2454C1.57682 34.2454 1.53964 34.4665 1.53964 34.7527C1.53964 35.039 1.50246 35.26 1.45418 35.26C1.40119 35.26 1.36871 35.6893 1.36871 36.3917C1.36871 37.0942 1.40119 37.5234 1.45418 37.5234C1.50311 37.5234 1.53964 37.7576 1.53964 38.0698C1.53964 38.382 1.57618 38.6161 1.62511 38.6161C1.67212 38.6161 1.71058 38.7566 1.71058 38.9283C1.71058 39.1 1.74904 39.2405 1.79605 39.2405C1.84305 39.2405 1.88151 39.3437 1.88151 39.47C1.88151 39.5962 1.91997 39.7213 1.96698 39.7478C2.01399 39.7743 2.05245 39.8819 2.05245 39.9866C2.05245 40.0914 2.09091 40.1771 2.13791 40.1771C2.18492 40.1771 2.22338 40.2649 2.22338 40.3722C2.22338 40.4795 2.26184 40.5673 2.30885 40.5673C2.35586 40.5673 2.39432 40.6376 2.39432 40.7234C2.39432 40.8093 2.43278 40.8795 2.47978 40.8795C2.52679 40.8795 2.56525 40.9334 2.56525 40.9991C2.56525 41.1474 2.98319 41.9146 3.10177 41.9839C3.15348 42.0141 3.10605 42.116 2.98362 42.2366C2.47038 42.7433 2.39432 42.8307 2.39432 42.9136C2.39432 42.9624 2.27894 43.1006 2.13791 43.2209C1.99689 43.3413 1.88151 43.483 1.88151 43.5359C1.88151 43.5885 1.81122 43.6886 1.72553 43.7581C1.63964 43.8276 1.51486 43.9985 1.44819 44.138C1.38153 44.2775 1.29798 44.3917 1.2623 44.3917C1.22683 44.3917 1.19777 44.4619 1.19777 44.5478C1.19777 44.6336 1.15931 44.7039 1.11231 44.7039C1.0653 44.7039 1.02684 44.7741 1.02684 44.8599C1.02684 44.9458 0.988378 45.016 0.941371 45.016C0.894364 45.016 0.855903 45.0841 0.855903 45.1675C0.855903 45.2508 0.817443 45.3407 0.770436 45.3673C0.723429 45.3938 0.684968 45.5013 0.684968 45.6061C0.684968 45.7109 0.646508 45.7965 0.599501 45.7965C0.552494 45.7965 0.514033 45.9019 0.514033 46.0307C0.514033 46.1594 0.475573 46.2648 0.428566 46.2648C0.381559 46.2648 0.343098 46.4053 0.343098 46.577C0.343098 46.7487 0.304638 46.8892 0.257631 46.8892C0.210624 46.8892 0.172164 47.0451 0.172164 47.2357C0.172164 47.4264 0.133703 47.6041 0.0866961 47.6306C-0.0288987 47.696 -0.0288987 51.0774 0.0866961 51.1428C0.133703 51.1693 0.172164 51.345 0.172164 51.5331C0.172164 51.7211 0.210624 51.8968 0.257631 51.9233C0.304638 51.9498 0.343098 52.0925 0.343098 52.2402C0.343098 52.3879 0.381559 52.5087 0.428566 52.5087C0.475573 52.5087 0.514033 52.614 0.514033 52.7428C0.514033 52.8716 0.552494 52.9769 0.599501 52.9769C0.646508 52.9769 0.684968 53.0647 0.684968 53.1721C0.684968 53.2794 0.723429 53.3672 0.770436 53.3672C0.817443 53.3672 0.855903 53.4374 0.855903 53.5233C0.855903 53.6091 0.894364 53.6794 0.941371 53.6794C0.988378 53.6794 1.02684 53.7496 1.02684 53.8355C1.02684 53.9213 1.0653 53.9916 1.11231 53.9916C1.15931 53.9916 1.19777 54.0618 1.19777 54.1477C1.19777 54.2335 1.23623 54.3038 1.28324 54.3038C1.33025 54.3038 1.36871 54.374 1.36871 54.4599C1.36871 54.5457 1.40717 54.6159 1.45418 54.6159C1.50118 54.6159 1.53964 54.6862 1.53964 54.772C1.53964 54.8579 1.57169 54.9281 1.61058 54.9281C1.64968 54.9281 1.736 55.0247 1.80246 55.1428C1.86869 55.2608 1.9907 55.4142 2.07317 55.4836C2.15586 55.5531 2.22338 55.6544 2.22338 55.7086C2.22338 55.7629 2.2909 55.8641 2.37338 55.9336C2.45585 56.0031 2.67657 56.2354 2.86396 56.4501C3.29878 56.948 3.47762 57.1111 3.84726 57.3463C4.01179 57.451 4.24832 57.6346 4.37289 57.7544C4.49767 57.8741 4.65258 57.972 4.71732 57.972C4.78206 57.972 4.89061 58.0423 4.95834 58.1281C5.02607 58.214 5.14146 58.2842 5.21474 58.2842C5.28803 58.2842 5.40341 58.3544 5.47115 58.4403C5.53888 58.5261 5.66281 58.5964 5.74635 58.5964C5.83011 58.5964 5.89848 58.6315 5.89848 58.6744C5.89848 58.7174 5.9722 58.7525 6.06237 58.7525C6.15232 58.7525 6.23886 58.7788 6.25467 58.811C6.27027 58.8432 6.43693 58.9414 6.62496 59.0292C6.94247 59.1773 6.97153 59.219 7.03349 59.6145C7.07024 59.8487 7.13691 60.2686 7.18156 60.5476C7.22622 60.8266 7.28669 61.2217 7.31575 61.4256C7.34481 61.6295 7.40314 61.7964 7.44544 61.7964C7.48775 61.7964 7.52236 61.8996 7.52236 62.0258C7.52236 62.1521 7.56083 62.2771 7.60783 62.3037C7.65484 62.3302 7.6933 62.4553 7.6933 62.5815C7.6933 62.7078 7.73176 62.811 7.77877 62.811C7.82577 62.811 7.86423 62.8791 7.86423 62.9624C7.86423 63.0457 7.9027 63.1357 7.9497 63.1622C7.99671 63.1887 8.03517 63.2962 8.03517 63.401C8.03517 63.5058 8.07363 63.5915 8.12064 63.5915C8.16764 63.5915 8.2061 63.6617 8.2061 63.7476C8.2061 63.8334 8.24456 63.9037 8.29157 63.9037C8.33858 63.9037 8.37704 63.9739 8.37704 64.0598C8.37704 64.1456 8.4155 64.2159 8.46251 64.2159C8.50951 64.2159 8.54797 64.2783 8.54797 64.3548C8.54797 64.4311 8.6249 64.5442 8.71891 64.6061C8.81292 64.6679 8.88984 64.7811 8.88984 64.8574C8.88984 64.9339 8.9283 64.9963 8.97531 64.9963C9.02232 64.9963 9.06078 65.0437 9.06078 65.1019C9.06078 65.1598 9.17616 65.3175 9.31718 65.4523C9.4582 65.5872 9.57358 65.7343 9.57358 65.7795C9.57358 65.983 11.8519 68.0402 12.0774 68.0402C12.1368 68.0402 12.2408 68.1104 12.3085 68.1963C12.3763 68.2822 12.4917 68.3524 12.5649 68.3524C12.6382 68.3524 12.7536 68.4226 12.8213 68.5085C12.8891 68.5943 13.013 68.6646 13.0966 68.6646C13.1803 68.6646 13.2487 68.6931 13.2487 68.728C13.2487 68.7629 13.3833 68.8398 13.5478 68.8987C13.7123 68.9577 13.847 69.0345 13.847 69.0695C13.847 69.1044 13.9239 69.1329 14.0179 69.1329C14.1119 69.1329 14.1888 69.168 14.1888 69.2109C14.1888 69.2538 14.2581 69.289 14.3427 69.289C14.4273 69.289 14.533 69.32 14.5777 69.3578C14.6224 69.3959 14.9089 69.5036 15.2144 69.5975C16.1225 69.8765 16.24 69.927 16.24 70.04C16.24 70.0991 16.2785 70.1475 16.3255 70.1475C16.3725 70.1475 16.411 70.2529 16.411 70.3816C16.411 70.5104 16.4494 70.6158 16.4964 70.6158C16.5435 70.6158 16.5819 70.686 16.5819 70.7719C16.5819 70.8577 16.6204 70.928 16.6674 70.928C16.7144 70.928 16.7528 71.0333 16.7528 71.1621C16.7528 71.2909 16.7913 71.3963 16.8383 71.3963C16.8853 71.3963 16.9238 71.453 16.9238 71.5223C16.9238 71.6339 17.3233 72.3879 17.4362 72.4889C17.4601 72.5104 17.534 72.6245 17.6007 72.7426C17.6674 72.8606 17.7539 72.9572 17.793 72.9572C17.8319 72.9572 17.8639 73.0021 17.8639 73.0571C17.8639 73.112 17.9408 73.2076 18.0349 73.2694C18.1289 73.3313 18.2058 73.4251 18.2058 73.478C18.2058 73.6844 21.0314 76.1572 21.2672 76.1572C21.3113 76.1572 21.395 76.2099 21.4536 76.2743C21.5121 76.3387 21.6322 76.3913 21.7204 76.3913C21.8087 76.3913 21.8809 76.4265 21.8809 76.4694C21.8809 76.5123 21.9313 76.5474 21.9931 76.5474C22.0546 76.5474 22.1877 76.6177 22.2886 76.7035C22.3894 76.7894 22.5313 76.8596 22.6037 76.8596C22.6762 76.8596 22.7356 76.8947 22.7356 76.9377C22.7356 76.9806 22.8125 77.0157 22.9065 77.0157C23.0005 77.0157 23.0774 77.0508 23.0774 77.0938C23.0774 77.1367 23.1928 77.1718 23.3338 77.1718C23.4749 77.1718 23.5902 77.2069 23.5902 77.2499C23.5902 77.2928 23.6672 77.3279 23.7612 77.3279C23.8552 77.3279 23.9321 77.363 23.9321 77.406C23.9321 77.4489 24.0283 77.484 24.1458 77.484C24.2633 77.484 24.3595 77.5191 24.3595 77.5621C24.3595 77.605 24.4725 77.6401 24.6107 77.6401C24.749 77.6401 24.8859 77.6752 24.915 77.7181C24.944 77.7611 25.097 77.7962 25.2547 77.7962C25.4126 77.7962 25.5577 77.8401 25.5774 77.8938C25.6049 77.9693 26.2758 77.9913 28.5474 77.9913C30.8189 77.9913 31.4898 77.9693 31.5174 77.8938C31.5377 77.8378 31.696 77.7962 31.8876 77.7962C32.0718 77.7962 32.2225 77.7611 32.2225 77.7181C32.2225 77.6752 32.3378 77.6401 32.4789 77.6401C32.6199 77.6401 32.7353 77.605 32.7353 77.5621C32.7353 77.5191 32.8506 77.484 32.9917 77.484C33.1327 77.484 33.2481 77.4489 33.2481 77.406C33.2481 77.363 33.3419 77.3279 33.4566 77.3279C33.5714 77.3279 33.6891 77.2928 33.7181 77.2499C33.7472 77.2069 33.8457 77.1718 33.9369 77.1718C34.0282 77.1718 34.1027 77.1367 34.1027 77.0938C34.1027 77.0508 34.1797 77.0157 34.2737 77.0157C34.3677 77.0157 34.4446 76.9806 34.4446 76.9377C34.4446 76.8947 34.5023 76.8596 34.5728 76.8596C34.6433 76.8596 34.701 76.8245 34.701 76.7816C34.701 76.7386 34.7779 76.7035 34.872 76.7035C34.966 76.7035 35.0429 76.6684 35.0429 76.6255C35.0429 76.5826 35.1198 76.5474 35.2138 76.5474C35.3078 76.5474 35.3848 76.5176 35.3848 76.4813C35.3848 76.4448 35.5386 76.3517 35.7266 76.2743C35.9147 76.1968 36.0685 76.1061 36.0685 76.0725C36.0685 76.0389 36.1473 75.9888 36.2437 75.9609C36.3401 75.933 36.5503 75.79 36.711 75.6434C36.8715 75.4967 37.0362 75.3767 37.0768 75.3767C37.1864 75.3767 38.5471 74.0733 38.5471 73.9683C38.5471 73.919 38.655 73.7853 38.7866 73.6714C38.9184 73.5576 39.1567 73.2889 39.3158 73.0743C39.4752 72.8597 39.6366 72.6723 39.6746 72.6581C39.7126 72.6437 39.7436 72.5646 39.7436 72.4825C39.7436 72.4002 39.7821 72.3328 39.8291 72.3328C39.8761 72.3328 39.9145 72.2802 39.9145 72.2158C39.9145 72.1514 39.953 72.0987 40 72.0987C40.047 72.0987 40.0855 72.1514 40.0855 72.2158C40.0855 72.2802 40.1239 72.3328 40.1709 72.3328C40.2179 72.3328 40.2564 72.4002 40.2564 72.4825C40.2564 72.5646 40.2874 72.6437 40.3254 72.6581C40.3634 72.6723 40.5248 72.8597 40.6842 73.0743C40.8433 73.2889 41.0816 73.5576 41.2134 73.6714C41.345 73.7853 41.4529 73.9168 41.4529 73.9638C41.4529 74.0659 42.817 75.3767 42.9232 75.3767C42.9638 75.3767 43.1285 75.4967 43.289 75.6434C43.4497 75.79 43.6599 75.933 43.7563 75.9609C43.8527 75.9888 43.9315 76.0389 43.9315 76.0725C43.9315 76.1061 44.0853 76.1968 44.2734 76.2743C44.4614 76.3517 44.6152 76.4448 44.6152 76.4813C44.6152 76.5176 44.6922 76.5474 44.7862 76.5474C44.8802 76.5474 44.9571 76.5826 44.9571 76.6255C44.9571 76.6684 45.034 76.7035 45.128 76.7035C45.2221 76.7035 45.299 76.7386 45.299 76.7816C45.299 76.8245 45.3567 76.8596 45.4272 76.8596C45.4977 76.8596 45.5554 76.8947 45.5554 76.9377C45.5554 76.9806 45.6323 77.0157 45.7263 77.0157C45.8203 77.0157 45.8973 77.0508 45.8973 77.0938C45.8973 77.1367 45.9718 77.1718 46.0631 77.1718C46.1543 77.1718 46.2528 77.2069 46.2819 77.2499C46.3109 77.2928 46.4286 77.3279 46.5434 77.3279C46.6581 77.3279 46.7519 77.363 46.7519 77.406C46.7519 77.4489 46.8457 77.484 46.9605 77.484C47.0752 77.484 47.1929 77.5191 47.222 77.5621C47.2511 77.605 47.388 77.6401 47.5263 77.6401C47.6645 77.6401 47.7775 77.6752 47.7775 77.7181C47.7775 77.7611 47.9045 77.7962 48.0596 77.7962C48.2147 77.7962 48.3897 77.8401 48.4485 77.8938C48.6036 78.0354 54.3709 78.0354 54.4226 77.8938C54.4423 77.8401 54.5874 77.7962 54.7453 77.7962C54.903 77.7962 55.0559 77.7611 55.085 77.7181C55.1141 77.6752 55.251 77.6401 55.3893 77.6401C55.5275 77.6401 55.6405 77.605 55.6405 77.5621C55.6405 77.5191 55.7367 77.484 55.8542 77.484C55.9717 77.484 56.0679 77.4489 56.0679 77.406C56.0679 77.363 56.1425 77.3279 56.2337 77.3279C56.3249 77.3279 56.4234 77.2928 56.4525 77.2499C56.4815 77.2069 56.5993 77.1718 56.714 77.1718C56.8288 77.1718 56.9226 77.1367 56.9226 77.0938C56.9226 77.0508 56.9995 77.0157 57.0935 77.0157C57.1875 77.0157 57.2644 76.9806 57.2644 76.9377C57.2644 76.8947 57.3413 76.8596 57.4354 76.8596C57.5294 76.8596 57.6063 76.8245 57.6063 76.7816C57.6063 76.7386 57.664 76.7035 57.7345 76.7035C57.805 76.7035 57.8627 76.6684 57.8627 76.6255C57.8627 76.5826 57.9204 76.5474 57.9909 76.5474C58.0614 76.5474 58.1191 76.5123 58.1191 76.4694C58.1191 76.4265 58.1932 76.3913 58.2838 76.3913C58.3746 76.3913 58.5065 76.3387 58.577 76.2743C58.6475 76.2099 58.7368 76.1566 58.7753 76.1558C58.9725 76.1517 61.7942 73.6766 61.7942 73.5077C61.7942 73.4616 61.9017 73.3213 62.0333 73.1957C62.1647 73.0702 62.3279 72.8684 62.3963 72.7477C62.4645 72.6269 62.5412 72.5104 62.5664 72.4889C62.6942 72.3804 63.2471 71.3131 63.2471 71.1748C63.2471 71.087 63.2856 70.9935 63.3326 70.967C63.3796 70.9405 63.4181 70.8505 63.4181 70.7672C63.4181 70.6839 63.4565 70.6158 63.5036 70.6158C63.5506 70.6158 63.589 70.5104 63.589 70.3816C63.589 70.2529 63.6275 70.1475 63.6745 70.1475C63.7215 70.1475 63.76 70.1005 63.76 70.0429C63.76 69.9253 64.1112 69.7573 64.3572 69.7573C64.4463 69.7573 64.5381 69.7292 64.5614 69.6946C64.5847 69.6603 64.7986 69.5836 65.0366 69.5245C65.2746 69.4654 65.4693 69.3881 65.4693 69.353C65.4693 69.3176 65.5234 69.289 65.5894 69.289C65.7317 69.289 66.4396 68.9635 66.4806 68.8792C66.4964 68.847 66.5637 68.8207 66.6302 68.8207C66.6968 68.8207 66.7513 68.7856 66.7513 68.7426C66.7513 68.6997 66.8282 68.6646 66.9222 68.6646C67.0163 68.6646 67.0932 68.6353 67.0932 68.5998C67.0932 68.5641 67.1989 68.4853 67.3282 68.4246C67.4575 68.3641 67.6254 68.2527 67.7015 68.1774C67.7776 68.1019 67.8863 68.0402 67.9432 68.0402C68.0002 68.0402 68.188 67.9085 68.3605 67.7475C68.5331 67.5865 68.7705 67.4076 68.888 67.3497C69.0055 67.2919 69.3324 67 69.6145 66.7011C69.8965 66.4022 70.1946 66.091 70.2768 66.0094C70.3591 65.928 70.4264 65.8213 70.4264 65.7723C70.4264 65.7233 70.5418 65.585 70.6828 65.4646C70.8238 65.3442 70.9392 65.1897 70.9392 65.1212C70.9392 65.0525 70.9777 64.9963 71.0247 64.9963C71.0717 64.9963 71.1102 64.9339 71.1102 64.8574C71.1102 64.7811 71.1871 64.6679 71.2811 64.6061C71.3751 64.5442 71.452 64.4311 71.452 64.3548C71.452 64.2783 71.4905 64.2159 71.5375 64.2159C71.5845 64.2159 71.623 64.1456 71.623 64.0598C71.623 63.9739 71.6614 63.9037 71.7084 63.9037C71.7554 63.9037 71.7939 63.8334 71.7939 63.7476C71.7939 63.6617 71.8324 63.5915 71.8794 63.5915C71.9264 63.5915 71.9648 63.5222 71.9648 63.4377C71.9648 63.3532 72.0417 63.1589 72.1358 63.0061C72.2298 62.8533 72.3067 62.6436 72.3067 62.54C72.3067 62.4365 72.3452 62.3302 72.3922 62.3037C72.4392 62.2771 72.4776 62.1521 72.4776 62.0258C72.4776 61.8996 72.5161 61.7964 72.5631 61.7964C72.6101 61.7964 72.6486 61.658 72.6486 61.4888C72.6486 61.3197 72.687 61.1595 72.734 61.1329C72.781 61.1064 72.8195 60.8479 72.8195 60.5585C72.8195 60.2692 72.8556 59.9991 72.8996 59.9583C72.9436 59.9175 72.9917 59.7271 73.0065 59.5349C73.0325 59.1937 73.0445 59.1806 73.546 58.9496C73.828 58.8198 74.0716 58.6871 74.0872 58.6549C74.103 58.6227 74.181 58.5964 74.2607 58.5964C74.3404 58.5964 74.4611 58.5261 74.5289 58.4403C74.5966 58.3544 74.712 58.2842 74.7852 58.2842C74.8585 58.2842 74.9739 58.214 75.0417 58.1281C75.1094 58.0423 75.2179 57.972 75.2827 57.972C75.3474 57.972 75.5081 57.8666 75.6399 57.7379C75.7718 57.6091 75.9021 57.5037 75.9297 57.5037C76.0579 57.5037 77.348 56.3541 77.3489 56.239C77.3491 56.2087 77.4454 56.0961 77.5629 55.9888C77.6805 55.8815 77.7766 55.7658 77.7768 55.7316C77.7768 55.6975 77.8922 55.5467 78.033 55.3964C78.1738 55.2462 78.2892 55.0794 78.2892 55.0257C78.2894 54.972 78.3279 54.9281 78.3749 54.9281C78.4219 54.9281 78.4604 54.8579 78.4604 54.772C78.4604 54.6862 78.4988 54.6159 78.5458 54.6159C78.5928 54.6159 78.6313 54.5457 78.6313 54.4599C78.6313 54.374 78.6601 54.3036 78.6954 54.3032C78.7721 54.3024 78.9732 53.9244 78.9732 53.7808C78.9732 53.725 79.0116 53.6794 79.0586 53.6794C79.1056 53.6794 79.1441 53.6091 79.1441 53.5233C79.1441 53.4374 79.1826 53.3672 79.2296 53.3672C79.2766 53.3672 79.315 53.2794 79.315 53.1721C79.315 53.0647 79.3535 52.9769 79.4005 52.9769C79.4475 52.9769 79.486 52.8716 79.486 52.7428C79.486 52.614 79.5244 52.5087 79.5714 52.5087C79.6184 52.5087 79.6569 52.3879 79.6569 52.2402C79.6569 52.0925 79.6954 51.9498 79.7424 51.9233C79.7894 51.8968 79.8278 51.7211 79.8278 51.5331C79.8278 51.345 79.8663 51.1693 79.9133 51.1428C80.0289 51.0774 80.0289 47.696 79.9133 47.6306C79.8663 47.6041 79.8278 47.4264 79.8278 47.2357C79.8278 47.0451 79.7894 46.8892 79.7424 46.8892C79.6954 46.8892 79.6569 46.7487 79.6569 46.577C79.6569 46.4053 79.6184 46.2648 79.5714 46.2648C79.5244 46.2648 79.486 46.1594 79.486 46.0307C79.486 45.9019 79.4475 45.7965 79.4005 45.7965C79.3535 45.7965 79.315 45.7109 79.315 45.6061C79.315 45.5013 79.2766 45.3938 79.2296 45.3673C79.1826 45.3407 79.1441 45.2508 79.1441 45.1675C79.1441 45.0841 79.1056 45.016 79.0586 45.016C79.0116 45.016 78.9732 44.9458 78.9732 44.8599C78.9732 44.7741 78.9347 44.7039 78.8877 44.7039C78.8407 44.7039 78.8022 44.6336 78.8022 44.5478C78.8022 44.4619 78.7732 44.3917 78.7377 44.3917C78.702 44.3917 78.6185 44.2775 78.5518 44.138C78.4851 43.9985 78.3604 43.8276 78.2745 43.7581C78.1888 43.6886 78.1185 43.5885 78.1185 43.5359C78.1185 43.483 78.0031 43.3413 77.8621 43.2209C77.7211 43.1006 77.6057 42.964 77.6057 42.9171C77.6057 42.8301 77.3826 42.5685 77.0164 42.226C76.8959 42.1134 76.8469 42.0137 76.8974 41.9839C77.0268 41.9074 77.4347 41.1734 77.4347 41.0167C77.4347 40.9412 77.4732 40.8795 77.5202 40.8795C77.5672 40.8795 77.6057 40.8093 77.6057 40.7234C77.6057 40.6376 77.6441 40.5673 77.6911 40.5673C77.7382 40.5673 77.7766 40.4795 77.7766 40.3722C77.7766 40.2649 77.8151 40.1771 77.8621 40.1771C77.9091 40.1771 77.9475 40.0717 77.9475 39.9429C77.9475 39.8141 77.986 39.7088 78.033 39.7088C78.08 39.7088 78.1185 39.6034 78.1185 39.4746C78.1185 39.3459 78.1569 39.2405 78.2039 39.2405C78.251 39.2405 78.2894 39.1021 78.2894 38.933C78.2894 38.7638 78.3279 38.6036 78.3749 38.5771C78.4219 38.5505 78.4604 38.3026 78.4604 38.0261C78.4604 37.7429 78.4977 37.5234 78.5458 37.5234C78.5988 37.5234 78.6313 37.0942 78.6313 36.3917C78.6313 35.6893 78.5988 35.26 78.5458 35.26C78.4975 35.26 78.4604 35.039 78.4604 34.7527C78.4604 34.4665 78.4232 34.2454 78.3749 34.2454C78.3279 34.2454 78.2894 34.1049 78.2894 33.9332C78.2894 33.7615 78.251 33.621 78.2039 33.621C78.1569 33.621 78.1185 33.5178 78.1185 33.3916C78.1185 33.2653 78.08 33.1403 78.033 33.1137C77.986 33.0872 77.9475 32.9797 77.9475 32.8749C77.9475 32.7701 77.9091 32.6845 77.8621 32.6845C77.8151 32.6845 77.7766 32.5791 77.7766 32.4503C77.7766 32.3215 77.7382 32.2162 77.6911 32.2162C77.6441 32.2162 77.6057 32.1459 77.6057 32.0601C77.6057 31.9742 77.5721 31.904 77.5309 31.904C77.4897 31.904 77.4343 31.8041 77.4076 31.6821C77.36 31.4654 76.8995 30.7184 76.6869 30.513C76.6282 30.4564 76.5801 30.3817 76.5801 30.3473C76.5801 30.3128 76.4455 30.1504 76.2809 29.9863C76.1164 29.8222 75.9818 29.6502 75.9818 29.6035C75.9818 29.5571 75.9049 29.4683 75.8109 29.4064C75.6241 29.2835 75.5577 28.5255 75.7254 28.4308C75.776 28.4024 75.8109 27.9228 75.8109 27.2554C75.8109 26.5561 75.7784 26.1284 75.7254 26.1284C75.6765 26.1284 75.6399 25.8943 75.6399 25.5821C75.6399 25.2699 75.6034 25.0358 75.5545 25.0358C75.5075 25.0358 75.469 24.8777 75.469 24.6845C75.469 24.4914 75.4305 24.3333 75.3835 24.3333C75.3365 24.3333 75.2981 24.228 75.2981 24.0992C75.2981 23.9704 75.2596 23.865 75.2126 23.865C75.1656 23.865 75.1271 23.7443 75.1271 23.5966C75.1271 23.4488 75.0887 23.3062 75.0417 23.2797C74.9947 23.2531 74.9562 23.1632 74.9562 23.0799C74.9562 22.9966 74.9177 22.9285 74.8707 22.9285C74.8237 22.9285 74.7852 22.8231 74.7852 22.6943C74.7852 22.5655 74.7468 22.4602 74.6998 22.4602C74.6528 22.4602 74.6143 22.3899 74.6143 22.3041C74.6143 22.2182 74.5759 22.148 74.5289 22.148C74.4818 22.148 74.4434 22.0777 74.4434 21.9919C74.4434 21.906 74.4049 21.8358 74.3579 21.8358C74.3109 21.8358 74.2724 21.7655 74.2724 21.6797C74.2724 21.5938 74.234 21.5236 74.187 21.5236C74.14 21.5236 74.1015 21.4709 74.1015 21.4065C74.1015 21.3421 74.0705 21.2895 74.0325 21.2895C73.9945 21.2895 73.8955 21.149 73.8126 20.9773C73.7297 20.8056 73.6261 20.6651 73.5825 20.6651C73.5389 20.6651 73.5032 20.6212 73.5032 20.5675C73.503 20.5139 73.4069 20.3679 73.2896 20.2432C73.1721 20.1185 73.0759 19.9861 73.0759 19.949C73.0759 19.8415 70.9373 17.9334 70.8168 17.9334C70.7572 17.9334 70.5875 17.828 70.4399 17.6992C70.2922 17.5705 70.1328 17.4651 70.0854 17.4651C70.038 17.4651 69.9991 17.43 69.9991 17.3871C69.9991 17.3441 69.9487 17.309 69.8869 17.309C69.8254 17.309 69.6922 17.2388 69.5914 17.1529C69.4905 17.0671 69.3487 16.9968 69.2762 16.9968C69.2038 16.9968 69.1444 16.9617 69.1444 16.9188C69.1444 16.8758 69.0675 16.8407 68.9735 16.8407C68.8795 16.8407 68.8025 16.8056 68.8025 16.7627C68.8025 16.7197 68.7256 16.6846 68.6316 16.6846C68.5376 16.6846 68.4607 16.6495 68.4607 16.6066C68.4607 16.5636 68.3837 16.5285 68.2897 16.5285C68.1957 16.5285 68.1188 16.4934 68.1188 16.4505C68.1188 16.4076 68.0442 16.3724 67.953 16.3724C67.8617 16.3724 67.7632 16.3373 67.7342 16.2944C67.7051 16.2515 67.5874 16.2163 67.4727 16.2163C67.3579 16.2163 67.2641 16.1812 67.2641 16.1383C67.2641 16.0954 67.1528 16.0602 67.0169 16.0602C66.8808 16.0602 66.752 16.0163 66.7306 15.9627C66.6705 15.8122 66.7605 15.2798 66.8462 15.2798C66.8881 15.2798 66.9222 15.1393 66.9222 14.9676C66.9222 14.7959 66.9607 14.6554 67.0077 14.6554C67.0566 14.6554 67.0932 14.4212 67.0932 14.109C67.0932 13.7968 67.1297 13.5627 67.1786 13.5627C67.2274 13.5627 67.2641 13.3301 67.2641 13.0211C67.2641 12.7231 67.2257 12.4575 67.1786 12.431C67.1316 12.4045 67.0932 12.1214 67.0932 11.8019C67.0932 11.4669 67.0571 11.2213 67.0077 11.2213C66.9607 11.2213 66.9222 11.1005 66.9222 10.9528C66.9222 10.8051 66.8889 10.6654 66.8481 10.6421C66.8071 10.6191 66.7492 10.4595 66.7191 10.2874C66.6889 10.1153 66.5876 9.85016 66.4941 9.69796C66.4005 9.54596 66.324 9.36977 66.324 9.30675C66.324 9.24372 66.2928 9.19202 66.2545 9.19202C66.2163 9.19202 66.1321 9.06909 66.0676 8.91885C66.003 8.76861 65.9272 8.64568 65.8992 8.64568C65.871 8.64568 65.7787 8.53836 65.6939 8.40724C65.5259 8.14793 63.8935 6.61663 63.7843 6.61624C63.7473 6.61624 63.5826 6.51087 63.4181 6.38229C63.2536 6.2537 63.0741 6.14834 63.0192 6.14834C62.9645 6.14814 62.9068 6.1218 62.891 6.08961C62.844 5.99302 61.7827 5.52376 61.6113 5.52376C61.5239 5.52376 61.4523 5.48864 61.4523 5.44571C61.4523 5.40279 61.3393 5.36766 61.2011 5.36766C61.0628 5.36766 60.9258 5.33254 60.8968 5.28962C60.8677 5.24669 60.6947 5.21157 60.5122 5.21157C60.3297 5.21157 60.1566 5.17645 60.1276 5.13352C60.0964 5.08747 59.5765 5.05547 58.8565 5.05547H57.6381L57.5208 4.78231C57.4563 4.63206 57.3721 4.50914 57.3339 4.50914C57.2956 4.50914 57.2644 4.43889 57.2644 4.35304C57.2644 4.26719 57.226 4.19695 57.179 4.19695C57.132 4.19695 57.0935 4.14953 57.0935 4.09139C57.0935 4.03343 56.9781 3.87578 56.8371 3.74095C56.6961 3.60612 56.5807 3.45939 56.5807 3.41451C56.5807 3.36983 56.4557 3.21452 56.3029 3.06954C56.1501 2.92457 55.7961 2.58916 55.5162 2.32438C55.2363 2.0596 54.8938 1.78936 54.7551 1.7238C54.6164 1.65843 54.4246 1.53824 54.329 1.45688C54.2335 1.37571 54.1049 1.30917 54.0434 1.30917C53.9816 1.30917 53.9312 1.27405 53.9312 1.23112C53.9312 1.18819 53.8543 1.15307 53.7603 1.15307C53.6662 1.15307 53.5893 1.11795 53.5893 1.07503C53.5893 1.0321 53.5413 0.996197 53.4825 0.995221C53.4237 0.994246 53.2795 0.924783 53.162 0.840881C53.0445 0.75698 52.8618 0.687517 52.756 0.686541C52.6503 0.685566 52.5637 0.649664 52.5637 0.606737C52.5637 0.563811 52.4868 0.528689 52.3928 0.528689C52.2988 0.528689 52.2218 0.493568 52.2218 0.450641C52.2218 0.407715 52.1257 0.372593 52.0082 0.372593C51.8907 0.372593 51.7945 0.337472 51.7945 0.294546C51.7945 0.251619 51.6868 0.216498 51.5552 0.216498C51.4236 0.216498 51.2678 0.172595 51.2091 0.118937C51.0544 -0.0223294 45.9701 -0.0223294 45.9186 0.118937C45.899 0.172595 45.7896 0.216498 45.6753 0.216498C45.5612 0.216498 45.3913 0.251619 45.2979 0.294546C45.2045 0.337472 45.0516 0.407715 44.9582 0.450641C44.8648 0.493568 44.711 0.528689 44.6163 0.528689C44.5217 0.528689 44.4443 0.563811 44.4443 0.606737C44.4443 0.649664 44.3674 0.684785 44.2734 0.684785C44.1794 0.684785 44.1024 0.719907 44.1024 0.762833C44.1024 0.80576 44.0255 0.840881 43.9315 0.840881C43.8375 0.840881 43.7606 0.876003 43.7606 0.918929C43.7606 0.961856 43.6836 0.996977 43.5896 0.996977C43.4956 0.996977 43.4187 1.0321 43.4187 1.07503C43.4187 1.11795 43.3683 1.15307 43.3065 1.15307C43.245 1.15307 43.1119 1.22332 43.011 1.30917C42.9102 1.39502 42.7995 1.46527 42.7653 1.46527C42.5514 1.46527 41.1324 2.63208 40.7722 3.10427C40.6575 3.25452 40.4944 3.43422 40.41 3.50368C40.3256 3.57315 40.2551 3.66095 40.2536 3.6988C40.2404 4.03402 39.7436 4.06095 39.7436 3.72651C39.7436 3.67636 39.6282 3.53685 39.4872 3.41647C39.3462 3.29608 39.2308 3.16378 39.2308 3.12242C39.2308 2.94427 37.4494 1.46527 37.2347 1.46527C37.2005 1.46527 37.0898 1.39502 36.989 1.30917C36.8881 1.22332 36.755 1.15307 36.6935 1.15307C36.6317 1.15307 36.5813 1.11795 36.5813 1.07503C36.5813 1.0321 36.5044 0.996977 36.4104 0.996977C36.3163 0.996977 36.2394 0.961856 36.2394 0.918929C36.2394 0.876003 36.1625 0.840881 36.0685 0.840881C35.9745 0.840881 35.8976 0.80576 35.8976 0.762833C35.8976 0.719907 35.8206 0.684785 35.7266 0.684785C35.6326 0.684785 35.5557 0.649664 35.5557 0.606737C35.5557 0.563811 35.4783 0.528689 35.3837 0.528689C35.289 0.528689 35.1352 0.493568 35.0418 0.450641C34.9484 0.407715 34.7955 0.337472 34.7021 0.294546C34.6087 0.251619 34.4433 0.216498 34.3346 0.216498C34.2258 0.216498 34.0891 0.172791 34.0305 0.119328C33.9237 0.0217678 30.1247 -0.0443779 29.2311 0.0358164ZM32.7353 2.87013C32.7353 2.91306 32.8891 2.94818 33.0771 2.94818C33.2652 2.94818 33.419 2.9833 33.419 3.02623C33.419 3.06915 33.5344 3.10427 33.6754 3.10427C33.8164 3.10427 33.9318 3.13939 33.9318 3.18232C33.9318 3.22525 34.0087 3.26037 34.1027 3.26037C34.1968 3.26037 34.2737 3.29549 34.2737 3.33842C34.2737 3.38134 34.3506 3.41647 34.4446 3.41647C34.5386 3.41647 34.6156 3.44495 34.6156 3.47988C34.6156 3.51481 34.7502 3.59168 34.9147 3.65061C35.0792 3.70954 35.2138 3.7788 35.2138 3.80436C35.2138 3.83012 35.3283 3.91285 35.4683 3.98836C35.6083 4.06387 35.9185 4.29977 36.1578 4.51245C36.3969 4.72533 36.6221 4.89938 36.658 4.89938C36.6939 4.89938 36.7777 4.99596 36.8441 5.11401C36.9104 5.23206 37.0324 5.38542 37.1148 5.45488C37.1975 5.52435 37.265 5.63069 37.265 5.69137C37.265 5.75186 37.342 5.85215 37.436 5.914C37.53 5.97585 37.6069 6.08902 37.6069 6.16532C37.6069 6.2418 37.6454 6.30424 37.6924 6.30424C37.7394 6.30424 37.7778 6.37448 37.7778 6.46034C37.7778 6.54619 37.8163 6.61643 37.8633 6.61643C37.9103 6.61643 37.9488 6.7218 37.9488 6.85058C37.9488 6.97936 37.9821 7.08472 38.0229 7.08472C38.0637 7.08472 38.1208 7.21643 38.1494 7.3774C38.178 7.53837 38.2392 7.82813 38.2851 8.0213C38.331 8.21447 38.3703 8.60529 38.3725 8.88978C38.3783 9.69718 38.8573 10.4408 39.3716 10.4408C39.4823 10.4408 39.5727 10.4759 39.5727 10.5188C39.5727 10.5618 39.765 10.5969 40 10.5969C40.235 10.5969 40.4273 10.5618 40.4273 10.5188C40.4273 10.4759 40.5177 10.4408 40.6284 10.4408C41.1495 10.4408 41.5433 9.82986 41.6341 8.87982C41.7222 7.9612 41.8899 7.08472 41.9777 7.08472C42.0181 7.08472 42.0512 6.97936 42.0512 6.85058C42.0512 6.7218 42.0897 6.61643 42.1367 6.61643C42.1837 6.61643 42.2222 6.54619 42.2222 6.46034C42.2222 6.37448 42.2606 6.30424 42.3076 6.30424C42.3546 6.30424 42.3931 6.2418 42.3931 6.16532C42.3931 6.08902 42.47 5.97585 42.564 5.914C42.658 5.85215 42.735 5.75186 42.735 5.69137C42.735 5.63069 42.8025 5.52435 42.8852 5.45488C42.9676 5.38542 43.0896 5.23206 43.1559 5.11401C43.2223 4.99596 43.3027 4.89938 43.3343 4.89938C43.3661 4.89938 43.5903 4.72572 43.8326 4.51362C44.0751 4.30133 44.3888 4.06543 44.5298 3.98934C44.6708 3.91344 44.7862 3.83012 44.7862 3.80436C44.7862 3.7788 44.9208 3.70954 45.0853 3.65061C45.2498 3.59168 45.3844 3.51481 45.3844 3.47988C45.3844 3.44495 45.4614 3.41647 45.5554 3.41647C45.6494 3.41647 45.7263 3.38134 45.7263 3.33842C45.7263 3.29549 45.8032 3.26037 45.8973 3.26037C45.9913 3.26037 46.0682 3.22525 46.0682 3.18232C46.0682 3.13939 46.1836 3.10427 46.3246 3.10427C46.4656 3.10427 46.581 3.06915 46.581 3.02623C46.581 2.9833 46.7348 2.94818 46.9229 2.94818C47.1109 2.94818 47.2647 2.91306 47.2647 2.87013C47.2647 2.82154 47.7491 2.79208 48.5467 2.79208C49.3444 2.79208 49.8288 2.82154 49.8288 2.87013C49.8288 2.91306 49.961 2.94818 50.1228 2.94818C50.2845 2.94818 50.4407 2.9833 50.4698 3.02623C50.4988 3.06915 50.6166 3.10427 50.7313 3.10427C50.846 3.10427 50.9398 3.13179 50.9398 3.16535C50.9398 3.19891 51.1091 3.27188 51.3157 3.32769C51.5223 3.38329 51.7708 3.49646 51.8676 3.5788C51.9646 3.66115 52.103 3.72866 52.1755 3.72866C52.2479 3.72866 52.3073 3.75617 52.3073 3.78992C52.3073 3.82349 52.4131 3.90973 52.5424 3.98134C52.8887 4.17353 54.0406 5.21664 54.1808 5.46523C54.2474 5.58327 54.334 5.67986 54.3731 5.67986C54.4119 5.67986 54.444 5.7423 54.444 5.81878C54.444 5.89507 54.5209 6.00824 54.6149 6.0701C54.7089 6.13195 54.7859 6.24297 54.7859 6.31692C54.7859 6.39068 54.8243 6.47282 54.8713 6.49936C54.9183 6.5259 54.9568 6.63341 54.9568 6.73819C54.9568 6.84297 54.9953 6.92862 55.0423 6.92862C55.0893 6.92862 55.1277 6.97428 55.1277 7.03009C55.1277 7.1737 55.3288 7.55164 55.4055 7.55242C55.4408 7.55281 55.4696 7.60569 55.4696 7.67008C55.4696 7.73447 55.5053 7.78715 55.5489 7.78715C55.5927 7.78715 55.6959 7.84862 55.7781 7.92374C55.9125 8.04608 56.1388 8.06032 57.9591 8.06032C59.4695 8.06032 60.0173 8.0853 60.0972 8.15788C60.1562 8.21154 60.293 8.25544 60.4011 8.25544C60.5092 8.25544 60.5977 8.29056 60.5977 8.33349C60.5977 8.37642 60.6746 8.41154 60.7686 8.41154C60.8626 8.41154 60.9395 8.44666 60.9395 8.48958C60.9395 8.53251 61.0079 8.56763 61.0917 8.56763C61.1752 8.56763 61.2991 8.63788 61.3669 8.72373C61.4346 8.80958 61.5399 8.87982 61.6008 8.87982C61.7263 8.87982 62.9907 10.0088 62.9907 10.1208C62.9907 10.1608 63.0196 10.2053 63.0548 10.2197C63.0901 10.234 63.2283 10.4564 63.3619 10.714C63.4954 10.9715 63.6397 11.2433 63.6824 11.3178C63.7251 11.3924 63.76 11.5219 63.76 11.6058C63.76 11.6897 63.7984 11.7801 63.8454 11.8066C63.8924 11.8332 63.9309 12.0812 63.9309 12.3576C63.9309 12.6408 63.9683 12.8603 64.0163 12.8603C64.1232 12.8603 64.1287 13.1157 64.0238 13.2154C63.9811 13.2562 63.9264 13.4827 63.9023 13.7188C63.8476 14.2583 63.7538 14.6827 63.6781 14.7334C63.6461 14.7549 63.5102 14.992 63.3758 15.2602C63.2416 15.5285 63.0999 15.748 63.0613 15.748C63.0224 15.748 62.9907 15.8105 62.9907 15.887C62.9907 15.9633 62.9138 16.0764 62.8198 16.1383C62.6709 16.2362 62.6489 16.3402 62.6489 16.9437V17.6366L63.0472 17.9802C63.3254 18.2202 63.5185 18.3236 63.6882 18.3236C63.8217 18.3236 63.9309 18.3588 63.9309 18.4017C63.9309 18.445 64.1589 18.4797 64.4437 18.4797C64.7285 18.4797 64.9565 18.5145 64.9565 18.5578C64.9565 18.6007 65.0695 18.6358 65.2078 18.6358C65.346 18.6358 65.483 18.6709 65.512 18.7139C65.5411 18.7568 65.6588 18.7919 65.7736 18.7919C65.8883 18.7919 65.9821 18.827 65.9821 18.87C65.9821 18.9129 66.0975 18.948 66.2385 18.948C66.3795 18.948 66.4949 18.9831 66.4949 19.0261C66.4949 19.069 66.5718 19.1041 66.6658 19.1041C66.7599 19.1041 66.8368 19.1392 66.8368 19.1822C66.8368 19.2251 66.9137 19.2602 67.0077 19.2602C67.1017 19.2602 67.1786 19.2887 67.1786 19.3236C67.1786 19.3585 67.3133 19.4354 67.4778 19.4944C67.6423 19.5533 67.7769 19.6302 67.7769 19.6651C67.7769 19.7 67.8397 19.7285 67.9165 19.7285C67.9932 19.7285 68.1181 19.7933 68.1942 19.8723C68.2703 19.9515 68.4194 20.0582 68.5256 20.1098C69.0192 20.3486 70.4986 21.7088 70.6969 22.106C70.7512 22.2149 70.8234 22.3041 70.8572 22.3041C70.8909 22.3041 70.9664 22.4094 71.0247 22.5382C71.083 22.667 71.1646 22.7724 71.2061 22.7724C71.2473 22.7724 71.2811 22.8426 71.2811 22.9285C71.2811 23.0143 71.3099 23.0848 71.3452 23.0851C71.4219 23.0859 71.623 23.4639 71.623 23.6075C71.623 23.6633 71.6614 23.7089 71.7084 23.7089C71.7554 23.7089 71.7939 23.7792 71.7939 23.865C71.7939 23.9509 71.8324 24.0211 71.8794 24.0211C71.9264 24.0211 71.9648 24.1089 71.9648 24.2163C71.9648 24.3236 72.0033 24.4114 72.0503 24.4114C72.0973 24.4114 72.1358 24.5167 72.1358 24.6455C72.1358 24.7743 72.1742 24.8797 72.2212 24.8797C72.2682 24.8797 72.3067 25.0201 72.3067 25.1919C72.3067 25.3636 72.3452 25.504 72.3922 25.504C72.4402 25.504 72.4776 25.7236 72.4776 26.0067C72.4776 26.2832 72.5161 26.5312 72.5631 26.5577C72.6101 26.5842 72.6486 26.92 72.6486 27.3038C72.6486 27.7169 72.6137 28.0016 72.5631 28.0016C72.5148 28.0016 72.4776 28.2227 72.4776 28.5089C72.4776 28.7951 72.4405 29.0162 72.3922 29.0162C72.267 29.0162 72.2851 30.232 72.4135 30.4414C72.4723 30.5372 72.78 30.8507 73.0973 31.1379C73.4146 31.4252 73.6742 31.7001 73.6742 31.7487C73.6742 31.7973 73.7223 31.886 73.781 31.9459C74.0214 32.1906 74.0851 32.289 74.5118 33.0747C74.7566 33.5254 74.9566 33.9557 74.9564 34.0308C74.9564 34.1059 74.9947 34.1674 75.0417 34.1674C75.0887 34.1674 75.1271 34.3079 75.1271 34.4796C75.1271 34.6513 75.1656 34.7918 75.2126 34.7918C75.2596 34.7918 75.2981 34.9652 75.2981 35.1773C75.2981 35.3894 75.3365 35.5847 75.3835 35.6113C75.4307 35.6378 75.469 35.9878 75.469 36.3917C75.469 36.7956 75.4307 37.1457 75.3835 37.1722C75.3365 37.1988 75.2981 37.4116 75.2981 37.6452C75.2981 37.8787 75.2596 38.0698 75.2126 38.0698C75.1656 38.0698 75.1271 38.1927 75.1271 38.3429C75.1271 38.4932 75.0887 38.6161 75.0417 38.6161C74.9947 38.6161 74.9562 38.7215 74.9562 38.8503C74.9562 38.979 74.9177 39.0844 74.8707 39.0844C74.8237 39.0844 74.7852 39.1322 74.7852 39.1905C74.7852 39.3123 74.2765 40.2487 74.1363 40.3851C74.0848 40.435 73.9936 40.5843 73.9336 40.7168C73.8735 40.8493 73.7906 40.9576 73.7492 40.9576C73.7079 40.9576 73.6742 41.0024 73.6742 41.0574C73.6742 41.1123 73.5973 41.2079 73.5032 41.2697C73.4092 41.3316 73.3323 41.4448 73.3323 41.5211C73.3323 41.5975 73.2938 41.66 73.2468 41.66C73.1971 41.66 73.1614 41.9201 73.1614 42.2844C73.1614 42.6487 73.1971 42.9087 73.2468 42.9087C73.2938 42.9087 73.3323 42.9583 73.3323 43.0188C73.3323 43.0793 73.7746 43.5353 74.3152 44.0321C74.8558 44.529 75.2981 44.9809 75.2981 45.0365C75.2981 45.0921 75.375 45.1883 75.469 45.2502C75.563 45.312 75.6399 45.4252 75.6399 45.5015C75.6399 45.578 75.6784 45.6404 75.7254 45.6404C75.7724 45.6404 75.8109 45.7107 75.8109 45.7965C75.8109 45.8824 75.8397 45.9528 75.875 45.9532C75.9517 45.954 76.1527 46.3319 76.1527 46.4755C76.1527 46.5313 76.1912 46.577 76.2382 46.577C76.2852 46.577 76.3237 46.6648 76.3237 46.7721C76.3237 46.8794 76.3621 46.9672 76.4091 46.9672C76.4561 46.9672 76.4946 47.0726 76.4946 47.2014C76.4946 47.3302 76.5331 47.4355 76.5801 47.4355C76.6271 47.4355 76.6655 47.576 76.6655 47.7477C76.6655 47.9194 76.704 48.0599 76.751 48.0599C76.8046 48.0599 76.8365 48.5542 76.8365 49.3867C76.8365 50.2193 76.8046 50.7135 76.751 50.7135C76.704 50.7135 76.6655 50.854 76.6655 51.0257C76.6655 51.1974 76.6271 51.3379 76.5801 51.3379C76.5331 51.3379 76.4946 51.4609 76.4946 51.6111C76.4946 51.7613 76.4561 51.8843 76.4091 51.8843C76.3621 51.8843 76.3237 51.9545 76.3237 52.0404C76.3237 52.1262 76.2852 52.1965 76.2382 52.1965C76.1912 52.1965 76.1527 52.2821 76.1527 52.3869C76.1527 52.4917 76.1143 52.5992 76.0673 52.6257C76.0203 52.6523 75.9818 52.7344 75.9818 52.8082C75.9818 52.8821 75.9049 52.9931 75.8109 53.055C75.7169 53.1168 75.6399 53.23 75.6399 53.3063C75.6399 53.3828 75.6015 53.4452 75.5545 53.4452C75.5075 53.4452 75.4688 53.4891 75.4686 53.5428C75.4684 53.5964 75.353 53.7525 75.2122 53.8897C75.0714 54.0269 74.9562 54.1594 74.9562 54.1841C74.9562 54.2321 73.9564 55.1393 73.5124 55.494C73.3648 55.612 73.1953 55.7086 73.1359 55.7086C73.0768 55.7086 72.9727 55.7789 72.905 55.8647C72.8372 55.9506 72.7133 56.0208 72.6298 56.0208C72.546 56.0208 72.4776 56.0559 72.4776 56.0989C72.4776 56.1418 72.4007 56.1769 72.3067 56.1769C72.2127 56.1769 72.1358 56.212 72.1358 56.255C72.1358 56.2979 72.0588 56.333 71.9648 56.333C71.8708 56.333 71.7939 56.3681 71.7939 56.411C71.7939 56.454 71.717 56.4891 71.623 56.4891C71.5289 56.4891 71.452 56.5242 71.452 56.5671C71.452 56.6101 71.3366 56.6452 71.1956 56.6452C71.0546 56.6452 70.9392 56.6803 70.9392 56.7232C70.9392 56.7662 70.8527 56.8019 70.7469 56.8025C70.5418 56.8038 69.9991 57.1927 69.9991 57.3385C69.9991 57.3865 69.9606 57.4257 69.9136 57.4257C69.8606 57.4257 69.8281 57.8549 69.8281 58.5574C69.8281 59.2598 69.7957 59.6891 69.7427 59.6891C69.6957 59.6891 69.6572 59.8801 69.6572 60.1136C69.6572 60.3472 69.6187 60.5601 69.5717 60.5866C69.5247 60.6132 69.4863 60.7558 69.4863 60.9035C69.4863 61.0512 69.4478 61.172 69.4008 61.172C69.3538 61.172 69.3153 61.2773 69.3153 61.4061C69.3153 61.5349 69.2769 61.6403 69.2299 61.6403C69.1829 61.6403 69.1444 61.7456 69.1444 61.8744C69.1444 62.0032 69.1059 62.1086 69.0589 62.1086C69.0119 62.1086 68.9735 62.1788 68.9735 62.2646C68.9735 62.3505 68.935 62.4207 68.888 62.4207C68.841 62.4207 68.8025 62.491 68.8025 62.5768C68.8025 62.6627 68.7641 62.7329 68.7171 62.7329C68.6701 62.7329 68.6316 62.8032 68.6316 62.889C68.6316 62.9749 68.5931 63.0451 68.5461 63.0451C68.4991 63.0451 68.4607 63.1076 68.4607 63.1841C68.4607 63.2603 68.3837 63.3735 68.2897 63.4354C68.1957 63.4972 68.1188 63.5899 68.1188 63.6412C68.1188 63.6925 68.0885 63.7462 68.0515 63.7606C68.0145 63.7749 67.8511 63.9421 67.6882 64.1323C67.5254 64.3226 67.2289 64.6361 67.0291 64.8293C66.8293 65.0223 66.6658 65.2092 66.6658 65.2445C66.6658 65.2796 66.6129 65.3085 66.5479 65.3085C66.4832 65.3085 66.2716 65.449 66.0778 65.6207C65.884 65.7924 65.6855 65.9329 65.6366 65.9329C65.5877 65.9329 65.465 66.0031 65.3642 66.089C65.2633 66.1749 65.1302 66.2451 65.0687 66.2451C65.0069 66.2451 64.9565 66.2802 64.9565 66.3231C64.9565 66.3661 64.8796 66.4012 64.7856 66.4012C64.6915 66.4012 64.6146 66.4363 64.6146 66.4792C64.6146 66.5222 64.5454 66.5573 64.4608 66.5573C64.3762 66.5573 64.2704 66.5873 64.2258 66.624C64.1249 66.7069 63.3057 66.9475 63.1243 66.9475C63.0508 66.9475 62.9907 66.9827 62.9907 67.0256C62.9907 67.0685 62.8369 67.1036 62.6489 67.1036C62.4608 67.1036 62.307 67.1387 62.307 67.1817C62.307 67.2246 62.1916 67.2597 62.0506 67.2597C61.9096 67.2597 61.7942 67.2948 61.7942 67.3378C61.7942 67.3807 61.7348 67.4158 61.6622 67.4158C61.4912 67.4158 61.1105 67.7635 61.1105 67.9196C61.1105 67.986 61.072 68.0402 61.025 68.0402C60.978 68.0402 60.9395 68.1456 60.9395 68.2743C60.9395 68.4031 60.9011 68.5085 60.8541 68.5085C60.8071 68.5085 60.7686 68.649 60.7686 68.8207C60.7686 68.9924 60.7301 69.1329 60.6831 69.1329C60.6361 69.1329 60.5977 69.201 60.5977 69.2843C60.5977 69.3676 60.5592 69.4576 60.5122 69.4841C60.4652 69.5106 60.4267 69.6152 60.4267 69.7163C60.4267 69.8176 60.3979 69.912 60.3626 69.9264C60.3274 69.9407 60.1447 70.2333 59.9566 70.5768C59.7686 70.9202 59.5859 71.2128 59.5507 71.2271C59.5154 71.2415 59.4866 71.303 59.4866 71.3637C59.4866 71.4246 59.4481 71.4743 59.4011 71.4743C59.3541 71.4743 59.3156 71.5094 59.3156 71.5524C59.3156 71.5951 59.1618 71.775 58.9738 71.952C58.7857 72.1289 58.6319 72.3081 58.6319 72.35C58.6319 72.4441 57.8653 73.1133 57.7576 73.1133C57.7146 73.1133 57.6298 73.1572 57.5689 73.2109C57.3362 73.4159 57.0048 73.6597 56.9587 73.6597C56.9322 73.6597 56.7429 73.765 56.5379 73.8938C56.333 74.0226 56.1241 74.1279 56.0739 74.1279C56.0237 74.1279 55.9824 74.1631 55.9824 74.206C55.9824 74.2489 55.9055 74.284 55.8115 74.284C55.7175 74.284 55.6405 74.3192 55.6405 74.3621C55.6405 74.405 55.5636 74.4401 55.4696 74.4401C55.3756 74.4401 55.2987 74.4753 55.2987 74.5182C55.2987 74.5611 55.2241 74.5962 55.1329 74.5962C55.0416 74.5962 54.9431 74.6313 54.9141 74.6743C54.885 74.7172 54.7673 74.7523 54.6525 74.7523C54.5378 74.7523 54.444 74.7874 54.444 74.8304C54.444 74.8733 54.3286 74.9084 54.1876 74.9084C54.0466 74.9084 53.9312 74.9435 53.9312 74.9865C53.9312 75.0294 53.7605 75.0645 53.5517 75.0645C53.343 75.0645 53.1483 75.0996 53.1193 75.1426C53.0902 75.1855 52.7802 75.2206 52.4304 75.2206C52.0635 75.2206 51.7945 75.2536 51.7945 75.2987C51.7945 75.4005 51.1368 75.4005 51.068 75.2987C51.039 75.2557 50.6905 75.2206 50.2937 75.2206C49.8698 75.2206 49.5724 75.1884 49.5724 75.1426C49.5724 75.0996 49.4185 75.0645 49.2305 75.0645C49.0425 75.0645 48.8886 75.0294 48.8886 74.9865C48.8886 74.9435 48.7732 74.9084 48.6322 74.9084C48.4912 74.9084 48.3758 74.8733 48.3758 74.8304C48.3758 74.7874 48.2797 74.7523 48.1621 74.7523C48.0446 74.7523 47.9485 74.7172 47.9485 74.6743C47.9485 74.6313 47.8547 74.5962 47.7399 74.5962C47.6252 74.5962 47.5075 74.5611 47.4784 74.5182C47.4493 74.4753 47.3508 74.4401 47.2596 74.4401C47.1684 74.4401 47.0938 74.405 47.0938 74.3621C47.0938 74.3192 47.0254 74.284 46.9417 74.284C46.8581 74.284 46.7342 74.2138 46.6665 74.1279C46.5987 74.0421 46.4748 73.9718 46.3913 73.9718C46.3075 73.9718 46.2391 73.9367 46.2391 73.8938C46.2391 73.8509 46.191 73.8158 46.1323 73.8158C46.0735 73.8156 45.9137 73.7278 45.7772 73.6206C45.6406 73.5133 45.5026 73.4255 45.4706 73.4255C45.3797 73.4255 43.7606 71.9646 43.7606 71.8827C43.7606 71.8425 43.6452 71.6995 43.5042 71.5647C43.3631 71.4298 43.2478 71.2743 43.2478 71.2191C43.2478 71.1639 43.1708 71.0679 43.0768 71.006C42.9828 70.9442 42.9059 70.831 42.9059 70.7547C42.9059 70.6782 42.8674 70.6158 42.8204 70.6158C42.7734 70.6158 42.735 70.5455 42.735 70.4597C42.735 70.3738 42.7038 70.3036 42.6655 70.3036C42.6273 70.3036 42.5431 70.1807 42.4786 70.0304C42.414 69.8802 42.3298 69.7573 42.2916 69.7573C42.2533 69.7573 42.2222 69.6519 42.2222 69.5231C42.2222 69.3943 42.1837 69.289 42.1367 69.289C42.0897 69.289 42.0512 69.1836 42.0512 69.0548C42.0512 68.926 42.0183 68.8207 41.9779 68.8207C41.8871 68.8207 41.7102 67.626 41.6542 66.6353C41.6314 66.2275 41.5767 65.8605 41.5326 65.8197C41.4888 65.779 41.4529 65.6988 41.4529 65.6416C41.4529 65.481 40.8812 64.9963 40.6916 64.9963C40.5989 64.9963 40.4991 64.9612 40.4701 64.9183C40.441 64.8754 40.2295 64.8402 40 64.8402C39.7705 64.8402 39.559 64.8754 39.5299 64.9183C39.5009 64.9612 39.4011 64.9963 39.3084 64.9963C38.8131 64.9963 38.3793 65.7563 38.3699 66.6408C38.3665 66.9598 38.3276 67.4139 38.2834 67.65C38.2392 67.8861 38.1793 68.246 38.1505 68.45C38.1216 68.6538 38.0644 68.8207 38.0233 68.8207C37.9823 68.8207 37.9488 68.926 37.9488 69.0548C37.9488 69.1836 37.9103 69.289 37.8633 69.289C37.8163 69.289 37.7778 69.3943 37.7778 69.5231C37.7778 69.6519 37.7466 69.7573 37.7084 69.7573C37.6702 69.7573 37.586 69.8802 37.5214 70.0304C37.4569 70.1807 37.3727 70.3036 37.3345 70.3036C37.2962 70.3036 37.265 70.3738 37.265 70.4597C37.265 70.5455 37.2266 70.6158 37.1796 70.6158C37.1326 70.6158 37.0941 70.6782 37.0941 70.7547C37.0941 70.831 37.0172 70.9442 36.9232 71.006C36.8292 71.0679 36.7522 71.1639 36.7522 71.2191C36.7522 71.2743 36.6369 71.4298 36.4958 71.5647C36.3548 71.6995 36.2394 71.8425 36.2394 71.8827C36.2394 71.9646 34.6203 73.4255 34.5294 73.4255C34.4974 73.4255 34.3594 73.5133 34.2228 73.6206C34.0863 73.7278 33.9265 73.8156 33.8677 73.8158C33.8089 73.8158 33.7609 73.8509 33.7609 73.8938C33.7609 73.9367 33.7104 73.9718 33.6487 73.9718C33.5872 73.9718 33.454 74.0421 33.3532 74.1279C33.2523 74.2138 33.1308 74.284 33.0833 74.284C33.0357 74.284 32.8598 74.3543 32.6925 74.4401C32.5252 74.526 32.3124 74.5962 32.2199 74.5962C32.1274 74.5962 32.0515 74.6313 32.0515 74.6743C32.0515 74.7172 31.9554 74.7523 31.8379 74.7523C31.7203 74.7523 31.6242 74.7874 31.6242 74.8304C31.6242 74.8733 31.5088 74.9084 31.3678 74.9084C31.2268 74.9084 31.1114 74.9435 31.1114 74.9865C31.1114 75.0294 30.9575 75.0645 30.7695 75.0645C30.5815 75.0645 30.4276 75.0996 30.4276 75.1426C30.4276 75.1884 30.1302 75.2206 29.7063 75.2206C29.3095 75.2206 28.961 75.2557 28.932 75.2987C28.8632 75.4005 28.2055 75.4005 28.2055 75.2987C28.2055 75.2536 27.9365 75.2206 27.5696 75.2206C27.2198 75.2206 26.9098 75.1855 26.8807 75.1426C26.8517 75.0996 26.657 75.0645 26.4483 75.0645C26.2395 75.0645 26.0688 75.0294 26.0688 74.9865C26.0688 74.9435 25.9534 74.9084 25.8124 74.9084C25.6714 74.9084 25.556 74.8733 25.556 74.8304C25.556 74.7874 25.4622 74.7523 25.3475 74.7523C25.2327 74.7523 25.115 74.7172 25.0859 74.6743C25.0569 74.6313 24.9584 74.5962 24.8671 74.5962C24.7759 74.5962 24.7013 74.5611 24.7013 74.5182C24.7013 74.4753 24.6244 74.4401 24.5304 74.4401C24.4364 74.4401 24.3595 74.405 24.3595 74.3621C24.3595 74.3192 24.2825 74.284 24.1885 74.284C24.0945 74.284 24.0176 74.2489 24.0176 74.206C24.0176 74.1631 23.9763 74.1279 23.9261 74.1279C23.8759 74.1279 23.667 74.0226 23.462 73.8938C23.2571 73.765 23.0678 73.6597 23.0413 73.6597C23.0148 73.6597 22.9065 73.5916 22.8003 73.5082C22.2003 73.037 22.0884 72.9574 22.0277 72.9572C21.9339 72.9572 21.3681 72.4318 21.3681 72.3449C21.3681 72.3057 21.2143 72.1289 21.0262 71.952C20.8382 71.775 20.6844 71.6111 20.6844 71.5875C20.6844 71.5641 20.5587 71.3621 20.4051 71.1389C20.2515 70.9155 20.0303 70.5573 19.9137 70.3426C19.797 70.128 19.6726 69.9407 19.6374 69.9264C19.6021 69.912 19.5733 69.8176 19.5733 69.7163C19.5733 69.6152 19.5348 69.5106 19.4878 69.4841C19.4408 69.4576 19.4023 69.3676 19.4023 69.2843C19.4023 69.201 19.3639 69.1329 19.3169 69.1329C19.2699 69.1329 19.2314 68.9924 19.2314 68.8207C19.2314 68.649 19.1929 68.5085 19.1459 68.5085C19.0989 68.5085 19.0605 68.4031 19.0605 68.2743C19.0605 68.1456 19.022 68.0402 18.975 68.0402C18.928 68.0402 18.8895 67.986 18.8895 67.9196C18.8895 67.7635 18.5088 67.4158 18.3378 67.4158C18.2652 67.4158 18.2058 67.3807 18.2058 67.3378C18.2058 67.2948 18.112 67.2597 17.9973 67.2597C17.8825 67.2597 17.7648 67.2246 17.7357 67.1817C17.7067 67.1387 17.5312 67.1036 17.346 67.1036C17.1607 67.1036 17.0093 67.0685 17.0093 67.0256C17.0093 66.9827 16.9492 66.9475 16.8757 66.9475C16.6943 66.9475 15.8751 66.7069 15.7742 66.624C15.7296 66.5873 15.6238 66.5573 15.5392 66.5573C15.4546 66.5573 15.3854 66.5222 15.3854 66.4792C15.3854 66.4363 15.3084 66.4012 15.2144 66.4012C15.1204 66.4012 15.0435 66.3661 15.0435 66.3231C15.0435 66.2802 14.9931 66.2451 14.9313 66.2451C14.8698 66.2451 14.7367 66.1749 14.6358 66.089C14.535 66.0031 14.4204 65.9329 14.3813 65.9329C14.3422 65.9329 14.1401 65.7924 13.9324 65.6207C13.7247 65.449 13.5051 65.3085 13.4444 65.3085C13.3837 65.3085 13.3342 65.2744 13.3342 65.2326C13.3342 65.1907 13.1707 65.0045 12.9709 64.819C12.7711 64.6332 12.4746 64.3249 12.3117 64.1339C12.1489 63.9429 11.9855 63.7749 11.9485 63.7606C11.9115 63.7462 11.8812 63.6925 11.8812 63.6412C11.8812 63.5899 11.8043 63.4972 11.7103 63.4354C11.6163 63.3735 11.5393 63.2603 11.5393 63.1841C11.5393 63.1076 11.5009 63.0451 11.4539 63.0451C11.4069 63.0451 11.3684 62.9749 11.3684 62.889C11.3684 62.8032 11.3299 62.7329 11.2829 62.7329C11.2359 62.7329 11.1975 62.6627 11.1975 62.5768C11.1975 62.491 11.159 62.4207 11.112 62.4207C11.065 62.4207 11.0265 62.3505 11.0265 62.2646C11.0265 62.1788 10.9881 62.1086 10.9411 62.1086C10.8941 62.1086 10.8556 62.0032 10.8556 61.8744C10.8556 61.7456 10.8171 61.6403 10.7701 61.6403C10.7231 61.6403 10.6847 61.5349 10.6847 61.4061C10.6847 61.2773 10.6462 61.172 10.5992 61.172C10.5522 61.172 10.5137 61.0491 10.5137 60.8988C10.5137 60.7486 10.4753 60.6256 10.4283 60.6256C10.3808 60.6256 10.3428 60.4174 10.3428 60.1573C10.3428 59.8973 10.3048 59.6891 10.2573 59.6891C10.2043 59.6891 10.1719 59.2598 10.1719 58.5574C10.1719 57.8549 10.1394 57.4257 10.0864 57.4257C10.0394 57.4257 10.0009 57.3849 10.0009 57.3351C10.0009 57.1833 9.47017 56.8013 9.25906 56.8013C9.15009 56.8013 9.06078 56.7662 9.06078 56.7232C9.06078 56.6803 8.9454 56.6452 8.80438 56.6452C8.66335 56.6452 8.54797 56.6101 8.54797 56.5671C8.54797 56.5242 8.47105 56.4891 8.37704 56.4891C8.28302 56.4891 8.2061 56.454 8.2061 56.411C8.2061 56.3681 8.12918 56.333 8.03517 56.333C7.94116 56.333 7.86423 56.2979 7.86423 56.255C7.86423 56.212 7.78731 56.1769 7.6933 56.1769C7.59929 56.1769 7.52236 56.1418 7.52236 56.0989C7.52236 56.0559 7.45399 56.0208 7.37023 56.0208C7.28669 56.0208 7.16276 55.9506 7.09503 55.8647C7.02729 55.7789 6.92324 55.7086 6.86405 55.7086C6.80465 55.7086 6.63714 55.612 6.49163 55.494C5.98245 55.0807 5.04381 54.2327 5.04381 54.1863C5.04381 54.1603 4.92864 54.0269 4.78783 53.8897C4.64703 53.7525 4.53164 53.5964 4.53143 53.5428C4.53122 53.4891 4.49254 53.4452 4.44554 53.4452C4.39853 53.4452 4.36007 53.3828 4.36007 53.3063C4.36007 53.23 4.28315 53.1168 4.18913 53.055C4.09512 52.9931 4.0182 52.8821 4.0182 52.8082C4.0182 52.7344 3.97974 52.6523 3.93273 52.6257C3.88572 52.5992 3.84726 52.4917 3.84726 52.3869C3.84726 52.2821 3.8088 52.1965 3.7618 52.1965C3.71479 52.1965 3.67633 52.1262 3.67633 52.0404C3.67633 51.9545 3.63787 51.8843 3.59086 51.8843C3.54385 51.8843 3.50539 51.781 3.50539 51.6548C3.50539 51.5286 3.46693 51.4035 3.41993 51.377C3.37292 51.3504 3.33446 51.1902 3.33446 51.0211C3.33446 50.8519 3.296 50.7135 3.24899 50.7135C3.19536 50.7135 3.16352 50.2193 3.16352 49.3867C3.16352 48.5542 3.19536 48.0599 3.24899 48.0599C3.296 48.0599 3.33446 47.9194 3.33446 47.7477C3.33446 47.576 3.37292 47.4355 3.41993 47.4355C3.46693 47.4355 3.50539 47.3302 3.50539 47.2014C3.50539 47.0726 3.54385 46.9672 3.59086 46.9672C3.63787 46.9672 3.67633 46.8794 3.67633 46.7721C3.67633 46.6648 3.71479 46.577 3.7618 46.577C3.8088 46.577 3.84726 46.5313 3.84726 46.4755C3.84726 46.3319 4.04833 45.954 4.12503 45.9532C4.16029 45.9528 4.18913 45.8824 4.18913 45.7965C4.18913 45.7107 4.22759 45.6404 4.2746 45.6404C4.32161 45.6404 4.36007 45.578 4.36007 45.5015C4.36007 45.4252 4.43699 45.312 4.531 45.2502C4.62502 45.1883 4.70194 45.0894 4.70194 45.0303C4.70194 44.9714 5.14423 44.5206 5.68481 44.0289C6.2254 43.537 6.66769 43.0838 6.66769 43.0217C6.66769 42.9595 6.70615 42.9087 6.75316 42.9087C6.80294 42.9087 6.83862 42.6487 6.83862 42.2844C6.83862 41.9201 6.80294 41.66 6.75316 41.66C6.70615 41.66 6.66769 41.5975 6.66769 41.5211C6.66769 41.4448 6.59077 41.3316 6.49676 41.2697C6.40274 41.2079 6.32582 41.1123 6.32582 41.0574C6.32582 41.0024 6.29206 40.9576 6.25082 40.9576C6.20937 40.9576 6.12647 40.8493 6.06643 40.7168C6.00639 40.5843 5.91515 40.435 5.86366 40.3851C5.72349 40.2487 5.21474 39.3123 5.21474 39.1905C5.21474 39.1322 5.17628 39.0844 5.12928 39.0844C5.08227 39.0844 5.04381 38.979 5.04381 38.8503C5.04381 38.7215 5.00535 38.6161 4.95834 38.6161C4.91133 38.6161 4.87287 38.4932 4.87287 38.3429C4.87287 38.1927 4.83805 38.0698 4.79531 38.0698C4.63869 38.0698 4.4637 35.7586 4.61027 35.6247C4.6607 35.5787 4.70194 35.3724 4.70194 35.1664C4.70194 34.9603 4.7404 34.7918 4.78741 34.7918C4.83441 34.7918 4.87287 34.6513 4.87287 34.4796C4.87287 34.3079 4.91133 34.1674 4.95834 34.1674C5.00535 34.1674 5.04359 34.1059 5.04359 34.0308C5.04338 33.9557 5.24337 33.5254 5.48824 33.0747C5.91494 32.289 5.97861 32.1906 6.21899 31.9459C6.27775 31.886 6.32582 31.7973 6.32582 31.7487C6.32582 31.7001 6.58543 31.4252 6.90273 31.1379C7.22002 30.8507 7.52771 30.5372 7.58647 30.4414C7.71488 30.232 7.73304 29.0162 7.60783 29.0162C7.5604 29.0162 7.52236 28.8096 7.52236 28.5526C7.52236 28.2976 7.4839 28.0671 7.4369 28.0406C7.32387 27.9768 7.32387 26.5187 7.4369 26.5187C7.48519 26.5187 7.52236 26.2976 7.52236 26.0114C7.52236 25.7251 7.55954 25.504 7.60783 25.504C7.65484 25.504 7.6933 25.3636 7.6933 25.1919C7.6933 25.0201 7.73176 24.8797 7.77877 24.8797C7.82577 24.8797 7.86423 24.7743 7.86423 24.6455C7.86423 24.5167 7.9027 24.4114 7.9497 24.4114C7.99671 24.4114 8.03517 24.3236 8.03517 24.2163C8.03517 24.1089 8.07363 24.0211 8.12064 24.0211C8.16764 24.0211 8.2061 23.9509 8.2061 23.865C8.2061 23.7792 8.24456 23.7089 8.29157 23.7089C8.33858 23.7089 8.37704 23.6633 8.37704 23.6075C8.37704 23.4639 8.5781 23.0859 8.65481 23.0851C8.69006 23.0848 8.71891 23.0143 8.71891 22.9285C8.71891 22.8426 8.75267 22.7724 8.79391 22.7724C8.83536 22.7724 8.91698 22.667 8.97531 22.5382C9.03364 22.4094 9.10907 22.3041 9.14283 22.3041C9.17659 22.3041 9.24859 22.2153 9.30265 22.107C9.41205 21.8877 9.57743 21.7111 10.2351 21.1121C10.9481 20.4623 11.2725 20.1968 11.3532 20.1968C11.3947 20.1968 11.5492 20.0914 11.6968 19.9626C11.8445 19.8339 12.0231 19.7285 12.094 19.7285C12.165 19.7285 12.2231 19.7 12.2231 19.6651C12.2231 19.6302 12.3577 19.5533 12.5222 19.4944C12.6867 19.4354 12.8213 19.3585 12.8213 19.3236C12.8213 19.2887 12.8983 19.2602 12.9923 19.2602C13.0863 19.2602 13.1632 19.2251 13.1632 19.1822C13.1632 19.1392 13.2401 19.1041 13.3342 19.1041C13.4282 19.1041 13.5051 19.069 13.5051 19.0261C13.5051 18.9831 13.6205 18.948 13.7615 18.948C13.9025 18.948 14.0179 18.9129 14.0179 18.87C14.0179 18.827 14.1117 18.7919 14.2264 18.7919C14.3412 18.7919 14.4589 18.7568 14.488 18.7139C14.517 18.6709 14.6516 18.6358 14.7871 18.6358C14.9226 18.6358 15.0572 18.6007 15.0862 18.5578C15.1153 18.5148 15.3484 18.4797 15.6042 18.4797C15.8599 18.4797 16.0691 18.4446 16.0691 18.4017C16.0691 18.3588 16.1783 18.3236 16.3118 18.3236C16.4815 18.3236 16.6746 18.2202 16.9528 17.9802L17.3511 17.6366V16.9437C17.3511 16.3402 17.3291 16.2362 17.1802 16.1383C17.0862 16.0764 17.0093 15.9633 17.0093 15.887C17.0093 15.8105 16.9778 15.748 16.9396 15.748C16.9011 15.748 16.7569 15.5285 16.6191 15.2602C16.4811 14.992 16.3394 14.7607 16.3041 14.7465C16.2689 14.7321 16.24 14.6201 16.24 14.4973C16.24 14.3748 16.2016 14.2526 16.1546 14.2261C16.1076 14.1996 16.0691 14.006 16.0691 13.7959C16.0691 13.5859 16.0232 13.3219 15.967 13.2093C15.8879 13.0509 15.8879 12.9713 15.967 12.8556C16.0232 12.7734 16.0691 12.495 16.0691 12.2369C16.0691 11.976 16.1071 11.7676 16.1546 11.7676C16.2016 11.7676 16.24 11.697 16.24 11.6105C16.24 11.5241 16.2755 11.3924 16.3189 11.3178C16.3623 11.2433 16.5328 10.9294 16.6979 10.6203C17.0001 10.0546 18.1483 8.87982 18.3992 8.87982C18.4601 8.87982 18.5654 8.80958 18.6331 8.72373C18.7009 8.63788 18.8248 8.56763 18.9083 8.56763C18.9921 8.56763 19.0605 8.53251 19.0605 8.48958C19.0605 8.44666 19.1374 8.41154 19.2314 8.41154C19.3254 8.41154 19.4023 8.37642 19.4023 8.33349C19.4023 8.29056 19.4908 8.25544 19.5989 8.25544C19.707 8.25544 19.8438 8.21154 19.9028 8.15788C19.9825 8.0853 20.5301 8.06032 22.0409 8.06032C23.8612 8.06032 24.0877 8.04608 24.2219 7.92374C24.3043 7.84862 24.4073 7.78715 24.4511 7.78715C24.4947 7.78715 24.5304 7.73447 24.5304 7.67008C24.5304 7.60569 24.5592 7.55281 24.5945 7.55242C24.6712 7.55164 24.8723 7.1737 24.8723 7.03009C24.8723 6.97428 24.9107 6.92862 24.9577 6.92862C25.0047 6.92862 25.0432 6.84297 25.0432 6.73819C25.0432 6.63341 25.0817 6.5259 25.1287 6.49936C25.1757 6.47282 25.2141 6.39068 25.2141 6.31692C25.2141 6.24297 25.291 6.13195 25.3851 6.0701C25.4791 6.00824 25.556 5.89507 25.556 5.81878C25.556 5.7423 25.588 5.67986 25.6269 5.67986C25.666 5.67986 25.7526 5.58327 25.8192 5.46523C25.9594 5.21664 27.1113 4.17353 27.4576 3.98134C27.5869 3.90973 27.6927 3.82349 27.6927 3.78992C27.6927 3.75617 27.7431 3.72866 27.8049 3.72866C27.8664 3.72866 27.992 3.66466 28.0839 3.58661C28.1758 3.50837 28.433 3.39539 28.6555 3.33549C28.8781 3.27539 29.0602 3.19891 29.0602 3.16535C29.0602 3.13179 29.154 3.10427 29.2687 3.10427C29.3834 3.10427 29.5012 3.06915 29.5302 3.02623C29.5593 2.9833 29.7155 2.94818 29.8772 2.94818C30.039 2.94818 30.1712 2.91306 30.1712 2.87013C30.1712 2.82154 30.6556 2.79208 31.4533 2.79208C32.2509 2.79208 32.7353 2.82154 32.7353 2.87013ZM25.4705 11.5301C25.4 11.5737 25.2633 11.6097 25.1667 11.6103C24.675 11.6137 24.1885 12.2872 24.1885 12.9649C24.1885 13.847 24.6541 14.3385 25.5987 14.4538C27.1534 14.6437 27.4363 14.6885 27.4363 14.7459C27.4363 14.782 27.5324 14.8115 27.65 14.8115C27.7675 14.8115 27.8636 14.8466 27.8636 14.8895C27.8636 14.9324 27.9405 14.9676 28.0346 14.9676C28.1286 14.9676 28.2055 15.0027 28.2055 15.0456C28.2055 15.0885 28.2824 15.1237 28.3764 15.1237C28.4704 15.1237 28.5474 15.1588 28.5474 15.2017C28.5474 15.2446 28.6243 15.2798 28.7183 15.2798C28.8123 15.2798 28.8892 15.309 28.8892 15.3445C28.8892 15.3802 28.995 15.4591 29.1243 15.5198C29.2535 15.5802 29.4215 15.6917 29.4975 15.767C29.5736 15.8425 29.6775 15.9041 29.7285 15.9041C29.8458 15.9041 31.1114 17.0552 31.1114 17.1619C31.1114 17.3623 31.8913 18.1675 32.0853 18.1675C32.1552 18.1675 32.2361 18.2027 32.2652 18.2456C32.2943 18.2885 32.5658 18.3236 32.8686 18.3236C33.1786 18.3236 33.419 18.2895 33.419 18.2456C33.419 18.2027 33.478 18.1675 33.5502 18.1675C34.2899 18.1675 34.7269 16.8702 34.2579 16.0677C34.1551 15.8919 34.0397 15.748 34.0015 15.748C33.9632 15.748 33.9318 15.7038 33.9318 15.6497C33.9318 15.4681 32.2225 13.7968 32.0366 13.7968C31.9885 13.7968 31.8415 13.6915 31.7097 13.5627C31.5778 13.4339 31.4171 13.3286 31.3524 13.3286C31.2877 13.3286 31.1791 13.2583 31.1114 13.1725C31.0436 13.0866 30.939 13.0164 30.8789 13.0164C30.8187 13.0164 30.7693 12.99 30.7689 12.9578C30.7684 12.9256 30.6819 12.8593 30.5766 12.8105C30.4712 12.7617 30.1541 12.6136 29.8721 12.4813C29.5901 12.3491 29.292 12.2396 29.2097 12.2384C29.1275 12.2371 29.0602 12.2008 29.0602 12.1578C29.0602 12.1149 28.9448 12.0798 28.8038 12.0798C28.6627 12.0798 28.5474 12.0447 28.5474 12.0017C28.5474 11.9588 28.432 11.9237 28.291 11.9237C28.1499 11.9237 28.0346 11.8921 28.0346 11.8535C28.0346 11.8148 27.8711 11.7635 27.6713 11.7393C26.4203 11.5879 26.0842 11.5436 25.8551 11.5001C25.7141 11.4732 25.541 11.4866 25.4705 11.5301ZM54.0878 11.4944C54.0577 11.5221 53.7312 11.5787 53.3624 11.6205C52.0704 11.7664 51.9654 11.7838 51.9654 11.8535C51.9654 11.8921 51.8501 11.9237 51.709 11.9237C51.568 11.9237 51.4526 11.9588 51.4526 12.0017C51.4526 12.0447 51.3373 12.0798 51.1962 12.0798C51.0552 12.0798 50.9398 12.1149 50.9398 12.1578C50.9398 12.2008 50.8817 12.2359 50.8106 12.2359C50.7394 12.2359 50.6144 12.2671 50.5328 12.3054C50.4512 12.3436 50.2016 12.4544 49.9783 12.5518C49.755 12.6492 49.5724 12.7582 49.5724 12.7945C49.5724 12.8306 49.4954 12.8603 49.4014 12.8603C49.3074 12.8603 49.2305 12.8954 49.2305 12.9383C49.2305 12.9812 49.1813 13.0164 49.1211 13.0164C49.061 13.0164 48.9563 13.0866 48.8886 13.1725C48.8209 13.2583 48.7123 13.3286 48.6476 13.3286C48.5829 13.3286 48.4222 13.4339 48.2903 13.5627C48.1585 13.6915 48.013 13.7968 47.9668 13.7968C47.878 13.7968 46.7519 14.7678 46.7519 14.8444C46.7519 14.8692 46.5981 15.0341 46.4101 15.2111C46.222 15.3881 46.0682 15.5812 46.0682 15.6403C46.0682 15.6997 46.0368 15.748 45.9985 15.748C45.9603 15.748 45.8449 15.8919 45.7421 16.0677C45.2731 16.8702 45.7101 18.1675 46.4498 18.1675C46.522 18.1675 46.581 18.2027 46.581 18.2456C46.581 18.2895 46.8214 18.3236 47.1314 18.3236C47.4342 18.3236 47.7057 18.2885 47.7348 18.2456C47.7639 18.2027 47.8448 18.1675 47.9147 18.1675C48.1074 18.1675 48.8886 17.3627 48.8886 17.164C48.8886 17.0641 50.058 15.9822 50.1661 15.9822C50.2114 15.9822 50.3446 15.8944 50.4621 15.7871C50.5796 15.6798 50.7266 15.592 50.789 15.592C50.8512 15.592 50.9576 15.5217 51.0253 15.4359C51.093 15.35 51.217 15.2798 51.3005 15.2798C51.3843 15.2798 51.4526 15.2446 51.4526 15.2017C51.4526 15.1588 51.5296 15.1237 51.6236 15.1237C51.7176 15.1237 51.7945 15.0885 51.7945 15.0456C51.7945 15.0027 51.8714 14.9676 51.9654 14.9676C52.0595 14.9676 52.1364 14.9324 52.1364 14.8895C52.1364 14.8466 52.2325 14.8115 52.35 14.8115C52.4676 14.8115 52.5637 14.7795 52.5637 14.7404C52.5637 14.7014 52.8913 14.6444 53.2915 14.614C53.6917 14.5836 54.0402 14.5278 54.0658 14.4899C54.0912 14.4521 54.2602 14.4212 54.441 14.4212C56.042 14.4212 56.3645 11.8747 54.8 11.5852C54.6748 11.5619 54.4756 11.5208 54.3575 11.4937C54.2393 11.4665 54.1179 11.4669 54.0878 11.4944ZM24.5304 23.3187C24.5304 23.3616 24.3189 23.3968 24.0603 23.3968C23.8018 23.3968 23.5902 23.4319 23.5902 23.4748C23.5902 23.5177 23.4364 23.5528 23.2484 23.5528C23.0603 23.5528 22.9065 23.588 22.9065 23.6309C22.9065 23.6738 22.7911 23.7089 22.6501 23.7089C22.5091 23.7089 22.3937 23.7441 22.3937 23.787C22.3937 23.8299 22.2783 23.865 22.1373 23.865C21.9963 23.865 21.8809 23.9002 21.8809 23.9431C21.8809 23.986 21.804 24.0211 21.71 24.0211C21.6159 24.0211 21.539 24.0563 21.539 24.0992C21.539 24.1421 21.4621 24.1772 21.3681 24.1772C21.2741 24.1772 21.1972 24.2124 21.1972 24.2553C21.1972 24.2982 21.1367 24.3333 21.0628 24.3333C20.9145 24.3333 20.1455 24.7206 20.1004 24.8182C20.0846 24.852 20.023 24.8797 19.9634 24.8797C19.9038 24.8797 19.7436 24.9766 19.6072 25.0951C19.4711 25.2137 19.225 25.3975 19.0605 25.5037C18.6761 25.7515 18.3002 26.0958 18.0374 26.4406C17.9229 26.5909 17.7601 26.7706 17.6757 26.84C17.5913 26.9095 17.5221 26.9973 17.5221 27.0352C17.5218 27.073 17.4263 27.2055 17.3095 27.3294C17.1928 27.4535 17.0505 27.673 16.9934 27.8172C16.9362 27.9616 16.8586 28.0796 16.8212 28.0796C16.7836 28.0796 16.7528 28.1499 16.7528 28.2357C16.7528 28.3216 16.7144 28.3918 16.6674 28.3918C16.6204 28.3918 16.5819 28.4621 16.5819 28.5479C16.5819 28.6338 16.5435 28.704 16.4964 28.704C16.4494 28.704 16.411 28.7897 16.411 28.8945C16.411 28.9992 16.3725 29.1067 16.3255 29.1333C16.2785 29.1598 16.24 29.2498 16.24 29.3331C16.24 29.4164 16.2016 29.4845 16.1546 29.4845C16.1076 29.4845 16.0691 29.625 16.0691 29.7967C16.0691 29.9684 16.0306 30.1089 15.9836 30.1089C15.9366 30.1089 15.8982 30.2494 15.8982 30.4211C15.8982 30.5928 15.8597 30.7333 15.8127 30.7333C15.7629 30.7333 15.7272 30.9918 15.7272 31.353C15.7272 31.6938 15.6888 31.9945 15.6418 32.0211C15.5858 32.0527 15.5563 34.4659 15.5563 39.0063C15.5563 43.5468 15.5858 45.96 15.6418 45.9916C15.6888 46.0182 15.7272 46.3189 15.7272 46.6597C15.7272 47.0209 15.7629 47.2794 15.8127 47.2794C15.8597 47.2794 15.8982 47.4199 15.8982 47.5916C15.8982 47.7633 15.9366 47.9038 15.9836 47.9038C16.0306 47.9038 16.0691 48.0443 16.0691 48.216C16.0691 48.3877 16.1076 48.5282 16.1546 48.5282C16.2016 48.5282 16.24 48.5963 16.24 48.6796C16.24 48.7629 16.2785 48.8529 16.3255 48.8794C16.3725 48.906 16.411 49.0135 16.411 49.1182C16.411 49.223 16.4494 49.3087 16.4964 49.3087C16.5435 49.3087 16.5819 49.3789 16.5819 49.4648C16.5819 49.5506 16.6204 49.6209 16.6674 49.6209C16.7144 49.6209 16.7528 49.6911 16.7528 49.777C16.7528 49.8628 16.7836 49.9331 16.8212 49.9331C16.8586 49.9331 16.9362 50.0511 16.9934 50.1955C17.0505 50.3397 17.1928 50.5592 17.3095 50.6833C17.4263 50.8072 17.5218 50.9397 17.5221 50.9775C17.5221 51.0154 17.5904 51.1032 17.674 51.1727C17.7577 51.2421 17.9594 51.457 18.1225 51.6501C18.4998 52.0971 18.6887 52.2702 19.0605 52.5094C19.225 52.6154 19.4711 52.799 19.6072 52.9176C19.7436 53.0361 19.907 53.133 19.9705 53.133C20.0342 53.133 20.0861 53.1639 20.0861 53.2015C20.0861 53.2394 20.2015 53.3139 20.3425 53.3672C20.4835 53.4204 20.5989 53.4934 20.5989 53.5291C20.5989 53.565 20.7335 53.6173 20.898 53.6454C21.0625 53.6737 21.1972 53.728 21.1972 53.7662C21.1972 53.8042 21.2741 53.8355 21.3681 53.8355C21.4621 53.8355 21.539 53.8706 21.539 53.9135C21.539 53.9564 21.6159 53.9916 21.71 53.9916C21.804 53.9916 21.8809 54.0267 21.8809 54.0696C21.8809 54.1125 21.9963 54.1477 22.1373 54.1477C22.2783 54.1477 22.3937 54.1828 22.3937 54.2257C22.3937 54.2686 22.5091 54.3038 22.6501 54.3038C22.7911 54.3038 22.9065 54.3389 22.9065 54.3818C22.9065 54.4247 23.0603 54.4599 23.2484 54.4599C23.4364 54.4599 23.5902 54.495 23.5902 54.5379C23.5902 54.5808 23.7994 54.6159 24.0552 54.6159C24.311 54.6159 24.5441 54.6511 24.5731 54.694C24.608 54.7455 29.8428 54.772 40 54.772C50.1572 54.772 55.392 54.7455 55.4269 54.694C55.4559 54.6511 55.689 54.6159 55.9448 54.6159C56.2006 54.6159 56.4097 54.5808 56.4097 54.5379C56.4097 54.495 56.5636 54.4599 56.7516 54.4599C56.9396 54.4599 57.0935 54.4247 57.0935 54.3818C57.0935 54.3389 57.2089 54.3038 57.3499 54.3038C57.4909 54.3038 57.6063 54.2686 57.6063 54.2257C57.6063 54.1828 57.7217 54.1477 57.8627 54.1477C58.0037 54.1477 58.1191 54.1125 58.1191 54.0696C58.1191 54.0267 58.196 53.9916 58.29 53.9916C58.384 53.9916 58.461 53.9564 58.461 53.9135C58.461 53.8706 58.5379 53.8355 58.6319 53.8355C58.7259 53.8355 58.8028 53.8046 58.8028 53.7672C58.8028 53.7295 58.9187 53.6778 59.0601 53.6519C59.3062 53.607 59.84 53.3143 59.8996 53.1916C59.9154 53.1594 59.9769 53.133 60.0366 53.133C60.0962 53.133 60.2564 53.0361 60.3927 52.9176C60.5289 52.799 60.775 52.6162 60.9395 52.511C61.2647 52.3034 61.9628 51.6488 61.9643 51.55C61.9647 51.5163 62.0965 51.3688 62.2572 51.2222C62.4177 51.0755 62.5743 50.8835 62.6049 50.7955C62.6354 50.7075 62.6963 50.6355 62.7401 50.6355C62.7839 50.6355 62.8198 50.5984 62.8198 50.5533C62.8198 50.5081 62.916 50.3418 63.0335 50.184C63.151 50.0261 63.2471 49.8347 63.2471 49.7588C63.2471 49.6829 63.2856 49.6209 63.3326 49.6209C63.3796 49.6209 63.4181 49.5506 63.4181 49.4648C63.4181 49.3789 63.4565 49.3087 63.5036 49.3087C63.5506 49.3087 63.589 49.223 63.589 49.1182C63.589 49.0135 63.6275 48.906 63.6745 48.8794C63.7215 48.8529 63.76 48.7629 63.76 48.6796C63.76 48.5963 63.7984 48.5282 63.8454 48.5282C63.8924 48.5282 63.9309 48.3877 63.9309 48.216C63.9309 48.0443 63.9693 47.9038 64.0163 47.9038C64.0634 47.9038 64.1018 47.7633 64.1018 47.5916C64.1018 47.4199 64.1403 47.2794 64.1873 47.2794C64.2379 47.2794 64.2728 46.9932 64.2728 46.577C64.2728 46.1608 64.3076 45.8746 64.3582 45.8746C64.4146 45.8746 64.4437 43.5331 64.4437 39.0063C64.4437 34.4796 64.4146 32.1381 64.3582 32.1381C64.3076 32.1381 64.2728 31.8519 64.2728 31.4357C64.2728 31.0195 64.2379 30.7333 64.1873 30.7333C64.1403 30.7333 64.1018 30.5928 64.1018 30.4211C64.1018 30.2494 64.0634 30.1089 64.0163 30.1089C63.9693 30.1089 63.9309 29.9684 63.9309 29.7967C63.9309 29.625 63.8924 29.4845 63.8454 29.4845C63.7984 29.4845 63.76 29.4164 63.76 29.3331C63.76 29.2498 63.7215 29.1598 63.6745 29.1333C63.6275 29.1067 63.589 28.9992 63.589 28.8945C63.589 28.7897 63.5506 28.704 63.5036 28.704C63.4565 28.704 63.4181 28.6338 63.4181 28.5479C63.4181 28.4621 63.3796 28.3918 63.3326 28.3918C63.2856 28.3918 63.2471 28.3366 63.2471 28.2691C63.2471 28.1376 62.8544 27.4835 62.6732 27.313C62.6128 27.2564 62.5634 27.179 62.5634 27.1411C62.5634 27.1031 62.4769 26.9912 62.3711 26.8923C62.2653 26.7936 62.0784 26.5901 61.9555 26.44C61.6305 26.0434 61.2799 25.7195 60.9395 25.5019C60.775 25.3967 60.5289 25.2137 60.3927 25.0951C60.2564 24.9766 60.093 24.8797 60.0295 24.8797C59.9658 24.8797 59.9139 24.851 59.9139 24.8159C59.9139 24.7355 58.7524 24.1772 58.5849 24.1772C58.5167 24.1772 58.461 24.1421 58.461 24.0992C58.461 24.0563 58.384 24.0211 58.29 24.0211C58.196 24.0211 58.1191 23.986 58.1191 23.9431C58.1191 23.9002 58.0037 23.865 57.8627 23.865C57.7217 23.865 57.6063 23.8299 57.6063 23.787C57.6063 23.7441 57.4909 23.7089 57.3499 23.7089C57.2089 23.7089 57.0935 23.6738 57.0935 23.6309C57.0935 23.588 56.9396 23.5528 56.7516 23.5528C56.5636 23.5528 56.4097 23.5177 56.4097 23.4748C56.4097 23.4319 56.1982 23.3968 55.9397 23.3968C55.6811 23.3968 55.4696 23.3616 55.4696 23.3187C55.4696 23.267 50.2561 23.2407 40 23.2407C29.7439 23.2407 24.5304 23.267 24.5304 23.3187ZM54.9995 26.2065C55.0286 26.2494 55.1916 26.2845 55.3617 26.2845C55.6645 26.2845 56.1339 26.3916 56.43 26.5282C56.5117 26.5659 56.6559 26.5967 56.7505 26.5967C56.8452 26.5967 56.9226 26.6318 56.9226 26.6748C56.9226 26.7177 56.9995 26.7528 57.0935 26.7528C57.1875 26.7528 57.2644 26.7879 57.2644 26.8309C57.2644 26.8738 57.3238 26.9089 57.3963 26.9089C57.4687 26.9089 57.6106 26.9792 57.7114 27.065C57.8123 27.1509 57.9454 27.2211 58.0069 27.2211C58.0687 27.2211 58.1191 27.2519 58.1191 27.2896C58.1191 27.3274 58.239 27.4035 58.3853 27.459C58.6945 27.5758 59.6575 28.4123 59.6575 28.5639C59.6575 28.6203 59.7537 28.7612 59.8712 28.8771C59.9887 28.9928 60.0849 29.1387 60.0849 29.2014C60.0849 29.264 60.1137 29.327 60.1489 29.3415C60.2547 29.3844 60.7686 30.3536 60.7686 30.51C60.7686 30.5898 60.8028 30.6552 60.8447 30.6552C60.944 30.6552 61.0288 31.0896 61.081 31.865C61.104 32.2084 61.1585 32.5227 61.2021 32.5635C61.3143 32.6683 61.3081 45.3821 61.1959 45.4453C61.1489 45.4718 61.1105 45.7704 61.1105 46.1087C61.1105 46.4471 61.072 46.7456 61.025 46.7721C60.978 46.7987 60.9395 46.9413 60.9395 47.089C60.9395 47.2367 60.9011 47.3575 60.8541 47.3575C60.8071 47.3575 60.7686 47.4229 60.7686 47.5027C60.7686 47.6591 60.2547 48.6283 60.1489 48.6712C60.1137 48.6857 60.0849 48.7487 60.0849 48.8113C60.0849 48.874 59.9887 49.0199 59.8712 49.1356C59.7537 49.2515 59.6575 49.3924 59.6575 49.4488C59.6575 49.6004 58.6945 50.4369 58.3853 50.5537C58.239 50.6092 58.1191 50.6853 58.1191 50.7231C58.1191 50.7608 58.0687 50.7916 58.0069 50.7916C57.9454 50.7916 57.8123 50.8618 57.7114 50.9477C57.6106 51.0335 57.4687 51.1038 57.3963 51.1038C57.3238 51.1038 57.2644 51.1389 57.2644 51.1818C57.2644 51.2248 57.1875 51.2599 57.0935 51.2599C56.9995 51.2599 56.9226 51.295 56.9226 51.3379C56.9226 51.3809 56.8288 51.416 56.714 51.416C56.5993 51.416 56.4815 51.4511 56.4525 51.494C56.4234 51.5369 56.2888 51.5721 56.1534 51.5721C56.0179 51.5721 55.8833 51.6072 55.8542 51.6501C55.8252 51.693 55.6113 51.7282 55.379 51.7282C55.1468 51.7282 54.9568 51.7633 54.9568 51.8062C54.9568 51.8579 49.9142 51.8843 40 51.8843C30.0858 51.8843 25.0432 51.8579 25.0432 51.8062C25.0432 51.7633 24.8532 51.7282 24.621 51.7282C24.3887 51.7282 24.1748 51.693 24.1458 51.6501C24.1167 51.6072 23.9821 51.5721 23.8466 51.5721C23.7112 51.5721 23.5766 51.5369 23.5475 51.494C23.5185 51.4511 23.4007 51.416 23.286 51.416C23.1712 51.416 23.0774 51.3809 23.0774 51.3379C23.0774 51.295 23.0005 51.2599 22.9065 51.2599C22.8125 51.2599 22.7356 51.2248 22.7356 51.1818C22.7356 51.1389 22.6762 51.1038 22.6037 51.1038C22.5313 51.1038 22.3894 51.0335 22.2886 50.9477C22.1877 50.8618 22.0546 50.7916 21.9931 50.7916C21.9313 50.7916 21.8809 50.7608 21.8809 50.7231C21.8809 50.6853 21.7617 50.6094 21.6159 50.5541C21.2948 50.4328 20.5835 49.8137 20.4027 49.4983C20.3305 49.3727 20.1914 49.1922 20.0933 49.0974C19.9953 49.0025 19.9151 48.8738 19.9151 48.8111C19.9151 48.7485 19.8863 48.6857 19.851 48.6712C19.7453 48.6283 19.2314 47.6591 19.2314 47.5027C19.2314 47.4229 19.1972 47.3575 19.1553 47.3575C19.056 47.3575 18.9712 46.9231 18.919 46.1477C18.8959 45.8043 18.8415 45.49 18.7979 45.4492C18.6915 45.3497 18.6915 32.663 18.7979 32.5635C18.8415 32.5227 18.8959 32.2084 18.919 31.865C18.9712 31.0896 19.056 30.6552 19.1553 30.6552C19.1972 30.6552 19.2314 30.5965 19.2314 30.5249C19.2314 30.3559 19.7613 29.3284 19.8485 29.3284C19.8852 29.3284 19.9151 29.2742 19.9151 29.208C19.9151 29.1419 19.9953 29.0102 20.0933 28.9153C20.1914 28.8205 20.3305 28.64 20.4027 28.5144C20.5835 28.199 21.2948 27.5799 21.6159 27.4586C21.7617 27.4033 21.8809 27.3274 21.8809 27.2896C21.8809 27.2519 21.9313 27.2211 21.9931 27.2211C22.0546 27.2211 22.1877 27.1509 22.2886 27.065C22.3894 26.9792 22.5313 26.9089 22.6037 26.9089C22.6762 26.9089 22.7356 26.8738 22.7356 26.8309C22.7356 26.7879 22.8125 26.7528 22.9065 26.7528C23.0005 26.7528 23.0774 26.7177 23.0774 26.6748C23.0774 26.6318 23.1548 26.5967 23.2494 26.5967C23.3441 26.5967 23.4883 26.5659 23.5699 26.5282C23.8661 26.3916 24.3355 26.2845 24.6383 26.2845C24.8084 26.2845 24.9714 26.2494 25.0005 26.2065C25.0735 26.0984 54.9265 26.0984 54.9995 26.2065ZM42.4358 28.4699C42.4068 28.5128 42.307 28.5479 42.2142 28.5479C42.0153 28.5479 41.4529 29.0359 41.4529 29.2088C41.4529 29.2745 41.4145 29.3284 41.3675 29.3284C41.3205 29.3284 41.282 29.4689 41.282 29.6406C41.282 29.8123 41.2436 29.9528 41.1965 29.9528C41.1495 29.9528 41.1111 30.0581 41.1111 30.1869C41.1111 30.3157 41.0726 30.4211 41.0256 30.4211C40.9786 30.4211 40.9401 30.5419 40.9401 30.6896C40.9401 30.8373 40.9017 30.9799 40.8547 31.0064C40.8077 31.033 40.7692 31.1383 40.7692 31.2406C40.7692 31.3428 40.7307 31.4482 40.6837 31.4747C40.6367 31.5013 40.5983 31.6439 40.5983 31.7916C40.5983 31.9393 40.5598 32.0601 40.5128 32.0601C40.4658 32.0601 40.4273 32.1654 40.4273 32.2942C40.4273 32.423 40.3889 32.5284 40.3419 32.5284C40.2949 32.5284 40.2564 32.6688 40.2564 32.8406C40.2564 33.0123 40.2179 33.1527 40.1709 33.1527C40.1239 33.1527 40.0855 33.2581 40.0855 33.3869C40.0855 33.5157 40.047 33.621 40 33.621C39.953 33.621 39.9145 33.7615 39.9145 33.9332C39.9145 34.1049 39.8761 34.2454 39.8291 34.2454C39.7821 34.2454 39.7436 34.3311 39.7436 34.4359C39.7436 34.5406 39.7051 34.6482 39.6581 34.6747C39.6111 34.7012 39.5727 34.8439 39.5727 34.9916C39.5727 35.1393 39.5342 35.26 39.4872 35.26C39.4402 35.26 39.4017 35.3633 39.4017 35.4895C39.4017 35.6157 39.3633 35.7408 39.3163 35.7674C39.2693 35.7939 39.2308 35.9365 39.2308 36.0842C39.2308 36.2319 39.1923 36.3527 39.1453 36.3527C39.0983 36.3527 39.0599 36.4581 39.0599 36.5869C39.0599 36.7156 39.0214 36.821 38.9744 36.821C38.9274 36.821 38.8889 36.9615 38.8889 37.1332C38.8889 37.3049 38.8547 37.4454 38.8131 37.4454C38.7714 37.4454 38.7161 37.542 38.6902 37.66C38.5725 38.1945 38.5295 38.3533 38.4631 38.499C38.3684 38.7063 38.1193 39.7115 38.1195 39.8844C38.1197 39.9595 38.0813 40.021 38.0342 40.021C37.9872 40.021 37.9488 40.1615 37.9488 40.3332C37.9488 40.5049 37.9103 40.6454 37.8633 40.6454C37.8163 40.6454 37.7778 40.731 37.7778 40.8358C37.7778 40.9406 37.7394 41.0481 37.6924 41.0746C37.6454 41.1012 37.6069 41.2438 37.6069 41.3915C37.6069 41.5392 37.5684 41.66 37.5214 41.66C37.4744 41.66 37.436 41.7653 37.436 41.8941C37.436 42.0229 37.3975 42.1283 37.3505 42.1283C37.3035 42.1283 37.265 42.2688 37.265 42.4405C37.265 42.6122 37.2266 42.7527 37.1796 42.7527C37.1326 42.7527 37.0941 42.858 37.0941 42.9868C37.0941 43.1156 37.0556 43.2209 37.0086 43.2209C36.9616 43.2209 36.9232 43.3614 36.9232 43.5331C36.9232 43.7048 36.8847 43.8453 36.8377 43.8453C36.7907 43.8453 36.7522 43.931 36.7522 44.0358C36.7522 44.1405 36.7138 44.2481 36.6668 44.2746C36.6198 44.3011 36.5813 44.4438 36.5813 44.5915C36.5813 44.7392 36.5428 44.8599 36.4958 44.8599C36.4488 44.8599 36.4104 44.9653 36.4104 45.0941C36.4104 45.2229 36.3719 45.3282 36.3249 45.3282C36.2779 45.3282 36.2394 45.4687 36.2394 45.6404C36.2394 45.8121 36.201 45.9526 36.154 45.9526C36.107 45.9526 36.0685 46.058 36.0685 46.1868C36.0685 46.3155 36.03 46.4209 35.983 46.4209C35.936 46.4209 35.8976 46.5614 35.8976 46.7331C35.8976 46.9048 35.8591 47.0453 35.8121 47.0453C35.7651 47.0453 35.7266 47.1507 35.7266 47.2794C35.7266 47.4082 35.6882 47.5136 35.6412 47.5136C35.5918 47.5136 35.5557 47.7608 35.5557 48.0989C35.5557 48.4371 35.5918 48.6843 35.6412 48.6843C35.6882 48.6843 35.7266 48.7382 35.7266 48.8039C35.7266 49.0006 36.295 49.4648 36.5358 49.4648C36.6548 49.4648 36.7522 49.4999 36.7522 49.5428C36.7522 49.5858 36.923 49.6209 37.1317 49.6209C37.3405 49.6209 37.5351 49.5858 37.5642 49.5428C37.5932 49.4999 37.693 49.4648 37.7857 49.4648C37.9847 49.4648 38.5471 48.9768 38.5471 48.8039C38.5471 48.7382 38.5855 48.6843 38.6325 48.6843C38.6795 48.6843 38.718 48.5438 38.718 48.3721C38.718 48.2004 38.7564 48.0599 38.8035 48.0599C38.8505 48.0599 38.8889 47.9546 38.8889 47.8258C38.8889 47.697 38.9274 47.5916 38.9744 47.5916C39.0214 47.5916 39.0599 47.4708 39.0599 47.3231C39.0599 47.1754 39.0983 47.0328 39.1453 47.0063C39.1923 46.9797 39.2308 46.8744 39.2308 46.7721C39.2308 46.6699 39.2693 46.5645 39.3163 46.538C39.3633 46.5114 39.4017 46.3688 39.4017 46.2211C39.4017 46.0734 39.4402 45.9526 39.4872 45.9526C39.5342 45.9526 39.5727 45.8473 39.5727 45.7185C39.5727 45.5897 39.6111 45.4843 39.6581 45.4843C39.7051 45.4843 39.7436 45.3438 39.7436 45.1721C39.7436 45.0004 39.7821 44.8599 39.8291 44.8599C39.8761 44.8599 39.9145 44.7546 39.9145 44.6258C39.9145 44.497 39.953 44.3917 40 44.3917C40.047 44.3917 40.0855 44.2709 40.0855 44.1232C40.0855 43.9755 40.1239 43.8328 40.1709 43.8063C40.2179 43.7798 40.2564 43.6744 40.2564 43.5722C40.2564 43.4699 40.2949 43.3645 40.3419 43.338C40.3889 43.3115 40.4273 43.1688 40.4273 43.0211C40.4273 42.8734 40.4658 42.7527 40.5128 42.7527C40.5598 42.7527 40.5983 42.6494 40.5983 42.5232C40.5983 42.3969 40.6367 42.2719 40.6837 42.2453C40.7307 42.2188 40.7692 42.0762 40.7692 41.9285C40.7692 41.7808 40.8077 41.66 40.8547 41.66C40.9017 41.66 40.9401 41.5546 40.9401 41.4258C40.9401 41.2971 40.9786 41.1917 41.0256 41.1917C41.0726 41.1917 41.1111 41.0859 41.1111 40.9566C41.1111 40.8272 41.1448 40.6604 41.1861 40.5858C41.301 40.3778 41.4529 39.9084 41.4529 39.7607C41.4529 39.6881 41.4867 39.5677 41.5279 39.4932C41.6598 39.2547 41.785 38.8229 41.8444 38.4015C41.8762 38.1761 41.9358 37.9917 41.9769 37.9917C42.0177 37.9917 42.0512 37.8512 42.0512 37.6795C42.0512 37.5078 42.0897 37.3673 42.1367 37.3673C42.1837 37.3673 42.2222 37.2817 42.2222 37.1769C42.2222 37.0721 42.2606 36.9646 42.3076 36.9381C42.3546 36.9115 42.3931 36.7689 42.3931 36.6212C42.3931 36.4735 42.4315 36.3527 42.4786 36.3527C42.5256 36.3527 42.564 36.2474 42.564 36.1186C42.564 35.9898 42.6025 35.8844 42.6495 35.8844C42.6965 35.8844 42.735 35.7439 42.735 35.5722C42.735 35.4005 42.7734 35.26 42.8204 35.26C42.8674 35.26 42.9059 35.1547 42.9059 35.0259C42.9059 34.8971 42.9444 34.7918 42.9914 34.7918C43.0384 34.7918 43.0768 34.6513 43.0768 34.4796C43.0768 34.3079 43.1153 34.1674 43.1623 34.1674C43.2093 34.1674 43.2478 34.0817 43.2478 33.9769C43.2478 33.8722 43.2862 33.7646 43.3332 33.7381C43.3802 33.7116 43.4187 33.5689 43.4187 33.4212C43.4187 33.2735 43.4572 33.1527 43.5042 33.1527C43.5512 33.1527 43.5896 33.0474 43.5896 32.9186C43.5896 32.7898 43.6281 32.6845 43.6751 32.6845C43.7221 32.6845 43.7606 32.544 43.7606 32.3723C43.7606 32.2006 43.799 32.0601 43.846 32.0601C43.893 32.0601 43.9315 31.9547 43.9315 31.8259C43.9315 31.6972 43.97 31.5918 44.017 31.5918C44.064 31.5918 44.1024 31.4513 44.1024 31.2796C44.1024 31.1079 44.1409 30.9674 44.1879 30.9674C44.2349 30.9674 44.2734 30.862 44.2734 30.7333C44.2734 30.6045 44.3118 30.4991 44.3588 30.4991C44.4082 30.4991 44.4443 30.2519 44.4443 29.9138C44.4443 29.5756 44.4082 29.3284 44.3588 29.3284C44.3118 29.3284 44.2734 29.2745 44.2734 29.2088C44.2734 29.0121 43.705 28.5479 43.4642 28.5479C43.3452 28.5479 43.2478 28.5128 43.2478 28.4699C43.2478 28.4269 43.077 28.3918 42.8683 28.3918C42.6595 28.3918 42.4649 28.4269 42.4358 28.4699ZM31.1541 31.0942C31.0601 31.1137 30.896 31.1465 30.7896 31.1674C30.683 31.1881 29.933 31.8173 29.123 32.5656C28.3127 33.3137 27.6002 33.9715 27.5391 34.0271C25.7434 35.6663 23.9325 37.3211 23.8768 37.374C23.8366 37.4118 23.602 37.6167 23.3552 37.8292C23.1084 38.0419 22.9065 38.2686 22.9065 38.3332C22.9065 38.398 22.868 38.4725 22.821 38.499C22.774 38.5256 22.7356 38.7539 22.7356 39.0063C22.7356 39.2588 22.774 39.4871 22.821 39.5137C22.868 39.5402 22.9065 39.6126 22.9065 39.6744C22.9065 39.7365 23.9353 40.7193 25.1928 41.8586C26.4502 42.9981 27.5064 43.9552 27.5397 43.9854C27.5732 44.0157 28.2512 44.6428 29.0465 45.379C30.5556 46.776 30.7065 46.8892 31.058 46.8892C31.1759 46.8892 31.2951 46.923 31.3231 46.9643C31.3556 47.0123 31.4515 47.0123 31.59 46.9643C31.709 46.923 31.8998 46.8892 32.0143 46.8892C32.1289 46.8892 32.2227 46.8629 32.2231 46.8307C32.2233 46.7985 32.3387 46.7122 32.4795 46.6392C32.6201 46.5661 32.7353 46.4519 32.7353 46.3856C32.7353 46.3191 32.7737 46.2648 32.8207 46.2648C32.8677 46.2648 32.9062 46.1967 32.9062 46.1134C32.9062 46.0301 32.9447 45.9401 32.9917 45.9136C33.0387 45.8871 33.0771 45.7115 33.0771 45.5234C33.0771 45.3353 33.0387 45.1597 32.9917 45.1331C32.9447 45.1066 32.9062 45.017 32.9062 44.9343C32.9062 44.7171 32.8897 44.7009 29.6798 41.7577C28.0698 40.2815 26.7525 39.0424 26.7525 39.0042C26.7525 38.966 28.0698 37.7273 29.6798 36.2516C32.9009 33.2991 32.9062 33.2938 32.9062 33.0784C32.9062 32.9957 32.9447 32.9061 32.9917 32.8796C33.0387 32.853 33.0771 32.6774 33.0771 32.4893C33.0771 32.3012 33.0387 32.1256 32.9917 32.0991C32.9447 32.0726 32.9062 31.9826 32.9062 31.8993C32.9062 31.816 32.8677 31.7479 32.8207 31.7479C32.7737 31.7479 32.7353 31.696 32.7353 31.6326C32.7353 31.5692 32.6295 31.4558 32.5002 31.3807C32.371 31.3055 32.246 31.2213 32.2225 31.1934C32.1646 31.1243 31.3669 31.0503 31.1541 31.0942ZM48.0769 31.1011C47.9361 31.1212 47.8015 31.1616 47.7778 31.1908C47.7542 31.2203 47.629 31.3055 47.4998 31.3807C47.3705 31.4558 47.2647 31.5692 47.2647 31.6326C47.2647 31.696 47.2263 31.7479 47.1793 31.7479C47.1323 31.7479 47.0938 31.816 47.0938 31.8993C47.0938 31.9826 47.0553 32.0726 47.0083 32.0991C46.9613 32.1256 46.9229 32.3012 46.9229 32.4893C46.9229 32.6774 46.9613 32.853 47.0083 32.8796C47.0553 32.9061 47.0938 32.9957 47.0938 33.0784C47.0938 33.2893 47.0637 33.2599 50.3629 36.2797L53.3329 38.9982L50.3629 41.7214C47.1895 44.6313 47.0938 44.7241 47.0938 44.8953C47.0938 44.9565 47.0553 45.0285 47.0083 45.0551C46.9613 45.0816 46.9229 45.2945 46.9229 45.528C46.9229 45.7616 46.9613 45.9526 47.0083 45.9526C47.0553 45.9526 47.0938 45.9983 47.0938 46.0541C47.0938 46.2574 47.3126 46.5735 47.5211 46.6714C47.6387 46.7267 47.754 46.7897 47.7775 46.8113C47.9647 46.9848 48.7559 47.1001 48.8459 46.9672C48.8749 46.9243 48.9918 46.8892 49.1057 46.8892C49.3375 46.8892 57.0935 39.8842 57.0935 39.6746C57.0935 39.6126 57.132 39.5402 57.179 39.5137C57.226 39.4871 57.2644 39.2588 57.2644 39.0063C57.2644 38.7539 57.226 38.5256 57.179 38.499C57.132 38.4725 57.0935 38.398 57.0935 38.3332C57.0935 38.2686 56.8916 38.0419 56.6448 37.8292C56.398 37.6167 56.1689 37.4171 56.1358 37.3855C54.9596 36.2698 49.4557 31.2702 49.3448 31.217C49.1444 31.1206 48.41 31.0535 48.0769 31.1011ZM19.5305 59.7671C19.5015 59.81 19.4013 59.8452 19.3079 59.8452C19.1342 59.8452 18.7186 60.1683 18.7186 60.3033C18.7186 60.3447 18.675 60.3917 18.6218 60.4079C18.5601 60.4268 18.5252 60.6746 18.5252 61.0939C18.5252 61.5132 18.5601 61.761 18.6218 61.78C18.675 61.7962 18.7186 61.8607 18.7186 61.9236C18.7186 62.0744 19.1028 62.4207 19.2703 62.4207C19.3429 62.4207 19.4023 62.4559 19.4023 62.4988C19.4023 62.5435 19.6587 62.5768 20.0006 62.5768C20.3425 62.5768 20.5989 62.6102 20.5989 62.6549C20.5989 62.6978 20.7311 62.7329 20.8929 62.7329C21.0546 62.7329 21.2108 62.7681 21.2399 62.811C21.2689 62.8539 21.3679 62.889 21.4598 62.889C21.6211 62.889 21.7044 62.9171 22.1149 63.1111C22.22 63.1606 22.3475 63.2012 22.3986 63.2012C22.4497 63.2012 22.549 63.2539 22.6195 63.3183C22.6901 63.3827 22.8219 63.4354 22.9127 63.4354C23.0033 63.4354 23.0774 63.4705 23.0774 63.5134C23.0774 63.5563 23.1345 63.5915 23.2041 63.5915C23.2738 63.5915 23.4518 63.688 23.5994 63.8061C24.1028 64.2086 25.3851 65.3848 25.3853 65.4443C25.3853 65.4769 25.5007 65.6266 25.6415 65.7768C25.7823 65.9271 25.8977 66.0759 25.8977 66.1075C25.8979 66.1631 26.0814 66.3856 26.3038 66.5994C26.3626 66.656 26.4107 66.7575 26.4107 66.8248C26.4107 66.8923 26.4491 66.9475 26.4961 66.9475C26.5431 66.9475 26.5816 67.0178 26.5816 67.1036C26.5816 67.1895 26.6201 67.2597 26.6671 67.2597C26.7141 67.2597 26.7525 67.33 26.7525 67.4158C26.7525 67.5017 26.791 67.5719 26.838 67.5719C26.885 67.5719 26.9235 67.64 26.9235 67.7233C26.9235 67.8066 26.9619 67.8966 27.0089 67.9231C27.056 67.9497 27.0944 68.0388 27.0944 68.1216C27.0944 68.3062 27.7824 68.9768 27.9722 68.9768C28.048 68.9768 28.1337 69.0119 28.1628 69.0548C28.1918 69.0977 28.4057 69.1329 28.638 69.1329C28.8702 69.1329 29.0602 69.0977 29.0602 69.0548C29.0602 69.0119 29.1183 68.9768 29.1894 68.9768C29.4649 68.9768 29.9148 68.6656 29.9148 68.4751C29.9148 68.4076 29.9533 68.3524 30.0003 68.3524C30.0473 68.3524 30.0858 68.2822 30.0858 68.1963C30.0858 68.1104 30.1242 68.0402 30.1712 68.0402C30.2182 68.0402 30.2567 67.8818 30.2567 67.688C30.2567 67.4943 30.2182 67.266 30.1712 67.1807C30.1242 67.0954 30.0473 66.9557 30.0003 66.8705C29.9533 66.7852 29.9148 66.6447 29.9148 66.5583C29.9148 66.4718 29.8764 66.4012 29.8294 66.4012C29.7824 66.4012 29.7439 66.3309 29.7439 66.2451C29.7439 66.1592 29.7054 66.089 29.6584 66.089C29.6114 66.089 29.573 66.0188 29.573 65.9329C29.573 65.8471 29.5345 65.7768 29.4875 65.7768C29.4405 65.7768 29.402 65.7066 29.402 65.6207C29.402 65.5349 29.3636 65.4646 29.3166 65.4646C29.2696 65.4646 29.2311 65.4186 29.2311 65.3622C29.2311 65.306 29.1542 65.1844 29.0602 65.0923C28.9662 65.0002 28.8892 64.8707 28.8892 64.8045C28.8892 64.7384 28.8508 64.6841 28.8038 64.6841C28.7568 64.6841 28.7183 64.6315 28.7183 64.5671C28.7183 64.5027 28.6798 64.45 28.6328 64.45C28.5858 64.45 28.5474 64.4051 28.5474 64.3501C28.5474 64.2953 28.4704 64.1996 28.3764 64.1378C28.2824 64.0759 28.2055 63.9856 28.2055 63.937C28.2055 63.8884 28.0944 63.7427 27.9587 63.6129L27.7119 63.3772L28.1143 63.2112C28.3356 63.1199 28.579 63.0451 28.6551 63.0451C28.7313 63.0451 28.8149 63.0139 28.8407 62.9757C28.8884 62.905 29.2236 62.8381 29.9148 62.7608C30.1264 62.7372 30.336 62.6861 30.3806 62.6473C30.4253 62.6086 30.8195 62.5768 31.2567 62.5768C31.7295 62.5768 32.0515 62.5452 32.0515 62.4988C32.0515 62.4559 32.1105 62.4207 32.1825 62.4207C32.35 62.4207 32.9062 61.9164 32.9062 61.7646C32.9062 61.7013 32.9447 61.6278 32.9917 61.6012C33.0387 61.5747 33.0771 61.3618 33.0771 61.1283C33.0771 60.8947 33.0387 60.7037 32.9917 60.7037C32.9447 60.7037 32.9062 60.6323 32.9062 60.5451C32.9062 60.3597 32.3742 59.8452 32.1825 59.8452C32.1105 59.8452 32.0515 59.81 32.0515 59.7671C32.0515 59.7197 31.6669 59.6891 31.0686 59.6891C30.4704 59.6891 30.0858 59.7197 30.0858 59.7671C30.0858 59.8118 29.8294 59.8452 29.4875 59.8452C29.1456 59.8452 28.8892 59.8785 28.8892 59.9232C28.8892 59.9661 28.7354 60.0013 28.5474 60.0013C28.3593 60.0013 28.2055 60.0319 28.2055 60.0692C28.2055 60.1066 28.0147 60.1603 27.7816 60.1886C27.5485 60.2169 27.3348 60.274 27.3066 60.3158C27.2784 60.3573 27.1636 60.3915 27.0517 60.3915C26.9397 60.3915 26.8243 60.4266 26.7953 60.4695C26.7662 60.5125 26.6677 60.5476 26.5765 60.5476C26.4852 60.5476 26.4107 60.5827 26.4107 60.6256C26.4107 60.6686 26.3338 60.7037 26.2397 60.7037C26.1457 60.7037 26.0688 60.7388 26.0688 60.7817C26.0688 60.8247 25.9919 60.8598 25.8979 60.8598C25.8039 60.8598 25.7269 60.8949 25.7269 60.9378C25.7269 60.9808 25.65 61.0159 25.556 61.0159C25.462 61.0159 25.3851 61.051 25.3851 61.0939C25.3851 61.1369 25.3351 61.172 25.274 61.172C25.1167 61.172 24.7028 60.9884 24.702 60.9183C24.7015 60.8861 24.6276 60.8598 24.5374 60.8598C24.4475 60.8598 24.361 60.8317 24.3451 60.7973C24.293 60.683 23.136 60.2173 22.8031 60.1765C22.6225 60.1544 22.4544 60.1058 22.4294 60.0688C22.4042 60.0317 22.2704 60.0013 22.1322 60.0013C21.9939 60.0013 21.8809 59.9661 21.8809 59.9232C21.8809 59.8799 21.6529 59.8452 21.3681 59.8452C21.0833 59.8452 20.8553 59.8104 20.8553 59.7671C20.8553 59.722 20.5863 59.6891 20.2194 59.6891C19.8696 59.6891 19.5596 59.7242 19.5305 59.7671ZM47.9485 59.7671C47.9485 59.81 47.8895 59.8452 47.8175 59.8452C47.6258 59.8452 47.0938 60.3597 47.0938 60.5451C47.0938 60.6323 47.0553 60.7037 47.0083 60.7037C46.9613 60.7037 46.9229 60.8947 46.9229 61.1283C46.9229 61.3618 46.9613 61.5747 47.0083 61.6012C47.0553 61.6278 47.0938 61.7013 47.0938 61.7646C47.0938 61.9164 47.65 62.4207 47.8175 62.4207C47.8895 62.4207 47.9485 62.4559 47.9485 62.4988C47.9485 62.5452 48.2705 62.5768 48.7433 62.5768C49.1805 62.5768 49.5747 62.6086 49.6194 62.6473C49.664 62.6861 49.8736 62.7372 50.0852 62.7608C50.7764 62.8381 51.1116 62.905 51.1593 62.9757C51.1851 63.0139 51.2687 63.0451 51.3449 63.0451C51.421 63.0451 51.6644 63.1199 51.8857 63.2112L52.2881 63.3772L52.0413 63.6129C51.9056 63.7427 51.7945 63.8834 51.7945 63.9255C51.7945 63.9678 51.727 64.0592 51.6443 64.1286C51.5618 64.1981 51.4398 64.3515 51.3736 64.4695C51.3071 64.5875 51.2208 64.6841 51.1817 64.6841C51.1428 64.6841 51.1108 64.7384 51.1108 64.8045C51.1108 64.8707 51.0338 65.0002 50.9398 65.0923C50.8458 65.1844 50.7689 65.306 50.7689 65.3622C50.7689 65.4186 50.7304 65.4646 50.6834 65.4646C50.6364 65.4646 50.598 65.5349 50.598 65.6207C50.598 65.7066 50.5595 65.7768 50.5125 65.7768C50.4655 65.7768 50.427 65.8471 50.427 65.9329C50.427 66.0188 50.3886 66.089 50.3416 66.089C50.2946 66.089 50.2561 66.1592 50.2561 66.2451C50.2561 66.3309 50.2176 66.4012 50.1706 66.4012C50.1236 66.4012 50.0852 66.4718 50.0852 66.5583C50.0852 66.6447 50.0467 66.7852 49.9997 66.8705C49.9527 66.9557 49.8758 67.0954 49.8288 67.1807C49.7817 67.266 49.7433 67.4943 49.7433 67.688C49.7433 67.8818 49.7817 68.0402 49.8288 68.0402C49.8758 68.0402 49.9142 68.0933 49.9142 68.1582C49.9142 68.489 50.4484 68.9768 50.8106 68.9768C50.8817 68.9768 50.9398 69.0119 50.9398 69.0548C50.9398 69.0977 51.1298 69.1329 51.362 69.1329C51.5943 69.1329 51.8082 69.0977 51.8372 69.0548C51.8663 69.0119 51.958 68.9768 52.0411 68.9768C52.124 68.9768 52.2554 68.9153 52.3332 68.8402C52.4107 68.7651 52.5714 68.6086 52.69 68.4925C52.8086 68.3764 52.9056 68.192 52.9056 68.0827C52.9056 67.9735 52.944 67.8841 52.9911 67.8841C53.0381 67.8841 53.0765 67.8139 53.0765 67.728C53.0765 67.6422 53.115 67.5719 53.162 67.5719C53.209 67.5719 53.2475 67.5017 53.2475 67.4158C53.2475 67.33 53.2859 67.2597 53.3329 67.2597C53.3799 67.2597 53.4184 67.1895 53.4184 67.1036C53.4184 67.0178 53.4569 66.9475 53.5039 66.9475C53.5509 66.9475 53.5893 66.8952 53.5893 66.8314C53.5893 66.7245 53.7239 66.5421 53.9953 66.281C54.0541 66.2244 54.1021 66.1493 54.1023 66.1142C54.1023 66.0788 54.2177 65.9271 54.3585 65.7768C54.4993 65.6266 54.6147 65.4759 54.6147 65.4422C54.6149 65.3836 55.8418 64.2619 56.4042 63.8061C56.5499 63.688 56.7262 63.5915 56.7958 63.5915C56.8655 63.5915 56.9226 63.5591 56.9226 63.5197C56.9226 63.48 57.0379 63.4246 57.179 63.3963C57.32 63.368 57.4354 63.3126 57.4354 63.273C57.4354 63.2336 57.5123 63.2012 57.6063 63.2012C57.7003 63.2012 57.7772 63.1661 57.7772 63.1232C57.7772 63.0802 57.871 63.0451 57.9858 63.0451C58.1005 63.0451 58.2182 63.01 58.2473 62.9671C58.2764 62.9241 58.3917 62.889 58.5037 62.889C58.6157 62.889 58.731 62.8539 58.7601 62.811C58.7892 62.7681 58.943 62.7329 59.102 62.7329C59.2609 62.7329 59.4148 62.6978 59.4438 62.6549C59.4729 62.612 59.7445 62.5768 60.0472 62.5768C60.3573 62.5768 60.5977 62.5427 60.5977 62.4988C60.5977 62.4559 60.6571 62.4207 60.7297 62.4207C60.8972 62.4207 61.2814 62.0744 61.2814 61.9236C61.2814 61.8607 61.3246 61.7962 61.3773 61.7802C61.5055 61.7411 61.5025 60.4457 61.3743 60.4067C61.3233 60.3913 61.2814 60.3447 61.2814 60.3033C61.2814 60.1683 60.8658 59.8452 60.6921 59.8452C60.5987 59.8452 60.4985 59.81 60.4695 59.7671C60.4404 59.7242 60.1304 59.6891 59.7806 59.6891C59.4137 59.6891 59.1447 59.722 59.1447 59.7671C59.1447 59.8104 58.9167 59.8452 58.6319 59.8452C58.3471 59.8452 58.1191 59.8799 58.1191 59.9232C58.1191 59.9661 58.0061 60.0013 57.8678 60.0013C57.7296 60.0013 57.5958 60.0317 57.5706 60.0688C57.5456 60.1058 57.3798 60.1548 57.2025 60.1774C56.8371 60.2241 55.6405 60.6976 55.6405 60.7956C55.6405 60.8309 55.5636 60.8598 55.4696 60.8598C55.3756 60.8598 55.2985 60.8861 55.298 60.9183C55.2972 60.9884 54.8833 61.172 54.726 61.172C54.6649 61.172 54.6149 61.1369 54.6149 61.0939C54.6149 61.051 54.538 61.0159 54.444 61.0159C54.35 61.0159 54.2731 60.9808 54.2731 60.9378C54.2731 60.8949 54.1961 60.8598 54.1021 60.8598C54.0081 60.8598 53.9312 60.8247 53.9312 60.7817C53.9312 60.7388 53.8543 60.7037 53.7603 60.7037C53.6662 60.7037 53.5893 60.675 53.5893 60.6397C53.5893 60.6046 53.3947 60.5273 53.1566 60.4682C52.9186 60.4091 52.7054 60.3333 52.6829 60.3002C52.6605 60.267 52.4515 60.2169 52.2184 60.1886C51.9853 60.1603 51.7945 60.1066 51.7945 60.0692C51.7945 60.0319 51.6407 60.0013 51.4526 60.0013C51.2646 60.0013 51.1108 59.9661 51.1108 59.9232C51.1108 59.8785 50.8544 59.8452 50.5125 59.8452C50.1706 59.8452 49.9142 59.8118 49.9142 59.7671C49.9142 59.7197 49.5296 59.6891 48.9313 59.6891C48.3331 59.6891 47.9485 59.7197 47.9485 59.7671Z" fill="white"/>
</svg>
