<svg width="382" height="285" viewBox="0 0 382 285" fill="none" xmlns="http://www.w3.org/2000/svg">
<g clip-path="url(#clip0_1017_5697)">
<path d="M382 250.374H0V250.566H382V250.374Z" fill="#EBEBEB"/>
<path d="M343.724 262.637H318.42V262.829H343.724V262.637Z" fill="#EBEBEB"/>
<path d="M253.052 264.711H246.413V264.903H253.052V264.711Z" fill="#EBEBEB"/>
<path d="M317.656 255.564H302.995V255.756H317.656V255.564Z" fill="#EBEBEB"/>
<path d="M73.0763 256.845H40.0791V257.037H73.0763V256.845Z" fill="#EBEBEB"/>
<path d="M84.7194 256.845H79.8833V257.037H84.7194V256.845Z" fill="#EBEBEB"/>
<path d="M172.014 260.062H100.443V260.253H172.014V260.062Z" fill="#EBEBEB"/>
<path d="M181.067 216.38H33.5467C32.391 216.378 31.2834 215.919 30.4669 215.103C29.6505 214.287 29.1919 213.181 29.1919 212.028V5.14652C29.202 4.0002 29.665 2.90414 30.4803 2.0964C31.2957 1.28866 32.3976 0.834483 33.5467 0.83252H181.067C182.224 0.83252 183.334 1.29104 184.152 2.10722C184.97 2.9234 185.43 4.03038 185.43 5.18463V212.028C185.43 213.182 184.97 214.289 184.152 215.105C183.334 215.922 182.224 216.38 181.067 216.38ZM33.5467 0.984958C32.4417 0.986977 31.3826 1.42632 30.602 2.20654C29.8213 2.98677 29.3829 4.04413 29.3829 5.14652V212.028C29.3829 213.13 29.8213 214.188 30.602 214.968C31.3826 215.748 32.4417 216.188 33.5467 216.19H181.067C182.173 216.188 183.233 215.748 184.015 214.968C184.797 214.188 185.237 213.131 185.239 212.028V5.14652C185.237 4.04342 184.797 2.98608 184.015 2.20608C183.233 1.42607 182.173 0.986973 181.067 0.984958H33.5467Z" fill="#EBEBEB"/>
<path d="M346.329 216.38H198.8C197.644 216.378 196.536 215.919 195.718 215.103C194.9 214.287 194.44 213.182 194.438 212.028V5.14652C194.45 3.99951 194.915 2.90345 195.731 2.09592C196.548 1.28839 197.651 0.834462 198.8 0.83252H346.329C347.476 0.836486 348.576 1.29155 349.39 2.09907C350.204 2.9066 350.666 4.00152 350.676 5.14652V212.028C350.676 213.18 350.218 214.284 349.404 215.1C348.589 215.916 347.483 216.376 346.329 216.38ZM198.8 0.984958C197.695 0.986973 196.635 1.42607 195.853 2.20608C195.071 2.98608 194.631 4.04342 194.629 5.14652V212.028C194.631 213.131 195.071 214.188 195.853 214.968C196.635 215.748 197.695 216.188 198.8 216.19H346.329C347.434 216.188 348.494 215.748 349.276 214.968C350.058 214.188 350.498 213.131 350.5 212.028V5.14652C350.498 4.04342 350.058 2.98608 349.276 2.20608C348.494 1.42607 347.434 0.986973 346.329 0.984958H198.8Z" fill="#EBEBEB"/>
<path d="M270.403 33.7137C270.404 33.2213 270.307 32.7337 270.118 32.2791C269.928 31.8244 269.65 31.4118 269.3 31.0651C268.95 30.7184 268.534 30.4445 268.076 30.2594C267.619 30.0742 267.13 29.9815 266.636 29.9865C266.272 29.9864 265.909 30.0378 265.559 30.139C265.614 29.7603 265.642 29.3783 265.643 28.9957C265.643 26.9088 264.814 24.9068 263.338 23.4283C261.861 21.9498 259.858 21.1151 257.766 21.107C257.277 21.1075 256.789 21.1509 256.307 21.2366C255.527 19.9581 254.351 18.9673 252.958 18.4138C251.564 17.8603 250.027 17.7741 248.58 18.1682C247.133 18.5623 245.853 19.4153 244.934 20.5985C244.016 21.7817 243.508 23.2309 243.487 24.7274H243.372C241.72 24.7845 240.154 25.4796 239.005 26.6662C237.856 27.8528 237.214 29.4381 237.214 31.0879C237.214 32.7377 237.856 34.323 239.005 35.5096C240.154 36.6962 241.72 37.3913 243.372 37.4484H266.766C267.74 37.4206 268.665 37.0149 269.344 36.3175C270.023 35.6201 270.403 34.686 270.403 33.7137Z" fill="#F0F0F0"/>
<path d="M256.666 39.2852V32.0215H250.73V39.2852H245.894L253.702 45.8705L261.51 39.2852H256.666Z" fill="#E0E0E0"/>
<path d="M153.32 44.7043C153.32 42.6053 152.484 40.5922 150.997 39.1073C149.51 37.6223 147.493 36.7871 145.389 36.7851C144.613 36.7862 143.841 36.8992 143.097 37.1205C143.221 36.3159 143.282 35.503 143.281 34.6891C143.281 30.2419 141.51 25.9768 138.358 22.8322C135.206 19.6875 130.93 17.9209 126.473 17.9209C125.434 17.9206 124.399 18.0176 123.379 18.2105C121.723 15.4944 119.227 13.3893 116.266 12.2129C113.306 11.0365 110.043 10.8526 106.969 11.689C103.894 12.5255 101.176 14.3368 99.2248 16.8496C97.2731 19.3624 96.1937 22.4404 96.1496 25.619H95.9051C94.1007 25.5762 92.3059 25.8938 90.6263 26.5532C88.9468 27.2125 87.4163 28.2002 86.125 29.4583C84.8337 30.7163 83.8075 32.2192 83.1069 33.8787C82.4063 35.5381 82.0454 37.3206 82.0454 39.1212C82.0454 40.9219 82.4063 42.7043 83.1069 44.3638C83.8075 46.0232 84.8337 47.5262 86.125 48.7842C87.4163 50.0422 88.9468 51.0299 90.6263 51.6893C92.3059 52.3486 94.1007 52.6662 95.9051 52.6234H145.603C147.671 52.5678 149.634 51.7087 151.076 50.2293C152.517 48.75 153.322 46.7674 153.32 44.7043Z" fill="#F0F0F0"/>
<path d="M111.544 45.314V60.7484H124.157V45.314H134.433L117.847 31.3354L101.268 45.314H111.544Z" fill="#E0E0E0"/>
<path d="M159.653 83.2481V62.4937H223.355V83.0347" stroke="#E6E6E6" stroke-miterlimit="10"/>
<path d="M192.443 42.936V83.1873" stroke="#E6E6E6" stroke-miterlimit="10"/>
<path d="M203.285 35.0317H181.618C181.116 35.0317 180.709 35.4378 180.709 35.9387V48.7969C180.709 49.2978 181.116 49.7039 181.618 49.7039H203.285C203.788 49.7039 204.195 49.2978 204.195 48.7969V35.9387C204.195 35.4378 203.788 35.0317 203.285 35.0317Z" fill="#F0F0F0"/>
<path d="M203.056 36.7544H181.84C181.662 36.7544 181.519 36.8977 181.519 37.0745V48.797C181.519 48.9738 181.662 49.1171 181.84 49.1171H203.056C203.233 49.1171 203.377 48.9738 203.377 48.797V37.0745C203.377 36.8977 203.233 36.7544 203.056 36.7544Z" fill="#E0E0E0"/>
<path d="M170.487 81.3657H148.82C148.318 81.3657 147.911 81.7718 147.911 82.2727V95.1309C147.911 95.6318 148.318 96.0379 148.82 96.0379H170.487C170.989 96.0379 171.396 95.6318 171.396 95.1309V82.2727C171.396 81.7718 170.989 81.3657 170.487 81.3657Z" fill="#F0F0F0"/>
<path d="M170.257 83.0884H149.041C148.864 83.0884 148.72 83.2317 148.72 83.4085V95.131C148.72 95.3078 148.864 95.4511 149.041 95.4511H170.257C170.434 95.4511 170.578 95.3078 170.578 95.131V83.4085C170.578 83.2317 170.434 83.0884 170.257 83.0884Z" fill="#E0E0E0"/>
<path d="M203.285 81.3657H181.618C181.116 81.3657 180.709 81.7718 180.709 82.2727V95.1309C180.709 95.6318 181.116 96.0379 181.618 96.0379H203.285C203.788 96.0379 204.195 95.6318 204.195 95.1309V82.2727C204.195 81.7718 203.788 81.3657 203.285 81.3657Z" fill="#F0F0F0"/>
<path d="M203.056 83.0884H181.84C181.662 83.0884 181.519 83.2317 181.519 83.4085V95.131C181.519 95.3078 181.662 95.4511 181.84 95.4511H203.056C203.233 95.4511 203.377 95.3078 203.377 95.131V83.4085C203.377 83.2317 203.233 83.0884 203.056 83.0884Z" fill="#E0E0E0"/>
<path d="M234.242 81.3657H212.575C212.073 81.3657 211.666 81.7718 211.666 82.2727V95.1309C211.666 95.6318 212.073 96.0379 212.575 96.0379H234.242C234.744 96.0379 235.151 95.6318 235.151 95.1309V82.2727C235.151 81.7718 234.744 81.3657 234.242 81.3657Z" fill="#F0F0F0"/>
<path d="M234.014 83.0884H212.797C212.62 83.0884 212.476 83.2317 212.476 83.4085V95.131C212.476 95.3078 212.62 95.4511 212.797 95.4511H234.014C234.191 95.4511 234.334 95.3078 234.334 95.131V83.4085C234.334 83.2317 234.191 83.0884 234.014 83.0884Z" fill="#E0E0E0"/>
<path d="M192.005 56.206L186.139 62.059C185.897 62.3001 185.897 62.6911 186.139 62.9322L192.005 68.7852C192.247 69.0263 192.639 69.0263 192.881 68.7852L198.748 62.9321C198.989 62.691 198.989 62.3001 198.748 62.059L192.881 56.206C192.639 55.9649 192.247 55.9649 192.005 56.206Z" fill="#E0E0E0"/>
<path opacity="0.8" d="M68.0644 52.395H52.7767C52.4097 52.395 52.1121 52.6919 52.1121 53.0581V61.6633C52.1121 62.0295 52.4097 62.3264 52.7767 62.3264H68.0644C68.4315 62.3264 68.7291 62.0295 68.7291 61.6633V53.0581C68.7291 52.6919 68.4315 52.395 68.0644 52.395Z" fill="#E0E0E0"/>
<path d="M56.3986 73.7588H44.2892C43.9221 73.7588 43.6245 74.0557 43.6245 74.4219V80.6795C43.6245 81.0457 43.9221 81.3426 44.2892 81.3426H56.3986C56.7657 81.3426 57.0633 81.0457 57.0633 80.6795V74.4219C57.0633 74.0557 56.7657 73.7588 56.3986 73.7588Z" fill="#E0E0E0"/>
<path d="M76.7902 73.7588H64.6808C64.3137 73.7588 64.0161 74.0557 64.0161 74.4219V80.6795C64.0161 81.0457 64.3137 81.3426 64.6808 81.3426H76.7902C77.1573 81.3426 77.4549 81.0457 77.4549 80.6795V74.4219C77.4549 74.0557 77.1573 73.7588 76.7902 73.7588Z" fill="#E0E0E0"/>
<path d="M64.2523 89.8105H58.5299C58.1628 89.8105 57.8652 90.1074 57.8652 90.4737V95.6261C57.8652 95.9923 58.1628 96.2892 58.5299 96.2892H64.2523C64.6194 96.2892 64.917 95.9923 64.917 95.6261V90.4737C64.917 90.1074 64.6194 89.8105 64.2523 89.8105Z" fill="#E0E0E0"/>
<path d="M73.2059 89.8105H67.4835C67.1164 89.8105 66.8188 90.1074 66.8188 90.4737V95.6261C66.8188 95.9923 67.1164 96.2892 67.4835 96.2892H73.2059C73.573 96.2892 73.8706 95.9923 73.8706 95.6261V90.4737C73.8706 90.1074 73.573 89.8105 73.2059 89.8105Z" fill="#E0E0E0"/>
<path d="M82.1683 89.8105H76.4459C76.0788 89.8105 75.7812 90.1074 75.7812 90.4737V95.6261C75.7812 95.9923 76.0788 96.2892 76.4459 96.2892H82.1683C82.5354 96.2892 82.833 95.9923 82.833 95.6261V90.4737C82.833 90.1074 82.5354 89.8105 82.1683 89.8105Z" fill="#E0E0E0"/>
<path d="M43.5252 89.8105H37.8029C37.4358 89.8105 37.1382 90.1074 37.1382 90.4737V95.6261C37.1382 95.9923 37.4358 96.2892 37.8029 96.2892H43.5252C43.8923 96.2892 44.1899 95.9923 44.1899 95.6261V90.4737C44.1899 90.1074 43.8923 89.8105 43.5252 89.8105Z" fill="#E0E0E0"/>
<path d="M53.2432 89.8105H47.5209C47.1538 89.8105 46.8562 90.1074 46.8562 90.4737V95.6261C46.8562 95.9923 47.1538 96.2892 47.5209 96.2892H53.2432C53.6103 96.2892 53.9079 95.9923 53.9079 95.6261V90.4737C53.9079 90.1074 53.6103 89.8105 53.2432 89.8105Z" fill="#E0E0E0"/>
<path d="M69.967 73.759H70.731V68.4237H60.799V62.3262H60.035V68.4237H50.103V73.759H50.867V69.1859H69.967V73.759Z" fill="#E0E0E0"/>
<path d="M50.1031 85.954H40.1711V89.765H40.9351V86.7162H50.1031V89.765H50.8671V81.3809H50.1031V85.954Z" fill="#E0E0E0"/>
<path d="M70.7313 86.7162V81.3809H69.9673V86.7162H60.7993V89.765H61.5633V87.4784H69.9673V89.765H70.7313V87.4784H79.1353V89.765H79.8993V86.7162H70.7313Z" fill="#E0E0E0"/>
<path d="M291.084 54.7805V60.2836L293.911 60.5503C294.29 62.3541 295.005 64.0708 296.019 65.6113L294.201 67.7988L298.082 71.6707L300.275 69.8567C301.817 70.8715 303.539 71.5853 305.348 71.9603L305.6 74.7652H311.085L311.353 71.9451C313.162 71.5701 314.883 70.8562 316.426 69.8414L318.619 71.6554L322.5 67.7835L320.689 65.6189C321.703 64.0784 322.418 62.3617 322.798 60.5579L325.624 60.2912V54.8186L322.798 54.5519C322.42 52.7501 321.704 51.0356 320.689 49.4986L322.507 47.3111L318.626 43.4391L316.433 45.2455C314.889 44.2338 313.169 43.5202 311.361 43.1419L311.093 40.3218H305.6L305.333 43.1419C303.525 43.5202 301.804 44.2338 300.26 45.2455L298.067 43.4391L294.186 47.3111L296.004 49.4986C294.989 51.0356 294.273 52.7501 293.895 54.5519L291.084 54.7805ZM308.358 50.1083C309.829 50.1083 311.266 50.5434 312.489 51.3587C313.711 52.1739 314.664 53.3326 315.227 54.6882C315.789 56.0437 315.936 57.5352 315.648 58.974C315.361 60.4128 314.652 61.7342 313.612 62.7711C312.571 63.808 311.246 64.5137 309.804 64.799C308.361 65.0843 306.866 64.9363 305.508 64.3738C304.15 63.8113 302.989 62.8596 302.173 61.6391C301.357 60.4185 300.923 58.9839 300.924 57.5168C300.926 55.5526 301.709 53.6694 303.102 52.2804C304.494 50.8915 306.381 50.1103 308.35 50.1083H308.358Z" fill="#F5F5F5"/>
<path d="M294.621 94.7345C296.038 94.4373 297.385 93.8762 298.594 93.0806L300.313 94.5059L303.369 91.4571L301.948 89.7422C302.741 88.5357 303.301 87.1913 303.598 85.7788L305.814 85.5654V81.2742L303.598 81.0684C303.303 79.6555 302.743 78.3109 301.948 77.1051L303.369 75.3901L300.313 72.3414L298.594 73.759C297.385 72.9658 296.037 72.4073 294.621 72.1127L294.415 69.9023H290.113L289.907 72.1127C288.491 72.4073 287.143 72.9658 285.934 73.759L284.208 72.3718L281.152 75.4206L282.573 77.1355C281.778 78.3413 281.218 79.686 280.922 81.0989L278.707 81.3047V85.5959L280.922 85.8093C281.219 87.2218 281.779 88.5662 282.573 89.7727L281.152 91.4724L284.208 94.5211L285.927 93.0958C287.135 93.8914 288.483 94.4525 289.899 94.7498L290.106 96.9525H294.407L294.621 94.7345ZM286.438 83.4389C286.437 82.2883 286.778 81.1632 287.417 80.2059C288.057 79.2485 288.967 78.5019 290.032 78.0606C291.097 77.6193 292.269 77.503 293.4 77.7265C294.532 77.9501 295.571 78.5033 296.387 79.3163C297.203 80.1294 297.759 81.1656 297.985 82.2939C298.21 83.4222 298.095 84.5919 297.654 85.655C297.213 86.7181 296.466 87.6268 295.507 88.2661C294.548 88.9055 293.421 89.2468 292.268 89.2468C290.723 89.2468 289.242 88.6351 288.149 87.5461C287.056 86.4572 286.441 84.9799 286.438 83.4389Z" fill="#F5F5F5"/>
<path d="M285.026 71.5104L286.47 72.6994L289.029 70.1537L287.83 68.7131C288.5 67.7003 288.971 66.5702 289.22 65.3824L291.077 65.2071V61.6095L289.22 61.4342C288.971 60.2464 288.5 59.1163 287.83 58.1034L289.029 56.6629L286.5 54.1172L285.056 55.3062C284.043 54.6394 282.913 54.1688 281.725 53.919L281.55 52.0669H277.936L277.76 53.919C276.57 54.1672 275.437 54.6379 274.421 55.3062L272.978 54.1172L270.426 56.6629L271.618 58.1034C270.95 59.1167 270.481 60.2469 270.235 61.4342L268.371 61.6095V65.2071L270.235 65.3824C270.481 66.5697 270.95 67.6998 271.618 68.7131L270.395 70.1918L272.947 72.7375L274.391 71.5485C275.405 72.2175 276.538 72.6858 277.73 72.9281L277.905 74.7878H281.519L281.695 72.9281C282.886 72.6727 284.017 72.1914 285.026 71.5104ZM274.819 63.4083C274.819 62.4435 275.106 61.5004 275.643 60.6982C276.18 59.896 276.944 59.2708 277.837 58.9016C278.731 58.5324 279.714 58.4358 280.662 58.624C281.611 58.8122 282.482 59.2768 283.166 59.959C283.85 60.6412 284.315 61.5104 284.504 62.4566C284.693 63.4029 284.596 64.3837 284.226 65.275C283.856 66.1664 283.229 66.9282 282.425 67.4642C281.621 68.0002 280.675 68.2863 279.708 68.2863C278.412 68.2863 277.168 67.7724 276.251 66.8576C275.334 65.9428 274.819 64.702 274.819 63.4083Z" fill="#F5F5F5"/>
<path d="M335.694 205.885H284.391V239.17H335.694V205.885Z" fill="#F5F5F5"/>
<path d="M333.807 212.127H286.263V237.508H333.807V212.127Z" fill="#E0E0E0"/>
<path d="M325.311 215.915H290.137V217.005H325.311V215.915Z" fill="#F5F5F5"/>
<path d="M307.013 219.261H290.137V220.351H307.013V219.261Z" fill="#F5F5F5"/>
<path d="M311.391 222.607H290.137V223.697H311.391V222.607Z" fill="#F5F5F5"/>
<path d="M297.624 225.954H290.137V227.044H297.624V225.954Z" fill="#F5F5F5"/>
<path d="M294.988 229.292H290.137V230.381H294.988V229.292Z" fill="#F5F5F5"/>
<path d="M73.0301 205.696L36.5266 205.861L36.6288 228.323L73.1323 228.158L73.0301 205.696Z" fill="#EBEBEB"/>
<path d="M50.531 222.676C50.3692 222.677 50.2114 222.626 50.0803 222.531L43.4258 217.676C43.3295 217.606 43.251 217.514 43.1967 217.408C43.1423 217.302 43.1135 217.185 43.1126 217.066C43.1114 216.947 43.1384 216.828 43.1915 216.721C43.2446 216.614 43.3223 216.521 43.4182 216.449L50.0344 211.533C50.1975 211.412 50.4019 211.362 50.6025 211.392C50.803 211.422 50.9835 211.53 51.104 211.693C51.2246 211.856 51.2754 212.059 51.2453 212.259C51.2152 212.46 51.1067 212.64 50.9436 212.76L45.1601 217.059L50.9818 221.296C51.1128 221.391 51.2103 221.525 51.2603 221.678C51.3103 221.831 51.3103 221.997 51.2602 222.15C51.21 222.303 51.1125 222.437 50.9814 222.531C50.8504 222.626 50.6927 222.677 50.531 222.676Z" fill="#FAFAFA"/>
<path d="M59.1791 222.63C59.0592 222.631 58.9407 222.604 58.8332 222.551C58.7257 222.499 58.6322 222.421 58.5603 222.325C58.5005 222.245 58.4572 222.153 58.4329 222.056C58.4086 221.959 58.4038 221.858 58.4187 221.759C58.4336 221.66 58.4679 221.564 58.5197 221.478C58.5716 221.393 58.6399 221.318 58.7207 221.258L64.5042 216.96L58.6825 212.722C58.5194 212.601 58.4109 212.421 58.3808 212.221C58.3507 212.021 58.4015 211.817 58.5221 211.655C58.6426 211.492 58.8231 211.384 59.0237 211.354C59.2242 211.324 59.4286 211.374 59.5917 211.495L66.2461 216.342C66.3434 216.413 66.4226 216.506 66.477 216.613C66.5314 216.721 66.5597 216.839 66.5594 216.96C66.5594 217.078 66.5317 217.195 66.4787 217.3C66.4257 217.406 66.3486 217.498 66.2538 217.569L59.6375 222.485C59.5043 222.582 59.3436 222.632 59.1791 222.63Z" fill="#FAFAFA"/>
<path d="M53.1131 222.668C53.0271 222.667 52.9419 222.652 52.861 222.622C52.671 222.555 52.5154 222.415 52.4281 222.234C52.3408 222.053 52.3289 221.844 52.395 221.654L55.8253 211.868C55.8584 211.773 55.9099 211.686 55.9768 211.611C56.0436 211.537 56.1246 211.476 56.2151 211.432C56.3055 211.389 56.4037 211.363 56.504 211.358C56.6042 211.352 56.7046 211.366 56.7994 211.399C56.8942 211.432 56.9816 211.483 57.0565 211.55C57.1315 211.617 57.1925 211.698 57.2361 211.788C57.2797 211.878 57.3051 211.976 57.3108 212.076C57.3165 212.176 57.3024 212.276 57.2693 212.371L53.8389 222.157C53.7864 222.307 53.6882 222.437 53.5581 222.529C53.4279 222.62 53.2724 222.669 53.1131 222.668Z" fill="#FAFAFA"/>
<path d="M191 284.794C272.811 284.794 339.132 280.931 339.132 276.166C339.132 271.401 272.811 267.538 191 267.538C109.189 267.538 42.8684 271.401 42.8684 276.166C42.8684 280.931 109.189 284.794 191 284.794Z" fill="#F5F5F5"/>
<path d="M255.466 276.166H261.081L268.721 234.063H263.106L255.466 276.166Z" fill="#263238"/>
<path opacity="0.2" d="M255.466 276.166H261.081L268.721 234.063H263.106L255.466 276.166Z" fill="white"/>
<path opacity="0.2" d="M255.466 276.166H259.553L267.193 234.063H263.106L255.466 276.166Z" fill="white"/>
<path d="M239.659 246.586H262.113C262.276 246.587 262.437 246.556 262.588 246.494C262.738 246.432 262.875 246.341 262.99 246.226C263.106 246.112 263.197 245.975 263.258 245.825C263.32 245.674 263.352 245.513 263.351 245.351C263.352 245.189 263.32 245.028 263.258 244.877C263.197 244.727 263.106 244.59 262.99 244.476C262.875 244.361 262.738 244.27 262.588 244.208C262.437 244.146 262.276 244.115 262.113 244.116H239.659C239.496 244.115 239.335 244.146 239.184 244.208C239.034 244.27 238.897 244.361 238.782 244.476C238.666 244.59 238.575 244.727 238.513 244.877C238.452 245.028 238.42 245.189 238.421 245.351C238.42 245.513 238.452 245.674 238.513 245.825C238.575 245.975 238.666 246.112 238.782 246.226C238.897 246.341 239.034 246.432 239.184 246.494C239.335 246.556 239.496 246.587 239.659 246.586Z" fill="#263238"/>
<path d="M237.161 260.687H259.622C259.951 260.685 260.266 260.553 260.498 260.32C260.73 260.087 260.86 259.772 260.86 259.444C260.858 259.117 260.727 258.804 260.495 258.573C260.263 258.342 259.95 258.211 259.622 258.209H237.161C236.833 258.211 236.519 258.342 236.288 258.573C236.056 258.804 235.925 259.117 235.923 259.444C235.923 259.772 236.053 260.087 236.285 260.32C236.517 260.553 236.832 260.685 237.161 260.687Z" fill="#263238"/>
<path d="M232.546 276.166H238.161L245.801 234.063H240.186L232.546 276.166Z" fill="#263238"/>
<path opacity="0.2" d="M232.546 276.166H238.161L245.801 234.063H240.186L232.546 276.166Z" fill="white"/>
<path opacity="0.2" d="M232.546 276.166H236.633L244.273 234.063H240.186L232.546 276.166Z" fill="white"/>
<path d="M284.765 276.166H279.15L271.51 234.063H277.125L284.765 276.166Z" fill="#263238"/>
<path opacity="0.4" d="M284.765 276.166H279.15L271.51 234.063H277.125L284.765 276.166Z" fill="white"/>
<path opacity="0.2" d="M283.237 276.166H279.15L271.51 234.063H275.597L283.237 276.166Z" fill="white"/>
<path d="M274.902 246.586H252.44C252.112 246.586 251.797 246.456 251.565 246.224C251.333 245.993 251.203 245.678 251.203 245.351C251.203 245.023 251.333 244.709 251.565 244.478C251.797 244.246 252.112 244.116 252.44 244.116H274.902C275.23 244.116 275.545 244.246 275.777 244.478C276.009 244.709 276.14 245.023 276.14 245.351C276.14 245.678 276.009 245.993 275.777 246.224C275.545 246.456 275.23 246.586 274.902 246.586Z" fill="#263238"/>
<path d="M277.393 260.687H254.939C254.776 260.687 254.614 260.654 254.464 260.592C254.313 260.529 254.176 260.438 254.061 260.322C253.946 260.207 253.855 260.07 253.793 259.919C253.732 259.768 253.7 259.607 253.701 259.444C253.701 259.117 253.832 258.803 254.064 258.571C254.296 258.34 254.611 258.209 254.939 258.209H277.393C277.721 258.209 278.036 258.34 278.268 258.571C278.5 258.803 278.631 259.117 278.631 259.444C278.632 259.607 278.6 259.768 278.539 259.919C278.477 260.07 278.386 260.207 278.271 260.322C278.156 260.438 278.019 260.529 277.868 260.592C277.718 260.654 277.556 260.687 277.393 260.687Z" fill="#263238"/>
<path opacity="0.2" d="M274.902 246.586H252.44C252.112 246.586 251.797 246.456 251.565 246.224C251.333 245.993 251.203 245.678 251.203 245.351C251.203 245.023 251.333 244.709 251.565 244.478C251.797 244.246 252.112 244.116 252.44 244.116H274.902C275.23 244.116 275.545 244.246 275.777 244.478C276.009 244.709 276.14 245.023 276.14 245.351C276.14 245.678 276.009 245.993 275.777 246.224C275.545 246.456 275.23 246.586 274.902 246.586Z" fill="white"/>
<path opacity="0.2" d="M277.393 260.687H254.939C254.776 260.687 254.614 260.654 254.464 260.592C254.313 260.529 254.176 260.438 254.061 260.322C253.946 260.207 253.855 260.07 253.793 259.919C253.732 259.768 253.7 259.607 253.701 259.444C253.701 259.117 253.832 258.803 254.064 258.571C254.296 258.34 254.611 258.209 254.939 258.209H277.393C277.721 258.209 278.036 258.34 278.268 258.571C278.5 258.803 278.631 259.117 278.631 259.444C278.632 259.607 278.6 259.768 278.539 259.919C278.477 260.07 278.386 260.207 278.271 260.322C278.156 260.438 278.019 260.529 277.868 260.592C277.718 260.654 277.556 260.687 277.393 260.687Z" fill="white"/>
<path d="M261.845 276.166H256.23L248.59 234.063H254.205L261.845 276.166Z" fill="#263238"/>
<path opacity="0.4" d="M261.845 276.166H256.23L248.59 234.063H254.205L261.845 276.166Z" fill="white"/>
<path opacity="0.2" d="M260.317 276.166H256.23L248.59 234.063H252.677L260.317 276.166Z" fill="white"/>
<path d="M279.31 232.051H238.75C238.248 232.051 237.84 232.457 237.84 232.958V235.16C237.84 235.661 238.248 236.067 238.75 236.067H279.31C279.812 236.067 280.22 235.661 280.22 235.16V232.958C280.22 232.457 279.812 232.051 279.31 232.051Z" fill="#263238"/>
<path opacity="0.2" d="M254.167 232.051H238.75C238.248 232.051 237.84 232.457 237.84 232.958V235.16C237.84 235.661 238.248 236.067 238.75 236.067H254.167C254.669 236.067 255.076 235.661 255.076 235.16V232.958C255.076 232.457 254.669 232.051 254.167 232.051Z" fill="white"/>
<path d="M148.484 242.325H97.1814V275.61H148.484V242.325Z" fill="#407BFF"/>
<path opacity="0.6" d="M148.484 242.325H97.1814V275.61H148.484V242.325Z" fill="white"/>
<path d="M146.612 248.567H99.0603V273.948H146.612V248.567Z" fill="#407BFF"/>
<path d="M138.109 252.363H102.935V253.453H138.109V252.363Z" fill="white"/>
<path d="M119.812 255.709H102.935V256.799H119.812V255.709Z" fill="white"/>
<path d="M124.189 259.048H102.935V260.138H124.189V259.048Z" fill="white"/>
<path d="M110.422 262.394H102.935V263.484H110.422V262.394Z" fill="white"/>
<path d="M107.786 265.74H102.935V266.83H107.786V265.74Z" fill="white"/>
<path d="M211.88 276.166H170.12L177.187 220.778H204.813L211.88 276.166Z" fill="#407BFF"/>
<path opacity="0.6" d="M211.88 276.166H170.12L174.956 238.27L177.195 220.778H204.805L208.106 246.586L211.88 276.166Z" fill="white"/>
<path opacity="0.1" d="M208.106 246.586L174.956 238.27L177.195 220.778H204.806L208.106 246.586Z" fill="black"/>
<path d="M289.457 84.2007H92.5438C91.882 84.2007 91.2267 84.3308 90.6153 84.5837C90.004 84.8366 89.4486 85.2073 88.981 85.6745C88.5134 86.1418 88.1427 86.6964 87.8901 87.3066C87.6375 87.9169 87.508 88.5709 87.509 89.2311V222.218C87.509 223.55 88.0395 224.828 88.9837 225.77C89.9279 226.712 91.2085 227.241 92.5438 227.241H289.457C290.792 227.241 292.073 226.712 293.017 225.77C293.961 224.828 294.492 223.55 294.492 222.218V89.2464C294.495 88.5849 294.367 87.9292 294.115 87.3172C293.864 86.7052 293.493 86.1487 293.025 85.6799C292.557 85.2111 292.001 84.839 291.389 84.5852C290.777 84.3313 290.12 84.2007 289.457 84.2007Z" fill="#407BFF"/>
<path opacity="0.7" d="M289.457 84.2007H92.5438C91.882 84.2007 91.2267 84.3308 90.6153 84.5837C90.004 84.8366 89.4486 85.2073 88.981 85.6745C88.5134 86.1418 88.1427 86.6964 87.8901 87.3066C87.6375 87.9169 87.508 88.5709 87.509 89.2311V222.218C87.509 223.55 88.0395 224.828 88.9837 225.77C89.9279 226.712 91.2085 227.241 92.5438 227.241H289.457C290.792 227.241 292.073 226.712 293.017 225.77C293.961 224.828 294.492 223.55 294.492 222.218V89.2464C294.495 88.5849 294.367 87.9292 294.115 87.3172C293.864 86.7052 293.493 86.1487 293.025 85.6799C292.557 85.2111 292.001 84.839 291.389 84.5852C290.777 84.3313 290.12 84.2007 289.457 84.2007Z" fill="white"/>
<path d="M287.868 89.1245H94.1406V217.363H287.868V89.1245Z" fill="#407BFF"/>
<path d="M226.068 272.004H155.925C155.487 272.004 155.131 272.359 155.131 272.797V275.305C155.131 275.742 155.487 276.097 155.925 276.097H226.068C226.507 276.097 226.863 275.742 226.863 275.305V272.797C226.863 272.359 226.507 272.004 226.068 272.004Z" fill="#407BFF"/>
<path opacity="0.7" d="M226.068 272.004H155.925C155.487 272.004 155.131 272.359 155.131 272.797V275.305C155.131 275.742 155.487 276.097 155.925 276.097H226.068C226.507 276.097 226.863 275.742 226.863 275.305V272.797C226.863 272.359 226.507 272.004 226.068 272.004Z" fill="white"/>
<path opacity="0.2" d="M287.868 89.2461H94.1406V108.362H287.868V89.2461Z" fill="black"/>
<path opacity="0.4" d="M177.157 108.583H94.1406V217.356H177.157V108.583Z" fill="white"/>
<path d="M258.049 136.334V138.24H256.139" stroke="white" stroke-miterlimit="10"/>
<path d="M252.106 138.24H189.534" stroke="white" stroke-miterlimit="10" stroke-dasharray="5.28 5.28"/>
<path d="M187.516 138.24H185.606V136.334" stroke="white" stroke-miterlimit="10"/>
<path d="M185.606 132.882V100.085" stroke="white" stroke-miterlimit="10" stroke-dasharray="4.53 4.53"/>
<path d="M185.606 98.3547V96.4492H187.516" stroke="white" stroke-miterlimit="10"/>
<path d="M191.551 96.4565H254.122" stroke="white" stroke-miterlimit="10" stroke-dasharray="5.28 5.28"/>
<path d="M256.139 96.4492H258.049V98.3547" stroke="white" stroke-miterlimit="10"/>
<path d="M258.049 101.807V134.604" stroke="white" stroke-miterlimit="10" stroke-dasharray="4.53 4.53"/>
<path d="M259.263 95.2451H256.842V97.6612H259.263V95.2451Z" fill="#407BFF" stroke="white" stroke-miterlimit="10"/>
<path d="M259.263 137.028H256.842V139.444H259.263V137.028Z" fill="#407BFF" stroke="white" stroke-miterlimit="10"/>
<path d="M186.813 95.2451H184.392V97.6612H186.813V95.2451Z" fill="#407BFF" stroke="white" stroke-miterlimit="10"/>
<path d="M186.813 137.028H184.392V139.444H186.813V137.028Z" fill="#407BFF" stroke="white" stroke-miterlimit="10"/>
<path d="M223.042 95.2451H220.621V97.6612H223.042V95.2451Z" fill="#407BFF" stroke="white" stroke-miterlimit="10"/>
<path d="M223.042 137.028H220.621V139.444H223.042V137.028Z" fill="#407BFF" stroke="white" stroke-miterlimit="10"/>
<path d="M259.263 116.137H256.842V118.553H259.263V116.137Z" fill="#407BFF" stroke="white" stroke-miterlimit="10"/>
<path d="M186.813 116.137H184.392V118.553H186.813V116.137Z" fill="#407BFF" stroke="white" stroke-miterlimit="10"/>
<path opacity="0.7" d="M251.471 110.489H233.739C232.941 110.489 232.295 111.134 232.295 111.929V116.663C232.295 117.458 232.941 118.103 233.739 118.103H251.471C252.269 118.103 252.915 117.458 252.915 116.663V111.929C252.915 111.134 252.269 110.489 251.471 110.489Z" fill="white"/>
<path opacity="0.7" d="M220.911 110.489H203.179C202.381 110.489 201.735 111.134 201.735 111.929V116.663C201.735 117.458 202.381 118.103 203.179 118.103H220.911C221.709 118.103 222.355 117.458 222.355 116.663V111.929C222.355 111.134 221.709 110.489 220.911 110.489Z" fill="white"/>
<path opacity="0.7" d="M181.573 203.164H163.84C163.043 203.164 162.396 203.809 162.396 204.604V209.337C162.396 210.133 163.043 210.778 163.84 210.778H181.573C182.37 210.778 183.017 210.133 183.017 209.337V204.604C183.017 203.809 182.37 203.164 181.573 203.164Z" fill="white"/>
<path d="M275.079 96.0449H281.527" stroke="white" stroke-width="1.5" stroke-linecap="round" stroke-linejoin="round"/>
<path d="M275.079 99.0938H281.527" stroke="white" stroke-width="1.5" stroke-linecap="round" stroke-linejoin="round"/>
<path d="M275.079 102.143H281.527" stroke="white" stroke-width="1.5" stroke-linecap="round" stroke-linejoin="round"/>
<path opacity="0.5" d="M172.252 125.45H107.274V190.275H172.252V125.45Z" fill="white"/>
<path d="M134.472 130.748V186.662" stroke="#407BFF" stroke-miterlimit="10"/>
<path d="M162.495 186.67C155.061 186.67 147.931 183.723 142.674 178.479C137.417 173.234 134.464 166.121 134.464 158.705V158.705C134.464 151.29 137.416 144.179 142.672 138.936C147.927 133.693 155.055 130.748 162.487 130.748V130.748" stroke="#407BFF" stroke-miterlimit="10"/>
<path d="M163.71 129.543H161.288V131.96H163.71V129.543Z" fill="white" stroke="#407BFF" stroke-miterlimit="10"/>
<path d="M163.71 185.458H161.288V187.874H163.71V185.458Z" fill="white" stroke="#407BFF" stroke-miterlimit="10"/>
<path d="M135.687 157.5H133.265V159.917H135.687V157.5Z" fill="white" stroke="#407BFF" stroke-miterlimit="10"/>
<path d="M135.098 130.748C135.098 130.871 135.062 130.992 134.993 131.095C134.924 131.198 134.826 131.278 134.712 131.325C134.597 131.372 134.471 131.385 134.35 131.361C134.228 131.336 134.117 131.277 134.029 131.19C133.941 131.102 133.882 130.991 133.857 130.869C133.833 130.748 133.846 130.623 133.893 130.508C133.941 130.394 134.021 130.297 134.124 130.228C134.227 130.159 134.348 130.123 134.472 130.123C134.637 130.125 134.796 130.191 134.913 130.308C135.03 130.425 135.096 130.582 135.098 130.748Z" fill="white" stroke="#407BFF" stroke-miterlimit="10"/>
<path d="M135.098 186.669C135.098 186.793 135.062 186.913 134.993 187.016C134.925 187.118 134.827 187.199 134.713 187.246C134.599 187.294 134.474 187.306 134.352 187.283C134.231 187.259 134.12 187.201 134.032 187.114C133.944 187.027 133.883 186.917 133.858 186.796C133.833 186.675 133.845 186.55 133.891 186.436C133.937 186.321 134.016 186.223 134.118 186.153C134.22 186.084 134.341 186.046 134.464 186.044C134.547 186.043 134.63 186.059 134.706 186.09C134.783 186.121 134.853 186.167 134.912 186.225C134.971 186.283 135.018 186.352 135.05 186.429C135.082 186.505 135.098 186.587 135.098 186.669Z" fill="white" stroke="#407BFF" stroke-miterlimit="10"/>
<path opacity="0.7" d="M242.135 204.086H222.462C220.955 204.086 219.509 203.488 218.443 202.425C217.377 201.361 216.778 199.919 216.778 198.415C216.778 196.911 217.377 195.468 218.443 194.405C219.509 193.342 220.955 192.744 222.462 192.744H242.135C243.643 192.744 245.089 193.342 246.155 194.405C247.221 195.468 247.819 196.911 247.819 198.415C247.819 199.919 247.221 201.361 246.155 202.425C245.089 203.488 243.643 204.086 242.135 204.086Z" fill="white"/>
<path opacity="0.7" d="M259.417 155.725H198.64C198.31 155.725 197.993 155.594 197.76 155.361C197.526 155.128 197.395 154.812 197.395 154.482C197.401 154.158 197.535 153.848 197.768 153.621C198.001 153.395 198.315 153.268 198.64 153.271H259.409C259.572 153.27 259.734 153.301 259.885 153.362C260.036 153.424 260.173 153.515 260.289 153.629C260.405 153.744 260.497 153.881 260.559 154.031C260.622 154.181 260.654 154.342 260.654 154.505C260.648 154.829 260.515 155.138 260.284 155.366C260.053 155.594 259.742 155.723 259.417 155.725Z" fill="white"/>
<path opacity="0.7" d="M259.417 164.772H198.64C198.477 164.773 198.315 164.742 198.164 164.68C198.013 164.619 197.876 164.528 197.76 164.413C197.644 164.298 197.553 164.162 197.49 164.012C197.427 163.861 197.395 163.7 197.395 163.537C197.395 163.208 197.526 162.892 197.76 162.659C197.993 162.426 198.31 162.295 198.64 162.295H259.409C259.739 162.295 260.056 162.426 260.29 162.659C260.523 162.892 260.654 163.208 260.654 163.537C260.654 163.865 260.524 164.179 260.292 164.41C260.06 164.642 259.745 164.772 259.417 164.772Z" fill="white"/>
<path opacity="0.7" d="M259.416 173.85H221.56C221.231 173.85 220.916 173.72 220.682 173.488C220.449 173.257 220.317 172.943 220.315 172.615C220.315 172.285 220.446 171.969 220.68 171.736C220.913 171.503 221.23 171.373 221.56 171.373H259.409C259.739 171.373 260.056 171.503 260.289 171.736C260.523 171.969 260.654 172.285 260.654 172.615C260.652 172.942 260.521 173.255 260.289 173.486C260.058 173.717 259.744 173.848 259.416 173.85Z" fill="white"/>
<path opacity="0.4" d="M104.554 94.5435H100.26V98.827H104.554V94.5435Z" fill="black"/>
<path opacity="0.4" d="M111.797 94.5435H109.704C109.096 94.5435 108.604 95.0349 108.604 95.641V97.7294C108.604 98.3356 109.096 98.827 109.704 98.827H111.797C112.405 98.827 112.897 98.3356 112.897 97.7294V95.641C112.897 95.0349 112.405 94.5435 111.797 94.5435Z" fill="black"/>
<path opacity="0.4" d="M119.284 94.5435H118.918C117.833 94.5435 116.954 95.4205 116.954 96.5023V96.8681C116.954 97.95 117.833 98.827 118.918 98.827H119.284C120.369 98.827 121.248 97.95 121.248 96.8681V96.5023C121.248 95.4205 120.369 94.5435 119.284 94.5435Z" fill="black"/>
<path opacity="0.9" d="M113.416 200.145V198.476L112.561 198.4C112.439 197.858 112.221 197.342 111.919 196.876L112.469 196.212L111.285 195.031L110.62 195.58C110.153 195.278 109.635 195.061 109.092 194.94L109.016 194.086H107.343L107.259 194.94C106.716 195.062 106.198 195.279 105.731 195.58L105.066 195.031L103.882 196.212L104.432 196.876C104.123 197.339 103.906 197.856 103.79 198.4L102.927 198.476V200.145L103.79 200.229C103.906 200.773 104.124 201.29 104.432 201.754L103.882 202.424L105.066 203.598L105.731 203.049C106.195 203.357 106.714 203.574 107.259 203.69L107.343 204.551H109.016L109.092 203.69C109.638 203.574 110.156 203.357 110.62 203.049L111.285 203.598L112.469 202.424L111.919 201.754C112.224 201.289 112.442 200.772 112.561 200.229L113.416 200.145ZM108.153 201.571C107.699 201.571 107.256 201.437 106.879 201.185C106.502 200.934 106.208 200.577 106.035 200.159C105.862 199.741 105.816 199.282 105.905 198.838C105.993 198.394 106.211 197.987 106.532 197.667C106.852 197.347 107.261 197.13 107.705 197.041C108.15 196.953 108.611 196.999 109.03 197.172C109.448 197.345 109.806 197.638 110.058 198.014C110.31 198.39 110.445 198.832 110.445 199.284C110.445 199.891 110.203 200.472 109.773 200.901C109.343 201.33 108.76 201.571 108.153 201.571Z" fill="white"/>
<path opacity="0.6" d="M120.2 204.855V203.575L119.528 203.506C119.437 203.077 119.266 202.669 119.024 202.302L119.452 201.776L118.527 200.854L118.008 201.288C117.638 201.047 117.226 200.876 116.793 200.785L116.732 200.107H115.418L115.357 200.785C114.924 200.876 114.512 201.047 114.142 201.288L113.622 200.854L112.69 201.776L113.126 202.302C112.884 202.669 112.713 203.077 112.622 203.506L111.949 203.575V204.878L112.622 204.947C112.713 205.376 112.884 205.785 113.126 206.151L112.69 206.677L113.622 207.599L114.142 207.165C114.512 207.406 114.924 207.577 115.357 207.668L115.418 208.339H116.732L116.793 207.668C117.226 207.577 117.638 207.406 118.008 207.165L118.527 207.599L119.452 206.677L119.024 206.151C119.266 205.785 119.437 205.376 119.528 204.947L120.2 204.855ZM116.075 205.976C115.722 205.977 115.378 205.874 115.084 205.68C114.79 205.486 114.561 205.209 114.425 204.885C114.289 204.56 114.253 204.203 114.32 203.858C114.388 203.513 114.557 203.196 114.806 202.947C115.054 202.698 115.372 202.528 115.717 202.459C116.063 202.39 116.421 202.424 116.747 202.558C117.072 202.693 117.351 202.92 117.547 203.212C117.743 203.505 117.847 203.848 117.847 204.2C117.848 204.433 117.803 204.664 117.715 204.879C117.626 205.094 117.496 205.29 117.331 205.455C117.166 205.62 116.97 205.751 116.755 205.84C116.539 205.93 116.308 205.976 116.075 205.976Z" fill="white"/>
<path opacity="0.4" d="M113.416 208.567V207.47L112.851 207.416C112.775 207.055 112.633 206.712 112.431 206.403L112.798 205.968L112.034 205.206L111.59 205.564C111.281 205.363 110.936 205.221 110.574 205.145L110.521 204.581H109.405L109.352 205.145C108.99 205.221 108.646 205.363 108.336 205.564L107.893 205.206L107.129 205.968L107.495 206.403C107.294 206.712 107.151 207.055 107.075 207.416L106.502 207.47V208.567L107.075 208.621C107.15 208.984 107.292 209.331 107.495 209.642L107.129 210.076L107.893 210.839L108.336 210.473C108.643 210.68 108.989 210.825 109.352 210.9L109.405 211.464H110.506L110.559 210.9C110.922 210.825 111.268 210.68 111.575 210.473L112.018 210.839L112.782 210.076L112.416 209.642C112.619 209.331 112.761 208.984 112.836 208.621L113.416 208.567ZM109.955 209.505C109.663 209.497 109.378 209.404 109.138 209.236C108.899 209.068 108.714 208.834 108.607 208.561C108.5 208.289 108.476 207.992 108.537 207.706C108.599 207.42 108.744 207.159 108.954 206.955C109.163 206.751 109.429 206.613 109.717 206.559C110.005 206.504 110.302 206.536 110.572 206.649C110.842 206.763 111.073 206.953 111.235 207.197C111.397 207.44 111.483 207.726 111.483 208.019C111.484 208.217 111.444 208.413 111.367 208.596C111.289 208.779 111.176 208.945 111.034 209.083C110.891 209.222 110.723 209.33 110.537 209.403C110.352 209.475 110.154 209.51 109.955 209.505Z" fill="white"/>
<path d="M257.606 96.0225L260.845 104.666L266.262 99.2541L257.606 96.0225Z" fill="#407BFF"/>
<path d="M262.823 100.019L261.613 101.226L264.298 103.905L265.508 102.697L262.823 100.019Z" fill="#407BFF"/>
<path opacity="0.4" d="M266.262 99.2541L257.606 96.0225L260.845 104.666L262.954 102.562L264.291 103.904L265.498 102.699L264.161 101.358L266.262 99.2541Z" fill="white"/>
<path d="M124.884 126.914L133.036 129.963L128.765 125.702C128.607 125.793 128.423 125.829 128.243 125.806C128.062 125.782 127.894 125.701 127.764 125.573C127.606 125.415 127.517 125.201 127.517 124.978C127.517 124.755 127.606 124.541 127.764 124.384C127.922 124.226 128.137 124.137 128.36 124.137C128.584 124.137 128.798 124.226 128.956 124.384C129.084 124.513 129.166 124.681 129.19 124.861C129.213 125.041 129.177 125.224 129.086 125.382L133.357 129.643L130.301 121.51L127.596 122.105L127.497 121.137L126.985 120.626L123.99 123.614L124.502 124.124L125.48 124.224L124.884 126.914Z" fill="#263238"/>
<path opacity="0.2" d="M124.884 126.914L133.036 129.963L128.765 125.702C128.607 125.793 128.423 125.829 128.243 125.806C128.062 125.782 127.894 125.701 127.764 125.573C127.606 125.415 127.517 125.201 127.517 124.978C127.517 124.755 127.606 124.541 127.764 124.384C127.922 124.226 128.137 124.137 128.36 124.137C128.584 124.137 128.798 124.226 128.956 124.384C129.084 124.513 129.166 124.681 129.19 124.861C129.213 125.041 129.177 125.224 129.086 125.382L133.357 129.643L130.301 121.51L127.596 122.105L127.497 121.137L126.985 120.626L123.99 123.614L124.502 124.124L125.48 124.224L124.884 126.914Z" fill="white"/>
<g opacity="0.1">
<path opacity="0.1" d="M122.47 89.1245L93.7585 196.151V89.1245H122.47Z" fill="white"/>
<path opacity="0.1" d="M154.871 89.1245L120.468 217.363H96.769L131.164 89.1245H154.871Z" fill="white"/>
<path opacity="0.1" d="M189.328 89.1245L154.925 217.363H144.206L178.609 89.1245H189.328Z" fill="white"/>
<path opacity="0.1" d="M221.056 89.1245L186.653 217.363H182.818L217.221 89.1245H221.056Z" fill="white"/>
</g>
<path d="M337.612 117.448C340.324 120.565 354.122 147.082 351.455 153.271C348.789 159.46 326.679 152.326 326.679 152.326L328.001 143.583C328.001 143.583 336.588 143.888 337.413 143.073C338.238 142.257 325.793 129.864 325.793 129.864L337.612 117.448Z" fill="#263238"/>
<g opacity="0.2">
<path opacity="0.2" d="M351.44 153.271C351.112 153.987 350.541 154.565 349.828 154.902L349.385 155.1H349.324C349.187 155.157 349.047 155.206 348.903 155.245C348.283 155.444 347.642 155.576 346.993 155.641L346.436 155.694C346.161 155.694 345.886 155.733 345.603 155.74H344.839C337.428 155.74 326.648 152.272 326.648 152.272L327.97 143.53C327.97 143.53 336.557 143.835 337.382 143.019C337.581 142.821 336.993 141.937 335.992 140.733C333.562 137.753 328.696 132.791 326.686 130.763L325.777 129.849L337.612 117.448C340.324 120.535 354.122 147.051 351.44 153.271Z" fill="white"/>
</g>
<path opacity="0.2" d="M349.843 154.879L349.4 155.077H349.339C349.202 155.134 349.062 155.183 348.919 155.222C348.298 155.421 347.658 155.553 347.009 155.618L346.451 155.672C346.176 155.672 345.901 155.71 345.618 155.717H344.854C337.443 155.717 326.663 152.249 326.663 152.249L327.985 143.507C327.985 143.507 337.657 144.323 338.482 143.507C338.635 143.187 337.566 142.105 335.984 140.725C333.555 137.745 328.688 132.783 326.679 130.756L332.271 124.795L336.527 124.338C336.527 124.338 345.947 139.551 349.843 154.879Z" fill="black"/>
<path d="M309.734 116.549C308.206 117.654 307.442 119.224 308.053 120.055L348.423 175.58C349.026 176.411 350.76 176.182 352.288 175.077C353.816 173.972 354.58 172.394 353.969 171.571L313.599 116.038C312.996 115.215 311.269 115.436 309.734 116.549Z" fill="#263238"/>
<path opacity="0.7" d="M313.599 116.038L353.969 171.563C354.573 172.386 353.816 173.957 352.288 175.069C350.76 176.182 349.026 176.396 348.43 175.572L308.06 120.039C307.906 119.75 307.838 119.423 307.864 119.096C307.889 118.769 308.008 118.457 308.206 118.195C308.412 117.828 308.669 117.491 308.97 117.196C309.204 116.955 309.459 116.736 309.734 116.541C311.269 115.443 312.996 115.215 313.599 116.038Z" fill="white"/>
<path opacity="0.3" d="M353.969 171.563C354.572 172.386 353.816 173.957 352.288 175.069C350.76 176.182 349.026 176.396 348.43 175.572C348.094 175.115 348.926 174.421 349.415 173.423L308.205 118.21C308.411 117.843 308.669 117.507 308.969 117.211L349.347 172.745C349.584 172.504 349.839 172.283 350.111 172.082C351.639 170.969 353.365 170.74 353.969 171.563Z" fill="black"/>
<path d="M304.737 115.009C303.445 116.381 303.002 118.058 303.751 118.767L353.946 165.649C354.71 166.35 356.352 165.801 357.644 164.422C358.935 163.042 359.378 161.373 358.629 160.657L308.434 113.774C307.686 113.081 306.028 113.637 304.737 115.009Z" fill="#407BFF"/>
<path opacity="0.7" d="M308.435 113.782L358.629 160.664C359.393 161.358 358.935 163.042 357.644 164.422C356.353 165.801 354.695 166.342 353.946 165.649L303.751 118.766C303.547 118.509 303.419 118.2 303.382 117.874C303.346 117.547 303.402 117.217 303.545 116.922C303.682 116.522 303.872 116.143 304.11 115.794C304.299 115.524 304.509 115.269 304.737 115.032C306.028 113.637 307.686 113.08 308.435 113.782Z" fill="white"/>
<path opacity="0.3" d="M358.629 160.664C359.393 161.358 358.934 163.042 357.643 164.422C356.352 165.801 354.694 166.342 353.946 165.649C353.533 165.26 354.221 164.429 354.511 163.362L303.545 116.937C303.682 116.538 303.872 116.158 304.11 115.809L354.312 162.699C354.497 162.428 354.704 162.173 354.931 161.937C356.222 160.512 357.88 159.963 358.629 160.664Z" fill="black"/>
<path d="M316.8 264.627L312.98 264.688C309.091 246.464 306.341 223.91 304.629 206.898C304.362 204.231 304.118 201.708 303.865 199.353C303.766 198.232 303.667 197.158 303.575 196.121C303.117 191.007 302.811 186.975 302.613 184.444C302.475 182.615 302.406 181.609 302.406 181.609H316.296L316.166 185.123L315.708 196.716L315.662 198.042L315.371 205.702L314.89 218.743C319.634 237.112 316.8 264.627 316.8 264.627Z" fill="#EBB376"/>
<path d="M347.818 263.651L344.052 264.36C336.511 245.557 329.429 221.479 324.822 204.658C324.111 202.051 323.454 199.612 322.866 197.402C322.866 197.287 322.812 197.181 322.782 197.074C321.621 192.684 320.727 189.185 320.169 186.967L319.504 184.277L333.103 181.929L333.867 187.646L335.006 196.03L335.227 197.676L335.991 203.4L338.062 218.751C345.916 236.052 347.818 263.651 347.818 263.651Z" fill="#EBB376"/>
<path opacity="0.2" d="M335.044 196.045L322.866 197.402C322.866 197.287 322.813 197.181 322.782 197.074C321.621 192.684 320.727 189.185 320.169 186.967L333.921 187.646L335.044 196.045Z" fill="black"/>
<path opacity="0.2" d="M316.135 185.123L315.707 196.716L315.661 198.042L303.896 199.345C303.796 198.225 303.697 197.15 303.605 196.114C303.147 190.999 302.841 186.967 302.643 184.437L316.135 185.123Z" fill="black"/>
<path d="M305.501 277.294C306.213 276.718 307.023 276.274 307.892 275.983C307.892 275.983 310.497 273.407 311.758 265.648L315.165 264.756C315.745 264.618 316.352 264.661 316.907 264.877C317.461 265.094 317.936 265.475 318.267 265.968C318.361 266.106 318.433 266.258 318.481 266.418C318.657 267.25 318.78 268.093 318.848 268.941C319.039 271.777 319.056 274.623 318.901 277.462H318.282L318.038 272.127C317.946 270.305 316.548 272.439 316.151 274.413C315.754 276.387 314.906 278.445 310.918 278.544C306.257 278.613 304.324 278.43 305.501 277.294Z" fill="#263238"/>
<path d="M318.389 266.075C318.611 264.261 318.679 261.105 318.679 261.105L311.1 261.944C311.1 261.944 312.017 265.534 311.261 268.232C315.081 267.188 318.389 266.075 318.389 266.075Z" fill="#263238"/>
<path d="M336.335 277.294C337.048 276.721 337.857 276.279 338.726 275.991C338.726 275.991 341.332 273.415 342.585 265.656L346 264.764C346.579 264.626 347.187 264.668 347.741 264.885C348.295 265.102 348.77 265.482 349.102 265.976C349.196 266.114 349.268 266.266 349.315 266.426C349.492 267.258 349.614 268.101 349.682 268.948C349.872 271.785 349.887 274.631 349.728 277.47H349.147L348.903 272.134C348.811 270.313 347.413 272.447 347.016 274.421C346.619 276.395 345.771 278.453 341.775 278.552C337.091 278.613 335.159 278.43 336.335 277.294Z" fill="#263238"/>
<path d="M349.217 266.075C349.446 264.261 349.514 261.105 349.514 261.105L341.936 261.944C341.936 261.944 342.852 265.534 342.096 268.232C345.916 267.188 349.217 266.075 349.217 266.075Z" fill="#263238"/>
<path d="M336.358 192.303L321.942 194.14L321.384 194.208L318.42 183.37L317.656 194.986L302.208 194.178C295.332 153.881 307.09 144.361 307.09 144.361L328.046 148.568C337.535 164.666 335.281 183.37 335.281 183.37L336.358 192.303Z" fill="#407BFF"/>
<path d="M316.51 94.1554C316.51 95.7407 315.807 97.0212 314.982 97.0212C314.157 97.0212 313.408 95.7407 313.408 94.1554C313.408 92.57 314.111 91.2896 314.982 91.2896C315.853 91.2896 316.51 92.57 316.51 94.1554Z" stroke="#263238" stroke-width="0.5" stroke-linecap="round" stroke-linejoin="round"/>
<path d="M326.862 103.729C326.806 103.781 326.745 103.827 326.679 103.866C325.807 104.529 324.813 105.013 323.753 105.291C320.659 106.007 318.542 105.581 317.159 104.186C315.227 102.09 314.745 98.378 315.02 93.8963C315.068 92.1129 315.398 90.3483 315.998 88.6676C315.998 88.6676 315.998 88.5991 315.998 88.5838C315.998 88.5686 316.044 88.4542 316.075 88.3933C316.453 87.4453 317.064 86.6074 317.852 85.9562C318.639 85.3051 319.578 84.8615 320.582 84.6661C321.453 84.472 322.341 84.3723 323.233 84.3689C331.996 84.3003 333.57 98.7667 326.862 103.729Z" fill="#EBB376"/>
<path opacity="0.2" d="M326.678 103.888C325.8 104.513 324.805 104.956 323.752 105.192C320.658 105.908 318.542 105.382 317.159 103.965C319.011 104.421 320.962 104.261 322.713 103.507C323.36 103.269 324.053 103.18 324.74 103.246C325.426 103.312 326.089 103.531 326.678 103.888Z" fill="black"/>
<path d="M327.565 111.777C328.107 114.262 324.875 115.276 324.875 115.276C319.596 112.989 318.618 110.223 318.618 110.223C323.026 107.936 321.751 101.45 321.751 101.45L322.644 101.892L328.932 103.119C328.932 103.119 327.19 106.457 326.961 107.219C325.769 111.221 327.565 111.777 327.565 111.777Z" fill="#EBB376"/>
<path d="M315.99 88.6296C315.99 88.6296 315.509 94.7271 321.338 97.3871C321.338 97.3871 323.837 103.751 327.511 103.835C332.531 103.957 336.947 96.846 335.213 89.5975C332.943 80.1921 318.664 79.4299 315.99 88.6296Z" fill="#263238"/>
<path d="M318.374 95.6262C318.374 94.6734 319.138 93.0652 320.666 93.2862C322.194 93.5073 323.065 97.303 319.275 98.149C318.702 98.271 318.374 97.6307 318.374 95.6262Z" fill="#EBB376"/>
<path d="M326.679 82.1203C326.679 82.1203 320.827 80.6417 317.587 82.9968C313.806 85.7407 312.369 88.5761 316.823 92.9815C316.823 92.9815 326.656 89.8032 329.926 90.4739C331.837 90.8585 333.713 91.4016 335.534 92.0974C336.244 85.6188 329.949 80.7941 326.679 82.1203Z" fill="#263238"/>
<path d="M318.374 94.1555C318.374 94.1555 319.902 101.213 317.503 107.235C317.503 107.235 331.408 112.044 336.244 109.43C341.08 106.815 336.649 98.0427 336.443 92.9817C336.236 87.9208 334.036 80.4437 326.679 82.1205C319.322 83.7973 318.374 94.1555 318.374 94.1555Z" fill="#263238"/>
<path d="M313.37 93.6982H319.245" stroke="#263238" stroke-width="0.5" stroke-linecap="round" stroke-linejoin="round"/>
<path opacity="0.2" d="M321.941 194.14L321.384 194.208L318.419 183.37C318.419 183.37 324.776 172.539 322.789 166.899C323.072 167.295 329.918 177.425 321.941 194.14Z" fill="black"/>
<path d="M310.039 111.229C310.039 111.229 317.03 108.744 327.565 111.777C338.101 114.811 338.498 119.285 338.498 119.285C338.498 119.285 331.821 134.384 330.766 151.48L303.308 150.459C303.308 150.459 300.031 126.328 310.039 111.229Z" fill="#263238"/>
<path opacity="0.2" d="M338.497 119.285C338.497 119.285 331.82 134.384 330.765 151.48L303.307 150.458C302.979 147.675 302.811 144.876 302.803 142.074C302.749 137.973 303.004 133.874 303.567 129.811C304.484 123.484 306.371 116.731 310.038 111.198C310.038 111.198 317.029 108.713 327.564 111.747C338.1 114.78 338.497 119.285 338.497 119.285Z" fill="white"/>
<path opacity="0.2" d="M309.657 130.87C309.657 130.87 308.518 137.821 302.781 142.105C302.727 138.004 302.982 133.904 303.545 129.841L309.657 130.87Z" fill="black"/>
<path d="M279.318 110.748L275.857 105.626C275.857 105.626 275.33 103.401 274.658 102.898C273.985 102.395 267.339 99.5668 266.537 99.5821C265.734 99.5973 265.773 104.75 266.537 105.626C267.301 106.503 271.533 108.378 272.648 108.568C273.764 108.759 273.214 108.568 273.214 108.568L276.27 114.666L279.318 110.748Z" fill="#EBB376"/>
<path d="M310.038 111.228C302.624 114.326 295.471 118.012 288.646 122.25L277.469 107.006C277.469 107.006 274.459 107.936 273.344 113.164C273.344 113.164 279.081 134.971 286.538 137.135C293.994 139.3 309.672 130.832 309.672 130.832C309.672 130.832 314.21 119.506 310.038 111.228Z" fill="#263238"/>
<path opacity="0.2" d="M310.038 111.228C302.624 114.326 295.471 118.012 288.646 122.25L277.469 107.006C277.469 107.006 274.459 107.936 273.344 113.164C273.344 113.164 279.081 134.971 286.538 137.135C293.994 139.3 309.672 130.832 309.672 130.832C309.672 130.832 314.21 119.506 310.038 111.228Z" fill="white"/>
<path d="M317.106 110.268C317.106 110.268 319.543 127.677 327.267 128.378C334.991 129.079 338.452 116.183 337.145 114.659C335.839 113.134 325.884 110.154 317.106 110.268Z" fill="#263238"/>
<path opacity="0.3" d="M317.106 110.268C317.106 110.268 319.543 127.677 327.267 128.378C334.991 129.079 338.452 116.183 337.145 114.659C335.839 113.134 325.884 110.154 317.106 110.268Z" fill="white"/>
<path d="M42.2952 270.389H47.9564L48.4224 257.317H42.7612L42.2952 270.389Z" fill="#B97964"/>
<path d="M48.736 269.741H41.86C41.7467 269.739 41.6364 269.777 41.5483 269.848C41.4603 269.919 41.4002 270.019 41.3787 270.13L40.2632 275.153C40.2397 275.26 40.2376 275.371 40.2572 275.479C40.2768 275.586 40.3175 275.689 40.3772 275.782C40.4369 275.874 40.5142 275.953 40.6048 276.015C40.6954 276.077 40.7974 276.121 40.905 276.144H41.0883C43.3116 276.106 44.9083 275.968 47.7199 275.968C49.4465 275.968 54.5959 276.151 57.0101 276.151C59.4243 276.151 59.6917 273.811 58.7214 273.598C54.359 272.645 51.0814 271.311 49.6833 270.084C49.4224 269.854 49.0839 269.732 48.736 269.741Z" fill="#263238"/>
<path d="M49.1259 270.526C49.0999 270.519 49.0767 270.505 49.059 270.484C49.0413 270.464 49.0301 270.439 49.0266 270.412C49.0218 270.387 49.0251 270.361 49.036 270.337C49.047 270.314 49.0651 270.295 49.0877 270.283C49.294 270.153 51.1199 269.033 51.7464 269.353C51.8172 269.386 51.8766 269.439 51.9174 269.505C51.9582 269.571 51.9784 269.648 51.9756 269.726C51.9965 269.86 51.9813 269.997 51.9316 270.123C51.8819 270.249 51.7996 270.359 51.6929 270.443C51.3766 270.663 50.9926 270.766 50.608 270.732C50.108 270.717 49.6111 270.648 49.1259 270.526ZM49.5155 270.336C50.1761 270.559 50.8971 270.524 51.5325 270.237C51.5986 270.177 51.6492 270.102 51.6798 270.018C51.7104 269.935 51.7202 269.845 51.7082 269.757C51.7082 269.65 51.6624 269.597 51.6242 269.597C51.5699 269.569 51.5093 269.556 51.4484 269.558C50.7606 269.693 50.1047 269.957 49.5155 270.336Z" fill="#407BFF"/>
<path d="M49.0867 270.549C49.0668 270.536 49.0506 270.518 49.0399 270.496C49.0292 270.475 49.0243 270.451 49.0256 270.427C49.0256 270.351 49.1708 268.727 49.7896 268.194C49.8655 268.126 49.9556 268.076 50.0534 268.047C50.1511 268.018 50.2542 268.011 50.355 268.026C50.4565 268.027 50.5548 268.062 50.6338 268.126C50.7129 268.19 50.7681 268.278 50.7905 268.377C50.9051 268.971 49.7743 270.214 49.186 270.534H49.1249L49.0867 270.549ZM49.9959 268.362C49.5994 268.87 49.3676 269.487 49.3312 270.13C49.9119 269.688 50.63 268.75 50.5613 268.384C50.5613 268.384 50.5612 268.247 50.3626 268.247H50.3015C50.1889 268.246 50.0799 268.287 49.9959 268.362Z" fill="#407BFF"/>
<path opacity="0.2" d="M42.7618 257.325H48.4231L48.1786 264.071H42.5173L42.7618 257.325Z" fill="black"/>
<path d="M71.4272 270.816L77.2719 271.433L78.3644 258.872L72.5274 258.255L71.4272 270.816Z" fill="#B97964"/>
<path d="M77.8824 269.558H71.0523C70.9398 269.559 70.8309 269.598 70.7435 269.669C70.656 269.739 70.5952 269.837 70.571 269.947L69.4555 274.977C69.4281 275.083 69.422 275.193 69.4376 275.301C69.4532 275.409 69.4902 275.513 69.5463 275.606C69.6025 275.7 69.6767 275.782 69.7648 275.846C69.8528 275.911 69.9528 275.958 70.0591 275.983H70.2425C72.4657 275.945 74.0624 275.808 76.8816 275.808C78.6006 275.808 83.7576 275.983 86.1642 275.983C88.5708 275.983 88.8458 273.644 87.8756 273.43C83.5131 272.485 80.2356 271.144 78.8374 269.916C78.5749 269.683 78.2344 269.555 77.8824 269.558Z" fill="#263238"/>
<path d="M78.272 270.344C78.246 270.336 78.2228 270.322 78.2051 270.301C78.1874 270.281 78.1762 270.256 78.1727 270.229C78.1671 270.203 78.1709 270.176 78.1835 270.152C78.196 270.128 78.2166 270.11 78.2414 270.1C78.4401 269.97 80.266 268.85 80.8925 269.177C80.9633 269.208 81.0231 269.26 81.064 269.325C81.1049 269.39 81.125 269.466 81.1217 269.543C81.1403 269.677 81.1249 269.814 81.0768 269.94C81.0287 270.067 80.9496 270.179 80.8467 270.267C80.5247 270.481 80.1398 270.581 79.7541 270.549C79.2541 270.534 78.7572 270.465 78.272 270.344ZM78.6616 270.161C79.3232 270.382 80.0442 270.344 80.6786 270.054C80.7453 269.995 80.7962 269.92 80.8269 269.836C80.8575 269.752 80.8669 269.662 80.8543 269.574C80.8543 269.467 80.8085 269.421 80.7703 269.421C80.7198 269.391 80.6609 269.378 80.6022 269.383C79.921 269.516 79.2722 269.78 78.6922 270.161H78.6616Z" fill="#407BFF"/>
<path d="M78.2419 270.374C78.221 270.361 78.2038 270.343 78.1917 270.322C78.1797 270.3 78.1733 270.276 78.1731 270.252C78.1731 270.168 78.3183 268.552 78.9753 268.019C79.0531 267.953 79.1432 267.904 79.2403 267.874C79.3373 267.844 79.4395 267.834 79.5407 267.843C79.6426 267.843 79.7416 267.878 79.8209 267.941C79.9002 268.005 79.955 268.095 79.9761 268.194C80.0907 268.796 78.96 270.039 78.3717 270.351H78.3106L78.2419 270.374ZM79.1434 268.179C78.7471 268.684 78.5152 269.299 78.4787 269.939C79.0593 269.505 79.7775 268.56 79.7087 268.194C79.7087 268.194 79.7087 268.057 79.5101 268.057H79.4566C79.3412 268.06 79.2304 268.103 79.1434 268.179Z" fill="#407BFF"/>
<path opacity="0.2" d="M72.5266 258.255L78.3636 258.872L77.7906 265.351L71.9536 264.733L72.5266 258.255Z" fill="black"/>
<path d="M45.0759 142.638H75.124C77.9737 158.194 86.9125 213.232 80.472 262.302L70.3031 261.045C70.3031 261.045 71.2429 195.946 62.2735 171.868C61.2421 184.749 59.9815 198.453 58.9501 205.748C56.3372 223.697 50.7447 262.912 50.7447 262.912H40.4231C40.4231 262.912 42.5394 225.366 43.5173 207.729C44.5869 188.56 45.0759 146.571 45.0759 142.638Z" fill="#263238"/>
<path d="M81.6641 264.634L69.0811 262.767L69.4707 259.292L82.558 261.006L81.6641 264.634Z" fill="#407BFF"/>
<path d="M52.021 262.981H39.8123V259.345L52.4794 259.101L52.021 262.981Z" fill="#407BFF"/>
<path opacity="0.2" d="M62.3047 171.845C63.7791 176.065 64.9009 180.399 65.6587 184.803C66.4991 173.37 63.1374 161.175 63.1374 161.175L62.3047 171.845Z" fill="black"/>
<path d="M44.2435 147.852L43.5559 151.472C43.5559 151.472 64.5736 154.185 77.6456 154.109L77.1872 151.624L44.2435 147.852Z" fill="#407BFF"/>
<path d="M86.8982 116.503C86.8982 116.503 94.1638 139.369 99.1222 140.893C104.081 142.417 116.694 123.523 116.694 123.523C116.694 123.523 128.024 123.416 128.529 122.646C129.033 121.876 125.587 113.911 124.762 113.904C123.937 113.896 114.066 117.6 113.692 118.225C113.317 118.85 101.987 129.658 101.468 129.338C100.948 129.018 96.6392 115.428 96.6392 115.428L86.8982 116.503Z" fill="#B97964"/>
<path d="M118.191 122.288C118.281 122.27 118.371 122.247 118.459 122.219L118.329 122.135C118.287 122.19 118.241 122.241 118.191 122.288Z" fill="#B97964"/>
<path d="M82.772 113.865L83.6582 115.489L87.7915 123.111L88.6548 124.689L100.26 120.664C100.26 120.664 95.4315 102.692 93.7583 100.847L82.772 113.865Z" fill="#407BFF"/>
<path opacity="0.4" d="M82.772 113.865L83.6582 115.489L87.7915 123.111L88.6548 124.689L100.26 120.664C100.26 120.664 95.4315 102.692 93.7583 100.847L82.772 113.865Z" fill="white"/>
<path opacity="0.2" d="M83.658 115.489L87.7912 123.111C90.3506 118.103 89.6095 111.244 89.6095 111.244L83.658 115.489Z" fill="black"/>
<path d="M93.7582 100.855C91.5717 98.3359 88.8945 96.287 85.8895 94.8325C82.8844 93.3781 79.6143 92.5486 76.2779 92.3945C64.9095 91.8609 61.334 92.989 57.1779 96.6932C51.1041 102.105 43.5481 148.698 43.5481 148.698C54.6332 151.776 66.1485 153.025 77.6378 152.394C77.6378 152.394 77.7753 139.437 81.878 130.74C86.4986 121.053 90.4674 111.069 93.7582 100.855Z" fill="#407BFF"/>
<path opacity="0.4" d="M43.5481 148.698C54.6332 151.777 66.1481 153.028 77.6378 152.402C77.6378 152.402 77.6378 150.801 77.8593 148.355C77.951 147.196 78.0885 145.84 78.2795 144.376C78.4705 142.913 78.7456 141.244 79.0435 139.582C79.2269 138.69 79.4408 137.791 79.67 136.899C80.2029 134.782 80.9292 132.718 81.8398 130.733C82.344 129.666 82.833 128.606 83.3067 127.57C84.1241 125.756 84.9034 123.995 85.5987 122.311C87.1267 118.767 88.4255 115.527 89.5103 112.692C90.2743 110.657 90.9619 108.835 91.5197 107.273C92.1385 105.527 92.6275 104.094 92.9865 103.027C93.4526 101.617 93.6818 100.847 93.6818 100.847C93.3022 100.373 92.8939 99.9228 92.4594 99.4984C88.1956 95.3056 82.5583 92.7886 76.5835 92.41H76.2015C67.5377 92.006 63.4045 92.5624 60.0887 94.4908C59.0195 95.1291 58.0186 95.8749 57.1015 96.7164C56.239 97.6488 55.56 98.7348 55.0998 99.9176C53.6877 103.194 52.5281 106.572 51.6312 110.024L51.127 111.876C50.363 114.704 49.6448 117.715 48.9572 120.763C48.7586 121.632 48.5676 122.501 48.3766 123.363C48.0939 124.689 47.8112 126.007 47.5438 127.311C46.8562 130.596 46.2374 133.782 45.6949 136.648C44.9309 140.763 44.3121 144.208 43.9454 146.35C43.6933 147.859 43.5481 148.698 43.5481 148.698ZM76.9349 92.8292C77.7014 92.8485 78.4664 92.907 79.2269 93.0045C82.2829 93.4161 86.9815 95.8627 86.8669 97.0212C86.7523 98.1798 84.9645 101.137 80.3958 100.421C78.804 100.128 77.2932 99.4987 75.9646 98.5761C73.4434 96.9145 71.6098 94.6661 71.4265 93.9344C71.1973 93.0578 74.1616 92.7606 76.9425 92.8444L76.9349 92.8292Z" fill="white"/>
<path d="M67.1408 108.363C67.1408 108.363 61.1205 122.898 59.8828 134.979L76.1637 137.052C76.1637 137.052 83.4675 117.41 84.9802 111.267C84.9802 111.251 71.9769 109.956 67.1408 108.363Z" fill="#407BFF"/>
<path opacity="0.4" d="M81.8025 111.815L84.0639 112.044L82.406 113.325L81.8025 111.815Z" fill="white"/>
<path d="M72.9397 93.9721C74.1697 97.4782 78.7461 99.0788 81.145 99.3075C82.0285 99.4465 82.9332 99.292 83.7201 98.8678C84.5069 98.4437 85.1322 97.7733 85.4998 96.9599C85.4998 96.9599 82.7571 95.5956 83.0321 94.0636C83.2264 93.1267 83.6113 92.2395 84.1628 91.4569C84.4484 91.01 84.7597 90.5799 85.0949 90.1688L80.7019 80.771C79.724 84.8411 76.7215 92.6612 72.9397 93.9721Z" fill="#B97964"/>
<path opacity="0.2" d="M80.526 85.1079C78.4327 89.6811 81.3894 92.8289 83.032 94.0332C83.2263 93.0963 83.6111 92.2091 84.1627 91.4265L80.526 85.1079Z" fill="black"/>
<path d="M95.2561 72.9055C95.2561 72.9055 96.6619 80.6493 92.6127 83.7515C88.5634 86.8536 88.1509 72.3872 88.1509 72.3872L95.2561 72.9055Z" fill="#B97964"/>
<path opacity="0.4" d="M95.2561 72.9055C95.2561 72.9055 96.6619 80.6493 92.6127 83.7515C88.5634 86.8536 88.1509 72.3872 88.1509 72.3872L95.2561 72.9055Z" fill="black"/>
<path d="M80.7779 90.2681C81.6807 91.5238 82.9716 92.4491 84.4525 92.9021C85.9334 93.3551 87.5224 93.3107 88.9756 92.7757C90.8736 92.111 92.4452 90.7477 93.3686 88.9648C93.4985 88.7285 93.6131 88.4694 93.7277 88.2026C95.6224 83.3932 96.0197 71.6554 90.9161 72.0899C86.6989 72.4481 82.5733 71.1524 80.4188 74.788C79.8034 75.8223 79.4421 76.9872 79.3645 78.1874C78.9061 83.7971 78.3713 87.0517 80.7779 90.2681Z" fill="#B97964"/>
<path d="M87.562 80.9621C87.4703 81.4042 87.6842 81.8081 87.9822 81.8539C88.2801 81.8996 88.5705 81.5566 88.6392 81.0917C88.708 80.6267 88.5093 80.2457 88.219 80.2075C87.9287 80.1694 87.6307 80.5048 87.562 80.9621Z" fill="#263238"/>
<path d="M92.6736 81.6858C92.5819 82.1279 92.8034 82.5319 93.0938 82.5776C93.3841 82.6233 93.682 82.2804 93.7432 81.8154C93.8043 81.3505 93.6209 80.9694 93.323 80.9237C93.025 80.8779 92.7347 81.259 92.6736 81.6858Z" fill="#263238"/>
<path d="M91.0161 81.6782C91.3603 83.1324 91.9027 84.5326 92.6281 85.8398C92.2859 86.0172 91.9089 86.118 91.5236 86.1351C91.1383 86.1522 90.7539 86.0852 90.3972 85.9389L91.0161 81.6782Z" fill="#A24E3F"/>
<path d="M86.2176 79.0869C86.2642 79.1009 86.3137 79.1018 86.3608 79.0897C86.408 79.0777 86.4509 79.053 86.485 79.0184C86.7189 78.7779 87.0056 78.595 87.3224 78.4839C87.6393 78.3728 87.9777 78.3366 88.3109 78.3781C88.3807 78.3919 88.4531 78.3781 88.513 78.3397C88.5728 78.3014 88.6154 78.2414 88.6318 78.1723C88.6396 78.1382 88.6404 78.1029 88.6342 78.0685C88.6279 78.0342 88.6148 78.0014 88.5955 77.9722C88.5762 77.943 88.5512 77.918 88.522 77.8987C88.4928 77.8794 88.46 77.8661 88.4255 77.8598C88.0104 77.7991 87.5867 77.8365 87.1886 77.9688C86.7905 78.1012 86.4292 78.3249 86.1335 78.622C86.084 78.6732 86.0564 78.7415 86.0564 78.8126C86.0564 78.8836 86.084 78.952 86.1335 79.0031C86.1578 79.0346 86.186 79.0628 86.2176 79.0869Z" fill="#263238"/>
<path d="M95.1189 80.2374C95.1681 80.2562 95.2225 80.2562 95.2717 80.2374C95.3057 80.2288 95.3375 80.2133 95.3652 80.1917C95.3928 80.1702 95.4156 80.1431 95.4321 80.1123C95.4486 80.0814 95.4586 80.0475 95.4612 80.0126C95.4638 79.9777 95.4592 79.9427 95.4475 79.9097C95.3263 79.5033 95.109 79.1318 94.8138 78.8267C94.5186 78.5216 94.1542 78.2918 93.7514 78.1566C93.7178 78.1462 93.6824 78.1428 93.6474 78.1464C93.6124 78.1501 93.5785 78.1608 93.5478 78.1779C93.5171 78.195 93.4902 78.2181 93.4687 78.2459C93.4472 78.2737 93.4316 78.3056 93.4229 78.3396C93.404 78.4073 93.4127 78.4797 93.447 78.5411C93.4813 78.6024 93.5385 78.6478 93.6062 78.6673C93.9223 78.7833 94.207 78.9711 94.4377 79.2158C94.6684 79.4606 94.8389 79.7555 94.9356 80.0774C94.9507 80.117 94.9753 80.1523 95.0073 80.1802C95.0393 80.2081 95.0776 80.2277 95.1189 80.2374Z" fill="#263238"/>
<path d="M86.8518 86.1372C86.8518 86.1372 87.7915 88.1494 89.7092 88.0732" stroke="#263238" stroke-width="0.5" stroke-linecap="round" stroke-linejoin="round"/>
<path d="M84.4145 71.8916L84.4909 74.3764C84.0553 74.5341 83.6958 74.8506 83.4846 75.2621C83.2734 75.6736 83.2262 76.1495 83.3525 76.5943C83.9484 78.7285 82.4739 81.823 80.7702 82.951C80.7702 82.951 80.7702 82.0516 80.0062 82.1888C79.2422 82.326 79.0053 87.0059 80.2659 89.361C80.2659 89.361 77.569 86.8839 76.7668 81.8763C76.0028 77.2498 76.148 74.3154 76.7668 72.0974L84.4145 71.8916Z" fill="#B97964"/>
<path opacity="0.4" d="M84.4145 71.8916L84.4909 74.3764C84.0553 74.5341 83.6958 74.8506 83.4846 75.2621C83.2734 75.6736 83.2262 76.1495 83.3525 76.5943C83.9484 78.7285 82.4739 81.823 80.7702 82.951C80.7702 82.951 80.7702 82.0516 80.0062 82.1888C79.2422 82.326 79.0053 87.0059 80.2659 89.361C80.2659 89.361 77.569 86.8839 76.7668 81.8763C76.0028 77.2498 76.148 74.3154 76.7668 72.0974L84.4145 71.8916Z" fill="black"/>
<path d="M76.339 74.8719C79.0654 75.1382 81.817 74.9709 84.4909 74.3765C92.1843 72.8521 95.4619 75.6722 95.4619 75.6722C95.9942 75.1945 96.4136 74.6049 96.6897 73.9458C96.9659 73.2868 97.0919 72.5748 97.0587 71.8613C96.8371 69.6509 93.7582 69.2774 93.7582 69.2774C93.7582 69.2774 92.8337 66.7851 90.7939 66.0305C88.754 65.2759 86.7065 67.1662 86.7065 67.1662C86.7065 67.1662 84.1623 64.7119 81.198 65.4131C80.2001 65.6174 79.3028 66.1573 78.6561 66.9426C78.0094 67.7279 77.6526 68.7108 77.6454 69.7271C77.6454 69.7271 74.1692 70.0777 74.2456 71.8613C74.322 73.6448 76.339 74.8719 76.339 74.8719Z" fill="#263238"/>
<path d="M88.1584 84.201C89.5382 84.201 90.6567 82.9145 90.6567 81.3276C90.6567 79.7406 89.5382 78.4541 88.1584 78.4541C86.7787 78.4541 85.6602 79.7406 85.6602 81.3276C85.6602 82.9145 86.7787 84.201 88.1584 84.201Z" stroke="#263238" stroke-width="0.5" stroke-linecap="round" stroke-linejoin="round"/>
<path d="M96.9369 81.7621C96.8681 82.2393 96.6633 82.6866 96.3469 83.0509C96.0304 83.4153 95.6157 83.6812 95.1522 83.8171C94.6886 83.953 94.1956 83.9531 93.7319 83.8175C93.2682 83.6818 92.8534 83.4161 92.5368 83.052C92.2202 82.6878 92.0151 82.2406 91.9461 81.7635C91.877 81.2864 91.9468 80.7995 92.1472 80.3609C92.3475 79.9222 92.6701 79.5502 93.0763 79.2892C93.4825 79.0282 93.9554 78.8892 94.4386 78.8887C95.1502 78.9433 95.8116 79.2756 96.2793 79.8135C96.7469 80.3514 96.9832 81.0516 96.9369 81.7621Z" stroke="#263238" stroke-width="0.5" stroke-linecap="round" stroke-linejoin="round"/>
<path d="M90.6494 81.679C90.6494 81.679 91.4592 81.174 91.9406 81.7631" stroke="#263238" stroke-width="0.5" stroke-linecap="round" stroke-linejoin="round"/>
<path d="M85.6602 81.3352L81.2825 80.7484C80.7087 80.6746 80.129 80.8308 79.6705 81.1828L79.4795 81.3352" stroke="#263238" stroke-width="0.5" stroke-linecap="round" stroke-linejoin="round"/>
<path d="M76.2935 82.387C76.7325 83.7275 77.6857 84.8401 78.9446 85.4815C80.6177 86.3123 81.8096 84.9099 81.6415 83.1492C81.4887 81.5791 80.442 79.2163 78.5855 79.1249C78.1892 79.1116 77.7959 79.1972 77.4411 79.3739C77.0864 79.5506 76.7814 79.8127 76.5538 80.1366C76.3262 80.4606 76.1832 80.836 76.1378 81.2289C76.0923 81.6219 76.1458 82.0199 76.2935 82.387Z" fill="#B97964"/>
<path opacity="0.2" d="M48.3772 123.385C55.5894 120.397 61.2888 108.057 61.2888 108.057L57.1938 105.588L51.6318 110.047L51.1276 111.899C50.3636 114.727 49.6454 117.737 48.9578 120.786C48.7592 121.655 48.5682 122.524 48.3772 123.385Z" fill="black"/>
<path d="M88.0977 124.696L100.536 120.131L100.895 121.19L88.4491 125.611L88.0977 124.696Z" fill="#407BFF"/>
<path d="M55.8706 156.062L19.8171 150.358L16.2911 172.543L52.3446 178.246L55.8706 156.062Z" fill="#407BFF"/>
<path d="M32.5699 158.804L25.2432 162.592L31.0343 168.454" stroke="white" stroke-width="2" stroke-linecap="round" stroke-linejoin="round"/>
<path d="M39.5679 169.803L46.887 166.015L41.1035 160.153" stroke="white" stroke-width="2" stroke-linecap="round" stroke-linejoin="round"/>
<path d="M33.5857 168.858L38.5517 159.75" stroke="white" stroke-width="2" stroke-linecap="round" stroke-linejoin="round"/>
<path d="M52.8766 98.6826C52.8766 98.6826 39.2851 112.288 37.4362 114.933C35.5873 117.577 32.0424 146.899 32.0424 146.899C32.0424 146.899 31.2784 147.158 31.2325 147.791C31.1867 148.423 31.1103 156.655 31.2325 157.036C31.3548 157.417 37.6043 161.266 38.5287 160.351C39.4532 159.437 40.7367 150.115 40.7367 150.115L37.4362 146.899C37.4362 146.899 41.2562 125.306 43.6781 121.807C46.0999 118.309 55.9708 110.824 55.9708 110.824L52.8766 98.6826Z" fill="#B97964"/>
<path d="M63.3202 93.2026C65.2989 97.3871 63.7939 106.198 60.1419 109.308C56.278 112.504 52.1932 115.426 47.9179 118.05L41.2559 109.338C41.2559 109.338 48.3458 102.433 52.6395 98.4541C55.5598 95.6298 59.2961 93.7927 63.3202 93.2026Z" fill="#407BFF"/>
<path opacity="0.4" d="M63.3202 93.2026C65.2989 97.3871 63.7939 106.198 60.1419 109.308C56.278 112.504 52.1932 115.426 47.9179 118.05L41.2559 109.338C41.2559 109.338 48.3458 102.433 52.6395 98.4541C55.5598 95.6298 59.2961 93.7927 63.3202 93.2026Z" fill="white"/>
<path d="M41.256 108.774L40.4309 109.902L47.3909 118.98L48.3765 118.271L41.256 108.774Z" fill="#407BFF"/>
</g>
<defs>
<clipPath id="clip0_1017_5697">
<rect width="382" height="284" fill="white" transform="translate(0 0.794434)"/>
</clipPath>
</defs>
</svg>
